<svg xmlns="http://www.w3.org/2000/svg" viewBox="0 0 200.31 128.68"><defs><style>.logo_title_svg1{fill:#e9571e;}.logo_title_svg1,.logo_title_svg2{fill-rule:evenodd;}.logo_title_svg2{fill:#006448;}</style></defs><title>アセット 1</title><g id="レイヤー_2" data-name="レイヤー 2"><g id="レイヤー_1-2" data-name="レイヤー 1"><path class="logo_title_svg1" d="M41.5,113.72l.27.06,0-.11.32-.1v.11c.06-.06,0,0,.06-.11l.26,0c0-.15,0-.12.17-.16v-.05c0-.1,0,.1,0,.1h.11l-.06-.11H43c.12-.17.19-.06.38-.15l0-.1c.12,0,.15.05.22.05v-.05h.26V113a1.42,1.42,0,0,0,.22.06c0-.07-.05,0-.06,0s.11,0,.11,0c.2.15.22-.13.43,0a.9.9,0,0,0,.1.11v-.16l.37,0v-.06h.11v0c.09,0,0,0,0,.11s.09-.1.11-.11l.16.06,0-.1h.32v0H46v0l.27,0,.06-.1.47.11a.51.51,0,0,0-.1-.21h.16v0h.32v-.11c.26,0,.3-.1.54-.14V112c.16,0,.33-.12.43-.05h.05v.16l-.16,0v-.06a.63.63,0,0,0-.27-.06v.06h.11l0,.16H48v0l.11,0v0c.12-.07.11-.14.17-.26l.21.16.06-.26c.14,0,.11,0,.15.16.15,0,.41,0,.27-.1.12,0,.23,0,.32,0l0-.1h0c.06-.1.08-.09.11-.21h.11c-.11-.35.16-.39.33-.58.08,0,0,0,.06,0l.16,0v.06h.1v0a1.52,1.52,0,0,0,.43.12,1.48,1.48,0,0,0,0,.21h.16a.34.34,0,0,0,.21.38l-.12.21h.06v.06h.16v0h.05l-.12.38c-.06,0,0,0-.1,0a1.93,1.93,0,0,0-.12.42h-.11l0,.21h-.11v.1h-.11l-.06.32h-.11V114L50,114V114c0,.06,0,.28,0,.48s-.15.21-.27.31c-.06-.06,0,0-.11-.06V115h-.16c.05.31,0,.34-.17.53l-.06.11h-.05v-.06c-.07-.08,0,.11,0,.11h-.06s.12.26.05.37h-.06c0-.11,0,0,0-.11l-.05.16h-.06v.32l-.11.05v.27h0v.1l-.11.06,0,.21a.9.9,0,0,0-.11.1l-.16,0-.06.32a.07.07,0,0,1,0,.1l-.11,0v.22h0v.1h0v.22h-.06a.47.47,0,0,0-.11.32h-.16v.1a1.36,1.36,0,0,0-.43.1l-.06.11h-.21v.06c-.13.09-.16.09-.17.31l.48.17v.06a.57.57,0,0,0,.42.22c0,.17.08.11.1.32h.16a.55.55,0,0,0,0,.22.54.54,0,0,1,.21,0v.11h.16l0,.21.21-.05v.06h0c0,.05,0,.1,0,.16h0a1.07,1.07,0,0,0,.32.22h.1c.09.08,0,.27.1.38h0a.36.36,0,0,0,.27.16c0,.11,0,0-.06.11v0c-.11-.07-.15.06-.21,0l0-.1h-.06v0l-.32,0v0h-.1l0-.11c-.2-.1-.33,0-.48,0v0l-.27-.06V121a.6.6,0,0,1-.37-.06l-.05-.11-.16,0v-.1s-.11.08-.21,0v-.06h-.21v-.06a.62.62,0,0,0-.27,0v-.16h-.32l-.26-.33h-.16l0-.11L46,120v-.11l-.37-.06-.21-.27h0v-.16l-.1,0v-.06h-.06v-.16l-.27-.06c0-.14-.07-.12-.1-.26h-.16v-.1c-.16-.1-.21-.28-.36-.38l0-.16h.06c0-.11,0-.22,0-.32h.06v-.06h-.06l.12-.31a.85.85,0,0,0,.42,0v-.11h.22l-.06.11h.06s0-.09.1,0v0c.06.06,0,0,0,.11l.16.06v0h.16v.06h.11v0c.07.07.07,0,.1.16.26.08.16.23.47.28v.11h.11l0-.16h0c.06-.06,0,0,.11,0,0-.22-.07-.24,0-.43l.15.11c-.07-.21-.05-.21.07-.37h0c0-.06,0,0,0,0v-.06h0v-.16s.09,0,.11-.11h0v0L47,117c.12-.24-.15-.29.06-.37,0-.12,0-.25,0-.37h.11l.06-.32h0c.06.07,0,0,.11.06a2,2,0,0,0,0-.22h0v-.11h.11c0-.3.16-.37.23-.58a1.6,1.6,0,0,1-.05-.21l.16,0,.06-.16.1,0c0-.15.05-.29.07-.43l.1,0c0-.05,0-.11,0-.16h.05v0h-.05v-.06h.05a.37.37,0,0,0,.11-.26h.11c0-.27.12-.17.22-.31l.06-.27.11,0,0-.16h-.1v0h-.22v0h-.1V113h-.16v0H48v0h-.16v0h-.22l0,.1h-.11v0h-.27s0,.07-.05.1h-.32v0h-.16v.05h-.16v0h-.16v0h-.1v0l-.59.09v.06H45.5v.06l-.38,0V114L44,114V114h-.22v.06h-.37v0h-.11v.05h-.43v.06h-.1v.06h-.16v.06h-.37l-.06.1s-.52-.06-.63-.06A2.77,2.77,0,0,1,41.5,113.72Zm.69.17v0h0v0h.1C42.21,113.89,42.25,113.83,42.19,113.89Zm.65-.41h.1v.06h-.1Zm.32,0h-.11c-.08-.06.1,0,.11,0s-.08,0-.11-.05v-.06h.22v.21C43.16,113.51,43.22,113.55,43.16,113.49Zm2.14,4.36h.11v.06H45.3Zm.91-5.2h.11v0h-.11Zm.22-.16v.05h0v0h-.1C46.41,112.49,46.37,112.55,46.43,112.49Zm.83,3.48v-.1h.06C47.29,116,47.32,115.91,47.26,116Zm1.2,1.31h.11v0h-.06v.06h0Zm.7-5.37v-.11h.06C49.18,111.91,49.22,111.85,49.16,111.91Zm.14,3.31c0,.1,0,0,0,.1C49.28,115.22,49.24,115.28,49.3,115.22Zm11.39.64v.1h.11c0-.15,0-.12.16-.16v0h0a1.46,1.46,0,0,0,.58.06,1.09,1.09,0,0,1,0,.17c.29,0,.32.09.59.11v.16l.22,0v.1c.17,0,.11-.08.32-.1v.06h-.11v.06h.05l0,.11c.09,0,.1-.11.17-.16s0,.18,0,.27l.48.11v.16h.1l0,.27h0a.33.33,0,0,0,0,.32h-.16v0c.1,0,0,0,.1.06l-.37,0v0h0v0l-.32,0c0,.1,0,0-.06.1-.11-.22,0,.11-.32,0l0-.1-.11.05v-.06l-.21,0v-.06l-.32-.06v0l-.1,0v-.11l-.16,0v-.06h-.11v0H61l0-.16c-.13-.15-.19.07-.26-.22s.09-.35,0-.58l-.1-.06.05-.16s-.11,0-.16-.11Zm.05,0v-.11h.06C60.76,115.86,60.8,115.8,60.74,115.86Zm2.12.74H63v.05h-.1Zm.24-1.6h.16V115h0v-.21l.59.07s0-.11.05,0v.1c.15,0,.12.07.26.11v.11a.83.83,0,0,0,.27.06v.21h.06v-.1c.06-.1,0,.1,0,.1a.43.43,0,0,1,.21.12v0H65v.06l.21.16-.06.16h0v0h.22v.1l.16.06a.49.49,0,0,0-.06.27s.09,0,0,.1h0c-.06.06,0,0-.11.05v.22h-.11l.06-.16H65v0h0v.16h-.26l-.06.1c-.15,0-.12-.09-.16-.11l-.42-.06c-.06-.22,0-.06-.16-.16l-.05-.11h-.16l-.21-.27-.21-.06s-.09-.17-.16-.22a1.51,1.51,0,0,1,0-.48h-.11l.06-.21-.11-.06Zm3.07,3.75h.16l.06-.26c.06,0,0,0,0-.06h.16c0-.09,0-.18,0-.27l.16,0c0-.24.12-.27.22-.42H67c0-.06,0-.09,0-.21h.1v-.11h.06l0-.11h0c.06-.06,0,0,.11-.06a.79.79,0,0,1,.06-.21h-.06l0-.16h.06v0l.16,0v0h0l0-.1h0v-.16l.11-.05v-.11h-.16v-.11l.11,0,0-.27a.13.13,0,0,0,.06-.16l-.1-.05a.08.08,0,0,1,0-.11v0h0c0-.13,0-.14.06-.21h-.11c0-.24-.16-.35-.2-.53s0-.1,0-.11a2.44,2.44,0,0,0,0-.27h0c0-.19.1-.17.11-.21l0-.16.32,0,0,.06v-.11h.06V114a.62.62,0,0,0,.27,0v-.05h-.21v-.1h.27v.32l.21.06a1.42,1.42,0,0,1,.05.22l.06-.06c.17,0,.26.21.25.38s0,0,.06.11h.1v.11c.15,0,0,0,.16,0l-.06.16h.06c0,.09.13.18.1.32h-.06l-.06.32.16.11V116l0,.06h0c-.07.06,0,0-.11.06l-.06.21h.16a1.24,1.24,0,0,1-.06.37H69v.1h-.1s0,.11,0,.16h.06c.06.06,0,0,.1.06s0,.22-.22.26a1.62,1.62,0,0,0,0,.58h-.11V118l-.16-.06v.11l-.16,0,0,.16a1.44,1.44,0,0,1-.48.1v.21h.16v-.06c0-.1,0,.11,0,.11a1,1,0,0,0-.48.1v0a.83.83,0,0,1-.42,0,.53.53,0,0,0-.12.21c-.12,0-.31.09-.42.1s0-.08-.11-.11v.11c-.11,0-.1-.06-.11-.06C66.23,118.93,66.17,119.08,66.17,118.75Zm2.12-4.22h.1v0h-.11Zm.24,3.31h.11v0h-.11Zm13.53-4a.71.71,0,0,0,.43-.09v-.06h.16v-.06H83v0c.06-.06,0,0,0-.11s.14,0,.22,0v0h.21l.06-.1.48-.15.06-.16.16.06v-.16h.05v.21h.1a1.42,1.42,0,0,0,0-.16h.06v0l.48-.1v-.1c.13,0,.14,0,.22.06l.05-.11.32.06a.67.67,0,0,0,.17-.48s-.1-.09-.1-.16.09,0,0-.1a.91.91,0,0,0-.16-.11,2.44,2.44,0,0,0,0-.27h0v-.11h0a2.56,2.56,0,0,1,0-.27h-.05v-.1L85.1,111a1.74,1.74,0,0,1-.14-.8h-.11a.49.49,0,0,1,.05.21l-.16,0v-.16h0v.21c-.44,0-.4.39-.87.41,0,.15-.06.17-.21.21l0-.27h0v.21h0c-.06-.06,0,0-.11,0v-.11c-.13,0-.11,0-.21.1a.82.82,0,0,0-.16-.22c0-.14.09-.14,0-.26h0a.29.29,0,0,1,.11-.11v.11h0v.16h.06v0h0l.06-.27a.09.09,0,0,1,0-.1h0v-.16h.1c.08-.26.23-.17.28-.47h.21l0-.16h.06a.31.31,0,0,1,.11-.21h0v-.11l.11,0c.05-.08,0-.16.06-.21h.1v-.21h.1c0-.3.14-.17.22-.31v-.11h-.11v0h0v-.06l.1.06c.08-.08,0,0,.06-.11s0,0,.05-.05a1.17,1.17,0,0,1-.05-.11h.05v-.06h.1c0-.06,0,0-.05,0s.05-.14.06-.21l0-.16.11,0v-.11h0l.06-.16.15.11v-.16h0V107h.11a.52.52,0,0,0,.11-.26s-.09,0,0-.11h0c.06-.06,0,0,.11,0a1.48,1.48,0,0,1,.12-.53h.1c0-.09,0-.17,0-.26.16-.11,0-.15.27-.21s.31-.05.42,0v0h.22v0h0c.07,0,0,0,.05,0v0l.16.06c-.06.1-.22.21-.17.42h.06l-.06.11h0v0l.37.06v.06h0s0,.29,0,.37a1,1,0,0,0-.26.1v0H87V107l.16,0c-.06.16-.12.32-.17.47s-.11,0-.11,0l-.11,0c0,.14.09.16,0,.27h-.11a.38.38,0,0,1,.1.22h-.16c0,.14.06.56-.06.31h-.1l-.06.27h.11c0,.17-.09.11-.12.32h-.1v-.16h0c-.06-.06,0,0-.11,0v.1h.1c0,.15.07.22,0,.37H86.1l.05.11h-.1c0,.31-.12.21-.33.32l0,.1c-.08,0,0,0-.06,0a.33.33,0,0,0-.21,0l0,.21h-.16a.92.92,0,0,1,0,.16h0c-.06.06,0,0-.11,0l-.06.26.22-.05v0l.64.07a1,1,0,0,0,.1.27c.06,0,.16-.2.27-.16v.06c.06.06,0,0,0,.1h-.16v0h0v.06h.27l0,.06v.16h0l.05.16a.44.44,0,0,0-.11.1h.16V111h.16a.66.66,0,0,1-.06.26h0l.11.22H86.9v0h-.05v0c-.1,0-.07,0-.11,0a.65.65,0,0,1,.16.21c.11-.08,0-.1.21-.15,0,.15.07.12.1.27h-.1v.16h.11v.1a.21.21,0,0,1,.1.11h.06c0-.13.06-.11.11-.21l.16.06V112l.1.06v0h-.06l.06-.16c.21,0,.28-.09.48,0v-.06h0c0-.07,0-.14,0-.21h0v.11h0v0c.13,0,.12.06.21.11a.75.75,0,0,0,0-.16l.06-.06h0v.16h.1a1.55,1.55,0,0,0,0-.22l.16,0v-.06h.16l.06-.11a.73.73,0,0,0,.42,0l.06-.11.21,0v.16h0c.06-.06,0,0,.11-.06v.11h-.16c0,.14.07.12.1.27h.16l0-.21h.11v.16h.06l-.06.21,0,.06h-.11c-.06-.1,0-.09-.21-.11,0,.06.07.23,0,.32h-.06c-.06-.06,0,0-.1,0s0,.17,0,.26l-.22-.06a1.07,1.07,0,0,1-.16.32l-.11-.05v.05c-.06.06,0,0-.06.1h-.1l-.06.11c-.1,0,0-.06,0-.11a.78.78,0,0,1-.21,0v.1l-.17,0a.91.91,0,0,1-.11.16h0v0a.73.73,0,0,0-.32,0v.16H88v0l-.11,0v0c-.06.06,0,0-.06.11l-.31-.06-.06.16c-.12,0-.19,0-.16.21h0l-.06.1h.06l0,.27h0V114h-.21v.1h.16a.54.54,0,0,0,0,.21h0v0h-.06v.16h0v0h0a.81.81,0,0,0,0,.16h.06v0H87.1c0,.09.08,0,.11.06v.37l-.32.1c0,.15,0,.12.15.16a.6.6,0,0,0,0,.22h-.16a2,2,0,0,1,0,.38h-.11c0,.12,0,.24,0,.37l-.16-.06.06-.16-.26-.06v.06a.31.31,0,0,1,.16.11c-.1.06-.09,0-.11.21h0v0h.16v0h-.1v0h-.21v0h0v0h0v.06l.11-.06v.06c.06.06,0,0,.06.11h-.16a1.55,1.55,0,0,0,0,.22l-.16,0c0-.14-.07-.12-.1-.26L86,117v.1H86c.06-.06,0,0,.11,0l-.06.16h0v.06h.06v-.06c.09,0,0,.08,0,.11h-.16v.1h.1v.1c-.17,0-.2.08-.32,0v0c-.09,0-.22,0-.11.1v.06c-.09,0-.07-.06-.16,0h.1s-.08.05-.1.1h.16v.05h0v0l-.32-.06c0,.11,0,.22.05.32l-.32.05-.06-.05a.47.47,0,0,1,0,.1h-.21v0c.06.06,0,0,.06.11a4.53,4.53,0,0,0-.49.2.14.14,0,0,1-.16-.06c-.11,0-.1,0-.1,0h-.27a.63.63,0,0,1,.06-.27h-.16v0h.16a.68.68,0,0,1,.16-.26h.06v-.21h.06c.06-.06,0,0,.1-.05,0-.24.13-.22.22-.37v-.06h-.06v0h.06l0-.11.27-.2,0-.11.1,0,.06-.32.16,0c0-.09,0-.2,0-.22h0v-.22l.11,0v0h0a1.29,1.29,0,0,0,.06-.22h.1c0-.15.13-.51.12-.53h0l0-.11h.16a1.6,1.6,0,0,1,0-.21l.11,0v-.11h0l-.1-.16.11,0,0-.22h.16v-.11h-.11l.06-.27h-.11a.67.67,0,0,0,.06-.21h0v.05h-.27a.42.42,0,0,1-.11.15v-.21H85v.1h-.1V114c-.19.11-.24.25-.54.26,0,0,0,.1,0,.16a.33.33,0,0,0-.38,0l0,.11-.27,0v.06h-.27v-.05a.63.63,0,0,0-.37,0c0,.15,0,.12-.16.16v0h-.21V115h-.16v0c-.06-.06,0,0,0-.11h.11v-.1c-.32.11-.41-.06-.64-.18,0-.16,0-.32.07-.48h0A.53.53,0,0,0,82.06,113.82Zm1.44-2.52v-.11h0C83.52,111.3,83.56,111.24,83.5,111.3Zm1.71,2h.06a.39.39,0,0,1,0,.21h-.1Zm0,4.75h.1v.11h-.1Zm1-7.12c0-.05.1.1.1.11l-.1-.06Zm0,5.81v-.06H86.1v-.05h.11C86.17,116.74,86.21,116.68,86.15,116.74Zm.24-5.92h-.06v0l.16,0v.16C86.38,110.85,86.44,110.89,86.39,110.82Zm0,5.71h.11v0h-.11Zm.32-2.61h.11V114h-.11ZM87,106.2c.07-.06,0,0,.11,0v0Zm0,5.17v-.11h0C86.93,111.37,87,111.31,86.91,111.37Zm0,3.09h.1v.06H87Zm.26.22v-.11h.05C87.23,114.68,87.27,114.62,87.21,114.68Zm2-2.41h.16v.06h-.16Zm18.15-4.56a.45.45,0,0,0,.27-.1v-.06l.16.06v0h.16a.41.41,0,0,1,0-.11c.27,0,.18-.07.42-.09l.06-.16.27.06-.05-.16H109c.06-.06,0,0,.11,0V107l.16,0v0h.16l0-.1h.11v0h.27l0-.1.16,0v0h.11v0l.32-.05.06-.1a.07.07,0,0,1,.1,0c.12,0,.15,0,.22,0v.16h.06a.4.4,0,0,1,.06-.21h-.16v0h0c.06-.06,0,0,.11-.05v-.11H111s0-.12-.05-.21h.11c0-.13,0-.25,0-.38h0v-.16l.06-.06-.11,0,.06-.16h-.06v-.11H111a2.44,2.44,0,0,0,0-.27l-.11,0,0-.16H111v0h-.1c0-.16,0-.32-.05-.48s.08,0,.06,0l-.11,0c0-.13,0-.25,0-.38.18-.12,0-.19.37-.2.17.2.45.24.52.54.13,0,.1,0,.16.11h.06a1.55,1.55,0,0,0,0,.22h0v.1h.06l-.06.27.15.06c0,.26.06.26.1.42s-.07.16-.06.22l.11,0-.06.11h.06c.06.06,0,0,.1,0s0,.14,0,.22l.1,0c0,.09,0,.18,0,.27l.32,0v.11h.1v-.1H113V106h.16v.1h.1V106c.17,0,.19,0,.43,0l0,0,.06-.1a2.47,2.47,0,0,1,.43-.1v0l.59,0a.9.9,0,0,0,.31.33c.07,0,.22,0,.26.11v.16h0a.44.44,0,0,1,0,.27h-.11l-.06.48-.11,0c0,.12,0,.25,0,.37l-.1,0c0,.13,0,.25,0,.38h0v.1H115v.16h0c0,.11,0,.21,0,.32l-.21.16c0,.1,0,.21,0,.32h-.1c0,.08.06.09,0,.22a.08.08,0,0,0-.05.1l.1.06v.11h-.1a1.7,1.7,0,0,0,0,.22h0a.46.46,0,0,0,0,.26l-.11,0c0,.12.06.16,0,.22h-.06v.1h0c0,.15.09.14.1.17l-.06.21h0V111l-.1,0c0,.11.11.31,0,.48h0v.11l-.1,0,0,.27-.1,0c0,.11,0,.21,0,.32h0v.16h-.06c0,.12,0,.25,0,.37H114v0c.05,0,.15,0,.11.16H114l-.05.21h-.11v0a.71.71,0,0,1,.26.06,1.8,1.8,0,0,0-.17.37h0v0l-.21.1v.11c-.1-.17-.31,0-.38,0s0-.07-.16-.11v-.16H113v-.11l-.21-.16-.05-.16h-.11l0-.1h-.11l-.26-.32H112v-.11h-.11c0-.15,0-.12-.16-.17s-.06-.1-.15-.21h-.06a.37.37,0,0,1,0-.11h-.27v.16h.1v0h-.16c0,.1,0,.21,0,.32l-.11,0,0,.16-.16.1v0H111l-.06.16-.1,0-.06.27-.32.1a.89.89,0,0,0-.12.26l-.26-.06v.06h0c0,.06-.1.07-.16.1v-.11h0v0a.86.86,0,0,1-.48.1v.1l-.21,0v.06l-.42-.12,0-.11h-.21v-.06h-.11v0a.42.42,0,0,0-.21-.11,1.7,1.7,0,0,1,0-.22h-.06l.06-.1-.16-.11.06-.16.53,0c.09-.32.11-.1.33-.21l0-.1a.48.48,0,0,1,.38-.16.79.79,0,0,1,.06-.21h-.06v0l.11,0v-.16l.11,0V112l.17-.1v-.22l.11-.05v-.26h.11v-.06h0c-.06-.06,0,0-.11,0s-.07-.12-.1-.32H110v-.27h.06a2.25,2.25,0,0,1,0-.22l.1-.05v-.11l.16.06v0c.06-.06,0,0,.05-.11l-.21-.06v0c.25,0,.2.11.22-.16h.05v-.22h-.11v-.21c0-.08.07,0,.06,0s-.08,0,0-.11h0v-.11h.06V109h0v-.16l.11,0-.06-.11h.06c.06-.06,0,0,.11-.05l0-.26-.11-.06c0-.15.09-.12.11-.16v-.26h0a.66.66,0,0,0,.17-.27c-.3.06-.45.24-.81.25V108l-.27,0,0,.1h-.27v.05h-.11v0h-.11l-.05.1h-.32v0h-.16v.05h-.06v-.05h-.06v.05a1.2,1.2,0,0,1-.48,0v.1a2,2,0,0,1-.48-.06v.11h0v-.06c-.11-.09,0-.12-.11-.21l-.15-.11V108h0v-.1h0Zm1.4-.35h.16v0l-.17,0Zm1.77,1.75h.11v0h-.11Zm.13,4.16h-.06v-.16h.16v0h-.11Zm.22-.53s.1.11.1.11l-.1-.06Zm1.67-.71-.37-.27-.05-.17c-.09,0-.09,0-.11.06s0,0,0-.06h-.16c-.17-.11,0-.23-.31-.28v0h.16c.07-.05,0-.12.06-.21l.1,0v-.16h-.11v-.11h.11a4.2,4.2,0,0,0,0-.42l.1,0c0-.11,0-.22,0-.32l.11,0,0-.06,0,0c0-.08,0,0,0-.06v-.21H112l0-.16h.1c0-.19,0-.39.07-.58h0c0-.11.07-.18,0-.21h0v0l.11.06.06-.59h.11c0-.22-.11-.44.06-.58v0h-.16v-.1l.43,0,0-.1h.32v0h.06s0,.09.1.06V107h.11c.05,0,0-.17.21-.11l0,.11.17-.05V107h.06c0,.07-.13.09-.11.21h0v.16h.05l-.12.53c-.13,0-.1,0-.16.1s0,.31-.07.53h0v.11h0l0,.11-.11,0a.14.14,0,0,0,0,.16l-.06.32h0c0,.11.06.16,0,.21l-.1,0-.06.21h.11l-.06.1h0v.27h-.06v.1h0c0,.12.06.15,0,.22h-.06v.26h0v.16h0a2.56,2.56,0,0,0,0,.27H113v.21h0v.21h-.05a1.6,1.6,0,0,0,.05.21l-.11.06,0,.05c0,.11-.06.11-.06.11a.75.75,0,0,1,0,.16h0v.1c-.11-.07-.11-.12-.26-.16Zm-.68-3.11H112v0h-.16Zm0,.22h.1v0h-.1Zm.75-3c0,.1,0,0,0,.1C112.62,106.17,112.58,106.23,112.64,106.17Zm.3,1.07.06-.1h0v0h0v0Zm5.18-5.59.22-.05,0,.11.37.11c0,.05,0,.11,0,.16s.12,0,.16.17h.1v.1l.32.17c0,.09,0,.18,0,.27h.06v.11h.05l-.06.42.16.06c-.13.25-.07.06,0,.37h-.11v0h.16v.05c-.08.06-.09.1-.11.21h.16V104h-.06v0l-.16,0,0,.21h-.11v0h0c.06.08-.13,0-.16,0v0h-.26l-.06.06a.75.75,0,0,1,.06-.22h-.16v-.11h0a.29.29,0,0,1-.11.11c-.13-.19-.1,0-.26-.12s-.09-.12-.16-.16l.06-.1h0v-.06h0c-.06-.06,0,0-.11,0,0-.2.07-.21,0-.43h0c0-.18,0-.36,0-.53h-.06v-.11h-.06a2.44,2.44,0,0,0,0-.27l-.11,0v-.06h0v-.26h0Zm2-.71.27,0c.12.18.31.2.47.33l.1.21h.11l0,.11h.11l0,.11.21.17v.1l.1.06v.16h-.11c.06.06,0,0,.11,0s0,.07.16.11l-.06.21h0v.11h0v.27h-.16l0,.1h-.11l-.06.11h-.1v.06a1,1,0,0,0-.43,0,.22.22,0,0,0-.1-.11l0-.16h-.1s0-.11.05-.16h-.05c-.06-.09,0-.07-.16-.11a.86.86,0,0,1,0-.16l-.11,0v-.11l-.21-.16v-.16l-.1-.06v-.16h0v0h.11v0h-.06l0-.32h-.06a1.48,1.48,0,0,0,0-.21l-.11,0A1.42,1.42,0,0,0,120.11,100.94Zm1.46,1.69h.1v.05h-.1ZM132,106.86v-.16c.24,0,.14-.09.42,0v-.11l.53.07v-.22a.41.41,0,0,0,.32-.09v-.06h.21v.1c.18,0,.1-.06.21-.15v-.06h.48v0h.11v0c.09,0,.1,0,.11.06h.05v-.06a.44.44,0,0,1,.43.12v-.11c.17,0,.1-.1.16.06h.1l.06-.16h.05l0,.11.22,0v0l.53,0v-.11h.26v0c-.18,0-.2,0-.27.15h.11a.46.46,0,0,1,.16-.11V106a.44.44,0,0,1,.26.22.73.73,0,0,0-.32,0l.1.16.16,0v-.1h0v.21h-.22c0,.07,0,0,.05,0s-.1,0-.1,0v.06s.18,0,.1,0h-.05c-.08.11-.09.1-.27.1s0,0-.11,0L136,107l-.15-.06V107c-.06.06,0,0-.05.1l-.16,0c-.08.06.06.1-.16.15v-.1l-.16-.06v0c.06.07,0,0,.05.11l-.64.09v.11l-.22-.06v.16h-.05c-.06-.06,0,0-.11,0s0,0-.05.1c-.07-.11-.06-.07-.21-.11v0H134l-.05.1-.16-.06v.06h-.05a.81.81,0,0,0,0,.16h-.05l0-.1-.49.2h0v0H133v.06h-.11a.09.09,0,0,0-.11-.06v0a.44.44,0,0,1-.32,0v.16h-.05c-.06-.1,0-.08-.16-.11l.05.21a2.59,2.59,0,0,1-.64,0v.1l-.65.1v0c-.1,0-.07,0-.1-.06s0,0-.06.06l-.31-.06a1.8,1.8,0,0,1-.26-.76c.21-.11.42-.38.65-.3L131,107l.16.11v0h0v0l.37-.1.06-.1.21,0v0Zm1.83-.65H134c.06,0-.06.06-.06.06v0l-.1-.06Zm1.87-.33c.06-.06,0,0,.11,0v0Zm12.36,2.82c0-.21.08-.27,0-.43h.05c.06-.12.07-.17.22-.2l-.05-.16h.06c0-.11,0-.2.11-.27h.1a2.77,2.77,0,0,0-.1-.26l.11-.06v-.1h.22v0h-.16v-.06h.05l-.05-.16c.09-.09.1.06.17-.15h-.11v-.05c.15-.11.14.1.22-.15h.1a2.44,2.44,0,0,0,0-.27h.16v0c-.09-.06-.07,0-.1-.16s.07,0,.11-.16h-.11a1.06,1.06,0,0,0,.12-.48h.1l.06-.31.16,0v-.06h-.16v-.11a.67.67,0,0,0,.27,0,1.09,1.09,0,0,1,0-.17c-.15,0-.12,0-.16-.16h-.11a1.36,1.36,0,0,0,.12-.27h.1c.05-.07,0-.07.11-.11s-.17-.27-.15-.32h.05v0h.16v-.27l-.06.06-.1-.06a1.17,1.17,0,0,1,.16-.16c0-.1,0-.21,0-.32h.05l.12-.37h-.06c-.06-.06,0,0-.1,0v-.16l.21,0v-.11h-.06c0,.07,0,.06-.11.11v-.16l.16-.05c0-.07,0-.15-.05-.22H150a2.26,2.26,0,0,0,0-.26s-.08,0-.05-.16H150c0-.11,0-.22,0-.32h0l.06-.32.16,0a1.12,1.12,0,0,1,.64,0v0l.16.06-.06.16H151c.09-.14.15-.11.37-.1v0a.41.41,0,0,0-.16.16c.16,0,.11.09.15.11h.22v0l.15.06.05.21h.06c0,.12,0,.25,0,.37s-.08,0-.06.06l.11,0a.62.62,0,0,1-.06.37h0c0,.09,0,.18,0,.27s-.05,0-.05,0,.07,0,.05.06h-.05v.16h-.05v.06h.05v.05h-.05v.16h-.05c0,.12,0,.25.05.37s-.07,0-.06.11a.08.08,0,0,1,.05.11l-.11,0,.06.1-.11.06a1.42,1.42,0,0,0,0,.16h-.11c0,.11,0,.22,0,.32h-.1v.06h.1v-.06h.16v.1h-.21c0,.14,0,.28,0,.43l-.16.1.05.11h-.05v.1h-.05v.21h-.06v.16h0a.36.36,0,0,0,0,.32h-.21v0c.06,0,.14,0,.11.16l-.11,0,0,.16h-.16v.05c.08,0,.21,0,.15.17h-.05c-.06.06,0,0-.11,0a.75.75,0,0,1,0,.16h0l-.06.26h-.16c0,.09.06.22,0,.32h0v0l-.37.05a.15.15,0,0,0-.16-.06l-.06,0v0h.06v0a.62.62,0,0,1,.32,0c.08,0,0,.06.06.06v-.06h.1c-.05.21-.05.05-.16.15s0,.06,0,.06-.08,0-.1,0v.1h-.1V108l-.27,0v.06H150l.05.21-.16,0v.06c-.08,0,0,0-.06-.06l-.21,0v.06c.1.06.12.07.15.21h-.1v-.11h-.16l-.06.26h-.1l0-.16h-.06v.16h-.32l-.06.11c-.15.1-.2,0-.32-.06V109l-.42-.07-.05-.16H148v0Zm1.12.24v-.11h0C149.23,108.94,149.27,108.88,149.21,108.94Zm.55-1.06h.16c.07,0,0,0,0,0v0l-.11,0Zm.32,0v0h.11v0H150S150,107.74,150.08,107.84Zm1-3.45c0,.11,0,0-.05.11C151,104.39,151,104.45,151.06,104.39Zm.13-1c0,.11,0,.05-.05.11C151.17,103.38,151.13,103.44,151.19,103.38Zm.25-1.49h.1v0h-.11Zm2.24,4.85-.22.05v-.05c.12-.08.06-.06.12-.22h0v-.06l0,0h0v-.21l.26.06v-.06h-.05c-.06-.06,0,0-.11,0v-.06l-.16.05c0-.14,0-.12.17-.15v-.16h-.11c0-.1,0-.21,0-.32l.16-.05c0-.14-.07-.12-.1-.27h.11v-.27h0V105h-.11c0-.07.08-.08.06-.21s-.07,0-.05-.11h.05v-.06h-.05v0h.05v-.11h.1a1.42,1.42,0,0,0-.05-.16l.06,0h-.11V104l.16,0c-.06-.24-.1-.14-.05-.42H154l-.1-.11c-.06-.15.13-.42.17-.53l-.16-.06a.68.68,0,0,0,.11-.21l-.16,0c.06-.06,0,0,.11-.06a.91.91,0,0,1,.07-.69h.05v0H154c0-.08,0,0,.05-.05s-.05-.11-.05-.11a.43.43,0,0,1,.06-.27,1.71,1.71,0,0,1,.64,0v-.06c-.13,0-.1,0-.16-.11h.11v-.06h.21v.1H155v.1h-.16c0,.15,0,.12.15.16v-.1h.16v0l.11,0v.06a.56.56,0,0,1,.36.59h-.11c0,.12,0,.14.05.21h.06v.16h.06c0,.27,0,.54,0,.8h-.06a.09.09,0,0,0,.06.11c0,.11,0,.21,0,.32h-.05c0,.07,0,0,.05,0s-.05.36-.07.53a1.09,1.09,0,0,1,.05.17h-.05v.16h-.06a.14.14,0,0,0,.05.16l-.05.11s.09,0,.05.11h-.06c-.06.06,0,0-.1,0l-.05-.16c-.06.06,0,0-.06.1s0,0,0,.05l.32.06v.06a.54.54,0,0,0-.16.1h.11a2.56,2.56,0,0,0,.05.27h-.06v.11s-.12,0-.11.1h.06v.05l.22,0c0-.15,0-.12.16-.16s0,0,.11,0c.08-.27.18-.14.33-.31h.05v-.11c.17,0,.12-.08.16-.1h.22v0l.16,0v-.16H157v0h.05v-.21l.17,0,.05-.11c.12,0,.21,0,.27.06,0-.19,0-.1,0-.27,0,0,.17.12.27.06v0s-.19-.08-.16-.11h0c.07-.09,0-.07.17-.1a.21.21,0,0,0,.1.11.48.48,0,0,1,.06-.21c.18,0,.15,0,.27,0s0-.26.21-.21v.06h.11l0,.27.16,0v.1c-.11.08-.11.13-.11.32h-.11v.16h-.11v.1l.16,0v.16c-.06.06,0,0-.06.11l-.15-.06v.05h.06c0,.1-.11.13,0,.32h0v.06c-.08,0,0,0-.06-.06h-.16v0h.16v0h-.06c-.06-.06,0,0-.1,0V105h-.11c.05.12.08.1.1.27a.65.65,0,0,1-.27,0c0,.13.06.12.1.21l-.32,0v.11l.16,0v.1h0c-.07.06,0,0-.11,0v.11c-.19,0-.14.11-.33.15v.11h-.16c0,.17.1.1-.06.16v.16c-.07,0,0,0,0-.06h-.05v0c-.18.07-.18.16-.32.26v.06h-.11v.11c-.15,0-.12,0-.16.16h-.22c0,.07,0,.06-.11.11l.05.16-.26,0c-.05.14,0,.11-.17.15v.11h-.27c0,.13.06.12.11.22h-.22v.06l-.16-.06-.05.11-.32,0v-.21l-.27,0v-.11c-.07.06,0,0-.06.11h-.11v.11l-.69-.12v-.11h-.21l.06-.16-.11-.06c-.1-.16,0-.1,0-.21h-.06v-.11h0l0-.16h0C153.62,106.87,153.64,107,153.68,106.74Zm0-.21h.11v0h-.11Zm.07-3.09v-.11h.05C153.77,103.44,153.81,103.38,153.75,103.44Zm.08,1.22H154v0h-.16Zm.22-.58v0H154v0h.11C154.08,104.08,154.12,104,154.05,104.08Zm0,3.57c0,.11,0,0-.05.11C154,107.65,154,107.71,154,107.65Zm.77-6h.11v.06h-.1Zm-.08,6.29c.06-.06,0,0,.1,0v0Zm.22-5.49h.11v0h-.11Zm0-.8h.16v.05H155Zm0,3.41h.21v0h-.21Zm.3-1.59v.06h0v0h-.11C155.22,103.52,155.18,103.58,155.24,103.52Zm0-1.81h.1v.06h-.1Zm0,2.29v0h.06v0h0v.1Zm1.83,1.85c0,.11,0,.05-.06.11C157.09,105.85,157.05,105.91,157.11,105.85Zm.67-1.26a.21.21,0,0,0,.1.11v0l-.16-.06C157.75,104.59,157.71,104.65,157.78,104.59Zm-.05-.22h.1v.05h-.1Zm.22-.31h.1v.06H158Zm.14.7H158l0-.16h.1Zm.92-.62V104h.06C159,104.14,159.07,104.08,159,104.14Zm.17-.48h-.11c.06-.17,0-.08,0-.27h0v.06h.06Zm15.43,1.24c0-.06,0-.11,0-.16h.1a1.48,1.48,0,0,0,0-.21h.1v-.16l.38-.31V104l.11,0,0-.16.22-.16v-.1l.11,0v-.11l.17-.1.27-.32v-.16l.16,0v-.16h.1c.08-.27.36-.39.44-.69H177l.12-.38h.21a.65.65,0,0,1,.17-.42l.11,0v-.22h.11c0-.12,0-.13.06-.21h0v-.16l.11-.05s-.09-.07.06-.21l.22-.1v-.16l.11,0v-.22l.11,0,.06-.21.16-.1c0-.07,0,0-.05-.06l0-.1c-.08,0-.05.1-.06.1l-.37-.06-.06.21h-.21v.1h-.1v-.16h-.11l.05.16a.22.22,0,0,0-.16.1c-.1,0,0-.06-.05-.1l-.16,0v.1a.89.89,0,0,1-.37-.06v.11h-.05a1.66,1.66,0,0,1-.16.21v.05h-.11l.06-.16h-.06c-.08.11-.13.1-.32.1v.1l-.21,0v.1h-.16v.11l-.27,0v0h-.27v-.27c-.06,0,0,0,0-.06l-.16,0c0,.11,0,0,0,.11,0-.5.27-.39.33-.85a.45.45,0,0,0,.22-.1v0l.75-.09c.05-.18.1-.16.32-.16v.06H177c0-.05,0-.1,0-.16l.32.06.05-.16h.11l-.05-.11h.21c.12-.17.28-.07.48,0v-.21l.37.06v0h.27v-.11c.07,0,0,0,.05.06s.29-.15.32-.21,0,0,.06-.1a3.29,3.29,0,0,1,.37-.1v0h-.1c-.06.06,0,0-.11,0s0,.11.05.16a1.39,1.39,0,0,1,.27-.1l0-.16h0v0h.22l.11-.16a1.18,1.18,0,0,1,.48,0v0h.05c0,.11-.17.28-.12.42l.16.11-.11.16c0,.09.19.23.21.32h-.06v.16l-.11,0,.05.16h-.05l-.06.21h-.05v.11l-.11.05v.21h-.05v.11h-.06c0,.07,0,.09,0,.21H180V100c-.15,0-.12,0-.17.15h-.05v.06h.05c0,.1,0,.06-.05.1v.06h-.16v.16h-.1a.55.55,0,0,0-.06.26h-.11l0,.16h0V101l-.16-.06c-.08,0-.06.19-.06.32l-.16.05v.1l.06,0,.1.06-.11.15-.16,0-.06.27c.14,0,.09,0,.16.11H179v.11h.06l0,.16h.16l0,.16.11.06c.09.13-.06.09.16.16l-.06.16c.17,0,.11.09.16.11h.21l.05.1c.23.16.41.16.47.49l.32.12.1.16.16,0,.05.11h.11v0h.11v.06h.11v0h.05v0h.22v.1h.1v.11h.16a.64.64,0,0,0,.2.38l-.05.16H182V105h-.05v.1l-.1,0v.16h-.05v-.05c-.13,0-.11.08-.16.1h-.11v-.11h-.1c0,.08,0,0,.05,0s-.11.06-.11.06c-.17-.24-.27-.19-.58-.18V105l-.32-.06,0-.16a.87.87,0,0,1-.21,0l.05-.1h-.05a.31.31,0,0,0-.26-.17v-.1l-.27-.06v-.11h-.11v-.16h-.21l0-.16h-.11v-.11l-.21-.11-.06-.11c-.08-.05-.16,0-.21-.05a2.56,2.56,0,0,0-.05-.27l-.15-.06v0c-.11-.1-.17-.1-.21-.27h-.11c0-.15,0-.12-.15-.17v.06c-.15,0-.12,0-.17.15h-.16a.4.4,0,0,1-.06.21h0l0,.16c-.17,0-.2.12-.37.15v.11h-.1l-.06.16-.16,0-.22.26h-.05v.1h-.1l-.06.21h-.16a2.44,2.44,0,0,1,0,.27,1.71,1.71,0,0,1-.43.2V105h-.16v.22h-.11v.06h-.05v.16l-.11,0c-.1.19.06.24-.22.31v.06h-.16c0,.17.11.1,0,.16a.41.41,0,0,1,0,.11h-.16a2.25,2.25,0,0,1,0,.22l-.38.09,0,.11a1,1,0,0,1-.48,0c0-.07,0-.06-.11-.11l.06-.21-.05-.06h.05V106h.06v-.21h0v-.16l.11,0,.05-.16.22-.16v-.16h.06V105h0C174.52,104.92,174.48,104.93,174.61,104.9Zm.48-5.06V100l-.16-.06v0H175C175.05,99.83,175,99.87,175.09,99.84Zm2.5,3.2c0,.11,0,0-.06.11C177.56,103,177.52,103.1,177.59,103Zm.72-4h.11v0h-.11Zm.43-.15h.11v0h-.11Zm1.8,5.64h.11v.05h-.1Zm.84.5h.11v.11h-.11Zm2.09-7.9.06-.27h-.05a.41.41,0,0,1,0-.26h.1c0-.11,0-.22,0-.32h.1c0-.22-.06-.43,0-.53l.16,0V95.6h-.11a.42.42,0,0,1,.11-.21h.06v-.21h0c.07-.06,0,0,.11-.05l.06-.21.43,0V95l.16.06.05.27.16,0-.06.27.1,0v.16h0V96h-.16V96c.13.07.08.09.31.11-.08.31-.16.11-.27.21s.1.12,0,.21-.2.09-.27.1,0,0,.11.06v0h.05s0-.2.11-.16v.06h.05a1.09,1.09,0,0,1-.11.1l.16,0,.06.06v0h-.15v0h.06v.05h.05v-.06c.09,0,0,.08,0,.11l-.16.05.05.11-.27,0v0c.21,0,.16,0,.32,0a.44.44,0,0,1-.11.1l0,.16h-.1c0,.1,0,0-.06.1s0,0-.1,0v.16h.11v.16c-.15,0-.12,0-.17.16h-.1c0,.11,0,0-.06.11-.06-.1-.05-.09-.21-.11v0h0c.06.06,0,0,.11.06v.1h-.1v.11H184c0-.19-.14-.24-.32-.28v-.16h.1c-.06-.07,0,0-.1-.06s0,0-.11-.06l-.05-.21-.1-.06.06-.31-.11-.06v0Zm1.38.14v-.11h.06C184.88,97.23,184.91,97.17,184.85,97.23Zm.37.22c0-.11,0-.22,0-.32h.1c-.07-.14-.15-.18,0-.38l.11,0a1.14,1.14,0,0,1,0-.58h.05V95.8l.11,0c0-.1,0-.08-.05-.11v0h.05c0-.11,0-.07-.05-.11l.06-.16h.16v-.11h.05a1.25,1.25,0,0,1,.22-.16v0h.11a.57.57,0,0,0,.36.28v.1l.11.06-.06.21s.13.1.15.17l-.16,0a.75.75,0,0,1,.05.16l-.05,0,.16,0v0h-.05l-.06.27h-.06c-.06-.06,0,0-.1,0l-.06.16h.21v-.1h.16v.16h0c-.06.06,0,0-.11,0a1,1,0,0,1,.05.16h-.05v0h-.06v0c-.09-.06-.05.07-.06.1h-.11v0c.2,0,.23.05.26.22-.14.09-.14.21-.32.26s0,0-.11,0l-.06.16h.16c.07-.06,0,0,.11-.06l-.06.27a1.15,1.15,0,0,1-.42,0v.11H186v0c-.23,0-.14.08-.38.1v-.11h-.16v-.11h-.16v0h.05l-.05-.16h0l.06-.16Zm.86-.25c0,.1,0,0-.06.1C186.06,97.2,186,97.26,186.08,97.2Zm.54-.31c.06-.06,0,0,.11,0v0Z"/><path class="logo_title_svg2" d="M153.3,29.9a3.88,3.88,0,0,1-1.12,1.71l-.25.14V32l-.38.27v.25h-.13v.26l-.64.4v.26l-.51.4v.26h-.13v.26h-.13l-.12.39h-.39c-.11.58-.4.71-.74,1.05l-.13.26-.38.14c0,.22,0,.43,0,.65h-.25a2,2,0,0,1-1.14,1.19,2.31,2.31,0,0,1-.49.92h-.26l-.38.52-.25.14v.26h-.12a1.39,1.39,0,0,0-.38.66c.15.14.06,0,.14.25-.41.11-.47.19-.5.67h-.26l-.12.52-.51.15a1.24,1.24,0,0,1-1,.93v.51h-.26l-.62.79h-.13v.26l-.38.27c-.1.23.09.41.14.51h-.12c-.15.15,0,.05-.26.14V46a2.51,2.51,0,0,0-1,1.19h-.38c-.09.18-.19.16-.26.26-.22.34.15.24-.37.4l-.12.52h-.26l-.49,1.18H138c-.1.41-.25.43-.51.66v.13l-.39.14,0,.52-.26.14v.13l-.38.13c0,.22-.08.44-.11.65l-.26.14v.26H136l-.12.52h-.13c0,.21,0,.43,0,.64h-.13v.26h-.13l.13.25h-.13v.26h-.13v.39l-.38.27c-.12.27.18.55.15.64l-.38.27c0,.13,0,.26,0,.39l-.26.13c-.22.32,0,.49,0,.91h-.26c0,.21-.07.43-.11.65H134l.16.9-.26.14c0,.13,0,.26,0,.39h-.13v.26h-.13c0,.22.1.43.14.65l-.38.27c0,.13,0,.26,0,.38h-.13v.26h-.13c0,.17,0,.34,0,.52h.13l-.12.4c-.35.1-.28,0-.37.39h-.13l0,1-.25.14.15.9-.38.27c0,.26,0,.52,0,.78h-.13v.52l-.25.13.15.9h-.26c0,.3,0,.6,0,.91s-.11-.05-.12.13l.13.25h-.12v.26h-.13c-.12.42.2.61.16.9h-.13a4.94,4.94,0,0,0,.31,2.32c0,.21-.07.43-.11.65h.13V73H132c0,.17,0,.34,0,.52h.13v.26h.13l.15.77h.12v.26l.53.37.14.39h.26v.13l.65,0,.27.38.64-.14v.13h.39v.13l1.16-.29.12-.26.78-.15v-.13h.26v-.13l.78,0v-.13l.52-.14V74.8h.26l.63-.79.51-.14A5.24,5.24,0,0,1,142,73c0-.21.07-.43.11-.65a2,2,0,0,0,1-.67l.12-.26,1.15-.42c0-.13,0-.26,0-.39h.26l.76-.92h.12l.12-.39.52-.14.37-.53.39-.14c0-.17.08-.34.11-.52l.51-.4,1-1.19h.26v-.13l.26-.13V66l.26-.14c.11-.19-.07-.4.12-.52s.69.1.9-.15v-.26l1-.93c.17-.27.27-1,.49-1.18h.26l.37-.52h.26l.25-.39h.13v-.26c.14-.17.47-.15.64-.27v-.13l.51-.4v-.26l.64-.41c0-.17,0-.34,0-.51s.5-.17.65-.28l.37-.53.26-.13v-.26l.76-.67v-.26l.25-.26h.26v-.13l.63-.53v-.26h.25l1.26-1.45h.26l.25-.27v-.26l.25-.13.5-.66.39-.14.11-.52.26-.14v-.26l.26-.13.37-.53,1.27-1.07.12-.52h.12l.38-.53h.26l.25-.26v-.26l.51-.4V48.5h.26l1-.93.12-.52.51-.4.12-.26c.57-.43,1-.31,1.14-1.2h.25c.07-.4.12-.54.5-.66,0-.12,0-.25,0-.38h.13V44h.39a4.59,4.59,0,0,1,.49-1h.26c.14-.15,0,0,.25-.14v-.26h.26l.75-1.06h.25l.26-.27v-.26l.26-.13v-.26l.76-.67c0-.22.07-.43.11-.65l.39-.14V39a1.82,1.82,0,0,1,.89-.54c.08-.32,0-.23.25-.39V37.9l2.33-.06.27.38h.13c.14.39.28.77.41,1.16h-.12a2.49,2.49,0,0,1-.75,1.19l-.26.13V41l-.63.54v.25l-.25.14.15.77h-.13v.25h-.12a.32.32,0,0,0,.13.38l-.11.52h-.26a4.67,4.67,0,0,1-.22,1.43c0,.26,0,.52,0,.78h.13v.13h-.13c0,.21-.07.43-.11.65h.13c0,.39-.07.78-.1,1.17h.13c.09.32-.1.47-.11.65l.26.12c0,.22,0,.43,0,.65h.13c0,.39-.06.78-.1,1.17l.27.12a7.21,7.21,0,0,0-.11.91c0,.33.12.35.14.52s-.26.61-.1,1h.13v.26h.13l-.1,1.42H176l0,.91h.12A.21.21,0,0,1,176,56l0,.52h.12c.13.41-.11,1-.09,1.17h.12l.15.52h.13l-.1,1.43.27.12,0,1.3.16,1.16s-.17,0-.12.26h.13V63h-.13a.36.36,0,0,0,.14.38c.07.3-.12.39-.12.39.05.35.1.69.16,1h-.13c0,.6,0,1.21,0,1.81h-.13c0,.26,0,.52,0,.78h-.13v.26h-.13l.15.78-.25.13v.26h-.13c0,.39-.06.77-.1,1.16l-.5.4v.26h-.13c-.17.36-.06.42,0,.77h.13v.13h-.13a1.33,1.33,0,0,0-.12.52l.51-.14v-.13l.52.12v-.13c.14-.15.05,0,.12-.26a1.66,1.66,0,0,0,1.16-.42h.25l.13-.26h.26l.24-.39,1.29-.29v-.26a11.25,11.25,0,0,1,2-1.09v-.26l.39-.14.12-.26h.26V68h.26l.13-.27.51-.14v-.13h.26l.37-.53.51-.15.25-.39h.39c.21-.31.42-.61.62-.92l.65-.15.5-.66h.26l.89-.67V63.7l.64-.41V63l.38-.27v-.13h.26l.12-.39h.13c.23-.27.15-.32.63-.4.08-.33.07-.21.25-.4V61.3h.26l.37-.53h.13l.12-.39h.26v-.13l.38-.14c.09-.41.25-.43.5-.66v-.13l.38-.14v-.26l.38-.27v-.26l.51-.4c.3-.35.22-.64.75-.79a2.78,2.78,0,0,1,.88-1.32v-.13l.39-.14v-.26l.38-.27.38-.52h.13v-.26c.08-.1.26-.1.38-.26l1.29-.17V54l1,0c.13.23.19.19.27.51.53.1.55.36.55,1h-.13l-.12.65-.88.8v.26h-.13l-.13.27h-.25a2.31,2.31,0,0,1-.62,1.18h-.26l-.38.53-.25.13-.24.79-.89.67L195,62h-.26l-.12.27-.51.4-.37.65-.52.15c-.08.13-.16.26-.25.39h-.13v.26l-1,.94-.12.26h-.39l-.25.52c-.12.1-.52.13-.64.28v.26l-.26.13-.12.39h-.25l-.38.53h-.26l-.12.27h-.26v.13h-.25V68h-.39c-.29.35-.59.7-.88,1.06l-.64.14-.12.26h-.26l-.5.66-.78.15c-.12.22-.24.44-.37.66h-.26l-.12.27H184v.13l-.64.15L183,72l-.77.28-.38.52-.52,0v.13l-.52.14v.13h-.39v.13h-.52v.13a2.51,2.51,0,0,0-.25.26h-.26l-.25.4-.78-.11v.13h-.26l-.37.53-.64.15-.13.26-.65-.11-.12.26h-.39l-.12.26-.39.14v.13l-.39.14v.13c-.21,0-.18-.22-.27-.25H174v.26l-1.29.16-.25.4-1.55.17-.12.39-.65-.11v.13h-.26v.13a.34.34,0,0,1-.39-.12l-.77.15v.13h-.26v.13l-1-.11v.13l-.91,0v.13c-.39.12-.89-.15-1-.11l-.12.27-2.34-.07v.13l-1.43-.1v-.13l-.65-.11v.13l-.65-.11v-.13l-.78.15-.39-.12a.21.21,0,0,1-.25.13v-.13h-.26v-.13h-.39v-.13h-.39v-.13l-.65,0v-.13H157v-.13l-1,0V77h-.26l-.27-.38-1.16,0-.41-.51h-.25V76l-.9,0-.4-.5c-.41-.24-.41.18-.78,0l-.14-.26c-.56-.5-.54-.62-.56-1.67.31-.21.08-.16.25-.39l.26-.14v-.13c.28-.22.55-.26.77-.54l1.42.1.14.25h.26v.13l.52.11v.13h.38v.13l.78.11v.13l.52.11v.13h.26l.14.25,1,0v.13h.26v.13l.91.1v.13l.78,0v.13H160v.13l1.42,0v.13l.52.12V75c.18,0-.05-.08.13-.14l1.55,0v.13h.65V74.8l.51,0v.13h.39V75h.13V74.9h.38v-.13l.65.11v-.13h.39v-.12H167v-.13l.64,0,.38-.52.78,0c.07,0,0-.17.38-.27v-.26a1.45,1.45,0,0,0,.64-.41v-.13l.39-.14.12-.39h.39a.9.9,0,0,1,.24-.52h.13c.27-.44,0-.62.63-.8.07-.39.15-.78.23-1.17l.25-.13c0-.13,0-.26,0-.39h.13c0-.26.07-.52.11-.78a.33.33,0,0,1-.14-.38h.13v-.26h.13c0-.25,0-.51,0-.77h.13c0-.17,0-.34,0-.51h.13c0-.3,0-.6,0-.9h.12v-.25H173l-.15-.77H173l-.15-.78H173c0-.56,0-1.12,0-1.68a2.28,2.28,0,0,0-.14-.52h.13v-.26H173c0-.22,0-.43,0-.65h.13l-.28-.77h-.13l0-1.16h-.13c0-.13,0-.26,0-.39h-.13c-.1-.31.13-.5.11-.65h-.13c0-.26,0-.52,0-.78h-.13l.12-.65h-.13c0-.22,0-.43,0-.65h-.13c0-.31.07-.61.11-.91h-.13l0-1-.26-.13-.18-1.93s.17-.05.12-.27h-.13v-.52h-.13c0-.3.07-.6.11-.91h-.13l0-.52h.13c0-.52-.11-1-.17-1.55l-.26-.13v-.25h-.38c-.2.32-.16.08-.38.26-.05.09-.09.18-.13.27h-.13l-.12.39h-.26l-.25.26V49l-1.26,1.2v.26l-.25.14v.25l-1,.94c-.21.26-.42.52-.62.79l-.26.13-.12.4h-.26c-.12.51-.37.42-.49.92a1.29,1.29,0,0,0-1,.68l-.12.39-.39.14c0,.13,0,.25,0,.38l-.38.27c-.29.44-.06.56-.76.67-.1.47-.38.53-.49,1h-.26c-.12.17-.3.17-.38.27v.26l-.51.4v.13l-.39.14v.26h-.26c-.3.53-.84.76-1,1.45l-.51.14c-.13.54-.55.71-.88,1.06s-.59.7-.88,1.06l-.51.4v.26l-.38.27V64H156a1.05,1.05,0,0,0-.24.52l-.52.14c-.12.52-.47.7-.88.93h-.26l-.12.26-1,.93c-.25.37-.13.52-.63.67l-.12.52H152l-1,.93v.26l-.64.53v.13h-.39l-.37.53-.52.14-.5.66-.38.14-.13.26h-.26l-.37.53h-.26l-.12.26h-.26l-.12.39-.26.14v.39h-.13l-.12.26h-.26l-.12.39h-.13l-.24.4h-.26l-.13.26h-.25c-.09.18-.17.35-.25.53a4.14,4.14,0,0,1-1.92.95c-.13.55-.43.57-.88.8v.13l-.65,0-.24.52h-.26v.13l-.51.14V78l-.64,0-.38.53h-.65v.13h-.26v.13l-1.29,0V79l-.78,0a.32.32,0,0,0-.39-.12V79h-.26v.13L133.46,79v-.13h-.39v-.13c-.13,0-.34.24-.64.15v-.13H132l-.27-.52-1.17-.35c-.1-.38-.16-.42-.53-.51-.13-.43-.43-.57-.67-.89h-.13v-.39h-.13v-.26H129v-.26l-.27-.12c-.05-.22-.09-.43-.14-.65l-.26-.12v-.26h-.13c0-.43-.11-.86-.16-1.29h.13V73H128l-.15-.77h-.13l0-1.42h-.13l.09-1.55h.13c0-.27-.26-.49-.16-.91h.13c0-.26,0-.52,0-.78h.13c0-.26,0-.52,0-.78H128c0-.26,0-.52,0-.78l.26-.13c0-.13,0-.26,0-.39h.13c0-.13,0-.26,0-.39h.13c0-.26,0-.52,0-.78l.38-.27c.12-.29-.17-.36-.14-.51h.13c0-.26.07-.52.1-.78l.26-.13v-.26h.13c0-.19-.18-.17-.27-.52h.26c.08-.39.15-.78.23-1.17l-.26-.13V60.3c-.36.1-.29,0-.38.39l-.38.14a1.36,1.36,0,0,0,.14.65h-.13c-.11.16-.29.15-.38.27V62l-.26.13-1,1.19h-.26v.26h-.39c-.12.24-.18.21-.25.52h-.39c0,.18-.07.35-.11.52h-.26a3.84,3.84,0,0,1-.76.8l-.88,1.06h-.25c-.09.13-.17.27-.25.4l-.89.8c-.38.4-.65,1-1.26,1.19-.11.47-.49.73-.75,1.06H120v.26l-.39.27v.26l-.25.26h-.26l-.12.26h-.26v.13c-.29.25-.47.55-.89.67l-.61,1.18H117c-.15.15,0,0-.26.13-.12.53-.39.46-.63.8,0,.13-.07.26-.11.39h-.26v.13l-.63.54v.26H115c-.08.13-.16.26-.25.39h-.25c-.09.13-.17.26-.25.4H114l-.25.4h-.52l-.12.39-.38.27c-.48.52-.86,1.25-1.64,1.47v.26l-.51.27c-.08.13-.16.26-.25.39h-.26V80l-.38.27-.13.26h-.25l-.13.26-.9.28-.25.4h-.25v.13l-.38.27-.12.26h-.39c-.09.13-.17.27-.25.4h-.52l-.12.26h-.26v.13h-.51v.13H105l-.12.26h-.26l-.12.26-1,0v.12a1.66,1.66,0,0,1-.9.16v-.13c-.28,0-.53.46-1,.28l-.14-.25-.9.15-.13-.26-.91-.1c0-.13-.1-.26-.14-.39a1.88,1.88,0,0,1-1.7-.73l-.27-.12-.14-.52-.39-.24v-.26h-.13c0-.17,0-.34,0-.52l-.27-.12v-.26h-.13c0-.34.07-.69.1-1l-.26-.13L96,76.94h.13l.11-.52h.13l.12-.65h.13l0-1h.13l.24-.79h.13v-.39l.25-.13v-.26l.25-.14c0-.22,0-.43,0-.65h.13v-.26l.38-.27c0-.17.08-.34.11-.52l.26-.13c0-.22.08-.44.11-.65l.38-.27.12-.52.51-.41v-.25h.13v-.26l.26-.13.12-.52.38-.27.12-.39.25-.14V67l.26-.13.11-.52.64-.54V65.4l.25-.13V65l.25-.14v-.26c.22-.17.43-.35.64-.53v-.39l.25-.13v-.39l.64-.41.48-1.43.89-.8c0-.13,0-.26,0-.39l.38-.27,0-.52.26-.13.12-.39.25-.14v-.26h.13c0-.22,0-.43,0-.65h.13v-.26l.51-.4c0-.26.07-.52.11-.78l.26-.14v-.39h.13a5.89,5.89,0,0,0,.2-2.08h-.13v-.13l-.65.14v-.13h-.26V53.5a1.87,1.87,0,0,0-1-.23c-.13.17-.25.35-.38.53l-.78-.11v.13l-1,0s0-.18-.26-.12l-.12.26c-.51.17-.47-.42-1-.23l-.12.26-.39-.12v-.13l-1,0a5.76,5.76,0,0,0-1.17-.36l0-.52-.64.15v-.13c-.15-.14,0,0-.14-.25-.7,0-.51-.23-1-.37-.27.42-.61.25-.76.8-.38.1-.42.16-.5.53h-.26c-.13.17-.25.35-.38.53l-.38.13v.26l-.38.27c0,.18-.07.35-.11.52l-.64.54-.11.52-.26.13c-.4.46-1.12,1.07-1.25,1.72a1.91,1.91,0,0,0-1.14.81l-.26.13c0,.18-.08.35-.11.52l-.64.54-.12.26h-.26l-.12.26-.76.66v.26l-.39.14a1.54,1.54,0,0,0-.36.92c-.38.1-.42.15-.51.53h-.39c0,.09-.44.74-.49.79l-.52.14c-.29.35-.58.71-.88,1.06h-.26l-.12.26h-.13l-.62.79-.26.14c0,.13,0,.26,0,.39l-.38.27v.26l-.26.13v.26l-.26.27h-.25l-.13.26-.63.54-.12.39-.38.27v.13h-.26l-.12.26h-.26l-.12.27h-.13l-.12.52-.25.14v.25l-.25.14-.38.53-.51.14c-.08.13-.17.26-.25.4h-.13c0,.17,0,.34,0,.52h-.13c-.09.13-.17.26-.25.39h-.26l-.25.27v.26l-.38.26v.26h-.26a8.43,8.43,0,0,1-1.51,1.59l-.5.66H75l-.12.26h-.26c-.15.59-.46.62-.89.93l-.12.26h-.26c-.16.13-.13.47-.24.65l-.51.4-.12.26h-.26l-.88,1.06H71.1l-.37.53h-.26v.13c-.48.3-.75.28-.88.93h-.26l-.25.4h-.25l-.25.4-.52.14-.25.4h-.38l-.63.79h-.39l-.37.53h-.26v.13l-.64.15-.38.53-1.16.29-.12.26h-.26l-.12.27h-.26v.13l-.9,0v.12h-.39v.13a6.5,6.5,0,0,1-2.33.19v-.13l-1.69-.08c-.64-.24-.73-1.08-1.45-1.26a1.18,1.18,0,0,0-.27-.51h-.13c-.18-.26,0-.55-.16-.9H55.4c0-.17-.09-.34-.14-.51h-.13c0-.56,0-1.12,0-1.68H55c0-.61,0-1.21-.05-1.82H55c0-.13,0-.26,0-.39h.13l0-1.29h.13v-.26h.13v-.39h.13l.12-.52h.12c0-.12-.09-.25-.13-.38h.12l.12-.52H56c0-.3,0-.6,0-.9l.25-.14c0-.13,0-.26,0-.39h.13V74.6h.12c0-.13,0-.26,0-.39h.13v-.52l.26-.14v-.26h.13c0-.26.07-.52.11-.78l.25-.14v-.51h.13V71.6h.13c0-.17,0-.34,0-.52h.13v-.26l.26-.13a.61.61,0,0,0,0-.52l.26-.14c.19-.29,0-.36,0-.77l.38-.14v-.39h.26c.23-.41.47-.38.49-1-.4-.45.29-.87.49-1.17h.13c0-.26,0-.51,0-.77H60a1.29,1.29,0,0,0,.11-.65c.48-.15.45-.51.76-.79-.13-.44-.28-.33-.41-.77h-.39l-.37.53h-.13v.26l-.38.27c0,.21,0,.43,0,.65l-.13.13h-.38c0,.13,0,.26,0,.39l-.51.27c-.26.38.23.32-.38.53-.16.65-.46.31-.62.92-.36.1-.29,0-.38.4l-.52.14-.13-.26c-.17-.07-.07.07-.13.14h-.13c0,.11.27.38.15.64h-.13l-.5.66h-.26v.52L53.9,70.78l-.12.39h-.39v.13a1.4,1.4,0,0,1-.63.4c-.17.86-.3.43-.76.8l-.12.39-.26.14v.26l-.51.4V74h-.26a6.42,6.42,0,0,1-.63.54l-.12.26h-.26l-1.76,2h-.26l-.5.66-.52.14v.13a1.41,1.41,0,0,1-.63.41v.26h-.12l-.38.53H45.3V79h-.39l-.5.66h-.13l-.13.26h-.38v.13l-.26.14v.26l-.38.14-.76.92H42v.13l-.39.14-.12.26h-.39v.13c-.38.22-.52.19-.63.67h-.26l-.38.53h-.26l-.24.39h-.52c0,.13,0,.26,0,.39a4.57,4.57,0,0,0-1.79,1c-.14.16,0,0-.12.27l-.52.14c-.17.62-.15.12-.5.4v.13h-.13v.26l-.78,0v.13c-.64.19-.84.87-1.52,1.08a8.63,8.63,0,0,0-.22,1.43c-.31.08-.24,0-.39.26-.34.4,0,.72-.22,1.18h-.13a2,2,0,0,1-.26.26V91l-.38.27c.05.22.1.43.14.65l-.38.26c0,.13,0,.26,0,.39l-.5.4v.26H31l.15.77-.5.4-.12.39-.26.14v.52l-.25.13c0,.22,0,.43,0,.65l-.5.4c-.18.29.05.67-.11,1l-.25.13v.26l-.26.14v.26l-.26.13c-.07.44-.15.87-.22,1.3l-.39.27c0,.22-.07.44-.11.65h-.13v.25h-.13v.26l-.26.13v.26h-.13v.51l-.25.14-.12.52h-.26a1.12,1.12,0,0,1-.23.91l-.26.13c0,.22,0,.44,0,.65h-.13v.26l-.25.14-.12.52-.25.14c-.15.32,0,.64-.11.91H25.3l-.12.39-.25.14c0,.17,0,.34,0,.51h-.13v.26l-.26.13v.39h-.13v.26h-.13v.38l-.63.54c0,.3-.07.6-.11.91h-.13v.26l-.26.13,0,.52H23.1v.25H23V112h-.13l-.12.39-.25.14V113l-.51.41-.48,1.43-.38.27-.36,1.18-.63.53v.39H20c0,.22-.08.43-.11.65h-.13l-.12.4h-.26a4.41,4.41,0,0,1-.61,1.31v.26l-.51.4c0,.26-.07.52-.1.78l-1,.81c0,.12,0,.25,0,.38H17v.26l-.38.26V123l-.25.14v.26l-.25.13c-.13.18-.25.36-.38.53h-.25l-.63.79h-.13v.26h-.26v.26l-.25.13v.13H14l-.25.4h-.25v.13l-.38.27c0,.09-.08.17-.13.26h-.25l-.13.26h-.51v.13h-.26l-.5.66h-.26v.13l-1.16.16v.13l-.91,0v.13H8.78v.13H8.39v.13l-.78-.11-.25.14v-.13l-.53-.12v-.12l-1.55.16-.4-.5-.78,0v-.13H3.84l-.53-.63H3.05v-.13l-.4-.25c-.27-.35-.16-.5-.66-.63a1.45,1.45,0,0,0-.41-.64H1.45v-.26l-.27-.13.12-.39L1,124.7c0-.17,0-.35,0-.52H.9v-.26l-.26-.13c0-.21,0-.43,0-.64H.48c0-.21,0-.43,0-.65H.34l0-1.3H.18V121H0v-.52H.16c0-.26,0-.52,0-.78H0c0-.25.15-.49.24-.66H.38l0-1.29.26-.14c0-.3,0-.6,0-.9l.25-.14c0-.39.07-.78.1-1.17h.13v-.26h.13v-.52H1.3v-.26h.13v-.51l.38-.27.12-.52H2c0-.26.07-.52.11-.78l.25-.13v-.26h.13c0-.18,0-.35,0-.52h.13l.24-.78H3v-.26l.38-.27.12-.52.51-.27V109h.13v-.26h.13c0-.13,0-.25,0-.38h.12c0-.13,0-.26,0-.39h.13a1.71,1.71,0,0,0,.37-.79h.26c.13-.27.36-.54.5-.79v-.26l.63-.53v-.26l.51-.4c.25-.29.18-.53.63-.67a1.27,1.27,0,0,1,.37-.65h.13c.09-.15.09-.56.24-.65h.26A2.12,2.12,0,0,1,9,102h.13v-.26l.39-.14.25-.4h.13v-.26l1-.54v-.26l.25-.14.12-.39h.26l.12-.26h.26l.25-.27v-.26l.38-.27v-.13l.39-.14V98l.25-.26h.26l.25-.39h.26v-.13c.18-.18.16-.07.25-.39l.77-.28v-.13h.26l.25-.39h.39c.29-.35.58-.71.88-1.06H17l.24-.39h.26l.13-.26h.25L18,94h.26l.12-.26h.26v-.13h.26v-.13l.64-.15v-.13l.63-.53.13-.26.39.12.24-.53h.39l.12-.26h.39v-.13h.26l.12-.27h.26l.37-.53.39-.14.12-.26.52,0,.12-.26h.39v-.13h.25v-.13c.62-.36,1.47-.72,1.65-1.47L27.41,88V87.9h.26v-.13c.19-.13.31-.11.64-.15v-.26l.51-.4.12-.26.52,0c.19-.11-.07-.41.12-.52l.39.12c.08-.13.16-.26.25-.39l.38-.14a1.81,1.81,0,0,1,.36-1h.13c0-.13,0-.26,0-.39l.26-.13c0-.13,0-.26,0-.39h.13v-.26h.13V83l.38-.27.09-1.3a1.47,1.47,0,0,0-.52-.12c-.12.17-.28.14-.38.27v.26l-.39.14v.26c-.4.11-.43.25-.5.66l-.51.14c-.12.44-.16.25-.38.53h-.13v.26l-.52.14c-.08.39-.13.43-.5.54l-.12.39h-.39c-.13.57-.47.47-.62,1l-.51.14-.12.39h-.39c-.18.63-.15.12-.51.4V87h-.13v.26h-.64l-.13.26H24.3l-.25.4h-.26l-.25.39H23v.13c-.14.15-.05,0-.12.27l-.78-.11a6,6,0,0,1-1.26,1.06l-.78-.11-.25.4-1.16.16-.13.26-.78-.11v.13h-.39v.13l-1,0-.13.26-1.29-.1a.35.35,0,0,1-.39.14v-.13l-2.85,0-.14-.26-.77,0-.27-.38-.65,0V90H9.73s-.05.22-.26.14l-.26-.38-.53-.12c0-.09-.09-.17-.13-.26l-.65-.11L6.3,87.54c0-.13,0-.26,0-.39H6.16L6,86.51l-.39-.25c-.06-.47-.11-.94-.17-1.42l-.26-.12.12-.39H5.18c0-.13,0-.26,0-.39H5l0-1.43h.12L5,82h.13l0-1h.13v-.13H5.09c.12-.48.24-1,.35-1.43h.13a1.7,1.7,0,0,1,0-1h.12V78l.26-.14v-.26H6c0-.26,0-.52,0-.78h.13L6.39,76h.13c0-.17,0-.34,0-.52.17-.13.34-.26.5-.4v-.26l.25-.13c0-.3.07-.61.11-.91L8,73.26c0-.18,0-.35,0-.52l.26-.14v-.26l.25-.13V72l.63-.54c0-.26.07-.52.11-.78l.38-.26.63-.93c.35-.33.6-.18.75-.79h.26l.12-.39h.13c0-.22.07-.44.11-.65l.64-.54V66.8l.25-.26h.26l.12-.39H13a2.24,2.24,0,0,0,.62-.93h.26l.63-.8h.26v-.13l.39-.14.5-.66.38-.27V63l.38-.27v-.13h.26L17,62l.51-.4v-.13h.26l.5-.66c.46-.48,1.2-.56,1.39-1.33l1.15-.42.12-.39a1.64,1.64,0,0,0,.89-.54l.13-.26h.38v-.13h.26V57.6h.26l.37-.53h.26l.12-.26.77-.28v-.13l.38-.14.13-.26.51-.14.12-.26.65,0v-.13l.77-.28V55h.39v-.13l.38-.14.12-.26h.52l.5-.66.65,0v-.13h.26v-.13l.91,0v-.13h.26l.13-.27.77-.15v-.12h.25l.13-.26,1.16-.16c.08-.13.16-.27.25-.4H34v-.13l2.45-.32v-.13h.39l.12-.26a.19.19,0,0,1,.26.12c.34,0,.39-.14.39-.14l1.42,0V51l.38-.14V50.7c.37-.12.38.41.91.23V50.8h.26v-.13l.65.11v-.13h.26v-.13l1,.1s0-.17.26-.14v.13h.39v.13c.25.05.48-.24.91-.15v.13l.52,0v-.12h.26v-.13l.38-.14v-.13c.22,0,.22.24.27.25l1,0v.13h.39v.12h.26v.13l.77-.15c.4.62,1,.47,1.07,1.52h-.12l.14.77-.25.14v.25h-.13c0,.13,0,.26,0,.39l-.26.13c0,.22,0,.43,0,.65H48.3c-.08.12-.24.24-.25.27V55l-.38.27.15.64-.26.13v.26l-.51.41V57h-.13v.26h-.13c0,.26,0,.52,0,.78l-.26.13v.26l-.26.14v.25l-.26.14.15.64-.26.14V60l-.26.14v.25H45.6c0,.26-.07.52-.11.78s-.34.26-.5.4c0,.26,0,.52,0,.77l-.39.27V63l-.25.14v.26h-.13c0,.22,0,.43,0,.65l-.25.13-.12.52-.25.14-.24.78-.26.14c0,.21,0,.43,0,.65l-.26.13v.26l-.26.14-.11.52h-.13l-.24.78h-.13c0,.17,0,.34,0,.51h-.13V69l-.25.13v.26h-.13c0,.18,0,.35,0,.52h-.13l-.24.79h-.13V71H41c0,.13,0,.26,0,.39l-.39.27c0,.3-.07.61-.1.91l-.38.27v.26c-.26.56-.13.31-.1,1h-.26v.13a3.32,3.32,0,0,0-.51.66h-.12c-.12.26.11.38.14.52l-.26.13,0,.52-.39.14c-.17.15-.15.42-.24.65h-.13l.15.77-.38.27v.26H37.9v.13h-.26v.26h-.13v.13h.13v.51h-.26a2.09,2.09,0,0,1-.36.92h-.13c0,.13,0,.26,0,.39s-.28,0-.25.26h.13c.17.29.22.33.65.37l.76-.67v-.13h.26c0-.09,0-.17,0-.26l.78,0,.62-1.18c.35-.1.28,0,.37-.4h.26c.28-.5.58-.47,1-.8l.25-.39a3.75,3.75,0,0,1,2-1.22c0-.13,0-.26,0-.39l.76-.54.12-.39h.26v-.13c.34-.23.25.13.38-.39h.26l.63-.79h.13v-.25h.13l.12-.26.65-.15c0-.13,0-.25,0-.38h.13L48.72,71l.76-.92h.26l.75-1.06.38-.13.12-.4h.13l.25-.39h.26l.12-.26a2.62,2.62,0,0,1,1-.68,2.41,2.41,0,0,1,.36-.91h.26l.25-.26v-.26l.25-.14v-.13l.38-.27c.11-.17.08-.52.24-.65h.26v-.13H55l.12-.27c.31-.23.23.14.38-.39h.26a1.58,1.58,0,0,1,.75-.8v-.38l.52-.15c.13-.53.09-.13.38-.4l.24-.52h.39c.08-.42.16-.47.63-.53.11-.48.39-.54.49-1.05h.26l1.26-1.58H61l.63-.79h.13v-.39h.13v-.26H62c.21-.36-.12-.24.38-.4.15-.62.53-.55.88-.93s.2-.57.37-.78l.89-.8.37-.53h.26v-.13l.63-.53v-.26H66c.19-.32.16-.08.38-.27l.13-.26h.13c.28-.43,0-.6.62-.79v-.26h.25c.3-.39.59-.79.88-1.19l.51-.14v-.13l.65,0v-.12l.52,0v.13a3.86,3.86,0,0,0,.91.37c.1.36.55.85.42,1.28h-.13v.26h-.13v.25H71v.26h-.12v.26h-.13v.26l-.25.27v.25l-.25.14c-.14.24-.11.81-.23,1l-.51.4v.26l-.26.27v.26h-.13v.26H69v.26h-.12l-.12.52-.38.27c0,.22-.08.44-.11.65l-.39.27v.26H67.8l-.12.53h-.12c0,.17,0,.34,0,.52l-.38.26-.12.66-.38.26v.26l-.38.27v.26l-.26.14,0,.9H66c-.14.15,0,.05-.25.13a1.87,1.87,0,0,1-.37.79h-.13l.15.64h-.13c-.18.39-.18.53-.63.66,0,.26-.08.52-.11.78h-.13c0,.13.09.26.14.39l-.51.4c0,.13,0,.26,0,.39l-.26.13,0,.91h-.26c-.08.38-.13.42-.5.53l-.12.52h-.13l0,.91-.25.13v.26l-.25.14-.12.52H62c0,.17,0,.35,0,.52h-.13v.26l-.25.14-.12.52h-.13c0,.17,0,.35,0,.52h-.13l-.12.39-.26.14,0,.91h-.13v.26H60.7c0,.22-.07.43-.11.65l-.38.27c-.07.52-.15,1-.22,1.56l-.25.14v.25h-.13c0,.21,0,.43,0,.64H59.5c0,.17,0,.34,0,.51h-.13v.39h-.13c0,.22,0,.43,0,.65h-.13v.26H59v.52h-.13c0,.13,0,.26,0,.39h-.13l.15.65-.09,1.55H59c.05.43.11.86.16,1.29a1.61,1.61,0,0,0,1.31.36v-.13l.78,0v-.13l.51-.15v-.13h.38l.13-.26.77-.28.12-.26h.39l.25-.39H64l.24-.39h.26l.25-.4,1.16-.41.12-.27.76-.66.12-.39h.26l.37-.53h.26l.25-.39h.13v-.26l.39-.14V78a2.31,2.31,0,0,1,.89-.67c.16-.65.74-.78,1.14-1.2l.87-1,.51-.41v-.12h.26l1-1.19c.39-.41,1-.7,1.13-1.33l.52-.14.12-.39c.22-.32.52-.31.62-.79h.26l1.26-1.46.26-.13v-.26h.13v-.26l.26-.14.12-.39.51-.14v-.13l.25-.14c.29-.43,0-.6.63-.79a1,1,0,0,1,.76-.8v-.26l.25-.13.12-.39h.26l.13-.26h.12l.24-.78,1.14-.93v-.13l.52,0,.5-.66h.13c0-.13,0-.26,0-.39l.51-.4v-.26l.25-.13.51-.66.38-.14.37-.66h.39v-.13l.25-.14v-.26l.38-.13.12-.4,1.14-1.06.11-.52c.28-.37.56.11.76-.67h.26l.25-.52h.26v-.13a1.35,1.35,0,0,1,.64-.4c.13-.53.09-.14.38-.4V55h.13v-.26h.13c.23-.41.24-.66.75-.8.06-.41.11-.54.5-.66.15-.15,0,0,.26-.14a4,4,0,0,1,.62-1.18l.38-.14.24-.78.38-.27.12-.39.26.12v-.13l.76-.53v-.52h.39c.17-.32.46-.43.63-.66v-.26H96V48.2c.29-.25.23.14.37-.39l.39-.14.13.12c0-.17,0-.34,0-.51.49-.15.39-.39.89-.55,0-.12,0-.25,0-.38.23-.13.2-.19.51-.28v.13h.13v-.13c-.15-.14,0,0-.14-.25a1.52,1.52,0,0,1,.65-.15c0-.26.07-.52.11-.78a3.84,3.84,0,0,1,2.31-.71c.22.36.53.43.67.89h.26a3.79,3.79,0,0,1,0,1.55l-.26.13v.13h.13c0,.17,0,.35,0,.52h-.39c0,.21-.07.43-.11.65l-.39.14-.09,1.42-.38.27L101,50c.07.13.25.22.27.25s.1.42.14.51l.91.11v-.13l.64,0v.13h.51a8.18,8.18,0,0,1,1-.28v.12a10.82,10.82,0,0,0,2.58-.06,4.89,4.89,0,0,1,2.21.33l.27.38h.26l.79.63c.26.34,1.2,2.09.86,3l-.26.13c0,.22,0,.43,0,.65h-.13v.39H111v.52h-.13v.25h-.13c0,.21,0,.43,0,.64h-.13v.26l-.5.4c0,.26-.08.52-.11.78h-.13v.26l-.25.14v.25l-.25.14c0,.17,0,.35,0,.52l-.51.4-.11.52-.38.27c0,.26-.08.52-.11.78l-.51.4-.12.52h-.12v.26l-.25.14v.26h-.13v.26l-.38.27v.26h-.13c-.18.2-.06.17-.39.27a8.19,8.19,0,0,1-.73,1.7h-.26a3.87,3.87,0,0,1-.86,1.57l-.38.27v.26l-.25.14c0,.13,0,.26,0,.38h-.13v.26h-.12c0,.13,0,.26,0,.39l-.64.4v.26l-.25.27v.26h-.13v.26l-.26.13v.26l-.26.14v.26l-.38.27c0,.17,0,.34,0,.51h-.13v.26l-.38.26V74h-.13v.25l-.26.14-.24.78h-.13c-.07.47-.14.95-.22,1.43h-.13v.26l-.26.13.16.91c0,.39-.07.78-.1,1.16h.13v.26h.13c0,.21,0,.43,0,.64,0,0,.08,0,.14.26l.39.25v.13h.39v.13c.28.13.32,0,.53.24l.51-.14v-.13l.78,0,.12-.26.9,0,.63-.79c.25-.17.6,0,.9-.15l.13-.26.25-.27h.26l.5-.66H107l.37-.52a5.1,5.1,0,0,1,2.29-1.62,2,2,0,0,1,.87-1.18H111c.16-.11.14-.51.25-.66l.38-.14V74c.25-.23.4-.25.5-.66h.26l.37-.53H113l.12-.26h.13l.12-.39h.26c.16-.66.46-.36.63-.66v-.52l1.14-.94v-.26l.39-.13.24-.4.76-.67.12-.39h.26l.12-.4h.13l.25-.39.51-.15.12-.39h.13c.27-.46.21-.7.89-.8.09-.41.27-.48.36-.92h.26c.2-.32.1-.09.38-.27v-.13h.26c.5-.57,1-1.15,1.51-1.72.13-.14.7-.45.76-.54l.12-.52.38-.27v-.26a2.62,2.62,0,0,1,.89-.54c.17-.66.37-.32.63-.66l.12-.39.39-.14v-.39h.39v-.13c.15-.15,0,0,.13-.26h.25c.17-.31.46-.42.63-.66V57.9h.13l.12-.26h.26v-.39c.73-.36.91-.85,1.25-1.59h.13c0-.13,0-.26,0-.39l.26-.13.12-.39.38-.14c.08-.18.17-.35.25-.53l.39.12v-.52h.12l.63-.92H131c.08-.13.16-.26.25-.39h.12v-.25h.13c.08-.13.16-.26.25-.39H132v-.13l.39-.14v-.13h.13c0-.13,0-.26,0-.39l.26-.14c0-.08,0-.17,0-.25h.13v-.26H133v-.39h.13v-.26h.13v-.26l.25-.14c0-.17,0-.34,0-.52l.26-.13c0-.17,0-.35,0-.52h.13c.15-.15,0,0,.26-.14,0-.53.21-.62.36-1h.13c0-.15-.26-.22-.14-.51l.25-.14.12-.39h.13v-.26h.13v-.26h.13v-.38l.25-.14c-.05-.13-.09-.26-.14-.38h.13a1.4,1.4,0,0,0,.25-.52h.26l0-1h.26c0-.22.07-.43.11-.65l.26-.14-.15-.77.38-.14a.93.93,0,0,1,.12-.52H137c0-.26,0-.52,0-.78l.25-.13v-.26h.13V39l.39-.26c0-.13,0-.26,0-.39h.13l.11-.39s-.22,0-.13-.25l.38-.27c0-.17,0-.35,0-.52h.13c0-.3.07-.61.1-.91h.26l.12-.52.25-.13c0-.26,0-.52,0-.78l.26-.14v-.26h.13v-.26h.13v-.26h.13c.09-.28-.11-.37-.15-.52l.38-.27c0-.12,0-.25,0-.38H140v-.26h.13v-.39l.25-.13c0-.35.07-.7.1-1l.26-.14v-.39h.13c0-.22.07-.43.11-.65l.38-.27c0-.26.08-.52.11-.78l.38-.27c0-.34.07-.69.11-1l.5-.41c.17-.26,0-.58.11-.9l.26-.14c0-.22.07-.43.11-.65h.13l.11-.53h.13V24.2h.13c0-.22.07-.43.11-.65h.13l.12-.4.25-.13v-.26h.13V22.5l.25-.27V22l.26-.13v-.26h.13c0-.18,0-.35,0-.52h.13V20.8l.26-.14c0-.22.07-.43.11-.65l.26-.14v-.26h.13v-.26h.13v-.26l.26-.26v-.26l.26-.14v-.26h.13l0-.52h.13v-.26l.25-.14.36-1.17c.66-.24.28-.27.5-.79h.13l.11-.53H148v-.39h.13v-.26l.25-.13c0-.22.08-.44.11-.66l.51-.4.12-.39.26-.13c0-.31.07-.61.1-.91l.76-.67.36-1.17.38-.27.12-.52.25-.14.12-.52.25-.14c0-.13,0-.26,0-.38l.89-.67V6.75h.13l.12-.26h.26c0-.26.07-.52.11-.78h.13l.12-.26h.26l.12-.26.51-.4V4.5c.21-.18.42-.36.64-.53l.87-1.06h.26l.25-.39.65-.15.24-.39h.39V1.83l.38-.14c0-.13,0-.26,0-.39l1.29-.42.12-.26h.26V.48h.25V.34l.91,0A4.52,4.52,0,0,1,162.5,0s0,.13.26.12S163,0,163,0l1.43.1.4.5h.51V.72l.52.12.13.25,1,.49a2.7,2.7,0,0,0,.29,1l.26.12V3h.13l-.12.65h.13V3.9h.13a15.76,15.76,0,0,1,0,3.24l-.25.14c0,.38-.07.77-.1,1.16h-.13V8.7l-.26.13v.26H167v.26h-.13l0,.51-.26.14v.26h-.13v.26h-.13c0,.13,0,.26,0,.39l-.26.14v.26H166c0,.26-.07.52-.11.78l-.38.27v.26l-.25.13V13l-.39.27v.26l-.38.27c0,.13,0,.26,0,.39h-.13a2.26,2.26,0,0,0,0,.26h-.13v.26l-.5.4c0,.26-.08.52-.11.78l-.76.67v.26l-.38.27v.25l-.38.27c0,.22-.08.44-.11.65l-.64.54c-.11.17-.08.51-.24.65h-.26l-.12.26h-.13l-.24.79-.38.26v.26l-.26.14v.26l-.51.4-.12.52h-.13l-.12.39-.25.14v.26l-.64.53V24h-.13l-.25.39-.38.27-.24.78-.25.14v.26l-.88.8v.26l-.38.26-.12.4h-.26l-.12.39-.25.14v.26l-.26.13v.26l-.76.67v.26h-.13l-.12.26Zm6.33-25.67V4.11h.26V4l.65-.15a2.19,2.19,0,0,0,.75-.79c.87,0,2,.06,2.35.58,0,.13,0,.26,0,.39h.13c.18.3-.05.18.27.38.05.52.11,1,.17,1.55h-.13v.26H164l0,.91h-.13c0,.13,0,.26,0,.39h-.13V8h-.13v.25h-.13c0,.17,0,.34,0,.52h-.13v.26h-.13v.26l-.38.27v.26l-.25.13v.26h-.13l-.12.65c-.17.13-.34.26-.5.4l-.12.52-.38.27c0,.17,0,.34,0,.51h-.13c0,.17-.08.34-.11.52l-.52.14a4.13,4.13,0,0,1-.62,1.18l-.11.52-.38.27v.26l-.5.4v.39l-.26.14v.25l-.89.8v.26l-.26.14v.26l-.26.13v.39c-.16.14-.33.27-.5.4v.39l-.26.14v.13h-.26l-.13.27h-.13l-.11.52-.38.27-.24.78-.38.27v.26l-.5.4v.26h-.13l-.37.53-.26.14-.11.52-.38.26c0,.13,0,.26,0,.39l-.51.4v.13h-.26l-.49.79h-.26c0,.21,0,.43,0,.64h-.13c-.23.3-.24,0-.37.52H151v.13c-.39.38-.17.62-.88.8-.09.73-.26.41-.5.79l-.24.78-.63.54-.12.39-.39.14v.26l-.51.4-.24.78h-.13a1.7,1.7,0,0,0-.36.79c-.53.16-.15.06-.38.4-.07.1-.17.08-.25.26h-.26c-.09.38-.13.43-.51.53-.14.53-.09.14-.37.4v.13h-.13L145,35l-.26.14c0,.21,0,.43,0,.65h-.13v.26h-.13c-.08.13-.17.26-.25.4H144l-.11.52a3.19,3.19,0,0,0-1.51,1.73h-.52c.05.17.09.34.14.51-.31-.07-.29-.13-.52-.24l.36-1.18H142l-.15-.64.38-.27v-.26a2.33,2.33,0,0,0,.26-.27h.13c.2-.46-.13-.78.22-1.17.09-.36,0-.3.38-.4a1.44,1.44,0,0,1,.11-.65h.13l-.14-.39.51-.4.12-.52.25-.14L144,32l.39-.27c0-.13,0-.26,0-.39h.13V31l.25-.13c.08-.44.15-.87.23-1.3l.38-.27c0-.31.07-.61.11-.91l.25-.14V28h.13c.12-.19.1-.32.11-.65h.26c.16-.52.31-1,.47-1.56h.13v-.25H147v-.26h.13v-.39h.13l.11-.52h.13l.12-.52.26-.13v-.26l.25-.14V23h.13c0-.13,0-.26,0-.39l.25-.13c0-.22,0-.43,0-.65l.5-.4c0-.17,0-.35,0-.52l.25-.13.12-.66.38-.26c0-.22.07-.44.11-.65h.13V19H150v-.26l.25-.13c0-.26.08-.52.11-.78h.26l.12-.52.25-.14c0-.17,0-.34,0-.51h.13l.11-.52.51-.4v-.52h.13l.11-.52h.13V14.4l.38-.27c0-.22,0-.43,0-.65l.89-.8c0-.22.07-.43.11-.65l.38-.27c0-.13,0-.26,0-.39l.63-.53.12-.65.25-.14.12-.52.25-.13V9.14c.05-.08.17-.1.25-.27h.26c.11-.54.33-.56.49-.92V7.56l.64-.41V6.9l.51-.41V6.24l.39-.14.24-.53h.26c.17-.66.46-.35.63-.66V4.64A1.64,1.64,0,0,0,159.63,4.23ZM77.07,40.67c-.35.1-.29,0-.38.39h-.26l-1,1.19-1.81.05c-.29.26-1.14-.13-1.56-.22v-.26h-.39c-.25-.4-.48-.35-.54-1A3,3,0,0,1,71,39.14h.13v-.26l.26-.14c0-.13,0-.26,0-.38l.5-.41.12-.39h.26l.12-.27h.13l.12-.39h.26c.37-.37.93-.1,1.55-.3v-.13h.52v-.13c.34-.06.82.41,1,.49h.51c.17.06,0,.06.14.12a2.84,2.84,0,0,1,.7,2.06h.13C77.3,39.54,77.19,40.1,77.07,40.67ZM22.21,62h.39l.25-.53h.26l.12-.26h.26l.25-.4H24v-.12h.39l.63-.8h.25v-.13l.52,0,.12-.26h.26l.25-.39h.26l.12-.26h.26v-.13h.25v-.13h.39l.12-.26h.39v-.13l.38-.14.25-.4.64-.14.13-.27.51-.14v-.13c.34-.14.62,0,.9-.15v-.13h.25l.38-.52h.26v-.13l.65.11v-.13h.26l.12-.26.65,0,.12-.26.78-.15.12-.27H35v-.12l1.56,0,.12-.27h.26c.08-.13.16-.27.25-.4.43-.19.54.37.91.24l.37-.53h.39v-.13c.28-.07.51.27.91.11l.12-.27c.38-.11.46.41.91.24l.12-.26.52,0v.13c.31.06.38-.14.38-.14.57-.13.56.42,1,.24l.12-.27h.39v-.12c.56,0,.44.06.78.23A4.31,4.31,0,0,1,43.55,56l-.51.4c0,.13,0,.26,0,.39h-.13c0,.17,0,.35,0,.52h-.12l-.12.52h-.13v.26l-.51.27c0,.17.09.34.14.51h-.13l-.12.53c-.17.13-.34.26-.5.4,0,.13,0,.26,0,.39h-.13v.26l-.25.13c0,.18,0,.35,0,.52l-.25.14-.12.52-.26.13v.26h-.13v.25l-.26.14c0,.26-.07.52-.11.78l-.38.27v.26l-.26.13v.26l-.26.14v.26l-.25.13v.39l-.26.14v.26l-.51.4c0,.21,0,.43,0,.64l-.64.54-.11.52-.26.14c0,.21-.07.43-.11.65h-.13v.26h-.13l-.24.78c-.42.12-.49.31-.63.67h-.26l-.12.4h-.13c0,.22-.08.43-.11.65L35,71.4c0,.17-.08.34-.11.52l-.64.53v.26h-.13V73H34c0,.13,0,.26,0,.39l-.26.14v.26l-.76.66c0,.13,0,.26,0,.39h-.26V75a2.44,2.44,0,0,0-.5.4h-.13v.26l-.51.14a2.68,2.68,0,0,1-.5.92v.26l-.25.14-.24.78-.26.14a3.14,3.14,0,0,0-1,1.45H29l-.5.66c-.47.48-1.11.64-1.25,1.45-.35.11-.3,0-.38.4-.26.09-.11,0-.26.14h-.26a1.24,1.24,0,0,1,.15.52L26,82.5c-.23.28-.58.35-.9.54v.13h-.26l-.12.26h-.26l-.25.39a3.26,3.26,0,0,1-1.66,1c-.14.53-.05.15-.38.4l-.12.26h-.26l-.12.26h-.39v.13H21V86H20.5l-.25.39-.9.16v.13l-.77.27v.13l-1.42.17v.13h-.26v.13l-.77,0v.12h-.39v.13l-1.81,0v-.13l-.64,0v.13l-1.17-.1-.27-.38h-.52l-.4-.51h-.26l-.53-.63H10v-.39l-.26-.12v-.26l-.26-.12v-.26H9.34l.12-.52H9.33v-.26H9.2a.19.19,0,0,1,.12-.26V84H9.19l0-.52-.26-.12v-.52H9L9,80.74H9.1c0-.13,0-.26,0-.39h.13c0-.3,0-.6,0-.9h.13c0-.13,0-.26,0-.39h.13c0-.21,0-.43,0-.64h.13v-.25l.38-.27.1-1.3.51-.27.36-1.18c.65-.2.25-.3.5-.79l.25-.13v-.39l.38-.27.12-.39h.13v-.26l.25-.14.12-.52.25-.14v-.25l.76-.67v-.26l.25-.14c0-.13,0-.26,0-.38l.39-.14a2.26,2.26,0,0,0,.49-.92c.32-.1.21-.08.38-.27h.13V68.8l.51-.28v-.25l.26-.14.5-.66,1.26-1.2V66l.26-.13v-.13l.51-.15.88-1h.26l.5-.66h.26l.12-.26a5.51,5.51,0,0,0,.63-.53h.26A1.52,1.52,0,0,1,22.21,62ZM37.06,80.53h.26v.26h-.25ZM26.49,92.2a3.3,3.3,0,0,1,1-.29c0,.31-.07.61-.1.91h.13V93h-.13l-.24.78h-.26a7.72,7.72,0,0,0-.72,2.09h-.26a1.57,1.57,0,0,1-.24.65l-.26.14c0,.21,0,.43,0,.64l-.25.14-.12.52h-.26a2.13,2.13,0,0,1-.11.91h-.12c0,.13,0,.26,0,.39l-.26.13c0,.13,0,.26,0,.39l-.26.14v.26H24c0,.22-.07.43-.11.65l-.26.14v.25h-.13l-.12.52h-.12v.39l-.26.14v.26h-.13c0,.3-.07.6-.11.91l-.25.13v.26l-.25.14v.26h-.13l0,.52-.38.27c0,.26-.08.52-.11.78l-.26.13v.26h-.13v.26h-.13v.26l-.25.26v.26l-.38.27v.39h-.13l-.12.52h-.13c0,.13,0,.26,0,.39l-.25.14v.26H19.8c-.07.39-.15.78-.23,1.17l-.38.27-.11.52-.26.14c0,.26-.07.52-.11.78l-.38.26v.26l-.26.14c0,.22-.07.43-.11.65l-.26.14v.25h-.13v.26h-.13v.52l-.38.27v.25H17v.26h-.13l0,.52-.51.4L16,117.45l-.63.54v.26h-.13v.26h-.13v.26H15c0,.13,0,.26,0,.39h-.13v.25h-.13v.26l-.39.14-.5.66h-.13c0,.22-.07.43-.11.65-.23.36-.44.12-.5.79-.86.23-.4.31-.76.79a2.63,2.63,0,0,1-.89.42c-.21,1-1.39,1-1.63,2-.68,0-1.13.06-1.42.42l-1.81,0-.4-.51-1.18-.61v-.26H4.91V124H4.78c0-.13,0-.26,0-.39H4.64v-.26H4.5v-.52H4.36v-.26H4.22A15.71,15.71,0,0,1,4,118.93h.13l0-1h.13v-.26h.13c0-.25,0-.51,0-.77l.25-.14v-.26l.26-.13,0-1.17h.13v-.26l.38-.27v-.26h.13c0-.17,0-.35,0-.52h.13v-.26h.13c0-.13,0-.26,0-.39h.12L6,112.4h.13v-.26h.13l.11-.52.26-.14.24-.78.25-.14v-.26l.26-.13v-.26l.26-.14.11-.52h.13l.12-.39.38-.27c0-.18,0-.35,0-.52l.64-.4c0-.13,0-.26,0-.39l.64-.41v-.26l.38-.27v-.25l.38-.27.12-.39h.26c.14-.56.4-.45.63-.79v-.26l.26-.27c.38-.3.61-.21.75-.79l.52-.15c.15-.67.64-.65,1-1.06l.12-.39.39-.14.12-.26h.26l.25-.26v-.26l.88-.8h.39s.12-.2.25-.27,0-.26,0-.39a1.49,1.49,0,0,0,.64-.4v-.13h.26l.13-.26.64-.14c.08-.14.17-.27.25-.4h.26v-.12h.39c.08-.14.17-.27.25-.4l.51-.4.12-.26h.26l.25-.39h.26l.37-.53h.26l.25-.39h.26v-.13c.19-.18.17-.07.25-.39l.65.11.12-.39h.52l.75-.93c.39-.29.77-.36,1-.8l.65.11L26,92.6h.52Z"/></g></g></svg>