<svg width="349.3px" height="55.7px" viewBox="0 0 349.3 55.7">
<style type="text/css">
	.text_low_svg_sp{fill:#EA571E;}
</style>
<defs>
</defs>
<g>
	<path class="text_low_svg_sp" d="M31.9,16.7c3.7-1.9,5.6-5.8,7.2-11.3l-3.1,0c-1.1,2.5-2.3,4.2-3.2,5.2l-1.1-1c2.1-2,3.6-5.1,4.5-8.3
		c1.1,0.5,1.4,0.6,1.4,0.8c0,0.1-0.2,0.2-0.3,0.2c0,0,0,0-0.1,0c-0.2,0.5-0.3,1-0.5,1.4c1.2,0,2.9,0,3-0.1c0.1,0,0.2-0.2,0.3-0.2
		c0.1,0,0.9,1,0.9,1.3c0,0.2-0.1,0.3-0.3,0.3c-1.8,6-3.7,10.5-7.4,12.8L31.9,16.7"/>
	<path class="text_low_svg_sp" d="M56.6,17.3c3.4-1.6,4.2-4,4.2-10.4c0-0.8,0-3.8,0-5.1c0,0,0.8,0,1.3,0.1c0.2,0.1,0.2,0.2,0.2,0.3
		c0,0.2-0.1,0.4-0.4,0.4c0,0.6,0,1,0,1.5c0,0.2,0,0.4,0,0.7c0,0.6,0,1.5,0,1.8c0,0.2,0,0.4,0,0.6c0,6.4-1,9.3-4.2,11.5L56.6,17.3
		 M56.7,4.6c0,0,0-0.3,0-0.7c0-0.6,0-1.5,0-2c1.4,0,1.5,0.2,1.5,0.4c0,0.2-0.2,0.4-0.4,0.4c0,0.7,0,1.8,0,1.8V12h-1.1V4.6z"/>
	<path class="text_low_svg_sp" d="M76.7,16.2c3.9-2.7,5.5-7.3,6.5-10.9l-4.9,0V3.7l5.4-0.1c0.1,0,0.2-0.1,0.2-0.1c0,0,0.1,0,0.1,0.1
		c0.6,0.8,0.8,1,0.8,1.1c0,0.2-0.2,0.3-0.3,0.3c-0.5,1.6-1.1,3.5-1.9,5.5c1.1,1.4,2.8,3.8,3.8,5.7l-1,1.3c-0.9-2.1-2.3-4.3-3.3-5.8
		c-1.1,2.3-2.5,4.4-4.3,5.8L76.7,16.2"/>
	<path class="text_low_svg_sp" d="M102.9,8.8c0.6,0.7,1.4,1.6,2.1,2.7c0.9-1.2,2.3-3.2,3.1-5.2l-7.8,0V4.6c7.9,0,8.4,0,8.5,0
		c0.1,0,0.2-0.1,0.2-0.1c0.1,0,0.9,1.1,0.9,1.4c0,0.2-0.1,0.3-0.3,0.4c-0.9,2.2-2.4,4.7-3.8,6.6c0.6,1,1.1,2,1.4,2.9l-0.9,1.4
		c-0.9-2.7-2.4-5.2-4.1-7.2L102.9,8.8"/>
	<path class="text_low_svg_sp" d="M123.5,16.2c3.9-2.7,5.5-7.3,6.5-10.9l-4.9,0V3.7l5.4-0.1c0.1,0,0.2-0.1,0.2-0.1c0,0,0,0,0.1,0.1
		c0.6,0.8,0.8,1,0.8,1.1c0,0.2-0.2,0.3-0.3,0.3c-0.5,1.6-1.1,3.5-1.9,5.5c1.1,1.4,2.8,3.8,3.8,5.7l-1,1.3c-0.9-2.1-2.3-4.3-3.3-5.8
		c-1.1,2.3-2.5,4.4-4.3,5.8L123.5,16.2"/>
	<path class="text_low_svg_sp" d="M148.5,18c-0.4-1.5-0.6-3.2-0.6-4.9c0-0.4,0-0.8,0-1.2c0.1-4.2,0.7-7,0.8-9.8c0-0.1,0-0.1,0.1-0.1
		c0.1,0,1.1,0.5,1.2,0.5c0.1,0.1,0.2,0.2,0.2,0.3c0,0.1-0.1,0.2-0.4,0.3c-0.2,1.4-0.8,5.3-1,8.2c0,0.1,0,0.6,0,1.1
		c0,0.2,0,0.9,0.1,0.9c0.1,0,1-3.8,1-4.1c0,0,0.2,0.9,0.4,1.6c-0.2,1.2-0.6,2.8-0.8,4c-0.1,0.2-0.1,1-0.1,1.9c0,0.3,0,0.7,0.1,1
		c0,0,0,0,0,0.1c0,0,0,0.1-0.1,0.1L148.5,18 M152.4,12.8c-0.3,0.7-0.4,0.7-0.4,0.9c0,0.7,0.9,1.5,2.3,1.5c0.8,0,1.7-0.3,2.6-0.9
		l-0.2,2c-0.9,0.4-1.7,0.6-2.4,0.6c-2,0-3.3-1.5-3.3-3.1c0-0.1,0-0.9,0.5-1.6L152.4,12.8z M151.6,4.4c0.5,0.3,1.1,0.4,1.8,0.4
		c0.9,0,2-0.2,2.9-0.6V6c-0.6,0.2-1.7,0.4-2.7,0.4c-0.8,0-1.6-0.1-2.1-0.4L151.6,4.4z"/>
	<path class="text_low_svg_sp" d="M171.3,16.5c1.9-1.9,2.9-5.5,2.9-9.1c0-0.1,0-0.2,0-0.3c0,0,0-0.5,0-1.1c0-0.7,0-1.6,0-2.1
		c1.1,0,1.4,0.2,1.4,0.4c0,0.1-0.1,0.3-0.3,0.4c0,0.9,0,1.7,0,2.2c0,0.1,0,0.2,0,0.3c0,5.2-1.4,8.6-2.7,10.3L171.3,16.5 M177.7,14.5
		c1.6-1.5,3.3-5.2,3.8-7.8l0.6,2.2c-0.9,2.6-2.5,6-4.5,7.7c0,0.2-0.1,0.3-0.1,0.3c-0.2,0-0.9-1.4-0.9-1.5c0-0.1,0.1-0.2,0.1-0.5
		c0-1.8,0.1-9.8,0.1-9.8c0-0.4,0-1.3,0-1.8c1.4,0.1,1.4,0.2,1.4,0.4c0,0.2-0.1,0.3-0.3,0.4c0,0.6,0,1.5,0,1.5L177.7,14.5z"/>
	<path class="text_low_svg_sp" d="M196.9,12.9c2.1,0.6,5.2,1.7,6.8,3.1l-0.4,2.1c-2-2-4.8-3-6.9-3.5L196.9,12.9 M197.4,2.7
		c1.9,0.1,4.2,0.5,5.8,1.1l-0.3,1.9c-2-1.2-4-1.4-5.8-1.4L197.4,2.7z M197.6,7.7c1.7,0.2,3.7,0.7,5.1,1.5l-0.3,1.9
		c-1.6-1.1-3.5-1.6-5.1-1.8L197.6,7.7z"/>
	<path class="text_low_svg_sp" d="M218.1,13.5c3.7-2.1,5.6-5.4,6.6-7.7l-5.1,0.1V4.2l3.2,0V2.6c0,0,0-1.2,0-1.8c1,0,1.5,0.1,1.5,0.4
		c0,0.2-0.2,0.4-0.4,0.4c0,0.3,0,0.8,0,1.3c0,0.4,0,0.9,0,1.2l1.6,0c0.1,0,0.2-0.2,0.3-0.2c0.2,0,0.8,1.1,0.8,1.3
		c0,0.2-0.2,0.2-0.3,0.3c-0.5,1.2-1.3,2.7-2.3,4.2l0,9.1h-1.1l0.1-7.7c-1.1,1.4-2.3,2.6-3.7,3.5L218.1,13.5 M224.9,9.6
		c0.6,0.4,2.4,2.2,3.2,3.6l-0.8,1.4c-0.9-1.8-2.4-3.3-3.1-3.8L224.9,9.6z"/>
	<path class="text_low_svg_sp" d="M241.8,17.7c1.2-3.3,2.3-6.7,3-9.9c-0.2,0.1-0.4,0.2-0.6,0.2c-0.7,0.3-1.3,0.4-1.7,0.4c-0.1,0-0.1,0-0.2,0
		l-0.3-1.6c0-0.1,0-0.1,0-0.1c0-0.1,0-0.1,0.1-0.1c0,0,0,0,0,0c0.3,0.1,0.6,0.1,0.9,0.1c0.6,0,1.6-0.3,2.1-0.4
		c0.3-1.4,0.6-3.2,0.6-4.7c0,0,0.9,0.2,1.2,0.4c0.2,0.1,0.2,0.2,0.2,0.3c0,0.1-0.2,0.3-0.4,0.3c-0.1,0.6-0.3,2.1-0.6,3.3l0.3-0.1
		c0.1,0,0.3-0.1,0.4-0.1c1.3,0,1.7,1.8,1.7,4.2c0,6.6-1.7,7.7-2.8,7.7c-0.5,0-0.9-0.2-1.3-0.8l-0.1-2.3c0.4,0.8,1,1.2,1.5,1.2
		c0.6,0,1.1-0.6,1.4-1.8c0.2-1,0.4-2.8,0.4-4.2c0-1.6-0.2-2.6-0.9-2.6c-0.1,0-0.5,0.1-0.8,0.2c-0.8,3.4-1.8,6.6-3,10.5L241.8,17.7
		 M250,5.8c1.6,1.6,2.7,3.8,2.9,5.9l-0.9,0.8c0,0-0.1,0-0.1,0c0,0,0,0,0-0.1c-0.2-2-0.9-4.2-2.7-5.7c0,0-0.1-0.1-0.1-0.1
		c0-0.1,0-0.1,0.1-0.1L250,5.8z M250.3,2.5c0.5,0.3,1.3,1.1,1.7,1.9l-0.6,1.1c-0.4-0.8-1.1-1.6-1.6-2.1L250.3,2.5z M251.3,0.9
		c0.4,0.3,1.3,1.1,1.6,1.7l-0.5,1.2c-0.4-0.7-1.1-1.5-1.6-1.9L251.3,0.9z"/>
	<path class="text_low_svg_sp" d="M265.8,19c1.1-1.6,1.5-3.9,1.6-4.6c0,0,0.7,0.3,1,0.6c0.1,0.1,0.1,0.2,0.1,0.3c0,0.2-0.1,0.3-0.3,0.3
		c0,0-0.1,0-0.1,0c-0.2,1.1-0.7,2.7-1.3,3.9L265.8,19 M266.8,0.7h3.1V14h-0.8v-0.5h-1.6v0.5h-0.8V0.7z M267.6,4.5h1.6V2.1h-1.6V4.5z
		 M267.6,8.2h1.6V5.9h-1.6V8.2z M267.6,12.1h1.6V9.7h-1.6V12.1z M269.4,14.4c0,0,0.5,2.5,1.4,4.1l-0.9,0.7c-0.7-1.5-1.2-4.2-1.2-4.2
		L269.4,14.4z M270.9,2.9h1.5c-0.2-1.1-0.8-2.3-0.8-2.3l0.8-0.4c0,0,0.6,1.3,0.9,2.3l-0.7,0.4h1.8C274.8,1.8,275,0,275,0
		s0.8,0.3,1.1,0.5c0.1,0.1,0.2,0.2,0.2,0.3c0,0.1-0.1,0.2-0.3,0.2c0,0-0.1,0-0.1,0c0,0.3-0.3,1.1-0.6,1.9h1.7v7.8h-0.8V9.9h-4.5v0.9
		h-0.8V2.9z M271.4,11.4h4.9v8h-0.9v-1h-3.2v1.2h-0.8V11.4z M271.6,5.7h1.7V4h-1.7V5.7z M271.6,8.6h1.7V6.9h-1.7V8.6z M272.2,14.2
		h3.2v-1.6h-3.2V14.2z M272.2,17.1h3.2v-1.6h-3.2V17.1z M274.2,5.7h1.9V4h-1.9V5.7z M274.2,8.6h1.9V6.9h-1.9V8.6z"/>
	<path class="text_low_svg_sp" d="M291.3,12.6C291.3,12.6,291.2,12.6,291.3,12.6c0-0.1,0-0.2,0-0.2c0.9-1.5,1.8-2.6,2.1-3.2
		c1.8-3.1,3.2-5.5,3.2-5.6c0,0,0,0,0,0c0,0-0.1,0-0.1,0.1c-1.1,0.7-2,1.1-3,1.1c-0.1,0-0.1,0-0.2,0l-0.4-1.6c0,0,0-0.1,0-0.1
		c0,0,0-0.1,0.1-0.1c0,0,0,0,0,0c0.3,0.1,0.6,0.1,0.8,0.1c1.1,0,2.1-0.4,3.2-1c0.1-0.1,0.2-0.2,0.3-0.2c0.1,0,0.7,0.8,0.9,1
		c0,0.1,0.1,0.1,0.1,0.2c0,0.1-0.1,0.2-0.3,0.3c-3.5,5.6-3.5,5.6-3.5,5.7c0,0,0,0,0,0s0.1-0.1,0.1-0.1c0.9-0.6,1.6-0.8,2.2-0.8
		c1.6,0,3,1.5,3,4c0,2.9-1.7,5.8-4.2,5.8c-1.2,0-2.8-0.9-2.8-2.8c0-1,0.5-2.2,1.7-2.2c1.1,0,2,1.2,2,3c0,0.1,0,0.2,0,0.3
		c1.4-0.6,2.3-2.3,2.3-3.9c0-2.1-1-2.8-2-2.8c-0.3,0-0.6,0.1-0.8,0.1c-1.9,0.5-2.8,2.1-3.6,3.8L291.3,12.6 M295.4,16.1
		c0-1-0.4-1.8-1.2-1.8c-0.3,0-0.7,0.1-0.7,0.8c0,1,1.1,1.3,1.7,1.3c0.1,0,0.1,0,0.2,0C295.4,16.3,295.4,16.2,295.4,16.1z"/>
	<path class="text_low_svg_sp" d="M314.8,14.2c0.8,0.8,2.2,2.6,2.8,3.8l-0.9,1.6c-0.7-1.6-1.8-3.3-2.6-4.2L314.8,14.2"/>
</g>
<g>
	<path class="text_low_svg_sp" d="M3.6,53.1c3.4-0.3,4.9-3,4.9-5.8c0-1.8-0.8-3-1.7-3.4c-0.6,2.2-1.5,4.3-2.5,6c0.1,0.4,0.2,0.8,0.4,1.2l-1,0.5
		c0-0.2-0.1-0.3-0.2-0.5c-0.9,1.3-1.6,2-2.2,2C0.6,53.1,0,52,0,50.4c0-2.7,1.7-5.4,3-6.7c0-0.9,0.1-1.8,0.1-2.7
		c-0.4,0.1-0.7,0.1-1,0.1c-0.6,0-1.1-0.2-1.5-0.5c0,0,0-1.4,0-1.6c0,0,0,0,0,0c0-0.1,0-0.2,0-0.2c0,0,0,0,0.1,0
		c0.6,0.5,1,0.7,1.6,0.7c0.2,0,0.4,0,0.8-0.1c0-0.8,0-1.5,0-2.3c0-0.2,0-0.3,0-0.5c0,0,0.8,0.1,1.1,0.1c0.2,0.1,0.2,0.2,0.2,0.3
		c0,0.2-0.1,0.3-0.3,0.4c0,0.5-0.1,1.1-0.1,1.8c1.3-0.4,2.6-1,3.6-1.6l0.1,1.7c-1.2,0.6-2.5,1.1-3.8,1.5c0,0.7-0.1,1.5-0.1,2.3
		c1.2-0.8,2-0.8,2.1-0.8c0,0,0-0.1,0-0.2c0.1-0.8,0.1-0.9,0.1-1.2c0.7,0.2,1.2,0.4,1.2,0.6c0,0.1-0.1,0.2-0.3,0.2
		c0,0.2-0.1,0.5-0.1,0.7c1.1,0.5,2.5,1.9,2.5,4.9c0,3.9-2,6.5-5,7.2L3.6,53.1 M2.9,46.5c0-0.4,0-0.7,0-1.1c-0.9,1.1-2,3.3-2,4.8
		c0,1.2,0.4,1.2,0.5,1.2c0.4,0,1.1-0.9,1.8-1.9C3,48.4,2.9,47.4,2.9,46.5z M5.7,43.7c-0.6,0.1-1.2,0.4-1.8,0.9c0,0.8,0,1.4,0,2
		c0,1,0.1,1.6,0.1,1.7c0.8-1.4,1.5-3.1,1.9-4.6H5.7z"/>
	<path class="text_low_svg_sp" d="M23.6,53.5c0.8-3.3,2.2-9.4,2.6-12.1c-0.1,0-0.7,0.2-1.3,0.2c-0.4,0-0.7-0.1-1-0.3l-0.2-1.7c0,0,0-0.1,0-0.1
		c0,0,0-0.1,0-0.1c0,0,0,0,0,0c0.5,0.3,1,0.5,1.5,0.5c0.2,0,0.5,0,0.7-0.1c0.1,0,0.3-0.1,0.5-0.1c0.1-1,0.2-1.9,0.2-3.2
		c0,0,0.7,0.1,1.1,0.2c0.2,0.1,0.3,0.2,0.3,0.3c0,0.2-0.1,0.3-0.4,0.4c-0.1,0.6-0.1,1.3-0.2,1.9c0.6-0.2,1.1-0.5,1.7-0.8l0,1.8
		c-0.6,0.2-1.2,0.4-1.9,0.7c-0.4,2.5-1.8,9-2.5,12.6L23.6,53.5 M29.1,49.2c-0.2,0.3-0.2,0.6-0.2,0.9c0,1.1,1.2,1.7,2.4,1.7
		c0.6,0,1.2-0.1,1.9-0.5l-0.3,2c-0.5,0.2-1,0.2-1.4,0.2c-2,0-3.5-1.6-3.5-3.2c0-0.4,0.1-0.9,0.3-1.3L29.1,49.2z M29.3,42.2
		c0.5-0.1,1.1-0.1,1.6-0.1c1,0,1.9,0.2,2.3,0.6l-0.3,1.8c-0.5-0.5-1.4-0.8-2.3-0.8c-0.5,0-0.9,0.1-1.4,0.2L29.3,42.2z"/>
	<path class="text_low_svg_sp" d="M48.7,52c0.3,0,0.6,0.1,1,0.1c3.8,0,5-2.6,5-4.4c0-1.2-0.6-2.2-1.8-2.2c-2.1,0-3.6,2.9-3.8,3.5l-0.9,0.1
		c0,0,0,0,0,0c0,0-0.1,0-0.1-0.2c0-1.7,0.2-3.9,0.4-5.7c0.1-1.1,0.2-2.1,0.2-2.7c0-0.1,0-0.2,0.1-0.2l0.9,0.6
		c-0.1,1.3-0.6,4.6-0.6,5.7c0.8-1.1,2.3-2.6,4-2.6c1.8,0,2.7,1.7,2.7,3.7c0,2.7-1.7,6.1-6.1,6.1c-0.1,0-0.2,0-0.3,0L48.7,52
		 M49.1,37.6c0.3,0,0.6,0,1,0c1.1,0,2.2,0.1,3,0.4l-0.3,1.9c-0.8-0.5-2-0.7-3.2-0.7c-0.3,0-0.6,0-0.9,0L49.1,37.6z"/>
	<path class="text_low_svg_sp" d="M79.1,49.7c-0.9,2-2.9,4.5-4.7,4.5c-2.7,0-2.8-3.5-2.8-5.9c0-2.7,0.2-5.8,0.2-8.8c0-0.5,0-1.1,0-1.6
		c0.2,0,1,0.1,1.3,0.2c0.2,0,0.2,0.2,0.2,0.3c0,0.2-0.1,0.4-0.4,0.5c-0.1,3.3-0.4,7.1-0.4,9.6c0,2.6,0.3,4,1.8,4
		c2.1,0,3.8-3.8,4.3-4.8L79.1,49.7"/>
	<path class="text_low_svg_sp" d="M98.6,49.4c-0.8,2.5-1.4,3.2-2.1,3.2c-0.3,0-0.5-0.2-0.8-0.4c-1.7-1.5-1.9-4.8-2-7.5c0-2.8,0-3.3,0-4.2
		c0-0.1,0-0.1,0.1-0.1c0,0,0,0,0.1,0c0,0,0.8,0.1,1.1,0.2c0.1,0,0.2,0.2,0.2,0.3c0,0.1-0.1,0.3-0.3,0.3c0,1,0,2.6-0.1,3.5
		c0,0.3,0,0.5,0,0.7c0,2.3,0.3,4.1,1.3,5c0.1,0.1,0.2,0.1,0.3,0.1c0.5,0,0.8-1.1,1.4-3.6L98.6,49.4 M102.4,50.2
		C102.4,50.2,102.4,50.3,102.4,50.2c-0.1,0-0.1,0-0.1-0.1c0,0,0,0,0,0c0-0.1,0-0.2,0-0.3c0-3-1-6.7-2.4-9l1-0.5
		c1.4,2.1,2.6,6.2,2.6,9c0,0.1,0,0.1,0,0.2L102.4,50.2z"/>
	<polyline class="text_low_svg_sp" points="121.3,35.4 124.8,35.4 124.8,36.9 122.3,36.9 122.3,54.2 121.3,54.2 121.3,35.4 	"/>
	<path class="text_low_svg_sp" d="M140.3,44.6c0.6,0.7,1.4,1.6,2.1,2.7c0.9-1.2,2.3-3.2,3.1-5.2l-7.8,0v-1.8c7.9,0,8.4,0,8.5,0
		c0.1,0,0.2-0.1,0.2-0.1c0.1,0,0.9,1.1,0.9,1.4c0,0.2-0.1,0.3-0.3,0.4c-0.9,2.2-2.4,4.7-3.8,6.6c0.6,1,1.1,2,1.4,2.9l-0.9,1.4
		c-0.9-2.7-2.4-5.2-4.1-7.2L140.3,44.6"/>
	<path class="text_low_svg_sp" d="M163.1,48.5c-0.2-1.6-0.7-3.4-1.1-4.4l0.8-0.6c0.4,0.9,1,2.9,1.1,4.2L163.1,48.5 M162.9,53.2
		c2.7-1.5,4.5-4.9,4.7-10.4c0,0,0.6,0.2,1,0.3c0.1,0,0.2,0.1,0.2,0.3c0,0.2-0.2,0.3-0.3,0.4c-0.5,5.6-2.1,8.7-4.7,10.7L162.9,53.2z
		 M165.1,47.5c-0.1-1.7-0.6-3.4-0.9-4.6l0.9-0.5c0.4,1,0.8,3,1,4.3L165.1,47.5z"/>
	<path class="text_low_svg_sp" d="M184.4,52.4c3.2-1,4.1-4,4.2-7.1h-4.6v-1.7h4.6c0-0.8,0-2.2,0-2.8v-0.4c-1.1,0.2-2.3,0.3-3.3,0.3l-0.7-1.7
		c0.3,0,0.6,0,1,0c2,0,4.5-0.3,6-1.3c0,0,0.4,0.7,0.7,1.6c0,0.1,0,0.2,0,0.2c0,0.1,0,0.2-0.1,0.2c-0.1,0-0.2-0.1-0.3-0.3
		c-0.7,0.3-1.5,0.5-2.2,0.7c0,1.2,0,2.5,0,3.4h3.9v1.7h-3.9c-0.1,4.2-1.5,7.3-4.3,8.6L184.4,52.4"/>
	<path class="text_low_svg_sp" d="M207.2,53.7c3.6-0.7,4-3.3,4-5.4c0-1,0-1.6-0.1-1.7c0.1,0,0.9,0.1,1.1,0.1c0.2,0,0.3,0.1,0.3,0.2
		c0,0.1-0.1,0.3-0.3,0.3c0,0.3,0,0.5,0,1c-0.1,2.9-0.7,5.6-4,6.9L207.2,53.7 M208.7,41.1h3.8v-1.7h-4.4v-1.5h4.4v-0.5
		c0,0,0-0.7,0-1.4c0.5,0,1.4,0.1,1.4,0.5c0,0.1-0.1,0.3-0.4,0.4c0,0.2,0,0.5,0,0.8v0.2h4.6v1.5h-4.6v1.7h4v1.5h-8.8V41.1z
		 M208.2,44.3h9.9v4.4h-1v-2.9h-8v2.8h-0.9V44.3z M213.7,48c0,0,0-0.6,0-1.4c0.1,0,1,0.1,1.1,0.2c0.2,0,0.2,0.1,0.2,0.3
		s-0.1,0.3-0.3,0.3c0,0.3,0,0.4,0,0.9v4.1c0,0.8,0.4,0.9,1.2,0.9c1.3,0,1.7-0.2,1.7-3.6l1,1.4c-0.2,3.1-0.7,3.8-2.8,3.8
		c-0.4,0-0.7,0-1-0.1c-0.4-0.1-1-0.7-1-1.9V48z"/>
	<path class="text_low_svg_sp" d="M233.9,53c2.8-1.2,4.2-3.7,4.3-8.3c0-0.7,0-5.6-1.4-5.6c-1.1,0-2.1,3.9-2.1,6.8c0,0.8,0.1,1.2,0.2,1.7
		l-0.9,0.8c0,0,0,0,0,0c-0.1,0-0.3-1.9-0.3-3.3c0-0.3,0-0.6,0-0.9c0.1-3.1,0.5-4.8,0.6-7.6c0-0.1,0-0.2,0-0.2c0.2,0,1,0.3,1,0.3
		c0.2,0.1,0.3,0.2,0.3,0.3c0,0.1-0.1,0.3-0.4,0.3c-0.1,1.1-0.4,2.3-0.4,3.2c0,0.1,0,0.1,0,0.1c0,0,0,0.1,0,0.1c0,0,0-0.1,0.1-0.2
		c0.3-1.1,0.9-3.1,2.2-3.1c0.8,0,1.6,1,1.9,2.8c0.2,1.2,0.4,3.2,0.4,4.2c0,1.8-0.1,7.4-4.2,9.6L233.9,53"/>
	<path class="text_low_svg_sp" d="M258.3,52c2.4-0.3,5.1-2.1,5.1-6.6c0-2.2-1-5-3.2-5.2c0,0.3,0,0.6,0,0.9c0,3.9-1.7,8.1-2.4,9.5
		c-0.4,0.8-0.8,1.2-1.2,1.2c-0.9,0-1.9-2.2-1.9-4.6c0-4,2.3-8.4,5.2-8.4c2.6,0,4.5,3,4.5,6.7c0,4.9-2.6,7.6-5,8.3L258.3,52
		 M255.7,47c0,1.7,0.6,2.8,0.9,2.8c0.2,0,0.3-0.2,0.5-0.5c0.8-1.5,2.1-5.1,2.1-8.2c0-0.3,0-0.5,0-0.8
		C257.3,40.9,255.7,44.2,255.7,47z"/>
	<path class="text_low_svg_sp" d="M278.5,46.4c1.7-2.5,2.5-5.8,2.7-7.6c0,0,0.6,0.3,1.1,0.6c0.2,0.1,0.2,0.2,0.2,0.3c0,0.2-0.2,0.3-0.4,0.3
		c-0.6,2.4-1.4,4.9-2.4,6.8L278.5,46.4 M278.6,53.4c0.1,0,0.1,0,0.1,0c4.6,0,7.5-3.3,8-9.2c0,0,0.8,0.4,1.2,0.8
		c0.2,0.1,0.2,0.3,0.2,0.4c0,0.2-0.2,0.3-0.4,0.3c0,0-0.1,0-0.1,0c-0.8,4.9-3.1,8.9-8,9.4L278.6,53.4z M281.5,46.9
		c0.3,0.1,0.8,0.2,1.3,0.2c0.5,0,0.9-0.2,0.9-0.9v-8.5c0,0,0-0.8,0-1.7c0,0,0.6,0,1.2,0.2c0.2,0.1,0.3,0.2,0.3,0.3
		c0,0.2-0.2,0.4-0.4,0.4c0,0.3,0,0.6,0,0.8c0,0.1,0,0.2,0,0.2v6.4c0,1.1,0,1.9,0,2c0,2.3-1.1,2.6-2.1,2.6c-0.2,0-0.4,0-0.5,0
		L281.5,46.9z M286.9,38.7c0.6,1.6,1.9,4.6,3.4,6.2c0,0-1.2,1.1-1.2,1.1c-0.9-1.1-2.5-4.9-3-6.6L286.9,38.7z"/>
	<path class="text_low_svg_sp" d="M303.2,53.4c3.1-0.1,4.8-1.8,5.9-3.8c-1-0.7-2-1-2.6-1.2c-0.1,0.5-0.2,1-0.4,1.4l-1-0.4c0.6-2,1.1-4.6,1.5-7
		h-3.2v-1.6h3.5c0.3-2.4,0.5-4.3,0.6-4.9c0,0,0.7,0.1,1.2,0.3c0.1,0,0.2,0.2,0.2,0.3c0,0.2-0.1,0.3-0.5,0.4
		c-0.1,0.4-0.2,1.9-0.5,3.9h6.5v1.6h-2.5c-0.2,2.6-0.5,4.7-1.2,6.6c1.1,0.9,2.3,2.2,3.4,4.2l-0.7,1.8c-1-2.1-2.1-3.6-3.2-4.5
		c-1.1,2.3-2.9,4.2-6,4.8L303.2,53.4 M307.6,42.5c-0.2,1.5-0.5,3.1-0.8,4.6c0.6,0.2,1.7,0.5,2.8,1.3c0.3-1,0.9-2.7,1-5.9H307.6z"/>
	<polyline class="text_low_svg_sp" points="327.8,54.2 330.4,54.2 330.4,36.9 331.3,36.9 331.3,55.7 327.8,55.7 327.8,54.2 	"/>
	<path class="text_low_svg_sp" d="M347.5,49c1,0,1.8,1.4,1.8,3.1c0,1.7-0.8,3.1-1.8,3.1c-1,0-1.8-1.4-1.8-3.1C345.7,50.4,346.5,49,347.5,49
		 M348.5,52.1c0-1-0.4-1.7-1-1.7c-0.6,0-1,0.8-1,1.7c0,0.9,0.4,1.7,1,1.7C348,53.8,348.5,53,348.5,52.1z"/>
</g>
</svg>
