<svg xmlns="http://www.w3.org/2000/svg" viewBox="0 0 104.31 34.86"><defs><style>.top_logo_svg1{fill:#a08143;}</style></defs><title>top_logo</title><g id="レイヤー_2" data-name="レイヤー 2"><g id="編集モード"><path class="top_logo_svg1" d="M30.78,12a5.49,5.49,0,0,1-1.18-.15c.12,3.57.14,11.88.14,14.2,0,4-1.76,7.74-6.58,7.74a6.77,6.77,0,0,1-5.46-2.3,9,9,0,0,1-1.45-5.15c-.2-7.63.29-11.6.39-14.49a5.86,5.86,0,0,1-1.75.27,10.87,10.87,0,0,1-2.11-.27c.11,2.47.22,7,.18,10.25l-.05,4.12a8.36,8.36,0,0,0,2.53,5.93,9.61,9.61,0,0,0,7,2.74,9.69,9.69,0,0,0,6.2-2.14c1.79-1.52,2.6-3.67,2.75-6.47s.13-3.11.17-4.86c.07-2.42.23-8.1.35-9.57A4.18,4.18,0,0,1,30.78,12Z"/><path class="top_logo_svg1" d="M88.76,12a5.15,5.15,0,0,1-1.05-.16c.21,6,.44,13.11.35,17.2A226.26,226.26,0,0,1,71.37,11.47H70c.48,7.27.19,17.53-.08,22.9A4.41,4.41,0,0,1,71,34.22a4.28,4.28,0,0,1,1.07.15c-.12-2.32-.35-6.82-.43-10.67-.06-2.16-.08-4.66,0-6.51,6.54,6.44,15.26,16,16.52,17.41H89.6c-.19-4-.18-8.6-.12-12.51s.16-7.53.32-10.27A4.74,4.74,0,0,1,88.76,12Z"/><path class="top_logo_svg1" d="M65.93,25.78c0-1.94,0-3.87,0-5.76,0-2.6.11-6.23.18-8.2a6.43,6.43,0,0,1-1.88.25,5.9,5.9,0,0,1-1.84-.25c.09,1.85.21,5.53.23,8.2,0,1.83,0,3.82,0,5.76,0,3.16-.14,5.94-.23,8.59a11.19,11.19,0,0,1,1.86-.21,11.91,11.91,0,0,1,1.87.21C66.06,32.1,65.94,29.06,65.93,25.78Z"/><path class="top_logo_svg1" d="M56.24,11.47H55c-2.23,5.69-6,13.1-8.25,17.66-2.65-4.73-6.13-11.83-8.67-17.66h-1.4c-.89,7-1.91,16-3.37,22.9a5.15,5.15,0,0,1,1.11-.13,3.39,3.39,0,0,1,1,.13C35.79,29.05,37,20.27,37.5,17c2.82,6.14,6,12.11,8.16,17.13h.2c2.57-5.79,5.75-12.44,7.81-17.13,1.14,5.1,2.61,17.33,2.61,17.33a7.42,7.42,0,0,1,1.82-.23,10,10,0,0,1,1.93.23C58.94,29.52,57.25,18.71,56.24,11.47Z"/><path class="top_logo_svg1" d="M12.12,33.41a2.35,2.35,0,0,1,.18-.92,46.64,46.64,0,0,1-8.54.77,168.5,168.5,0,0,1,.11-21.44h0a8.72,8.72,0,0,1-1.93.2A10.16,10.16,0,0,1,0,11.82s.26,6.37.26,11.3C.26,27,0,34.37,0,34.37c2.13,0,4.22,0,6.06,0,3.6,0,6.23,0,6.23,0A2.83,2.83,0,0,1,12.12,33.41Z"/><path class="top_logo_svg1" d="M104.18,33.47a3.66,3.66,0,0,1,.1-.89,47.08,47.08,0,0,1-7.49.61c-.12-2.75-.1-6.58-.11-10.17,2.77,0,4.26.19,6.56.33a3.2,3.2,0,0,1-.11-.86,5,5,0,0,1,.11-.94c-2,.12-3.27.28-6.55.28-.08-2.74,0-6.91.1-8.91a49,49,0,0,1,7.52.56,3,3,0,0,1-.11-.84,4.1,4.1,0,0,1,.11-.86c-1.42.05-4.12.15-5.41.15-4,0-5.5-.11-5.5-.11.11,1.55.18,4,.22,6.68,0,2.53,0,5.59,0,7.93,0,2.72-.11,6.13-.22,7.94,0,0,1.78-.1,5.26-.1,1.7,0,3.72,0,5.61.1A3.9,3.9,0,0,1,104.18,33.47Z"/><path class="top_logo_svg1" d="M2.37,1.54l.22-.08.27.44-.53.4v.44A8,8,0,0,1,3.68,2a2.82,2.82,0,0,1,.93-.17A1.75,1.75,0,0,1,6,2.38a2.19,2.19,0,0,1,.5,1.45,2.08,2.08,0,0,1-.38,1.25A2.57,2.57,0,0,1,5,6a6.77,6.77,0,0,1-1.69.4A3.65,3.65,0,0,0,3,5.68,3.84,3.84,0,0,0,4.9,5.31a1.64,1.64,0,0,0,.86-1.49,1.48,1.48,0,0,0-.35-1,1.12,1.12,0,0,0-.86-.38,2.46,2.46,0,0,0-1,.24A4.28,4.28,0,0,0,3,3q-.32.19-.69.48c0,1.16,0,1.78,0,1.86l0,1.26-.71,0V6c0-.25,0-.44,0-.56,0-.44,0-.89,0-1.37l-.35.39-.35.4-.4.51L0,4.84c.24-.25.5-.5.76-.75s.54-.52.87-.82c0-.1,0-.43,0-1-.56.09-1,.14-1.27.16v-.7l.46,0a5.52,5.52,0,0,0,.81-.06q0-.73.06-1.47l.77.05c0,.06,0,.13,0,.19l0,.19,0,.2C2.4,1,2.39,1.2,2.37,1.54Z"/><path class="top_logo_svg1" d="M15.26,2.39q-.9,0-1.35,0c-.22,0-.64.07-1.26.17l.1.61.93-.11c.37,0,.69,0,1,0l1,0,0-.67Zm-3.15,3a1.3,1.3,0,0,0,.34.56,1.69,1.69,0,0,0,.76.36,6.56,6.56,0,0,0,1.55.13L16,6.37V5.65a13.07,13.07,0,0,1-1.41.12A6.24,6.24,0,0,1,13.5,5.7a1.24,1.24,0,0,1-.57-.19.85.85,0,0,1-.2-.33,2.87,2.87,0,0,1,0-.54l-.67,0A2.79,2.79,0,0,0,12.11,5.4ZM12.54.49,11.8.25c-.13.55-.26,1-.37,1.41h-.65c-.22,0-.48,0-.78,0v.68h.47l.78,0-.45,1.24c-.14.39-.26.7-.36,1l-.27.61c-.08.18-.15.33-.22.46s-.17.36-.34.72l.64.29c.39-.84.7-1.53.91-2.06s.31-.8.45-1.17.26-.75.37-1.11c.35,0,.67-.08,1-.13s.58-.12.88-.2l0-.68a11.78,11.78,0,0,1-1.6.35Q12.32,1.18,12.54.49Z"/><path class="top_logo_svg1" d="M24.41,3.64a3.78,3.78,0,0,0,.6.41q-.24.39-.48.72a4.5,4.5,0,0,1-.41.52A3.71,3.71,0,0,1,23,6.13a3,3,0,0,1-1.36.32,2,2,0,0,1-1-.22,1.37,1.37,0,0,1-.57-.62,3.3,3.3,0,0,1-.18-1.28V4.18a2.13,2.13,0,0,1,0-.22V3.7c0-.52,0-1.3.05-2.36V1c0-.14,0-.3,0-.47l.85,0c0,.36-.07.75-.1,1.18s-.06.76-.07,1,0,.48,0,.75,0,.54,0,.81a3,3,0,0,0,.1,1,.75.75,0,0,0,.34.37,1.18,1.18,0,0,0,.63.15,2.42,2.42,0,0,0,1.52-.54A5,5,0,0,0,24.41,3.64Z"/><path class="top_logo_svg1" d="M29,3.9a6,6,0,0,1,1.29-.69A3.43,3.43,0,0,1,31.48,3a2,2,0,0,1,1.35.43,1.35,1.35,0,0,1,.47,1.07,1.66,1.66,0,0,1-.75,1.41,5.77,5.77,0,0,1-3.24.77,1.38,1.38,0,0,0,0-.25A3.27,3.27,0,0,0,29.17,6h.51a8,8,0,0,0,1-.06,3.88,3.88,0,0,0,.83-.2A2.29,2.29,0,0,0,32,5.48a1.37,1.37,0,0,0,.35-.33,1,1,0,0,0,.22-.63.83.83,0,0,0-.3-.65,1.27,1.27,0,0,0-.88-.27,2.81,2.81,0,0,0-1,.18,3.45,3.45,0,0,0-.94.54,3.81,3.81,0,0,0-.61.64l-.56-.24q.12-1.29.24-2.07c.07-.41.13-.77.19-1.07l.76.24a10.87,10.87,0,0,0-.3,1.07A7.41,7.41,0,0,0,29,3.9ZM31.83.8l-.22.67c-.51-.12-.92-.23-1.21-.33A8.91,8.91,0,0,1,29.18.63L29.46,0c.38.17.73.32,1.06.43l.24.08L31,.58l.33.09Z"/><path class="top_logo_svg1" d="M42,3.64a3.78,3.78,0,0,0,.6.41q-.24.39-.48.72a4.5,4.5,0,0,1-.41.52,3.71,3.71,0,0,1-1.15.84,3,3,0,0,1-1.37.32,2,2,0,0,1-1-.22,1.34,1.34,0,0,1-.58-.62,3.55,3.55,0,0,1-.17-1.28V4c0-.11,0-.19,0-.26,0-.52,0-1.3,0-2.36,0-.1,0-.23,0-.37V.5l.86,0c0,.36-.07.75-.1,1.18s-.06.76-.07,1,0,.48,0,.75,0,.54,0,.81a3.28,3.28,0,0,0,.1,1,.75.75,0,0,0,.34.37,1.18,1.18,0,0,0,.63.15,2.37,2.37,0,0,0,1.51-.54A4.85,4.85,0,0,0,42,3.64Z"/><path class="top_logo_svg1" d="M49.59.32,50.1,1c-.87.63-1.52,1.09-1.94,1.36l-.71.42-.75.41c-.08,0-.12.08-.12.13s.05.1.15.15.42.26.82.55c.18.12.38.27.59.44s.41.34.6.52.75.72,1.34,1.33l-.64.51c-.65-.75-1.19-1.31-1.6-1.7l-.49-.43c-.15-.13-.29-.24-.4-.32l-.36-.28-.47-.32a.83.83,0,0,1-.25-.21.44.44,0,0,1-.07-.22A.56.56,0,0,1,45.91,3a2.55,2.55,0,0,1,.55-.39l.72-.44.75-.52c.27-.19.54-.39.83-.62Z"/><path class="top_logo_svg1" d="M57.71.45l-.5.81q.54,0,1-.12A6.49,6.49,0,0,0,59,1l0,.67-.58.07-.69.09-.92.07-.45.69a2.79,2.79,0,0,1,.51-.08,1.4,1.4,0,0,1,.41.06,1,1,0,0,1,.32.19,1.59,1.59,0,0,1,.19.29s0,.12.06.34l2-.77.24.73-.56.12-.45.12-.44.14-.41.14L57.9,4c0,.31,0,.67,0,1.09h-.68V4.22a3.93,3.93,0,0,0-1.12.65.53.53,0,0,0-.17.38.41.41,0,0,0,.1.27,1.07,1.07,0,0,0,.49.27,4.47,4.47,0,0,0,1.17.1c.3,0,.58,0,.83,0l1-.12v.72c-.88.06-1.48.09-1.78.09a3.72,3.72,0,0,1-2-.43,1,1,0,0,1-.45-.83,1,1,0,0,1,.17-.55,2.11,2.11,0,0,1,.67-.6,10.28,10.28,0,0,1,1.1-.54.71.71,0,0,0-.11-.46A.45.45,0,0,0,56.78,3a1.4,1.4,0,0,0-.84.29,10.87,10.87,0,0,0-1.26,1.31l-.53-.51A14.23,14.23,0,0,0,55.25,3a11.6,11.6,0,0,0,.83-1.1c-.38,0-.74,0-1.06,0l-.27,0,0-.64a14.13,14.13,0,0,0,1.72,0c.14-.27.31-.66.51-1.15Z"/><path class="top_logo_svg1" d="M64.82,5.64a.64.64,0,0,1-.33.11.2.2,0,0,1-.18-.09.59.59,0,0,1-.1-.38,1.32,1.32,0,0,1,.14-.6,1.93,1.93,0,0,1,.41-.58,3.77,3.77,0,0,1,.65-.53,14.33,14.33,0,0,0,.13,1.49A3.42,3.42,0,0,1,64.82,5.64Zm1.65-2.48c.15,0,.32-.05.51-.06-.09.15-.18.3-.27.43L66.43,4l-.34.47a10.3,10.3,0,0,1,0-1.17Zm.19-.59-.6.12c0-.24,0-.51.08-.82a13.83,13.83,0,0,0,2.26-.38l0-.66c-.5.13-.86.23-1.09.27a10,10,0,0,1-1,.16,9.72,9.72,0,0,1,.22-.95L65.7.16c-.06.45-.11.82-.14,1.15h-.27a9.12,9.12,0,0,1-1.22-.07V1.9h.24l.26,0h.28l.63,0a10.17,10.17,0,0,0-.06,1,3.79,3.79,0,0,0-.87.54,3.08,3.08,0,0,0-.69.86,2.19,2.19,0,0,0-.26,1.06,1,1,0,0,0,.23.72.68.68,0,0,0,.52.26,1.38,1.38,0,0,0,.56-.12,3.8,3.8,0,0,0,.75-.51l.07.32.65-.23a4,4,0,0,1-.16-.63c.46-.55.75-.91.86-1.07s.39-.57.62-1a2.23,2.23,0,0,1,.61.23,1.26,1.26,0,0,1,.42.47,1.24,1.24,0,0,1-.1,1.34,1.62,1.62,0,0,1-.73.55A4.92,4.92,0,0,1,66.72,6a3.41,3.41,0,0,1,.25.64,5.83,5.83,0,0,0,1.24-.33,2.44,2.44,0,0,0,.81-.5A1.81,1.81,0,0,0,69.6,4.5a1.7,1.7,0,0,0-.21-.87A1.91,1.91,0,0,0,68.81,3,4,4,0,0,0,68,2.66l.12-.24-.65-.26-.18.38Z"/><path class="top_logo_svg1" d="M78.59,2.39c-.59,0-1,0-1.34,0s-.65.07-1.27.17l.11.61L77,3.09c.36,0,.69,0,1,0l1,0,0-.67Zm-3.15,3a1.33,1.33,0,0,0,.35.56,1.64,1.64,0,0,0,.75.36,6.74,6.74,0,0,0,1.55.13l1.21-.08V5.65a13.27,13.27,0,0,1-1.41.12,6.24,6.24,0,0,1-1.06-.07,1.24,1.24,0,0,1-.57-.19.74.74,0,0,1-.2-.33,2.48,2.48,0,0,1,0-.54l-.66,0A3.3,3.3,0,0,0,75.44,5.4ZM75.88.49,75.14.25c-.14.55-.26,1-.38,1.41h-.64a7.5,7.5,0,0,1-.77,0l0,.68h.48l.76,0c-.14.44-.29.86-.44,1.24s-.26.7-.36,1l-.27.61-.21.46c-.06.12-.18.36-.35.72l.64.29c.39-.84.7-1.53.91-2.06s.31-.8.44-1.17.27-.75.38-1.11c.35,0,.67-.08,1-.13s.58-.12.88-.2l0-.68a12,12,0,0,1-1.59.35Q75.66,1.18,75.88.49Z"/><path class="top_logo_svg1" d="M85.89.67,85.57.58,85.32.51,85.07.43C84.75.32,84.4.17,84,0l-.29.63A9.55,9.55,0,0,0,85,1.14a12.49,12.49,0,0,0,1.21.33L86.39.8ZM83.75,2.89c.06-.25.16-.6.31-1.07l-.76-.24c-.06.3-.12.66-.19,1.07S83,3.86,82.86,4.72l.57.24A3.81,3.81,0,0,1,84,4.32,3.31,3.31,0,0,1,85,3.78a2.77,2.77,0,0,1,1-.18,1.27,1.27,0,0,1,.88.27.83.83,0,0,1,.3.65,1,1,0,0,1-.23.63,1.29,1.29,0,0,1-.33.33,2.49,2.49,0,0,1-.49.24,3.65,3.65,0,0,1-.82.2,8,8,0,0,1-1,.06h-.51l.12.47a1.63,1.63,0,0,1,0,.25,5.79,5.79,0,0,0,3.25-.77,1.69,1.69,0,0,0,.75-1.41,1.39,1.39,0,0,0-.47-1.07A2,2,0,0,0,86,3a3.43,3.43,0,0,0-1.15.2,6,6,0,0,0-1.29.69A9.62,9.62,0,0,1,83.75,2.89Z"/><path class="top_logo_svg1" d="M96.41,3.64a3.78,3.78,0,0,0,.6.41c-.16.26-.32.5-.47.72s-.3.39-.41.52A3.88,3.88,0,0,1,95,6.13a3,3,0,0,1-1.36.32,1.93,1.93,0,0,1-1-.22,1.36,1.36,0,0,1-.59-.62,3.55,3.55,0,0,1-.17-1.28V4c0-.11,0-.19,0-.26,0-.52,0-1.3,0-2.36,0-.1,0-.23,0-.37V.5l.86,0c0,.36-.07.75-.1,1.18s-.06.76-.07,1,0,.48,0,.75,0,.54,0,.81a3.4,3.4,0,0,0,.09,1,.75.75,0,0,0,.34.37,1.18,1.18,0,0,0,.63.15,2.4,2.4,0,0,0,1.52-.54A5,5,0,0,0,96.41,3.64Z"/><path class="top_logo_svg1" d="M103.68.32l.51.64c-.88.63-1.52,1.09-1.94,1.36l-.71.42-.75.41c-.08,0-.12.08-.12.13s0,.1.15.15.41.26.82.55c.18.12.37.27.58.44s.42.34.61.52.75.72,1.34,1.33l-.64.51c-.66-.75-1.19-1.31-1.6-1.7l-.49-.43c-.16-.13-.29-.24-.41-.32s-.23-.18-.36-.28l-.46-.32a1,1,0,0,1-.25-.21.36.36,0,0,1-.07-.22A.56.56,0,0,1,100,3a2.3,2.3,0,0,1,.55-.39l.71-.44c.25-.16.5-.33.76-.52s.54-.39.82-.62Z"/></g></g></svg>