<svg xmlns="http://www.w3.org/2000/svg" viewBox="0 0 495.89 993.83"><defs><style>.cls-1,.cls-2,.cls-3{fill:none;}.cls-1,.cls-2{stroke:#666;}.cls-1{stroke-miterlimit:10;}.cls-2{stroke-linejoin:round;}.cls-4{fill:#666;}</style></defs><title>line2</title><g id="レイヤー_2" data-name="レイヤー 2"><g id="レイヤー_2-2" data-name="レイヤー 2"><path class="cls-1" d="M167.46,320.26a17.5,17.5,0,0,0,5-1,11,11,0,0,0,4-2l1,1-3,2,12,27a3.1,3.1,0,0,0,2-1c1-1,8-24,0-29s-7.5,8.6-5,11c2,2,4,3,5,1s-2-6-2-6l1-1s5,6,2,9-6,3-9-3,0-13,3-14,9,1,11,7-4,24-3,24,7-4,7-4v-7.71a.34.34,0,0,1,.67-.1l3.33,10.81a62,62,0,0,0-11,3,46.89,46.89,0,0,0-10,6v-3l2-1s-10-27-11-27,0,11,0,11h-1s0-12-1-12h-3Z"/><path class="cls-1" d="M222.46,299.26l9-3v2l-2,1-7,43,2,1v2l-8-1,1-2,2-1s6-36,5-37-9,14-9,14l-1-1s10-15,10-16-2-1-2-1Z"/><path class="cls-1" d="M253.46,345.26s-1,8-7,5,0-16,6-16,9,4,10,11-10.76,12.44-17,13c-6,.54-5,1-4,2s7,4,8,4a9.43,9.43,0,0,0,4.18-.94.34.34,0,0,1,.42.52l-6.6,6.42a44.32,44.32,0,0,0-5-6,38.69,38.69,0,0,0-8-5.44.37.37,0,0,1,.13-.69c2.62-.31,8.93-1.09,12.82-1.87,5-1,14-11,10-16s-8-1-9,2-2,7,1,7S253.46,345.26,253.46,345.26Z"/><path class="cls-1" d="M269.46,371.26c-1,0,0-4,4-2s7,11,4,13-7,0-7,0,1,4-5,6-9-3-10-6-1-6,1-8,4-1,4,1c-1,0-4,0-4,2s1,6,3,7,8,1,7-5l1-1s3,3,6,1,2-4,1-6-4-3-5-2Z"/><path class="cls-1" d="M257.46,406.26s2-2,2-3a22.69,22.69,0,0,0-1-4h2l1,3s13,3,15,3,2-2,2-3-8-5-8-5v-2s10,4,10,5c0,.38-.13,5.82,1,6,6,1,5-2,5-2h1l1.76,7.05a.16.16,0,0,1-.28.14,7.17,7.17,0,0,0-2.48-2.19,4.83,4.83,0,0,0-4,0l2.77,12.94a.33.33,0,0,1-.55.3c-2.27-2.21-8.94-8.59-12.22-10.24C268.46,410.26,257.46,406.26,257.46,406.26Z"/><path class="cls-1" d="M264,405.34l15.43,1.92,1,7L264,405.54C263.87,405.48,263.92,405.32,264,405.34Z"/><path class="cls-1" d="M249.46,428.26s7-8,8-13c5,4-3,15-3,15l12,12s3-7,10-6,16,8,16,18-5,18-11,13,2-7,1-3,6,6,7-4-6-18-13-19-9,5-3,10Z"/><path class="cls-1" d="M245.46,460.26s-5-4-11,3-6,18,0,21,14,0,18-3,2-16-6-13-5,12-5,12l2-1s-2-8,3-8,5,9,0,11-9-1-11-6-1-12,3-13a5.57,5.57,0,0,1,6,2Z"/><path class="cls-1" d="M191.46,461.26h-1v-19a45.37,45.37,0,0,0,8,3,32,32,0,0,0,7,1s-6,14-6,27,5,28,5,28l-8-4s-3-7-1-22a101.85,101.85,0,0,1,7-26s-3-4-7-1S191.46,461.26,191.46,461.26Z"/><path class="cls-1" d="M176.46,435.26c4.94-1.23,9,1,9,4a8,8,0,0,1-1.13,4.55,6.7,6.7,0,0,1-4.06,2.5c-4,1-4.29.91-4.29.91s4.48,7,.48,10-10,5-14,1-.08-9.62,3.61-10.84a21.54,21.54,0,0,1,3.79-1.05,5,5,0,0,1-.4-4.11C170.56,438.79,172.46,436.26,176.46,435.26Z"/><path class="cls-1" d="M177.46,437.26c2.82-1.41,7,1,5,4s-5.22,4.87-7.22,3.87S173.46,439.26,177.46,437.26Z"/><path class="cls-1" d="M172.41,451.8c.81,1.94,1.26,2.93,1.05,4.46s-7,4-9,1-1-5,2-7S170.45,447.09,172.41,451.8Z"/><path class="cls-1" d="M164.46,423.26c4.12,0,5,0,5-2s-1-6-5-7-11-1-15,3-4,12,2,14,13-4,9-8-8.8.21-8.8.21l.8.79s4.9-3.14,7-1-3,6-7,5-5-5-1-8,12-5,15-3S168.46,423.26,164.46,423.26Z"/><path class="cls-1" d="M138.46,400.26a4.83,4.83,0,0,0,0-4l-2-4h1l1,2s24,5,25,4l1-1h1v7h-2v-2s-20-6-21-5,12,8,12,8l-1,1s-12-8-13-8l-1,2Z"/><path class="cls-1" d="M151.46,376.26c10.07,2.75,16,9,15,13s-10,6-21,1-13-9-12-11S140.46,373.26,151.46,376.26Z"/><path class="cls-1" d="M151.46,379.26c7,2,16,8,14,10s-29-4-30-9,12-2,16-1"/><path class="cls-2" d="M125.46,338.26a7.74,7.74,0,0,0,3-1,12.38,12.38,0,0,0,3-2l1,1a3.49,3.49,0,0,0-1,2c0,1,34,26,35,26a1,1,0,0,0,1-1l1,1-4,5-1-1a1,1,0,0,0,1-1c0-1-31-25-32-25s12,16,12,16l-1,1s-15-20-16-20a3.49,3.49,0,0,0-2,1Z"/><path class="cls-2" d="M135.84,333.34a7.5,7.5,0,0,0,2.78-.73l3.82-1.6.88.91a2.88,2.88,0,0,0-1,1.67c0,.86,30.08,23.75,31,23.8a.85.85,0,0,0,1-.82l.88.9-3.85,4.13-.88-.9s.92,0,1-.82-29.1-24-29.91-23.62c-2,1,11,14.06,11,14.06l-1,.81s-13.11-15.82-14-15.87a12.1,12.1,0,0,1-1.7-.2Z"/><circle class="cls-1" cx="210.96" cy="398.76" r="1.5"/><path class="cls-1" d="M206.46,398.76a4.5,4.5,0,1,0,.67-2.36c-2.67-.14-5.67-3.14-9.67-4.14s-6,1-9,0-2-6-6-6-15,2-19,1c8,2,12,8,16,9s7-2,9-2,5,4,8,4S203.46,397.26,206.46,398.76Z"/><path class="cls-1" d="M214.16,392a7.5,7.5,0,1,1-4.4-.62,7.44,7.44,0,0,1,2.71.06c2-4.16,1-6.16,3-10.16s8-13,9-16,1-8,3-12l9.21-18.42a.21.21,0,0,1,.4.14c-1.06,4.6-4,17-5.61,20.28-2,4-4,6-6,11s-4,13-6,18S215.86,389.7,214.16,392Z"/><circle class="cls-1" cx="226.96" cy="437.76" r="1.5"/><path class="cls-1" d="M231.46,437.76a4.53,4.53,0,1,1-.48-2c1.48.5.48-3.5,2.48-3.5s2,1,3,1,0-2,2-3,2,1,3,0a3.1,3.1,0,0,0,1-2,2,2,0,0,1,0,3c-2,2-4-.41-4,1,0,1,0,2-2,3s-3-2-3,0A2.67,2.67,0,0,1,231.46,437.76Z"/><path class="cls-3" d="M246.71,437.06h1.44a22.15,22.15,0,0,0-3.61-11.45c-.32.38-.65.76-1,1.13A20.66,20.66,0,0,1,246.71,437.06Z"/><path class="cls-3" d="M205.18,438.14l-1.43-.23c0,.49,0,1,.06,1.45l1.45.22C205.21,439.1,205.19,438.63,205.18,438.14Z"/><path class="cls-3" d="M241.85,424.38c.31.37.6.76.89,1.15.32-.38.64-.75.95-1.13-.29-.39-.6-.76-.91-1.13Q242.33,423.84,241.85,424.38Z"/><path class="cls-3" d="M246.71,438.47A20.77,20.77,0,0,1,205.44,441l-1.48-.2a22.21,22.21,0,0,0,44.19-2.36h-1.44Z"/><path class="cls-4" d="M251,397.76h.71c0-.23,0-.47,0-.7H251Z"/><path class="cls-4" d="M205.22,436.72c-.48-.07-1-.16-1.43-.24,0,.42,0,.85,0,1.28v.15l1.43.23c0-.12,0-.25,0-.38C205.16,437.41,205.2,437.07,205.22,436.72Z"/><path class="cls-4" d="M183.11,425.61a39.38,39.38,0,1,1,67.22-27.85h0v-.7h1.4a40.78,40.78,0,1,0-49.4,40.58c0-.49,0-1,.06-1.45A39.26,39.26,0,0,1,183.11,425.61Z"/><polygon class="cls-4" points="250.33 398.47 251.04 398.47 251.04 397.76 251.04 397.06 250.33 397.06 250.33 397.76 250.33 397.76 250.33 397.76 250.33 398.47"/><path class="cls-4" d="M254.58,397.06h0c0,.23,0,.47,0,.7Z"/><path class="cls-4" d="M251,397.76v.71h.69c0-.23,0-.47,0-.71Z"/><path class="cls-4" d="M240.89,423.32c.33.35.66.7,1,1.06q.48-.54.93-1.11c-.32-.36-.64-.71-1-1C241.51,422.59,241.2,423,240.89,423.32Z"/><path class="cls-4" d="M250.33,398.47v-.71h0a39.15,39.15,0,0,1-7.65,23.32c.34.34.67.7,1,1.06a40.62,40.62,0,0,0,8.06-23.67h-1.4Z"/><path class="cls-4" d="M254.56,398.47h0v-.71h0C254.58,398,254.57,398.24,254.56,398.47Z"/><path class="cls-4" d="M253.15,398.47a42,42,0,0,1-8.56,24.78c.3.39.6.79.87,1.19a43.34,43.34,0,0,0,9.1-26h-1.41Z"/><path class="cls-4" d="M168.75,397.76a42.2,42.2,0,0,1,84.4-.7h1.41a43.62,43.62,0,1,0-52.06,43.5c-.06-.48-.1-1-.13-1.46A42.23,42.23,0,0,1,168.75,397.76Z"/><path class="cls-4" d="M253.87,397.76v.71h.69c0-.23,0-.47,0-.71h0c0-.23,0-.47,0-.7h-.69Z"/><polygon class="cls-4" points="253.16 397.76 253.16 397.76 253.87 397.76 253.16 397.76 253.16 397.76"/><path class="cls-4" d="M253.16,397.76h.71v-.7h-.72c0,.23,0,.47,0,.7Z"/><path class="cls-4" d="M253.16,397.76c0,.24,0,.48,0,.71h.72v-.71Z"/><path class="cls-4" d="M241.77,426.6c.33-.35.65-.71,1-1.07-.29-.39-.58-.78-.89-1.15-.31.36-.62.72-.94,1.07C241.21,425.82,241.49,426.21,241.77,426.6Z"/><path class="cls-4" d="M246,437.76v.71h.67c0-.23,0-.47,0-.71Z"/><polygon class="cls-4" points="245.33 437.06 245.33 437.76 245.33 437.76 245.33 437.76 245.33 438.47 246.04 438.47 246.04 437.76 246.04 437.06 245.33 437.06"/><path class="cls-4" d="M245.33,437.76h0v-.7h1.38a20.66,20.66,0,0,0-3.15-10.32c-.33.37-.66.72-1,1.08A19.21,19.21,0,0,1,245.33,437.76Z"/><path class="cls-4" d="M248.15,437.06h1.41a23.52,23.52,0,0,0-4.1-12.62c-.3.39-.61.79-.92,1.17A22.15,22.15,0,0,1,248.15,437.06Z"/><path class="cls-4" d="M246,437.76h.71c0-.23,0-.47,0-.7H246Z"/><path class="cls-4" d="M248.16,437.76h.71v-.7h-.72C248.15,437.29,248.16,437.53,248.16,437.76Z"/><path class="cls-4" d="M248.15,438.47A22.21,22.21,0,0,1,204,440.83c-.49-.08-1-.17-1.46-.27a23.62,23.62,0,0,0,47.06-2.09h-1.41Z"/><path class="cls-4" d="M206.61,438.32c-.48-.05-1-.11-1.43-.18,0,.49,0,1,.08,1.44.47.06.94.13,1.42.18C206.63,439.29,206.62,438.8,206.61,438.32Z"/><path class="cls-4" d="M249.58,437.06h0c0,.23,0,.47,0,.7Z"/><path class="cls-4" d="M245.33,438.47v-.71h0a19.37,19.37,0,0,1-38.43,3.44l-1.46-.17a20.77,20.77,0,0,0,41.27-2.56h-1.38Z"/><path class="cls-4" d="M249.58,437.76h0c0,.24,0,.48,0,.71h0Z"/><path class="cls-4" d="M248.16,437.76c0,.24,0,.48,0,.71h.72v-.71Z"/><path class="cls-4" d="M249.58,437.76c0-.23,0-.47,0-.7h-.69v1.41h.69c0-.23,0-.47,0-.71Z"/><polygon class="cls-4" points="248.16 437.76 248.16 437.76 248.87 437.76 248.16 437.76 248.16 437.76"/><path class="cls-4" d="M203.81,439.36c-.48-.08-1-.16-1.44-.26,0,.49.07,1,.13,1.46.48.1,1,.19,1.46.27Q203.85,440.1,203.81,439.36Z"/><path class="cls-4" d="M240,424.39c.33.35.66.69,1,1.06.32-.35.63-.71.94-1.07-.3-.36-.63-.71-1-1.06C240.58,423.69,240.27,424,240,424.39Z"/><path class="cls-4" d="M243.69,424.4c.3.39.58.8.85,1.21.31-.38.62-.78.92-1.17-.27-.4-.57-.8-.87-1.19C244.3,423.64,244,424,243.69,424.4Z"/><path class="cls-4" d="M203.79,436.48c-.47-.09-.94-.18-1.4-.29,0,.48-.06,1-.06,1.45.47.1.95.18,1.42.27v-.15C203.75,437.33,203.76,436.9,203.79,436.48Z"/><path class="cls-4" d="M206.68,439.76c-.48-.05-1-.12-1.42-.18,0,.49.11,1,.18,1.45l1.46.17C206.82,440.72,206.73,440.25,206.68,439.76Z"/><path class="cls-4" d="M206.58,437.76c0-.29,0-.57,0-.86-.47,0-.94-.11-1.4-.18,0,.35-.06.69-.06,1,0,.13,0,.26,0,.38.48.07.95.13,1.43.18C206.6,438.14,206.58,438,206.58,437.76Z"/><path class="cls-4" d="M242.56,427.82c.34-.36.67-.71,1-1.08-.26-.42-.54-.82-.82-1.21-.32.36-.64.72-1,1.07C242.05,427,242.31,427.4,242.56,427.82Z"/><path class="cls-4" d="M241.81,422.22c.33.34.65.69,1,1,.3-.37.6-.75.89-1.13-.32-.36-.65-.72-1-1.06C242.4,421.46,242.1,421.84,241.81,422.22Z"/><path class="cls-4" d="M168.19,372.88c-.23-.07-.63-.22-1.2-.46a3,3,0,0,1-.17.38l-.29.52c-.17.32-.37.72-.61,1.19-.16.31-.34.67-.54,1.09l-.29.59-.08.14c0,.1,0,.17,0,.19s.1,0,.18-.19a1.31,1.31,0,0,1,.2-.27l.18,0,4,2.06a.34.34,0,0,1,.18.13c.08.07.06.23-.05.47s-.1.26-.06.28l.11-.06.05-.11q.15-.33.36-.75l.57-1.07c.08-.16.16-.29.21-.41s.06-.15,0-.17-.08,0-.13.11c-.16.3-.27.47-.35.49s-.26,0-.56-.18l-1.68-.86c.09-.19.21-.42.34-.68a.85.85,0,0,1,.29-.37.89.89,0,0,1,.8.06c.15.06.25.06.28,0l-.08-.13-.27-.13-.64-.32-.45-.23-.42-.22-.09-.06h-.13l0,.12c.39.28.6.5.63.67a2,2,0,0,1-.33,1l-.11.23L166,374.81c.12-.27.23-.52.34-.72a3.15,3.15,0,0,1,.59-.88,1.15,1.15,0,0,1,1-.21,1.1,1.1,0,0,0,.28,0l.07,0,0-.09Z"/><path class="cls-4" d="M170.82,370.48a1.27,1.27,0,0,1-.29,1l-1.07-.72a4.09,4.09,0,0,1-.68-.5.34.34,0,0,1,.05-.39q.49-.74,1.32-.18A1.35,1.35,0,0,1,170.82,370.48Zm3.45-.39c-.09.14-.08.26,0,.33h.18l.13,0,0,.14a.43.43,0,0,1-.32.16,1.92,1.92,0,0,1-.85-.31,2,2,0,0,0-1.34-.28A2.2,2.2,0,0,0,171,371l0,0a4.76,4.76,0,0,0,.43-1.06,1.2,1.2,0,0,0-.44-1.34,1,1,0,0,0-.62-.15,1.19,1.19,0,0,0-.64.23,5.29,5.29,0,0,0-1.06,1.28l-.28.42-.17.26-.1.15-.16.24-.16.25-.09.13c-.12.19-.2.3-.22.35v.1s.1,0,.17-.12a1.1,1.1,0,0,1,.25-.29l.16,0,.41.26,3.34,2.22a1.35,1.35,0,0,1,.26.2q.06.1-.09.36c-.12.2-.16.32-.13.34l.12-.07.22-.33.06-.1.11-.17.35-.52.16-.24.08-.12.46-.7v-.12s-.1,0-.18.14a1.29,1.29,0,0,1-.29.35h-.22s-.22-.13-.56-.36l-1.48-1a1,1,0,0,1,.61-.49,1.7,1.7,0,0,1,.88.21l.58.28a1.29,1.29,0,0,0,.86.07,1.77,1.77,0,0,0,1.08-.81c.23-.35.23-.61,0-.77A.24.24,0,0,0,174.27,370.09Z"/><path class="cls-4" d="M175,367.21l-.32.37-.13.14-.12.15c-.08-.18-.24-.47-.46-.88s-.36-.67-.46-.89l.15,0,.3.11,1.29.45.15.05Zm3.45-1.32a1.3,1.3,0,0,1-.39.37.86.86,0,0,1-.52-.06l-.85-.28c-2.19-.7-3.44-1.11-3.74-1.22s-.37-.11-.4-.09,0,.12.11.29.21.4.26.51l1.28,2.49c.25.49.44.86.56,1.11a2.59,2.59,0,0,1,.29.66.65.65,0,0,1-.2.41c-.11.14-.15.22-.13.24l.14,0,.08-.08.93-1.08,0-.16-.13.05-.3.3c-.1.08-.19.09-.25,0l-.12-.16-.26-.47c-.18-.35-.29-.57-.33-.68.17-.21.33-.41.49-.59l.44-.51.11-.12.62.25.5.19.32.13,0,.17-.11.15c-.21.25-.3.39-.26.43s.11,0,.21-.13.2-.23.38-.46.19-.24.32-.38l.59-.66.26-.29a2,2,0,0,0,.2-.26v-.09Z"/><path class="cls-4" d="M179.08,358.31l-.77.67-.15.14-.13.11-.14.13-.07.15.11,0,.29-.24a.66.66,0,0,1,.26-.15.36.36,0,0,1,.21.13l2.05,2.31-4.6-.6c-.19.18-.44.42-.76.7l-.35.31a2.22,2.22,0,0,0-.29.24l0,.13.15,0a1.66,1.66,0,0,1,.62-.37.65.65,0,0,1,.55.17,4.75,4.75,0,0,1,.41.43l2.13,2.38a1.94,1.94,0,0,1,.34.45c0,.07-.09.22-.3.43s-.26.28-.23.31l.14,0,.15-.14c.23-.23.43-.41.58-.55l.49-.42.11-.08,0-.13,0,0a.74.74,0,0,0-.26.19,1.6,1.6,0,0,1-.36.24L179,365l-1.62-1.8-.17-.2-.34-.38-.39-.43c1.43.2,2.72.37,3.87.49a9.49,9.49,0,0,0,1.8.13l0-.14-.88-1L179.67,360l-.6-.67c-.21-.22-.31-.35-.31-.39s0-.13.13-.24l.33-.32v-.08Z"/><path class="cls-4" d="M185.76,358s0,.12,0,.28a1.63,1.63,0,0,1-.49,2.11,1.16,1.16,0,0,1-1,.22,2.94,2.94,0,0,1-1.75-1.38,4.47,4.47,0,0,1-.73-1.54,1.35,1.35,0,0,1,.47-1.57,1.47,1.47,0,0,1,2,.34c.15.14.25.2.29.17v-.16l-.1-.14-.21-.3-.19-.26a4.52,4.52,0,0,1-.33-.57l0-.06-.06,0a.57.57,0,0,0,0,.17.5.5,0,0,1-.19.32,1.06,1.06,0,0,1-.39.1,2.31,2.31,0,0,0-1,.39,2.86,2.86,0,0,0-1.25,1.83,2.77,2.77,0,0,0,2.37,3.26,2.91,2.91,0,0,0,2.07-.51,2.25,2.25,0,0,0,.87-1.2,1,1,0,0,1,.54.07h.12v-.09l-.08-.11a3.58,3.58,0,0,1-.23-.31c-.07-.1-.16-.26-.27-.46s-.23-.4-.25-.42l-.07-.12Z"/><path class="cls-4" d="M192.16,356.49a.58.58,0,0,1-.35.09,6,6,0,0,1-.71-.26l-1.93-.77c-.64-.26-1-.42-1.18-.49q.34-1.21.72-2.25a.82.82,0,0,1,.16-.3,1.41,1.41,0,0,1,.37-.23l.09-.14h-.14l-.79.4-.13.07-.06,0-.34.18c-.13.06-.18.11-.15.16h.14l.39-.19.1,0a2.15,2.15,0,0,1-.17,1c-.38,1.22-.61,1.91-.69,2.08l-.94-1.82c-.08-.14-.1-.23-.07-.28a1.19,1.19,0,0,1,.33-.24c.12-.06.17-.11.15-.14l-.12,0-.19.1-.31.16-.47.27-.15.08-.09,0-.94.46-.08.12s.11,0,.26-.05a.89.89,0,0,1,.35-.13l.12.1,2.06,4c.08.16.12.27.1.33s-.12.13-.29.23-.24.16-.22.2h.16l.1-.06.33-.17.23-.12,1-.51.48-.25c.09-.05.13-.09.11-.14s-.1,0-.23,0-.36.15-.42.13-.14-.13-.25-.34l-.9-1.74.22.07,1.86.83a6.13,6.13,0,0,1,.7.34l-.08.13-.27.16v.07s.09,0,.2,0l.34-.18.43-.22.48-.25.71-.37c.19-.1.28-.17.25-.21S192.33,356.41,192.16,356.49Z"/><path class="cls-4" d="M200.62,353.78a1.63,1.63,0,0,1-.48.1c-.11,0-.19-.08-.24-.26l-.6-2.09-.54-1.88-.07-.26a.33.33,0,0,1,0-.33,1.07,1.07,0,0,1,.46-.19l.19-.06.08-.09s-.08-.05-.19,0l-.38.11-.22.06-.14,0-1.1.31-.18,0-.13,3.77q-.88-1.23-2.19-3.09l-.09,0-1.57.45-.22.06c-.1,0-.14.06-.12.11l.15,0c.34-.1.55-.13.62-.07a1.67,1.67,0,0,1,.28.67l1,3.58a1.66,1.66,0,0,1,.09.38c0,.1-.09.19-.25.26l-.4.12c-.09,0-.14.06-.12.1s.07.05.19,0l.44-.15a4.3,4.3,0,0,1,.44-.14l.75-.18.11-.09c0-.06-.13-.06-.32,0a.72.72,0,0,1-.45,0l-.11-.09a3.14,3.14,0,0,1-.12-.4l-1.11-3.88,1.86,2.6.95,1.28c.09.13.16.18.22.16s.09-.17.1-.48l.07-2.49c0-1,.08-1.71.14-2.18l1.16,4.06a1.76,1.76,0,0,1,.1.46c0,.1-.17.18-.43.25l-.28.08-.1.1.14,0,.21-.06.76-.22.38-.11.69-.2.64-.18.06,0c.11,0,.16-.07.14-.12S200.82,353.72,200.62,353.78Z"/><path class="cls-4" d="M205.16,347.82l-.21,0-.26,0-.15,0-.37,0-.38,0-.11.07c0,.06.11.08.31.05a.92.92,0,0,1,.34,0,.27.27,0,0,1,.17.24l0,.14,0,.17.37,2.54a2.47,2.47,0,0,1-.12,1.52,1.06,1.06,0,0,1-.81.46,1.2,1.2,0,0,1-.87-.16,1.11,1.11,0,0,1-.42-.68,8,8,0,0,1-.14-.79l-.42-2.88v-.17q0-.12.39-.18c.17,0,.26-.06.25-.11s-.06-.07-.15-.05l-.18,0-.38.06-1.11.16-.53.08h-.2c-.1,0-.15.05-.14.1l.1,0a1.65,1.65,0,0,1,.55,0c.06,0,.11.12.13.29l.43,2.95a2,2,0,0,0,.62,1.39,2.1,2.1,0,0,0,1.62.33c1.29-.19,1.84-.89,1.67-2.11l-.48-3.27,0-.14c0-.07.18-.13.42-.17s.29-.07.28-.11S205.33,347.79,205.16,347.82Z"/><path class="cls-4" d="M210.69,351.52l-.08.13a2.46,2.46,0,0,1-.17.65,1,1,0,0,1-.73.52,8.28,8.28,0,0,1-1.25.1h-.37c-.06-1.31-.1-2.16-.11-2.54l-.06-1.85a1.51,1.51,0,0,1,0-.61c0-.05.16-.08.37-.09s.23,0,.22-.07l-.08-.06h-.1l-2.19.07H206l-.12.06.1.06h.21a.41.41,0,0,1,.33.1.55.55,0,0,1,.06.33l.13,4.2c0,.21,0,.34-.06.38a1,1,0,0,1-.55.13l-.12.07s.13.06.38.05h.36c1.93-.06,3.27-.09,4-.09l0-.55a3.51,3.51,0,0,1,0-.55v-.25C210.75,351.58,210.73,351.52,210.69,351.52Z"/><path class="cls-4" d="M215.56,351.89l-.09.11a2.6,2.6,0,0,1-.24.63.94.94,0,0,1-.78.44,8.12,8.12,0,0,1-1.25,0l-.37,0c.07-1.32.13-2.16.16-2.54l.14-1.85a1.69,1.69,0,0,1,.1-.6c0-.05.17-.06.38,0s.23,0,.23-.06l-.08-.07h-.09l-2.19-.17h-.14l-.12,0,.09.06.22,0a.38.38,0,0,1,.31.13.66.66,0,0,1,0,.33l-.33,4.2c0,.21,0,.33-.1.36a.93.93,0,0,1-.57.07l-.12.06s.12.07.37.09l.37,0c1.92.15,3.25.27,4,.35l0-.55a3.42,3.42,0,0,1,.07-.55,1.69,1.69,0,0,0,0-.25C215.61,352,215.6,351.89,215.56,351.89Z"/><path class="cls-4" d="M220.47,352.81l-.1.1a4.54,4.54,0,0,1-.3.62,1,1,0,0,1-.36.27,1.17,1.17,0,0,1-.52.07c-.14,0-.53-.07-1.15-.18l-.55-.1L218,351l.58.11a1.14,1.14,0,0,1,.66.27,1.23,1.23,0,0,1,.11.72v.26l.07.05.1-.08v-.12c0-.22.09-.56.18-1a3.22,3.22,0,0,1,.08-.39c.07-.28.11-.47.13-.56s0-.14-.05-.15-.12.07-.18.25c-.12.34-.28.54-.45.59a3.2,3.2,0,0,1-1.21-.1l.43-2.26c.39.06.67.1.82.14a2.25,2.25,0,0,1,1.13.46,1.07,1.07,0,0,1,.33.86c0,.13,0,.21.07.22l.1-.06c0-.06,0-.23.05-.5l.08-.85-.46-.06-.58-.11c-.66-.14-1.51-.3-2.56-.48l-.65-.11c-.15,0-.24,0-.25,0s.08.08.25.12a.78.78,0,0,1,.31.1l0,.19s0,.2-.09.5l-.74,3.87-.06.22c0,.12-.2.16-.47.12l-.26,0,0,0s0,.07.14.09l.72.13c1.12.19,2.43.46,3.91.81l0-.15c0-.11.06-.29.12-.53l.14-.71Z"/><path class="cls-4" d="M224.24,352.13a1.32,1.32,0,0,1-1,0l.39-1.23a4,4,0,0,1,.3-.79q.12-.15.39-.06c.56.18.74.59.53,1.22A1.4,1.4,0,0,1,224.24,352.13Zm1.32,3.21c-.16,0-.27,0-.31.12l.05.18.07.11-.15,0a.4.4,0,0,1-.23-.26,1.84,1.84,0,0,1,.06-.9,1.93,1.93,0,0,0-.1-1.36,2.12,2.12,0,0,0-1.17-.84l0-.05a4.49,4.49,0,0,0,1.15.12,1.16,1.16,0,0,0,1.15-.79,1,1,0,0,0,0-.63,1.24,1.24,0,0,0-.41-.56,5.59,5.59,0,0,0-1.52-.66l-.48-.15-.29-.1-.18,0-.27-.09-.29-.09-.14-.05-.4-.11-.1,0s0,.08.16.12a1.21,1.21,0,0,1,.36.17l.07.14a2.26,2.26,0,0,1-.13.46L221.25,354a.84.84,0,0,1-.12.3c-.06.06-.18.07-.37,0s-.35-.08-.36,0l.1.09.38.12.11,0,.19.06.6.19.28.09.13,0,.8.26.12,0c0-.05-.05-.09-.18-.13a1.28,1.28,0,0,1-.42-.19l-.06-.21s.07-.24.19-.64l.54-1.68a1,1,0,0,1,.63.44,1.54,1.54,0,0,1,0,.91l-.11.64a1.28,1.28,0,0,0,.18.84,1.77,1.77,0,0,0,1.07.81c.4.13.65.06.74-.22A.24.24,0,0,0,225.56,355.34Z"/><path class="cls-1" d="M116,328.76l116-46s35.15,37.64,55.5,88.5c20,50,20,97,20,97l-117,46s-35-38-54-87C121,387.43,116,328.76,116,328.76Z"/><path class="cls-1" d="M113.47,327l119-47.2s36.07,38.62,56.94,90.8c20.52,51.29,20.52,99.51,20.52,99.51l-120,47.19s-35.9-39-55.4-89.25C118.66,387.15,113.47,327,113.47,327Z"/><path class="cls-1" d="M119.46,331.31,231.21,287s33.87,36.26,53.48,85.26C304,420.43,304,465.72,304,465.72L191.23,510s-33.72-36.61-52-83.82C124.33,387.84,119.46,331.31,119.46,331.31Z"/><polygon class="cls-1" points="103.45 287.26 113.45 310.26 220.46 267.26 213.46 245.26 215.46 244.26 224.46 268.26 113.45 314.26 101.45 288.26 103.45 287.26"/><polygon class="cls-1" points="209.46 553.26 207.46 554.26 197.46 529.26 311.45 482.26 320.45 508.26 317.45 509.26 309.45 486.26 200.46 530.26 209.46 553.26"/><path class="cls-1" d="M101.46,288.26c-7,4-18.19,58.94,7.81,130.94,33.43,92.58,89.19,139.06,98.19,135.06"/><path class="cls-1" d="M215.46,244.26c4-2,50,23,87,112s27,149,18,152"/><path class="cls-1" d="M298.84,347.83c-.29-8,2.62-11.57,2.62-11.57l11-4s8,3,14,16,4,28,4,28l-12,5s-6.33-2.89-8.67-5.94"/><line class="cls-1" x1="312.46" y1="332.26" x2="330.46" y2="376.26"/><line class="cls-1" x1="301.46" y1="336.26" x2="318.46" y2="381.26"/><line class="cls-1" x1="302.46" y1="339.26" x2="314.46" y2="335.26"/><line class="cls-1" x1="303.46" y1="343.26" x2="315.46" y2="339.26"/><line class="cls-1" x1="305.46" y1="347.26" x2="317.46" y2="343.26"/><line class="cls-1" x1="306.46" y1="351.26" x2="318.46" y2="347.26"/><line class="cls-1" x1="308.46" y1="355.26" x2="320.46" y2="351.26"/><line class="cls-1" x1="310.46" y1="361.26" x2="322.46" y2="357.26"/><line class="cls-1" x1="312.46" y1="367.26" x2="324.46" y2="363.26"/><line class="cls-1" x1="315.46" y1="372.26" x2="327.46" y2="368.26"/><line class="cls-1" x1="317.46" y1="377.26" x2="329.46" y2="373.26"/><polygon class="cls-1" points="182.25 294.51 181.42 298.28 178.52 300.84 174.67 301.21 171.34 299.25 169.8 295.7 170.64 291.93 173.54 289.37 177.38 289 180.72 290.96 182.25 294.51"/><polygon class="cls-1" points="171.13 299.25 170.29 303.02 167.4 305.57 163.56 305.94 160.24 303.98 158.7 300.44 159.54 296.67 162.43 294.12 166.27 293.75 169.59 295.71 171.13 299.25"/><polygon class="cls-1" points="158.98 304.16 158.15 307.86 155.31 310.37 151.54 310.73 148.28 308.81 146.77 305.33 147.59 301.63 150.43 299.12 154.2 298.76 157.47 300.68 158.98 304.16"/><polygon class="cls-1" points="147.36 309.04 146.39 312.57 143.52 314.86 139.85 315.02 136.79 313 135.5 309.56 136.48 306.03 139.35 303.74 143.01 303.58 146.07 305.6 147.36 309.04"/><polygon class="cls-1" points="136.22 313.4 135.24 316.92 132.37 319.2 128.71 319.37 125.65 317.36 124.37 313.94 125.35 310.42 128.22 308.14 131.88 307.97 134.94 309.98 136.22 313.4"/><polygon class="cls-1" points="125.06 317.97 124.06 321.45 121.19 323.72 117.53 323.9 114.49 321.94 113.23 318.57 114.23 315.1 117.11 312.83 120.76 312.65 123.8 314.61 125.06 317.97"/><polygon class="cls-1" points="194.25 289.52 193.41 293.29 190.52 295.84 186.68 296.21 183.36 294.25 181.82 290.71 182.66 286.94 185.55 284.39 189.39 284.02 192.71 285.98 194.25 289.52"/><polygon class="cls-1" points="206.21 285.3 205.37 289.1 202.45 291.68 198.57 292.05 195.22 290.07 193.67 286.5 194.51 282.7 197.43 280.12 201.3 279.75 204.66 281.72 206.21 285.3"/><polygon class="cls-1" points="218.34 280.37 217.48 284.23 214.52 286.84 210.59 287.22 207.19 285.21 205.61 281.59 206.47 277.73 209.43 275.12 213.36 274.74 216.76 276.75 218.34 280.37"/><polygon class="cls-1" points="230.34 275.37 229.48 279.23 226.52 281.84 222.59 282.22 219.19 280.21 217.61 276.59 218.47 272.73 221.43 270.12 225.36 269.74 228.76 271.75 230.34 275.37"/><polygon class="cls-1" points="261.73 497.19 260.77 500.9 257.74 503.48 253.79 503.94 250.43 502.1 248.94 498.67 249.89 494.97 252.92 492.39 256.88 491.93 260.24 493.77 261.73 497.19"/><polygon class="cls-1" points="250.57 502.25 249.62 505.95 246.59 508.53 242.64 508.99 239.28 507.15 237.79 503.73 238.74 500.02 241.77 497.44 245.72 496.99 249.09 498.82 250.57 502.25"/><polygon class="cls-1" points="238.38 507.23 237.46 511.01 234.44 513.61 230.47 514.04 227.08 512.13 225.56 508.62 226.48 504.85 229.5 502.25 233.46 501.81 236.85 503.72 238.38 507.23"/><polygon class="cls-1" points="226.16 512.38 225.25 516.16 222.37 518.55 218.63 518.64 215.45 516.39 214.05 512.67 214.97 508.89 217.84 506.49 221.59 506.4 224.76 508.65 226.16 512.38"/><polygon class="cls-1" points="215.12 516.71 214.13 520.29 211.22 522.61 207.51 522.77 204.41 520.72 203.1 517.24 204.09 513.66 207 511.35 210.71 511.18 213.81 513.23 215.12 516.71"/><polygon class="cls-1" points="203.83 521.38 202.94 525.25 200.08 527.67 196.32 527.73 193.11 525.39 191.68 521.57 192.56 517.7 195.43 515.28 199.18 515.22 202.39 517.55 203.83 521.38"/><polygon class="cls-1" points="274.57 492.29 273.58 496.19 270.41 498.89 266.28 499.36 262.75 497.42 261.18 493.81 262.17 489.9 265.33 487.2 269.47 486.73 273 488.68 274.57 492.29"/><polygon class="cls-1" points="286.06 488.12 285.12 491.84 282.09 494.43 278.13 494.88 274.76 493.03 273.27 489.58 274.21 485.86 277.24 483.27 281.2 482.82 284.57 484.68 286.06 488.12"/><polygon class="cls-1" points="298.22 483.05 297.27 486.77 294.25 489.36 290.29 489.81 286.92 487.95 285.42 484.5 286.36 480.77 289.39 478.19 293.35 477.74 296.72 479.59 298.22 483.05"/><polygon class="cls-1" points="309.89 478.07 308.95 481.57 306.02 484.02 302.24 484.48 299.03 482.78 297.64 479.57 298.58 476.07 301.5 473.62 305.29 473.15 308.5 474.85 309.89 478.07"/><polygon class="cls-1" points="233.71 262.45 234.83 265.95 233.72 269.03 230.81 270.51 227.19 269.84 224.27 267.26 223.14 263.76 224.25 260.68 227.17 259.19 230.78 259.87 233.71 262.45"/><polygon class="cls-1" points="236.72 256.9 237.82 259.43 237.29 261.47 235.33 262.25 232.69 261.47 230.38 259.43 229.27 256.91 229.8 254.87 231.76 254.09 234.4 254.87 236.72 256.9"/><polygon class="cls-1" points="244.65 264.19 245.49 266.99 244.59 269.26 242.31 270.16 239.52 269.33 237.28 267.09 236.45 264.3 237.34 262.02 239.62 261.12 242.41 261.95 244.65 264.19"/><polygon class="cls-1" points="252.25 272.59 253.24 275.88 252.21 278.55 249.53 279.59 246.25 278.59 243.6 275.94 242.6 272.66 243.64 269.98 246.31 268.95 249.6 269.94 252.25 272.59"/><polygon class="cls-1" points="259.97 282.22 260.52 285.44 259.19 287.95 256.48 288.78 253.42 287.61 251.18 284.9 250.62 281.67 251.96 279.16 254.67 278.33 257.73 279.5 259.97 282.22"/><polygon class="cls-1" points="265.84 290.94 266.51 294.03 265.38 296.35 262.89 297.01 259.99 295.76 257.78 293.07 257.11 289.98 258.23 287.66 260.72 287 263.63 288.26 265.84 290.94"/><polygon class="cls-1" points="272.71 300.31 272.91 303.45 271.53 305.46 269.1 305.56 266.55 303.71 264.85 300.63 264.65 297.48 266.03 295.48 268.46 295.38 271.01 297.23 272.71 300.31"/><polygon class="cls-1" points="278.58 309.65 278.84 312.74 277.52 314.74 275.13 314.88 272.59 313.11 270.85 310.11 270.6 307.02 271.92 305.02 274.31 304.88 276.85 306.65 278.58 309.65"/><polygon class="cls-1" points="284.1 318.13 284.15 320.95 282.75 322.81 280.43 323 278.08 321.45 276.59 318.75 276.54 315.94 277.94 314.07 280.26 313.88 282.61 315.43 284.1 318.13"/><polygon class="cls-1" points="301.12 353.35 300.81 355.71 299.28 357.25 297.11 357.4 295.13 356.1 294.09 353.83 294.39 351.48 295.93 349.93 298.1 349.78 300.08 351.09 301.12 353.35"/><polygon class="cls-1" points="297.48 345.55 296.9 348.47 294.96 350.14 292.41 349.94 290.22 347.93 289.22 344.89 289.8 341.98 291.74 340.3 294.29 340.51 296.48 342.51 297.48 345.55"/><polygon class="cls-1" points="292.59 335.39 292.37 338.13 290.77 339.87 288.41 339.94 286.19 338.32 284.96 335.63 285.19 332.9 286.78 331.16 289.14 331.09 291.36 332.7 292.59 335.39"/><polygon class="cls-1" points="288.58 326.89 288.23 329.62 286.45 331.42 283.94 331.59 281.64 330.08 280.44 327.45 280.79 324.72 282.57 322.93 285.08 322.76 287.38 324.27 288.58 326.89"/><polygon class="cls-1" points="304.17 361.17 303.53 363.29 301.89 364.48 299.88 364.29 298.26 362.79 297.65 360.56 298.28 358.44 299.92 357.25 301.94 357.44 303.56 358.94 304.17 361.17"/><polygon class="cls-1" points="307.72 369.38 307.38 371.98 305.69 373.69 303.3 373.85 301.11 372.41 299.97 369.92 300.3 367.32 301.99 365.61 304.39 365.45 306.57 366.89 307.72 369.38"/><polygon class="cls-1" points="313.7 387.24 312.86 389.76 310.94 391.04 308.69 390.57 306.97 388.56 306.42 385.75 307.26 383.23 309.17 381.96 311.42 382.42 313.15 384.44 313.7 387.24"/><polygon class="cls-1" points="310.88 378.52 310.04 381.04 308.13 382.31 305.88 381.85 304.15 379.83 303.6 377.03 304.44 374.51 306.35 373.24 308.6 373.7 310.33 375.72 310.88 378.52"/><polygon class="cls-1" points="316.53 396.1 316.08 398.69 314.59 400.04 312.62 399.64 310.92 397.63 310.15 394.8 310.59 392.21 312.08 390.86 314.05 391.26 315.75 393.26 316.53 396.1"/><polygon class="cls-1" points="321.24 416.96 320.73 419.88 319.1 421.36 316.95 420.84 315.12 418.51 314.29 415.26 314.8 412.34 316.44 410.86 318.58 411.38 320.42 413.71 321.24 416.96"/><polygon class="cls-1" points="319.28 406.18 318.78 409.11 317.14 410.59 314.99 410.06 313.16 407.73 312.34 404.49 312.84 401.57 314.48 400.09 316.62 400.61 318.46 402.94 319.28 406.18"/><polygon class="cls-1" points="323.75 427.73 322.76 430.61 320.68 431.96 318.3 431.25 316.54 428.77 316.06 425.46 317.05 422.58 319.13 421.24 321.51 421.94 323.27 424.42 323.75 427.73"/><polygon class="cls-1" points="326.02 439.3 325.03 442.36 322.89 443.8 320.41 443.06 318.55 440.44 318.02 436.94 319.01 433.88 321.15 432.44 323.63 433.17 325.49 435.79 326.02 439.3"/><polygon class="cls-1" points="326.94 451.12 325.94 454.17 323.8 455.61 321.32 454.88 319.46 452.26 318.93 448.75 319.92 445.69 322.06 444.25 324.54 444.99 326.4 447.61 326.94 451.12"/><polygon class="cls-1" points="328.22 463.7 326.73 466.64 324.14 467.86 321.45 466.89 319.68 464.1 319.52 460.55 321.01 457.61 323.6 456.39 326.29 457.36 328.05 460.15 328.22 463.7"/><polygon class="cls-1" points="328.55 475.78 326.77 478.43 324.14 479.29 321.68 478.03 320.32 475.14 320.58 471.73 322.37 469.08 325 468.22 327.46 469.48 328.82 472.36 328.55 475.78"/><polygon class="cls-1" points="328.18 484.9 326.91 486.89 325.06 487.54 323.33 486.61 322.39 484.45 322.59 481.89 323.85 479.9 325.7 479.25 327.43 480.18 328.38 482.34 328.18 484.9"/><polygon class="cls-1" points="228.74 251.77 229.59 254.85 228.49 257.7 225.84 259.25 222.67 258.89 220.17 256.76 219.31 253.68 220.42 250.83 223.07 249.28 226.24 249.64 228.74 251.77"/><polygon class="cls-1" points="241.72 272.5 242.31 276.17 240.67 279.26 237.43 280.6 233.84 279.67 231.25 276.82 230.67 273.15 232.31 270.06 235.54 268.72 239.14 269.65 241.72 272.5"/><polygon class="cls-1" points="249.75 282.31 250.35 286.08 248.67 289.26 245.34 290.63 241.65 289.68 238.99 286.75 238.39 282.98 240.07 279.8 243.4 278.43 247.1 279.38 249.75 282.31"/><polygon class="cls-1" points="257.41 292.18 257.3 295.68 255.13 298.49 251.74 299.55 248.42 298.44 246.44 295.6 246.55 292.1 248.72 289.29 252.11 288.23 255.43 289.34 257.41 292.18"/><polygon class="cls-1" points="264.72 301.62 264.72 305.29 262.6 308.17 259.16 309.16 255.72 307.88 253.6 304.83 253.6 301.16 255.72 298.29 259.16 297.29 262.59 298.57 264.72 301.62"/><polygon class="cls-1" points="271.76 311.79 271.66 315.45 269.45 318.27 265.99 319.15 262.59 317.78 260.55 314.66 260.66 311 262.87 308.19 266.33 307.3 269.73 308.67 271.76 311.79"/><polygon class="cls-1" points="277.35 321.48 277.14 324.91 274.92 327.61 271.55 328.55 268.32 327.37 266.46 324.52 266.68 321.08 268.89 318.38 272.26 317.44 275.49 318.62 277.35 321.48"/><polygon class="cls-1" points="282.49 332.17 282.2 335.6 279.99 338.12 276.7 338.77 273.59 337.31 271.84 334.29 272.13 330.86 274.34 328.34 277.63 327.68 280.75 329.15 282.49 332.17"/><polygon class="cls-1" points="288.9 342.41 288.38 346.05 285.87 348.6 282.33 349.1 279.1 347.35 277.43 344.02 277.94 340.39 280.45 337.84 284 337.34 287.22 339.09 288.9 342.41"/><polygon class="cls-1" points="293.88 353.86 293.02 357.34 290.33 359.58 286.83 359.72 283.86 357.69 282.55 354.29 283.41 350.8 286.11 348.56 289.61 348.43 292.58 350.45 293.88 353.86"/><polygon class="cls-1" points="298.94 365 298.06 368.56 295.31 370.85 291.74 370.99 288.71 368.92 287.38 365.45 288.25 361.89 291.01 359.6 294.58 359.47 297.61 361.53 298.94 365"/><polygon class="cls-1" points="302.8 375.97 301.96 379.38 299.33 381.57 295.91 381.7 293.01 379.72 291.73 376.4 292.57 372.99 295.21 370.8 298.63 370.67 301.53 372.65 302.8 375.97"/><polygon class="cls-1" points="306.66 387.51 305.44 390.88 302.53 392.82 299.04 392.59 296.3 390.27 295.36 386.76 296.58 383.38 299.49 381.44 302.98 381.67 305.72 383.99 306.66 387.51"/><polygon class="cls-1" points="310.93 398.61 309.69 402.06 306.71 404.04 303.14 403.81 300.35 401.44 299.38 397.84 300.63 394.39 303.61 392.41 307.17 392.65 309.97 395.01 310.93 398.61"/><polygon class="cls-1" points="313.9 411.17 312.39 414.54 309.27 416.3 305.73 415.76 303.12 413.14 302.44 409.43 303.95 406.06 307.08 404.3 310.62 404.84 313.22 407.46 313.9 411.17"/><polygon class="cls-1" points="315.9 423.17 314.39 426.54 311.27 428.3 307.73 427.76 305.12 425.14 304.44 421.43 305.95 418.06 309.08 416.3 312.62 416.84 315.22 419.46 315.9 423.17"/><polygon class="cls-1" points="317.9 435.17 316.39 438.54 313.27 440.3 309.73 439.76 307.12 437.14 306.44 433.43 307.95 430.06 311.08 428.3 314.62 428.84 317.22 431.46 317.9 435.17"/><polygon class="cls-1" points="319.9 447.17 318.39 450.54 315.27 452.3 311.73 451.76 309.12 449.14 308.44 445.43 309.95 442.06 313.08 440.3 316.62 440.84 319.22 443.46 319.9 447.17"/><polygon class="cls-1" points="319.84 459.36 318.53 462.7 315.74 464.4 312.53 463.8 310.12 461.14 309.44 457.43 310.75 454.1 313.55 452.4 316.76 453 319.16 455.66 319.84 459.36"/><polygon class="cls-1" points="320.93 471.31 319.47 474.57 316.46 476.26 313.04 475.75 310.53 473.22 309.87 469.64 311.33 466.38 314.34 464.69 317.76 465.21 320.27 467.74 320.93 471.31"/><polygon class="cls-1" points="320.31 485.99 317.13 487.54 314.1 486.91 312.35 484.35 312.57 480.83 314.66 477.69 317.83 476.14 320.87 476.77 322.61 479.33 322.4 482.86 320.31 485.99"/><polygon class="cls-1" points="323.56 495.1 320.68 496.41 317.87 495.76 316.19 493.41 316.29 490.25 318.13 487.49 321 486.19 323.82 486.84 325.5 489.19 325.4 492.35 323.56 495.1"/><polygon class="cls-1" points="323.6 502.54 321.64 503.43 319.71 502.99 318.57 501.38 318.63 499.23 319.89 497.35 321.86 496.45 323.78 496.9 324.93 498.5 324.86 500.66 323.6 502.54"/><polygon class="cls-1" points="191.85 520.2 191.9 523.83 189.84 526.7 186.45 527.71 183.03 526.47 180.88 523.46 180.83 519.82 182.9 516.95 186.29 515.94 189.71 517.18 191.85 520.2"/><polygon class="cls-1" points="196.99 529.37 197.65 532.29 196.48 534.97 193.91 536.37 190.94 535.96 188.7 533.91 188.03 530.98 189.21 528.31 191.77 526.91 194.74 527.31 196.99 529.37"/><polygon class="cls-1" points="183.69 510.97 183.86 514.77 181.84 517.7 178.4 518.65 174.86 517.24 172.57 514.02 172.41 510.22 174.43 507.29 177.86 506.34 181.4 507.75 183.69 510.97"/><polygon class="cls-1" points="175.62 500.68 176.04 504.44 174.25 507.45 170.92 508.56 167.33 507.35 164.85 504.27 164.43 500.51 166.22 497.5 169.55 496.39 173.14 497.6 175.62 500.68"/><polygon class="cls-1" points="168.85 491.2 168.9 494.83 166.84 497.7 163.45 498.71 160.03 497.47 157.88 494.46 157.83 490.82 159.9 487.95 163.29 486.94 166.71 488.18 168.85 491.2"/><polygon class="cls-1" points="162.04 481.64 161.88 485.13 159.71 487.81 156.37 488.65 153.14 487.33 151.24 484.36 151.4 480.87 153.56 478.19 156.9 477.36 160.14 478.67 162.04 481.64"/><polygon class="cls-1" points="156.04 471.64 155.88 475.13 153.71 477.81 150.37 478.65 147.14 477.33 145.24 474.36 145.4 470.87 147.56 468.19 150.9 467.36 154.14 468.67 156.04 471.64"/><polygon class="cls-1" points="150.09 461.89 149.77 465.37 147.49 467.94 144.12 468.63 140.95 467.17 139.18 464.12 139.5 460.64 141.78 458.06 145.16 457.37 148.33 458.83 150.09 461.89"/><polygon class="cls-1" points="145.09 451.89 144.77 455.37 142.49 457.94 139.12 458.63 135.95 457.17 134.18 454.12 134.5 450.64 136.78 448.06 140.16 447.37 143.33 448.83 145.09 451.89"/><polygon class="cls-1" points="140.01 441.75 139.84 445.28 137.72 447.81 134.47 448.38 131.32 446.76 129.49 443.58 129.66 440.05 131.78 437.52 135.03 436.95 138.18 438.57 140.01 441.75"/><polygon class="cls-1" points="135.09 431.2 134.48 434.77 131.93 437.25 128.39 437.68 125.23 435.89 123.65 432.58 124.25 429 126.81 426.53 130.34 426.1 133.5 427.88 135.09 431.2"/><polygon class="cls-1" points="131.13 420.8 130.14 424.3 127.32 426.51 123.73 426.57 120.76 424.47 119.53 421.01 120.52 417.51 123.34 415.31 126.93 415.24 129.9 417.34 131.13 420.8"/><polygon class="cls-1" points="127.75 409.28 126.7 413.02 123.68 415.38 119.85 415.45 116.67 413.2 115.35 409.5 116.41 405.76 119.43 403.4 123.26 403.33 126.44 405.57 127.75 409.28"/><polygon class="cls-1" points="124.74 397.57 123.5 401.28 120.36 403.48 116.53 403.34 113.46 400.9 112.33 397.1 113.58 393.39 116.72 391.19 120.55 391.33 123.61 393.77 124.74 397.57"/><polygon class="cls-1" points="121.72 385.93 120.39 389.53 117.34 391.5 113.74 391.08 110.96 388.43 110.06 384.57 111.39 380.97 114.44 379.01 118.04 379.43 120.82 382.07 121.72 385.93"/><polygon class="cls-1" points="119.7 373.42 117.99 377.11 114.49 379.02 110.55 378.42 107.67 375.55 106.95 371.5 108.67 367.81 112.16 365.9 116.1 366.49 118.98 369.37 119.7 373.42"/><polygon class="cls-1" points="117.78 360.87 116.11 364.22 112.74 365.97 108.97 365.48 106.25 362.92 105.6 359.27 107.28 355.93 110.65 354.17 114.41 354.66 117.14 357.23 117.78 360.87"/><polygon class="cls-1" points="115.78 348.87 114.11 352.22 110.74 353.97 106.97 353.48 104.25 350.92 103.6 347.27 105.28 343.93 108.65 342.17 112.41 342.66 115.14 345.23 115.78 348.87"/><polygon class="cls-1" points="114.68 337.45 112.69 340.62 109.18 342.05 105.47 341.2 103 338.39 102.7 334.69 104.69 331.53 108.21 330.1 111.91 330.95 114.38 333.75 114.68 337.45"/><polygon class="cls-1" points="114.68 325.45 112.69 328.62 109.18 330.05 105.47 329.2 103 326.39 102.7 322.69 104.69 319.53 108.21 318.1 111.91 318.95 114.38 321.75 114.68 325.45"/><polygon class="cls-1" points="102.41 327.26 100.52 330.16 97.67 331.16 94.94 329.87 93.38 326.78 93.57 323.08 95.45 320.18 98.31 319.18 101.04 320.48 102.6 323.56 102.41 327.26"/><polygon class="cls-1" points="102.58 338.86 100.96 341.92 98.21 343.16 95.37 342.12 93.54 339.19 93.4 335.48 95.02 332.43 97.77 331.18 100.6 332.22 102.44 335.15 102.58 338.86"/><polygon class="cls-1" points="103.71 350.43 102.38 353.62 99.76 355.12 96.84 354.34 94.74 351.58 94.27 347.91 95.59 344.72 98.22 343.22 101.14 344 103.24 346.75 103.71 350.43"/><polygon class="cls-1" points="105.55 362.99 104.11 366.45 101.26 368.06 98.1 367.22 95.83 364.24 95.31 360.25 96.75 356.79 99.6 355.18 102.76 356.02 105.03 359 105.55 362.99"/><polygon class="cls-1" points="105.55 362.99 104.11 366.45 101.26 368.06 98.1 367.22 95.83 364.24 95.31 360.25 96.75 356.79 99.6 355.18 102.76 356.02 105.03 359 105.55 362.99"/><polygon class="cls-1" points="107.55 375.99 106.11 379.45 103.26 381.06 100.1 380.22 97.83 377.24 97.31 373.25 98.75 369.79 101.6 368.18 104.76 369.02 107.03 372 107.55 375.99"/><polygon class="cls-1" points="107.55 375.99 106.11 379.45 103.26 381.06 100.1 380.22 97.83 377.24 97.31 373.25 98.75 369.79 101.6 368.18 104.76 369.02 107.03 372 107.55 375.99"/><polygon class="cls-1" points="110.65 388.22 109.65 391.8 107.03 393.75 103.79 393.32 101.17 390.69 100.17 386.86 101.17 383.28 103.79 381.33 107.03 381.75 109.65 384.38 110.65 388.22"/><polygon class="cls-1" points="110.65 388.22 109.65 391.8 107.03 393.75 103.79 393.32 101.17 390.69 100.17 386.86 101.17 383.28 103.79 381.33 107.03 381.75 109.65 384.38 110.65 388.22"/><polygon class="cls-1" points="113.36 401.3 112.41 404.86 109.88 406.78 106.73 406.34 104.17 403.69 103.17 399.86 104.11 396.3 106.64 394.37 109.79 394.82 112.35 397.46 113.36 401.3"/><polygon class="cls-1" points="113.36 401.3 112.41 404.86 109.88 406.78 106.73 406.34 104.17 403.69 103.17 399.86 104.11 396.3 106.64 394.37 109.79 394.82 112.35 397.46 113.36 401.3"/><polygon class="cls-1" points="113.36 401.3 112.41 404.86 109.88 406.78 106.73 406.34 104.17 403.69 103.17 399.86 104.11 396.3 106.64 394.37 109.79 394.82 112.35 397.46 113.36 401.3"/><polygon class="cls-1" points="113.36 401.3 112.41 404.86 109.88 406.78 106.73 406.34 104.17 403.69 103.17 399.86 104.11 396.3 106.64 394.37 109.79 394.82 112.35 397.46 113.36 401.3"/><polygon class="cls-1" points="116.44 413.23 115.92 416.79 113.81 418.78 110.92 418.45 108.37 415.92 107.12 412.16 107.65 408.6 109.75 406.61 112.64 406.94 115.19 409.47 116.44 413.23"/><polygon class="cls-1" points="116.44 413.23 115.92 416.79 113.81 418.78 110.92 418.45 108.37 415.92 107.12 412.16 107.65 408.6 109.75 406.61 112.64 406.94 115.19 409.47 116.44 413.23"/><polygon class="cls-1" points="116.44 413.23 115.92 416.79 113.81 418.78 110.92 418.45 108.37 415.92 107.12 412.16 107.65 408.6 109.75 406.61 112.64 406.94 115.19 409.47 116.44 413.23"/><polygon class="cls-1" points="116.44 413.23 115.92 416.79 113.81 418.78 110.92 418.45 108.37 415.92 107.12 412.16 107.65 408.6 109.75 406.61 112.64 406.94 115.19 409.47 116.44 413.23"/><polygon class="cls-1" points="120.44 425.23 119.92 428.79 117.81 430.78 114.92 430.45 112.37 427.92 111.12 424.16 111.65 420.6 113.75 418.61 116.64 418.94 119.19 421.47 120.44 425.23"/><polygon class="cls-1" points="120.44 425.23 119.92 428.79 117.81 430.78 114.92 430.45 112.37 427.92 111.12 424.16 111.65 420.6 113.75 418.61 116.64 418.94 119.19 421.47 120.44 425.23"/><polygon class="cls-1" points="120.44 425.23 119.92 428.79 117.81 430.78 114.92 430.45 112.37 427.92 111.12 424.16 111.65 420.6 113.75 418.61 116.64 418.94 119.19 421.47 120.44 425.23"/><polygon class="cls-1" points="120.44 425.23 119.92 428.79 117.81 430.78 114.92 430.45 112.37 427.92 111.12 424.16 111.65 420.6 113.75 418.61 116.64 418.94 119.19 421.47 120.44 425.23"/><polygon class="cls-1" points="120.44 425.23 119.92 428.79 117.81 430.78 114.92 430.45 112.37 427.92 111.12 424.16 111.65 420.6 113.75 418.61 116.64 418.94 119.19 421.47 120.44 425.23"/><polygon class="cls-1" points="120.44 425.23 119.92 428.79 117.81 430.78 114.92 430.45 112.37 427.92 111.12 424.16 111.65 420.6 113.75 418.61 116.64 418.94 119.19 421.47 120.44 425.23"/><polygon class="cls-1" points="120.44 425.23 119.92 428.79 117.81 430.78 114.92 430.45 112.37 427.92 111.12 424.16 111.65 420.6 113.75 418.61 116.64 418.94 119.19 421.47 120.44 425.23"/><polygon class="cls-1" points="125.39 436.06 124.83 439.54 122.72 441.51 119.84 441.2 117.31 438.74 116.09 435.06 116.64 431.58 118.75 429.61 121.63 429.92 124.16 432.38 125.39 436.06"/><polygon class="cls-1" points="130.41 446.78 130.06 450.3 128.06 452.38 125.18 452.25 122.5 449.94 121.06 446.34 121.41 442.82 123.41 440.74 126.29 440.87 128.97 443.18 130.41 446.78"/><polygon class="cls-1" points="135.41 457.56 135.24 461.08 133.34 463.26 130.45 463.27 127.67 461.09 126.06 457.56 126.23 454.04 128.13 451.86 131.02 451.85 133.8 454.03 135.41 457.56"/><polygon class="cls-1" points="141.06 467.8 140.75 471.03 138.81 473.1 135.97 473.22 133.32 471.33 131.88 468.16 132.19 464.93 134.13 462.86 136.97 462.74 139.62 464.63 141.06 467.8"/><polygon class="cls-1" points="146.99 477.79 146.83 481.31 144.84 483.67 141.76 483.94 138.79 482.05 137.04 478.69 137.2 475.17 139.19 472.81 142.27 472.53 145.24 474.43 146.99 477.79"/><polygon class="cls-1" points="153.07 487.95 152.85 491.36 150.84 493.67 147.79 493.99 144.87 492.2 143.2 488.99 143.42 485.58 145.44 483.27 148.49 482.95 151.4 484.74 153.07 487.95"/><polygon class="cls-1" points="159.17 496.71 159.2 499.95 157.4 502.39 154.45 503.1 151.47 501.8 149.62 499 149.58 495.75 151.38 493.31 154.34 492.61 157.31 493.9 159.17 496.71"/><polygon class="cls-1" points="165.77 505.74 165.85 509.12 164.02 511.64 160.99 512.34 157.91 510.95 155.96 508 155.88 504.62 157.7 502.1 160.74 501.4 163.82 502.79 165.77 505.74"/><polygon class="cls-1" points="172.77 514.74 172.85 518.12 171.02 520.64 167.99 521.34 164.91 519.95 162.96 517 162.88 513.62 164.7 511.1 167.74 510.4 170.82 511.79 172.77 514.74"/><polygon class="cls-1" points="180.45 521.79 181.09 525.19 179.63 528.2 176.62 529.66 173.21 529.02 170.71 526.52 170.07 523.12 171.53 520.11 174.54 518.65 177.95 519.29 180.45 521.79"/><polygon class="cls-1" points="187.71 530.52 188.5 533.79 187.26 536.57 184.48 537.8 181.21 537.02 178.71 534.52 177.93 531.26 179.17 528.48 181.95 527.24 185.21 528.02 187.71 530.52"/><polygon class="cls-1" points="195.61 538.31 196.55 541.53 195.45 544.37 192.73 545.74 189.43 545.11 186.81 542.74 185.87 539.52 186.97 536.68 189.69 535.31 192.99 535.93 195.61 538.31"/><polygon class="cls-1" points="203.71 544.91 204.49 547.78 203.45 550.35 200.99 551.64 198.05 551.14 195.76 549.06 194.98 546.19 196.02 543.62 198.48 542.34 201.42 542.83 203.71 544.91"/><polygon class="cls-1" points="112.61 313.29 111.95 316.17 109.69 318.16 106.7 318.49 104.12 317.03 102.93 314.35 103.6 311.46 105.85 309.47 108.84 309.14 111.42 310.6 112.61 313.29"/><polygon class="cls-1" points="102.4 316.25 100.52 318.24 97.79 318.77 95.25 317.64 93.87 315.27 94.18 312.57 96.06 310.57 98.79 310.04 101.33 311.18 102.71 313.55 102.4 316.25"/><polygon class="cls-1" points="108.87 304.86 108.37 307.54 106.5 309.25 103.96 309.35 101.72 307.8 100.65 305.18 101.15 302.51 103.03 300.8 105.57 300.7 107.8 302.25 108.87 304.86"/><polygon class="cls-1" points="104.13 299.64 102.24 301.24 99.89 301.39 97.97 300.02 97.22 297.65 97.92 295.2 99.81 293.59 102.17 293.44 104.08 294.82 104.83 297.18 104.13 299.64"/><polygon class="cls-1" points="100.7 308.14 99.38 309.85 97.59 310.3 96.01 309.33 95.26 307.31 95.61 305 96.94 303.3 98.73 302.85 100.31 303.82 101.06 305.84 100.7 308.14"/><path class="cls-2" d="M206,528.27c-3.49,5-.49,14,3.51,25s57,122,73,162,105,267,110,278"/><path class="cls-2" d="M303.05,488.85c12.19,1.66,22.41,53.41,26.41,62.41s48,146,63,178,89,237,103,262"/><path class="cls-2" d="M105.23,291.36c-7.25-21.1-42.77-122.1-52.77-146.1s-47-118-52-129"/><path class="cls-2" d="M213.46,245.26c-9-26-51-104-67-141s-35-82-35-82"/><path class="cls-2" d="M285.46,502.26c1.16,15.09,13,22,15,34s-16.3,21.72-22,27c-3,2.79-22.3-16.74-24.3-28.74S269.46,513.26,285.46,502.26Z"/><path class="cls-2" d="M235.87,516c10.27,5.5,20.74,36.61-3.2,49.2,0,0-28.26-12.58-27.21-25.72"/><path class="cls-2" d="M239.15,561.16c9.54-10.57,23.08-13.71,31.53-1.32s8.45,20-.48,34.24-21.3,2.92-27.88-7.6C236.91,577.82,233.49,567.44,239.15,561.16Z"/><path class="cls-2" d="M284.37,561.65c5.06-8.93,11-15.5,20.88-6.79s20.88,37.79,6.59,44.57-25.28,8.72-30.77-6.78S277.77,573.27,284.37,561.65Z"/><path class="cls-2" d="M262.39,601.1c10.47-8.36,18.32-2.11,25.91,1.68,10,5,17,12.12,4,28.12-7.35,9.05-18.87,16.36-25.87,6.36S251.33,609.94,262.39,601.1Z"/><path class="cls-2" d="M317.46,601.26c6.86-5,10-3,13,5s13.74,44.22,5,47c-6.34,2-25-4-29-18S306.46,609.26,317.46,601.26Z"/><path class="cls-2" d="M284.77,639.76c7.47-10.7,14.69-10.5,22.69-.5s18,29,4,42-26.46,7.25-29,2C279.35,676.87,268.56,663,284.77,639.76Z"/><path class="cls-2" d="M318.46,673.26c1.61-9.71,12-18.93,17-20,6.56-1.4,12,21.39,16,29,4.27,8.12,8,20-5,24S314.46,697.26,318.46,673.26Z"/><path class="cls-2" d="M292.46,700.26c-1.29-14.81,12-13,19-12s15.83,11,18,23c1.85,10.26-1.52,24.21-11,26C308.44,739.16,294.46,723.26,292.46,700.26Z"/><path class="cls-2" d="M329.29,728.21c-.22-12,7.17-21,17.17-22s17,9,20,18,4,26-9,31S329.72,752.25,329.29,728.21Z"/><path class="cls-2" d="M313.64,737c14.82.79,19.82,3.3,18.82,21.3s-8,24-8,24"/><path class="cls-2" d="M331.66,767.5c8.8-12.24,10.8-11.24,23.8-10.24s31,25.27,24.28,39.4C373.89,809,365.44,817,354.44,813s-28-30.61-23-46.69"/><path class="cls-2" d="M381.19,743.19c-11.67-2-24.08,7.71-12.34,21.31,13.61,15.76,21.61,34.76,31.61,34.76H402"/><path class="cls-2" d="M418.06,842.72c-.23,4.95-2.1,9.16-7.6,12.54-13,8-12,8-26,4S362.58,823,369,812.63c7-11.34,15.51-14.37,26.51-12.37,3.25.6,6.07,2.76,8.47,5.63"/><path class="cls-2" d="M340.46,817.26c7-5,18-9,25,9s7,27,10,33-14.11,19.64-14.11,19.64"/><rect class="cls-2" x="306.56" y="530.79" width="6" height="19" rx="3" ry="3" transform="translate(-168.02 140.72) rotate(-20.27)"/><rect class="cls-2" x="313.49" y="549.56" width="6" height="19" rx="3" ry="3" transform="translate(-174.09 144.28) rotate(-20.27)"/><rect class="cls-2" x="320.41" y="568.32" width="6" height="19" rx="3" ry="3" transform="translate(-180.16 147.84) rotate(-20.27)"/><rect class="cls-2" x="327.34" y="587.08" width="6" height="19" rx="3" ry="3" transform="translate(-186.23 151.4) rotate(-20.27)"/><rect class="cls-2" x="334.27" y="605.84" width="6" height="19" rx="3" ry="3" transform="translate(-192.31 154.97) rotate(-20.27)"/><rect class="cls-2" x="341.2" y="624.6" width="6" height="19" rx="3" ry="3" transform="translate(-198.38 158.53) rotate(-20.27)"/><rect class="cls-2" x="348.13" y="643.36" width="6" height="19" rx="3" ry="3" transform="translate(-204.45 162.09) rotate(-20.27)"/><rect class="cls-2" x="355.06" y="662.12" width="6" height="19" rx="3" ry="3" transform="translate(-210.52 165.66) rotate(-20.27)"/><rect class="cls-2" x="361.99" y="680.88" width="6" height="19" rx="3" ry="3" transform="translate(-216.59 169.22) rotate(-20.27)"/><rect class="cls-2" x="368.92" y="699.65" width="6" height="19" rx="3" ry="3" transform="translate(-222.66 172.78) rotate(-20.27)"/><rect class="cls-2" x="375.85" y="718.41" width="6" height="19" rx="3" ry="3" transform="translate(-228.73 176.34) rotate(-20.27)"/><rect class="cls-2" x="382.78" y="737.17" width="6" height="19" rx="3" ry="3" transform="translate(-234.8 179.91) rotate(-20.27)"/><rect class="cls-2" x="389.71" y="755.93" width="6" height="19" rx="3" ry="3" transform="translate(-240.87 183.47) rotate(-20.27)"/><rect class="cls-2" x="396.64" y="774.69" width="6" height="19" rx="3" ry="3" transform="translate(-246.94 187.03) rotate(-20.27)"/><rect class="cls-2" x="403.57" y="793.45" width="6" height="19" rx="3" ry="3" transform="translate(-253.01 190.59) rotate(-20.27)"/><rect class="cls-2" x="410.5" y="812.21" width="6" height="19" rx="3" ry="3" transform="translate(-259.09 194.16) rotate(-20.27)"/><rect class="cls-2" x="417.43" y="830.97" width="6" height="19" rx="3" ry="3" transform="translate(-265.16 197.72) rotate(-20.27)"/><rect class="cls-2" x="424.35" y="849.74" width="6" height="19" rx="3" ry="3" transform="translate(-271.23 201.28) rotate(-20.27)"/><rect class="cls-2" x="431.35" y="867.74" width="6" height="19" rx="3" ry="3" transform="matrix(0.94, -0.35, 0.35, 0.94, -277.03, 204.82)"/><rect class="cls-2" x="438.35" y="884.74" width="6" height="19" rx="3" ry="3" transform="translate(-282.49 208.3) rotate(-20.27)"/><rect class="cls-2" x="446.35" y="902.74" width="6" height="19" rx="3" ry="3" transform="translate(-288.23 212.19) rotate(-20.27)"/><rect class="cls-2" x="453.35" y="920.74" width="6" height="19" rx="3" ry="3" transform="matrix(0.94, -0.35, 0.35, 0.94, -294.03, 215.73)"/><rect class="cls-2" x="461.35" y="938.74" width="6" height="19" rx="3" ry="3" transform="translate(-299.77 219.62) rotate(-20.27)"/><rect class="cls-2" x="468.35" y="956.74" width="6" height="19" rx="3" ry="3" transform="translate(-305.58 223.16) rotate(-20.27)"/><rect class="cls-2" x="476.35" y="974.74" width="6" height="19" rx="3" ry="3" transform="matrix(0.94, -0.35, 0.35, 0.94, -311.32, 227.04)"/><rect class="cls-2" x="230.49" y="564.17" width="6" height="19" rx="3" ry="3" transform="translate(-201.51 132.77) rotate(-22.47)"/><rect class="cls-2" x="238.13" y="582.65" width="6" height="19" rx="3" ry="3" transform="translate(-207.99 137.09) rotate(-22.47)"/><rect class="cls-2" x="245.77" y="601.13" width="6" height="19" rx="3" ry="3" transform="translate(-214.47 141.42) rotate(-22.47)"/><rect class="cls-2" x="253.42" y="619.61" width="6" height="19" rx="3" ry="3" transform="translate(-220.96 145.74) rotate(-22.47)"/><rect class="cls-2" x="261.06" y="638.1" width="6" height="19" rx="3" ry="3" transform="translate(-227.44 150.07) rotate(-22.47)"/><rect class="cls-2" x="268.7" y="656.58" width="6" height="19" rx="3" ry="3" transform="translate(-233.92 154.39) rotate(-22.47)"/><rect class="cls-2" x="276.35" y="675.06" width="6" height="19" rx="3" ry="3" transform="translate(-240.41 158.71) rotate(-22.47)"/><rect class="cls-2" x="283.99" y="693.54" width="6" height="19" rx="3" ry="3" transform="translate(-246.89 163.04) rotate(-22.47)"/><rect class="cls-2" x="291.63" y="712.02" width="6" height="19" rx="3" ry="3" transform="translate(-253.37 167.36) rotate(-22.47)"/><rect class="cls-2" x="299.28" y="730.51" width="6" height="19" rx="3" ry="3" transform="translate(-259.85 171.69) rotate(-22.47)"/><rect class="cls-2" x="306.92" y="748.99" width="6" height="19" rx="3" ry="3" transform="translate(-266.34 176.01) rotate(-22.47)"/><rect class="cls-2" x="314.56" y="767.47" width="6" height="19" rx="3" ry="3" transform="translate(-272.82 180.33) rotate(-22.47)"/><rect class="cls-2" x="322.21" y="785.95" width="6" height="19" rx="3" ry="3" transform="translate(-279.3 184.66) rotate(-22.47)"/><rect class="cls-2" x="329.85" y="804.43" width="6" height="19" rx="3" ry="3" transform="translate(-285.79 188.98) rotate(-22.47)"/><rect class="cls-2" x="337.49" y="822.92" width="6" height="19" rx="3" ry="3" transform="matrix(0.92, -0.38, 0.38, 0.92, -292.27, 193.3)"/><rect class="cls-2" x="345.14" y="841.4" width="6" height="19" rx="3" ry="3" transform="translate(-298.75 197.63) rotate(-22.47)"/><rect class="cls-2" x="352.78" y="859.88" width="6" height="19" rx="3" ry="3" transform="translate(-305.24 201.95) rotate(-22.47)"/><rect class="cls-2" x="360.42" y="878.36" width="6" height="19" rx="3" ry="3" transform="translate(-311.72 206.27) rotate(-22.47)"/><rect class="cls-2" x="368.42" y="896.36" width="6" height="19" rx="3" ry="3" transform="translate(-317.99 210.7) rotate(-22.47)"/><rect class="cls-2" x="375.42" y="914.36" width="6" height="19" rx="3" ry="3" transform="translate(-324.34 214.74) rotate(-22.47)"/><rect class="cls-2" x="382.42" y="932.36" width="6" height="19" rx="3" ry="3" transform="translate(-330.68 218.78) rotate(-22.47)"/><rect class="cls-2" x="390.42" y="950.36" width="6" height="19" rx="3" ry="3" transform="translate(-336.95 223.2) rotate(-22.47)"/><rect class="cls-2" x="398.42" y="968.36" width="6" height="19" rx="3" ry="3" transform="matrix(0.92, -0.38, 0.38, 0.92, -343.23, 227.63)"/><path class="cls-2" d="M315.24,506c0,9-10.64,19.69-6.21,25.46"/><path class="cls-2" d="M328.66,549.19c-3,3-6.91,15.68-6.91,15.68"/><path class="cls-2" d="M342.19,588.22a104.26,104.26,0,0,1-7.73,9c5,1,15.13,13,15.13,13"/><path class="cls-2" d="M384.4,736a19.25,19.25,0,0,0,8.06-2.71"/><path class="cls-2" d="M363,693c-2.16,6.93-2.94,15,.42,21.22,4.32,8,8.26,16.81,14.4,20.25"/><path class="cls-2" d="M372.46,676.92c-1.3.65-4.34,4.65-6.26,8.38"/><path class="cls-2" d="M365.46,682.67a35.7,35.7,0,0,0,6.46-6.9"/><path class="cls-2" d="M343.83,641.64a45.32,45.32,0,0,0-.37,13.62c2,15,6,25,13,29a6,6,0,0,0,3.9.76"/><path class="cls-2" d="M351.13,614.8c-.47,2.37-3.2,9.35-5,16.1"/><path class="cls-2" d="M425.81,848.34c3.33,3.84,7.61,6.14,14.65,6.92"/><path class="cls-2" d="M411.46,777.26A35.3,35.3,0,0,0,405,793.64"/><path class="cls-2" d="M236.91,515.35c5.55,5.91,19.55,6.91,33.55-3.09s26-17,25-20"/><path class="cls-2" d="M366.3,887c1-7,2.16-18.71,19.16-18.71s24,29.34,18,36.34-18,14.66-23,12.66"/><path class="cls-2" d="M422.81,855.58c-4.76-2.06-14.59.25-21.47,5s-5.88,13.71,12.12,29.71,18.33-.82,23.16-3.41"/><path class="cls-2" d="M397.46,913.26c10.28-14.39,15-27,31-8s30,38,9,41-38-1-41-13S392.46,920.26,397.46,913.26Z"/><path class="cls-2" d="M396.46,970.26c-3.8,2.78-10.78,4.49-10.78,4.49"/><path class="cls-2" d="M382.72,926.27a17.59,17.59,0,0,1,12.74,9c7,12,2,21,3,29"/><path class="cls-2" d="M367.46,928.26a36.48,36.48,0,0,1,8.73-2.13"/><path class="cls-2" d="M400.46,970.26c3-10,6.52-22.89,21.76-22.44s24.24,3.44,29.24,14.44,5,21-4,28"/><path class="cls-2" d="M478.72,975.08c1.87-3.92,3.42-8.24,5.74-8.82"/><path class="cls-2" d="M454.51,933.46c-5.94,6.36-10.47,14.36-8.05,19.8,4,9,11.11,16.88,21,26,2.91,2.69,5.11,3,6.88,1.89"/><path class="cls-2" d="M466.46,924.26a33.14,33.14,0,0,0-7.49,5"/><path class="cls-2" d="M193.92,225.66a86.27,86.27,0,0,0,8.54-7.4"/><path class="cls-2" d="M103.13,284.82C118,281.31,165.3,247.9,189,229.52"/><path class="cls-2" d="M176,188.11c4.1-3.09,6.81-5.49,7.49-6.85"/><path class="cls-2" d="M101.12,233.67c20.49-10.72,52.6-29.85,70-42.15"/><path class="cls-2" d="M87,240.43c2.15-.83,5-2.16,8.49-3.87"/><path class="cls-2" d="M158.45,150.25c3.85-1.94,6.38-3.36,7-4"/><path class="cls-2" d="M82.23,182.5c19.44-6.54,52.76-21,70.84-29.62"/><path class="cls-2" d="M68.5,185.92a29.43,29.43,0,0,0,7.39-1.43"/><path class="cls-2" d="M142.79,116.66c5.26-1.34,7.34-2.91,7.34-2.91"/><path class="cls-2" d="M63.47,135.77c12.43-2.42,27.92-2.05,39-5.51,16-5,17-11,30-12,1.64-.12,2.54-.29,3.93-.48"/><path class="cls-2" d="M50.59,140.74a23.8,23.8,0,0,1,7.63-3.53"/><path class="cls-2" d="M126.46,80.26a59.13,59.13,0,0,1,9-.79"/><path class="cls-2" d="M48.74,99.67c11.56-.41,25.35-.28,37.72-4.41,12.59-4.19,23.2-10.64,34.27-13.86"/><path class="cls-2" d="M34.87,101a77.9,77.9,0,0,1,9.4-1.09"/><path class="cls-2" d="M112.05,44.8c4-1.63,6.41-2.54,6.41-2.54"/><path class="cls-2" d="M45.22,85.63c7.93-5.95,13.87-14.16,28.24-22.37A329.23,329.23,0,0,1,106,47.31"/><path class="cls-2" d="M31.93,92.2a38.9,38.9,0,0,0,8.15-3.26"/><path class="cls-2" d="M31.19,50.21C54.41,38.82,87.83,15.11,93.46,6.26"/><path class="cls-2" d="M16.58,56a59.46,59.46,0,0,0,9.93-3.56"/><path class="cls-2" d="M149.9,295.62c-7-6-59.44-96.36-64.44-143.36s-21-38-28-64C49.23,57.73,47,28.18,34.09,5.21"/><path class="cls-2" d="M143.46,262.26c9.54-9.81,12.55-26.66,9.77-32.83s-11.37-16.64-24.07-11.9-14.38,16.38-11,24.53"/><path class="cls-2" d="M176.65,264.8c3.41,4.86,3.44,17.28-1.6,20.71"/><path class="cls-2" d="M200.85,237.71c5,6.17,10.11,14.73,7.43,22.1-5.08,13.92-6.21,17.73-14.82,16.45-15-6-36-30-36-38s-17-20-16-37-28-45-29-67-9-57-17-60-28-58-18-74"/><path class="cls-2" d="M185.46,220.26c.77,5.85-.22,11.22-3,14"/><path class="cls-2" d="M146.45,219c1.7-12,17.35-25.71,26.35-23.71"/><path class="cls-2" d="M94.21,187c1.25-6.72,11.59-15.38,19.42-16s15.83,10.33,18.83,18.33-2,26-9,31-14.78.73-18.89-7.13S94.21,187,94.21,187Z"/><path class="cls-2" d="M165.15,178.45c.7,8.64-.66,17.86-6.48,22-8.21,5.82-15,4.82-17.6-5.18s-6.1-15.93-10.36-21c-5.25-6.21,7.18-15.66,13.46-17.35,3.09-.83,7.37-.22,11,1.62"/><path class="cls-2" d="M85,148.11c.56-9.92,4.8-15.2,13.64-16.52s12.85,5.67,15.85,13.67,1,22-8,27c-6.52,3.63-14.65-1.73-18.7-6.92"/><path class="cls-2" d="M146.84,141.08c.24,6.5-1.31,14.67-7.33,18.46-9,5.72-21.23-3.14-26.14-20.71-2.86-10.23,1.62-16.93,13.46-19.67a13.32,13.32,0,0,1,10.91,2"/><path class="cls-2" d="M64.43,139.24c5-6,15-6,20,13s4.26,25.84-3,30"/><path class="cls-2" d="M73.25,113.47c-3.31-9.73,2.3-14.56,14.75-18.38s22.71,10.12,22.26,18.38c-.52,9.81-1.8,15.79-10.8,16.79S76,121.67,73.25,113.47Z"/><path class="cls-2" d="M126.46,119.26c-14-3-16.53-10.37-18.27-17.18S113,83.54,116.73,82.4"/><path class="cls-2" d="M77.75,97.49c6-4,17.71-16.23,12.71-25.23s-8.67-14.37-20.84-6.68"/><path class="cls-2" d="M52.28,65.58c7.18,2.68,28.18,1.92,28.18-17.32,0-18-13.72-18.63-18.86-15.81"/><path class="cls-2" d="M60.56,33c-6.33,2-16.62-1.26-17.61-6.71"/><path class="cls-2" d="M31.19,49.7c10.18-6,8.43-28.21,7.43-35.21"/><rect class="cls-2" x="89.91" y="0.38" width="6" height="19" rx="3" ry="3" transform="translate(3.73 37.75) rotate(-23.42)"/><rect class="cls-2" x="97.86" y="18.73" width="6" height="19" rx="3" ry="3" transform="translate(-2.91 42.42) rotate(-23.42)"/><rect class="cls-2" x="105.81" y="37.09" width="6" height="19" rx="3" ry="3" transform="translate(-9.55 47.1) rotate(-23.42)"/><rect class="cls-2" x="113.76" y="55.44" width="6" height="19" rx="3" ry="3" transform="translate(-16.19 51.77) rotate(-23.42)"/><path class="cls-2" d="M120,80l-.65-1.51a3,3,0,0,1,1.56-4h0a3,3,0,0,1,3.94,1.56l5.17,11.93a3,3,0,0,1-1.56,4h0a3,3,0,0,1-3.94-1.56L120,80"/><rect class="cls-2" x="129.66" y="92.14" width="6" height="19" rx="3" ry="3" transform="translate(-29.47 61.11) rotate(-23.42)"/><rect class="cls-2" x="137.62" y="110.49" width="6" height="19" rx="3" ry="3" transform="translate(-36.11 65.79) rotate(-23.42)"/><rect class="cls-2" x="145.59" y="128.08" width="6" height="19" rx="3" ry="3" transform="translate(-42.45 70.41) rotate(-23.42)"/><rect class="cls-2" x="153.52" y="144.67" width="6" height="19" rx="3" ry="3" transform="translate(-48.39 74.93) rotate(-23.42)"/><rect class="cls-2" x="162.5" y="162.2" width="6" height="19" rx="3" ry="3" transform="translate(-54.62 79.94) rotate(-23.42)"/><rect class="cls-2" x="170.48" y="179.79" width="6" height="19" rx="3" ry="3" transform="translate(-60.95 84.56) rotate(-23.42)"/><rect class="cls-2" x="179.45" y="197.32" width="6" height="19" rx="3" ry="3" transform="translate(-67.18 89.57) rotate(-23.42)"/><rect class="cls-2" x="187.43" y="214.91" width="6" height="19" rx="3" ry="3" transform="translate(-73.52 94.2) rotate(-23.42)"/><rect class="cls-2" x="196.41" y="232.44" width="6" height="19" rx="3" ry="3" transform="translate(-79.75 99.21) rotate(-23.42)"/><rect class="cls-2" x="12.89" y="7.36" width="6" height="19" rx="3" ry="3" transform="translate(-4.93 6.69) rotate(-20.66)"/><rect class="cls-2" x="19.95" y="26.07" width="6" height="19" rx="3" ry="3" transform="translate(-11.07 10.38) rotate(-20.66)"/><rect class="cls-2" x="27.01" y="44.78" width="6" height="19" rx="3" ry="3" transform="translate(-17.22 14.08) rotate(-20.66)"/><rect class="cls-2" x="34.06" y="63.5" width="6" height="19" rx="3" ry="3" transform="translate(-23.37 17.77) rotate(-20.66)"/><rect class="cls-2" x="41.12" y="82.21" width="6" height="19" rx="3" ry="3" transform="translate(-29.52 21.46) rotate(-20.66)"/><path class="cls-2" d="M54.53,119.32h0a3,3,0,0,1-3.87-1.75L46.07,105.4a3,3,0,0,1,1.75-3.86h0c1.78-.34,3.84.77,3.87,1.75l4.59,12.16A3,3,0,0,1,54.53,119.32Z"/><rect class="cls-2" x="55.23" y="119.64" width="6" height="19" rx="3" ry="3" transform="translate(-41.82 28.85) rotate(-20.66)"/><rect class="cls-2" x="62.29" y="138.35" width="6" height="19" rx="3" ry="3" transform="translate(-47.97 32.54) rotate(-20.66)"/><rect class="cls-2" x="69.34" y="157.07" width="6" height="19" rx="3" ry="3" transform="translate(-54.12 36.24) rotate(-20.66)"/><rect class="cls-2" x="76.77" y="175.31" width="6" height="19" rx="3" ry="3" transform="translate(-60.07 40.03) rotate(-20.66)"/><rect class="cls-2" x="83.2" y="193.52" width="6" height="19" rx="3" ry="3" transform="translate(-66.09 43.47) rotate(-20.66)"/><rect class="cls-2" x="89.63" y="211.73" width="6" height="19" rx="3" ry="3" transform="translate(-72.1 46.91) rotate(-20.66)"/><rect class="cls-2" x="97.06" y="229.98" width="6" height="19" rx="3" ry="3" transform="translate(-78.06 50.7) rotate(-20.66)"/><rect class="cls-2" x="104.49" y="248.22" width="6" height="19" rx="3" ry="3" transform="translate(-84.02 54.5) rotate(-20.66)"/><path class="cls-2" d="M300.61,535.39s7.59-10.24,10.43-16.63"/></g></g></svg>