<svg xmlns="http://www.w3.org/2000/svg" width="320.64" height="48.96" viewBox="0 0 320.64 48.96"><defs><style>.cls-1{fill:#fff}.cls-2{fill:#de3232}</style></defs><title>text_speedup</title><g id="レイヤー_2" data-name="レイヤー 2"><g id="comment"><path class="cls-1" d="M40.79 39.62l-7.18 7.25H9.53l-7.23-7.2v-6.59h8.56v2.61l2.56 2.55h16.25l2.56-2.55v-3.17l-2.67-2.81H9.48L2.3 22.93V12.36L9.53 5h24l7.23 7.35v6.12H32v-2.28l-2.56-2.61H13.37l-2.51 2.61v3.21l2.56 2.45h20l7.33 7.2zm38.97-13.48l-8.35 8.22H52.7v12.51h-8.81V5.11h27.52l8.35 8.27zm-8.81-4v-4.9l-3.64-3.57H52.7v12h14.61zm45.26-8.5h-24.8v8.21H113V30H91.41v8.32H116v8.53H82.6V5.11h33.61zm36.44 0h-24.8v8.21h21.63V30h-21.63v8.32h24.6v8.53H119V5.11h33.61zM191 38.55l-8.46 8.32h-26.83V5.11h26.85l8.44 8.42zm-8.92-4V17.36l-3.64-3.72h-13.91v24.55h13.93zm72.2 3.84l-8.4 8.48h-18.6l-8.51-8.53V5.11h8.81v29.2l3.8 3.83h10.35l3.79-3.83V5.11h8.76zM294 26.14l-8.35 8.22h-18.7v12.51h-8.85V5.11h27.52l8.38 8.27zm-8.81-4v-4.9l-3.64-3.57h-14.6v12h14.6zm21.48 13.7h-9.32V2.3h9.32zm0 13.12h-9.27v-8.17h9.27zm13.97-13.12h-9.33V2.3h9.33zm0 13.12h-9.28v-8.17h9.28z"/><path class="cls-2" d="M38.48 37.31l-7.17 7.25H7.23L0 37.37v-6.59h8.56v2.6l2.56 2.56h16.24l2.56-2.56v-3.16l-2.66-2.81H7.17L0 20.62V10.06l7.23-7.35h24l7.22 7.35v6.12h-8.73v-2.3l-2.56-2.6H11.07l-2.51 2.6v3.22l2.56 2.45h20l7.33 7.2zm38.98-13.47l-8.36 8.22H50.4v12.5h-8.81V2.81H69.1l8.36 8.27zm-8.82-4v-4.9L65 11.33H50.4v12H65zm45.27-8.51h-24.8v8.22h21.62v8.17H89.11V36h24.59v8.52H80.29V2.81h33.62zm36.44 0h-24.8v8.22h21.62v8.17h-21.62V36h24.6v8.52h-33.41V2.81h33.61zm38.37 24.91l-8.46 8.32h-26.85V2.81h26.85l8.46 8.42zm-8.92-4V15.06l-3.64-3.73h-13.94v24.56h13.94zm72.2 3.85l-8.41 8.47H225L216.47 36V2.81h8.81V32l3.79 3.82h10.35l3.8-3.82V2.81H252zm39.67-12.25l-8.35 8.22h-18.71v12.5h-8.81V2.81h27.52l8.35 8.27zm-8.82-4v-4.9l-3.63-3.58h-14.61v12h14.61zm21.52 13.7H295V0h9.33zm0 13.12h-9.28v-8.17h9.28zm13.97-13.12H309V0h9.33zm0 13.12h-9.28v-8.17h9.28z"/></g></g></svg>