<svg xmlns="http://www.w3.org/2000/svg" viewBox="0 0 291.26 54.55"><title>soon</title><g id="レイヤー_2" data-name="レイヤー 2"><g id="content"><path d="M24.68,47.26l-5.55,6.11L5.59,54.55,0,49.52V32.93l5.59-6.07,13.47-1.18,5.62,5.13v5.11l-5.86.51V34l-2.47-2.25-8.09.71L5.82,35.1V46.3l2.44,2.23,8.09-.71,2.51-2.76v-2.4l5.82-.51Z"/><path d="M53.58,44.73l-5.52,6.11-14,1.22L28.52,47V30.44l5.56-6.08,14-1.22,5.52,5.07Zm-5.79-2.2V31.42l-2.4-2.22L36.75,30,34.31,32.6V43.74L36.82,46l8.53-.75Z"/><path d="M86.2,47.5,80.41,48V29.59l-5.86,9.35-5.21.45L63.48,31V49.49l-5.79.5V22.23l5.79-.51L71.94,33.1l8.47-12.86,5.79-.5Z"/><path d="M96.8,46.61l-5.92.51V19.39l5.92-.51Z"/><path d="M124.84,44.12l-5.72.5V34.9l-12-9.21v20l-5.69.5V18.47l5.69-.5,12,8.94v-10l5.72-.5Z"/><path d="M154.15,35.93,148.63,42l-14.12,1.23-5.55-5V21.65l5.55-6.07,14.05-1.23,5.55,5.13v4.81l-5.65.49V22.52L146,20.19l-9,.78-2.44,2.69V35.14l2.44,2.26,9.11-.8L148.49,34V32l-7.48.66V27.7l13.14-1.15Z"/><path d="M195.19,33.16l-4.74,5.22-15.92,1.39-4.77-4.35V31.05l5.66-.5v1.73l1.69,1.54,10.73-.94L189.53,31v-2.1l-1.76-1.7L174.5,28.4l-4.74-4.09v-7L174.53,12l15.88-1.39,4.78,4.46v4.06l-5.79.51V18.12l-1.69-1.58-10.64.93-1.65,1.87v2.14L177.11,23l13.24-1.16,4.84,4.35Z"/><path d="M223.94,29.83l-5.52,6.1-13.94,1.22-5.59-5.1V15.53l5.55-6.07,14-1.22,5.52,5.06Zm-5.79-2.21V16.52l-2.4-2.23-8.63.76-2.44,2.65V28.84l2.5,2.28,8.54-.74Z"/><path d="M252.86,27.3l-5.52,6.1-14,1.22-5.58-5.1V13l5.55-6.07,14-1.22,5.52,5.06Zm-5.79-2.21V14l-2.4-2.23-8.64.76-2.43,2.65V26.31l2.5,2.28,8.53-.74Z"/><path d="M280.37,30.51l-5.72.5V21.29l-12-9.21v20l-5.69.5V4.86l5.69-.5,12,8.94v-10l5.72-.5Z"/><path d="M291.26,22.24l-6.17.54V.54L291.26,0Zm0,8.71-6.13.53V26.06l6.13-.53Z"/></g></g></svg>