<?xml version="1.0" encoding="utf-8"?>
<!-- Generator: Adobe Illustrator 23.0.0, SVG Export Plug-In . SVG Version: 6.00 Build 0)  -->
<svg version="1.1" id="レイヤー_1" xmlns="http://www.w3.org/2000/svg" xmlns:xlink="http://www.w3.org/1999/xlink" x="0px"
	 y="0px" viewBox="0 0 157.9 182.2" style="enable-background:new 0 0 157.9 182.2;" xml:space="preserve">
<style type="text/css">
	.st0{fill:#42210B;}
</style>
<title>lead</title>
<g>
	<path class="st0" d="M6.8,11c0,3.1-1.6,4.8-5.5,4.8c-0.2,0-0.4,0-0.5,0c-0.4-0.1-0.5-0.1-0.5-0.6v-2.2c0-0.4,0.1-0.5,0.3-0.5
		c0.1,0,0.3,0,0.4,0c0.2,0,0.4,0,0.6,0c1.2,0,1.8-0.4,1.8-1.8V5c0-1.1-0.1-3.4-0.1-3.5C3.3,1.1,3.4,1,3.9,1h2.4
		c0.5,0,0.6,0.1,0.6,0.5c0,0.1-0.1,2.4-0.1,3.5V11z"/>
	<path class="st0" d="M12.5,1.8c0.1,1.1-0.7,2.1-1.8,2.2c-0.1,0-0.2,0-0.2,0c-1,0-1.8-0.7-1.9-1.7c0,0,0-0.1,0-0.1
		C8.5,1,9.4,0.1,10.5,0c0.1,0,0.1,0,0.2,0C11.6-0.1,12.4,0.7,12.5,1.8C12.5,1.7,12.5,1.7,12.5,1.8z M9.4,15.8
		c-0.5,0-0.6-0.1-0.6-0.5c0-0.1,0-2.1,0-2.9V8.1c0-0.8,0-2.8,0-2.9c0-0.4,0.1-0.5,0.6-0.5h2.2c0.5,0,0.6,0.1,0.6,0.5
		c0,0.1,0,2.1,0,2.9v4.2c0,0.8,0,2.8,0,2.9c0,0.4-0.1,0.5-0.6,0.5L9.4,15.8z"/>
	<path class="st0" d="M17.7,12.3c0,0.8,0,2.8,0,2.9c0,0.4-0.1,0.5-0.6,0.5h-2.2c-0.5,0-0.6-0.1-0.6-0.5c0-0.1,0-2.1,0-2.9V8.1
		c0-0.8,0-2.8,0-2.9c0-0.4,0.1-0.5,0.6-0.5h2c0.4,0,0.5,0.1,0.5,0.5c0,0.3,0.1,0.4,0.2,0.4c0.1,0,0.2-0.1,0.3-0.1
		c0.8-0.5,1.7-0.8,2.6-0.8c0.9,0,1.8,0.3,2.5,0.9c0.2,0.2,0.3,0.3,0.4,0.3c0.2,0,0.3-0.1,0.4-0.2c0.9-0.6,1.9-1,3-1
		c2,0,3.6,1.3,3.6,3.9v3.8c0,0.8,0,2.8,0,2.9c0,0.4-0.1,0.5-0.6,0.5h-2.2c-0.5,0-0.6-0.1-0.6-0.5c0-0.1,0-2.1,0-2.9v-3
		c0.1-0.8-0.5-1.5-1.3-1.6c-0.1,0-0.1,0-0.2,0c-0.4,0-0.8,0.1-1.2,0.3c-0.3,0.1-0.5,0.5-0.5,0.8v3.4c0,0.8,0,2.8,0,2.9
		c0,0.4-0.1,0.5-0.6,0.5h-2.2c-0.5,0-0.6-0.1-0.6-0.5c0-0.1,0-2.1,0-2.9v-3c0.1-0.8-0.5-1.5-1.2-1.6c-0.1,0-0.2,0-0.2,0
		c-0.4,0-0.8,0.1-1.2,0.3c-0.3,0.1-0.5,0.5-0.5,0.8L17.7,12.3z"/>
	<path class="st0" d="M39.9,15.7c-0.9,0-2.7,0-2.8,0c-0.4,0-0.6-0.1-0.6-0.6c0-0.1,0.1-2.4,0.1-3.4V4.9c0-1.1-0.1-3.3-0.1-3.4
		c0-0.4,0.1-0.6,0.6-0.6c0.2,0,1.9,0,2.8,0h2c3.1,0,5,0.8,5,3.5c0.1,1.1-0.4,2.2-1.2,3c-0.2,0.1-0.2,0.2-0.2,0.3s0.1,0.1,0.3,0.2
		c1.2,0.5,1.9,1.8,1.8,3.1c0,3.2-2,4.6-5.7,4.6L39.9,15.7z M39.9,6.1c0,0.5,0.1,0.6,0.6,0.6h1.1c1.3,0,1.9-0.6,1.9-1.7
		c0-0.8-0.6-1.3-1.7-1.3h-1.3c-0.5,0-0.6,0.1-0.6,0.6L39.9,6.1z M39.9,12.4c0,0.5,0.1,0.6,0.6,0.6h1.3c1.5,0,2.4-0.7,2.4-1.9
		c0-1-0.5-1.7-2-1.7h-1.6c-0.5,0-0.6,0.1-0.6,0.6L39.9,12.4z"/>
	<path class="st0" d="M58.6,14.2c0.1,0.1,0.1,0.3,0.1,0.4c0,0.2-0.1,0.3-0.4,0.4c-1.2,0.5-2.5,0.8-3.8,0.8c-4.1,0-5.7-2.5-5.7-5.4
		c0-3.4,2.2-5.9,5.6-5.9c2.8,0,4.5,1.7,4.5,5.2c0,1.4-0.2,1.5-0.8,1.5h-5.5c-0.3,0-0.5,0.1-0.5,0.2c0,0.1,0,0.2,0.1,0.3
		c0.5,0.9,1.5,1.4,2.5,1.2c0.8,0,1.6-0.2,2.4-0.5c0.1-0.1,0.3-0.1,0.4-0.1c0.2,0,0.2,0.1,0.4,0.4L58.6,14.2z M55.9,8.8
		c0-0.1,0-0.2,0-0.3c-0.2-0.7-0.9-1.2-1.6-1.1c-0.8,0-1.5,0.4-1.9,1.1c-0.1,0.1-0.1,0.2-0.1,0.4c0,0.1,0.1,0.2,0.5,0.2h2.7
		C55.7,9.1,55.9,9,55.9,8.8z"/>
	<path class="st0" d="M67.2,15.7c-0.4,0-0.5-0.1-0.6-0.5c0-0.3-0.1-0.4-0.2-0.4c-0.1,0-0.2,0.1-0.3,0.1c-0.9,0.6-1.9,0.9-3,0.9
		c-1.9,0-3.3-1-3.3-3c0-2.5,2.7-3.8,5.9-4.1c0.3,0,0.4-0.1,0.4-0.3c0-0.1-0.1-0.2-0.1-0.3c-0.2-0.4-0.7-0.7-1.5-0.7
		c-1,0-2,0.3-2.9,0.9c-0.1,0.1-0.2,0.2-0.4,0.2c-0.1,0-0.2-0.1-0.3-0.4l-0.6-1.6c-0.1-0.1-0.1-0.2-0.1-0.4c0-0.2,0.1-0.3,0.4-0.5
		c1.4-0.7,2.9-1,4.4-1c3.3,0,4.4,1.5,4.4,4.5L69.5,13c0,0.8,0.1,2.1,0.1,2.4s-0.1,0.4-0.6,0.4L67.2,15.7z M66,11h-0.4
		c-1.4,0.2-2.5,0.7-2.5,1.4s0.4,0.9,1.1,0.9c0.6,0,1.1-0.2,1.6-0.4c0.4-0.1,0.6-0.5,0.5-0.9v-0.5C66.4,11.1,66.3,11,66,11z"/>
	<path class="st0" d="M74.9,12.3c0,0.8,0,2.8,0,2.9c0,0.4-0.1,0.5-0.6,0.5h-2.2c-0.5,0-0.6-0.1-0.6-0.5c0-0.1,0-2.1,0-2.9V8.1
		c0-0.8,0-2.8,0-2.9c0-0.4,0.1-0.5,0.6-0.5h2c0.4,0,0.5,0.1,0.6,0.5c0,0.3,0.1,0.4,0.2,0.4c0.1,0,0.2-0.1,0.3-0.1
		c0.8-0.6,1.7-0.8,2.7-0.8c0.9,0,1.8,0.3,2.5,0.9c0.2,0.2,0.3,0.3,0.4,0.3s0.2-0.1,0.4-0.2c0.9-0.6,1.9-1,3-1c2,0,3.6,1.3,3.6,3.9
		v3.8c0,0.8,0,2.8,0,2.9c0,0.4-0.1,0.5-0.6,0.5H85c-0.5,0-0.6-0.1-0.6-0.5c0-0.1,0-2.1,0-2.9v-3c0.1-0.8-0.5-1.5-1.3-1.6
		c0,0-0.1,0-0.1,0c-0.4,0-0.8,0.1-1.2,0.3c-0.3,0.1-0.5,0.5-0.5,0.8v3.4c0,0.8,0,2.8,0,2.9c0,0.4-0.1,0.5-0.6,0.5h-2.2
		c-0.5,0-0.6-0.1-0.6-0.5c0-0.1,0-2.1,0-2.9v-3c0.1-0.8-0.5-1.5-1.3-1.6c-0.1,0-0.1,0-0.2,0c-0.4,0-0.8,0.1-1.2,0.3
		c-0.3,0.1-0.5,0.5-0.5,0.8L74.9,12.3z"/>
	<path class="st0" d="M91.3,2.3c0.2-0.6,0.4-1.1,0.5-1.8c0-0.2,0.1-0.4,0.3-0.4s2.6,1,2.9,1.2s0.5,0.3,0.5,0.4s-0.1,0.2-0.2,0.2
		c-0.5,0.2-0.7,0.5-0.9,1c-0.8,1.9-1.2,3.9-1.2,6c0,0.4,0,0.8,0.2,0.8s0.2-0.1,0.3-0.3C93.9,9,94,8.8,94.2,8.8s1.3,0.7,1.3,1
		s-1.1,2.6-1.1,3.9c0,0.2,0,0.6,0.1,0.8c0,0.1,0,0.2,0,0.4c0,0.5-0.6,0.8-1.1,1c-0.3,0.1-0.7,0.2-1,0.3c-0.4,0-0.6-0.3-0.8-0.8
		c-0.9-2-1.3-4.2-1.2-6.4C90.4,6.7,90.7,4.4,91.3,2.3z M102.6,0.5c0.1,0,0.3,0.1,0.3,0.2c0,0.1-0.1,0.3-0.2,0.4
		c-0.3,0.5-0.4,1.2-0.4,1.8c0,0.2,0.1,0.4,0.4,0.5c0,0,0.1,0,0.1,0c0.5-0.1,1-0.2,1.5-0.3c0.2-0.1,0.4-0.1,0.5-0.1
		c0.3,0,0.4,0.4,0.4,0.7c0.1,0.5,0.2,1.1,0.2,1.7c0,0.5-0.2,0.6-2.4,0.9c-0.4,0.1-0.7,0.2-0.7,0.7c0,0.3,0.1,3,0.1,3.3
		c0,0.5,0.2,0.5,0.7,0.8c0.8,0.4,1.5,0.9,2.2,1.5c0.3,0.2,0.4,0.5,0.5,0.8c0,0.6-1,1.8-1.6,1.8c-0.3,0-0.6-0.3-1-0.7l-0.2-0.2
		c-0.1-0.1-0.2-0.2-0.4-0.2c-0.2,0-0.2,0.1-0.4,0.3c-0.8,0.9-1.9,1.4-3.1,1.3c-1.8,0-3.7-0.9-3.7-3s1.7-2.9,3.4-2.9h0.5
		c0.2,0,0.5-0.1,0.5-0.4c0,0,0-0.1,0-0.1c0-0.5-0.1-1.4-0.1-1.7c0-0.7-0.1-1-0.5-1s-1.7,0.1-2.6,0.1h-0.3c-0.3,0-0.7,0-1-0.2
		c-0.1-0.7-0.2-1.5-0.2-2.2c0-0.3,0.1-0.5,0.4-0.5c0.1,0,0.7,0.1,0.9,0.1c0.8,0.1,1.7,0.1,2.4,0.1c0.3,0,0.6-0.1,0.6-0.5
		s-0.2-2.4-0.2-2.8c0-0.2,0.1-0.3,0.3-0.3C100.1,0.1,102.1,0.4,102.6,0.5z M98.1,12.6c0,0.4,0.6,0.6,1.1,0.6s0.9-0.2,0.9-0.7
		s-0.6-0.4-0.9-0.4S98.1,12.2,98.1,12.6z"/>
</g>
<g>
	<path class="st0" d="M13.8,35.3c0.4,0,0.8,0,1.1-0.1c0.1,0,0.1,0,0.2,0c0.4,0,1.3,1.2,1.3,1.7c0,0.1,0,0.2-0.1,0.2
		c-0.2,0.3-0.3,0.7-0.5,1c-0.5,1.2-1.1,2.4-1.7,3.5c-0.1,0.1-0.2,0.3-0.2,0.5c0,0.2,0.1,0.4,0.3,0.5c0.2,0.2,1,0.8,1,1
		s-1.4,2.1-1.9,2.1c-0.1,0-0.2-0.1-0.3-0.2c-0.2-0.2-0.8-0.8-1.1-0.8c-0.2,0-0.3,0.1-0.4,0.2c-1.1,1.1-2.3,2.1-3.6,2.9
		c-1,0.7-2.1,1.1-3.3,1.5c-0.5,0-1-0.6-1.2-0.9c-0.3-0.4-0.6-0.8-0.8-1.3c0-0.2,0.2-0.3,0.7-0.4l0.3-0.1c2.6-0.7,5.7-3.1,5.7-3.6
		c0-0.2-0.1-0.3-0.3-0.4c-0.5-0.3-1.1-0.6-1.7-0.8c-0.2-0.1-0.6-0.3-0.6-0.5s1.1-2.1,1.7-2.1c0.8,0.3,1.5,0.6,2.2,1.1
		c0.1,0.1,0.3,0.1,0.4,0.1c0.4,0,0.5-0.3,0.7-0.7c0.2-0.4,0.4-0.8,0.5-1.3c0-0.3-0.4-0.4-0.7-0.4H8.9c-0.6,0-0.7,0-1,0.4
		c-0.7,1-1.5,1.9-2.4,2.8c-0.2,0.2-0.7,0.7-1,0.7c-0.5-0.2-1-0.4-1.4-0.8c-0.5-0.4-0.9-0.8-0.9-0.9s0.2-0.4,0.4-0.5
		C5,37.9,6.9,35.3,8,32.5C8.1,32.3,8.2,32,8.4,32c0.8,0.3,1.6,0.6,2.3,0.9c0.4,0.1,0.6,0.3,0.8,0.3s0.1,0.1,0.1,0.1s0,0.1-0.2,0.2
		c-0.3,0.1-0.4,0.3-0.6,0.6c-0.2,0.2-0.3,0.4-0.3,0.7c0,0.2,0.2,0.3,0.4,0.3H13.8z"/>
	<path class="st0" d="M23.6,34.8c0.4,0,0.7,0.1,0.7,0.2c0,0.1-0.1,0.1-0.1,0.2C24,35.4,23.9,35.7,24,36c0,0.2,0,0.5,0,0.7
		c0,1.7-0.1,3.4-0.4,5.1c-0.4,2.1-1.5,4-3,5.6c-0.2,0.2-0.6,0.6-0.8,0.6c-0.7-0.2-1.4-0.6-2-1c-0.2-0.1-0.5-0.3-0.5-0.6
		s0.2-0.3,0.3-0.4c3-2.5,3.3-5.2,3.3-8.8c0-0.9-0.1-2.3-0.1-2.4s0.1-0.2,0.3-0.2C21.5,34.6,23.1,34.7,23.6,34.8z M28.6,42
		c0,0.8,0,1.1,0.4,1.1c0.7,0,3.9-3,4.5-3.6c0.1-0.1,0.2-0.3,0.4-0.3s0.6,0.6,0.9,1.1c0.2,0.4,0.4,0.8,0.5,1.2c0,0.4-0.6,0.9-1,1.2
		l-0.2,0.2c-0.9,0.8-1.9,1.6-2.9,2.4c-0.8,0.7-1.7,1.3-2.5,2c-0.2,0.2-0.5,0.5-0.7,0.5c-0.6-0.2-1.2-0.4-1.8-0.8
		c-0.3-0.2-0.9-0.5-0.9-0.9s0.1-1.3,0.1-2.4v-6.3c0-0.4,0-1.1,0-1.7c0-0.5,0-0.9,0-1.2c0-0.1,0-0.1,0-0.2c0-0.1,0.1-0.2,0.2-0.2
		l1,0.1l2,0.2c0.2,0,0.3,0.1,0.3,0.2s-0.1,0.2-0.2,0.3c-0.2,0.2-0.2,0.5-0.2,0.8c0,0.6,0,1.2,0,1.8L28.6,42z"/>
	<path class="st0" d="M44.6,33.4c0.3,0.1,0.5,0.1,0.5,0.3S45,34,44.9,34c-0.3,0.2-0.4,0.7-0.5,1.3l-0.1,0.4c0,0.1,0,0.2,0,0.3
		c0,0.2,0.1,0.3,0.2,0.4c0.2,0.1,0.3,0.1,0.5,0.1c0.6,0,1.2,0.2,1.7,0.4c1.2,0.7,1.8,2.1,1.7,3.4c0,2.1-0.4,4.3-1.3,6.2
		c-0.9,1.5-2.5,2.4-4.2,2.2c-0.6,0-0.8-0.1-1-0.6c-0.2-0.6-0.4-1.3-0.4-2c0-0.3,0.1-0.5,0.4-0.5h0.8c1.2,0,1.5-0.1,1.9-0.9
		c0.6-1.4,0.9-2.9,0.9-4.4c0-0.9-0.1-1.2-0.9-1.2s-0.9,0.1-1,0.7c-0.7,2.4-1.8,4.6-3.1,6.6c-0.4,0.7-0.9,1.4-1.4,2
		c-0.1,0.1-0.2,0.1-0.3,0.1c-0.5,0-2.4-1.1-2.4-1.7c0-0.2,0.2-0.4,0.4-0.6c1.6-1.6,2.8-3.5,3.6-5.6c0.1-0.1,0.1-0.2,0.1-0.4
		c0-0.2-0.1-0.3-0.3-0.3c0,0,0,0-0.1,0c-0.6,0.2-1.1,0.3-1.7,0.6c-0.1,0.1-0.3,0.1-0.4,0.1c-0.3,0-0.6-0.8-0.7-1.5
		c-0.1-0.5-0.3-1.3-0.3-1.5s0.2-0.3,0.7-0.4c1-0.1,2.1-0.3,3.1-0.5c0.4-0.1,0.6-0.2,0.7-0.7c0.1-1,0.2-1.9,0.2-2.9v-0.3
		c0-0.2,0-0.4,0.3-0.4S44.3,33.3,44.6,33.4z M50,35.1c0.6,0.6,1.1,1.3,1.6,2c0,0.1,0.1,0.2,0.2,0.3c0.6,0.8,1,1.6,1.4,2.5
		c0,0.6-1.8,1.7-2.4,1.7c-0.3,0-0.4-0.3-0.5-0.5c-0.7-1.6-1.6-3.2-2.8-4.5c-0.1-0.1-0.2-0.2-0.2-0.3c0-0.5,1.7-1.5,2.2-1.5
		C49.6,34.7,49.9,34.8,50,35.1z"/>
	<path class="st0" d="M59.4,36.5c0.5,0.2,0.9,0.3,0.9,0.5s-0.1,0.2-0.2,0.2c-0.3,0.1-0.3,0.2-0.4,0.7s-0.2,1.1-0.3,1.7
		c0,0.2-0.1,0.3-0.1,0.5c0,0.2,0.1,0.3,0.3,0.4c0,0,0,0,0,0c0.4-0.2,0.8-0.4,1.2-0.6c0.9-0.5,2-0.7,3-0.7c1.3,0,2.6,0.5,3.6,1.5
		c0.7,0.8,1.1,1.9,1.1,3c0.1,1.1-0.3,2.3-1.1,3.1c-1,1-2.2,1.6-3.5,2c-0.9,0.3-1.9,0.5-2.9,0.6c-0.3,0-0.6-0.1-0.8-0.4
		c-0.4-0.7-0.6-1.4-0.7-2.2c0-0.4,0.3-0.4,0.5-0.4c1.6,0,5.4-0.4,5.4-2.5c-0.1-1-0.9-1.7-1.9-1.6c0,0-0.1,0-0.1,0
		c-1.9,0-4,1.8-5.1,3.3c-0.2,0.2-0.3,0.4-0.7,0.4s-2.1-0.3-2.1-1c0-0.1,0-0.3,0.1-0.4c0.7-2.4,1-4.9,1.1-7.4c0-0.7,0-1.1,0.5-1.1
		C57.9,36,58.6,36.2,59.4,36.5z M59.8,32.2c0.2,0,0.5,0.1,0.7,0.3c1,0.5,1.9,1.1,2.8,1.7c0.4,0.3,0.7,0.5,0.7,0.7
		c0,0.4-1.2,2.2-1.8,2.2c-0.2,0-0.4-0.1-0.5-0.3c-0.9-0.8-1.9-1.5-3-2.1c-0.3-0.2-0.5-0.3-0.5-0.5S59.1,32.2,59.8,32.2z"/>
	<path class="st0" d="M79.3,34.3c0,0.3,0.2,0.3,0.5,0.3h2.5c0.7,0,1.4,0,2.1,0s1.1,0.2,1.1,1s-0.1,1.4-0.1,2v9.5
		c0,0.8,0.1,1.6,0.1,2.4c0,0.5-0.2,0.5-0.9,0.5h-1.5c-0.6,0-0.8-0.1-0.8-0.6v-0.2c0-0.3-0.3-0.5-0.6-0.5h-6.3
		c-0.3,0-0.5,0.2-0.6,0.5v0.2c0,0.5-0.2,0.5-0.8,0.5h-1.4c-0.7,0-0.9-0.1-0.9-0.5c0-0.8,0.1-1.6,0.1-2.4v-9.5c0-0.7,0-1.4,0-2
		s0.3-1,1.1-1s1.4,0,2.1,0h0.2c0.5,0,0.9-0.3,1.1-0.7c0.2-0.6,0.4-1.2,0.6-1.8c0.1-0.3,0.2-0.4,0.4-0.4s2.4,0.4,2.8,0.5
		s0.5,0.1,0.5,0.3s-0.1,0.3-0.3,0.3s-0.3,0.1-0.4,0.3l-0.1,0.2C79.6,33.7,79.4,34,79.3,34.3z M74.8,38.1c0,0.3,0.2,0.5,0.4,0.5
		c0,0,0,0,0,0h6.6c0.3,0,0.5-0.2,0.5-0.5c0,0,0,0,0,0v-0.3c0-0.3-0.2-0.5-0.5-0.5c0,0,0,0,0,0h-6.6c-0.3,0-0.5,0.2-0.5,0.5
		c0,0,0,0,0,0V38.1z M74.8,41.8c0,0.3,0.3,0.6,0.6,0.6h6.5c0.3,0,0.6-0.3,0.6-0.6v-0.3c0-0.3-0.3-0.6-0.6-0.6h-6.5
		c-0.3,0-0.5,0.2-0.6,0.5c0,0,0,0,0,0L74.8,41.8z M74.8,45.6c0,0.3,0.3,0.6,0.6,0.6h6.5c0.3,0,0.6-0.3,0.6-0.6v-0.3
		c0-0.3-0.3-0.6-0.6-0.6h-6.5c-0.3,0-0.5,0.2-0.6,0.5c0,0,0,0,0,0L74.8,45.6z"/>
	<path class="st0" d="M100.3,38.9c0.9,0,1.1,0,1.1-0.3c0-0.1-0.1-0.2-0.1-0.2c-0.6-0.9-1.2-1.8-1.8-2.7c-0.3-0.4-0.3-0.5-0.8-0.5
		h-0.2c-0.7,0-1.3,0-2,0C96,35.2,96,35,96,34.5v-1.2c0-0.6,0.1-0.7,0.6-0.7s1.3,0,1.9,0h0.8h1.1c0.4,0,0.8,0.2,0.9,0.6
		c0.7,2,2.8,4.3,4.3,5.7c0.2,0.1,0.4,0.4,0.4,0.6c0,0.4-1.1,1.9-1.9,1.9c-0.3,0-0.6-0.2-0.8-0.5c0,0-0.1-0.1-0.2-0.1
		S103,40.9,103,41c0,2-0.2,3.9-0.5,5.9c0,1-0.5,1.9-1.3,2.5c-0.9,0.5-2,0.7-3,0.6c-1.6,0-1.8-0.2-1.8-2.1c0-0.7,0.1-0.9,0.7-0.9H98
		c1.1,0,1.3-0.1,1.5-0.7c0.3-1.4,0.4-2.8,0.4-4.2c0-0.6-0.1-0.6-1.1-0.6h-1.1c-0.5,0-0.8,0.1-0.8,0.5c-0.3,2.3-1.5,4.3-3.2,5.9
		c-0.5,0.5-2.2,1.9-2.9,1.9c-0.9-0.2-1.6-1-1.9-1.9c0-0.2,0.3-0.4,0.5-0.5c0,0,0.1-0.1,0.1-0.1c1.7-0.9,3.2-2.2,4.1-3.9
		c0.2-0.4,0.3-0.9,0.4-1.3c0-0.3-0.2-0.4-0.5-0.4c-0.5,0-1,0-1.5,0s-0.6-0.1-0.6-0.6v-0.3c0-0.3,0-0.4-0.2-0.4S91,40.6,91,40.7
		c-0.3,0.3-0.8,0.9-1.2,0.9s-2-1-2-1.6c0-0.2,0.2-0.3,0.3-0.4c1.2-1.1,2.3-2.4,3.1-3.8c0.6-1,1-2,1.4-3c0-0.1,0.2-0.2,0.3-0.2
		c0.6,0.3,1.3,0.6,1.8,1c0.2,0.1,0.8,0.5,0.8,0.7s-0.3,0.2-0.4,0.2s-0.2,0-0.3,0.3c-0.6,1.3-1.3,2.6-2.1,3.8
		c-0.1,0.1-0.1,0.2-0.1,0.2c0,0.2,0.3,0.2,1.5,0.2L100.3,38.9z"/>
	<path class="st0" d="M115.3,32.4c0.4,0.1,1,0.3,1,0.5s-0.1,0.2-0.2,0.2c-0.3,0.1-0.4,0.5-0.6,1.1c0,0.2-0.1,0.4-0.2,0.7
		c0,0.1,0,0.1,0,0.2c0,0.2,0.1,0.3,0.3,0.4c0,0,0,0,0.1,0c0.6-0.1,1.1-0.3,1.6-0.5c0.2-0.1,0.3-0.1,0.5-0.1c0.6,0,0.6,2,0.6,2.6
		c0,0.3-0.1,0.4-0.4,0.5c-0.8,0.3-2.1,0.6-2.9,0.7s-0.9,0.2-1.2,0.9c-1,3-2.3,6-3.9,8.8c-0.2,0.3-0.3,0.5-0.6,0.5s-2.4-0.9-2.4-1.5
		c0.1-0.3,0.2-0.6,0.4-0.8c1.4-2.1,2.5-4.3,3.3-6.6c0.1-0.1,0.1-0.3,0.2-0.5c0-0.3-0.2-0.3-0.4-0.3c-0.4,0-0.9,0.1-1.3,0.1
		s-0.7-0.1-0.8-0.5c-0.1-0.7-0.2-1.4-0.2-2.1c0-0.3,0-0.5,0.4-0.5s1.1,0.1,2.1,0.1s1.3,0,1.5-0.5c0.3-1.2,0.5-2.4,0.6-3.7
		c0-0.1,0-0.2,0.2-0.2S114.9,32.3,115.3,32.4z M114.8,44.8c1,0.9,2.3,1.3,3.6,1.2c1,0,2-0.1,3-0.4c0.1,0,0.1,0,0.2,0
		c0.3,0,0.4,0.4,0.4,1.1v0.6c0,1.1,0,1.3-0.4,1.4c-1.1,0.2-2.3,0.3-3.4,0.3c-1.6,0.1-3.2-0.2-4.6-1c-0.3-0.2-1-0.8-1-1.3
		s0.8-1.2,1-1.5s0.5-0.6,0.8-0.6S114.7,44.7,114.8,44.8z M116.8,38.8c1.5,0,3.1,0.2,4.6,0.6c0.3,0.1,0.5,0.2,0.5,0.5
		c-0.1,0.8-0.3,1.5-0.6,2.2c-0.1,0.1-0.2,0.2-0.4,0.2c-0.2,0-0.3-0.1-0.5-0.1c-1.1-0.4-2.3-0.6-3.4-0.5h-0.7c-0.5,0-0.6-0.1-0.6-0.4
		C115.6,38.9,116,38.8,116.8,38.8L116.8,38.8z"/>
	<path class="st0" d="M132.8,33.7c0,0.1-0.1,0.2-0.2,0.3c-0.3,0.4-0.5,0.8-0.6,1.3c0,0.2,0.2,0.3,0.4,0.3c1.1-0.2,2.2-0.5,3.3-0.9
		c0.2-0.1,0.4-0.1,0.6-0.2c0.3,0,0.4,0.3,0.5,0.9c0.1,0.5,0.2,1.1,0.2,1.7c0,0.4-0.2,0.5-1,0.7c-1.1,0.2-2.9,0.5-4.1,0.6
		c-0.3,0-0.6,0.1-0.8,0.4c-0.1,0.3-0.2,0.6-0.2,0.9c0,0.2,0.1,0.2,0.3,0.2c0.1,0,0.1,0,0.2-0.1c0.8-0.4,1.7-0.6,2.6-0.6
		c2.3-0.1,4.3,1.7,4.4,4c0,0.2,0,0.3,0,0.5c0,4.6-4.9,5.6-8.5,5.6c-0.8,0-1-0.2-1.1-0.9c-0.1-0.6-0.2-1.1-0.3-1.7
		c0-0.3,0.2-0.5,0.5-0.5c0.6,0.1,1.3,0.2,1.9,0.2c1.8,0,4.7-0.5,4.7-2.7c0.1-0.8-0.5-1.5-1.4-1.6c0,0-0.1,0-0.1,0
		c-1.5,0.1-2.9,0.7-4,1.8c-0.2,0.2-0.4,0.5-0.6,0.8c-0.1,0.2-0.3,0.4-0.6,0.4c-0.6-0.1-1.2-0.3-1.7-0.7c-0.3-0.2-0.6-0.4-0.6-0.8
		c0-0.3,0.1-0.6,0.3-0.8c0.5-1,0.9-2.1,1.2-3.3c0-0.2-0.2-0.4-0.4-0.4c0,0,0,0,0,0c-0.1,0-1.6,0.2-2.3,0.2c-0.3,0-0.6-0.2-0.7-0.5
		c0,0,0,0,0,0c-0.2-0.7-0.3-1.4-0.3-2.1c0-0.3,0.1-0.5,0.4-0.5c0.2,0,1.6,0.1,3.1,0.1c0.9,0,1.1-0.1,1.4-2.8
		c0.1-0.5,0.1-0.8,0.4-0.8S132.8,33.1,132.8,33.7z"/>
	<path class="st0" d="M140.6,35.9c0-0.6,0.2-0.6,2.4-0.8l1.4-0.1c2.5-0.2,8.4-0.8,10.8-1.3c0.1,0,0.1,0,0.2,0c0.4,0,0.4,0.3,0.5,0.7
		c0.1,0.7,0.2,1.5,0.3,2.2c0,0.4-0.2,0.4-1.1,0.4c-1-0.1-1.9,0.1-2.9,0.4c-2.5,0.9-4.1,3.2-4.1,5.8c0,1.9,1,2.4,2.8,2.4
		c0.5,0,1.2-0.1,1.4-0.1s0.5,0.1,0.5,0.4c0,0.8-0.1,1.6-0.3,2.3c-0.2,0.4-0.4,0.5-0.9,0.5c-3.7,0-6.8-1-6.8-5.3
		c0-1.8,0.6-3.6,1.7-5.1c0.1-0.1,0.1-0.2,0.1-0.3c0-0.2-0.1-0.3-0.4-0.3c-0.4,0-0.7,0.1-1.1,0.2c-1.1,0.2-2.4,0.5-3.5,0.8
		c-0.1,0-0.2,0-0.3,0c-0.4,0-0.6-0.9-0.7-1.5C140.7,36.8,140.6,36.4,140.6,35.9z M154,39.2c0.5,0.6,1,1.3,1.4,2c0,0.4-1.1,1-1.3,1
		s-0.1-0.1-0.4-0.5c-0.4-0.6-0.8-1.1-1.2-1.7c-0.1-0.1-0.1-0.1-0.1-0.2c0-0.3,1.1-0.9,1.4-0.9S153.9,39.1,154,39.2z M158,39.9
		c0,0.4-1.1,1-1.3,1s-0.2-0.2-0.3-0.3c-0.4-0.6-0.8-1.1-1.3-1.7c-0.1-0.1-0.1-0.2-0.2-0.3c0-0.3,1.1-0.9,1.4-0.9
		C157,38.4,157.6,39.1,158,39.9z"/>
</g>
<g>
	<path class="st0" d="M9.6,73.2c0-0.2,0-0.4-0.2-0.4S9.1,73,9.1,73.1c-0.4,0.4-1,1.2-1.3,1.6C7.6,74.8,7.4,75,7.2,75
		s-0.7-0.4-0.9-0.6c-0.1-0.1-0.3-0.2-0.4-0.3c-0.2,0-0.2,0.2-0.2,0.5v5c0,0.9,0,1.8,0,2.7c0,0.5-0.2,0.6-1.5,0.6H4
		c-1.2,0-1.3-0.1-1.3-0.6c0-0.9,0-1.8,0-2.7v-4.6c0-0.3,0-0.4-0.1-0.4s-0.2,0.1-0.3,0.2s-0.4,0.4-0.6,0.4c-0.4,0-0.7-0.5-0.9-0.8
		S0,73.5,0,73.1s0.3-0.6,0.6-0.9c1.6-2,2.8-4.2,3.6-6.6c0.1-0.4,0.2-0.6,0.5-0.6s2,0.6,2.3,0.7s0.6,0.2,0.6,0.5s-0.2,0.3-0.4,0.3
		s-0.2,0-0.3,0.3c-0.4,1.2-0.9,2.3-1.5,3.4c0,0-0.1,0.1-0.1,0.2c0,0.2,0.1,0.3,0.3,0.3c0.2,0,0.4,0.1,0.4,0.3S6,71.1,5.8,71.2
		s-0.2,0.6-0.2,1c0,0.1,0.1,0.3,0.2,0.3s1-0.9,1.1-1.1c1.5-1.8,2.5-3.9,3.2-6.2c0.1-0.3,0.2-0.3,0.3-0.3c0.9,0.3,1.8,0.6,2.7,0.9
		c0.2,0.1,0.4,0.1,0.4,0.3s-0.2,0.2-0.2,0.2c-0.4,0.1-0.5,0.2-0.6,0.7c-0.1,0.2-0.1,0.4-0.2,0.6c0,0.1-0.1,0.2-0.1,0.3
		c0,0.3,0.2,0.3,0.6,0.3h2.7c0.8,0,1.6-0.1,2.4-0.1c0.5,0,0.5,0.2,0.5,0.8v1.3c0,0.5,0,0.7-0.5,0.7c-0.8,0-1.6,0-2.4,0h-2.4
		c-0.3,0-0.6,0.3-0.6,0.6v0.7c0,0.3,0.3,0.6,0.6,0.6h2.2c0.7,0,1.4,0,2.1,0c0.4,0,0.4,0.2,0.4,0.8v1c0,0.6,0,0.8-0.4,0.8
		c-0.7,0-1.4-0.1-2.1-0.1h-2.2c-0.3,0-0.6,0.3-0.6,0.6v0.5c0,0.3,0.3,0.6,0.6,0.6h2.1c0.7,0,1.4,0,2.2,0c0.4,0,0.4,0.2,0.4,0.8v1.1
		c0,0.6,0,0.8-0.4,0.8c-0.7,0-1.5-0.1-2.1-0.1h-2.1c-0.3,0-0.6,0.2-0.6,0.5c0,0,0,0,0,0c0,0.7,0,1.4,0,2.1s-0.3,0.8-1.1,0.8h-0.9
		c-0.9,0-1.1-0.1-1.1-0.9c0-1.3,0.1-2.6,0.1-3.9L9.6,73.2z"/>
	<path class="st0" d="M33.2,75.1c0,2.6-1.8,4.2-4.1,5.1c-1,0.4-2.1,0.7-3.1,0.8c-0.4,0-0.5-0.2-0.7-0.5c-0.3-0.5-0.4-1-0.5-1.6
		c0-0.3,0.3-0.4,0.8-0.5c1.9-0.2,5-1,5-3.3c0-1.1-0.9-1.6-1.8-1.6c-2,0.2-4,0.8-5.7,1.9c-0.2,0.1-0.5,0.2-0.7,0.3
		c-0.7,0-1.7-1.6-1.7-2.3c0-0.3,0.2-0.4,0.9-0.6c0.4-0.1,1.1-0.4,1.5-0.5c1.8-0.8,3.8-1.3,5.8-1.4C31.2,70.9,33.2,72.4,33.2,75.1z"
		/>
	<path class="st0" d="M35.9,71c-0.2-0.7-0.3-1.4-0.3-2.1c0-0.6,0.3-0.6,1.3-0.7c3-0.2,5.9-0.4,8.8-0.8c1.4-0.2,3-0.4,4.5-0.6
		c0.1,0,0.1,0,0.2,0c0.4,0,0.5,0.3,0.5,0.7c0.1,0.7,0.2,1.5,0.2,2.2c0,0.4-0.2,0.4-1.1,0.4c-1-0.1-2,0.1-2.9,0.4
		c-2.5,0.9-4.1,3.2-4.1,5.8c0,1.9,1,2.4,2.8,2.4c0.5,0,1.2-0.1,1.5-0.1s0.5,0.1,0.5,0.4c0,0.8-0.1,1.6-0.3,2.3
		c-0.2,0.4-0.4,0.5-0.8,0.5c-3.7,0-6.8-1-6.8-5.3c0-1.8,0.6-3.6,1.7-5c0.1-0.1,0.2-0.3,0.2-0.4c0-0.2-0.1-0.3-0.4-0.3
		c-0.4,0-0.7,0.1-1.1,0.2c-1.1,0.2-2.4,0.5-3.5,0.8c-0.1,0-0.2,0-0.3,0C36.1,71.9,36,71.3,35.9,71z"/>
	<path class="st0" d="M57.6,68.8c0.2,0,0.4,0.1,0.4,0.3s-0.1,0.1-0.2,0.2c-0.2,0.2-0.4,0.6-0.4,0.9c-0.2,0.9-0.3,1.9-0.3,2.8
		c0,1.3,0.2,2.6,0.7,3.8c0.2,0.3,0.5,1,1,1s0.9-0.8,1.1-1.1s0.3-0.5,0.6-0.5c0.6,0,2.1,1.1,2.1,1.6s-0.9,1.5-1.3,1.9
		c-0.6,0.8-1.5,1.4-2.5,1.4c-1.3-0.1-2.5-0.9-3.2-2c-1.5-2.1-1.6-5-1.6-7.5c0-0.4,0.1-2.8,0.1-3.1s0.1-0.3,0.3-0.3
		S57.1,68.7,57.6,68.8z M64.9,68.2c0.5,0,2.1,1.2,3,2.7c0.8,1.3,1.3,2.6,1.5,4.1c0,0.3,0.1,0.8,0.1,1c0,0.4-0.1,0.6-0.5,0.7
		c-0.6,0.2-1.3,0.3-1.9,0.3c-0.7,0-0.8-0.3-0.8-1c0-2.2-1.1-4.3-2.9-5.7c-0.1-0.1-0.2-0.2-0.2-0.3C63.2,69.6,64.3,68.2,64.9,68.2z"
		/>
	<path class="st0" d="M83.9,68.4c0,0.1-0.1,0.2-0.2,0.3c-0.9,0.6-1.7,1.3-2.5,2C81.1,70.8,81,70.9,81,71c0,0.2,0.2,0.4,0.5,0.4
		c0,0,0,0,0,0h0.2c0.5,0,0.9,0.1,1.4,0.2c2.1,0.6,3.6,2.5,3.5,4.7c0,3.8-3.3,5.7-6.8,5.7c-1.9,0-4.4-0.8-4.4-3.1
		c0.1-1.6,1.4-2.8,3-2.8c1,0,2,0.5,2.7,1.3c0.2,0.3,0.4,0.6,0.5,1c0.1,0.2,0.3,0.4,0.5,0.4c0.5,0,1.4-1,1.4-2.3
		c0-1.7-1.4-2.5-2.9-2.5c-1.4,0-2.8,0.6-3.9,1.5c-0.9,0.8-1.7,1.6-2.5,2.5c-0.3,0.4-0.4,0.5-0.5,0.5c-0.5,0-2-1.6-2-2
		s0.2-0.4,0.6-0.7s3.8-3.7,4.5-4.4c0.4-0.4,0.7-0.7,1-1.1c0.1-0.1,0.3-0.3,0.3-0.5s-0.3-0.3-0.4-0.3s-2.2,0.4-2.8,0.5
		c-0.1,0-0.2,0-0.2,0c-0.5,0-0.6-2.3-0.6-2.6v-0.2c0-0.3,0.1-0.3,0.6-0.3h0.5c1.8,0,3.6-0.2,5.3-0.7c0.3-0.1,0.6-0.3,0.9-0.3
		C82.3,66,83.9,68,83.9,68.4z M78.4,78.5c-0.3,0-0.6,0.2-0.6,0.5c0,0,0,0,0,0c0,0.5,0.7,0.8,1.2,0.8c0.3,0,0.5-0.2,0.5-0.4
		c0,0,0,0,0,0C79.3,78.8,78.9,78.5,78.4,78.5z"/>
	<path class="st0" d="M96,79.6c0,1.1-0.8,2-1.9,2.1c-0.1,0-0.1,0-0.2,0c-1,0.1-1.8-0.6-1.9-1.6c0-0.1,0-0.1,0-0.2
		c-0.1-1.1,0.8-2.1,1.9-2.1c0.1,0,0.1,0,0.2,0c1-0.1,1.9,0.7,1.9,1.7C96,79.5,96,79.6,96,79.6z M93.3,76.5c-0.5,0-0.6-0.1-0.6-0.6
		l-0.2-4.7c-0.1-1.2-0.2-4-0.2-4.4s0.1-0.4,0.6-0.4h2.4c0.4,0,0.6,0.1,0.6,0.4s-0.2,3.1-0.2,4.6l-0.2,4.5c0,0.5-0.1,0.6-0.6,0.6
		H93.3z"/>
</g>
<g>
	<path class="st0" d="M13.2,108.6c0.6,0,1.3,0,1.9,0s1.3,0,1.3,0.7c0,0.3,0,0.7,0,1.2v3.8c0,0.6,0,1.3,0,1.4c0,0.3-0.2,0.4-0.9,0.4
		h-1c-0.7,0-0.9,0-0.9-0.4s-0.3-0.5-0.7-0.5H8.2c-0.4,0-0.6,0.2-0.6,0.6s-0.2,0.4-0.8,0.4H5.5c-0.5,0-0.7,0-0.7-0.4
		c0-0.2,0.1-0.9,0.1-1.4V112c0-0.2,0-0.4-0.2-0.4c-0.2,0-0.3,0.1-0.4,0.2c-0.3,0.3-1.5,1.5-2,1.5c-0.8-0.4-1.5-1.1-1.9-2
		c0-0.3,0.3-0.5,0.5-0.6c1-0.8,2-1.6,2.8-2.6c0.1-0.2,0.4-0.4,0.4-0.6s-0.2-0.2-0.3-0.2H2.8c-0.5,0-0.5-0.2-0.5-0.7v-0.8
		c0-0.5,0-0.7,0.5-0.7c0.7,0,1.3,0,2,0s0.7-0.2,0.8-0.5c0-0.1,0.1-0.1,0.1-0.2c0-0.3-0.3-0.4-0.5-0.4H3.5c-0.8,0-1.6,0.1-2.5,0.1
		c-0.4,0-0.5-0.2-0.5-0.7v-1c0-0.5,0-0.7,0.5-0.7c0.8,0,1.7,0,2.5,0h2.1c0.3,0,0.6-0.1,0.6-0.4s-0.4-0.6-0.8-0.6H4.1
		c-0.6,0-1.1,0-1.5,0s-0.3-0.2-0.3-0.6v-1c0-0.5,0-0.7,0.3-0.7s0.9,0,1.5,0H13c0.6,0,1.2,0,1.8,0s0.9,0.2,0.9,1c0,0.6,0,1.1,0,1.7
		c0,0.3,0.2,0.6,0.5,0.6c0,0,0.1,0,0.1,0c0.5,0,1.1,0,1.6,0s0.5,0.2,0.5,0.7v0.9c0,0.5,0,0.7-0.4,0.7s-1.1,0-1.6,0
		c-0.3,0-0.6,0.2-0.6,0.6c0,0,0,0,0,0.1v0.5c0,0.7,0.1,1.4,0.1,2s-0.2,0.7-0.9,0.7h-0.7c-0.8,0-1,0-1.2-0.3s-0.4-0.2-0.6-0.2H8
		c-0.5,0-0.7,0.2-0.8,0.6c0,0.1-0.1,0.2-0.1,0.2c0,0.1-0.1,0.1-0.1,0.2c0,0.3,0.3,0.3,0.7,0.3L13.2,108.6z M13.1,112.8
		c0.3,0,0.6-0.2,0.6-0.6v-0.9c0-0.3-0.3-0.6-0.6-0.6H8c-0.3,0-0.6,0.3-0.6,0.6v0.9c0,0.3,0.2,0.6,0.5,0.6c0,0,0,0,0,0H13.1z
		 M12.5,105.1c0.3,0,0.5-0.2,0.5-0.5v-0.2c0-0.3-0.2-0.5-0.5-0.5H9.3c-0.6,0-0.8,0.2-0.9,0.6c0,0.1-0.1,0.2-0.1,0.2
		c0,0.3,0.2,0.3,0.5,0.3L12.5,105.1z M12.5,101.7c0.3,0,0.5-0.2,0.5-0.5c0,0,0,0,0,0l0,0c0-0.3-0.2-0.5-0.5-0.5c0,0,0,0,0,0H9.9
		c-0.5,0-0.8,0.1-0.8,0.6c0,0.3,0.3,0.4,0.5,0.4L12.5,101.7z"/>
	<path class="st0" d="M28.5,98.9c0.2,0.1,0.3,0.2,0.3,0.3s-0.1,0.2-0.2,0.2c-0.3,0.1-0.5,0.2-0.7,1l-0.4,1.1c0,0.1-0.1,0.2-0.1,0.3
		c0,0.4,0.3,0.5,0.9,0.5c0.5,0,1,0.1,1.5,0.1s0.6,0,0.6,0.4c0,0.6-0.1,1.2-0.3,1.8c-0.1,0.5-0.2,0.7-0.5,0.7
		c-0.8-0.1-1.7-0.2-2.5-0.3c-0.1,0-0.1,0-0.2,0c-0.5,0-0.5,0.4-0.6,0.8v0.2c0,0.1,0,0.2,0,0.3c0,0.5,0.5,0.5,2,0.5
		c0.5,0,0.9,0,0.9,0.4c0,0.7-0.2,1.3-0.4,1.9c-0.1,0.4-0.3,0.6-0.8,0.6c-0.6,0-1.1-0.1-1.7-0.2c0,0-0.1,0-0.1,0
		c-0.4,0-0.5,0.4-0.5,0.6v0.1c0,0.4,0.1,0.9,0.3,1.3c0.4,0.6,1.2,1,1.9,0.9c0.8,0,1.5-0.2,2.2-0.5c0.4-0.3,0.7-0.8,0.6-1.3
		c-0.1-1-0.3-1.9-0.6-2.8c-0.1-0.1-0.1-0.3-0.1-0.5c0-0.3,0.1-0.4,0.7-0.6c0.5-0.2,1.1-0.3,1.7-0.4c0.4,0,0.5,0.4,0.7,1
		c0.4,1.1,0.6,2.3,0.6,3.6c0.1,1.4-0.6,2.7-1.8,3.4c-1.2,0.7-2.7,1.1-4.1,1.1c-3.5,0-5.2-2-5.2-5.4c0-0.2,0.1-0.8,0.1-0.9
		c0-0.4-0.3-0.5-0.6-0.6c-1.3-0.5-1.6-0.6-1.6-1c0-0.5,0.1-0.9,0.3-1.4c0.1-0.5,0.3-1.1,0.7-1.1c0.2,0,0.4,0.1,0.6,0.2
		c0.3,0.2,0.5,0.3,0.9,0.4c0.2,0,0.4-0.1,0.5-0.5c0.1-0.2,0.1-0.4,0.1-0.6c0-0.4-0.2-0.5-0.5-0.6c-1.6-0.6-1.7-0.8-1.7-1.1
		s0.5-2.4,1.1-2.4c0.3,0.1,0.5,0.2,0.7,0.4c0.3,0.2,0.7,0.4,1.1,0.5c0.3,0,0.4-0.2,0.5-0.5c0.2-0.6,0.5-1.6,0.7-2.3
		c0.1-0.3,0.1-0.4,0.3-0.4C26.6,98.2,27.5,98.5,28.5,98.9z"/>
	<path class="st0" d="M48.2,101.3c0.4,0,0.8,0,1.1-0.1c0.1,0,0.1,0,0.2,0c0.5,0,1.3,1.2,1.3,1.7c0,0.1,0,0.2-0.1,0.2
		c-0.2,0.3-0.3,0.7-0.5,1c-0.5,1.2-1.1,2.4-1.8,3.5c-0.1,0.1-0.2,0.3-0.2,0.5c0,0.2,0.1,0.4,0.3,0.5c0.2,0.2,1,0.8,1,1
		s-1.4,2.1-1.9,2.1c-0.1,0-0.2-0.1-0.3-0.2c-0.2-0.2-0.8-0.8-1.1-0.8c-0.2,0-0.3,0.1-0.4,0.2c-1.1,1.1-2.3,2.1-3.6,2.9
		c-1,0.7-2.1,1.1-3.3,1.5c-0.5,0-0.9-0.6-1.2-0.9c-0.3-0.4-0.6-0.8-0.8-1.3c0-0.2,0.2-0.3,0.7-0.4l0.3-0.1c2.6-0.7,5.7-3.1,5.7-3.6
		c0-0.2-0.1-0.3-0.3-0.4c-0.5-0.3-1.1-0.6-1.7-0.8c-0.2-0.1-0.6-0.3-0.6-0.5s1.1-2.1,1.7-2.1c0.8,0.3,1.5,0.6,2.2,1.1
		c0.1,0.1,0.3,0.1,0.4,0.1c0.3,0,0.5-0.3,0.7-0.7c0.2-0.4,0.4-0.8,0.5-1.3c0-0.3-0.4-0.4-0.7-0.4h-2.7c-0.6,0-0.7,0-1,0.4
		c-0.7,1-1.5,1.9-2.3,2.7c-0.2,0.2-0.7,0.7-1,0.7c-0.5-0.2-1-0.4-1.4-0.8c-0.5-0.4-0.9-0.8-0.9-0.9s0.2-0.4,0.4-0.5
		c2.4-1.9,4.3-4.4,5.4-7.3c0.1-0.2,0.2-0.5,0.4-0.5c0.8,0.3,1.6,0.6,2.3,0.9c0.4,0.1,0.6,0.3,0.8,0.3s0.1,0.1,0.1,0.1s0,0.1-0.2,0.2
		s-0.4,0.3-0.6,0.6c-0.2,0.2-0.3,0.4-0.3,0.7c0,0.2,0.2,0.3,0.4,0.3H48.2z"/>
	<path class="st0" d="M58.1,100.8c0.4,0,0.7,0.1,0.7,0.2c0,0.1-0.1,0.1-0.1,0.2c-0.2,0.2-0.3,0.5-0.2,0.8c0,0.2,0,0.5,0,0.7
		c0,1.7-0.1,3.4-0.4,5.1c-0.4,2.1-1.5,4-3,5.6c-0.2,0.2-0.6,0.6-0.8,0.6c-0.7-0.2-1.4-0.6-2-1c-0.2-0.1-0.5-0.3-0.5-0.6
		s0.2-0.3,0.3-0.4c3-2.5,3.3-5.2,3.3-8.8c0-0.9-0.1-2.3-0.1-2.4s0.1-0.2,0.3-0.2C56,100.6,57.6,100.7,58.1,100.8z M63.1,108
		c0,0.8,0,1.1,0.4,1.1c0.7,0,3.9-3,4.5-3.6c0.1-0.1,0.2-0.3,0.4-0.3s0.6,0.6,0.9,1.1c0.2,0.4,0.4,0.8,0.5,1.2c0,0.4-0.6,0.9-0.9,1.2
		l-0.2,0.2c-1,0.8-1.9,1.6-2.9,2.4c-0.8,0.7-1.7,1.3-2.5,2c-0.2,0.2-0.5,0.5-0.8,0.5c-0.6-0.2-1.2-0.4-1.8-0.8
		c-0.3-0.2-0.9-0.5-0.9-0.9s0.1-1.3,0.1-2.4v-6.3c0-0.4,0-1.1,0-1.7c0-0.5,0-0.9,0-1.2c0-0.1,0-0.1,0-0.2c0-0.1,0.1-0.2,0.2-0.2
		l1,0.1l2,0.2c0.2,0,0.3,0.1,0.3,0.2s-0.1,0.2-0.2,0.3c-0.2,0.2-0.2,0.5-0.2,0.8c0,0.6,0,1.2,0,1.8L63.1,108z"/>
	<path class="st0" d="M85.4,103.1c0.9,1,1.5,2.4,1.4,3.7c0,2-1,3.8-2.5,5c-1.1,0.9-2.3,1.5-3.7,1.9c-1,0.3-2.1,0.6-3.2,0.7
		c-0.5,0-0.6-0.3-0.8-0.7c-0.3-0.6-0.5-1.2-0.6-1.9c0-0.4,0.4-0.5,0.8-0.5c2.5-0.2,6.8-1.4,6.8-4.5c0-1.2-1-2.2-2.2-2.3
		c-0.1,0-0.2,0-0.3,0c-2.7,0-5.6,1.5-7.9,2.7c-0.2,0.1-0.4,0.2-0.6,0.2c-0.9,0-2.1-2.1-2.1-2.9c0-0.3,0.3-0.4,0.5-0.4
		c1.8-0.5,3.5-1.1,5.3-1.7c1.5-0.6,3.1-0.9,4.7-0.9C82.6,101.4,84.2,102,85.4,103.1z M87.4,101.7c0,0.3-0.9,1.1-1.2,1.1
		c-0.1,0-0.2,0-0.2-0.1c-0.5-0.6-1-1.1-1.6-1.7c-0.1-0.1-0.2-0.2-0.2-0.3c0-0.3,1-1.1,1.2-1.1C86.2,100.3,86.9,101,87.4,101.7
		L87.4,101.7z M87.6,98.2c0.3,0.2,1.7,1.5,1.7,1.8s-0.9,1.2-1.2,1.2c-0.1,0-0.1-0.1-0.3-0.2c-0.6-0.6-1-1-1.6-1.6
		c-0.1-0.1-0.2-0.2-0.2-0.3c0-0.3,1-1.1,1.2-1.1C87.5,98,87.5,98.1,87.6,98.2L87.6,98.2z"/>
	<path class="st0" d="M98.2,98.6c0.3,0.4,0.7,0.7,1,1.1l0.2,0.2c0.4,0.4,1.2,1.2,1.2,1.4s-0.1,0.1-0.4,0.1c-0.2,0-0.4,0.1-0.5,0.2
		c-0.9,0.6-1.7,1.3-2.5,2s-1.8,1.5-2.7,2.3c-0.2,0.2-0.4,0.4-0.4,0.7c0,0.3,0.5,0.9,0.8,1.2c0.1,0.1,0.1,0.1,0.2,0.2
		c1.1,1.1,2.3,2.2,3.5,3.2c0.7,0.6,1.7,1.5,1.7,1.9c0,0.6-1.8,2.3-2.4,2.3c-0.1,0-0.4-0.2-0.6-0.5c-1.2-1.5-2.6-2.8-3.9-4.2
		c-0.8-0.8-1.5-1.6-2.2-2.4c-0.4-0.5-0.7-1.2-0.7-1.9c0-0.5,0.2-1.1,0.5-1.5c0.8-0.9,1.8-1.8,2.8-2.5c1.4-1.1,2.7-2.3,3.8-3.7
		c0.1-0.1,0.2-0.3,0.4-0.3C98,98.5,98.1,98.5,98.2,98.6z"/>
	<path class="st0" d="M109.7,100.3c0.3,0.1,0.4,0.2,0.4,0.3s-0.1,0.1-0.2,0.2c-0.5,0.2-0.8,0.7-0.9,1.2c-0.4,1-0.6,2-0.6,3
		c0,0.1,0,0.3,0.2,0.3s0.2-0.1,0.3-0.4s0.2-0.5,0.4-0.5s1.1,0.6,1.1,0.9c0,0.1,0,0.2-0.1,0.3c-0.6,1.3-1,2.7-1.2,4.1v0.5
		c0,0.5-0.4,0.7-0.8,0.8c-0.4,0.2-0.8,0.2-1.2,0.3c-0.6,0-0.8-0.5-1-0.9c-0.5-1.6-0.7-3.2-0.7-4.8c0-1.5,0.2-3,0.5-4.4
		c0.1-0.5,0.3-1.1,0.4-1.6c0.1-0.3,0.1-0.6,0.3-0.6C107.7,99.4,108.7,99.8,109.7,100.3z M114.5,98.8c0.5-0.1,1-0.2,1.5-0.2
		c0.4,0,0.5,0.1,0.6,0.6c0.4,2,0.7,4,0.7,6.1c0,3.4-0.6,6.4-3.1,9c-0.4,0.4-1.2,1.3-1.8,1.3c-0.3,0-0.9-0.5-1.2-0.8
		c-0.5-0.5-0.9-0.8-0.9-1.2c0-0.1,0.1-0.2,0.3-0.4c1.1-0.7,2-1.8,2.6-3c0.6-1.4,0.9-3,0.8-4.6c0-2-0.3-4-0.7-6c0-0.1,0-0.2,0-0.3
		C113.3,99.1,113.6,99,114.5,98.8z"/>
	<path class="st0" d="M122.1,101c0.1-0.4,0.2-0.8,0.3-1.1s0.1-0.6,0.3-0.6c1,0.3,2,0.7,3,1.1c0.4,0.2,0.5,0.3,0.5,0.4
		s-0.1,0.1-0.1,0.2c-0.4,0.1-0.6,0.4-0.8,0.8c-0.7,1.8-1.2,3.7-1.2,5.7c0,1.1,0,1.6,0.3,1.6s0.2-0.2,0.3-0.3s0.2-0.4,0.5-0.4
		s1,0.7,1,1c-0.4,0.9-0.7,1.9-0.9,2.9c0,0.1,0,0.6,0.1,0.9c0,0.2,0,0.4,0.1,0.6c0,0.7-1.5,1.3-2.1,1.3c-0.4,0-0.6-0.3-0.9-1
		c-0.9-2-1.4-4.2-1.3-6.4C121.1,105.4,121.5,103.2,122.1,101z M127.8,109.6c0.6,0.9,1.7,1.4,2.8,1.3c1.5,0,3-0.2,4.4-0.6
		c0.2,0,0.3-0.1,0.5-0.1c0.3,0,0.4,0.3,0.4,0.4c0.1,0.7,0.1,1.4,0.1,2.1c0,0.3,0,0.4-0.3,0.5c-1.6,0.4-3.3,0.6-5,0.6
		c-3.2,0-4.7-1.6-4.7-2.1s1-2.4,1.5-2.4C127.7,109.4,127.8,109.5,127.8,109.6L127.8,109.6z M127.8,100.9c0.2,0,0.4,0,0.6,0.1
		c0.9,0.2,1.8,0.3,2.6,0.3c1,0,2-0.1,3-0.4c0.1,0,0.3-0.1,0.4-0.1c0.4,0,0.5,0.4,0.5,0.7c0.1,0.5,0.1,1.1,0.1,1.6
		c0,0.5-0.1,0.6-0.6,0.7c-1.1,0.2-2.2,0.2-3.4,0.2c-0.6,0-3.4-0.1-3.8-0.4c-0.2-0.1-0.2-0.7-0.2-1
		C127.2,101.2,127.3,100.9,127.8,100.9L127.8,100.9z"/>
</g>
<g>
	<path class="st0" d="M7.4,144c-0.1,0.1-0.2,0.4-0.3,0.4s-0.6-1.1-0.7-1.3c-0.2-0.5-0.4-1-0.5-1.5c0-0.3,0.2-0.3,0.4-0.4
		c0.2-0.1,0.3-0.1,0.5-0.2c0.5-0.3,0.9-0.5,1.4-0.9c0.2-0.2,0.4-0.3,0.5-0.5c0-0.3,0.1-0.5,0.1-0.8c0-0.3,0-0.6-0.2-0.6
		c-0.2,0-0.5,0.1-0.7,0.2c-0.2,0.1-0.5,0.2-0.7,0.2c-0.2,0-0.2-0.1-0.2-0.3c-0.2-0.8-0.4-1.5-0.6-2.2c0-0.1-0.1-0.2-0.1-0.2
		s-0.1,0.2-0.1,0.2c0,0.4,0,0.7-0.5,0.7H5.2c-0.3,0-0.6,0.2-0.6,0.5v1.3c0,0.1,0,0.3,0.2,0.3c0.2,0,0.5-0.1,0.7-0.2
		c0.2-0.1,0.3-0.2,0.5-0.2c0.3,0,0.3,1.3,0.3,1.6c0,0.9,0,0.9-1.3,1.6c-0.3,0.1-0.5,0.4-0.4,0.7v2.6c0,0.5,0,1,0,1.5
		c0,1.9-1.4,2.4-3,2.4c-0.7,0-1.1-0.2-1.1-2c0-0.4,0-0.9,0.4-0.9s0.6,0,0.8,0s0.3-0.1,0.3-1v-1.8c0-0.1-0.1-0.2-0.2-0.2c0,0,0,0,0,0
		c-0.2,0-0.3,0.2-0.3,0.3s-0.1,0.3-0.3,0.3s-0.4-0.5-0.6-1.4c-0.1-0.4-0.2-0.8-0.3-1.3c0-0.3,0.2-0.4,0.7-0.5l0.4-0.1
		c0.4-0.1,0.7-0.4,0.6-0.8c0,0,0,0,0,0v-2.2c0-0.3-0.3-0.5-0.6-0.5H1c-0.5,0-0.5-0.2-0.5-0.7v-1.1c0-0.6,0-0.8,0.5-0.8h0.4
		c0.5,0,0.6-0.4,0.6-1c0-0.2,0-0.5,0-0.8c0-0.5,0-1.1,0-1.2c0-0.3,0.2-0.3,0.4-0.3c0.5,0,1.5,0,2.1,0.1c0.3,0,0.6,0,0.6,0.3
		s-0.1,0.2-0.2,0.3s-0.2,0.5-0.2,1v0.9c0,0.4,0.2,0.7,0.6,0.7h0.5c0.5,0,0.5,0.2,0.5,0.3s0.1,0.2,0.2,0.2c0.1,0,0.2,0,0.3-0.1
		c0.3-0.2,0.6-0.3,1-0.4c0.3,0,0.4,0.4,0.8,1.6c0,0.1,0.1,0.2,0.2,0.2s0.1-0.2,0.1-0.3v-2.4c0-0.8,0-2,0-2.1c0-0.3,0.2-0.3,0.4-0.3
		s2.2,0.1,2.4,0.1s0.3,0.1,0.3,0.3s-0.1,0.2-0.2,0.3s-0.3,0.3-0.3,0.5v6.1c0,3.5,0,6.5-1.7,9c-0.2,0.4-1.4,1.9-1.8,1.9
		S6,147.9,6,147.3c0-0.1,0.2-0.3,0.3-0.4c0.9-0.8,1.6-1.9,2.1-3c0.1-0.3,0.2-0.6,0.3-0.9c0,0,0-0.1-0.1-0.1c0,0,0,0,0,0
		c-0.2,0.1-0.4,0.3-0.6,0.4c-0.1,0.1-0.2,0.2-0.2,0.2C7.6,143.7,7.5,143.8,7.4,144z M15,144.7c0,0.9,0,1.1,0.3,1.1h0.1
		c0.4,0,0.4-0.3,0.5-1.4c0-0.3,0.1-0.4,0.4-0.4c0.6,0,2.3,0.1,2.3,1c-0.1,1-0.4,2-0.9,2.9c-0.4,0.6-1.1,0.9-1.7,0.7h-1
		c-1.5,0-2.6-0.4-2.6-2.1c0-0.6,0-1.2,0-1.8V134c0-0.4,0-0.8,0-1.3c0-0.4,0-0.9-0.1-1.3c0-0.1,0-0.1,0-0.2c0-0.2,0.2-0.3,0.4-0.3
		c0.5,0,1.6,0.1,2.2,0.1c0.3,0,0.6,0,0.6,0.3s-0.1,0.2-0.2,0.3c-0.1,0.1-0.2,0.3-0.2,0.5c0,0.3,0,0.6,0,0.9v2.6c0,0.1,0,0.3,0.1,0.3
		s0.8-1.6,0.9-1.9s0.1-0.2,0.2-0.2c0.3,0.1,0.7,0.2,1,0.4l0.2,0.1c0.2,0.1,1.1,0.5,1.1,0.8s-0.2,0.2-0.4,0.2s-0.2,0.2-0.3,0.3
		c-0.2,0.4-1.2,2.7-1.6,2.7c-0.3,0-0.5-0.1-0.8-0.2c-0.1-0.1-0.3-0.1-0.4-0.1c-0.2,0-0.2,0.2-0.2,0.3v0.6c0,0.1,0,0.3,0.2,0.3
		c0.2,0,0.4-0.1,0.5-0.2c0.2-0.1,0.3-0.2,0.5-0.2c0.1,0,0.2,0.1,0.3,0.2c0.4,0.5,0.7,1,1,1.5c0.4,0.5,0.7,1.1,0.9,1.7
		c0,0.4-1.6,1.1-1.9,1.1s-0.2-0.1-0.3-0.2c-0.1-0.3-0.5-1-0.7-1.3c-0.1-0.1-0.3-0.6-0.5-0.6s-0.1,0.2-0.1,0.2L15,144.7z"/>
	<path class="st0" d="M25.4,135c0.5,0,0.9-0.3,1.1-0.7c0.5-1,1-2.1,1.3-3.1c0-0.1,0.1-0.3,0.2-0.3c0.5,0.2,1,0.4,1.5,0.6
		c0.3,0.2,0.6,0.3,0.8,0.3s0.4,0.2,0.4,0.4s-0.2,0.2-0.3,0.3c-0.3,0-0.4,0.2-0.7,0.7c-0.1,0.3-0.3,0.6-0.6,1.1
		c-0.1,0.2-0.2,0.4-0.2,0.6c0,0.1,0.1,0.3,0.1,0.4c0.1,0.2,0.2,0.5,0.1,0.7c0,0.3,0,0.7,0,1.3v2.8c0,0.8,0,1.5,0,2.3s-0.3,0.9-1,0.9
		c-0.5,0-1.1-0.1-1.6-0.1h-0.2c-0.2,0-0.3,0.1-0.3,0.3l0,0v0.1c0,0.3,0.2,0.5,0.5,0.5h0.6c0.6,0,1.2,0,1.9,0s0.5,0.2,0.5,0.7v0.6
		c0,0.6-0.1,0.7-0.5,0.7c-0.6,0-1.3,0-1.9,0h-0.5c-0.3,0-0.6,0.3-0.6,0.6c0,0.7,0,1.3,0,2c0,0.5-0.2,0.5-0.8,0.5h-1.1
		c-0.6,0-0.8,0-0.8-0.5c0-0.7,0-1.3,0-2c0-0.3-0.2-0.6-0.5-0.6h-0.7c-0.6,0-1.3,0-1.9,0c-0.4,0-0.5-0.2-0.5-0.6v-0.7
		c0-0.5,0-0.8,0.5-0.8s1.2,0,1.9,0H23c0.3,0,0.5-0.2,0.5-0.5c0,0,0,0,0,0v-0.1c0-0.2-0.1-0.3-0.3-0.3c0,0,0,0,0,0H23
		c-0.6,0-1.1,0.1-1.6,0.1s-1-0.2-1-0.9s0-1.5,0-2.3v-2.8c0-0.5,0-1,0-1.5c0-0.3,0.1-0.5,0.4-0.7c0.1,0,0.2-0.2,0.2-0.3
		c0-0.1-0.1-0.3-0.1-0.4c-0.2-0.6-0.6-1.3-0.9-1.8c0-0.1-0.1-0.2-0.1-0.3c0-0.5,1.5-1,1.9-1s0.5,0.3,1,1.4c0.3,0.5,0.5,1,0.6,1.5
		c0,0.3-0.5,0.5-0.7,0.6c-0.1,0-0.3,0.1-0.3,0.2s0.1,0.1,0.2,0.1L25.4,135z M23.4,137.4c0-0.2-0.1-0.3-0.3-0.3c0,0,0,0,0,0H23
		c-0.2,0-0.3,0.1-0.3,0.3l0,0v0.4c0,0.2,0.1,0.3,0.3,0.3c0,0,0,0,0,0h0.1c0.2,0,0.3-0.1,0.3-0.3c0,0,0,0,0,0L23.4,137.4z
		 M23.1,140.9c0.2,0,0.3-0.1,0.3-0.3c0,0,0,0,0,0v-0.4c0-0.2-0.2-0.3-0.3-0.3H23c-0.2,0-0.3,0.1-0.3,0.3v0.4
		C22.7,140.8,22.8,140.9,23.1,140.9C23,140.9,23,140.9,23.1,140.9L23.1,140.9z M26,132.5c0.2,0.4,0.3,0.8,0.4,1.3
		c0,0.4-1.8,0.8-1.9,0.8c-0.3,0-0.3-0.2-0.4-0.5c-0.3-0.7-0.5-1.5-0.9-2.2c0-0.1-0.1-0.1-0.1-0.2c0-0.4,1.5-0.9,1.8-0.9
		S25.4,130.8,26,132.5z M26,137.8c0,0.2,0.1,0.3,0.3,0.3c0,0,0,0,0,0h0.1c0.2,0,0.3-0.1,0.3-0.3l0,0v-0.4c0-0.2-0.1-0.3-0.3-0.3
		c0,0,0,0,0,0h-0.1c-0.2,0-0.3,0.1-0.3,0.3l0,0V137.8z M26.3,139.9c-0.2,0-0.3,0.1-0.3,0.3v0.4c0,0.2,0.1,0.3,0.3,0.3c0,0,0,0,0,0
		h0.1c0.2,0,0.3-0.1,0.3-0.3l0,0v-0.4c0-0.2-0.1-0.3-0.3-0.3H26.3z M29.8,135.9c1,0,1.2,0,1.2-1c0-0.5,0-1.1,0-2.1v-1.4
		c0-0.4,0.1-0.5,0.5-0.5c0.1,0,1.8,0.1,2.1,0.1c0.4,0,0.6,0.1,0.6,0.4s-0.2,0.3-0.3,0.4s-0.2,0.3-0.2,0.6v0.5c0,0.7,0,1.5,0,2.2
		c0,0.4,0.2,0.7,0.6,0.7s2.2-0.1,2.8-0.2l0,0c0.4,0,0.5,0.6,0.5,1.4v0.6c0,0.7-0.1,0.6-1.2,0.7l-1.7,0.1c-0.4,0-1,0-1,0.6
		c0,0.3,0.1,1.2,0.1,1.5s0,0.5,0.1,0.5c0.3-0.4,0.6-0.9,0.9-1.4l0.1-0.2c0.1-0.3,0.2-0.5,0.4-0.5c0.3,0.1,0.5,0.2,0.7,0.3l0.5,0.3
		l0.2,0.1c0.4,0.2,1,0.5,1,0.7s-0.2,0.2-0.3,0.2c-0.3,0.1-0.3,0.1-0.5,0.4c-0.6,1.1-1.3,2.2-2.2,3.3c-0.1,0.1-0.2,0.3-0.2,0.5
		c0,0.2,0.3,1,0.6,1s0.5-1.2,0.5-1.4s0.2-0.4,0.6-0.4c0.6,0,1.5,0.3,1.5,1.2c0,0.8-0.2,1.7-0.5,2.4c-0.2,0.9-1,1.6-2,1.7
		c-1.1,0-2.2-0.7-2.6-1.8c-0.1-0.1-0.2-0.3-0.4-0.3s-0.4,0.2-0.6,0.3c-0.4,0.3-2,1.6-2.4,1.6s-1.6-1.3-1.6-1.8
		c0-0.2,0.4-0.4,0.5-0.6c1.1-0.7,2.2-1.5,3.1-2.4c0.1-0.2,0.2-0.4,0.2-0.6c0-0.2,0-0.3-0.1-0.5c-0.2-1.3-0.3-2.6-0.4-3.9
		c0-0.4-0.1-0.7-0.6-0.7c-0.2,0-0.4,0.1-0.6,0.1s-0.4-0.2-0.4-0.4c-0.1-0.5-0.1-1-0.1-1.4c0-0.6,0-0.8,0.4-0.8L29.8,135.9z
		 M35.6,131.3c0.5,0,2.1,2.6,2.1,2.8s-1.6,1.2-1.9,1.2s-0.2-0.1-0.3-0.3c-0.5-0.8-1-1.6-1.6-2.4c0-0.1-0.1-0.1-0.1-0.2
		C33.9,132.1,35.3,131.3,35.6,131.3L35.6,131.3z"/>
	<path class="st0" d="M45.3,132.8c0.2,0,0.4,0.1,0.4,0.3c0,0.1-0.1,0.1-0.1,0.2c-0.3,0.2-0.4,0.4-0.5,0.9c-0.5,2.5-0.7,5-0.6,7.5
		c0,1.6,0,3.2,1.6,3.2c1.3-0.1,2.5-0.7,3.2-1.7c0.7-0.8,1.1-1.8,1.3-2.9c0.1-0.4,0.1-0.8,0.5-0.8s1,0.5,1.4,0.8s1,0.9,1,1.4
		c-0.1,0.9-0.4,1.7-0.9,2.5c-1.2,2.4-3.7,3.9-6.3,3.9c-1.5,0.1-2.9-0.5-3.9-1.6c-1-1.3-1.1-3.4-1.1-5c0-2.3,0.2-4.8,0.4-6.9
		c0-0.4,0.1-1.1,0.1-1.6s0-0.7,0.3-0.7S44.6,132.6,45.3,132.8z"/>
	<path class="st0" d="M54.7,137c-0.2-0.7-0.3-1.4-0.3-2.1c0-0.6,0.3-0.6,1.3-0.7c3-0.2,5.9-0.4,8.8-0.8c1.4-0.2,3.1-0.4,4.5-0.6
		c0.1,0,0.1,0,0.2,0c0.4,0,0.5,0.3,0.5,0.7c0.1,0.7,0.2,1.5,0.2,2.2c0,0.4-0.2,0.4-1.1,0.4c-1-0.1-2,0.1-2.9,0.4
		c-2.5,0.9-4.1,3.2-4.1,5.8c0,1.9,1,2.4,2.8,2.4c0.5,0,1.2-0.1,1.5-0.1s0.5,0.1,0.5,0.4c0,0.8-0.1,1.6-0.3,2.3
		c-0.2,0.4-0.4,0.5-0.8,0.5c-3.7,0-6.8-1-6.8-5.3c0-1.8,0.6-3.6,1.7-5c0.1-0.1,0.2-0.3,0.2-0.4c0-0.2-0.1-0.3-0.4-0.3
		c-0.4,0-0.7,0.1-1,0.2c-1.1,0.2-2.4,0.5-3.5,0.8c-0.1,0-0.2,0-0.3,0C54.8,137.9,54.7,137.3,54.7,137z"/>
	<path class="st0" d="M76.3,146.3c0,0.6-1.4,2.1-2,2.1c-0.2,0-0.3-0.2-0.4-0.3c-1-1.1-2.1-2.1-3.3-2.9c-0.1-0.1-0.2-0.2-0.2-0.3
		c0-0.4,1.4-1.9,1.9-1.9S76.3,145.8,76.3,146.3z"/>
	<path class="st0" d="M89.1,135.5c0.3,0,0.6-0.2,0.6-0.5v-2.4c0-0.5,0-1-0.1-1.5c0-0.2,0.2-0.2,0.4-0.2c0.4,0,2,0,2.4,0.1
		c0.2,0,0.5,0.1,0.5,0.3s-0.1,0.2-0.2,0.3s-0.2,0.7-0.2,1.2v2.3c0,0.3,0.2,0.5,0.5,0.5c0,0,0,0,0,0h0.8c0.3,0,0.5-0.2,0.6-0.5v-2.2
		c0-0.5,0-0.9-0.1-1.4c0-0.2,0.2-0.3,0.4-0.3c0.7,0,1.5,0,2.2,0.1c0.2,0,0.6,0,0.6,0.3c0,0.1-0.1,0.2-0.2,0.3
		c-0.2,0.3-0.3,0.7-0.2,1v2.2c0,0.3,0.2,0.5,0.5,0.5c0,0,0,0,0.1,0c0.6,0,1.1,0,1.6,0s0.6,0.3,0.6,0.9v1.1c0,0.6,0,0.9-0.6,0.9
		s-1.1-0.1-1.6-0.1c-0.3,0-0.6,0.2-0.6,0.5c0,0,0,0,0,0v2.1c0,0.9,0,1.9,0,2.8c0,0.4-0.2,0.5-0.6,0.5h-1.2c-0.9,0-1,0-1.1-0.3
		c0-0.1-0.2-0.1-0.3-0.1h-1.1c-0.1,0-0.2,0-0.3,0.1c-0.1,0.1,0,0.1-0.1,0.2s-0.4,0.2-0.8,0.2h-1.2c-0.6,0-0.8,0-0.8-0.5
		c0-0.9,0.1-1.9,0.1-2.8v-2c0-0.3-0.3-0.6-0.6-0.6h-0.8c-0.3,0-0.6,0.3-0.6,0.6v5.9c0,0.3,0.3,0.6,0.6,0.6h8.2
		c0.9,0,1.7-0.1,2.6-0.1c0.5,0,0.6,0.2,0.6,0.9v1.2c0,0.6,0,0.8-0.6,0.8c-0.9,0-1.7-0.1-2.6-0.1h-8.3c-0.3,0-0.4,0.2-0.4,0.4
		s-0.3,0.4-0.9,0.4h-1.2c-0.6,0-0.9,0-0.9-0.5c0-1,0.1-2,0.1-3V139c0-0.3-0.3-0.6-0.6-0.6c-0.5,0-1.1,0.1-1.6,0.1s-0.6-0.2-0.6-0.9
		v-1.2c0-0.6,0-0.9,0.6-0.9s1.1,0,1.6,0c0.3,0,0.6-0.2,0.6-0.6v-2.1c0-0.5,0-1-0.1-1.4c0-0.3,0.2-0.3,0.4-0.3c0.7,0,1.5,0,2.3,0.1
		c0.3,0,0.7,0,0.7,0.3s-0.1,0.2-0.2,0.3s-0.2,0.4-0.2,0.9v2.2c0,0.3,0.2,0.5,0.5,0.5c0,0,0,0,0,0L89.1,135.5z M92.5,140.6
		c0,0.3,0.3,0.6,0.6,0.6h0.8c0.3,0,0.6-0.3,0.6-0.6v-1.7c0-0.3-0.3-0.6-0.6-0.6H93c-0.3,0-0.6,0.2-0.6,0.5c0,0,0,0,0,0L92.5,140.6z"
		/>
	<path class="st0" d="M104.6,148.6c-0.5,0.2-0.9,0.3-1.4,0.4c-0.6,0-1.4-1.5-1.4-2c0-0.3,0.2-0.4,0.6-0.5c1.5-0.4,2.7-1,3.1-2.7
		c0.1-0.2,0.1-0.4,0.1-0.6c0-0.1-0.1-0.2-0.1-0.2c0,0,0,0,0,0c-0.2,0.1-0.4,0.2-0.5,0.3c-0.9,0.5-1.9,0.9-2.8,1.2
		c-0.6,0-1.4-1.6-1.4-2.1c0-0.2,0.1-0.3,0.8-0.5c1.7-0.6,3.4-1.4,4.8-2.5c0,0,0.1-0.1,0.1-0.1s-0.2-0.1-0.2-0.1h-0.8
		c-0.1,0-0.3,0.1-0.3,0.2c-0.1,0.3-0.2,0.3-1.1,0.3h-1.3c-0.4,0-0.6-0.1-0.6-0.5s0.1-1.1,0.1-1.7v-3.9c0-0.6-0.1-1-0.1-1.4
		c0-0.7,0.5-0.9,1.1-0.9s1.3,0,2,0h8.8c0.7,0,1.3,0,2,0s1.2,0.1,1.2,0.9c0,0.4,0,0.9,0,1.4v3.9c0,0.7,0.1,1.3,0.1,1.7
		s-0.2,0.5-0.9,0.5h-1.3c-0.5,0-0.6,0-0.8-0.3s-0.1-0.2-0.3-0.2h-0.9c-0.1,0-0.2,0-0.2,0.1s0.1,0.1,0.2,0.2c1.6,1.1,3.4,1.9,5.3,2.4
		c0.2,0.1,0.3,0.1,0.3,0.3c0,0.5-0.8,2.2-1.4,2.2c-0.9-0.3-1.7-0.6-2.5-1c-0.1-0.1-0.3-0.1-0.4-0.2c-0.3,0-0.3,0.3-0.3,0.5v2.9
		c0,0.6,0.1,1.3,0.1,1.8s-0.2,0.5-0.9,0.5h-1.2c-0.7,0-0.9,0-0.9-0.5s0.1-1.2,0.1-1.8v-3.9c0-0.2-0.1-0.6-0.1-0.8s0.2-0.2,0.4-0.3
		c0.1,0,0.2-0.1,0.2-0.1c0,0,0,0,0,0c0-0.1-0.2-0.2-0.3-0.3c-0.5-0.4-0.9-0.7-1.3-1.1c-0.2-0.2-0.3-0.3-0.5-0.3s-0.5,0.2-0.6,0.4
		c-0.4,0.4-0.8,0.7-1.2,1.1c-0.1,0.1-0.3,0.2-0.3,0.3s0.1,0.2,0.5,0.2c0.7,0.1,0.8,0.1,0.8,0.3s-0.1,0.2-0.2,0.2s-0.2,0.1-0.2,0.3
		C108.3,145.5,107.3,147.5,104.6,148.6z M108.3,133.9c0-0.2-0.1-0.3-0.3-0.3h0h-2.6c-0.2,0-0.3,0.1-0.3,0.3l0,0v0.1
		c0,0.2,0.1,0.3,0.3,0.3h0h2.6c0.2,0,0.3-0.1,0.3-0.3l0,0V133.9z M108.3,136.6c0-0.2-0.1-0.3-0.3-0.3h0h-2.6c-0.2,0-0.3,0.1-0.3,0.3
		l0,0v0.1c0,0.2,0.1,0.3,0.3,0.3h0h2.6c0.2,0,0.3-0.1,0.3-0.3l0,0V136.6z M111.2,134c0,0.2,0.1,0.3,0.3,0.3h0h2.6
		c0.2,0,0.3-0.1,0.3-0.3l0,0v-0.1c0-0.2-0.1-0.3-0.3-0.3h0h-2.6c-0.2,0-0.3,0.1-0.3,0.3l0,0V134z M111.2,136.7
		c0,0.2,0.1,0.3,0.3,0.3h0h2.6c0.2,0,0.3-0.1,0.3-0.3l0,0v-0.1c0-0.2-0.1-0.3-0.3-0.3h0h-2.6c-0.2,0-0.3,0.1-0.3,0.3l0,0V136.7z"/>
	<path class="st0" d="M134.1,138.4c1,0,2-0.1,3-0.1c0.6,0,0.6,0.3,0.6,1.1v1.4c0,0.8-0.1,1.1-0.6,1.1c-1,0-2-0.1-3-0.1h-10.3
		c-1,0-2,0.1-3,0.1c-0.6,0-0.6-0.3-0.6-1.1v-1.4c0-0.8,0.1-1.1,0.6-1.1c1,0,2,0.1,3,0.1H134.1z"/>
	<path class="st0" d="M154.2,135c1.4,1.3,2.2,3.2,2.1,5.1c0,2.8-1.5,5.3-4,6.6c-0.7,0.4-1.5,0.7-2.4,0.9c-0.7,0-1.8-1.8-1.8-2.4
		c0-0.2,0.2-0.3,0.8-0.4c2.3-0.6,4.2-2.1,4.2-4.6c0.2-2-1.1-3.8-3-4.4c-0.4,0-0.4,0.4-0.4,0.7c-0.2,2.8-1,6.2-2.9,8.4
		c-0.7,1-1.7,1.6-2.9,1.7c-1.3-0.1-2.5-0.9-3.1-2.1c-0.4-0.9-0.7-2-0.7-3c-0.1-4.7,3.7-8.5,8.4-8.6c0.1,0,0.1,0,0.2,0
		C150.8,132.9,152.7,133.6,154.2,135z M143.2,141.5c0,0.5,0.1,1.9,0.8,1.9c0.5,0,1.2-1.3,1.4-1.7c0.7-1.6,1.1-3.4,1.3-5.1
		c0-0.2-0.1-0.3-0.3-0.3C145.8,136.3,143.2,138.1,143.2,141.5L143.2,141.5z"/>
</g>
<g>
	<path class="st0" d="M13.8,167.3c0.4,0,0.8,0,1.1-0.1c0.1,0,0.1,0,0.2,0c0.4,0,1.3,1.2,1.3,1.7c0,0.1,0,0.2-0.1,0.2
		c-0.2,0.3-0.3,0.7-0.5,1c-0.5,1.2-1.1,2.4-1.7,3.5c-0.1,0.1-0.2,0.3-0.2,0.5c0,0.2,0.1,0.4,0.3,0.5c0.2,0.2,1,0.8,1,1
		s-1.4,2.1-1.9,2.1c-0.1,0-0.2-0.1-0.3-0.2c-0.2-0.2-0.8-0.8-1.1-0.8c-0.2,0-0.3,0.1-0.4,0.2c-1.1,1.1-2.3,2.1-3.6,2.9
		c-1,0.7-2.1,1.1-3.3,1.5c-0.5,0-1-0.6-1.2-0.9c-0.3-0.4-0.6-0.8-0.8-1.3c0-0.2,0.2-0.3,0.7-0.4l0.3-0.1c2.6-0.7,5.7-3.1,5.7-3.6
		c0-0.2-0.1-0.3-0.3-0.4c-0.5-0.3-1.1-0.6-1.7-0.8c-0.2-0.1-0.6-0.3-0.6-0.5s1.1-2.1,1.7-2.1c0.8,0.3,1.5,0.6,2.2,1.1
		c0.1,0.1,0.3,0.1,0.4,0.1c0.4,0,0.5-0.3,0.7-0.7c0.2-0.4,0.4-0.8,0.5-1.3c0-0.3-0.4-0.4-0.7-0.4H8.9c-0.6,0-0.7,0-1,0.4
		c-0.7,1-1.5,1.9-2.4,2.8c-0.2,0.2-0.7,0.7-1,0.7c-0.5-0.2-1-0.4-1.4-0.8c-0.5-0.4-0.9-0.8-0.9-0.9s0.2-0.4,0.4-0.5
		c2.4-1.9,4.3-4.5,5.4-7.3c0.1-0.2,0.2-0.5,0.4-0.5c0.8,0.3,1.6,0.6,2.3,0.9c0.4,0.1,0.6,0.3,0.8,0.3s0.1,0.1,0.1,0.1s0,0.1-0.2,0.2
		c-0.3,0.1-0.4,0.3-0.6,0.6c-0.2,0.2-0.3,0.4-0.3,0.7c0,0.2,0.2,0.3,0.4,0.3H13.8z"/>
	<path class="st0" d="M23.6,166.8c0.4,0,0.7,0.1,0.7,0.2c0,0.1-0.1,0.1-0.1,0.2c-0.2,0.2-0.3,0.5-0.2,0.8c0,0.2,0,0.5,0,0.7
		c0,1.7-0.1,3.4-0.4,5.1c-0.4,2.1-1.5,4-3,5.6c-0.2,0.2-0.6,0.6-0.8,0.6c-0.7-0.2-1.4-0.6-2-1c-0.2-0.1-0.5-0.3-0.5-0.6
		s0.2-0.3,0.3-0.4c3-2.5,3.3-5.2,3.3-8.8c0-0.9-0.1-2.3-0.1-2.4s0.1-0.2,0.3-0.2C21.5,166.6,23.1,166.7,23.6,166.8z M28.6,174
		c0,0.8,0,1.1,0.4,1.1c0.7,0,3.9-3,4.5-3.6c0.1-0.1,0.2-0.3,0.4-0.3s0.6,0.6,0.9,1.1c0.2,0.4,0.4,0.8,0.5,1.2c0,0.4-0.6,0.9-1,1.2
		l-0.2,0.2c-0.9,0.8-1.9,1.6-2.9,2.4c-0.8,0.7-1.7,1.3-2.5,2c-0.2,0.2-0.5,0.5-0.7,0.5c-0.6-0.2-1.2-0.4-1.8-0.8
		c-0.3-0.2-0.9-0.5-0.9-0.9s0.1-1.3,0.1-2.4v-6.3c0-0.4,0-1.1,0-1.7c0-0.5,0-0.9,0-1.2c0-0.1,0-0.1,0-0.2c0-0.1,0.1-0.2,0.2-0.2
		l1,0.1l2,0.2c0.2,0,0.3,0.1,0.3,0.2s-0.1,0.2-0.2,0.3c-0.2,0.2-0.2,0.5-0.2,0.8c0,0.6,0,1.2,0,1.8L28.6,174z"/>
	<path class="st0" d="M47.5,169.5c0,0.2,0.2,0.3,0.4,0.3h0.3c0.4,0,0.5-0.4,0.5-0.7c0-1.6,0-3.2,0-4.8c0-0.4,0.2-0.5,0.5-0.5
		l2.1,0.2c0.4,0,0.5,0.1,0.5,0.3s-0.1,0.3-0.3,0.4c-0.1,0.1-0.2,0.3-0.2,0.4c0,0.1,0,0.2,0.2,0.2c0.1,0,0.2,0,0.3-0.1
		c0.3-0.1,0.7-0.2,1-0.2c0.4,0,0.8,1.1,1,1.5c0.2,0.6,0.4,1.1,0.6,1.7c0,0.3-0.3,0.5-0.5,0.5c-0.4,0.1-0.8,0.2-1.1,0.3
		c-0.2,0-0.3-0.2-0.4-0.5c-0.2-0.6-0.4-1.2-0.6-1.7c-0.1-0.2-0.1-0.3-0.2-0.3s-0.1,0.1-0.1,0.2v2.3c-0.1,0.3,0.2,0.6,0.5,0.7
		c0.1,0,0.1,0,0.2,0c0.6,0,1.1-0.1,1.7-0.1s0.5,0.2,0.5,0.7v0.9c0,0.5-0.1,0.6-0.6,0.6c-0.3,0-0.9,0-1.7,0c-0.3,0-0.6,0.3-0.6,0.6
		c0,0.2,0,0.8,0,1.1c0,0.1,0,0.2,0.1,0.2c0.3-0.4,0.5-0.9,0.7-1.3c0.1-0.2,0.2-0.5,0.4-0.5c0.2,0,0.4,0.1,0.5,0.2
		c0.5,0.3,1,0.7,1.4,1.1c0.1,0.1,0.2,0.2,0.2,0.3s-0.1,0.3-0.4,0.3s-0.3,0.1-0.5,0.5c-0.4,0.9-0.9,1.7-1.5,2.5
		c-0.2,0.2-0.4,0.5-0.4,0.9c0,0.1,0.1,0.7,0.3,0.7s0.5-1.1,0.5-1.5s0.1-0.5,0.4-0.5s1.4,0.4,1.4,1c-0.1,1-0.3,1.9-0.7,2.8
		c-0.3,0.8-0.8,1.6-1.8,1.6c-0.8-0.1-1.5-0.6-1.9-1.3c-0.1-0.2-0.3-0.4-0.5-0.4s-0.5,0.3-0.6,0.4s-1.2,1.2-1.5,1.2
		c-0.7-0.3-1.3-0.9-1.5-1.6c0-0.3,0.3-0.4,0.5-0.6s0.2-0.1,0.2-0.2s-0.2-0.2-0.5-0.2h-0.5c-0.4,0-0.5,0.2-0.5,0.4v0.1
		c0,0.3-0.1,0.3-0.8,0.3h-1c-0.4,0-0.6-0.1-0.6-0.4s0-0.8,0-1.2v-4.2c0-0.4,0-0.8,0-1.1c0-0.6,0.3-0.8,0.9-0.8s1,0.1,1.5,0.1h0.6
		c0.5,0,1-0.1,1.5-0.1s0.9,0.2,0.9,0.8c0,0.3,0,0.7,0,1.1v3c0,0.3,0,0.5,0.2,0.5c0.4-0.2,0.7-0.6,0.7-1c0-0.1,0-0.3,0-0.4
		c-0.1-1.3-0.2-2.5-0.2-3.8c0-0.3,0-0.8-0.6-0.8h-4.9c-0.6,0-1.1,0.1-1.1,0.6v6.2c0,0.9,0.1,1.8,0.1,2.7c0,0.5-0.2,0.5-0.7,0.5h-1.1
		c-0.5,0-0.7,0-0.7-0.5c0-0.8,0-1.7,0-2.5c0-0.3,0-0.7-0.4-0.7c-0.2,0-1.6,0.4-1.8,0.4c-0.1,0-0.2,0.1-0.3,0.2
		c-0.1,0.2-0.2,0.4-0.4,0.4s-0.2-0.1-0.3-0.4c-0.1-0.5-0.3-1.1-0.5-1.9c0-0.2-0.1-0.3-0.1-0.5c0-0.2,0.2-0.2,0.5-0.3
		s0.5-0.1,0.5-0.4v-8.6c0-0.2-0.1-0.3-0.3-0.3c0,0,0,0,0,0c-0.3,0-0.4-0.2-0.4-0.7v-1c0-0.7,0-0.9,0.5-0.9s1.1,0,1.7,0h2.3
		c0.6,0,1.2,0,1.7,0s0.5,0.3,0.5,0.7s0.4,0.5,0.8,0.5c0.3,0,0.5-0.3,0.5-0.6c0,0,0,0,0,0c0-0.2-0.1-0.7-0.1-0.9s0.2-0.2,0.4-0.2
		c0.4,0,1.4,0.1,1.8,0.1s0.8,0,0.8,0.3s-0.1,0.1-0.2,0.2c-0.2,0.2-0.2,0.4-0.2,0.6c0,0.3,0.3,0.5,0.5,0.5h0.7c0.3,0,0.3,0.2,0.3,0.6
		v0.8c0,0.4,0,0.6-0.3,0.6h-0.4c-0.1,0-0.1,0.1-0.1,0.1s0,0.1,0.1,0.1s0.6,0.2,0.7,0.3c0.1,0,0.2,0.1,0.2,0.2c0,0.2-0.1,0.2-0.3,0.2
		c-0.1,0-0.2,0-0.2,0.1C47.6,169,47.5,169.2,47.5,169.5z M39.3,166.9c-0.2,0-0.4,0.2-0.4,0.4v0.7c0,0.2,0.2,0.4,0.4,0.4c0,0,0,0,0,0
		l0,0c0.2,0,0.4-0.2,0.4-0.4c0,0,0,0,0,0v-0.7C39.7,167.1,39.6,166.9,39.3,166.9C39.4,166.9,39.4,166.9,39.3,166.9L39.3,166.9z
		 M39.3,170.5c-0.2,0-0.4,0.2-0.4,0.4v0.8c0,0.2,0.2,0.4,0.4,0.4c0,0,0,0,0,0l0,0c0.2,0,0.4-0.2,0.4-0.4c0,0,0,0,0,0v-0.8
		C39.7,170.7,39.6,170.6,39.3,170.5z M39.3,174.2c-0.2,0-0.4,0.2-0.4,0.4l0,0v0.9c0,0.2,0.1,0.3,0.3,0.3c0.4,0,0.5-0.4,0.5-0.8v-0.5
		C39.8,174.4,39.6,174.2,39.3,174.2C39.4,174.2,39.4,174.2,39.3,174.2L39.3,174.2z M44.6,167.5c-0.5,0-1,0-1.5,0
		c-0.2,0-0.3-0.1-0.3-0.3s0-0.3-0.3-0.3s-0.3,0.1-0.3,0.2v2.2c0,0.3,0.2,0.5,0.5,0.5c0.3,0,0.5-0.2,0.5-0.4c0,0,0,0,0,0
		c0-0.3-0.1-0.6-0.3-0.9c0-0.1,0-0.2-0.1-0.2c0-0.4,1.1-0.5,1.4-0.5s0.4,0.3,0.6,0.9c0.1,0.3,0.2,0.5,0.2,0.8c0,0.1-0.1,0.2-0.2,0.3
		c0,0-0.1,0.1-0.1,0.1s0,0.1,0.2,0.1c0.4,0,0.5-0.3,0.6-0.6c0.2-0.4,0.3-0.9,0.4-1.3c0-0.4-0.3-0.4-0.6-0.4L44.6,167.5z M45.8,175.3
		c0.1,0,0.2-0.1,0.3-0.2c0,0,0,0,0,0v-0.2c0-0.1-0.1-0.3-0.2-0.3c0,0,0,0,0,0h-0.4c-0.1,0-0.2,0.1-0.2,0.3c0,0,0,0,0,0v0.2
		c0,0.1,0.1,0.2,0.2,0.2c0,0,0,0,0,0H45.8z M45.4,176.8c-0.2,0-0.3,0.1-0.3,0.3l0,0l0,0c0,0.2,0.1,0.3,0.3,0.3h0.3
		c0.2,0,0.3-0.1,0.3-0.3l0,0c0-0.2-0.1-0.3-0.3-0.3c0,0,0,0,0,0H45.4z"/>
	<path class="st0" d="M66,165.1v2c-0.1,5,2.7,9.7,7.2,12.1c0.2,0.1,0.4,0.2,0.4,0.4c0,0.8-1.3,2.3-2,2.3s-3.1-2.3-3.6-2.8
		c-1.3-1.3-2.3-2.8-3-4.5c-0.1-0.1-0.2-0.3-0.3-0.3s-0.2,0.2-0.3,0.3c-0.9,2.1-2.3,3.9-4.1,5.4c-0.5,0.4-2.3,1.9-2.8,1.9
		c-0.7,0-2-1.6-2-2.2c0-0.2,0.2-0.3,0.4-0.5c1.9-1.1,3.5-2.5,4.8-4.3c1.6-2.4,2.4-5.2,2.3-8c0-0.8-0.1-1.7-0.1-2.4
		c0-0.4,0.2-0.6,0.6-0.6s1.7,0.1,2.1,0.1c0.6,0.1,1,0,1,0.3s-0.2,0.3-0.3,0.3C66.1,164.8,66,165,66,165.1z"/>
	<path class="st0" d="M76.2,167c0.1-0.4,0.2-0.8,0.3-1.1s0.1-0.6,0.3-0.6c1,0.3,2,0.7,3,1.1c0.4,0.2,0.5,0.3,0.5,0.4
		s-0.1,0.1-0.1,0.2c-0.4,0.1-0.6,0.4-0.7,0.8c-0.8,1.8-1.2,3.7-1.2,5.7c0,1.1,0,1.6,0.3,1.6s0.2-0.2,0.3-0.3s0.2-0.4,0.5-0.4
		s1,0.7,1,1c-0.4,0.9-0.7,1.9-0.9,2.9c0,0.1,0,0.6,0.1,0.9c0,0.2,0,0.4,0.1,0.6c0,0.7-1.5,1.3-2.1,1.3c-0.4,0-0.6-0.3-0.9-1
		c-0.9-2-1.4-4.2-1.3-6.4C75.2,171.4,75.5,169.2,76.2,167z M81.9,175.6c0.6,0.9,1.7,1.4,2.8,1.3c1.5,0,3-0.2,4.4-0.6
		c0.2,0,0.3-0.1,0.5-0.1c0.3,0,0.4,0.3,0.4,0.4c0.1,0.7,0.1,1.4,0.1,2.1c0,0.3,0,0.4-0.3,0.5c-1.6,0.4-3.3,0.6-5,0.6
		c-3.2,0-4.7-1.6-4.7-2.1s1-2.4,1.5-2.4C81.8,175.4,81.8,175.5,81.9,175.6L81.9,175.6z M81.9,166.9c0.2,0,0.4,0,0.6,0.1
		c0.9,0.2,1.8,0.3,2.7,0.3c1,0,2-0.1,3-0.4c0.1,0,0.3-0.1,0.4-0.1c0.4,0,0.5,0.4,0.6,0.7c0.1,0.5,0.1,1.1,0.1,1.6
		c0,0.5-0.1,0.6-0.6,0.7c-1.1,0.2-2.2,0.2-3.4,0.2c-0.6,0-3.4-0.1-3.8-0.4c-0.2-0.1-0.2-0.7-0.2-1C81.3,167.2,81.4,166.9,81.9,166.9
		L81.9,166.9z"/>
	<path class="st0" d="M100.7,164.8c0.2,0.1,0.5,0.1,0.5,0.3s-0.1,0.2-0.4,0.4c-0.2,0.4-0.3,0.7-0.4,1.1c0,0.1,0,0.1,0,0.2
		c0,0.1,0,0.1,0,0.2c0,0.1,0.1,0.3,0.2,0.3c0.1,0,0.2-0.1,0.3-0.2c0.1,0,0.2-0.1,0.3-0.1c0.2,0,0.2,0.1,0.3,0.3
		c0.1,0.7,0.2,1.4,0.2,2.1c0,0.5-0.3,0.5-1.8,0.8c-0.7,0.1-0.7,0.3-1,0.9c-0.3,0.9-0.7,1.8-1.1,2.7c-0.5,1.2-1.1,2.4-1.7,3.5
		c-0.2,0.3-0.4,0.6-0.5,0.8c-0.1,0.2-0.2,0.3-0.4,0.3c-0.7,0-2.6-0.8-2.6-1.4c0.1-0.3,0.2-0.6,0.4-0.8c1-1.7,1.9-3.4,2.6-5.2
		c0-0.2-0.2-0.3-0.3-0.3c0,0,0,0,0,0c-0.1,0-0.5,0-0.7,0.1s-0.6,0.1-0.9,0.1c-0.4,0-0.6-0.2-0.8-1.9c0-0.2,0-0.5,0-0.7
		s0.2-0.4,0.4-0.4s0.8,0,1.3,0c1.8,0,2.1,0,2.3-0.6c0.3-1,0.5-2.1,0.5-3.1c0-0.2,0-0.3,0.1-0.3S100.3,164.7,100.7,164.8z M103.4,171
		c0.3,0.1,0.5,0.2,0.5,0.6c0,0.2,0,0.6,0,0.9c0,1,0.1,2,0.1,3c0,0.5,0.1,0.6,0.6,0.8s3.1,1.4,3.1,2s-1.1,2.1-1.8,2.1
		c-0.3-0.1-0.6-0.3-0.9-0.5c-0.1-0.1-0.2-0.2-0.4-0.3c-0.1-0.1-0.2-0.1-0.3-0.1c-0.2,0-0.4,0.1-0.4,0.3c-0.6,1.2-1.8,1.9-3.1,1.7
		c-1.9,0-3.9-0.9-3.9-3.1c0-2,1.8-2.9,3.6-2.9h0.2c0.2,0,0.5-0.2,0.5-0.4c0,0,0-0.1,0-0.1c0-0.3-0.2-2.1-0.2-2.7
		c0-0.3-0.1-0.6-0.1-0.9c0-0.4,0.2-0.6,0.6-0.6C102.1,170.8,102.7,170.9,103.4,171L103.4,171z M99.8,178.3c0,0.4,0.4,0.6,0.8,0.6
		s0.6-0.2,0.6-0.7c0-0.3,0-0.5-0.6-0.5C100.3,177.8,99.8,177.9,99.8,178.3z M106.8,168.7c0.5,0.4,1.7,1.6,1.7,2c0,0.6-1.6,2-2.1,2
		c-0.2,0-0.4-0.3-0.6-0.5c-0.7-1-1.6-1.8-2.5-2.6c-0.2-0.1-0.4-0.3-0.4-0.4c0-0.3,1.3-2,1.8-2C105.2,167.2,106.4,168.4,106.8,168.7z
		"/>
	<path class="st0" d="M121.5,166.9c0,0.2-0.2,0.3-0.3,0.4c-1,0.8-1.9,1.6-2.8,2.6c-0.1,0.1-0.1,0.2-0.1,0.3c0,0.1,0.1,0.3,0.3,0.3
		c0,0,0,0,0,0h0.5c2.7-0.2,5,1.8,5.2,4.5c0,0.2,0,0.3,0,0.5c0,2.6-1.8,4.3-4.1,5.1c-1.2,0.4-2.4,0.7-3.7,0.8c-0.4,0-0.5-0.2-0.8-0.8
		c-0.2-0.5-0.4-1.1-0.5-1.7c0-0.5,0.4-0.5,0.8-0.5h0.4c1.3,0,2.6-0.3,3.7-1c0.7-0.4,1.1-1.2,1.1-2c0-1.5-1.4-2.2-2.7-2.2
		c-1.6,0-3.2,0.7-4.2,1.9c-0.7,0.8-1.2,1.6-1.7,2.5c-0.1,0.1-0.2,0.4-0.4,0.4c-0.5-0.2-1-0.5-1.4-0.9c-0.4-0.3-0.8-0.7-0.8-1
		s0.2-0.5,0.6-1c1-1.3,2.1-2.6,3.2-4c0.4-0.5,1.4-1.7,1.8-2.1c0.1-0.1,0.1-0.1,0.1-0.2c0-0.2-0.1-0.3-0.3-0.3c0,0,0,0,0,0
		c0,0-2.1,0.3-2.3,0.4c-0.1,0-0.1,0-0.2,0c-0.3,0-0.4-0.3-0.4-0.5c-0.2-0.7-0.3-1.3-0.3-2c0-0.5,0.1-0.6,0.7-0.6
		c1.7,0,4.3-0.2,5.7-1c0.2-0.1,0.4-0.2,0.6-0.2C120.1,164.9,121,165.8,121.5,166.9z"/>
	<path class="st0" d="M139.1,173.6c0,3.4-2.6,6.3-5.5,7.8c-0.4,0.3-0.9,0.4-1.4,0.5c-0.9,0-2.1-2.1-2.1-2.5c0-0.2,0.2-0.3,0.4-0.3
		c1.4-0.4,2.7-1,3.7-2c1-0.8,1.6-2,1.7-3.3c0-1.2-0.9-2.1-2.1-2.1c-0.1,0-0.1,0-0.2,0c-1.5,0.1-3,0.7-4.2,1.8
		c-0.1,0.1-0.3,0.2-0.4,0.2c-0.7,0-1.6-2.1-1.6-2.7c0-0.3,0.3-0.5,0.6-0.6c1.8-0.9,3.8-1.5,5.8-1.6
		C136.8,168.7,139.1,170.4,139.1,173.6z M131.1,164.4c1.7,0.6,3.5,0.9,5.2,1c0.5,0,0.7,0.1,0.7,0.3s-0.1,0.7-0.2,1.2
		c-0.1,0.7-0.2,1.5-0.8,1.5c-1.6-0.2-3.3-0.5-4.8-0.9c-1.3-0.3-1.6-0.4-1.6-0.8c0.1-0.7,0.3-1.4,0.6-2c0.1-0.2,0.2-0.6,0.5-0.6
		C130.9,164.2,131,164.3,131.1,164.4L131.1,164.4z"/>
	<path class="st0" d="M149.3,178.6c0,1.1-0.8,2-1.9,2.1c-0.1,0-0.1,0-0.2,0c-1,0.1-1.8-0.7-1.9-1.6c0,0,0-0.1,0-0.1
		c-0.1-1.1,0.8-2.1,1.9-2.1c0.1,0,0.1,0,0.2,0c1,0,1.8,0.7,1.9,1.7C149.3,178.6,149.3,178.6,149.3,178.6z M146.6,175.5
		c-0.5,0-0.6-0.1-0.6-0.6l-0.2-4.7c-0.1-1.2-0.2-4-0.2-4.4s0.1-0.4,0.6-0.4h2.4c0.4,0,0.6,0.1,0.6,0.4s-0.2,3.1-0.2,4.6l-0.2,4.5
		c0,0.5-0.1,0.6-0.6,0.6H146.6z"/>
</g>
</svg>
