<svg xmlns="http://www.w3.org/2000/svg" viewBox="0 0 412.38 584.15"><defs><style>.yes_svg_1{fill:#c90274;}.yes_svg_2{fill:#af0265;}.yes_svg_3{fill:#e30177;}</style></defs><title>agegate_yes</title><g id="レイヤー_2" data-name="レイヤー 2"><g id="content"><polygon class="yes_svg_1" points="157.5 0 412.38 254.88 412.38 412.88 157.5 158 157.5 0"/><polygon class="yes_svg_2" points="0 171.78 412.38 584.15 412.38 412.88 157.5 158 0 171.78"/><polygon class="yes_svg_3" points="157.5 0 0 13.78 0 171.78 157.5 158 157.5 0"/><path d="M44.47,103.36l-7.26.64-5.54-5.15V67l7.26-.63v28.4l1.63,1.49,3.91-.34ZM70.08,88.83l-3.91.34v7.14l-5.41,5.63-10.18.89L44.82,98V89.71l5.71-6.13,8.3-.73V74.3L43.66,75.63V68.37L58.83,67V63.39l7.34-.64V66.4l3.91-.34v7.26l-3.91.34v8.55l3.91-.34ZM58.83,94.2V89.82l-5.33.46L51.74,92v2.88l1.76,1.48L57,96Z"/><path d="M93.59,99.06,83.28,100l-6.62-6.13V64.11l7.26-.64V90.2l2.67,2.43,7-.61Zm19-5.44-7.26.64V71.57l-2.66-2.52L96,69.63V62.54l9.88-.86,6.66,6.2Z"/><polygon points="137.94 63.47 148.06 72.69 137.94 83.69 137.94 63.47"/></g></g></svg>