<svg xmlns="http://www.w3.org/2000/svg" width="300.14" height="254.51" viewBox="0 0 300.14 254.51">
  <title>アセット 2</title>
  <g>
    <path d="M290.14,254.51H10a10,10,0,0,0-10-10V10A10,10,0,0,0,10,0H290.14a10,10,0,0,0,10,10V244.51A10,10,0,0,0,290.14,254.51Z" style="fill: #de3232"/>
    <rect x="29.57" y="174.76" width="114" height="44"/>
    <rect x="162.57" y="174.76" width="114" height="44"/>
    <g>
      <path d="M78.24,47.89h-3V54.4l-4.55,5.27H63.23V55.86H69L71.45,53V48H63.77l-1.21,3.55H58.64V47.81h1.18l2-6.21h4.06L65,44.24H74v.65h4.27Zm0-4.21H73.71v-3h4.53Z"/>
      <path d="M98.63,52.62H81.38V48.73H98.63Z"/>
      <path d="M121,59.67h-4l-.58-2.15-4,2.15H101.84V55.86l5.28-14.26h4l-5.3,14.26H112l3.52-1.8-1.19-4.45h3.84Z"/>
      <path d="M142.73,52.21h-4.42l.56,2.37h-3.62l-.59-2.37h-5.47l-1.4,1.23v2l1.18,1h12.92V60H127.42L124.1,56.9V51.7l3.66-3v-2.6h-4.4V42.46h4.4V40.65h3.78v1.81h10.54v3.61H131.54V48.6h11.19Z"/>
      <path d="M165.15,56.44h-7.79v3.94h-3.64V56.44h-7.83V42.29h7.83V40.14h3.64v2.15h7.79Zm-11.43-3.61v-7h-4.21v7Zm7.8,0v-7h-4.16v7Z"/>
      <path d="M179.88,54.64l-1.81.92-1.32-3v4h-2.2V52.41l-1.4,3.45-1.64-.73v2.28h7.7v2.73H168.58v-20h2.93V54.34l2-5.05h-1.38V46.84h2.39V40.18h2.2v6.66h2.46v2.45h-2.46v1.63l1.21-.64Zm-5.54-8.79-1.71.28L171.88,41l1.75-.28ZM179.45,41l-.76,5.09L177,45.85l.75-5.09Zm8.91,8.34h-1v11H184.6v-11h-1.4l-1,11-2.7-.43.95-11.05V43.73l-.56,0-.19-2.9,8.24-.71.34,2.88-5,.45v2.84h5.11Z"/>
      <path d="M209.13,55.67,204.8,60h-8.61l-4.36-4.32V40.83h3.67V54.15l2.24,2.21h5.48l2.2-2.21v-2.8h3.71Z"/>
      <path d="M230.75,45.79H220.9l-3.24,2.94V53.8l3,2.58h8.2V60h-9.68L214,55.31V47.38l1.85-1.59h-4.44V42.16h19.34Z"/>
      <path d="M74.63,80.23H72.41V83.6h-12v7.29H74.24v3.78H56.63V76.6h3.79v3.18h7V75.7h3v4.08h1.25V75.7h3Z"/>
      <path d="M94.32,87.62H77.06V83.73H94.32Z"/>
      <path d="M116.65,94.67h-4l-.58-2.15-4,2.15H97.52V90.86l5.29-14.26h4l-5.3,14.26h6.08l3.51-1.8L110,84.61h3.84Z"/>
      <path d="M131.94,80.06H126V93.85h-3.78V80.06h-5.91V76.28h15.59Z"/>
      <path d="M150.19,93.85h-3.68v-4.4h-8v4.4h-3.69v-14l3.51-3.57h8.33l3.51,3.57Zm-3.68-8.14V81.43L145,79.86h-4.87l-1.55,1.57v4.28Z"/>
      <path d="M168.83,85.13l-3.52,3.46h-7.87v5.26h-3.71V76.28h11.58l3.52,3.48Zm-3.71-1.7V81.37l-1.53-1.51h-6.15v5.07h6.15Z"/>
      <path d="M191.46,82.89h-3V89.4l-4.55,5.27h-7.44V90.86h5.78L184.67,88V83H177l-1.21,3.55h-3.92V82.81H173l2.05-6.21h4.06l-.89,2.64h8.93v.65h4.27Zm0-4.21h-4.53v-3h4.53Z"/>
      <path d="M211.85,87.62H194.6V83.73h17.25Z"/>
      <path d="M234.19,94.67h-4l-.58-2.15-4,2.15H215.06V90.86l5.28-14.26h4.06l-5.31,14.26h6.08l3.52-1.8-1.19-4.45h3.84Z"/>
      <path d="M43,127.84l-.32,2.88-16.5-1.61-2.42,1.46-1.51-2.75,2-1.14v-5.26H22.52v-3.27h4.9v8.19l4.74.45L29.64,126l.52-1.13H28.43v-2.3h2.44v-1.06h-2v-2.29h2v-.93H28.82v-4.92h3.9v-.79h-3.9v-2H34.9v4.83H31.08v.84H35.2v2.08H33.54v.93h3.84v-.93H36v-4.92h3.86v-.79H36v-2h6v4.83H38.29v.84h4.12v2.08H40.1l0,0v.89h2.13v2.29H40.06v1.06H42.6v2.3H40.72l.54,1.16-2.52.9-.9-2.06H33l-.85,1.91ZM28.07,112.39l-1.13,2.88-4.55-1.72,1.08-2.88Zm9.31,10.19v-1.06H33.54v1.06Z"/>
      <path d="M53.47,123.5l-2.31.77v6.19H47.84v-5.07l-1.62.52-1-3,2.59-.86v-5.29H45.71V113.6h2.13v-3.38h3.32v3.38h2v3.11h-2v4.19l1.3-.41Zm12-1.67H57.78l-1.62,8.76L53,130l1.6-8.9V110.5H65.42Zm-3.3-3.06v-5.22H57.87v5.22ZM66,129.6l-3,1.1-2.82-7.13,3-1.06Z"/>
      <path d="M88.71,113.45H80.19v1.29H84v11.6H73.11v-11.6h3.8v-1.29H68.39v-3H88.71Zm-.56,16.69H68.93V115.7H72v11.65h13V115.68h3.09ZM77.34,119.23v-1.81H75.68v1.81Zm0,4.44v-1.78H75.68v1.78Zm4.08-4.44v-1.81H79.76v1.81Zm0,4.44v-1.78H79.76v1.78Z"/>
      <path d="M111.69,113.23h-8.56l-.88,1.76h8.88v15.15H91.87V115h6.6l.86-1.76h-8v-2.75h20.31ZM97,127.58v-10H95.17v10Zm6-8.31v-1.74h-3v1.74Zm0,4.17V121.7h-3v1.74Zm0,4.14v-1.74h-3v1.74Zm4.83,0v-10h-1.74v10Z"/>
      <path d="M120.8,130h-3.23l-2.78-2.81V111.28h3.64v14.2l.82.79h1.55Zm12.92-.15H123.8l-2.89-2.9v-4.4h3.58v2.57l1.15,1.12h8.08Zm-.11-13.73H120.93v-3.61h12.68Z"/>
      <path d="M156.79,125.33h-4.94l3.26,3.48-2.31,2-3.39-3.76,1.94-1.72h-2.69l-3.15,5.35-2.85-1.57,2.24-3.78h-3.27v-2.9h5l1-1.66h-6.47v1.76l-1.27,7.87-3.3-.48,1.16-7.39v-8.27h18.81v6.51h-7.27l1.66.75-.54.91h6.43Zm.23-12.06H136.73v-2.79H157Zm-3.94,5v-1.55h-12v1.55Z"/>
      <path d="M164.22,124.32h-3.64v-13h3.64Zm13.27,1.89-3.78,3.8h-6.6v-3.54h4.68l2-2V111.28h3.67Z"/>
      <path d="M200.55,125.22h-5.76v2.58L192.22,130h-8.41l-2.52-2.21v-3.5l2.52-2.24h7.27v-1.7h-8.87v-3.18h8.87v-1.76h-8.87v-3.18h8.87v-1.59h3.71v1.59h4.87v3.18h-4.87v1.76h4.87v3.18h-4.87v1.7h5.76Zm-9.47,1.29v-1.63h-5.42l-.71.66v1l.71.67h4.68Z"/>
      <path d="M222.58,116h-2.93v14H216v-1.7h-8.45l-3-2.92v-4.6l3-2.94H216V116H203.26v-3.54H216v-1.79h3.65v1.79h2.93ZM216,124.79v-3.42h-6.92l-.93.8V124l.93.84Z"/>
      <path d="M240.68,127.17,237.81,130h-4.93v-3.54H236l1.06-1.08v-7.11l-1.15-1.16h-4.25L230.68,130h-3.61l.91-12.89h-2.24v-3.67h2.5l.19-2.8h3.67l-.2,2.8h5.89l2.89,3Zm4.45-5.47h-3.48V112h3.48Z"/>
      <path d="M263.82,119.72l-3.23,3.33h-2.26v2.43h-3.41v-5.85h4l1.38-1.31v-2.68l-1.38-1.38h-4.46l-1.36,1.38v1.42h-3.56v-2.93l3.25-3.3h7.77l3.25,3.28ZM258.33,130h-3.41v-3.37h3.41Z"/>
    </g>
    <a xlink:href="/?page=tap" href="/?page=tap" data-color="toTop">
      <rect class="btn_quit" x="26.57" y="171.76" width="114" height="44" style="fill: #fff"/>
    </a>
    <rect class="btn_cancel_quit" x="159.57" y="171.76" width="114" height="44" style="fill: #fff"/>
    <g class="noTouch">
      <path d="M69,204.42H65l-3-3.07V184h4v15.5l.89.89H69Zm14-6.7H80.81v3.89l-3,2.81H72.3l-3.14-2.93V197l3.12-3.07H76.8v-4.66H68.53v-4H76.8v-2h4v2h2.13v4H80.81v4.66h2.13Zm-6.14,2.39v-2.39H73.9l-1,.84v1.57l1,.89h1.89Z"/>
      <path d="M94.16,204.42H88.54l-3.61-3.66V184.55h4v14.57l1.45,1.46h3.82Zm10.36-2.06h-4V190l-1.45-1.5H95.5v-3.86h5.39l3.63,3.7Z"/>
    </g>
    <g class="noTouch">
      <path d="M193.84,204.42h-5.62l-3.61-3.66V184.55h4v14.57l1.45,1.46h3.82Zm10.36-2.06h-4V190l-1.45-1.5h-3.61v-3.86h5.39l3.63,3.7Z"/>
      <path d="M215.93,204.42h-5.62l-3.61-3.66V184.55h4v14.57l1.45,1.46h3.82Zm10.36-2.06h-4V190l-1.45-1.5h-3.61v-3.86h5.39l3.63,3.7Z"/>
      <path d="M249.29,204.42h-4.43l-5.32-4.94-6.21,4.94h-5.09v-3.87h3.56l9.42-7.29h-13v-3.91h19.17v3.84l-4.9,3.92,3.66,3.44h3.12Zm-1.93-16.73H230.14V184h17.22Z"/>
    </g>
  </g>
</svg>
