<svg xmlns="http://www.w3.org/2000/svg" viewBox="0 0 276.71 108.14"><defs><style>.tour_tit_svg1{fill:#fff;}</style></defs><title>アセット 16</title><g id="レイヤー_2" data-name="レイヤー 2"><g id="content"><path class="tour_tit_svg1" d="M11.39,86.38l-1.27,6.56L3,92.44,4.31,86ZM45.71,53.26,38,53.93V55.6l-7,.62V54.55L18,55.68v1.67L11,58V56.29L3.22,57V52.1L11,51.42v-1.8L18,49v1.81l12.9-1.13v-1.8l7-.62v1.8l7.76-.67Zm.13,34.26L39,90.28l-2.3-5.84,6.4-2.59L3.54,85.31V80.08l6-.53L5.39,76.4l5.23-5.91-7,.61V66.23l11.73-1,.58-.73,3.79,3.15L9.67,79.54l31.48-2.75-10-8.37L35,64.61,38,67.14,41.83,63l3.43,2.94L41.56,70l3.74,3-3.61,3.74,3.66-.32v5.23l-1.81.16ZM41,59.66,28.34,67.22v9.16l-10.14.89V72.44l3-.26V65.41l4.87-2.73L6.47,64.4v-5L36.6,56.8l2.16-1.18ZM22.48,90.92,15.4,92.57l-1.08-6,7-1.69Zm11.73-1.44L27,91.69l-1.58-6,7.13-2.24Z"/><path class="tour_tit_svg1" d="M59,59.35l-1.71,6.56L47.05,64l1.85-6.47Zm.36-10.49-1.8,6.52-10.2-2.13,1.9-6.48Zm-.27,20.36L54.35,88.67l-6.81-.85,4.74-19.49Zm23-17.93L79.25,63.72l-4.38-.66L75,64,70.14,65l-.32-2-9.33,2.75-.9-5.33,1.26-.34V46.75L73,44.2l.63,5.31-7.12,1.57v7.39l2.57-.72-.54-3.24,4.87-1,1.26,8.14,2.48-11Zm6.4,33.58-27,2.36V67.44l27-2.37ZM72.21,74V71.46l-4.42.38v2.57Zm0,7.35V78.76l-4.42.39v2.62ZM89.12,62.85l-7.35.65v-5l1.9-.16v-9L75,50.15V44.78l14.11-1.23Zm-7,10.31V70.59L77.72,71v2.57Zm0,7.35V77.89l-4.41.39V80.9Z"/><path class="tour_tit_svg1" d="M111,71,98.77,72.06,97,84.44l-6.31-.71,2-14.06V52.17L111,50.56Zm.72-23.29L91.37,49.49V43.31l20.39-1.79ZM104.5,65.48V57.31l-5.28.46v8.17Zm29.27-7.3-2.76.24V81.51l-6.49.57V59l-4.28.37L117.89,82.7l-6.27-.3,2.17-23.92V48.16l-1,.18-.5-6.23,20.39-3.22.81,6.15-13.08,2.09v5.64l13.4-1.18Z"/><path class="tour_tit_svg1" d="M144.53,59l-7.94.7v-17l7.94-.7Zm29.67,3.31-11.72,15L138.8,79.34V71.4l20-1.75,7.44-9.53V39.28l7.93-.69Zm-16-4.5-7.94.69v-17l7.94-.7Z"/><path class="tour_tit_svg1" d="M217.06,49.81,209.75,58l-11.58,1-4.29,15.53-11.14,1V67.56l5.41-.47,4-15.46,13.93-1.22L209.17,47V43.46L178,46.19V38.25l39.05-3.41Z"/><path class="tour_tit_svg1" d="M257.21,54.19l-36.08,3.16V49.18L257.21,46Z"/><path class="tour_tit_svg1" d="M276.48,56.61l-7.12.62V28.37l7.12-.63Zm0,11.45-7.13.62V61.6l7.13-.62Z"/><path class="tour_tit_svg1" d="M98.24,25.17l-7.1,9.08L75.32,35.64V30.83l13.61-1.19,4.51-5.74v-8l4.8-.42Zm-12-7.9-10.84.95V13.66l10.84-.95Zm0,7.51-10.84.94V21.14l10.84-.95Zm8-10.53-3.3.29v-4.4l3.3-.29Zm5-.44-3.3.29V9.71l3.3-.29Z"/><path class="tour_tit_svg1" d="M124.19,31.36l-5,.44-.74-2.66-5.07,3.17L100,33.48V28.65l6.69-18.71,5.13-.45L105.08,28.2l7.7-.67,4.45-2.68-1.5-5.52,4.85-.43Z"/><path class="tour_tit_svg1" d="M149.59,10.8l-2.81.24v4.29l-15.17,1.33v9.25l17.49-1.53v4.8l-22.3,1.95V8.18l4.81-.42v4l8.86-.78V5.84l3.77-.33v5.18l1.58-.13V5.37L149.59,5Z"/><path class="tour_tit_svg1" d="M172.32,18.2l-21.84,1.91V15.17l21.84-1.91Z"/><path class="tour_tit_svg1" d="M198.4,24.87l-5.05.44-.73-2.67-5.08,3.18L174.2,27V22.15l6.68-18.7L186,3,179.3,21.71,187,21l4.45-2.68-1.5-5.52,4.86-.42Z"/><polygon class="tour_tit_svg1" points="276.71 77.88 3.62 102.8 3.62 108.14 276.71 82.88 276.71 77.88"/><path d="M8.39,83.38,7.12,89.94,0,89.44,1.31,83ZM42.71,50.26,35,50.93V52.6l-7,.62V51.55L15,52.68v1.67L8,55V53.29L.22,54V49.1L8,48.42v-1.8L15,46v1.81l12.9-1.13v-1.8l7-.62v1.8l7.76-.67Zm.13,34.26L36,87.28l-2.3-5.84,6.4-2.59L.54,82.31V77.08l6-.53L2.39,73.4l5.23-5.91-7,.61V63.23l11.73-1,.58-.73,3.79,3.15L6.67,76.54l31.48-2.75-10-8.37L32,61.61,35,64.14,38.83,60l3.43,2.94L38.56,67l3.74,3-3.61,3.74,3.66-.32v5.23l-1.81.16ZM38,56.66,25.34,64.22v9.16l-10.14.89V69.44l3-.26V62.41l4.87-2.73L3.47,61.4v-5L33.6,53.8l2.16-1.18ZM19.48,87.92,12.4,89.57l-1.08-6,7-1.69Zm11.73-1.44L24,88.69l-1.58-6,7.13-2.24Z"/><path d="M56,56.35l-1.71,6.56L44.05,61l1.85-6.47Zm.36-10.49-1.8,6.52-10.2-2.13,1.9-6.48Zm-.27,20.36L51.35,85.67l-6.81-.85,4.74-19.49Zm23-17.93L76.25,60.72l-4.38-.66L72,61,67.14,62l-.32-2-9.33,2.75-.9-5.33,1.26-.34V43.75L70,41.2l.63,5.31-7.12,1.57v7.39l2.57-.72-.54-3.24,4.87-1,1.26,8.14,2.48-11Zm6.4,33.58-27,2.36V64.44l27-2.37ZM69.21,71V68.46l-4.42.38v2.57Zm0,7.35V75.76l-4.42.39v2.62ZM86.12,59.85l-7.35.65v-5l1.9-.16v-9L72,47.15V41.78l14.11-1.23Zm-7,10.31V67.59L74.72,68v2.57Zm0,7.35V74.89l-4.41.39V77.9Z"/><path d="M108,68,95.77,69.06,94,81.44l-6.31-.71,2-14.06V49.17L108,47.56Zm.72-23.29L88.37,46.49V40.31l20.39-1.79ZM101.5,62.48V54.31l-5.28.46v8.17Zm29.27-7.3-2.76.24V78.51l-6.49.57V56l-4.28.37L114.89,79.7l-6.27-.3,2.17-23.92V45.16l-1,.18-.5-6.23,20.39-3.22.81,6.15-13.08,2.09v5.64l13.4-1.18Z"/><path d="M141.53,56l-7.94.7v-17l7.94-.7Zm29.67,3.31-11.72,15L135.8,76.34V68.4l20-1.75,7.44-9.53V36.28l7.93-.69Zm-16-4.5-7.94.69v-17l7.94-.7Z"/><path d="M214.06,46.81,206.75,55l-11.58,1-4.29,15.53-11.14,1V64.56l5.41-.47,4-15.46,13.93-1.22L206.17,44V40.46L175,43.19V35.25l39.05-3.41Z"/><path d="M254.21,51.19l-36.08,3.16V46.18L254.21,43Z"/><path d="M273.48,53.61l-7.12.62V25.37l7.12-.63Zm0,11.45-7.13.62V58.6l7.13-.62Z"/><path d="M95.24,22.17l-7.1,9.08L72.32,32.64V27.83l13.61-1.19,4.51-5.74v-8l4.8-.42Zm-12-7.9-10.84,1V10.66l10.84-.95Zm0,7.51-10.84.94V18.14l10.84-.95Zm8-10.53-3.3.29V7.14l3.3-.29Zm5-.44-3.3.29V6.71l3.3-.29Z"/><path d="M121.19,28.36l-5,.44-.74-2.66-5.07,3.17L97,30.48V25.65l6.69-18.71,5.13-.45L102.08,25.2l7.7-.67,4.45-2.68-1.5-5.52,4.85-.43Z"/><path d="M146.59,7.8,143.78,8v4.29l-15.17,1.33v9.25l17.49-1.53v4.8l-22.3,1.95V5.18l4.81-.42v4L137.47,8V2.84l3.77-.33V7.69l1.58-.13V2.37L146.59,2Z"/><path d="M169.32,15.2l-21.84,1.91V12.17l21.84-1.91Z"/><path d="M195.4,21.87l-5.05.44-.73-2.67-5.08,3.18L171.2,24V19.15L177.88.45,183,0,176.3,18.71,184,18l4.45-2.68-1.5-5.52,4.86-.42Z"/><polygon points="273.71 74.88 0.62 99.8 0.62 105.14 273.71 79.88 273.71 74.88"/></g></g></svg>