<svg xmlns="http://www.w3.org/2000/svg" viewBox="0 0 191.35 76.9">
  <defs>
  </defs>
  <title>アセット 14</title>
  <g id="レイヤー_2" data-name="レイヤー 2">
    <g id="content">
      <polygon class="cls-1 shadow" points="182.35 0 191.35 8 191.35 61 182.35 53 182.35 0" />
      <polygon class="cls-2 shadow" points="0 68.9 9 76.9 191.35 61 182.35 53 0 68.9" />
      <polygon class="cls-3" points="182.35 0 0 15.9 0 68.9 182.35 53 182.35 0" />
      <path d="M33,48,16.56,49.44V28.62l4.34-.38V44.72L33,43.66Z" />
      <path d="M40.26,47.39l-4.45.39V27l4.45-.38Z" />
      <path d="M61.25,45.53,57,45.91V38.62l-9-6.91v15l-4.27.38V26.29L48,25.92l9,6.7V25.13l4.29-.37Z" />
      <path d="M81.14,27.26,68.85,28.33v4.09l10.71-.93v4.06l-10.71.94v4.13L81,39.56V43.8L64.48,45.25V24.48L81.14,23Z" />
      <path d="M104.49,43.12,92.05,44.21,87,39.09V29.77l2.1-2.11-5.2.45V23.82L101,22.33v4.29l-6.38.55-3.17,3v7l2.85,2.57,10.23-.89ZM107,23.55l-4.9.43V20.45L107,20Zm0,4.8-4.9.43V25.22l4.9-.43Z" />
      <path d="M133.6,37.93l-.38,3.51-19.38-.59L111,43.26,109.22,40l2.23-1.79V32.48l-2,.17v-4l5.84-.51v9ZM116,21.24l-1.32,3.64-5.36-1.56,1.29-3.64ZM133.06,30l-3.76.33,2.9,4.34L129,36.91,125.83,32,128,30.42l-3.4.3-2.74,6.69-3.71-1.2,2.11-5.11-3.23.28V27.83l4.78-.42L123,24.57l-5.34.46V21.5l2-.17-.71-2.43,3.55-1.15.94,3.25,3.2-.28.94-3.41,3.56.52-.69,2.55,2.06-.18v3.53l-8,.7,2.42.71L126.1,27l7-.61Z" />
      <path d="M158.69,34.11l-4.27,4.64-14.95,1.31-3.13-2.8V32.71l3.13-3.39,5.61-.49,3.12,2.82V35.1l4.22-.36,1.65-1.82v-4.6l-1.68-1.53-8.74.76,1-5.6-8.76.77V18.51l13.81-1.21-1,5.64,5.69-.49,4.27,3.89Zm-14.45,1.34V33.11l-1-.85-2.21.2-.94,1V35l.81.79Z" />
      <path d="M166.57,30.83l-4.62.41V14.55l4.62-.4Zm0,6.53-4.6.4V33.7l4.6-.41Z" />
    </g>
  </g>
</svg>
