<svg xmlns="http://www.w3.org/2000/svg" viewBox="0 0 75.67 22.07"><title>アセット 26</title><g id="レイヤー_2" data-name="レイヤー 2"><g id="content"><path d="M14.67,18.26l-2.74,3-9.18.8L0,19.56V17l3.26-.28v1l1,.89,6.19-.54,1-1.06V15.83l-1-1-7.66.67L0,13.16V9.11l2.75-3,9.16-.8,2.76,2.57v2.34l-3.34.29V9.59l-1-.91-6.13.53-1,1.08v1.23l1,.85,7.63-.66,2.8,2.51Z"/><path d="M30.37,16.42l-3.19,3.52-8,.7L15.91,17.7V8.17l3.21-3.5L27.18,4l3.19,2.93ZM27,15.15V8.74L25.64,7.46l-5,.43L19.25,9.42v6.43l1.45,1.31,4.92-.43Z"/><path d="M45.37,15.1l-3.2,3.53-7.09.62-3.24-3V3.55l3.36-.29V14.43l1.44,1.34,4-.35L42,13.83V2.66l3.34-.29Z"/><path d="M60.49,17l-3.3.29v-5.6L50.27,6.39V17.92L47,18.2v-16l3.28-.29L57.19,7.1V1.34l3.3-.29Z"/><path d="M75.67,12.51,72.45,16l-10.23.89V.9L72.45,0l3.22,2.94Zm-3.4-1.24V4.7L70.89,3.4l-5.31.46v9.4l5.31-.47Z"/></g></g></svg>