<svg id="uuid-d8f26b87-0835-4113-aed5-936df24bb5af" xmlns="http://www.w3.org/2000/svg" xmlns:xlink="http://www.w3.org/1999/xlink" viewBox="0 0 58 58"><defs><style>.uuid-1ab602a5-3a2e-4b15-b4f7-f2440d5a6094,.uuid-f4f250d5-fe28-403b-adb2-e8c35688380a{fill:#fff;}.uuid-842f3dae-b8b8-4f8a-9274-700c28de2f7e{mask:url(#uuid-82b7dda4-f7f3-4d51-be99-1d898b8ea4f9);}.uuid-f4f250d5-fe28-403b-adb2-e8c35688380a{fill-rule:evenodd;}</style><mask id="uuid-82b7dda4-f7f3-4d51-be99-1d898b8ea4f9" x="0" y="0" width="58" height="58" maskUnits="userSpaceOnUse"><g id="uuid-ee447f17-a30c-407d-8825-a2d0d5df8ef3"><path class="uuid-f4f250d5-fe28-403b-adb2-e8c35688380a" d="m54,29c0,13.81-11.19,25-25,25S4,42.81,4,29,15.19,4,29,4s25,11.19,25,25Zm3,0c0,15.46-12.54,28-28,28S1,44.46,1,29,13.54,1,29,1s28,12.54,28,28Zm-28,18.67c10.31,0,18.67-8.36,18.67-18.67s-8.36-18.67-18.67-18.67S10.33,18.69,10.33,29s8.36,18.67,18.67,18.67Z"/></g></mask></defs><path class="uuid-f4f250d5-fe28-403b-adb2-e8c35688380a" d="m54,29c0,13.81-11.19,25-25,25S4,42.81,4,29,15.19,4,29,4s25,11.19,25,25Zm3,0c0,15.46-12.54,28-28,28S1,44.46,1,29,13.54,1,29,1s28,12.54,28,28Zm-28,18.67c10.31,0,18.67-8.36,18.67-18.67s-8.36-18.67-18.67-18.67S10.33,18.69,10.33,29s8.36,18.67,18.67,18.67Z"/><g class="uuid-842f3dae-b8b8-4f8a-9274-700c28de2f7e"><path class="uuid-1ab602a5-3a2e-4b15-b4f7-f2440d5a6094" d="m29,55c14.36,0,26-11.64,26-26h-2c0,13.25-10.75,24-24,24v2ZM3,29c0,14.36,11.64,26,26,26v-2c-13.25,0-24-10.75-24-24h-2ZM29,3C14.64,3,3,14.64,3,29h2C5,15.75,15.75,5,29,5v-2Zm26,26c0-14.36-11.64-26-26-26v2c13.25,0,24,10.75,24,24h2Zm-26,29c16.02,0,29-12.98,29-29h-2c0,14.91-12.09,27-27,27v2ZM0,29c0,16.02,12.98,29,29,29v-2c-14.91,0-27-12.09-27-27H0ZM29,0C12.98,0,0,12.98,0,29h2C2,14.09,14.09,2,29,2V0Zm29,29C58,12.98,45.02,0,29,0v2c14.91,0,27,12.09,27,27h2Zm-11.33,0c0,9.76-7.91,17.67-17.67,17.67v2c10.86,0,19.67-8.81,19.67-19.67h-2ZM29,11.33c9.76,0,17.67,7.91,17.67,17.67h2c0-10.86-8.81-19.67-19.67-19.67v2ZM11.33,29c0-9.76,7.91-17.67,17.67-17.67v-2c-10.86,0-19.67,8.81-19.67,19.67h2Zm17.67,17.67c-9.76,0-17.67-7.91-17.67-17.67h-2c0,10.86,8.81,19.67,19.67,19.67v-2Z"/></g></svg>