<svg id="uuid-14092148-f117-4437-b4a0-9d3bdb8e8757" xmlns="http://www.w3.org/2000/svg" xmlns:xlink="http://www.w3.org/1999/xlink" viewBox="0 0 196.59 119.54"><defs><style>.uuid-9f5e6e12-105d-4e0b-b9ac-9880cda4972e{fill:none;}.uuid-77f29aa4-230a-4ef5-bc6a-58a2ddd51eee{clip-path:url(#uuid-91d4dbfe-6f65-4523-93b3-d78d96f89d49);}.uuid-05a49c66-da21-472d-8876-b029ff0a57d3{fill:#fff;}</style><clipPath id="uuid-91d4dbfe-6f65-4523-93b3-d78d96f89d49"><rect class="uuid-9f5e6e12-105d-4e0b-b9ac-9880cda4972e" width="196.58" height="119.53"/></clipPath></defs><g class="uuid-77f29aa4-230a-4ef5-bc6a-58a2ddd51eee"><path class="uuid-05a49c66-da21-472d-8876-b029ff0a57d3" d="m175.24,119.53h-38.47v-2h38.47c2.61,0,5.15-.51,7.53-1.52,2.3-.97,4.37-2.37,6.15-4.15s3.17-3.84,4.15-6.15c1.01-2.38,1.52-4.92,1.52-7.53v-19.21h2v19.21c0,2.88-.56,5.68-1.68,8.31-1.08,2.54-2.61,4.83-4.57,6.78-1.96,1.96-4.24,3.5-6.78,4.57-2.63,1.11-5.43,1.68-8.31,1.68h0Z"/><path class="uuid-05a49c66-da21-472d-8876-b029ff0a57d3" d="m196.58,40.56h-2v-19.21c0-2.61-.51-5.15-1.52-7.53-.97-2.3-2.37-4.37-4.15-6.15-1.78-1.78-3.85-3.17-6.15-4.15-2.38-1.01-4.92-1.52-7.53-1.52h-38.47V0h38.47c2.88,0,5.68.56,8.31,1.68,2.54,1.08,4.82,2.61,6.78,4.57,1.96,1.96,3.5,4.24,4.57,6.78,1.11,2.63,1.68,5.43,1.68,8.31v19.21h0Z"/><path class="uuid-05a49c66-da21-472d-8876-b029ff0a57d3" d="m2,40.56H0v-19.21c0-2.88.56-5.68,1.68-8.31,1.08-2.54,2.61-4.82,4.57-6.78,1.96-1.96,4.24-3.5,6.78-4.57C15.66.58,18.46.01,21.34.01h38.47v2H21.34c-2.61,0-5.15.51-7.53,1.52-2.3.97-4.37,2.37-6.15,4.15-1.78,1.78-3.17,3.85-4.15,6.15-1.01,2.38-1.52,4.92-1.52,7.53v19.21h0Z"/><path class="uuid-05a49c66-da21-472d-8876-b029ff0a57d3" d="m59.82,119.53H21.34c-2.88,0-5.68-.56-8.31-1.68-2.54-1.08-4.82-2.61-6.78-4.57s-3.5-4.24-4.57-6.78c-1.11-2.63-1.68-5.43-1.68-8.31v-19.21h2v19.21c0,2.61.51,5.14,1.52,7.53.97,2.3,2.37,4.37,4.15,6.15,1.78,1.78,3.85,3.17,6.15,4.15,2.38,1.01,4.92,1.52,7.53,1.52h38.47v2h0Z"/><path class="uuid-05a49c66-da21-472d-8876-b029ff0a57d3" d="m98.79,49.56h-1v20.41h1v-20.41Z"/><path class="uuid-05a49c66-da21-472d-8876-b029ff0a57d3" d="m108.5,59.27h-20.41v1h20.41v-1Z"/></g></svg>