<svg xmlns="http://www.w3.org/2000/svg" width="148.49" height="34.54" viewBox="0 0 148.49 34.54"><defs><style>.cls-1{fill:#42210b}</style></defs><title>header_title</title><g id="レイヤー_2" data-name="レイヤー 2"><path class="cls-1" d="M14 4.57a7.76 7.76 0 0 0 1.56-.13 1.19 1.19 0 0 1 .26-.05c.43 0 1.33 1.33 1.33 1.74a.78.78 0 0 1-.15.38 5.47 5.47 0 0 0-.64 1.25 46.23 46.23 0 0 1-2.44 4.75.9.9 0 0 0-.18.51c0 .33.23.48.46.66s1.44 1 1.44 1.33S14.48 17 14 17a.57.57 0 0 1-.39-.2c-.36-.31-.69-.57-1-.87a.87.87 0 0 0-.56-.26c-.36 0-.64.36-.87.62a20.51 20.51 0 0 1-5.59 4.31 14 14 0 0 1-3.1 1.3c-.67 0-1.85-1.63-1.85-2s.44-.38 1.1-.59A17.88 17.88 0 0 0 9 14.68a1 1 0 0 0 .41-.68.64.64 0 0 0-.31-.54c-.59-.38-1.92-1.07-2.56-1.37-.26-.11-.77-.29-.77-.57s1-1.91 1.56-1.91a18.62 18.62 0 0 1 3.31 1.66 1 1 0 0 0 .49.15c.48 0 .71-.48 1.41-1.84a2 2 0 0 1 .15-.35 7.81 7.81 0 0 0 .67-1.69c0-.53-.67-.51-1.06-.51H7.41c-.62 0-.8.21-1.13.67A37.79 37.79 0 0 1 3 11.67a1.39 1.39 0 0 1-.82.48c-.46 0-2.13-1.07-2.13-1.5 0-.21.23-.39.38-.49A23.62 23.62 0 0 0 7.08 1c.07-.21.17-.64.46-.64A5.8 5.8 0 0 1 9 1c.23.1 1.52.66 1.52.87s-.13.23-.26.28c-.39.15-.41.23-.77.84-.1.18-.23.41-.41.69a1.33 1.33 0 0 0-.21.54c0 .25.24.35.47.38zm10.62-.77c.3.05.64.05.64.31s-.16.26-.26.36-.13.58-.13.81v.57c0 5.28-.36 9.77-4.43 13.65-.21.18-.52.54-.8.54s-2.28-.95-2.28-1.4c0-.18.21-.36.33-.46 3.9-3.22 4.39-6.79 4.39-11.54 0-.77 0-1.79-.1-2.53v-.28c0-.08.15-.28.33-.28.46 0 1.77.18 2.31.25zm6.07 10.67c0 .8 0 1.18.41 1.18.85 0 5.9-4.49 6.72-5.34.13-.12.3-.33.51-.33.44 0 1.31 1.64 1.31 2s-1 1.2-1.34 1.48c-1.53 1.33-3.07 2.63-4.69 3.83-.69.54-1.79 1.36-2.41 1.89-.23.18-.48.46-.79.46a6.76 6.76 0 0 1-1.77-.76c-.36-.21-.82-.46-.82-.92 0-.18.1-1.84.1-3.07V6a22.52 22.52 0 0 0-.1-2.6v-.13a.23.23 0 0 1 .26-.27c.15 0 .79.1 1 .13 1.33.18 2.07.26 2.07.54s-.1.23-.2.35a1 1 0 0 0-.23.67v2.5zm25.43-6.68c.49 0 .72-.18.72-.69V1.86c0-.53-.05-1.17-.05-1.37s.18-.44.49-.44 1.53.13 1.87.15.69.06.69.36-.21.31-.39.41-.25.28-.25.77v5.38c0 .49.25.67.72.67h2.75c.59 0 .56.33.56 1.07s0 1.09-.56 1.09c-.9 0-1.8-.07-2.69-.05-.46 0-.67.18-.69.64 0 .9.1 1.79.17 2.68 0 .1.08.23.21.23s.15-.07.2-.15a17.84 17.84 0 0 0 1.04-2.3c.05-.15.13-.36.36-.36a3.77 3.77 0 0 1 1.41.77c.56.38.72.46.72.66s-.26.28-.44.34-.41.28-.59.63a24.69 24.69 0 0 1-2 3.5 1.2 1.2 0 0 0-.28.77c0 .43.64 2.65 1 2.65s.69-2.24.74-2.68.15-.41.49-.41 1.38.26 1.38.95a17.19 17.19 0 0 1-.64 3c-.36 1.07-.74 2.11-2.1 2.11-1.57 0-2.26-1.71-2.67-3-.08-.15-.18-.3-.36-.3a.51.51 0 0 0-.33.12c-.46.46-2.79 2.61-3.31 2.61A2.18 2.18 0 0 1 52.91 21c0-.31.41-.56.64-.72a21 21 0 0 0 3.54-3.14A1.23 1.23 0 0 0 57.4 16c-.23-1.84-.44-3.57-.51-5.46 0-.49-.23-.67-.72-.67h-7.72c-.48 0-.69.23-.69.71v8c0 1.17.05 2.32.05 3.5 0 .81-.23.81-1.2.81s-1.18 0-1.18-.71V18.3c0-.33-.13-.58-.49-.58h-.2c-1 .26-2 .44-2.95.64a.52.52 0 0 0-.36.33c-.08.18-.15.33-.38.33s-.31-.23-.47-.76a17.29 17.29 0 0 1-.48-1.87c0-.3.41-.3 1-.35s.56-.23.56-.67V3.62c0-.3-.13-.43-.46-.45-.59 0-.62-.18-.62-1.2s0-1.2.59-1.2h7.18c.64 0 .56.38.59 1s.41.69 1 .69h.49c.46 0 .61-.21.66-.67S51 1 51 .61V.36c0-.28.24-.31.47-.31.48 0 1.41.08 1.92.13.23 0 .69 0 .69.31s-.13.2-.31.33-.28.46-.28.94.23.64.69.67h1.52c.46 0 .46.23.46 1s0 1-.46 1h-1.18c-.08 0-.13 0-.13.12a.11.11 0 0 0 .08.1l.36.16c.51.2 1 .41 1 .61s-.23.23-.41.26a.37.37 0 0 0-.28.2c-.23.43-.39.92-.62 1.35a.93.93 0 0 0 0 .23c0 .28.2.39.46.39zM43.69 5.13a.67.67 0 0 0 .71.69h.36a.67.67 0 0 0 .72-.69v-1.3a.74.74 0 0 0-.72-.72h-.36a.74.74 0 0 0-.71.72zm0 4.85a.67.67 0 0 0 .71.69h.36a.67.67 0 0 0 .72-.69V8.6a.68.68 0 0 0-.72-.69h-.36a.68.68 0 0 0-.71.69zm0 5.06c0 .35.15.61.53.61a.86.86 0 0 0 .13 0l.46-.07c.52-.08.67-.31.67-.82V13.4c0-.48-.21-.69-.72-.69h-.36c-.51 0-.71.21-.71.69zm4.07-8c0 .48.21.69.69.71h3.18a.89.89 0 0 0 1-.59 18.78 18.78 0 0 0 .74-2.27v-.16c0-.28-.21-.38-.47-.4h-3.89c-.56 0-.44-.23-.47-.82 0-.31-.2-.41-.28-.41s-.46.1-.46.66zM55.32 17v1.1c0 .71-.39.94-1.05.94h-2.36c-.46 0-.74.18-.74.64s0 .58-1.18.58c-.69 0-1 0-1-.48v-7.53c0-.71.35-1 1-1 .46 0 .92.05 1.39.05h1.56c.44 0 .87-.05 1.33-.05.67 0 1.08.21 1.08 1v1.17zm-5.18-9.42c-.3 0-.46-.46-.71-1.22a9.4 9.4 0 0 1-.43-1.2c0-.39 1-.59 1.3-.59s.44.15.8 1.17a7 7 0 0 1 .33 1.15c.02.41-.88.69-1.29.69zm1.62 5.54a.59.59 0 0 0-.62.59.61.61 0 0 0 .62.59h1a.6.6 0 0 0 .61-.59.58.58 0 0 0-.61-.59zm0 2.68a.6.6 0 0 0-.62.61v.06a.6.6 0 0 0 .62.61h1a.59.59 0 0 0 .61-.61v-.06a.59.59 0 0 0-.61-.61zM62.53 6a3.82 3.82 0 0 1-.9.26c-.31 0-.41-.31-.49-.54a26.26 26.26 0 0 0-1.46-3.19.71.71 0 0 1-.1-.33c0-.46 1.25-.76 1.49-.76a.53.53 0 0 1 .43.25 13.71 13.71 0 0 1 .9 1.71 14.89 14.89 0 0 1 .74 2c0 .39-.28.5-.61.6zM76 10.8a.26.26 0 0 0-.21.18 20.28 20.28 0 0 1-8.3 10.9 3.18 3.18 0 0 1-1.34.66c-.64 0-1.71-1.3-1.71-1.91 0-.28.33-.44.64-.62A18.9 18.9 0 0 0 74.55 3V.76c0-.46.1-.77.61-.77a22.13 22.13 0 0 1 2.21.23c.25 0 .71.05.71.36s-.28.35-.46.43a.48.48 0 0 0-.25.44c0 .79 0 1.6-.06 2.42v.56a22.47 22.47 0 0 0 1.26 5.77 19.86 19.86 0 0 0 8.22 9.88c.26.15.62.36.62.61 0 .67-1.08 1.94-1.69 1.94a10.91 10.91 0 0 1-2.82-1.86A21.3 21.3 0 0 1 76.21 11c-.05-.12-.1-.2-.21-.2zM94 21c-1.21 0-3.24.06-3.41.06-.54 0-.72-.18-.72-.72V3.72c0-.62.15-.82.72-.82.28 0 2.2.05 3.41.05h2c3.69 0 5.87 1 5.87 4.08a4.37 4.37 0 0 1-1.67 3.86c-.2.15-.33.25-.33.33s.13.21.41.31a3.87 3.87 0 0 1 2.46 3.95c0 3.81-2.54 5.54-6.66 5.54zM92.82 9.52c0 .64.12.77.76.77h2.06c1.89 0 3.25-.72 3.25-2.76 0-1.68-1.38-2.12-3-2.12h-2.31c-.64 0-.76.13-.76.77zm0 8.25c0 .64.12.76.76.76H96c2.13 0 3.7-1 3.7-3.11 0-1.94-1.26-2.68-3.23-2.68h-2.89c-.64 0-.76.13-.76.76zm22.49 1.4a1.2 1.2 0 0 1 .15.49c0 .23-.15.35-.51.53a9.55 9.55 0 0 1-4.2.95c-4.57 0-6.46-3-6.46-6.44 0-3.95 2.51-7 6.48-7 3.28 0 5.18 2.24 5.18 6.17 0 1.3-.2 1.51-.87 1.51h-7.26c-.46 0-.64.08-.64.38a3.31 3.31 0 0 0 .54 1.43 3.56 3.56 0 0 0 3.28 1.5 6.24 6.24 0 0 0 2.87-.69 1.34 1.34 0 0 1 .52-.21c.2 0 .3.18.48.54zm-2.13-6.46a2.87 2.87 0 0 0-.36-1.2 2.23 2.23 0 0 0-2.15-1.22 3.24 3.24 0 0 0-2.82 1.43 2.38 2.38 0 0 0-.46 1c0 .21.18.28.59.28h4.54c.48 0 .64 0 .66-.29zM126 21c-.59 0-.72-.05-.75-.74 0-.28 0-.43-.2-.43a.71.71 0 0 0-.36.18 7.13 7.13 0 0 1-3.77 1.15c-2.2 0-3.84-1.15-3.84-3.47 0-3.27 3.87-4.7 7.3-5 .44 0 .62-.13.64-.41a2.24 2.24 0 0 0-.41-1.13 2.2 2.2 0 0 0-2-.81 7 7 0 0 0-3.39 1 1 1 0 0 1-.51.23c-.18 0-.28-.15-.43-.51l-.49-1.12a1.08 1.08 0 0 1-.13-.48c0-.23.15-.39.51-.57A11.53 11.53 0 0 1 123 7.74c3.28 0 4.89 1.5 4.89 5.1l-.07 3.88v3.73c0 .44-.16.53-.72.53zm-1.39-6a1.2 1.2 0 0 0-.31 0c-2.35.33-4.38 1.17-4.38 2.45 0 .84.69 1.3 1.77 1.3a5.38 5.38 0 0 0 2.72-.84 1 1 0 0 0 .64-1.12v-1.12c.02-.51-.05-.67-.42-.67zm7.85 1.9c0 1.15.06 3.27.06 3.45 0 .53-.16.63-.75.63h-1.48c-.59 0-.75-.1-.75-.63 0-.18.05-2.3.05-3.45V12c0-1.15-.05-3.26-.05-3.44 0-.54.16-.64.75-.64h1.25c.59 0 .69.1.72.69 0 .33.08.48.2.48a.77.77 0 0 0 .39-.18 5.55 5.55 0 0 1 3.41-1.14A4.06 4.06 0 0 1 139.33 9c.24.26.36.38.52.38s.25-.1.51-.3a6.35 6.35 0 0 1 3.85-1.3c2.53 0 4.23 1.73 4.23 4.56v4.6c0 1.15.05 3.27.05 3.45 0 .53-.16.63-.75.63h-1.48c-.59 0-.75-.1-.75-.63 0-.18.05-2.3.05-3.45V13.1c0-1.56-.74-2.61-2.33-2.61a3.62 3.62 0 0 0-2.25.82 1 1 0 0 0-.49 1v8.05c0 .53-.15.63-.74.63h-1.49c-.59 0-.74-.1-.74-.63 0-.18.05-2.3.05-3.45V13.1c0-1.56-.75-2.61-2.34-2.61a3.74 3.74 0 0 0-2.25.79 1.23 1.23 0 0 0-.57 1.15zM22.37 34.4v-.7a.73.73 0 0 0 .34-.11.37.37 0 0 0 .08-.28V29.7a.4.4 0 0 0-.08-.29.49.49 0 0 0-.32-.08v-.7h1.77a2.68 2.68 0 0 1 1.51.33A1.23 1.23 0 0 1 26.1 30a1.56 1.56 0 0 1-.25.91 1.32 1.32 0 0 1-.77.45 1 1 0 0 1 .82.42 1.92 1.92 0 0 1-.14 2.2 1.73 1.73 0 0 1-1.24.41zm1.63-.71h.27a.62.62 0 0 0 .54-.22 1.17 1.17 0 0 0 .19-.77 1.28 1.28 0 0 0-.17-.74.62.62 0 0 0-.54-.22H24zm0-2.62h.25a.6.6 0 0 0 .51-.19 1.07 1.07 0 0 0 .16-.66 1.08 1.08 0 0 0-.16-.67.6.6 0 0 0-.51-.19H24zm4.89 3.33v-.7a1.78 1.78 0 0 0 .35-.06.14.14 0 0 0 .07-.14l-.11-.83h-1l-.15.75v.19a.24.24 0 0 0 .18 0h.13v.68h-1.55v-.7h.1a.37.37 0 0 0 .23 0 .34.34 0 0 0 .09-.19l1.1-4.82h1.21l1 4.88a.24.24 0 0 0 .08.16.28.28 0 0 0 .18 0 .51.51 0 0 1 .13 0v.68zm-.56-2.4h.78l-.35-2zm6.74 2.49a.89.89 0 0 1-.8-.36 2.44 2.44 0 0 1-.27-1.26c0-.73-.19-1.08-.51-1.08h-.25v1.52a.37.37 0 0 0 .08.28.53.53 0 0 0 .32.09v.7h-2v-.7a.69.69 0 0 0 .34-.11.37.37 0 0 0 .08-.28V29.7a.4.4 0 0 0-.08-.29.46.46 0 0 0-.31-.08v-.7h1.77A2.61 2.61 0 0 1 35 29a1.49 1.49 0 0 1 .47 1.24 1.43 1.43 0 0 1-.3 1 1.26 1.26 0 0 1-.91.38 1 1 0 0 1 .68.34 1.84 1.84 0 0 1 .24.9v.26c0 .53.12.61.18.61a.14.14 0 0 0 .14-.11 1.27 1.27 0 0 0 .05-.39v-.2H36v.11a1.91 1.91 0 0 1-.23 1.07.84.84 0 0 1-.7.28zm-1.8-3.39h.29a.75.75 0 0 0 .58-.2 1 1 0 0 0 .18-.68 1 1 0 0 0-.18-.66.72.72 0 0 0-.58-.2h-.29zm6.87 3.39a.9.9 0 0 1-.81-.36 2.46 2.46 0 0 1-.25-1.26c0-.73-.19-1.08-.51-1.08h-.26v1.52a.37.37 0 0 0 .08.28.52.52 0 0 0 .31.09v.7h-2v-.7a.69.69 0 0 0 .34-.11.37.37 0 0 0 .08-.28V29.7a.4.4 0 0 0-.08-.29.48.48 0 0 0-.32-.08v-.7h1.77a2.56 2.56 0 0 1 1.58.38 1.46 1.46 0 0 1 .48 1.24 1.38 1.38 0 0 1-.31 1 1.24 1.24 0 0 1-.91.38.91.91 0 0 1 .68.34 1.73 1.73 0 0 1 .25.9v.26c0 .53.12.61.17.61s.11 0 .15-.11a1.27 1.27 0 0 0 .05-.39 1.27 1.27 0 0 1 0-.2h.45v.11a1.91 1.91 0 0 1-.23 1.07.85.85 0 0 1-.71.27zm-1.8-3.39h.28a.78.78 0 0 0 .59-.2 1 1 0 0 0 .18-.68 1 1 0 0 0-.18-.66.74.74 0 0 0-.59-.2h-.28zm3.46 3.3v-.7a.73.73 0 0 0 .34-.11.37.37 0 0 0 .08-.28V29.7a.4.4 0 0 0-.08-.29.49.49 0 0 0-.32-.08v-.7h3.7v2h-.62a2 2 0 0 0-.29-1 1.07 1.07 0 0 0-.82-.25h-.39v1.76a.55.55 0 0 0 .41-.19 1.23 1.23 0 0 0 .13-.63h.55v2.31h-.55a1.62 1.62 0 0 0-.15-.68.47.47 0 0 0-.41-.17v2h.36a1 1 0 0 0 .86-.31 2.29 2.29 0 0 0 .23-1.23h.62v2.27zm4.58 0v-.7a.73.73 0 0 0 .34-.11.37.37 0 0 0 .08-.28V29.7a.4.4 0 0 0-.08-.29.49.49 0 0 0-.32-.08v-.7h2.08v.7c-.24 0-.34.05-.39.1s-.08.15-.08.3v4h.26a1 1 0 0 0 .86-.31 2.29 2.29 0 0 0 .23-1.23h.61v2.27zm8.06.13a1.38 1.38 0 0 1-1.29-.72 4.76 4.76 0 0 1-.41-2.25 5 5 0 0 1 .42-2.29 1.31 1.31 0 0 1 1.22-.81 1.07 1.07 0 0 1 .51.12 1.23 1.23 0 0 1 .4.36l.08-.32h.53v2.23h-.64a4.53 4.53 0 0 0-.23-1.24.49.49 0 0 0-.46-.35c-.22 0-.37.15-.46.46a10 10 0 0 0-.13 2.1 5.87 5.87 0 0 0 .13 1.6.47.47 0 0 0 .46.36.47.47 0 0 0 .47-.31 2.75 2.75 0 0 0 .15-1.08v-.46h.73v.57a2.7 2.7 0 0 1-.32 1.5 1.36 1.36 0 0 1-1.16.53zm5.78-.04a.89.89 0 0 1-.8-.36 2.55 2.55 0 0 1-.26-1.26c0-.73-.18-1.08-.51-1.08h-.25v1.52c0 .14 0 .24.08.28a.49.49 0 0 0 .31.09v.7h-2v-.7a.73.73 0 0 0 .34-.11.37.37 0 0 0 .08-.28V29.7a.4.4 0 0 0-.08-.29.49.49 0 0 0-.32-.08v-.7h1.77a2.58 2.58 0 0 1 1.58.38 1.46 1.46 0 0 1 .48 1.24 1.43 1.43 0 0 1-.31 1 1.24 1.24 0 0 1-.91.38.91.91 0 0 1 .68.34 1.65 1.65 0 0 1 .24.9v.26c0 .53.12.61.18.61a.14.14 0 0 0 .14-.11 1 1 0 0 0 .06-.39 1.27 1.27 0 0 1 0-.2h.45v.11a1.92 1.92 0 0 1-.17 1.01.87.87 0 0 1-.78.33zm-1.79-3.39h.28a.74.74 0 0 0 .58-.2 1 1 0 0 0 .19-.68 1 1 0 0 0-.18-.66.74.74 0 0 0-.59-.2h-.28zm5.39 3.3v-.7a1.78 1.78 0 0 0 .34-.06.14.14 0 0 0 .07-.14l-.11-.83h-1l-.15.75v.19a.24.24 0 0 0 .18 0h.13v.68h-1.54v-.7h.1a.37.37 0 0 0 .23 0 .34.34 0 0 0 .09-.19l1.1-4.82h1.21l1 4.88a.24.24 0 0 0 .08.16.3.3 0 0 0 .18 0 .51.51 0 0 1 .13 0v.68zm-.56-2.4H64l-.35-2zm3.34 2.4v-.7a.68.68 0 0 0 .33-.11c.06 0 .08-.14.08-.28V29.7c0-.15 0-.24-.08-.29a.46.46 0 0 0-.31-.08v-.7h3.7v2h-.62a2.07 2.07 0 0 0-.25-1.07 1.1 1.1 0 0 0-.86-.25h-.39v1.76c.26 0 .4-.08.48-.19a1.29 1.29 0 0 0 .13-.63h.55v2.31h-.55a1.62 1.62 0 0 0-.15-.68.47.47 0 0 0-.41-.17l-.07 1.59a.37.37 0 0 0 .09.29.51.51 0 0 0 .33.08l.07.7zm5.18 0v-.7h.18a.46.46 0 0 0 .31-.08.37.37 0 0 0 .08-.29v-4.09a.7.7 0 0 0-.55.33 3.3 3.3 0 0 0-.17 1.27h-.58V28.6h3.86v2.24h-.59a3.7 3.7 0 0 0-.21-1.31.65.65 0 0 0-.57-.3v4.05a.42.42 0 0 0 .08.29.48.48 0 0 0 .31.08h.17v.7zm5.9.14a1.58 1.58 0 0 1-.68-.14 1.52 1.52 0 0 1-.52-.4l-.19.39h-.51v-2.46h.63a3.23 3.23 0 0 0 .4 1.38.92.92 0 0 0 .78.5.51.51 0 0 0 .4-.16.57.57 0 0 0 .15-.42 1 1 0 0 0-.14-.5 2.1 2.1 0 0 0-.5-.48l-.41-.25a9.33 9.33 0 0 1-.71-.54 2.65 2.65 0 0 1-.59-.69 1.58 1.58 0 0 1-.15-.71 1.56 1.56 0 0 1 .41-1.1 1.33 1.33 0 0 1 1-.45 1.74 1.74 0 0 1 .67.12 1.34 1.34 0 0 1 .51.39l.17-.36h.5v2.17h-.63a3 3 0 0 0-.27-1.24.78.78 0 0 0-.68-.41.6.6 0 0 0-.41.14.52.52 0 0 0-.14.38c0 .24.28.56.84.94l.09.06a4.57 4.57 0 0 1 1.22 1.08 1.89 1.89 0 0 1 .3 1.07 1.74 1.74 0 0 1-.41 1.23 1.43 1.43 0 0 1-1.13.46zm5.56-.14v-.7a.58.58 0 0 0 .3-.11.43.43 0 0 0 .08-.28v-3.85l-.9 4.92H82l-1-4.91v3.84a.38.38 0 0 0 .08.27.43.43 0 0 0 .29.1v.7L80 34.4v-.7a.68.68 0 0 0 .33-.11.37.37 0 0 0 .08-.28V29.7a.4.4 0 0 0-.08-.29.46.46 0 0 0-.31-.08v-.7h2l.61 3.62.6-3.6h1.93v.7a.69.69 0 0 0-.34.11.44.44 0 0 0-.08.29v3.61a.41.41 0 0 0 .08.28.43.43 0 0 0 .31.09v.7zm4.6 0v-.7a1.63 1.63 0 0 0 .34-.06.14.14 0 0 0 .07-.14l-.11-.83h-1l-.15.75v.19a.24.24 0 0 0 .18 0h.13v.68h-1.54v-.7h.1a.24.24 0 0 0 .32-.24l1.1-4.82h1.21l1 4.88a.21.21 0 0 0 .26.2.51.51 0 0 1 .13 0v.68zm-.56-2.4h.78l-.35-2zm5.99 2.4l-1.49-4.09v3a.41.41 0 0 0 .08.28.44.44 0 0 0 .31.09v.7h-1.63v-.7a.64.64 0 0 0 .33-.11c.06 0 .08-.14.08-.28V29.7c0-.15 0-.24-.08-.29a.46.46 0 0 0-.31-.08v-.7h1.65l1.36 3.71v-2.61a.37.37 0 0 0-.09-.29.43.43 0 0 0-.31-.08v-.7h1.64v.7a.69.69 0 0 0-.34.11c-.06.05-.08.14-.08.29v4.68zm6.73-3.57a.64.64 0 0 1-.51-.22.88.88 0 0 1-.19-.6 1.52 1.52 0 0 1 .29-.88 2.45 2.45 0 0 1 .83-.67l.28.45c-.16.12-.3.22-.42.33a1.39 1.39 0 0 0-.29.35h.15a.52.52 0 0 1 .37.13.68.68 0 0 1-.51 1.12zm-1.68 0a.64.64 0 0 1-.5-.22.88.88 0 0 1-.19-.6 1.5 1.5 0 0 1 .29-.88 2.35 2.35 0 0 1 .83-.67l.29.45a3.41 3.41 0 0 0-.43.33 1.93 1.93 0 0 0-.3.35h.16a.48.48 0 0 1 .36.13.65.65 0 0 1 .16.45.65.65 0 0 1-.67.67zm3.2 3.57v-.7a.73.73 0 0 0 .34-.11.37.37 0 0 0 .08-.28V29.7a.4.4 0 0 0-.08-.29.49.49 0 0 0-.32-.08v-.7h1.77a2.68 2.68 0 0 1 1.51.33 1.23 1.23 0 0 1 .47 1.08 1.56 1.56 0 0 1-.25.91 1.32 1.32 0 0 1-.77.45 1 1 0 0 1 .82.42 1.92 1.92 0 0 1-.14 2.2 1.73 1.73 0 0 1-1.24.41zm1.61-.71h.27a.64.64 0 0 0 .55-.22 1.25 1.25 0 0 0 .16-.74 1.21 1.21 0 0 0-.17-.74.62.62 0 0 0-.54-.22h-.27zm0-2.62h.25a.64.64 0 0 0 .52-.19 1.15 1.15 0 0 0 .15-.66 1.16 1.16 0 0 0-.15-.67.64.64 0 0 0-.52-.19h-.25zm2.98 3.33v-.7a.68.68 0 0 0 .33-.11c.06 0 .08-.14.08-.28V29.7c0-.15 0-.24-.08-.29a.46.46 0 0 0-.31-.08v-.7h3.7v2h-.62a2 2 0 0 0-.29-1 1.09 1.09 0 0 0-.82-.25h-.39v1.76a.57.57 0 0 0 .42-.19 1.23 1.23 0 0 0 .13-.63h.55v2.31h-.55a2 2 0 0 0-.15-.68.47.47 0 0 0-.41-.17v2h.37a1 1 0 0 0 .86-.31 2.32 2.32 0 0 0 .22-1.23h.62v2.27zm6.51 0v-.7a1.63 1.63 0 0 0 .34-.06.15.15 0 0 0 .08-.14l-.11-.83h-1l-.15.75c0 .12 0 .16.06.19a.23.23 0 0 0 .17 0h.13v.68h-1.55v-.7h.1a.43.43 0 0 0 .24 0 .34.34 0 0 0 .09-.19l1.1-4.82h1.2l1 4.88a.4.4 0 0 0 .08.16.3.3 0 0 0 .18 0 .52.52 0 0 1 .14 0v.68zm-.57-2.4h.79l-.36-2zm6.61 2.4v-.7a.58.58 0 0 0 .3-.11.43.43 0 0 0 .08-.28v-3.85l-.9 4.92h-.72l-.94-4.93.05 3.84a.38.38 0 0 0 .08.27.42.42 0 0 0 .28.1v.7h-1.52v-.7a.69.69 0 0 0 .34-.11.37.37 0 0 0 .08-.28V29.7a.4.4 0 0 0-.08-.29.48.48 0 0 0-.32-.08v-.7h2l.61 3.62.6-3.6h1.93v.7a.68.68 0 0 0-.33.11.44.44 0 0 0-.08.29v3.61a.41.41 0 0 0 .08.28.43.43 0 0 0 .31.09v.7zm4.58-3.57l-.24-.44c.17-.13.32-.23.43-.33a1.54 1.54 0 0 0 .29-.35h-.18a.46.46 0 0 1-.34-.13.58.58 0 0 1-.17-.43.69.69 0 0 1 .2-.5.67.67 0 0 1 1 0 .84.84 0 0 1 .19.59 1.44 1.44 0 0 1-.3.88 2.21 2.21 0 0 1-.82.67zm-1.67 0l-.25-.44a4.34 4.34 0 0 0 .43-.33 1.93 1.93 0 0 0 .29-.35h-.18a.44.44 0 0 1-.34-.13.56.56 0 0 1-.16-.43.68.68 0 0 1 .19-.5.67.67 0 0 1 1 0 .84.84 0 0 1 .19.59 1.5 1.5 0 0 1-.29.88 2.34 2.34 0 0 1-.83.67z" id="header"/></g></svg>