<svg xmlns="http://www.w3.org/2000/svg" width="113.09" height="47" viewBox="0 0 113.09 47"><defs><style>.cls-1{fill:#de3232}</style></defs><title>btn_submit</title><g id="レイヤー_2" data-name="レイヤー 2"><g id="button"><path d="M3 3h110.09v44H3z"/><path class="cls-1" d="M0 0h110.09v44H0z"/><path d="M32.17 19.13L30.26 22l-.64-.44v6.15h-2.24l-.28 1.87h4v3.07H10.46v-3.11h3.92l-.28-1.87h-2.23v-6.1l-.47.32-2-2.71 2.19-1.52-1.89-2.22 2.3-1.68L14 16l2.54-1.77h-3.9v-2.81h8l1.06-.72 2.42 2.09-.65.46.74.51 2-2.48 2.3 1.72-1.91 2.34 1.15.78 1.91-2.38L32 15.46l-1.9 2.27zm-3.45 1.75l-3.32-2.32v1.17h-9.15v-1.29l-3.44 2.44zM26 25.13v-1.75H15.51v1.75zm-2.12 2.54h-6.25l.3 1.87h5.62zm-.41-10.51l-2.75-1.93L18 17.16zM43 14.13l-1.43 2.41v2.84H39.1v1.73h3V24h-3v5.23l2.9-.38.37 2.84-9 1.11L33 30l3-.37V24h-3v-2.89h3v-1.73h-2.45v-2.87h.13L32.3 14.1l4.75-3 .95 1.3.74-1zm-7.33 14.3l-2.12.46-.88-3.6 2.1-.51zm4.91-11.92l-2.93-2-2.93 2zm1.82 8.68l-.9 3.63-2.1-.46.88-3.65zm12.91.67l-1.76 1.47 1.39 4.48-2.65.83-2.15-7.28v7.53h-4v-2.3l-2.61 1.63-1.34-2.43 3.28-2 1.13 2h.39v-5.08L46 27l-3.16-1.24 1.06-2.34 3.09 1.19v-2.42h-4.13V19.5H50v-1.26h-6.15v-2.69H50v-1.29h-6.6V11.6h9.89v7.9h1.32v2.69h-4.47v1.93l2.22-.69.41 1.31 1.15-.9zm20.97-8.38h-3.14v15h-3.89v-1.82h-9L57 27.54v-4.92l3.2-3.14h9v-2H55.62v-3.79h13.63v-1.91h3.89v1.91h3.14zm-7 9.41v-3.65h-7.4l-1 .85V26l1 .89zm29.28 1.73l-3.87 3.85H81.11l-2.84-2.77v-4.11l2.84-2.83h5.09l2.8 2.8v3.13h3.83l1.49-1.52V23l-1.48-1.5h-7.93l.92-5h-8v-3.8h12.59l-.9 5h5.17l3.87 3.86zm-13.12.07v-2.12l-.9-.85h-2l-.85.85v1.33l.73.79z"/></g></g></svg>