<svg xmlns="http://www.w3.org/2000/svg" xmlns:xlink="http://www.w3.org/1999/xlink" width="283.67" height="134.14" viewBox="0 0 283.67 134.14"><defs><style>.cls-1{fill:url(#名称未設定グラデーション_14);}.cls-2{fill:url(#名称未設定グラデーション_14-2);}</style><linearGradient id="名称未設定グラデーション_14" x1="76.46" y1="104.04" x2="200.18" y2="104.04" gradientUnits="userSpaceOnUse"><stop offset="0" stop-color="#603813"/><stop offset="0.66" stop-color="#8c6239"/><stop offset="0.87" stop-color="#603813"/></linearGradient><linearGradient id="名称未設定グラデーション_14-2" x1="0" y1="33.76" x2="280.97" y2="33.76" xlink:href="#名称未設定グラデーション_14"/></defs><title>title_3</title><g id="レイヤー_2" data-name="レイヤー 2"><g id="txt"><path d="M135.67,109.48l-3.44,6.81L135,132.94l-6.6,1.2-1.27-7.78-2.81,5.5-5.17-2.75v3.95h-17V106.91h17v20.31l6.09-12-1.9-11.1H98.74v29.35H92.2V130l-11.84,1.94-1.2-7.66,2.35-.46V88.54H80V81h20.1v7.55H98.74V97.3h4.54V89.46h-1.72V82.71h5.28v-3h7.07v3h5v6.75H117.3V97.3h4.93l-2.81-16.77,6.49-1.2,3,18h5.23v6.86h-4l.4,2.58ZM92.2,95.18V88.54H88.06v6.64Zm0,13.62v-6.24H88.06v6.24Zm0,13.33v-6H88.06v6.64ZM112.93,117v-4.12h-4.48V117Zm0,10.07v-4.18h-4.48v4.18ZM112,97.3V89.46h-3.39V97.3Zm22.4-5-4.59.63-1.49-11.44,4.65-.52Z"/><path d="M171.4,84.08l-25.55,49.26-9-4.63,25.39-49.15ZM189,127.74l-8.33,5.77L160,106.22l8-5.72Z"/><path d="M203.14,117.09H192.69V79.5h10.45Zm0,14.71h-10.4v-9.16h10.4Z"/><path d="M72.94,70.22H57.35L33.17,18.68H29.64L16.9,48.89H2.7V35.51H8.15L20.51,5.91h21L66.18,56.76h6.76Zm.3-56.89H57.12V2.7H73.24Zm0,15H57.12V17.61H73.24Z"/><path d="M144.6,41.24h-21l-6.91,29H84.8V56.76H106l3.61-15.52H77V27.86H144.6Zm-2.69-21.56H79.12V6.37h62.79Z"/><path d="M215.34,53.48,197,70.22H152.7V57.37h38.69L201.83,48V39.1H149.4V26.25h65.94Zm-3.23-34.26H152.47V6.37h59.64Z"/><path d="M283.67,47.51,260.56,70.22H220V56.69h35l15.12-14.76v-36h13.51Zm-33.47-24H221.11V10.12H250.2Z"/><path class="cls-1" d="M133,106.78l-3.44,6.81,2.81,16.65-6.6,1.2-1.27-7.78-2.81,5.5-5.17-2.75v4h-17V104.21h17v20.31l6.09-12-1.9-11.1H96v29.35H89.5v-3.54l-11.84,1.94-1.2-7.66,2.35-.46V85.84H77.26V78.29h20.1v7.55H96V94.6h4.54V86.76H98.86V80h5.28V77h7.07v3h5.05v6.75h-1.67V94.6h4.94l-2.81-16.77,6.49-1.2,3,18h5.23v6.86h-4l.4,2.58ZM89.5,92.48V85.84H85.36v6.64Zm0,13.62V99.86H85.36v6.24Zm0,13.33v-6H85.36v6.64Zm20.73-5.09v-4.12h-4.48v4.12Zm0,10.07v-4.18h-4.48v4.18Zm-1-29.81V86.76h-3.39V94.6Zm22.4-5-4.59.63-1.5-11.44,4.66-.52Zm36.93-8.24L143,130.64,134,126l25.38-49.15ZM186.16,125l-8.33,5.77-20.62-27.29,8-5.72Zm14-10.65H189.72V76.8h10.46Zm0,14.71h-10.4v-9.16h10.4Z"/><path class="cls-2" d="M70.24,67.52H54.65L30.47,16H26.94L14.2,46.19H0V32.81H5.45L17.81,3.21h21L63.48,54.06h6.76Zm.3-56.89H54.42V0H70.54Zm0,15H54.42V14.91H70.54ZM141.9,38.54h-21l-6.91,29H82.1V54.06h21.19l3.61-15.52H74.27V25.16H141.9ZM139.21,17H76.42V3.67h62.79Zm73.43,33.8L194.29,67.52H150V54.68h38.69l10.44-9.41V36.4H146.7V23.55h65.94Zm-3.23-34.26H149.77V3.67h59.64ZM281,44.81,257.86,67.52H217.33V54h35l15.12-14.76v-36H281Zm-33.47-24H218.41V7.42H247.5Z"/></g></g></svg>