<svg xmlns="http://www.w3.org/2000/svg" viewBox="0 0 243.97 86.49">
  <defs>
  </defs>
  <title>アセット 13</title>
  <g id="レイヤー_2" data-name="レイヤー 2">
    <g id="content">
      <polygon class="cls-1 shadow" points="234.97 0 243.97 8 243.97 66 234.97 58 234.97 0" />
      <polygon class="cls-2 shadow" points="0 78.49 9 86.49 243.97 66 234.97 58 0 78.49" />
      <polygon class="cls-3" points="234.97 0 0 20.49 0 78.49 234.97 58 234.97 0" />
      <path d="M82,53.74l-6.68,7.08L60.12,62.15l-6.53-5.92V48.58L48.76,49V42.85l4.83-.43V38.16l-4.83.42V32.49l4.83-.42V29.29l6.27-.55v2.78l20.59-1.8v6.09l-20.59,1.8v4.27l20.59-1.81v6.16L59.86,48v5.08l2.89,2.57,10.1-.89,2.82-3.06V48.88L82,48.32Z" />
      <path d="M118.47,50.44l-6.65,7.19-23.45,2v-6.2l20.45-1.79,3.08-3.35V44l-3.08-2.85L85.29,43.18V36.9l26.42-2.31,6.76,6.24Zm-5.42-19.08L88.41,33.51V27.32l24.64-2.16Z" />
      <path d="M138.89,53.26l-6.35.55V30.47l-5.71,4.06-6.57.58V28.8l5.53-.49,7.23-5,5.87-.51Z" />
      <path d="M176.62,52.18l-32.85,2.88V21.62l32.85-2.87Zm-5.76-4.69V24.7l-21.37,1.87V49.36ZM168,44.4l-15.66,1.37v-16L168,28.44Zm-5.27-4.33V33.65l-5.12.45v6.42Z" />
      <polygon points="210.47 21.01 220.58 30.23 210.47 41.23 210.47 21.01" />
    </g>
  </g>
</svg>
