<svg xmlns="http://www.w3.org/2000/svg" viewBox="0 0 133.19 56.04">
  <defs>
  </defs>
  <title>アセット 11</title>
  <g id="レイヤー_2" data-name="レイヤー 2">
    <g id="content">
      <polygon class="cls-1 shadow" points="133.19 2.95 3 14.34 3 56.04 133.19 44.65 133.19 2.95" />
      <polygon class="cls-2" points="129.6 0 0 11.34 0 53.04 129.6 41.7 129.6 0" />
      <path class="cls-1" d="M42.86,29.28,24.32,30.9V27l18.54-1.62Z" />
      <path class="cls-1" d="M53,24.85l-9,.78V18.47l9-.79V19.2l-1.81.16v.55L53,19.75v3l-1.81.16v.59L53,23.35Zm9.08,10-8.53.75V32.73l-3.7.33.77.81L47.06,36.8,45.29,35l2.2-1.75-2.81.25V26.12l16.2-1.41v7.38l-4.27.37v.75l5.45-.48ZM48.91,20.11v-.56l-2.17.19v.55Zm1.51,1.67v-.59l-3.68.32v.6Zm-1.51,1.93v-.59l-2.17.19v.59ZM57.79,27v-.56l-10,.88v.55Zm0,2v-.59l-10,.88v.59Zm0,2v-.55l-10,.88v.55ZM62.06,20.1l-6.1.53-.52,1.25L53,21.07l1.72-4.17,2.5.71-.28.61,5.12-.45Zm-.51,3.62-7.39.65V22.15l7.39-.65Z" />
      <path class="cls-1" d="M69,34l-3,.26L63.46,31.9V17.32L66.79,17V30l.74.66L69,30.58Zm11.79-1.17-9,.79L69.05,31.2v-4l3.27-.28v2.36l1,.93,7.38-.65Zm-.1-12.57-11.57,1V18l11.57-1Z" />
      <path class="cls-1" d="M100.3,27l-4.51.39,3,2.93-2.11,2-3.09-3.18,1.78-1.73-2.46.22L90,32.77l-2.6-1.21,2-3.64-3,.26V25.52l4.54-.4.89-1.59-5.9.52v1.61L84.82,33l-3-.17,1.06-6.87V18.35L100,16.85v6l-6.63.58,1.51.55-.49.87,5.87-.51Zm.21-11.06L82,17.53V15l18.52-1.62Zm-3.6,4.9V19.39L86,20.35v1.41Z" />
      <path class="cls-1" d="M119.37,26.28l-3.3,3.6-11.6,1-2.42-2.17V25.2l2.42-2.63,4.35-.38,2.42,2.19v2.67l3.27-.28,1.28-1.41V21.79l-1.3-1.18-6.77.59.79-4.34-6.79.59V14.19l10.7-.94-.76,4.38,4.41-.39,3.3,3Zm-11.2,1V25.51l-.77-.66-1.71.15-.73.79v1.14l.63.62Z" />
      <polygon class="cls-1" points="15.23 22.37 7.72 30.52 15.23 37.39 15.23 22.37" />
    </g>
  </g>
</svg>
