<svg viewbox="0 0 120 56.32" xmlns="http://www.w3.org/2000/svg">
<defs>
	<style>
	.lower_toTop_svg1{fill:gray;}.lower_toTop_svg2{fill:#e6e6e6;}
	</style>
</defs>
<title>アセット 19</title>
<g data-name="レイヤー 2" id="レイヤー_2">
	<g id="content">
		<polygon class="lower_toTop_svg1 shadow" points="120 3 3 13.24 3 56.32 120 46.09 120 3"></polygon>
		<polygon class="lower_toTop_svg2" points="117 0 0 10.24 0 53.32 117 43.09 117 0"></polygon>
		<path class="lower_toTop_svg1" d="M48.33,23.26l-5.39.48V36.37l-3.44.3V24l-5.4.47V21L48.33,19.8Z"></path>
		<path class="lower_toTop_svg1" d="M64,31.27l-3.21,3.55-8.11.71-3.25-3V23l3.23-3.53,8.13-.72L64,21.66ZM60.58,30V23.53l-1.4-1.29-5,.44-1.41,1.54v6.47L54.2,32l5-.43Z"></path>
		<path class="lower_toTop_svg1" d="M79.31,25.2l-3.2,3.45-7.19.63V34.1l-3.38.3V18.29l10.57-.92,3.2,2.91Zm-3.38-1.26V22.05l-1.4-1.26-5.61.5v4.64l5.61-.49Z"></path>
		<polygon class="lower_toTop_svg1" points="15.23 22.66 7.72 30.8 15.23 37.68 15.23 22.66"></polygon>
	</g>
</g></svg>