<svg height="42.309" viewBox="0 0 12.206 42.309" width="12.206" xmlns="http://www.w3.org/2000/svg"><path d="m8.457 45.9a.74.74 0 0 0 .768-.768v-37.49l-.059-1.714 2.279 2.516 1.823 1.8a.779.779 0 0 0 .549.211.73.73 0 0 0 .743-.755.764.764 0 0 0 -.245-.557l-5.284-5.291a.76.76 0 0 0 -1.148 0l-5.283 5.292a.764.764 0 0 0 -.245.557.73.73 0 0 0 .743.751.779.779 0 0 0 .549-.211l1.815-1.8 2.286-2.521-.059 1.722v37.488a.736.736 0 0 0 .768.77z" fill="#1a1311" transform="matrix(-1 0 0 -1 14.56 45.898)"/></svg>