<svg height="346.254" viewBox="0 0 69.138 346.254" width="69.138" xmlns="http://www.w3.org/2000/svg"><g fill="#1a1311"><path d="m259.821 287.927c-4.82-3.531-7.528-6.882-9.358-10.826v9h4.614v1.882h-4.614v4.017h-1.856v-4.022h-4.744v-1.878h4.744v-9a31.079 31.079 0 0 1 -9.254 11.11l-1.573-1.444a29.809 29.809 0 0 0 9.331-10.853h-8.711v-1.83h10.208v-5.362l1.932.128c.1.026.542.052.542.258 0 .231-.258.36-.619.567v4.408h10.337v1.83h-9.022a25.517 25.517 0 0 0 9.693 10.492z" transform="translate(-192.332 -268.027)"/><path d="m252.054 310.954q.025 2.113-.129 3.867a10.542 10.542 0 0 1 -.786 3.209 3.47 3.47 0 0 1 -1.559 1.766 4.858 4.858 0 0 1 -2.062.387 8.469 8.469 0 0 1 -1.6-.077 10.421 10.421 0 0 0 -.7-1.779 16.735 16.735 0 0 0 2.346.1 1.979 1.979 0 0 0 1.831-1.056 13.885 13.885 0 0 0 .747-3.635 21.216 21.216 0 0 0 .1-2.32 13.09 13.09 0 0 0 -.129-1.856 1.468 1.468 0 0 0 -1.418-1.392 10.369 10.369 0 0 0 -2.063 0q-.439 1.546-.773 2.6-.335.9-1.057 3.016-.078.207-1.16 3.248-.361 1.084-1.418 3.532-.671-.283-2.062-.8 1.056-1.908 2.216-4.589.335-.824 1.289-3.479.542-1.47 1.109-3.4-.439.078-1.522.181-.489.078-1.547.207c-.344.051-.834.112-1.468.18q-.078-.283-.361-2.011c.62.035 1.074.052 1.367.052a11.428 11.428 0 0 0 1.752-.077q.36-.051 2.192-.155.307-1.082.773-3.016.128-.645.361-2.217.642.156 2.139.619-.852 2.474-1.392 4.511c.687-.017 1.141-.017 1.366 0a7.786 7.786 0 0 1 1.624.18 2.263 2.263 0 0 1 1.6 1.418 9.723 9.723 0 0 1 .394 2.786zm5.1 4.923a6.8 6.8 0 0 0 -1.288-1.418q.361-.1 1.443-.541.749-.283.877-.721a2.834 2.834 0 0 0 -.592-1.856 15.217 15.217 0 0 0 -1.342-1.831 13.793 13.793 0 0 0 -2.087-2.062q.464-.285 1.367-.928a21.689 21.689 0 0 1 2.6 2.423 13.04 13.04 0 0 1 1.521 2.114 4.927 4.927 0 0 1 .773 2.295q.006 1.831-3.268 2.525zm.954-11.085a5.684 5.684 0 0 1 -1.315.8q-.283-.413-.98-1.328a14.681 14.681 0 0 0 -1.211-1.43q.463-.257 1.263-.619a9.964 9.964 0 0 1 1.185 1.173 11.34 11.34 0 0 1 1.062 1.405zm2.732-1.366c-.326.206-.765.482-1.314.824q-.388-.54-1.005-1.366a16.693 16.693 0 0 0 -1.213-1.392q.465-.257 1.265-.619a10.652 10.652 0 0 1 1.185 1.16q.366.415 1.086 1.394z" transform="translate(-192.377 -268.704)"/><path d="m247.243 351.465a13.78 13.78 0 0 0 -2.423-2.888 17.131 17.131 0 0 1 -4.691 4.82l-1.418-1.469a12.14 12.14 0 0 0 4.665-4.588 19.389 19.389 0 0 0 -3.015-1.8c-.309.722-.516 1.135-.644 1.418l-1.805-.592a43.589 43.589 0 0 0 3.454-8.791h-3.171v-1.83h3.635a56.669 56.669 0 0 0 1.109-6.111l1.908.7c.206.077.463.181.463.336 0 .207-.387.361-.566.464-.31 1.443-.593 2.836-1.057 4.615h4.15c-.206 6.031-1.084 8.765-2.114 11.11a16.344 16.344 0 0 1 3.067 3.119zm-4.021-13.9a58.025 58.025 0 0 1 -2.165 6.342 22.2 22.2 0 0 1 3.144 1.83 21.75 21.75 0 0 0 1.753-8.171zm12.271 4.82v7.991c0 2.449-1.34 2.5-2.964 2.5-.851 0-1.263-.026-1.624-.052l-.593-2.011c.954.1 1.805.207 2.268.207 1.032 0 1.032-.464 1.032-1.057v-7.573h-5.182v-1.8h5.182v-4.923l1.262.412a12.957 12.957 0 0 0 3.352-3.351h-9.1v-1.758h11.162l.824 1.418a48.459 48.459 0 0 1 -5.619 5.646v2.552h5.671v1.8z" transform="translate(-192.335 -269.309)"/><path d="m258.668 370.051q-.645.156-2.114.439l-2.372.361q-1.392.206-2.629.335a8.246 8.246 0 0 0 2.552 2.655 13.83 13.83 0 0 0 2.243.98 13.594 13.594 0 0 1 -.747 1.7 17.959 17.959 0 0 0 -8.352-.928 5.079 5.079 0 0 0 -1.856.516 1.775 1.775 0 0 0 -1.083 1.418 1.707 1.707 0 0 0 .876 1.521 5.382 5.382 0 0 0 2.114.8 18.027 18.027 0 0 0 3.583.335 28.176 28.176 0 0 0 3.172-.232 17.422 17.422 0 0 0 2.036-.387q-.207.722-.567 2.063-.954.129-2.913.258a28.028 28.028 0 0 1 -4.666-.207 9 9 0 0 1 -3.919-1.314 2.96 2.96 0 0 1 -1.314-2.681 3.1 3.1 0 0 1 1.288-2.4 6.5 6.5 0 0 1 2.912-.979 25.433 25.433 0 0 1 2.656-.129c.344 0 .807.025 1.392.077q1.031.078 1.264.077a12.128 12.128 0 0 1 -2.243-3.016q-2.63.207-4.537.232a12.832 12.832 0 0 1 -2.887-.232 3.42 3.42 0 0 1 -1.316-.593 1.567 1.567 0 0 1 -.67-1.237 2.8 2.8 0 0 1 .979-1.933q.439.1 1.419.284a2.8 2.8 0 0 0 -.7 1.263q0 .723 1.882.825 1.727.129 2.552.1 1.314-.051 2.707-.206a16.515 16.515 0 0 1 -.774-3.3q-1.7.1-2.835.077-1.316-.026-2.579-.129-.078-.54-.179-1.7 1.6.232 2.346.258 1.8.051 2.963-.026l-.127-1.65q-.027-.618-.129-1.779 1.366-.025 1.984-.025-.076.489-.154 1.624c0 .069.016.619.052 1.65a26.313 26.313 0 0 0 3.762-.541q1.186-.232 2.295-.541 0 .593.052 1.8-.775.182-2.578.49-1.7.209-3.352.387a18.765 18.765 0 0 0 .748 3.275q2.113-.181 3.3-.387a35.126 35.126 0 0 0 4.434-1.032q.003.133.029 1.784z" transform="translate(-192.391 -269.981)"/><path d="m256.4 391.037a23.419 23.419 0 0 1 5.233 4.692l-1.341 1.469a19.821 19.821 0 0 0 -4.9-5.156z" transform="translate(-192.703 -270.602)"/><path d="m213.474 290.491a17.093 17.093 0 0 1 -9.95-11.626c-1.263 4.975-3.2 8.894-9.461 11.91l-1.469-1.547a15.413 15.413 0 0 0 7.733-6.755c2.114-3.763 2.114-8.326 2.114-14.461l2.218.155c.438.026.7.077.7.309 0 .258-.258.438-.722.773-.077.721-.207 4.3-.207 5.078a15.282 15.282 0 0 0 2.759 8.4 18.129 18.129 0 0 0 7.759 6.083z" transform="translate(-191.381 -268.012)"/><path d="m211.213 315.684a33.841 33.841 0 0 1 -6.5.825 17.606 17.606 0 0 1 -3.893-.156 5.6 5.6 0 0 1 -3.351-1.7 3.618 3.618 0 0 1 -.85-2.5q0-2.4 2.912-4.279.62-.386 1.882-1.005-.131-.773-.258-2.527-.129-1.649-.181-3.376-.076-2.113-.051-3.171.542 0 2.063.077a30.4 30.4 0 0 0 -.207 3.068 25.787 25.787 0 0 0 .025 2.6q.025.749.206 2.681 1.137-.361 5.543-1.676.595-.179 1.831-.619.232.568.774 1.96l-2.036.387q-3.457.825-4.641 1.186a16.357 16.357 0 0 0 -4.331 1.984q-1.855 1.264-1.831 2.449a2.412 2.412 0 0 0 1.752 2.4 10.463 10.463 0 0 0 3.456.439 26.018 26.018 0 0 0 4.175-.387 20.68 20.68 0 0 0 2.991-.722q.263 1.108.52 2.062z" transform="translate(-191.466 -268.639)"/><path d="m212.786 335.65a7.4 7.4 0 0 1 -2.371 4.382 11.936 11.936 0 0 1 -3.4 2.114 28.336 28.336 0 0 1 -2.835 1.005 11.569 11.569 0 0 0 -1.315-1.547 21.59 21.59 0 0 0 3.068-.928 11.839 11.839 0 0 0 3.428-2.268 5.918 5.918 0 0 0 1.547-4.254 5.953 5.953 0 0 0 -2.243-4.717 7.377 7.377 0 0 0 -4.2-1.367q-.335 1.211-1.211 3.712-.438 1.185-1.315 3.454-.85 2.14-1.675 3.764a6.29 6.29 0 0 1 -1.136 1.624 1.6 1.6 0 0 1 -1.185.644 2.9 2.9 0 0 1 -2.347-1.469 7.884 7.884 0 0 1 -1.392-4.64 9.142 9.142 0 0 1 .052-.954 7.57 7.57 0 0 1 2.2-4.576 8.83 8.83 0 0 1 4.293-2.642 13.042 13.042 0 0 1 3.273-.413 11.373 11.373 0 0 1 2.064.181 9.437 9.437 0 0 1 3.714 1.445 7.126 7.126 0 0 1 3.068 6.135 10.752 10.752 0 0 1 -.082 1.315zm-10.186-7.579a8.49 8.49 0 0 0 -4.769 2.448 6.461 6.461 0 0 0 -1.727 3.223 6.688 6.688 0 0 0 -.155 1.495q0 2.6 1.264 3.48a.687.687 0 0 0 .412.155q.618 0 1.289-1.173a43.279 43.279 0 0 0 2.01-4.5q.469-1.107 1.676-5.128z" transform="translate(-191.415 -269.245)"/><path d="m195.451 374.431h-1.805v-9.28l1.625.18c.18.026.645.078.645.336 0 .206-.285.309-.465.36v4.46h7.063v-8.482h-6.393v1.237h-1.8v-9.279l1.65.231c.284.052.7.1.7.361 0 .207-.362.387-.542.49v5.207h6.393v-8.636l1.857.259c.206.051.54.1.54.335 0 .155-.18.284-.54.49v7.553h6.444v-6.5l1.831.309c.179.026.54.077.54.309 0 .155-.232.335-.489.489v8.378h-1.882v-1.237h-6.444v8.482h7.191v-5.44l1.883.233c.387.051.618.129.618.283 0 .232-.438.542-.618.671v8.275h-1.883v-2.268h-16.119z" transform="translate(-191.403 -269.772)"/><path d="m214.169 391.741a24.219 24.219 0 0 1 -6.547-3.609 20.433 20.433 0 0 1 -4.047-4.253 26.778 26.778 0 0 1 -10.828 8.274l-1.392-1.676c5.388-1.907 9.127-5.052 11.343-8.867l1.959.671c.31.1.568.206.568.464a.838.838 0 0 1 -.1.335c1.468 2.552 5.182 5.259 10.388 6.987zm-11.187 5.31c-1.624 2.862-2.629 4.486-3.248 5.44 2.347-.284 4.975-.568 7.218-.877.7-.1 1.186-.18 1.65-.258-1.213-1.649-1.521-2.036-2.14-2.759l1.6-.876a27.8 27.8 0 0 1 4.638 6.579l-1.752.928c-1.109-1.933-1.186-2.036-1.47-2.527-3.3.619-7.088 1.289-13.713 2.088-.155.258-.387.593-.541.593-.233 0-.336-.309-.388-.489l-.463-1.933c.824 0 1.341-.052 3.144-.207a42.389 42.389 0 0 0 3.172-5.7h-7.735v-1.83h21.5v1.83zm-5.053-5.181v-1.728h11.266v1.728z" transform="translate(-191.355 -270.403)"/><path d="m203.365 429.4a11.681 11.681 0 0 1 -1.573 1.546 5.135 5.135 0 0 1 -2.939 1.316 2.744 2.744 0 0 1 -2.062-1.262 8.064 8.064 0 0 1 -1.211-2.215 15.04 15.04 0 0 1 -.748-5.054 34.927 34.927 0 0 1 .387-4.768q.154-.928.464-3.2.7.154 2.216.619a23.6 23.6 0 0 0 -1.186 7.553 13.807 13.807 0 0 0 .489 3.816 3.932 3.932 0 0 0 .774 1.469 1.812 1.812 0 0 0 1.082.825 2.871 2.871 0 0 0 1.909-.748 8.725 8.725 0 0 0 1.34-1.263q.205.285 1.058 1.366zm9.641-1.779q-.593.207-2.114.876-.283-1.236-.824-3.427a26.022 26.022 0 0 0 -1.651-4.1q-.1-.232-1.005-1.831 1.032-.464 1.8-.721a17.221 17.221 0 0 1 1.057 1.778 36.146 36.146 0 0 1 1.8 4.125 19.593 19.593 0 0 1 .936 3.301z" transform="translate(-191.428 -271.122)"/><path d="m205.972 453.15q.025 2.114-.129 3.866a10.552 10.552 0 0 1 -.786 3.211 3.469 3.469 0 0 1 -1.559 1.764 4.843 4.843 0 0 1 -2.062.388 8.45 8.45 0 0 1 -1.6-.077 10.385 10.385 0 0 0 -.7-1.779 16.736 16.736 0 0 0 2.346.1 1.975 1.975 0 0 0 1.83-1.056 13.846 13.846 0 0 0 .748-3.635 21.213 21.213 0 0 0 .1-2.32 13.082 13.082 0 0 0 -.129-1.856 1.468 1.468 0 0 0 -1.418-1.392 10.355 10.355 0 0 0 -2.063 0q-.439 1.546-.773 2.6-.335.9-1.057 3.017-.078.206-1.16 3.247-.361 1.082-1.418 3.532-.671-.283-2.062-.8 1.056-1.907 2.216-4.588.335-.827 1.289-3.48.542-1.47 1.109-3.4-.439.078-1.522.181-.489.078-1.547.206c-.344.052-.834.113-1.468.181q-.078-.283-.361-2.011.928.052 1.367.051a11.2 11.2 0 0 0 1.752-.077q.36-.05 2.191-.154.308-1.084.774-3.017.128-.642.361-2.216.642.156 2.139.618-.852 2.476-1.392 4.513c.687-.018 1.141-.018 1.366 0a7.736 7.736 0 0 1 1.624.179 2.261 2.261 0 0 1 1.6 1.419 9.714 9.714 0 0 1 .394 2.785zm5.1 4.923a6.8 6.8 0 0 0 -1.288-1.418q.361-.1 1.443-.54.749-.283.877-.721a2.834 2.834 0 0 0 -.592-1.856 15.055 15.055 0 0 0 -1.342-1.83 13.8 13.8 0 0 0 -2.087-2.064q.464-.283 1.367-.927a21.61 21.61 0 0 1 2.6 2.423 13 13 0 0 1 1.521 2.115 4.917 4.917 0 0 1 .773 2.293q.006 1.831-3.268 2.525zm.954-11.085a5.71 5.71 0 0 1 -1.315.8q-.283-.413-.98-1.328a14.7 14.7 0 0 0 -1.211-1.43q.463-.258 1.263-.62a10 10 0 0 1 1.186 1.175 11.337 11.337 0 0 1 1.061 1.404zm2.732-1.366q-.489.31-1.314.824-.388-.542-1.005-1.366a16.517 16.517 0 0 0 -1.213-1.392q.465-.258 1.264-.62a10.593 10.593 0 0 1 1.186 1.161q.366.415 1.086 1.394z" transform="translate(-191.407 -271.697)"/><path d="m201.161 493.4a13.835 13.835 0 0 0 -2.423-2.888 17.132 17.132 0 0 1 -4.691 4.821l-1.418-1.469a12.131 12.131 0 0 0 4.666-4.589 19.421 19.421 0 0 0 -3.015-1.8c-.309.721-.516 1.135-.644 1.418l-1.805-.593a43.6 43.6 0 0 0 3.454-8.79h-3.171v-1.831h3.635a56.743 56.743 0 0 0 1.109-6.109l1.908.7c.206.077.463.18.463.335 0 .206-.387.361-.566.465-.31 1.443-.593 2.835-1.057 4.614h4.15c-.206 6.032-1.084 8.765-2.114 11.11a16.377 16.377 0 0 1 3.067 3.12zm-4.021-13.9a57.937 57.937 0 0 1 -2.164 6.341 22.2 22.2 0 0 1 3.144 1.831 21.749 21.749 0 0 0 1.753-8.171zm12.271 4.82v7.991c0 2.449-1.34 2.5-2.964 2.5-.851 0-1.263-.025-1.624-.051l-.593-2.012c.954.1 1.805.207 2.267.207 1.033 0 1.033-.464 1.033-1.056v-7.579h-5.182v-1.8h5.182v-4.92l1.262.412a13 13 0 0 0 3.352-3.351h-9.1v-1.761h11.162l.824 1.418a48.524 48.524 0 0 1 -5.619 5.645v2.553h5.671v1.8z" transform="translate(-191.365 -272.297)"/><path d="m212.586 511.458q-.645.154-2.114.438l-2.372.361q-1.392.207-2.629.335a8.281 8.281 0 0 0 2.552 2.656 14.1 14.1 0 0 0 2.243.979 13.516 13.516 0 0 1 -.747 1.7 17.956 17.956 0 0 0 -8.352-.928 5.094 5.094 0 0 0 -1.856.515 1.776 1.776 0 0 0 -1.083 1.418 1.7 1.7 0 0 0 .876 1.52 5.37 5.37 0 0 0 2.114.8 17.96 17.96 0 0 0 3.583.336 28.192 28.192 0 0 0 3.172-.232 17.648 17.648 0 0 0 2.036-.387q-.207.723-.567 2.063-.954.129-2.913.257a28.2 28.2 0 0 1 -4.666-.207 9 9 0 0 1 -3.919-1.314 2.961 2.961 0 0 1 -1.314-2.681 3.094 3.094 0 0 1 1.288-2.4 6.5 6.5 0 0 1 2.912-.98 25.8 25.8 0 0 1 2.656-.128c.344 0 .807.026 1.392.077q1.031.076 1.264.077a12.13 12.13 0 0 1 -2.243-3.016q-2.63.206-4.537.232a12.893 12.893 0 0 1 -2.887-.232 3.42 3.42 0 0 1 -1.316-.593 1.567 1.567 0 0 1 -.67-1.237 2.8 2.8 0 0 1 .979-1.933q.439.1 1.418.283a2.809 2.809 0 0 0 -.7 1.264q0 .722 1.882.825 1.727.129 2.552.1 1.314-.05 2.706-.206a16.562 16.562 0 0 1 -.773-3.3q-1.7.1-2.835.076-1.316-.025-2.579-.128-.078-.542-.179-1.7 1.6.232 2.346.258 1.8.051 2.963-.026l-.127-1.65q-.026-.618-.129-1.779 1.366-.026 1.984-.025c-.051.326-.1.868-.154 1.623 0 .069.016.62.052 1.651a26.319 26.319 0 0 0 3.762-.541q1.186-.232 2.295-.541 0 .593.052 1.8-.775.181-2.578.49-1.7.208-3.352.388a18.735 18.735 0 0 0 .748 3.273q2.113-.181 3.3-.386a35.311 35.311 0 0 0 4.434-1.032q.004.138.03 1.787z" transform="translate(-191.421 -272.957)"/><path d="m204.074 531.074h1.444v25.779h-1.444z" transform="translate(-191.623 -273.549)"/><path d="m204.074 557.407h1.444v25.779h-1.444z" transform="translate(-191.623 -274.104)"/><path d="m204.074 583.74h1.444v25.779h-1.444z" transform="translate(-191.623 -274.658)"/><path d="m215.412 617.571a3.957 3.957 0 1 1 -3.944-3.97 3.965 3.965 0 0 1 3.944 3.97zm-6.831 0a2.887 2.887 0 1 0 2.887-2.887 2.882 2.882 0 0 0 -2.887 2.887z" transform="translate(-191.695 -275.286)"/></g></svg>