<svg id="Instagram" xmlns="http://www.w3.org/2000/svg" viewBox="0 0 30.004 30.002">
  <defs>
    <style>
      .cls-1 {
        fill: #eadfc3;
      }
    </style>
  </defs>
  <path id="パス_222" data-name="パス 222" class="cls-1" d="M15,2.7c4.005,0,4.48.015,6.061.087a8.3,8.3,0,0,1,2.785.516,4.647,4.647,0,0,1,1.725,1.122A4.647,4.647,0,0,1,26.693,6.15a8.3,8.3,0,0,1,.516,2.785c.072,1.582.087,2.056.087,6.061s-.015,4.48-.087,6.061a8.3,8.3,0,0,1-.516,2.785,4.967,4.967,0,0,1-2.847,2.847,8.3,8.3,0,0,1-2.785.516c-1.581.072-2.056.087-6.061.087s-4.48-.015-6.061-.087a8.3,8.3,0,0,1-2.785-.516,4.647,4.647,0,0,1-1.725-1.122,4.648,4.648,0,0,1-1.122-1.725,8.3,8.3,0,0,1-.516-2.785C2.718,19.48,2.7,19,2.7,15s.015-4.48.087-6.061A8.3,8.3,0,0,1,3.3,6.154,4.647,4.647,0,0,1,4.429,4.429,4.647,4.647,0,0,1,6.153,3.307,8.3,8.3,0,0,1,8.939,2.79C10.52,2.718,10.995,2.7,15,2.7M15,0c-4.074,0-4.585.017-6.184.09a11.01,11.01,0,0,0-3.641.7A7.353,7.353,0,0,0,2.518,2.52,7.353,7.353,0,0,0,.787,5.174a11.01,11.01,0,0,0-.7,3.641C.017,10.415,0,10.926,0,15s.017,4.585.09,6.184a11.01,11.01,0,0,0,.7,3.641,7.353,7.353,0,0,0,1.73,2.657,7.353,7.353,0,0,0,2.657,1.73,11.01,11.01,0,0,0,3.641.7c1.6.073,2.111.09,6.184.09s4.585-.017,6.184-.09a11.01,11.01,0,0,0,3.641-.7,7.67,7.67,0,0,0,4.387-4.387,11.01,11.01,0,0,0,.7-3.641c.073-1.6.09-2.111.09-6.184s-.017-4.585-.09-6.184a11.01,11.01,0,0,0-.7-3.641,7.353,7.353,0,0,0-1.73-2.657A7.353,7.353,0,0,0,24.826.787a11.01,11.01,0,0,0-3.641-.7C19.585.017,19.074,0,15,0Z"/>
  <path id="パス_223" data-name="パス 223" class="cls-1" d="M15,7.3A7.7,7.7,0,1,0,22.7,15,7.7,7.7,0,0,0,15,7.3ZM15,20a5,5,0,1,1,5-5A5,5,0,0,1,15,20Z"/>
  <circle id="楕円形_1" data-name="楕円形 1" class="cls-1" cx="1.8" cy="1.8" r="1.8" transform="translate(21.207 5.193)"/>
</svg>
