<svg xmlns="http://www.w3.org/2000/svg" viewBox="0 0 1257.59 987.53"><defs><style>.cls-1,.cls-2,.cls-3,.cls-5{fill:none;stroke:#666;}.cls-1,.cls-5{stroke-miterlimit:10;}.cls-2,.cls-3{stroke-linejoin:round;}.cls-3{stroke-linecap:round;}.cls-4{fill:#666;}.cls-5{stroke-dasharray:12.08 12.08;}</style></defs><title>line1</title><g id="レイヤー_2" data-name="レイヤー 2"><g id="レイヤー_2-2" data-name="レイヤー 2"><path class="cls-1" d="M567,839.38c-61.4,44-129.72,82.38-200.9,107.83-189.41,67.72-178.48,23.71-116.57-37.51a6,6,0,0,0,.73-7.64c-11.06-16-52.91-75.61-99.16-127.85S58.48,673.27,46.22,660.47a5,5,0,0,0-6.84-.37A135.27,135.27,0,0,0,2.09,712.21c-15-15,77-222,237-354,134.23-110.74,346-163,394-146l-35.81,17a1.77,1.77,0,0,0-.54,2.81c9.55,10.27,58.8,63.38,98.35,109.23,39,45.17,96,111.53,108.51,126.1a4.65,4.65,0,0,0,5.77,1c14.88-8.19,35.21-14.84,41.72-11.12,7,4,20,29-50,143C771.9,647.74,724.33,704.49,665.55,758.9"/><path class="cls-1" d="M7.91,699.69c19-12,31.18-19.48,36.18-18.48s54,56,85,92S244.45,914.05,244.45,914.05"/><path class="cls-1" d="M296.09,352.21c146-102,260-110,260-110s45,41,107,111,114,133,114,140-67,135-230,253-262,137-262,137-79-96-110-131-106-124-105-128S145.71,457.27,296.09,352.21Z"/><path class="cls-1" d="M299.88,358.46c141.66-99,252.28-106.73,252.28-106.73S595.82,291.51,656,359.43,766.59,488.48,766.59,495.27s-65,131-223.17,245.49S289.2,873.69,289.2,873.69s-76.65-93.15-106.73-127.11S79.62,626.26,80.59,622.38,154,460.4,299.88,358.46Z"/><path class="cls-1" d="M286.09,393.21c117-85,195-112,261-122,0,0,58,52,67,67l-13,15-62-65s-121,27-241,122-156,164-178,207l66,82-17,12-75-86S161.29,483.88,286.09,393.21Z"/><path class="cls-1" d="M577.66,687.59c82.7-72,151.53-173.76,152.43-177.38,1-4-56-74-56-74l18-7,63,77S703.24,615,563.17,725.59,299.09,866.21,299.09,866.21l-80-93,16-19s67,84,73,85c5.51.92,126.62-49.63,219.16-112.9"/><path class="cls-1" d="M605.09,365.21c5,1,26-3,26-3l-2-3,3-2,15,16-2,3-6-4s-49,34-51,36,0,8,19,11,51-8,51-20-10-13.1-16-13c-7.87.12-23,15-13,17s16-3,19-7l4,1s-2,12-20,12-16-22,2-28,34,9,34,21-8,24-32,25-36-7-28,3,6,9,15,4l2,4-16,8s-7-14-16-24-27-21-27-21l3-3a12.14,12.14,0,0,0,10,3c6-1,15.5-9.1,24.13-15.63,9.25-7,20.87-14.37,20.87-16.37v-2s-12,3-18,2Z"/><path class="cls-1" d="M667.09,488.21s33,17,36,15,1-5,1-5l3-1s2,4,3,13,1,14,1,14l-4,1s-1-7-2-8-39,3-52,5-26,5-29,6-6,7-9,5,2-6,5-13,4-12,5-13,3,0,4,0-3,7,2,7,13-2,24-4,34-3,35-4-12-8-26-14Z"/><path class="cls-1" d="M612.09,616.21s-11-5-9-11,19,1,20,8-2,15-19,13-24-42-28-42-5,7-12,18-13,19-13,19,17,4,19,6l2-4s-7-2-8-5,11-17,11-17,10.59,28.84,20,34c9.19,5,16.92,5.91,27-4,11.09-10.91,9-21-1-30s-25-5-25,2a17.81,17.81,0,0,0,14,17Z"/><path class="cls-1" d="M463.14,685.32c-3.95,1.58-10.92,4.76-15.05,8.89,0,0-4,22-13,37s-17,22-14,24c0,0,32-17,33-16s2,11,1,13-7,6-7,8a4.38,4.38,0,0,0,1,3l28-15s4-5,0-7c0,0-8,4-10,3s-2-10-1-12,15-7,16-9,0-11,1-17,2-10-2-10-3,13-7,18-8,5-9,5-6-23-4-26,4-3,4-3l.49-2.92A1.8,1.8,0,0,0,463.14,685.32Z"/><path class="cls-1" d="M451.09,709.21s3,15,2,18l-14,7a73.72,73.72,0,0,0,6-11C447.09,718.21,451.09,709.21,451.09,709.21Z"/><path class="cls-1" d="M368.18,726.33a1.33,1.33,0,0,1,1.66,1.84c-3.78,7.37-11.55,12.38-17.75,15-7,3-19,3-22,4s-9,18-7,18,12-5,22,2,16,30-7,47-40,4-43,0-5-13,2-19,17,5,12,10c-1.59,1.59-2.77,2.67-3.65,3.41a1.82,1.82,0,0,0,.52,3.1c4.37,1.64,13.54,2.68,26.13-8.51,18-16,6-31-2-31s-18,8-20,8-1-3-1-3l18-46s13,2,21,1C353.91,731.48,363.42,728.11,368.18,726.33Z"/><path class="cls-1" d="M261.09,695.21c6.4.34-18-11-39-7s-45,31-27,53,41-1,43-11-6-20-16-20-18,12-20,18a2.94,2.94,0,0,0,3,3c3,0,2-1,4-4s10-13,15-10,7,12-5,19-20,5-21-4,9-25,20-30S242.09,694.21,261.09,695.21Z"/><path class="cls-1" d="M203.09,565.21l37,7s-12,14-15,26a106.52,106.52,0,0,0-3,23s-34-11-49-11-26,10-32,18c0,0-2-11-3-16a109.77,109.77,0,0,0-3-11s14-9,38-4,37,15,38,14,.83-14.5,2.3-20.34c1.25-4.94,4.7-14.66,4.7-14.66l-16-6Z"/><path class="cls-1" d="M266.09,488.21s11-5,19,0,12,17,4,26-23,13-32,8-8-11-8-11-15,5-23-1-9-17-1-26,13-12,26-10A17.82,17.82,0,0,1,266.09,488.21Z"/><path class="cls-1" d="M255.41,509.12c1.69-5.93,23-14.71,27.58-11s3.67,14.7-7.36,19.3S253.57,515.55,255.41,509.12Z"/><path class="cls-1" d="M259,490.21c3.34-3.33-9.25-12.95-18.51-8.32s-9.25,11.1-6.48,16.65S258.12,491.14,259,490.21Z"/><path class="cls-1" d="M312.09,421.21c9,2,18,10,18,19s-13,18-24,14-19-17-13-29,17-18,31-16,25,18,27,34-1,30-6,33,2-8-2-23-11.5-28.45-24-33c-11-4-12-3-15,0s-6,11,3,21,17,4,16-2-12-12-13-14S312.09,421.21,312.09,421.21Z"/><path class="cls-1" d="M362.09,371.21l24-12s2,3,2,4-4,3-5,5,8,51,9,52,4,0,4,0l3,2s-8.11,6.35-13,10-9,8-11,5,1-4,4-7-6-41-6-41-3,7-5,8-6,2-5-1,6-16,6-20l-4,1Z"/><path class="cls-1" d="M405.09,347.21c10.25-5.13,22,1,29,19s-1,49-20,49-25-23-25-30S387.89,355.81,405.09,347.21Z"/><path class="cls-1" d="M411.09,354.21c7.28,0,17,18,13,33s-9,22-18,17-11-17-10-30S405.09,354.21,411.09,354.21Z"/><path class="cls-1" d="M500.09,304.21l26,8-3,5-7-1s-24,57-23,59,5,1,5,1v4l-29,11-2-4s8-3,9-5,22-55,21-55-19,13-22,12c0,0-3-4-2-5s15-7,20-12,9-10,9-10l-5-3Z"/><path class="cls-1" d="M539.09,309.21s7,3,12,5a118.94,118.94,0,0,0,14,4l-1,5-7-2s-25,49-24,51,7,3,7,3l-3,5a46,46,0,0,0-13-2h-13v-4s8-1,9-3,17-37,16-38-21,17-23,17-3-5-3-5,30-24,30-27-4-4-4-4Z"/><path class="cls-2" d="M661.09,820.21c-15,16-32,30-48,37s-24,6-24,6l1-4-4-2,3-3-2-3,6-3-4-4,7-3-1-4,7-3v-6l6-2,1-6,7-1,2-6,7-2,2-7,7-1,2-6h7l3-6,6-1,3-5,5,1,4-5,3,1,3-4,3,3,3-5,2,4,3-3v5l3-3C684.09,785.21,676.09,804.21,661.09,820.21Zm-42-7-19-22m9-8,18,21m9-7-18-21m11-6,18,20m8-5-19-21m28,17-19-21m8-3,17,21m6-2-18-20m26,23-21-23h-7l-3,1-5,1-3,2-6,1-1,2-6,3-3,4-7,1-3,5-6,2-4,5-5,1-4,7-6,2-3,7-6,2-3,6-6,3-1,5-4,5,1,2-3,4v3l-2,4-2,2s20,26,24,27m-2-12-18-22-2,5,19,23m-14.4-33.47,18.4,21.47m5-8-20-22m7-8,20,23m6-10-17-20"/><path class="cls-1" d="M636.09,820.21c15.51-13.44,24-17,28-14s-11,20-20,27-24,16-26,12S621.09,833.21,636.09,820.21Z"/><circle class="cls-1" cx="544.09" cy="696.21" r="35"/><circle class="cls-1" cx="545.09" cy="700.21" r="32"/><circle class="cls-1" cx="546.84" cy="704.96" r="27.25"/><path class="cls-1" d="M558.09,696.21c5.52,6.44,5,10,1,14-3,3-8,2-8,2s2,4-3,8-10,4-16-4-4-12,0-15a10.14,10.14,0,0,1,8-2s0-3,4-6S552.09,689.21,558.09,696.21Z"/><rect class="cls-1" x="547.27" y="695.22" width="7.76" height="13.74" rx="3.13" ry="3.13" transform="translate(-325.86 536.1) rotate(-41.15)"/><rect class="cls-1" x="535.53" y="703.28" width="9.12" height="14.86" rx="3.67" ry="3.67" transform="translate(-334.26 530.95) rotate(-41.15)"/><path class="cls-1" d="M415.82,550c1.32,2.4,4.76,3.53,8.23,2.54a7.6,7.6,0,0,0,5.55-5.2l54.11-2.08a1.11,1.11,0,0,0,.68-.25l7.88-6.13a.65.65,0,0,0-.1-1.09l-8.75-4.38a1.09,1.09,0,0,0-.69-.08L429.54,545a3.1,3.1,0,0,0-.21-.58c-1.16-2.64-4.76-3.93-8.4-2.9a8.18,8.18,0,0,0-5,3.8L204.09,576.21v5Z"/><path class="cls-1" d="M423.57,536.74a1,1,0,0,0,.88,1.1c4.34.36,8.05,3,9.17,6.93,1.52,5.32-2.21,11-8.32,12.77s-12.29-1.16-13.8-6.47,2.22-11,8.32-12.77l.4-.1a1,1,0,0,0,.72-1.35c-1.54-4.26-7-19.5-7.85-24.64-1-6,4-23,2-32,0,0-13-5-13-13s10-19,10-25-3-37-2-37,4.83,34.06,6,37c4,10,13,15,13,23s-9,15-9,15c0,19,6,22,6,31C426.09,518.06,424.14,532.68,423.57,536.74Z"/><path class="cls-1" d="M439.46,552.66a18.52,18.52,0,0,1-12.28,10.58c-9.42,2.69-19-1.81-21.31-10s3.4-17.08,12.83-19.76,19,1.81,21.31,10a14.43,14.43,0,0,1,.4,1.91s52.68,2.83,64.68,3.83,33,6,40,7,31,0,44,1,27,6,33,7,22,4,22,4v3s-16-3-22-3-24,1-34,0-36-7-42-6-31,0-43-1S439.46,552.66,439.46,552.66Z"/><ellipse class="cls-1" cx="423.59" cy="549.71" rx="20.5" ry="17.5" transform="translate(-134.32 136.98) rotate(-15.89)"/><path class="cls-1" d="M407.23,561.6c5.36,12.11,15.36,16.11,25.36,12.11s13-16,11-23"/><ellipse class="cls-1" cx="422.15" cy="546.48" rx="4.5" ry="3.5" transform="translate(-133.49 136.47) rotate(-15.89)"/><ellipse class="cls-1" cx="518.09" cy="480.21" rx="3.21" ry="2.5"/><path class="cls-1" d="M518.54,474.72c3.38.2,6.05,2.58,6.05,5.49s-2.91,5.5-6.5,5.5-6.5-2.46-6.5-5.5a5.6,5.6,0,0,1,4.13-5.12s-1.13-10.38-2.13-12.38-4-5-5-9,3-10,3-15a57.68,57.68,0,0,1,.75-8.59.36.36,0,0,1,.7-.05,88.39,88.39,0,0,1,2.55,8.64c1,5,6,8,6,14,0,3-2,6-3,10S518.54,474.72,518.54,474.72Z"/><path class="cls-1" d="M530.23,483.33c-1.33,4.81-6.26,8.38-12.14,8.38-6.9,0-12.5-4.93-12.5-11s5.6-11,12.5-11,12.5,4.92,12.5,11a7.46,7.46,0,0,1-.05,1s14.05,0,23.05,1c8,.89,38.78,8.85,45.64,10.64a.15.15,0,0,1,0,.29c-7.05-.37-38.51-2-45.6-2.93C545.59,489.71,530.23,483.33,530.23,483.33Z"/><ellipse class="cls-1" cx="518.09" cy="482.71" rx="17.5" ry="17"/><ellipse class="cls-1" cx="520.66" cy="483.96" rx="87.5" ry="82.31" transform="translate(-85.53 112.7) rotate(-11.42)"/><ellipse class="cls-1" cx="520.66" cy="483.96" rx="82.5" ry="77.6" transform="translate(-85.53 112.7) rotate(-11.42)"/><rect class="cls-1" x="537.47" y="435.6" width="35.06" height="5.49" transform="translate(-152.23 439.96) rotate(-38.43)"/><path class="cls-1" d="M563.27,469.6l-8.48-10.68c3.55-.83,5.93-.85,11.07-.19a37.51,37.51,0,0,0,7,.51,11.3,11.3,0,0,0,7-2.71c4.84-3.84,5.59-8.94,2-13.42a9,9,0,0,0-7.6-3.84c-2.42.05-4.26.75-7.43,2.8l2.45,4.77a15.34,15.34,0,0,1,4.14-2.29,4.19,4.19,0,0,1,4.7,1.13,3.63,3.63,0,0,1,.86,3,6.24,6.24,0,0,1-2.27,3.25c-2.4,1.91-4.44,2.36-9.13,2.05-6.14-.45-6.69-.48-8.78-.39a25.21,25.21,0,0,0-8.25,1.39l-2.94,2.34,12,15.13Z"/><path class="cls-1" d="M470.23,514.53a7.55,7.55,0,0,1,3,.14,6.23,6.23,0,0,1,3.16,2.14c2,2.57,1.24,5.62-2.27,8.4-3.95,3.13-7.35,3.48-9.39.91-1.34-1.68-1.28-3.75.12-6a21.11,21.11,0,0,1,4.67-5.09A6.27,6.27,0,0,1,470.23,514.53Zm24.13.59a14.39,14.39,0,0,0-3.25-6.9c-2.58-3.25-5.26-4.71-8.94-4.93-4.22-.24-9.65,2-14.82,6.07-8.5,6.74-10.65,13.82-6,19.63a10,10,0,0,0,8.07,4.13,14.91,14.91,0,0,0,8.74-3.41c5.35-4.24,6.4-10,2.71-14.63-1.72-2.17-3.24-3.06-6.38-3.77a16.17,16.17,0,0,1,5.59-2.6c3.12-.71,5.51-.06,7.16,2a7.34,7.34,0,0,1,1.9,5Z"/><path class="cls-1" d="M486.31,439.8s-.62,0-1.47.06c-.51-.06-1-.15-1.59-.24a5.43,5.43,0,0,1-2.8-1.84,5.13,5.13,0,0,1-.83-5.09,10.31,10.31,0,0,1,3-3.54c3.73-3,7-3.15,9.06-.58,1.43,1.8,1.38,3.73-.19,6A23.86,23.86,0,0,1,486.31,439.8Zm-23.94-.35a16.25,16.25,0,0,0,3.48,7.7c5.5,6.94,12.75,6.42,22.86-1.6,4.77-3.79,7.45-7,8.46-10.18,1.09-3.49.45-6.51-2.06-9.67-4.14-5.22-10.58-5.67-16.35-1.09-2.8,2.22-4.5,5-4.73,7.81a11.24,11.24,0,0,0,2.42,7.62,8.19,8.19,0,0,0,5.84,3.08,19.41,19.41,0,0,1-5.76,3.2c-2.86.9-5.28.27-6.84-1.7a10.12,10.12,0,0,1-2.19-5.84Z"/><path class="cls-1" d="M556.76,529.44c2.49,2.45,2.17,5.06.27,7-3.24,3.28-6.6.13-7.09-.34-3.4-3.37-.69-6.46.39-7.65l-4.77-4.72c-5.74,6.52-4.49,12.51-.13,16.83,4.57,4.52,11,6,16.31.66,4-4,2.65-7.55,2-9.22,1.47.5,4.55,1.59,8.15-2.05,3.81-3.85,3.65-9.12-1.1-13.81-4.39-4.34-9.67-5.7-15.82-.6l4.75,4.69c2.64-2.56,4.36-1.57,6.32.36.76.76,3,3,.55,5.48s-5.94,0-6.42-.51l-1.27-1.25L555.27,528Z"/><rect class="cls-3" x="507.1" y="412.3" width="4.97" height="16" transform="translate(-65.52 95.36) rotate(-10.05)"/><rect class="cls-3" x="541.1" y="415.3" width="4.97" height="16" transform="translate(220.65 -185.29) rotate(24.14)"/><rect class="cls-3" x="584.06" y="464.81" width="4.45" height="16.54" transform="translate(973.14 -173.35) rotate(82)"/><rect class="cls-3" x="580.06" y="497.81" width="4.45" height="16.54" transform="translate(1256.6 131.29) rotate(109.94)"/><rect class="cls-3" x="527.05" y="539.75" width="5.13" height="16.54" transform="translate(1139.08 1005.61) rotate(170.92)"/><rect class="cls-3" x="492.05" y="535.75" width="5.13" height="16.54" transform="translate(767.06 1226.95) rotate(-159.47)"/><rect class="cls-3" x="450.05" y="485.75" width="5.13" height="16.54" transform="matrix(-0.14, -0.99, 0.99, -0.14, 27.78, 1012.13)"/><rect class="cls-3" x="454.05" y="452.75" width="5.13" height="16.54" transform="translate(-131.57 735.02) rotate(-70.25)"/><ellipse class="cls-1" cx="330.09" cy="626.21" rx="3.21" ry="2.5"/><path class="cls-1" d="M330.54,620.72c3.38.2,6,2.58,6,5.49s-2.91,5.5-6.5,5.5-6.5-2.46-6.5-5.5a5.6,5.6,0,0,1,4.13-5.12s-1.13-10.38-2.13-12.38-4-5-5-9,3-10,3-15a57.68,57.68,0,0,1,.75-8.59.36.36,0,0,1,.7,0,88.39,88.39,0,0,1,2.55,8.64c1,5,6,8,6,14,0,3-2,6-3,10S330.54,620.72,330.54,620.72Z"/><path class="cls-1" d="M342.23,629.33c-1.33,4.81-6.26,8.38-12.14,8.38-6.9,0-12.5-4.93-12.5-11s5.6-11,12.5-11,12.5,4.92,12.5,11a7.46,7.46,0,0,1,0,.95s14,.05,23,1.05c8,.89,38.78,8.85,45.64,10.64a.15.15,0,0,1,0,.29c-7.05-.37-38.51-2-45.6-2.93C357.59,635.71,342.23,629.33,342.23,629.33Z"/><ellipse class="cls-1" cx="330.09" cy="628.71" rx="17.5" ry="17"/><ellipse class="cls-1" cx="332.66" cy="629.96" rx="87.5" ry="82.31" transform="translate(-118.17 78.36) rotate(-11.42)"/><ellipse class="cls-1" cx="332.66" cy="629.96" rx="82.5" ry="77.6" transform="translate(-118.17 78.36) rotate(-11.42)"/><rect class="cls-1" x="349.47" y="581.6" width="35.06" height="5.49" transform="translate(-283.71 354.73) rotate(-38.43)"/><path class="cls-1" d="M375.27,615.6l-8.48-10.68c3.55-.83,5.93-.85,11.07-.19a37.51,37.51,0,0,0,7,.51,11.3,11.3,0,0,0,7-2.71c4.84-3.84,5.59-8.94,2-13.42a9,9,0,0,0-7.6-3.84c-2.42.05-4.26.75-7.43,2.8l2.45,4.77a15.34,15.34,0,0,1,4.14-2.29,4.19,4.19,0,0,1,4.7,1.13,3.63,3.63,0,0,1,.86,3,6.24,6.24,0,0,1-2.27,3.25c-2.4,1.91-4.44,2.36-9.13,2.05-6.14-.45-6.69-.48-8.78-.39a25.21,25.21,0,0,0-8.25,1.39l-2.94,2.34,12,15.13Z"/><path class="cls-1" d="M282.23,660.53a7.55,7.55,0,0,1,3,.14,6.23,6.23,0,0,1,3.16,2.14c2,2.57,1.24,5.62-2.27,8.4-3.95,3.13-7.35,3.48-9.39.91-1.34-1.68-1.28-3.75.12-6a21.11,21.11,0,0,1,4.67-5.09A6.27,6.27,0,0,1,282.23,660.53Zm24.13.59a14.39,14.39,0,0,0-3.25-6.9c-2.58-3.25-5.26-4.71-8.94-4.93-4.22-.24-9.65,2-14.82,6.07-8.5,6.74-10.65,13.82-6,19.63a10,10,0,0,0,8.07,4.13,14.91,14.91,0,0,0,8.74-3.41c5.35-4.24,6.4-10,2.71-14.63-1.72-2.17-3.24-3.06-6.38-3.77a16.17,16.17,0,0,1,5.59-2.6c3.12-.71,5.51-.06,7.16,2a7.34,7.34,0,0,1,1.9,5Z"/><path class="cls-1" d="M298.31,585.8s-.62,0-1.47.06c-.51-.06-1-.15-1.59-.24a5.43,5.43,0,0,1-2.8-1.84,5.13,5.13,0,0,1-.83-5.09,10.31,10.31,0,0,1,3-3.54c3.73-3,7-3.15,9.06-.58,1.43,1.8,1.38,3.73-.19,6A23.86,23.86,0,0,1,298.31,585.8Zm-23.94-.35a16.25,16.25,0,0,0,3.48,7.7c5.5,6.94,12.75,6.42,22.86-1.6,4.77-3.79,7.45-7,8.46-10.18,1.09-3.49.45-6.51-2.06-9.67-4.14-5.22-10.58-5.67-16.35-1.09-2.8,2.22-4.5,5-4.73,7.81a11.24,11.24,0,0,0,2.42,7.62,8.19,8.19,0,0,0,5.84,3.08,19.41,19.41,0,0,1-5.76,3.2c-2.86.9-5.28.27-6.84-1.7a10.12,10.12,0,0,1-2.19-5.84Z"/><path class="cls-1" d="M368.76,675.44c2.49,2.45,2.17,5.06.27,7-3.24,3.28-6.6.13-7.09-.34-3.4-3.37-.69-6.46.39-7.65l-4.77-4.72c-5.74,6.52-4.49,12.51-.13,16.83,4.57,4.52,11,6,16.31.66,4-4,2.65-7.55,2-9.22,1.47.5,4.55,1.59,8.15-2.05,3.81-3.85,3.65-9.12-1.1-13.81-4.39-4.34-9.67-5.7-15.82-.6l4.75,4.69c2.64-2.56,4.36-1.57,6.32.36.76.76,3,3,.55,5.48s-5.94,0-6.42-.51l-1.27-1.25L367.27,674Z"/><rect class="cls-3" x="319.1" y="558.3" width="4.97" height="16" transform="translate(-93.88 64.8) rotate(-10.05)"/><rect class="cls-3" x="353.1" y="561.3" width="4.97" height="16" transform="translate(263.92 -95.64) rotate(24.14)"/><rect class="cls-3" x="396.06" y="610.81" width="4.45" height="16.54" transform="translate(955.89 138.5) rotate(82)"/><rect class="cls-3" x="392.06" y="643.81" width="4.45" height="16.54" transform="translate(1141.73 503.81) rotate(109.94)"/><rect class="cls-3" x="339.05" y="685.75" width="5.13" height="16.54" transform="translate(788.47 1325.45) rotate(170.92)"/><rect class="cls-3" x="304.05" y="681.75" width="5.13" height="16.54" transform="translate(351.8 1443.75) rotate(-159.47)"/><rect class="cls-3" x="262.05" y="631.75" width="5.13" height="16.54" transform="matrix(-0.14, -0.99, 0.99, -0.14, -331.4, 992.74)"/><rect class="cls-3" x="266.05" y="598.75" width="5.13" height="16.54" transform="translate(-393.46 654.74) rotate(-70.25)"/><line class="cls-1" x1="594.09" y1="315.21" x2="580.64" y2="331.77"/><line class="cls-1" x1="571.09" y1="293.21" x2="560.09" y2="310.21"/><line class="cls-1" x1="549.09" y1="273.21" x2="541.76" y2="291.01"/><line class="cls-1" x1="536.8" y1="272.89" x2="529.29" y2="290.72"/><line class="cls-1" x1="504.91" y1="279.82" x2="498.78" y2="300.26"/><line class="cls-1" x1="470.09" y1="290.21" x2="467.09" y2="312.21"/><line class="cls-1" x1="439.07" y1="302.62" x2="438.07" y2="324.7"/><line class="cls-1" x1="412.09" y1="315.21" x2="413.12" y2="336.76"/><line class="cls-1" x1="392.09" y1="325.21" x2="395.09" y2="346.21"/><line class="cls-1" x1="382.22" y1="330.91" x2="386.09" y2="351.21"/><line class="cls-1" x1="364.09" y1="341.21" x2="369.3" y2="361"/><line class="cls-1" x1="343.09" y1="354.21" x2="350.09" y2="373.21"/><line class="cls-1" x1="322.42" y1="367.81" x2="332.09" y2="385.21"/><line class="cls-1" x1="304.09" y1="380.21" x2="315.54" y2="396.86"/><line class="cls-1" x1="289.09" y1="391.21" x2="302.09" y2="407.21"/><line class="cls-1" x1="280.09" y1="398.21" x2="294.09" y2="413.21"/><line class="cls-1" x1="266.24" y1="408.42" x2="282.08" y2="423.13"/><line class="cls-1" x1="248.09" y1="423.21" x2="266.09" y2="436.21"/><line class="cls-1" x1="230.09" y1="440.21" x2="249.09" y2="451.21"/><line class="cls-1" x1="212.09" y1="458.21" x2="232.09" y2="467.21"/><line class="cls-1" x1="198.09" y1="473.21" x2="219.09" y2="480.21"/><line class="cls-1" x1="191.09" y1="481.21" x2="211.46" y2="488"/><line class="cls-1" x1="177.09" y1="498.21" x2="197.48" y2="503.06"/><line class="cls-1" x1="158.09" y1="522.21" x2="179.52" y2="524.25"/><line class="cls-1" x1="138.5" y1="550.19" x2="160.46" y2="549.19"/><line class="cls-1" x1="118.04" y1="582.05" x2="141.33" y2="578.17"/><line class="cls-1" x1="100.42" y1="612.86" x2="125.55" y2="606.35"/><line class="cls-1" x1="94.29" y1="625.43" x2="120.09" y2="617.21"/><line class="cls-1" x1="114.09" y1="648.21" x2="137.63" y2="639"/><line class="cls-1" x1="135.34" y1="672.58" x2="156.09" y2="662.21"/><line class="cls-1" x1="155.47" y1="695.59" x2="174.09" y2="684.21"/><line class="cls-1" x1="247.09" y1="769.21" x2="232.58" y2="788.9"/><line class="cls-1" x1="267.09" y1="793.21" x2="254.09" y2="813.21"/><line class="cls-1" x1="288.09" y1="818.21" x2="277.09" y2="840.21"/><line class="cls-1" x1="309.09" y1="839.21" x2="298.83" y2="865.9"/><line class="cls-1" x1="320.09" y1="835.21" x2="312.09" y2="862.21"/><line class="cls-1" x1="349.92" y1="823.03" x2="344.09" y2="851.21"/><line class="cls-1" x1="382.09" y1="808.21" x2="379.09" y2="837.21"/><line class="cls-1" x1="411.09" y1="794.21" x2="410.09" y2="822.21"/><line class="cls-1" x1="437.09" y1="780.21" x2="439.09" y2="808.21"/><line class="cls-1" x1="454.56" y1="770.87" x2="458.09" y2="797.21"/><line class="cls-1" x1="463.96" y1="765.58" x2="469.09" y2="790.21"/><line class="cls-1" x1="480.09" y1="756.21" x2="488.09" y2="779.21"/><line class="cls-1" x1="500.09" y1="744.21" x2="508.49" y2="765.21"/><line class="cls-1" x1="518.6" y1="732.13" x2="529.09" y2="751.21"/><line class="cls-1" x1="586.6" y1="679.65" x2="602.09" y2="693.21"/><line class="cls-1" x1="602.68" y1="664.58" x2="620.71" y2="675.97"/><line class="cls-1" x1="618.76" y1="648.53" x2="639.09" y2="658.21"/><line class="cls-1" x1="632.09" y1="634.21" x2="654.26" y2="642.52"/><line class="cls-1" x1="639.09" y1="627.21" x2="661.34" y2="634.95"/><line class="cls-1" x1="653.09" y1="611.21" x2="676.08" y2="618.52"/><line class="cls-1" x1="670.73" y1="590.36" x2="695.09" y2="596.21"/><line class="cls-1" x1="689.19" y1="567.38" x2="714.09" y2="571.21"/><line class="cls-1" x1="708.3" y1="542.15" x2="732.74" y2="544.26"/><line class="cls-1" x1="725.09" y1="518.21" x2="749.09" y2="517.21"/><line class="cls-1" x1="729.83" y1="509.15" x2="754.62" y2="507.17"/><line class="cls-1" x1="713.09" y1="485.21" x2="734.7" y2="481.28"/><line class="cls-1" x1="692.5" y1="459.11" x2="712.47" y2="454.11"/><path class="cls-4" d="M542.36,579.46l-.33-.22a1.65,1.65,0,0,1-.4.39,5.8,5.8,0,0,1-2.34,1l0,.4.41-.13-.6-3.28c-.11-.62-.19-1.11-.23-1.46a2.61,2.61,0,0,1,0-.42v-.14h-.12l.12,0h-.12l.12,0-.41-.05.41.05c0-.05,0-.07.09-.12a1.28,1.28,0,0,1,.54-.22h0a3.13,3.13,0,0,1,1.43-.08,1.63,1.63,0,0,1,.92.57,2.85,2.85,0,0,1,.48,1.08,4,4,0,0,1,.11,1.42,2,2,0,0,1-.41,1l.33.22.32.21a2.89,2.89,0,0,0,.6-1.43,4.83,4.83,0,0,0-.12-1.71,3.45,3.45,0,0,0-.61-1.34,2.33,2.33,0,0,0-1.33-.82,4.08,4.08,0,0,0-1.82.08h0a2.35,2.35,0,0,0-.92.41,1.18,1.18,0,0,0-.43.63h0a1.14,1.14,0,0,0,0,.37,16.59,16.59,0,0,0,.29,2l.6,3.28.06.36.4-.08a6.92,6.92,0,0,0,2.75-1.17,3.35,3.35,0,0,0,.56-.57Zm9.46,4.31-.09-.39a2.63,2.63,0,0,0-.73.37,1.1,1.1,0,0,0-.35.47.8.8,0,0,0,0,.55.61.61,0,0,0,.11.21.88.88,0,0,0,.7.29l.23,0h0l.13-.27-.23.19c.06.07.1.07.1.08l.13-.27-.23.19.31-.25-.37.14.06.11.31-.25-.37.14h0l.31-.14-.29-.09,0,.23.31-.14-.29-.09.21.07-.14-.18-.07.11.21.07-.14-.18,0,0,0,0h0l0,0,0,0a2.26,2.26,0,0,1-.21.09h0a1.37,1.37,0,0,1-.94-.07,1.19,1.19,0,0,1-.46-.41,6.28,6.28,0,0,1-.76-1.33,6.36,6.36,0,0,0-.81-1.35,4.18,4.18,0,0,0-2.05-1.46,10.38,10.38,0,0,0-5,.11l0,.4.42,0v-.12l-.43,0,.09.39a17.33,17.33,0,0,0,3.68-1.64h0c.23-.16.45-.31.65-.47a4.86,4.86,0,0,0,1.46-1.75,2.59,2.59,0,0,0,.13-1.87,2.16,2.16,0,0,0-.39-.77,3,3,0,0,0-.86-.71,4.65,4.65,0,0,0-2.18-.53,26.18,26.18,0,0,0-5.25.91l-1.5.34-.93.2h0l-.4.08-.1,0h0l-.06,0,.09.38,0-.4-.84.17h0l-.9.17-.46.08c-.67.12-1.06.19-1.27.25a.87.87,0,0,0-.32.16.63.63,0,0,0-.2.25.76.76,0,0,0,0,.28h0a.47.47,0,0,0,.1.24.65.65,0,0,0,.45.2,2,2,0,0,0,.47,0,4,4,0,0,1,1-.07l.12-.41-.12.41.1,0h0l0,0h0l0,0h0l.4-.2-.4.2h0s0,.16.08.35.07.46.11.78q.67,5.16,1.31,10.33a4.39,4.39,0,0,1,.05.52v.15l.2,0-.18-.06,0,0,.2,0-.18-.06.11,0-.09-.06,0,0,.11,0-.09-.06h0a2.27,2.27,0,0,1-.84.29l0,.4,0-.4c-.34.06-.62.13-.84.19l-.29.1a1.12,1.12,0,0,0-.26.14.59.59,0,0,0-.15.16.51.51,0,0,0-.07.3h0a.39.39,0,0,0,.09.22.59.59,0,0,0,.4.19l.38,0h0l1.4-.24,0-.4v.4l.44-.07h0l.7-.13h0c.74-.14,1.48-.28,2.21-.44h0l1-.22.5-.11c1-.22,2-.46,3-.72h0a1,1,0,0,0,.46-.21.57.57,0,0,0,.2-.25.52.52,0,0,0,0-.32h0l-.08-.16a.49.49,0,0,0-.29-.17,2,2,0,0,0-.88.09h0a6.46,6.46,0,0,1-1.53.25c-.14,0-.16,0-.16,0l0,0v0l0,0-.2.11.2-.09v0l-.2.11.2-.09s0-.2-.1-.47l-.21-1.14-.81-4.51-.42.12,0,.4a3.63,3.63,0,0,1,2.29,0,2.12,2.12,0,0,1,.75.63,5,5,0,0,1,.62,1.07h0l.66,1.53h0a2.25,2.25,0,0,0,.31.51,3.8,3.8,0,0,0,1.85,1.15,8.32,8.32,0,0,0,5.18-.28,5.37,5.37,0,0,0,1.68-.82,1.76,1.76,0,0,0,.58-.73,1.16,1.16,0,0,0,0-.86h0a1,1,0,0,0-.17-.33,1,1,0,0,0-.65-.34,2.21,2.21,0,0,0-.82.12l.09.39.09.39a1,1,0,0,1,.44-.08l.16.08,0,.11h0a.39.39,0,0,1,0,.3,1,1,0,0,1-.29.34,4.31,4.31,0,0,1-1.36.64,7.48,7.48,0,0,1-4.65.28,3.22,3.22,0,0,1-1.52-.93,1.41,1.41,0,0,1-.21-.35h0l-.66-1.53h0a5.51,5.51,0,0,0-.7-1.21,3,3,0,0,0-1-.83,4.47,4.47,0,0,0-2.83,0l-.45.11.08.42c.27,1.5.55,3,.82,4.5.09.53.16.93.22,1.21s0,.26.07.34l0,.12,0,.1.39-.21-.42.12a.73.73,0,0,0,.15.35,1,1,0,0,0,.7.31,7,7,0,0,0,1.79-.28h0a2.44,2.44,0,0,1,.44-.08h0l.08-.24-.2.16a.23.23,0,0,0,.12.08l.08-.24-.2.16.26-.21-.31.11,0,.1.26-.21-.31.11.42-.14-.42.13.3-.1-.28-.08,0,.18.3-.1-.28-.08.25.07-.16-.19-.09.12.25.07-.16-.19.07.08,0-.1,0,0,.07.08,0-.1-.11,0h0c-1,.25-2,.49-3,.71l-.49.11-1,.22h0c-.74.15-1.47.3-2.2.43h0l-.7.13h0l-.41.07h0l-1.39.23h0l-.17,0h0l-.08.24.21-.16a.21.21,0,0,0-.13-.08l-.08.24.21-.16-.27.21.32-.07,0-.14-.27.21.32-.07-.42.09.42-.09-.37.08.31.15.06-.23-.37.08.31.15-.26-.13.18.23.08-.1-.26-.13.18.23-.07-.08.05.1,0,0-.07-.08.05.1a1.29,1.29,0,0,1,.3-.1c.17,0,.4-.1.69-.16h0a3.08,3.08,0,0,0,1.25-.48.89.89,0,0,0,.27-.33,1.08,1.08,0,0,0,.08-.48c0-.17,0-.37,0-.61-.43-3.44-.87-6.89-1.32-10.33l-.12-.84a2.55,2.55,0,0,0-.12-.48h0l-.08-.15a.89.89,0,0,0-.56-.28h0a4.35,4.35,0,0,0-1.3.07,1.28,1.28,0,0,1-.28,0h0l0,.09.05-.09h0l0,.09.05-.09-.14.24.22-.17-.08-.07-.14.24.22-.17-.25.19.3-.06-.05-.13-.25.19.3-.06h0l-.27.06.24.07,0-.13-.27.06.24.07-.25-.07.16.2.09-.13-.25-.07.16.2-.09-.12,0,.14,0,0-.09-.12,0,.14h0c.09,0,.51-.12,1.17-.23l.47-.09.9-.16h0l.86-.17h0l-.07-.34,0,.35h0l-.07-.34,0,.35v0h0v0l.52-.11h0l.94-.2,1.52-.34a25.33,25.33,0,0,1,5-.89,3.87,3.87,0,0,1,1.81.44,2.11,2.11,0,0,1,.66.53,1.64,1.64,0,0,1,.28.54,1.78,1.78,0,0,1-.09,1.32,3.78,3.78,0,0,1-1.17,1.37c-.18.14-.37.28-.58.42l.21.33-.21-.34a15.58,15.58,0,0,1-3.45,1.53l-.32.11,0,.45v.45l.47-.09a9.72,9.72,0,0,1,4.61-.14,3.66,3.66,0,0,1,1.72,1.23,6,6,0,0,1,.71,1.21,7.75,7.75,0,0,0,.85,1.48,1.89,1.89,0,0,0,.75.62,2.24,2.24,0,0,0,1.53.07h0a1.8,1.8,0,0,0,.5-.25.77.77,0,0,0,.21-.25.48.48,0,0,0,0-.37L552,585l.41-.16-.07-.13a.46.46,0,0,0-.19-.13,1.54,1.54,0,0,0-.5-.08l-.14,0h0v0h0l0,0a1.35,1.35,0,0,1,.42-.2Zm-19.74,2.41v-.41a.77.77,0,0,0-.36.16.93.93,0,0,0-.32.57h0a6.91,6.91,0,0,1-.43,1.68,1.91,1.91,0,0,1-.58.65l-.22.17.22.32-.18-.35a5,5,0,0,1-1.56.6h0c-.44.08-1.77.27-3.91.46l0,.41,0-.41-1.86.11,0,.41.43,0c.05-2.28.11-4.56.15-6.84l-.42.05,0,.41q.93,0,1.86-.12a8.85,8.85,0,0,1,1.34,0,1.56,1.56,0,0,1,.63.13.88.88,0,0,1,.14.14,3.79,3.79,0,0,1,.53,1.36,4.22,4.22,0,0,0,.12.46l0,.16a.74.74,0,0,0,.08.15h0a.53.53,0,0,0,.29.18,1.09,1.09,0,0,0,.31,0,.76.76,0,0,0,.41-.16.78.78,0,0,0,.22-.3.8.8,0,0,0,0-.29h0a2,2,0,0,0-.06-.39l-.41.15.42-.09c-.06-.58-.12-1.45-.17-2.6,0-.43,0-.77,0-1,0-.77,0-1.27,0-1.54a.77.77,0,0,0-.15-.47.55.55,0,0,0-.52-.2v0a.68.68,0,0,0-.35.15,1.1,1.1,0,0,0-.32.48,3.78,3.78,0,0,0-.12.57h0a3.86,3.86,0,0,1-.25.92,1.24,1.24,0,0,1-.36.49l-.12.08.17.35-.17-.35a4.73,4.73,0,0,1-1.17.31c-.6.09-1.39.17-2.37.22l0,.41.42-.05q.06-3,.11-6l-.42.05,0,.41,2.4-.22a7.7,7.7,0,0,1,3.33.25,2.17,2.17,0,0,1,.93.68,2.32,2.32,0,0,1,.44.92l.42-.14-.42.13a1.32,1.32,0,0,0,.22.51.78.78,0,0,0,.24.19.68.68,0,0,0,.35,0h0a.87.87,0,0,0,.42-.17.56.56,0,0,0,.21-.28.79.79,0,0,0,.05-.28h0c0-.11,0-.26-.08-.47s-.1-.5-.17-.84l-.42.13.42-.13c-.14-.72-.28-1.44-.41-2.16l-.07-.36-.39.09c-.53.11-1,.19-1.32.23-.57.08-1.14.14-1.7.2v0c-1.95.18-4.43.4-7.41.5-.78,0-1.39,0-1.83,0l-.06.41.06-.41a3.53,3.53,0,0,0-.48,0,1.09,1.09,0,0,0-.45.18.6.6,0,0,0-.23.42.4.4,0,0,0,.09.31.7.7,0,0,0,.44.23,3.06,3.06,0,0,0,.56,0h0a3.3,3.3,0,0,1,.51,0,.67.67,0,0,1,.19,0h0a.41.41,0,0,1,0,.14h0v0l.11,0-.11,0h0l.11,0-.11,0s0,.17,0,.38,0,.52-.05.9c-.23,3.43-.46,6.87-.71,10.3a1.79,1.79,0,0,1-.09.51l.41.06-.4-.07h0l0,0h0l0,0h0a.83.83,0,0,1-.31.12,5.15,5.15,0,0,1-.73.09l-.6,0-.32,0-.15,0-.26.24-.13.12,0,.17a.47.47,0,0,0,.09.32.63.63,0,0,0,.36.2,1.78,1.78,0,0,0,.41,0h2.42c3.82-.12,8.34-.35,13.68-1l1-.11-.65-.61h0l-.31.31.24.31a.57.57,0,0,0,.15-.2l0-.1v-.07s0-.15,0-.42h0c0-.29,0-.75-.07-1.4h0c0-.61-.08-1.07-.1-1.39s0-.47,0-.5a.7.7,0,0,0-.13-.38.58.58,0,0,0-.25-.18.81.81,0,0,0-.31,0v.41l0,.4v-.17l-.08.17h.09v-.17l-.08.17.1-.2-.18.14.08.06.1-.2-.18.14.07-.06-.09,0,0,0,.07-.06-.09,0v0l.07,0-.07,0h0l.07,0-.07,0c0,.05.05.68.13,1.87l.42-.09-.42.08c0,.65.06,1.11.07,1.39h0c0,.13,0,.23,0,.3v.09h0l.21,0-.21,0h0l.21,0-.21,0,.43-.07-.43.06h0l.43-.07-.43.06.43-.06-.43.06h0l.43-.06-.43.06.43-.06-.43,0v0l.43-.06-.43,0,.43,0h-.42v0l.43,0h0l-.42,0v0h.42l-.42,0,.42,0-.39-.1,0,.07.42,0-.39-.1.39.1-.24-.3c-.13.11-.14.16-.15.2l.39.1-.24-.3a.46.46,0,0,0-.18.31.35.35,0,0,0,.1.31h0l.32-.32v-.4c-5.31.62-9.8.85-13.6,1l0,.41.05-.41h-2.4l-.24,0h0l-.11.2.18-.14-.07-.06-.11.2.18-.14-.27.21h.32l-.05-.2-.27.21h.32l-.42,0,.27.27.14-.13-.27-.27v.4h.24l.59,0a5.81,5.81,0,0,0,.91-.11,2,2,0,0,0,.69-.31,1,1,0,0,0,.34-.48h0a3.57,3.57,0,0,0,.12-.68q.36-5.16.71-10.31c0-.41,0-.73.05-1s0-.2,0-.27v-.18l-.42.09.42-.06a.87.87,0,0,0-.18-.56.74.74,0,0,0-.21-.18A1.37,1.37,0,0,0,519,577a5.59,5.59,0,0,0-.62,0h0a3,3,0,0,1-.41,0l-.07,0-.09.17.15-.12-.06,0-.09.17.15-.12-.27.21H518l0-.2-.27.21h0l.17.22.13-.23h-.3l.17.22-.09-.11,0,.14.05,0-.09-.11,0,.14a1.53,1.53,0,0,1,.38,0h0c.45,0,1.07,0,1.87,0,3-.1,5.5-.32,7.46-.5h0l1.72-.2c.38-.05.85-.13,1.4-.25l0-.4-.42.12c.14.73.27,1.45.42,2.17h0c.07.35.13.62.16.83a3.73,3.73,0,0,1,.07.4h0l.19,0-.17,0,0,.08.19,0-.17,0,.25.06-.16-.19-.09.13.25.06-.16-.19.11.14,0-.18-.07,0,.11.14,0-.18v0h0v0h0v.18l.1-.16-.1,0v.18l.1-.16-.06.1.08-.09h0l-.06.1.08-.09h0a.6.6,0,0,1-.09-.23h0a3.17,3.17,0,0,0-.57-1.18,2.91,2.91,0,0,0-1.22-.9,8.5,8.5,0,0,0-3.7-.3l-2.4.22-.44,0v.42l-.12,6v.38l.4,0a24.69,24.69,0,0,0,2.47-.23,4.84,4.84,0,0,0,1.47-.42h0a1.51,1.51,0,0,0,.26-.18,2.22,2.22,0,0,0,.64-.84,4.37,4.37,0,0,0,.33-1.16h0a1.83,1.83,0,0,1,.08-.4l0-.07h0l-.12-.06.08.1,0,0-.12-.06.08.1-.14-.18v.24l.14-.06-.14-.18v.24h0v-.2l-.16.13.16.07v-.2l-.16.13.08-.07-.1.06h0l.08-.07-.1.06h0v.07c0,.22,0,.72,0,1.48,0,.27,0,.62,0,1.06,0,1.17.1,2,.17,2.65v.06a.86.86,0,0,1,0,.21h0l.15,0-.14,0V586l.15,0-.14,0,.23.07-.14-.18-.09.11.23.07-.14-.18.12.15,0-.19-.07,0,.12.15,0-.19,0,.1v-.1h0l0,.1v-.1h0v0h0v0l-.06.2.17-.14-.11-.06-.06.2.17-.14-.35.28.35-.27-.15.12.17-.09,0,0-.15.12.17-.09a4.46,4.46,0,0,1-.15-.54,4.3,4.3,0,0,0-.67-1.64,1.42,1.42,0,0,0-.31-.29,2.23,2.23,0,0,0-1-.24,10.59,10.59,0,0,0-1.47,0l-1.84.12-.45,0v.44q-.06,3.4-.15,6.83V591l.4,0c.63,0,1.25-.07,1.88-.12h0c2.17-.18,3.5-.37,4-.47h0a6.16,6.16,0,0,0,1.85-.71h0l.26-.2a3,3,0,0,0,.86-1,7.83,7.83,0,0,0,.51-1.93h-.42l.42,0v-.06l-.12-.05.08.1,0,0-.12-.05.08.1-.12-.15v.21l.12-.06-.12-.15v.21h0Zm-16,1,.07-.42a.72.72,0,0,0-.42.15,1.09,1.09,0,0,0-.33.5h0a6,6,0,0,1-.72,1.55h0a1.8,1.8,0,0,1-.36.37,3.53,3.53,0,0,1-1.85.63h0a24.57,24.57,0,0,1-3.95-.16c-.44,0-.82-.09-1.15-.14l-.13.4.42,0c.61-3.43,1-5.64,1.21-6.62.32-1.6.64-3.2.95-4.81.1-.46.18-.82.25-1.06a2.07,2.07,0,0,1,.09-.27l0,0-.17-.08.12.13.05-.05-.17-.08.12.13h0l-.18-.17.17.17h0l-.18-.17.17.17-.25-.24.22.27,0,0-.25-.24.22.27-.11-.13.06.16.05,0-.11-.13.06.16h0a3,3,0,0,1,.75,0h0a2.49,2.49,0,0,0,.47,0,.82.82,0,0,0,.46-.17.57.57,0,0,0,.23-.36.5.5,0,0,0-.1-.4.58.58,0,0,0-.44-.2l-.09.41.1-.41-.26,0h0c-2-.19-3.89-.46-5.78-.79h0l-.35-.06a1.55,1.55,0,0,0-.31,0,.71.71,0,0,0-.38.15.64.64,0,0,0-.22.33l.42,0-.41,0a.46.46,0,0,0,.08.44.63.63,0,0,0,.4.21l.58.1h0a.72.72,0,0,1,.49.21l0,0,.38-.23-.39.22.11-.06-.11,0v0l.11-.06-.11,0a.55.55,0,0,1,0,.17,4.4,4.4,0,0,1-.08.45q-1.32,5.43-2.67,10.87a2.4,2.4,0,0,1-.16.48l-.06.12,0,0h0v0h0v0l.06.09,0-.1h0l.06.09,0-.1.14.36-.13-.36a1.9,1.9,0,0,1-.47.05,6.94,6.94,0,0,1-1-.11l-.13.41.13-.41a1.22,1.22,0,0,0-.33,0,.77.77,0,0,0-.41.15.64.64,0,0,0-.21.31h0a.42.42,0,0,0,.07.39.71.71,0,0,0,.24.17,4.88,4.88,0,0,0,1.09.29l1.13.19a111.94,111.94,0,0,0,12.84,1.26l.46,0,0-.45.12-1.45h0a9.22,9.22,0,0,1,.22-1.38h0c0-.21.07-.43.1-.7h0a1.93,1.93,0,0,0,0-.34.66.66,0,0,0-.12-.32.51.51,0,0,0-.4-.19l-.05.42.07-.42-.07.42-.06.41,0-.28-.23.19.19.09,0-.28-.23.19.13-.11-.16.07,0,0,.13-.11-.16.07h0v.17h0a5.43,5.43,0,0,1-.08.61l.41,0-.41,0a9,9,0,0,0-.24,1.52l.42,0-.42,0-.12,1.45.42,0,.08-.41a111.36,111.36,0,0,1-12.75-1.25l-1.12-.19a6.88,6.88,0,0,1-.73-.17l-.17-.06h0l-.13.15.16-.12,0,0-.13.15.16-.12-.3.24.34,0a.35.35,0,0,0,0-.28l-.3.24.34,0-.41,0,.41.06-.28,0,.16.21.12-.17-.28,0,.16.21-.14-.19.05.24.09,0-.14-.19.05.24,0-.12v.13h0l0-.12v.13H501a7,7,0,0,0,1.18.12,2,2,0,0,0,.86-.14h0l.18-.11a1.41,1.41,0,0,0,.36-.49,4.14,4.14,0,0,0,.21-.65q1.35-5.43,2.67-10.87a3.4,3.4,0,0,0,.11-.62.9.9,0,0,0-.07-.51h0l-.08-.12a1.43,1.43,0,0,0-1-.48l-.11.41.13-.4-.57-.11h0l-.09.16.14-.12,0,0-.09.16.14-.12-.23.19.28,0-.05-.23-.23.19.28,0v0l-.31,0,.18.23.13-.2-.31,0,.18.23-.13-.17,0,.23a.27.27,0,0,0,.15-.06l-.13-.17,0,.23h.08l.37.07h0q2.86.51,5.84.8h0l.26,0h0l0-.11-.06.1h0l0-.11-.06.1.13-.21-.19.15.06.06.13-.21-.19.15.21-.17h-.26a.22.22,0,0,0,0,.18l.21-.17h-.26l.32,0-.19-.23-.13.21.32,0-.19-.23.12.15,0-.2-.09,0,.12.15,0-.2H511a4,4,0,0,0-.75,0,1.08,1.08,0,0,0-.63.2l-.05,0h0l.22.21-.22-.21h0l.22.21-.22-.21.28.27-.26-.29a1.1,1.1,0,0,0-.23.33,9.71,9.71,0,0,0-.39,1.51c-.31,1.61-.63,3.21-.95,4.82-.19,1-.6,3.19-1.21,6.63l-.07.36.36.06,1.2.15a24.7,24.7,0,0,0,4.11.15h0a4.26,4.26,0,0,0,2.36-.84,2.81,2.81,0,0,0,.54-.55h0a6.43,6.43,0,0,0,.86-1.8l-.4-.08.4.08,0-.09h0l-.13-.09.1.12,0,0-.13-.09.1.12-.16-.19,0,.26.2-.07-.16-.19,0,.26h0Zm-14.69-1.56.14-.4a.69.69,0,0,0-.53.14,1.32,1.32,0,0,0-.3.38h0a6.12,6.12,0,0,1-1,1.42l-.17.16a3,3,0,0,1-2.07.49h0a21.69,21.69,0,0,1-3.68-.78c-.4-.11-.76-.22-1.06-.32l-.19.39.4.08c1.19-3.32,2-5.46,2.31-6.4q.88-2.32,1.75-4.65c.17-.44.3-.78.41-1a2.25,2.25,0,0,1,.14-.25l0,0h0l-.13-.1.1.12,0,0-.13-.1.1.12-.2-.25.17.28,0,0-.2-.25.17.28-.19-.32.07.37.12-.05-.19-.32.07.37.07,0,.06,0-.11-.17.05.2.06,0-.11-.17.05.2,0-.09v.1h0l0-.09v.1h0a2.18,2.18,0,0,1,.69.12,1.59,1.59,0,0,0,.46.08h.24a.79.79,0,0,0,.29-.13.67.67,0,0,0,.19-.27v0h0a.53.53,0,0,0-.07-.49.62.62,0,0,0-.33-.2h0l-.24-.07h0q-2.7-.75-5.3-1.69l-.33-.12h0a1.41,1.41,0,0,0-.31-.07.66.66,0,0,0-.44.14.55.55,0,0,0-.19.26l.39.1-.39-.12a.64.64,0,0,0-.05.28.51.51,0,0,0,.1.25.75.75,0,0,0,.3.2h0l.52.19h0a.73.73,0,0,1,.38.22l.05.1.41-.17-.41.17.13-.06-.13,0v0l.13-.06-.13,0v0a2.69,2.69,0,0,1-.18.56q-2.22,5.22-4.45,10.42a1.68,1.68,0,0,1-.33.58l.06.07,0-.09,0,0,.06.07,0-.09h0a.93.93,0,0,1-.44,0,5.68,5.68,0,0,1-1-.27l-.19.39.2-.38a1.28,1.28,0,0,0-.35-.08.66.66,0,0,0-.46.14.58.58,0,0,0-.19.25l.39.11-.39-.13a.49.49,0,0,0,0,.31.45.45,0,0,0,.09.17,1.23,1.23,0,0,0,.43.3,5.77,5.77,0,0,0,.7.29l1,.37A105.71,105.71,0,0,0,500.21,590l.44.1.12-.46c.12-.47.24-.94.37-1.42h0a9.48,9.48,0,0,1,.45-1.34h0c.07-.19.15-.42.22-.68a1.26,1.26,0,0,0,.06-.38.57.57,0,0,0-.11-.38.4.4,0,0,0-.29-.17l-.12.4.14-.4-.14.4-.13.41.09-.29-.25.2.16.09.09-.29-.25.2.19-.15-.22.08,0,.07.19-.15-.22.08.09,0-.09,0h0l.09,0-.09,0h0l0,.17c-.07.24-.13.44-.19.59l.4.1-.4-.1a13.11,13.11,0,0,0-.49,1.46l.42,0-.42,0c-.12.48-.24.95-.37,1.43l.42.05.14-.4a104.84,104.84,0,0,1-11.77-3.26l-1-.36a5.89,5.89,0,0,1-.63-.26l-.16-.09,0,0h0l-.08.08.09-.07h0l-.08.08.09-.07-.24.19.28-.1,0-.09-.24.19.28-.1-.36.12.33.11a.4.4,0,0,0,0-.23l-.36.12.33.11h0l-.28-.07.17.22.11-.15-.28-.07.17.22-.16-.21,0,.27.13-.06-.16-.21,0,.27,0-.17,0,.18h0l0-.17,0,.18h0l.11,0h0a6.3,6.3,0,0,0,1.09.3,1.87,1.87,0,0,0,.85,0l-.07-.39.06.39a.83.83,0,0,0,.31-.16,2.51,2.51,0,0,0,.63-1q2.24-5.2,4.44-10.42a5.14,5.14,0,0,0,.22-.6,1.06,1.06,0,0,0,0-.53h0a.83.83,0,0,0-.16-.31,1.55,1.55,0,0,0-.72-.46l-.18.39.19-.38-.52-.19-.19.38.2-.38,0,0-.09.13.12-.1,0,0-.09.13.12-.1-.23.19.28-.06-.05-.13-.23.19.28-.06-.28.06.26.07,0-.13-.28.06.26.07v0l-.29-.07.18.23.11-.16-.29-.07.18.23-.15-.19-.05.26a.29.29,0,0,0,.2-.07l-.15-.19-.05.26h0l.08,0,.19-.38-.2.38.34.12q2.63,1,5.36,1.72h0l.23.06h0l.08-.14-.13.1.05,0,.08-.14-.13.1.21-.17-.25-.05a.26.26,0,0,0,0,.22l.21-.17-.25-.05.4.08-.39-.09.3.07-.18-.23-.12.16.3.07-.18-.23.14.18,0-.24-.12.06.14.18,0-.24h0a.91.91,0,0,1-.3,0,4,4,0,0,0-.72-.15h-.31a.76.76,0,0,0-.34.13l.2.32-.08-.38a.46.46,0,0,0-.17.09,1.2,1.2,0,0,0-.24.28,9.35,9.35,0,0,0-.62,1.42q-.87,2.32-1.75,4.65-.54,1.44-2.32,6.42l-.13.36.34.12c.33.11.69.22,1.1.33a22.37,22.37,0,0,0,3.84.81h0A3.83,3.83,0,0,0,500,588a2.68,2.68,0,0,0,.26-.23,7.14,7.14,0,0,0,1.12-1.66l-.37-.14.37.15.05-.08h0l-.06-.06.05.07h0l-.06-.06.05.07-.15-.19-.09.24a.28.28,0,0,0,.24,0l-.15-.19-.09.24h0ZM492,572.14l.2-.39-.48-.19-.62-.24,0,0h0l-.26-.06-.07,0h0l-.13.33.18-.31-.05,0-.13.33.18-.31h0c-.19-.07-.48-.2-.85-.38s-.66-.32-.87-.42h0a1,1,0,0,0-.31-.08.64.64,0,0,0-.46.14.6.6,0,0,0-.18.23l.38.12-.37-.15a.51.51,0,0,0,.06.6,1.92,1.92,0,0,0,.68.46h0a1.92,1.92,0,0,1,.57.33h0l.19-.15-.2.14h0l.19-.15-.2.14h0l0,.11a.61.61,0,0,1-.08.25l.38.13-.38-.13-.15.32.37.13-.37-.14c-.09.19-.17.34-.21.44v0l-3.06,6.22A7.55,7.55,0,0,1,484,582a2.45,2.45,0,0,1-.57.34h0a2.89,2.89,0,0,1-2.39-.22,3.69,3.69,0,0,1-1.32-1,2.35,2.35,0,0,1-.33-.57h0a2.31,2.31,0,0,1,.19-1.82h0a20.43,20.43,0,0,1,1-1.84l4-6.8-.36-.17.36.18a2.73,2.73,0,0,1,.21-.3l-.16-.12.13.15,0,0-.16-.12.13.15-.09-.1v.14l.09,0-.09-.1v.14a1.82,1.82,0,0,1,.65.23,2.23,2.23,0,0,0,.51.2,1,1,0,0,0,.26,0,.66.66,0,0,0,.37-.14.62.62,0,0,0,.14-.15h0v0a.56.56,0,0,0,0-.63,1.07,1.07,0,0,0-.33-.24l-.4-.2-.23.37-.23.38,0,0a.48.48,0,0,0,.47-.07.48.48,0,0,0,.17-.28.33.33,0,0,0,0-.18.53.53,0,0,0-.06-.13.41.41,0,0,0-.28-.13.53.53,0,0,0-.31.11.43.43,0,0,0-.18.28.35.35,0,0,0,.07.3l.35-.28-.4.19.05.09.35-.28-.4.19.4-.19,0-.41,0,.41.14-.4h-.1l0,.41.14-.4-.14.4.2-.38-.06,0-.14.4.2-.38-.2.37.22-.36h0l-.2.37.22-.36,0,0,0,0h0l0,0,0,0-.86-.44h0c-.52-.26-1.34-.68-2.4-1.31h0l-1.13-.66h0l-.26-.16h0l-.15-.09a.89.89,0,0,0-.36-.15.67.67,0,0,0-.25,0,.79.79,0,0,0-.28.13l-.14.15.34.19-.33-.2a.59.59,0,0,0-.12.38.66.66,0,0,0,.12.28,1,1,0,0,0,.15.14h0a5.75,5.75,0,0,1,.9.73v0l0,0,0,0h0l0,0,0,0,.1,0-.11,0v0l.1,0-.11,0h0a1.15,1.15,0,0,1-.21.45l-4.42,6.8a9,9,0,0,0-1.13,2.3,3.51,3.51,0,0,0-.07,2,4.7,4.7,0,0,0,.86,1.64,7.25,7.25,0,0,0,2.57,2,8,8,0,0,0,3.5.91,4.64,4.64,0,0,0,2.88-1,6.25,6.25,0,0,0,1.72-2.26h0q1.95-4,3.88-8l-.38-.13.36.16.08-.11v0l-.05-.05,0,.06h0l-.05-.05,0,.06-.15-.19.1.23.05,0-.15-.19.1.23h0l0-.07v.08h0l0-.07v.08h.06a3,3,0,0,1,.76.18,2.63,2.63,0,0,0,.57.16l.25,0a.66.66,0,0,0,.36-.13.7.7,0,0,0,.15-.18v0h0a.49.49,0,0,0,0-.31.63.63,0,0,0-.09-.2,1,1,0,0,0-.29-.22,3.11,3.11,0,0,0-.4-.18l-.2.39-.2.38.31.14.07,0h0l.05,0-.05,0h0l.05,0-.05,0,.21-.17-.25.08,0,.09.21-.17-.25.08.33-.11-.31-.09,0,.2.33-.11-.31-.09.39.12-.37-.15.31.12-.2-.25-.11.13.31.12-.2-.25.16.2,0-.28a.45.45,0,0,0-.18.08l.16.2,0-.28v0h0v0a1.74,1.74,0,0,1-.5-.13,3.66,3.66,0,0,0-.8-.21,1.13,1.13,0,0,0-.73.11l.18.34-.15-.36-.13.08a1.38,1.38,0,0,0-.32.41h0v0q-1.94,4-3.88,8h0a5.33,5.33,0,0,1-1.44,1.91,3.68,3.68,0,0,1-2.29.78,7.18,7.18,0,0,1-3.15-.84,6.56,6.56,0,0,1-2.33-1.77,4,4,0,0,1-.74-1.41,2.71,2.71,0,0,1,.07-1.53,8,8,0,0,1,1-2q2.22-3.41,4.42-6.81a2.74,2.74,0,0,0,.3-.59.83.83,0,0,0,0-.6l-.1-.15a5.58,5.58,0,0,0-1-.87l-.28.35.29-.34,0,0h0l-.18.13.21,0,0-.09-.18.13.21,0-.3.06.24.15.06-.21-.3.06.24.15h0l-.24-.13.17.21.07-.08-.24-.13.17.21-.17-.21,0,.28.15-.07-.17-.21,0,.28v-.19l-.05.19h.06v-.19l-.05.19,0-.08,0,.08h0l0-.08,0,.08h0l.09,0,.14.09h0l.28.17.25-.36-.25.35c.37.23.75.45,1.13.67l.26-.36-.26.36c1.08.63,1.91,1.07,2.45,1.34l.23-.38-.24.37.66.34.17.08,0,0h.29l0-.4-.35.28.35-.28-.4.2.05.08.35-.28-.4.2.4-.2-.42.1,0,.1.4-.2-.42.1.42-.1-.42,0v.13l.42-.1-.42,0,.42,0-.24-.3a.56.56,0,0,0-.18.27l.42,0-.24-.3.24.3.22-.37,0,0-.47.74.41.21.07,0h0l.16-.13-.19,0,0,.09.16-.13-.19,0,.24,0-.21-.09,0,.14.24,0-.21-.09.36.15-.35-.18.27.14-.18-.23-.09.09.27.14-.18-.23.16.2,0-.28a.33.33,0,0,0-.18.08l.16.2,0-.28v0h0v0a1.6,1.6,0,0,1-.38-.15,2.8,2.8,0,0,0-.75-.28,1.08,1.08,0,0,0-.36,0,.74.74,0,0,0-.4.17l-.11.1a3.77,3.77,0,0,0-.31.42h0l-4,6.8a18.07,18.07,0,0,0-1.08,2l.39.1-.39-.11a3.13,3.13,0,0,0-.2,2.44h0a3.18,3.18,0,0,0,.43.73,4.37,4.37,0,0,0,1.57,1.17,3.68,3.68,0,0,0,3.1.22h0a3.69,3.69,0,0,0,.8-.48,8.72,8.72,0,0,0,2.14-2.95l3.06-6.22-.38-.13.38.14.21-.44h0l.16-.32h0a1.51,1.51,0,0,0,.17-.61.91.91,0,0,0-.18-.56l-.35.28.36-.25,0-.05a2.16,2.16,0,0,0-.83-.52l-.22.37.23-.37a1.44,1.44,0,0,1-.43-.26l-.05,0,.05,0h0l-.05,0,.05,0-.25.14.23.1a.26.26,0,0,0,0-.24l-.25.14.23.1h0v0l-.28-.09.17.22.11-.13-.28-.09.17.22-.14-.18-.06.26a.33.33,0,0,0,.2-.08l-.14-.18-.06.26v0h0v0l.06,0h0l.85.4c.37.19.67.32.88.41l.21-.38-.22.37.07,0,.37.08.15-.4-.21.38.63.25.49.19Zm-20.21,5.74.25-.36a5.08,5.08,0,0,1-1-.77h0l0-.12a.77.77,0,0,1,.17-.33l3.48-4.78,3.12-4.31c.23-.31.37-.51.43-.6h0a1.29,1.29,0,0,1,.2-.23.35.35,0,0,1,.15-.07.85.85,0,0,1,.3.1,4.22,4.22,0,0,1,.58.35h0l.42.26.26-.36-.29.34a.72.72,0,0,0,.33.14.67.67,0,0,0,.61-.29h0a.51.51,0,0,0,0-.65,1.21,1.21,0,0,0-.32-.27l-.81-.52h0l-.48-.3-.3-.21-.26.36.27-.35c-.77-.51-1.53-1-2.27-1.57l-.35-.26-.24-.18-.27.2c-2.76,2-5.62,3.89-8.55,5.7l.19.34.39.1c1-2.54,2.26-5.67,4-9.32l.11-.23-.14-.18a1.41,1.41,0,0,0-.19-.21c-1-.86-1.92-1.75-2.84-2.66l-.39-.39-.32.3.34-.29a.93.93,0,0,0-.35-.25.54.54,0,0,0-.29,0,.68.68,0,0,0-.31.14l-.1.09.32.23-.28-.27a.64.64,0,0,0-.19.49.67.67,0,0,0,.15.35l.09.1h0a7.64,7.64,0,0,1,.53.58,1.67,1.67,0,0,1,.2.31l0,.07h0l.14,0h-.14v0l.14,0h0l-.09,0v0h.1l-.09,0a2.05,2.05,0,0,1-.29.41,11.88,11.88,0,0,1-.85.91c-2.39,2.41-4.78,4.8-7.18,7.2a6.69,6.69,0,0,1-.58.53l-.13.09.18.34-.16-.35s0,0-.11,0a1.48,1.48,0,0,1-.42-.24c-.07-.06-.36-.33-.81-.79a1.1,1.1,0,0,0-.35-.26.59.59,0,0,0-.26-.06.63.63,0,0,0-.36.13l.19.25-.19-.25h0l.19.25-.19-.25,0,0-.09.11.36.17-.28-.26a.54.54,0,0,0-.17.29.64.64,0,0,0,0,.35,1.28,1.28,0,0,0,.15.25l.16.18h0c.17.17.5.48,1,.91h0c.37.31.68.6.94.86.51.52,1,1,1.56,1.55h0a1,1,0,0,0,.32.22.58.58,0,0,0,.25,0,.6.6,0,0,0,.34-.13l0,0-.24-.25.19.29.05,0-.24-.25.19.29.05,0,0,0a.6.6,0,0,0,.16-.29.62.62,0,0,0-.05-.35.75.75,0,0,0-.15-.24,3.17,3.17,0,0,0-.45-.45,5.14,5.14,0,0,1-.41-.42.91.91,0,0,1-.21-.41h0v-.06h-.07l.06,0v0h-.07l.06,0-.34-.2.33.21s.09-.11.22-.24l.53-.54,7.74-7.88-.29-.26-.38-.14c-2.11,4.23-3.22,6.92-3.62,7.87h0c-.52,1.27-.9,2.25-1.16,2.92l-.3.79c-.07.18-.11.3-.12.31h0a1.82,1.82,0,0,0-.14.57.73.73,0,0,0,.13.53l.08.08h0a.54.54,0,0,0,.44.11,2.18,2.18,0,0,0,.59-.18,8.27,8.27,0,0,0,.73-.4q3-1.8,5.84-3.7h0c2.27-1.49,3.92-2.59,5-3.23l-.18-.34-.33-.22q-3.56,4.53-7.13,9c-.2.26-.36.46-.49.61a2.73,2.73,0,0,1-.22.23l.14.18-.07-.22-.07,0,.14.18-.07-.22.11.38-.08-.39v0h0v0a.56.56,0,0,1-.29-.08,3.29,3.29,0,0,1-.67-.42h0l-.67-.51a.92.92,0,0,0-.34-.18.65.65,0,0,0-.25,0,.58.58,0,0,0-.3.13l-.13.14.34.19-.31-.23a.58.58,0,0,0-.14.43.52.52,0,0,0,.13.3.85.85,0,0,0,.19.19h0l.49.38c.77.58,1.39,1,1.85,1.37l.94.66c.37.26.94.65,1.72,1.17s1.32.85,1.64,1.05l.15.09h0a1.47,1.47,0,0,0,.42.2,1,1,0,0,0,.26,0,.67.67,0,0,0,.33-.14.48.48,0,0,0,.14-.15h0a.52.52,0,0,0,0-.63,2.63,2.63,0,0,0-.73-.56l-.25.36-.26.36a2.41,2.41,0,0,1,.55.39h0l.16-.11-.18,0,0,.07.16-.11-.18,0,.33-.08-.27-.14a.3.3,0,0,0-.06.22l.33-.08-.27-.14.35.18-.35-.2.23.13-.16-.2-.07.07.23.13-.16-.2.16.2v-.27l-.17.07.16.2v-.15l0-.12h0v.12l0-.12a1,1,0,0,1-.21-.11h0L472,578l-1.62-1c-.77-.51-1.33-.9-1.7-1.16-.15-.1-.47-.32-.94-.66s-1.07-.77-1.83-1.35l-.49-.38h0l-.08-.07h0l-.17.12.19,0,0-.1-.17.12.19,0-.29,0,.21.17.08-.2-.29,0,.21.17,0,0,0,0-.27-.14.19.23.08-.09-.27-.14.19.23-.17-.22v.29l.17-.07-.17-.22v.07l-.08.22h.08v-.22l-.08.22,0-.08,0,.08h0l0-.08,0,.08.09.06.67.51L466,574l-.29.33a3.53,3.53,0,0,0,.86.54,1.2,1.2,0,0,0,.84.08h0l.18-.11a2.56,2.56,0,0,0,.36-.37c.14-.16.31-.37.52-.64q3.57-4.51,7.13-9l1.27-1.62-1.77,1c-1.12.67-2.77,1.77-5,3.26h0q-2.83,1.9-5.79,3.67a5.09,5.09,0,0,1-.78.41.46.46,0,0,1-.15.05v.1l0-.1h0v.1l0-.1-.08.26.19-.21-.11,0-.08.26.19-.21-.3.33.31-.32h0l-.1.08.1-.08h0l-.1.08.1-.08-.05,0,.06,0v0l-.05,0,.06,0a1.13,1.13,0,0,1,.09-.37l-.39-.09.39.1.12-.34c.21-.55.68-1.78,1.46-3.68h0c.4-.95,1.5-3.61,3.59-7.81l1.1-2.19-1.76,1.79q-3.86,3.95-7.74,7.88l-.54.55-.29.32h0a.88.88,0,0,0-.14.72l.42-.14-.42.12a1.56,1.56,0,0,0,.35.72,4,4,0,0,0,.5.51,2.37,2.37,0,0,1,.36.36l.06.07v0l.18-.08h-.18v.08l.18-.08H461l-.21-.18-.09.18h.3l-.21-.18.3.25-.22-.32-.06,0,.08.09-.08-.09h0l.08.09-.08-.09.23.25-.21-.27,0,0,.23.25-.21-.27.19.24,0-.32a.38.38,0,0,0-.23.08l.19.24,0-.32,0,.22.1-.22h-.07l0,.22.1-.22,0,.09.05-.08h0l0,.09.05-.08-.12-.09-.31.32.32-.31c-.53-.51-1-1-1.55-1.55-.27-.27-.6-.58-1-.9h0c-.49-.43-.82-.73-1-.88h0l-.11-.12-.05-.07v0l-.21.09h.21v-.09l-.21.09h-.1l.21.19.1-.19h-.31l.21.19,0,0,0-.05-.34-.17.25.28.09-.11-.34-.17.25.28-.23-.26.21.27h0l-.23-.26.21.27h0l-.18-.23,0,.31a.46.46,0,0,0,.22-.08l-.18-.23,0,.31,0-.21-.1.2H457l0-.21-.1.2h0a.79.79,0,0,1,.14.12,11.42,11.42,0,0,0,.88.84,1.79,1.79,0,0,0,.67.37,1,1,0,0,0,.77-.07h0l.25-.18a7.48,7.48,0,0,0,.66-.6q3.62-3.6,7.19-7.2a12.53,12.53,0,0,0,.95-1,2.65,2.65,0,0,0,.28-.39,1,1,0,0,0,.17-.38h0a.81.81,0,0,0-.09-.5,2.41,2.41,0,0,0-.28-.43,7.46,7.46,0,0,0-.58-.64l-.32.31.32-.3,0,0,0,0-.18.1h.19v-.1l-.18.1h-.08l.18.18.09-.18h-.27l.18.18,0,0,0,0-.27-.19.22.24.05-.05-.27-.19.22.24-.16-.17.15.18h0l-.16-.17.15.18-.16-.19v.26l.15-.07-.16-.19v0l-.09.24h.1v-.24l-.09.24.05-.14-.08.13h0l.05-.14-.08.13h0l.07.06h0l.4.39c.93.92,1.88,1.82,2.86,2.68l.12.13.34-.27-.38-.13c-1.77,3.67-3.07,6.83-4,9.39l-.39,1,1-.6q4.44-2.73,8.62-5.75l-.23-.31-.28.33.36.27c.75.54,1.51,1.07,2.29,1.59h0l.28.19.49.32h0l.83.52a.37.37,0,0,1,.14.11l.06,0-.06,0h0l.06,0-.06,0,.23-.13-.25,0,0,.11.23-.13-.25,0,.31,0-.25-.14-.06.17.31,0-.25-.14.34.2-.33-.21.15.1-.11-.14,0,0,.15.1-.11-.14.16.2.08-.27-.24.07.16.2.08-.27-.05.14.09-.13h0l-.05.14.09-.13h-.05l-.41-.26-.26.35.28-.34a4.17,4.17,0,0,0-.7-.41,1.45,1.45,0,0,0-.63-.17,1.21,1.21,0,0,0-.74.28,2.35,2.35,0,0,0-.4.43l.34.2-.33-.2-.44.6-3.12,4.31-3.48,4.77a1.73,1.73,0,0,0-.34.73.84.84,0,0,0,.17.69l0,.05h0a5.53,5.53,0,0,0,1.2.9Zm-44.81-44.32.35-.28a1.51,1.51,0,0,1-.34-.74h0a4.51,4.51,0,0,1,.08-.65c.06-.33.16-.77.29-1.31h0c.56-2.44,1.07-4.25,1.42-5.5l-.4-.06.4.06c.53-1.8.91-2.88,1.06-3.26l-.39-.1-.13.41c2.19.37,4.21.66,6.06.92l.11-.41-.12.41a1.7,1.7,0,0,1,.66.2l.14.12a5.55,5.55,0,0,1,.46.58l.1.12a.69.69,0,0,0,.35.19.63.63,0,0,0,.49-.12h0l0,0h0a.69.69,0,0,0,.2-.52.79.79,0,0,0-.16-.37c-.41-.57-.82-1.14-1.21-1.72h0l-.18-.27-.12-.17-.34.28.36-.26-.5-.75-.36.26.37-.25a1.46,1.46,0,0,0-.22-.3.69.69,0,0,0-.29-.18.56.56,0,0,0-.49.09l.2.33-.19-.34-.11.08a.66.66,0,0,0-.19.51.77.77,0,0,0,.13.36c.16.24.28.44.37.58a3.1,3.1,0,0,1,.16.28h0l.21-.07-.2,0v.09l.21-.07-.2,0,.27,0-.18-.19-.09.16.27,0-.18-.19.15.16-.14-.17h0l.15.16-.14-.17h0l.24.3-.2-.33,0,.08,0-.09h0l0,.08,0-.09a2.18,2.18,0,0,1-.65.06,12.85,12.85,0,0,1-1.58-.14c-1.61-.23-2.87-.46-3.79-.67a17,17,0,0,1-1.7-.44l-.19.39.18.35,4.78-2.93h0a1.84,1.84,0,0,1,.36-.19h.05v-.17l-.08.15.08,0v-.17l-.08.15.08-.15-.1.14h0l.08-.15-.1.14h0l0,0a4.92,4.92,0,0,1,.44.6h0a2.61,2.61,0,0,0,.23.3.67.67,0,0,0,.23.16l.21,0a.51.51,0,0,0,.28-.09h0l.11-.09a.64.64,0,0,0,.2-.47.68.68,0,0,0-.1-.34l-.25-.43c-.15-.24-.29-.48-.42-.73h0c-.23-.36-.46-.72-.68-1.09l-.36.25.37-.23-.19-.36-.08-.15,0,0v0l-.05,0,.05,0h0l-.05,0,.05,0h0c-.37-.74-.72-1.5-1.07-2.26h0a.91.91,0,0,0-.16-.24.5.5,0,0,0-.28-.15.58.58,0,0,0-.4.07l.17.36-.15-.37-.15.11a.62.62,0,0,0-.18.35,1,1,0,0,0,0,.39c0,.12.09.24.15.38a3.92,3.92,0,0,1,.21.48l0,.15v0h0l.41,0h-.26l-.13-.06,0,.06h.15l-.13-.06.08,0-.07,0h0l.08,0-.07,0h0l-.07,0,.17.35-.16-.36q-5.33,3-10.66,5.93a2.22,2.22,0,0,1-.47.22l-.1,0h0v.1l0-.1h0v.1l0-.1,0,.1.06-.09h0l0,.1.06-.09,0,0a2.68,2.68,0,0,1-.39-.62,3.67,3.67,0,0,0-.42-.65.77.77,0,0,0-.22-.15.56.56,0,0,0-.45,0l.16.36-.14-.36-.16.11a.56.56,0,0,0-.17.28.7.7,0,0,0,0,.35,1.36,1.36,0,0,0,.11.28c0,.1.09.2.14.3.16.34.32.66.47,1l.35.68c.5,1,1,1.91,1.52,2.81l.78,1.35a1.35,1.35,0,0,0,.2.27.56.56,0,0,0,.28.17.52.52,0,0,0,.46-.07h0l.08-.07a.58.58,0,0,0,.18-.37.81.81,0,0,0,0-.39,3.73,3.73,0,0,0-.17-.37l-.38.24.38-.24a5,5,0,0,1-.33-.7c0-.09-.05-.16-.06-.2v0l-.13,0h.13v0l-.13,0h.12l-.18,0,.17.06v0l-.18,0,.17.06-.07,0,.06,0h0l-.07,0,.06,0,.05-.05a3.28,3.28,0,0,1,.62-.44l4.59-2.79-.18-.35-.39-.1a4.7,4.7,0,0,0-.19.67l.41,0-.39-.11q-1,2.61-1.89,5.31c-.22.66-.38,1.17-.49,1.51,0,.17-.1.3-.13.39l0,.08h0l.28.11-.2-.22c-.09.09-.08.1-.08.11l.28.11-.2-.22.27.28-.2-.33.12.2.09-.25-.21.05.12.2.09-.25-.05.15.09-.13,0,0-.05.15.09-.13v0l-.07-.09h0l-.33-.48a3.16,3.16,0,0,0-.2-.26h0a.47.47,0,0,0-.33-.16.65.65,0,0,0-.4.11l.2.34-.19-.34-.1.07a.64.64,0,0,0-.18.37.74.74,0,0,0,.06.38,1.61,1.61,0,0,0,.18.34c.2.31.4.62.61.93l.77,1.14h0c.16.21.45.63.86,1.23h0c.58.81,1,1.43,1.36,1.84a4.3,4.3,0,0,0,.35.42,1.52,1.52,0,0,0,.32.26.62.62,0,0,0,.24.07.54.54,0,0,0,.37-.12h0l0,0a.53.53,0,0,0,.16-.26.65.65,0,0,0,0-.32,2.45,2.45,0,0,0-.42-.69l-.35.28-.34.28a2.07,2.07,0,0,1,.28.42l0,0h0l.25-.08h-.24v.09l.25-.08h-.24l.34,0L427,534a.31.31,0,0,0-.12.21l.34,0L427,534l.26.28-.22-.32.18.25.07-.33a.36.36,0,0,0-.25.08l.18.25.07-.33-.05.2.11-.19h-.06l-.05.2.11-.19h0a.76.76,0,0,1-.15-.13,3.51,3.51,0,0,1-.3-.36c-.31-.41-.77-1-1.35-1.82l-.35.27.36-.27c-.42-.6-.71-1-.89-1.26l-.34.29.35-.27-.77-1.14-.6-.92a1.18,1.18,0,0,1-.13-.25h0l-.16.06h.16V528l-.16.06h.16l-.31,0,.2.2a.46.46,0,0,0,.11-.18l-.31,0,.2.2-.21-.22.15.27.06-.05-.21-.22.15.27h0l-.13-.21-.05.26.18-.05-.13-.21-.05.26.05-.22-.18.17.13.05.05-.22-.18.17.32-.31-.33.3a1.77,1.77,0,0,1,.15.2c.08.11.2.27.33.47l.36-.27-.36.27a1.3,1.3,0,0,0,.15.18.61.61,0,0,0,.31.19.59.59,0,0,0,.49-.1l0,0,0,0,.1-.13a1.82,1.82,0,0,0,.11-.28c.12-.32.31-.94.61-1.87.58-1.78,1.2-3.53,1.88-5.25v-.07a5.45,5.45,0,0,1,.14-.54l.4-1-1,.58L422,523.39a4.62,4.62,0,0,0-.81.58,1,1,0,0,0-.3.46h0a.78.78,0,0,0,0,.34,4.21,4.21,0,0,0,.46,1.11h0a1.58,1.58,0,0,1,.14.32v0l.18,0-.17,0v.06l.18,0-.17,0,.3,0-.2-.2a.31.31,0,0,0-.1.17l.3,0-.2-.2.2.2-.15-.24-.05,0,.2.2-.15-.24.2.33-.18-.34.13.23.11-.28a.29.29,0,0,0-.24.05l.13.23.11-.28-.06.15.1-.13,0,0-.06.15.1-.13h0a.61.61,0,0,1-.1-.15c-.27-.44-.52-.88-.78-1.33-.51-.9-1-1.83-1.51-2.79-.07-.14-.18-.37-.34-.67s-.31-.62-.47-1c-.05-.09-.09-.19-.14-.29a.58.58,0,0,1-.05-.13l-.17,0,.16,0v-.06l-.17,0,.16,0-.28,0,.19.19.09-.15-.28,0,.19.19-.19-.19.1.25.09-.06-.19-.19.1.25h0l-.13-.28-.16.31a.35.35,0,0,0,.29,0l-.13-.28-.16.31.08-.15-.11.13,0,0,.08-.15-.11.13h0a2.33,2.33,0,0,1,.3.5,3.93,3.93,0,0,0,.51.77.83.83,0,0,0,.3.2.94.94,0,0,0,.6,0,3.54,3.54,0,0,0,.65-.29L431,515.1h0a1.17,1.17,0,0,0,.27-.2.87.87,0,0,0,.26-.48h0v0a1.4,1.4,0,0,0-.08-.49c-.06-.16-.14-.35-.24-.56a1.33,1.33,0,0,1-.12-.31v0l-.17,0,.16,0v0l-.17,0,.16,0-.29,0,.19.2.1-.16-.29,0,.19.2-.2-.22.11.28.09-.06-.2-.22.11.28h0l-.11-.24-.09.28.2,0-.11-.24-.09.28.06-.2-.16.15.1,0,.06-.2-.16.15h0l0,0,.39-.22-.39.21q.53,1.16,1.08,2.28l.38-.22-.38.21.05.1.07.14.2.37h0c.22.37.45.74.68,1.1l.36-.26-.37.24c.14.25.28.5.43.74l.25.43v0l.18-.09h-.18v.09l.18-.09h.09l-.18-.19-.09.18h.27l-.18-.19.13.13-.09-.15,0,0,.13.13-.09-.15.2.33-.2-.34.16.28,0-.34-.2.06.16.28,0-.34,0,.26.16-.23-.13,0,0,.26.16-.23h0l0,0a1.67,1.67,0,0,1-.15-.2h0a5.27,5.27,0,0,0-.52-.7A.86.86,0,0,0,433,517a.72.72,0,0,0-.56,0,2.6,2.6,0,0,0-.55.28h0l-4.78,2.92-.75.46.73.28a14.12,14.12,0,0,0,1.8.48c.94.2,2.23.44,3.86.68a13.36,13.36,0,0,0,1.77.14,3.37,3.37,0,0,0,.58,0,1.22,1.22,0,0,0,.49-.18h0l0,0,.05,0a.61.61,0,0,0,.19-.41.63.63,0,0,0-.06-.32h0a2.37,2.37,0,0,0-.2-.35c-.09-.16-.22-.35-.38-.6l0,0h0l-.19.08h.19v-.09l-.19.08h.19l-.28,0,.18.19.1-.17-.28,0,.18.19-.17-.17.12.21,0,0-.17-.17.12.21h0l-.14-.22-.11.27a.35.35,0,0,0,.25,0l-.14-.22-.11.27.05-.14-.09.12,0,0,.05-.14-.09.12,0,0a1.12,1.12,0,0,1,.12.17h0l.5.77h0l.07-.06-.07.06h0l.07-.06-.07.06.09.13.19.28.35-.27-.36.27q.6.87,1.23,1.74l0,0h0l.19-.08H437v.09l.19-.08h.07l-.17-.18-.09.17h.26l-.17-.18h0l.2.21-.17-.23,0,0,.2.21-.17-.23.23.31-.22-.33.13.19.08-.24-.21,0,.13.19.08-.24-.06.16.1-.14,0,0-.06.16.1-.14h0l0,0a8.32,8.32,0,0,0-.53-.66,2.53,2.53,0,0,0-.26-.22,2.42,2.42,0,0,0-.94-.3h0c-1.84-.26-3.85-.56-6-.92l-.36-.07-.15.38c-.16.42-.55,1.51-1.08,3.34h0c-.35,1.26-.86,3.09-1.42,5.54l.4,0-.4,0c-.14.55-.23,1-.3,1.36a5.29,5.29,0,0,0-.09.81h0a2,2,0,0,0,.48,1.16Zm-5.05-17.29.39-.21-.1-.13a.63.63,0,0,0-.5-.18,3.26,3.26,0,0,0-.57.07l0,.41,0-.41c-1.83.39-3.14.09-4-.83a4.11,4.11,0,0,1-.86-1.4,3.15,3.15,0,0,1,0-2.5h0a5.14,5.14,0,0,1,1.12-1.58,10,10,0,0,1,3.39-2,12.69,12.69,0,0,1,4.31-.94h0a3.57,3.57,0,0,1,2.76.83,2.51,2.51,0,0,1,.53.85,2.79,2.79,0,0,1,.09,1.86,4.59,4.59,0,0,1-1.27,1.89c-.22.21-.47.42-.75.64s-.28.24-.39.34a1.49,1.49,0,0,0-.28.34l-.1.22a.51.51,0,0,0,0,.32h0l.1.15a.58.58,0,0,0,.45.16,1.4,1.4,0,0,0,.41-.13l.42-.21.88-.45h0l.52-.29.21-.11h0a9.91,9.91,0,0,1,1.56-.66h0l.19-.08h.05a.73.73,0,0,0,.2-.14.59.59,0,0,0,.16-.27.52.52,0,0,0,0-.31h0l-.08-.11a.61.61,0,0,0-.25-.15l-.29-.1h0a.87.87,0,0,1-.36-.2.45.45,0,0,1-.11-.17h0a2,2,0,0,1,0-.81l-.42,0h.42a5.76,5.76,0,0,0-.36-2.74,7.72,7.72,0,0,0-1.65-2.68,7.6,7.6,0,0,0-2.14-1.52,7.86,7.86,0,0,0-10.77,4.21,8.72,8.72,0,0,0-.1,6.49,6.09,6.09,0,0,0,1.35,2.14,6.6,6.6,0,0,0,1.53,1.17l.25-.37-.42.08a2.42,2.42,0,0,1-.37,1.27,1.12,1.12,0,0,0-.12.32.59.59,0,0,0,0,.39l.09.13a.52.52,0,0,0,.39.13.76.76,0,0,0,.31-.1l-.14-.36.14.37a3.13,3.13,0,0,0,.37-.23l-.2-.33.17.35.91-.49c.28-.14.71-.32,1.28-.54h0l.89-.35.25-.1.15-.07-.16-.36.13.37.32-.14-.12-.38.12.38a.88.88,0,0,0,.28-.18.7.7,0,0,0,.2-.39.55.55,0,0,0-.05-.33h0l-.39.21-.39.21.06,0-.06,0h0l.06,0-.06,0,.22-.07-.21,0v.11l.22-.07-.21,0,.25,0-.17-.17-.08.12.25,0-.17-.17.1.1-.07-.13,0,0,.1.1-.07-.13h0l-.33.15h0l.05.12,0-.13h0l.05.12,0-.13-.36.15-.84.33.11.38-.11-.38c-.58.22-1,.42-1.36.58s-.71.37-1,.52h0a1.38,1.38,0,0,1-.24.14h0l0,.17,0-.18h-.07l0,.17,0-.18-.06.3.23-.22-.17-.08-.06.3.23-.22-.23.21.27-.15,0-.06-.23.21.27-.15-.17.1h.19l0-.11-.17.1h.19v0l0-.06a3.22,3.22,0,0,0,.47-1.74v-.19l-.16-.1a5.61,5.61,0,0,1-2.58-3,7.92,7.92,0,0,1,.08-5.9,6.77,6.77,0,0,1,1.57-2.4,6.7,6.7,0,0,1,2.64-1.55,7,7,0,0,1,7.29,1.67,7,7,0,0,1,1.5,2.44,4.82,4.82,0,0,1,.31,2.37h0a2.51,2.51,0,0,0,.07,1.2l.39-.21-.39.21a1.39,1.39,0,0,0,.25.38,1.62,1.62,0,0,0,.65.38h0l.24.08,0,0,.12-.18-.16.15,0,0,.12-.18-.16.15.28-.27-.34.18.06.09.28-.27-.34.18h0l.32-.17-.33,0v.21l.32-.17-.33,0,.32,0-.21-.22-.11.18.32,0-.21-.22.11.12-.06-.16-.05,0,.11.12-.06-.16.14.37-.1-.39-.17.07.1.38-.08-.39a10.6,10.6,0,0,0-1.71.72l.15.37-.13-.37-.27.13-.53.29.17.36-.15-.36-.89.45-.41.21-.06,0h0v.19l.14-.14-.14,0v.19l.14-.14-.14.14.17-.1,0,0-.14.14.17-.1h0l-.29.16.31,0,0-.19-.29.16.31,0-.19,0,.17.07,0,0-.19,0,.17.07h0a.74.74,0,0,1,.12-.13,2.59,2.59,0,0,1,.32-.27c.3-.24.57-.48.82-.72a5.62,5.62,0,0,0,1.53-2.3,3.57,3.57,0,0,0-.11-2.39,3.13,3.13,0,0,0-.67-1.08,4.28,4.28,0,0,0-3.31-1h0a13.53,13.53,0,0,0-4.61,1,10.87,10.87,0,0,0-3.72,2.22,5.91,5.91,0,0,0-1.35,1.9h0a4,4,0,0,0,0,3.14,4.85,4.85,0,0,0,1,1.63c1.09,1.13,2.74,1.46,4.74,1h0a1.7,1.7,0,0,1,.37,0h0l.07-.17-.13.13.06,0,.07-.17-.13.13.2-.19-.24.13,0,.06.2-.19-.24.13h0ZM426.37,500l.41-.13c0-.14-.08-.39-.18-.8s-.22-1-.37-1.67c0-.13-.06-.29-.1-.48l-.41.14.41-.13c0-.2-.07-.34-.08-.42l-.09-.46h0a1,1,0,0,0-.21-.48.54.54,0,0,0-.21-.13.48.48,0,0,0-.29,0l.06.4-.05-.4a.56.56,0,0,0-.27.15.61.61,0,0,0-.18.36,1,1,0,0,0,0,.29h0c.05.31.09.61.14.92h0a2.31,2.31,0,0,1,0,.4v.1h.07l-.07,0h.07l-.07,0h0l.13,0-.09-.09,0,.05.13,0-.09-.09h0a1.11,1.11,0,0,1-.29.12h0l-8,2.29.06.4.33.2a89.63,89.63,0,0,1,7.85-10l.16-.17,0-.21c-.11-.64-.21-1.5-.29-2.57,0-.51-.05-.91-.05-1.16v-1h0a.76.76,0,0,0-.17-.48.55.55,0,0,0-.46-.14v.41l0-.42a.7.7,0,0,0-.38.18.8.8,0,0,0-.2.35,1.17,1.17,0,0,0,0,.32h0a4,4,0,0,1-.2,1.66l.37.14-.37-.15a1.17,1.17,0,0,1-.24.33,1.7,1.7,0,0,1-.72.4h0a2.2,2.2,0,0,1-.45.1l-1,.17-8.42,1.26a9.42,9.42,0,0,1-1,.12h-.29l-.07.18.12-.16-.05,0-.07.18.12-.16-.25.36.26-.35-.07.09.08-.08h0l-.07.09.08-.08,0-.08a4.71,4.71,0,0,1-.25-1.17h0a7.77,7.77,0,0,0-.11-.8,1.76,1.76,0,0,0-.07-.27.64.64,0,0,0-.14-.25l-.12-.08a.42.42,0,0,0-.26,0l0,.41,0-.42a.63.63,0,0,0-.36.17.69.69,0,0,0-.2.39,1,1,0,0,0,0,.35l.83-.16h0l-.36.06.36,0v0l-.36.06.36,0-.41.05.41,0v0l-.41.05.41,0-.41,0,.4,0V488l-.41,0,.4,0-.4,0,.38.11,0-.07-.4,0,.38.11-.38-.11.26.27a.52.52,0,0,0,.12-.16l-.38-.11.26.27a.41.41,0,0,0,.15-.27.3.3,0,0,0,0-.16l0-.08-.37.24-.32.31.32-.31-.39.2a.25.25,0,0,0,.07.11l.32-.31-.39.2.38-.2-.41.12,0,.08.38-.2-.41.12L410,488l-.31.07v0L410,488l-.31.07s0,.25,0,.63q.14,1.49.21,2.4h0l.15,1.95.41-.09-.41.05a2.29,2.29,0,0,0,0,.44h0a.89.89,0,0,0,.2.53.49.49,0,0,0,.43.14h.08l.15-.08.1-.06.07-.09a.75.75,0,0,0,.12-.32,4.29,4.29,0,0,0,0-1,4.06,4.06,0,0,1,0-1.18v0h0l0,0v0h0l0,0v0h0v0l.11,0,6.38-1v0l.7-.11h0l1.35-.21,1.52-.25v-.41l-.29-.26a72.64,72.64,0,0,0-6.85,8.6c-.93,1.38-1.6,2.46-2,3.23-.22.38-.38.69-.49.92a2.27,2.27,0,0,0-.13.3l0,.14a.48.48,0,0,0,0,.21h0a.43.43,0,0,0,.12.23.5.5,0,0,0,.38.15.85.85,0,0,0,.35-.05h0l3.42-1,6.09-1.79,2.33-.69h0l.88-.26.22,0h0l0-.25-.11.24h.08l0-.25-.11.24h.07l.05-.18-.11.17h.06l.05-.18-.11.17,0-.06-.05.05h0l0-.06-.05.05a1,1,0,0,1,.14.34c.09.31.16.56.22.74s.09.29.12.37l.39-.2-.39.2a.67.67,0,0,0,.12.19.51.51,0,0,0,.22.13.66.66,0,0,0,.28,0h0a.58.58,0,0,0,.24-.15.65.65,0,0,0,.2-.43,1.37,1.37,0,0,0,0-.35l-.41.13-.41.13v.12h.14l-.13,0v0h.14l-.13,0,.26.07-.18-.18-.08.11.26.07-.18-.18.19.2-.06-.28-.13.08.19.2-.06-.28.09.39-.07-.4.05.3.11-.3h-.16l.05.3.11-.3-.1.28.22-.22-.12-.06-.1.28.22-.22-.13.13.15-.1,0,0-.13.13.15-.1h0a3,3,0,0,1-.1-.3q-.09-.27-.21-.72a1.6,1.6,0,0,0-.31-.64.54.54,0,0,0-.36-.18l-.1.41.17-.4a.66.66,0,0,0-.31,0,9.19,9.19,0,0,0-1.24.34l.08.39-.07-.4-2.33.69-6.09,1.8-3.42,1h0l-.07,0h0l0,.12.05-.11h0l0,.12.05-.11-.1.24.19-.19-.09-.05-.1.24.19-.19-.2.2.26-.09-.06-.11-.2.2.26-.09h0l-.29.1.29,0a.36.36,0,0,0,0-.12l-.29.1.29,0h0a2.41,2.41,0,0,1,.19-.42,40.43,40.43,0,0,1,2.36-3.84,70.86,70.86,0,0,1,6.76-8.47l.78-.84-1.08.17-1.52.24-1.35.22h0l-.69.11h0l-6.38,1a1.08,1.08,0,0,0-.62.29.93.93,0,0,0-.28.52,4.72,4.72,0,0,0-.05,1.42c0,.28.05.5.05.64v.14h0l.26,0-.2-.13c-.06.08-.06.11-.06.11l.26,0-.2-.13.32.21-.15-.36-.08,0,.15.37v-.14l.22-.21-.23-.06v.27l.22-.21-.12.11.14-.08,0,0-.12.11.14-.08h0l0-.13h0a2.19,2.19,0,0,1,0-.33v0c-.08-1-.12-1.68-.14-2h0c-.06-.62-.13-1.41-.21-2.4,0-.22,0-.37,0-.48v-.24l0,0a.22.22,0,0,0-.06-.1.41.41,0,0,0-.55,0,.45.45,0,0,0-.15.55l.38-.23-.4.19,0,0,.38-.23-.4.19.39-.19-.41.11,0,.08.39-.19-.41.11.42-.11h-.42v.12l.42-.11h0l-.27-.28a.53.53,0,0,0-.15.27h.42l-.27-.28a.68.68,0,0,0-.12.16l0,.11v.1l.83-.16v-.14h0l-.23,0,.15.16a.44.44,0,0,0,.08-.12l-.23,0,.15.16-.2-.21V488a.37.37,0,0,0,.21-.1l-.2-.21V488h0l0-.38-.19.35.21,0,0-.38-.19.35.17-.31-.26.25.09.06.17-.31-.26.25.15-.14-.18.11,0,0,.15-.14-.18.11a.76.76,0,0,1,.07.26c0,.17.06.39.09.68h0a7.74,7.74,0,0,0,.18,1,1.59,1.59,0,0,0,.3.64l.1.08h0a.69.69,0,0,0,.32.08,7.37,7.37,0,0,0,1.42-.12l8.42-1.27,1-.17c.27-.05.44-.09.58-.13l-.08-.39.07.39a2.71,2.71,0,0,0,1.11-.63,2.12,2.12,0,0,0,.44-.59h0a4.94,4.94,0,0,0,.3-2.08l-.42.07.42-.05v-.11h-.1l.09,0v0h-.1l.09,0-.22-.09.16.17.06-.08-.22-.09.16.17-.18-.19v.28a.32.32,0,0,0,.19-.09l-.18-.19v.28h0v-.24l-.18.18.18.06v-.24l-.18.18.1-.1-.13.06,0,0,.1-.1-.13.06v.05h0v.94c0,.28,0,.69.06,1.21a23.86,23.86,0,0,0,.3,2.65l.41-.12-.29-.26a90.21,90.21,0,0,0-7.94,10.14l-.59.88,1-.28,8-2.29h0a1.6,1.6,0,0,0,.71-.36.71.71,0,0,0,.18-.26l-.38-.12.38.13a1,1,0,0,0,.09-.48,3.61,3.61,0,0,0-.05-.53l-.41.12.41-.12c0-.3-.09-.6-.14-.91l-.41.11.41-.1v0h-.13l.12,0v0h-.13l.12,0-.27-.07.18.2.09-.13-.27-.07.18.2-.21-.22.05.31.16-.09-.21-.22.05.31h0l0-.29-.13.29h.17l0-.29-.13.29.11-.25-.2.2.09,0,.11-.25-.2.2.08-.09-.1.07,0,0,.08-.09-.1.07s0,.05,0,.14h0c0,.16.06.31.1.47s0,.22.08.42h0c0,.18.07.34.1.48.15.71.28,1.27.37,1.68s.16.67.18.77Zm-11.1-22.3.42,0c0-.47.06-.95.1-1.42h0c0-.17,0-.35,0-.55h0c0-.23,0-.42.06-.56h-.42l-.23.37c.45.24,1.23.62,2.36,1.12s1.78.79,2.33,1.08l.23-.38-.12-.38-.37.16.12.38-.11-.38-.81.33h0l-3.42,1.5h0l-.38.18.11.38.42,0c0-.81.08-1.41.1-1.8h0l-.42,0-.42,0c0,.4-.06,1-.1,1.82l0,.58.56-.24.41-.19-.13-.37.13.37,3.43-1.5-.13-.38.11.38.81-.32h0l.37-.16.86-.38-.75-.38c-.58-.29-1.37-.65-2.37-1.09s-1.88-.87-2.32-1.09l-.57-.31-.08.69c0,.17,0,.36-.05.57h0c0,.21,0,.4-.05.58h0c0,.48-.08,1-.11,1.44h0Zm-4.73,10,.42-.08a9.15,9.15,0,0,1,0-1,1.81,1.81,0,0,1,.06-.44h0a.79.79,0,0,1,.18-.25,3.82,3.82,0,0,1,.73-.51l2.17-1.21h0a101.15,101.15,0,0,1,9.63-4.74l-.12-.38.11.38c.27-.1.48-.2.66-.28a1.83,1.83,0,0,0,.44-.28.61.61,0,0,0,.18-.37h0a.4.4,0,0,0-.13-.34,1,1,0,0,0-.32-.21,3.16,3.16,0,0,0-.46-.18l-.18.4.19-.4c-.62-.23-1.08-.41-1.35-.54h0c-2.2-.92-4.38-1.92-6.54-3-1.27-.65-2.21-1.18-2.84-1.55h0a6.85,6.85,0,0,1-1.45-.93l0,0h0a1.11,1.11,0,0,1-.08-.34,5,5,0,0,1,0-.82h0a5.57,5.57,0,0,0,0-.64l0-.23a.42.42,0,0,0-.12-.27.38.38,0,0,0-.29-.12l-.06.41.1-.41a.64.64,0,0,0-.5.19.93.93,0,0,0-.27.59h0q0,.21-.06.36h0c-.22,1.52-.41,3-.56,4.54a2.54,2.54,0,0,0,0,.39.68.68,0,0,0,.15.37.52.52,0,0,0,.32.14h0a.62.62,0,0,0,.42-.18.8.8,0,0,0,.2-.31c0-.1.05-.2.07-.3.06-.4.11-.71.14-.93l.05-.25v-.09h0l.07-.19,0-.05-.06-.06,0,.07h0l-.06-.06,0,.07,0-.07v.08h0l0-.07v.08a1.06,1.06,0,0,1,.32.12l1.26.65.23-.38-.23.38c.9.47,1.49.79,1.72.94L415,475l-.42,0q-.08,1.22-.18,2.28h0q-.07,1-.12,2c0,.15,0,.31,0,.46l.42,0-.13-.37c-.82.36-1.38.61-1.66.71h0l-1.36.6-.59.26-.14.06h0l0,.26,0-.26h-.06l0,.26,0-.26h0l0,.23.18-.18-.15-.05,0,.23.18-.18-.08.09.1-.06,0,0-.08.09.1-.06,0,0v-.17a3,3,0,0,1,0-.48h0c0-.46,0-.82,0-1.09a3.13,3.13,0,0,0-.05-.36.66.66,0,0,0-.15-.32.44.44,0,0,0-.33-.12l0,.41.05-.42a.64.64,0,0,0-.41.18,1,1,0,0,0-.24.48,2.62,2.62,0,0,0-.07.53c0,.34,0,.95,0,1.85,0,.44,0,1,0,1.55s0,1.4,0,2.72c0,.65,0,1.05,0,1.21h0c0,.28,0,.5,0,.68a3,3,0,0,0,0,.4h0a.77.77,0,0,0,.15.3.56.56,0,0,0,.46.15h0a.64.64,0,0,0,.38-.18.68.68,0,0,0,.19-.35,1.05,1.05,0,0,0,0-.3h0l-.42.08-.42.08v.05h.21l-.13-.14a.27.27,0,0,0-.08.13h.21l-.13-.14.17.18v-.27l-.18.09.17.18v-.05l.16-.16-.16-.06v.22l.16-.16-.13.13.16-.09,0,0-.13.13.16-.09-.06,0,.06,0h0l-.06,0,.06,0h0s0-.14,0-.3,0-.37,0-.64h0c0-.12,0-.52,0-1.17,0-1.31,0-2.21,0-2.71s0-1.11,0-1.56c0-.89,0-1.49,0-1.81a2.44,2.44,0,0,1,0-.38l0-.06-.16-.05.11.12.05-.07-.16-.05.11.12-.2-.21,0,.31.24-.1-.2-.21,0,.31h0l0-.35-.27.26a.32.32,0,0,0,.24.09l0-.35-.27.26.15-.14-.19.09,0,.05.15-.14-.19.09a1.28,1.28,0,0,1,.05.37c0,.23,0,.54,0,.92h0a3.18,3.18,0,0,0,0,.65l.41-.13-.42.08a.93.93,0,0,0,.21.59.53.53,0,0,0,.41.16l0-.42-.06.42a.72.72,0,0,0,.23-.05c.18-.06.43-.17.83-.35l1.34-.6-.12-.37.1.38c.33-.12.89-.37,1.72-.73l.28-.12v-.3c0-.15,0-.3,0-.46,0-.66.08-1.32.13-2l-.42,0,.42,0c.06-.72.12-1.49.18-2.3v-.22l-.17-.11c-.29-.18-.87-.49-1.78-1h0l-1.26-.65a1.54,1.54,0,0,0-.63-.2.8.8,0,0,0-.62.25,1.38,1.38,0,0,0-.37.68l.4.06-.4-.06,0,.17c0,.22-.11.62-.2,1.22l0,.13h0l.18.06-.12-.13-.06.07.18.06-.12-.13.19.21.05-.31-.24.1.19.21.05-.31-.06.42.08-.42-.06.29.22-.21-.16-.08-.06.29.22-.21-.15.15.19-.09,0-.06-.15.15.19-.09h0a1,1,0,0,1,0-.23c.14-1.5.33-3,.55-4.51h0c0-.12,0-.24.05-.36h0l0-.09h0l-.15-.06.1.11,0-.05-.15-.06.1.11-.16-.17-.06.26a.32.32,0,0,0,.22-.09l-.16-.17-.06.26h0l0-.38-.29.29a.32.32,0,0,0,.24.09l0-.38-.29.29.23-.23L411,470l.06.09.23-.23L411,470l.1,0-.1,0h0l.1,0-.1,0a3.59,3.59,0,0,1,0,.66l.42,0H411a5.65,5.65,0,0,0,0,1,1.4,1.4,0,0,0,.2.7h0l.09.11a7.67,7.67,0,0,0,1.61,1.06l.24-.38-.25.37c.65.38,1.6.91,2.88,1.57,2.17,1.12,4.37,2.13,6.59,3.06l.21-.39-.22.38c.31.14.77.33,1.41.57h0l.39.15.1.06h0l0-.06-.06.06h0l0-.06-.06.06.24-.23-.3,0a.34.34,0,0,0,.06.21l.24-.23-.3,0,.42,0-.42,0,.32,0-.21-.22a.37.37,0,0,0-.11.25l.32,0-.21-.22.08.08-.07-.09h0l.08.08-.07-.09-.06,0a5.78,5.78,0,0,1-.73.33h0a102.53,102.53,0,0,0-9.72,4.79h0l-2.17,1.21a4.3,4.3,0,0,0-.94.67,1.66,1.66,0,0,0-.41.58l.38.11-.38-.12a2.27,2.27,0,0,0-.14.74,10.68,10.68,0,0,0,0,1.1l.42-.08-.42.08ZM421,463.54l.37-.24a3.63,3.63,0,0,1,0-2.72l-.4-.06-.14.4,3.27.72c.63.13,1.11.24,1.45.34l.4.12.11,0h0l0,0a.28.28,0,0,1,.07.19,1.37,1.37,0,0,1,0,.45,2.46,2.46,0,0,1-.63,1.2,1.5,1.5,0,0,1-.78.41,3.13,3.13,0,0,1-1.23,0,3.3,3.3,0,0,1-1.88-.82,1.85,1.85,0,0,1-.25-.32l-.37.24-.37.24a2.24,2.24,0,0,0,.35.46,3.93,3.93,0,0,0,2.27,1,4.06,4.06,0,0,0,1.56,0,2.54,2.54,0,0,0,1.24-.66,3.48,3.48,0,0,0,.9-1.66,2.18,2.18,0,0,0,.08-.75,1,1,0,0,0-.27-.61l-.12-.1h0a1.28,1.28,0,0,0-.31-.15,17.16,17.16,0,0,0-1.94-.49l-3.28-.71-.42-.09-.12.43a4.35,4.35,0,0,0,.06,3.33Zm-8.23,5.82h.41a1.89,1.89,0,0,0,0-.58.85.85,0,0,0-.22-.49.86.86,0,0,0-.52-.23h0a.9.9,0,0,0-.72.26,1.55,1.55,0,0,0-.19.24h0l-.08.11,0,0,.14.14-.08-.18-.06,0,.14.14-.08-.18.13.3.07-.35a.38.38,0,0,0-.2.05l.13.3.07-.35-.08.42.1-.41-.07.29.22-.22-.15-.07-.07.29.22-.22-.18.17.23-.1-.05-.07-.18.17.23-.1-.07,0h.07v0l-.07,0h.07l0-.16a.86.86,0,0,1,.28-.49l.15-.13h0a1.54,1.54,0,0,1,.65-.21,8.1,8.1,0,0,1,1.46-.1,5.7,5.7,0,0,0,3.91-1.24h0l.14-.13a9.22,9.22,0,0,0,2.08-4l-.4-.07-.21.39.12.05.21-.39h-.42a12.91,12.91,0,0,0-.17,3.53h0a4.18,4.18,0,0,0,1,2.35,2.71,2.71,0,0,0,1.69.79,3.05,3.05,0,0,0,1.94-.45,5.42,5.42,0,0,0,.77-.59,5.14,5.14,0,0,0,.75-1h0a19.72,19.72,0,0,0,1.56-4.53c.12-.45.25-.9.38-1.35h0c.07-.26.15-.53.24-.84,0-.15.08-.27.11-.35l0-.1h0v0l.24-.77c.08-.27.17-.54.26-.83h0c.05-.14.09-.29.14-.43l.24-.75.13-.44a1.29,1.29,0,0,0,0-.28.52.52,0,0,0-.14-.29.4.4,0,0,0-.21-.12l-.16.4.17-.4a.5.5,0,0,0-.32,0,.61.61,0,0,0-.26.16,1.57,1.57,0,0,0-.34.62h0a4.1,4.1,0,0,1-.4.9l0,0h0l0,.05v-.06h0l0,.05v-.06l-.06.42.07-.42h0a2,2,0,0,1-.36-.07l-.76-.19-10-2.75-.5-.16-.12-.06h0l-.06.08.07-.07h0l-.06.08.07-.07-.32.31.33-.3,0,0,0,0h0l0,0,0,0s0-.08,0-.23a2.93,2.93,0,0,1,.13-.63l-.4-.06.4.06a8.47,8.47,0,0,0,.23-.89,1.76,1.76,0,0,0,0-.31A.52.52,0,0,0,416,452a.36.36,0,0,0-.21-.11l-.12.41.17-.4a.55.55,0,0,0-.31,0,.62.62,0,0,0-.25.15,1.16,1.16,0,0,0-.28.52l.39.08-.39-.09c-.15.44-.3.87-.44,1.31l.39.08-.39-.1c0,.08-.07.21-.13.41s-.16.47-.22.66c-.21.68-.42,1.36-.62,2-.09.31-.18.63-.28,1h0c-.05.15-.09.3-.13.45-.26.91-.5,1.82-.73,2.73a1.24,1.24,0,0,0,0,.33.5.5,0,0,0,.14.36.52.52,0,0,0,.24.13h0a.46.46,0,0,0,.28,0,.69.69,0,0,0,.22-.14,1,1,0,0,0,.23-.38,2.28,2.28,0,0,0,.14-.44,5.17,5.17,0,0,1,.46-1.31h0l.05-.07h0l0,0v0h0l0,0v0h0l.05,0h0l0-.19-.05.19h0l0-.19-.05.19.48.09,1.15.25,4.49,1,.14-.41-.4-.05a3.58,3.58,0,0,1-.82,1.67l-.17.14.22.32-.21-.32a3.74,3.74,0,0,1-2.14.46h0l-1.7,0h0a3.83,3.83,0,0,0-2.55,1.14l.26.29-.26-.29-.17.17a7.12,7.12,0,0,0-2,4,4.51,4.51,0,0,0-.07,1.29,1.61,1.61,0,0,0,.39.91,1.26,1.26,0,0,0,.8.36,1.19,1.19,0,0,0,.93-.31,1.56,1.56,0,0,0,.4-.85h-.83a.62.62,0,0,1-.11.31s0,0-.2,0a.54.54,0,0,1-.35-.15.91.91,0,0,1-.2-.51,4,4,0,0,1,.06-1,6.29,6.29,0,0,1,1.67-3.5l.15-.13h0a2.88,2.88,0,0,1,1.91-.9h0l1.71,0h0a4.48,4.48,0,0,0,2.68-.64h0a1.84,1.84,0,0,0,.27-.23,4.49,4.49,0,0,0,1.09-2.12l.09-.38-.36-.08-4.49-1c-.52-.12-.92-.21-1.21-.26l-.34-.07-.11,0h-.12l0,.42.15-.41a1,1,0,0,0-.45,0,1.12,1.12,0,0,0-.42.25,2.43,2.43,0,0,0-.2.25l.35.19-.34-.2a5.44,5.44,0,0,0-.58,1.6,2.48,2.48,0,0,1-.11.33l0,.06h0l.14.09-.11-.11,0,0,.14.09-.11-.11.18.19-.07-.27-.11.08.18.19-.07-.27.08.3.1-.32-.18,0,.08.3.1-.32-.13.41.15-.4-.1.26.21-.2-.11-.06-.1.26.21-.2-.16.15.22,0a.28.28,0,0,0-.06-.11l-.16.15.22,0v-.09q.34-1.35.72-2.7c.05-.15.09-.3.13-.45l-.4-.06.4.06.28-1c.2-.67.4-1.34.62-2l.21-.64c.07-.21.11-.35.12-.38h0c.14-.43.29-.86.43-1.29h0l.05-.13v0l-.12-.07.09.1,0,0-.12-.07.09.1-.19-.2.06.28.13-.08-.19-.2.06.28-.06-.31-.14.31h.2l-.06-.31-.14.31h.05l.11-.37-.28.28a.23.23,0,0,0,.17.09l.11-.37-.28.28.23-.23-.3.11a.17.17,0,0,0,.07.12l.23-.23-.3.11.16,0-.17,0v0l.16,0-.17,0h0a1.12,1.12,0,0,1-.05.31c0,.16-.1.39-.18.66h0a3.91,3.91,0,0,0-.17.89.94.94,0,0,0,.18.69h0a1.11,1.11,0,0,0,.38.22,4.35,4.35,0,0,0,.57.18q5,1.39,10,2.76l.83.21a4.31,4.31,0,0,0,.48.08h0a.94.94,0,0,0,.62-.28l.14-.15a4.51,4.51,0,0,0,.55-1.18h0a1.62,1.62,0,0,1,.08-.2l0,0h0l-.09-.07.08.08h0l-.09-.07.08.08-.17-.17,0,.24.12-.07-.17-.17,0,.24-.06-.28-.12.29h.18l-.06-.28-.12.29h0l.1-.25-.21.19.11.06.1-.25-.21.19.18-.17-.23.07.05.1.18-.17-.23.07.09,0h-.09v0l.09,0h-.09v0s-.05.16-.1.35l-.24.74c-.05.14-.1.28-.14.42h0c-.1.29-.18.57-.27.84l-.24.78.4.06-.38-.11,0,.05-.15.49L427,461h0c-.13.45-.25.91-.38,1.37a19.62,19.62,0,0,1-1.45,4.28h0a4.16,4.16,0,0,1-.59.75,3.68,3.68,0,0,1-.59.45,2.2,2.2,0,0,1-1.38.33,2,2,0,0,1-1.25-.59,3.47,3.47,0,0,1-.81-2h0a11.65,11.65,0,0,1,.17-3.28l0-.29-.36-.15-.45-.2-.16.52a8.27,8.27,0,0,1-1.82,3.54l-.11.1h0a4.78,4.78,0,0,1-3.28,1,10.47,10.47,0,0,0-1.61.1,2.54,2.54,0,0,0-1.08.41l.23.32-.22-.32-.25.21a1.91,1.91,0,0,0-.57,1,1.4,1.4,0,0,0,0,.35.57.57,0,0,0,.14.37.43.43,0,0,0,.29.13h0a.59.59,0,0,0,.29-.08l.15-.11a1.9,1.9,0,0,0,.26-.34h0l0-.06h0l0-.06v.07h0l0-.06v.07h0v0h0l.07,0,0,.1a.94.94,0,0,1,0,.32Zm13.16-14.25-.09.42a25.51,25.51,0,0,1,3.24.58l.42.09.12-.44c.14-.51.26-.89.35-1.12l-.39-.09.38.11c.22-.54.45-1.08.68-1.61h0c.4-1,.9-2.21,1.53-3.65h0q.63-1.44,1.53-3.36h0l.64-1.31c.15-.31.23-.46.26-.51l-.37-.13.36.14.24-.45h0a1.88,1.88,0,0,0,.18-.48.74.74,0,0,0,0-.26.52.52,0,0,0-.13-.27l-.13-.09-.22.38.23-.37a.47.47,0,0,0-.42,0,.71.71,0,0,0-.23.16,3.14,3.14,0,0,0-.46.65h0a4.22,4.22,0,0,1-.5.73l.06.07-.06-.07h0l.06.07-.06-.07-.05.06.31.24-.26-.29h0v0h0v0h-.05l-.17.4.23-.37q-5.19-2.61-10.36-5.26a1.1,1.1,0,0,1-.27-.18l0,0h0l0,0,0,0,0,0h0l0,0h0a.73.73,0,0,1,0-.35,4.73,4.73,0,0,1,.36-.9h0a7.63,7.63,0,0,0,.33-.75,1.59,1.59,0,0,0,.06-.3.48.48,0,0,0-.11-.4.85.85,0,0,0-.14-.09l-.2.39.24-.37a.51.51,0,0,0-.37,0,.66.66,0,0,0-.32.18,1.4,1.4,0,0,0-.25.35l.37.14-.36-.15c-.09.16-.16.31-.22.44l.38.12-.37-.14-1.36,2.79c-.74,1.48-1.37,2.81-1.91,4h0c-.28.58-.51,1.09-.69,1.51a2.32,2.32,0,0,0-.16.49,1,1,0,0,0,0,.25.46.46,0,0,0,.13.27l.14.1h0a.52.52,0,0,0,.35,0,.67.67,0,0,0,.25-.16,1.65,1.65,0,0,0,.35-.57c.21-.49.4-.88.55-1.17a2.13,2.13,0,0,1,.33-.49h0l-.09-.13.06.15,0,0-.09-.13.06.15h0l0-.09v.11l0,0,0-.09v.11h.1a3.68,3.68,0,0,1,1.05.34l4.44,2,.22-.38-.39-.12-1,2.29a3.58,3.58,0,0,1-.63,1.11l0,0,.26.28-.25-.29a1.18,1.18,0,0,1-.66.28,3,3,0,0,1-1.1-.1h0a1.5,1.5,0,0,0-.55-.06.9.9,0,0,0-.56.24.87.87,0,0,0-.2.31h0a.68.68,0,0,0-.05.35.57.57,0,0,0,.15.31.84.84,0,0,0,.31.19l.76.24c.27.07.86.27,1.74.59l1.23.43c.52.19.9.33,1.11.42l.19.09.05,0h0l.18-.3-.2.29h0l.18-.3-.2.29.25-.35-.31.3.06,0,.25-.35-.31.3.32-.31-.27-.28h0l.27.28-.05-.41a.53.53,0,0,0-.22.13l.27.28-.05-.41.05.41.08-.42h-.13l.05.41.08-.42-.08.38.14-.37h-.06l-.08.38.14-.37h0l-.35.8a.9.9,0,0,0,.34.05.64.64,0,0,0,.43-.19.77.77,0,0,0,.16-.24h0a.83.83,0,0,0,0-.38.62.62,0,0,0-.16-.3l-.17-.13h0a5.58,5.58,0,0,1-1.22-.89,1,1,0,0,1-.34-.55,2.5,2.5,0,0,1,.15-1,14,14,0,0,1,.74-2c.11-.25.23-.5.34-.76L426,446l-.21.38,5.63,2.46.21-.38-.39-.11c-.34.85-.64,1.59-.91,2.22a11.47,11.47,0,0,1-1.39,2.66,1.8,1.8,0,0,1-.19.2,3,3,0,0,1-2.2.84l0,.41.06-.41h-.69l-.17,0-.13,0-.09.1-.18.19-.07.07,0,.1a.61.61,0,0,0,0,.28.39.39,0,0,0,.13.29.46.46,0,0,0,.21.14h0l.26,0h.05l.09-.42.13-.41-.24,0-.13.41.18-.4-.09.2.15-.15-.06-.05-.09.2.15-.15-.21.2.28-.06-.07-.14-.21.2.28-.06-.17,0,.16,0v-.07l-.17,0,.16,0-.39-.08.29.26a1.45,1.45,0,0,1,.17-.18l-.29-.27.07.4,0-.12v.13h0l0-.12v.13a5.78,5.78,0,0,1,.63,0h0a4,4,0,0,0,2.85-1.11l.25-.26a12.57,12.57,0,0,0,1.56-2.93c.27-.64.57-1.39.91-2.24l.14-.35-.31-.14-5.63-2.46-.39-.17-.19.43-.35.77a15.76,15.76,0,0,0-.79,2.09,3.24,3.24,0,0,0-.17,1.36,1.78,1.78,0,0,0,.53.92,6.07,6.07,0,0,0,1.37,1l.24-.37-.25.37,0,0,.09-.09-.12,0,0,.05.09-.09-.12,0,.17-.06-.16,0v.1l.17-.06-.16,0,.39.1-.38-.11.19.06-.13-.14-.06.08.19.06-.13-.14.15.16,0-.25a.34.34,0,0,0-.17.09l.15.16,0-.25v.11l0-.11h0v.11l0-.11h0l-.19.39-.16.41h.22a.49.49,0,0,0,.23-.12h0a.52.52,0,0,0,.14-.3.36.36,0,0,0-.09-.29l-.07-.06-.06,0-.25-.11c-.24-.1-.62-.25-1.16-.44l-1.23-.43c-.89-.32-1.47-.52-1.78-.61s-.53-.15-.72-.22l0,0h0l-.05.05.05-.05h0l-.05.05.05-.05-.13.13.17,0,0-.09-.13.13.17,0-.14,0,.13,0v-.07l-.14,0,.13,0h0l-.11,0,.07.08,0,0-.11,0,.07.08-.08-.08,0,.11.05,0-.08-.08,0,.11v0h0v0a.92.92,0,0,1,.3,0h0a3.65,3.65,0,0,0,1.41.12,2.23,2.23,0,0,0,1.17-.52h0l0-.05a4.57,4.57,0,0,0,.85-1.43c.38-.9.71-1.66,1-2.3l.15-.36-.32-.14-4.44-2a5.4,5.4,0,0,0-1-.36,2,2,0,0,0-.42-.05,1,1,0,0,0-.44.12l.18.35-.16-.35a.59.59,0,0,0-.19.14,2.87,2.87,0,0,0-.51.74c-.18.32-.37.74-.59,1.25,0,.09-.08.16-.1.2l0,0h0l.06.06-.06-.06h0l.06.06-.06-.06.17.17-.05-.24-.12.07.17.17-.05-.24.07.3.16-.3h-.23l.07.3.16-.3-.21.39.22-.39-.15.26.22-.21-.07-.05-.15.26.22-.21-.2.19.26-.07-.06-.12-.2.19.26-.07-.11,0,.11,0h0l-.11,0,.11,0h0a2.66,2.66,0,0,1,.09-.27c.18-.42.4-.91.68-1.49h0c.54-1.17,1.17-2.48,1.9-4,.51-1.05,1-2,1.37-2.79v0h0a3.73,3.73,0,0,1,.17-.37h0l0-.07h0l-.16-.16,0,.23.13-.07-.16-.16,0,.23,0-.28-.17.25.2,0,0-.28-.17.25,0,0h0l.18-.34-.28.27s0,0,.1.07l.18-.34-.28.27.24-.23-.32.1.08.13.24-.23-.32.1.19-.06h-.19v.05l.19-.06h-.19a.91.91,0,0,1-.07.23c-.05.13-.13.29-.23.5h0a5.31,5.31,0,0,0-.46,1.2,1.61,1.61,0,0,0,0,.48.68.68,0,0,0,.17.43l.33-.29-.38.21a.71.71,0,0,0,.15.22,1.82,1.82,0,0,0,.44.31c3.46,1.77,6.91,3.52,10.38,5.26l0,0h0a.89.89,0,0,0,.46,0,.87.87,0,0,0,.44-.24l0,0,0,0-.25-.19.22.23,0,0-.25-.19.22.23-.06-.07.06.07h0l-.06-.07.06.07h0a5,5,0,0,0,.67-.95h0a3,3,0,0,1,.29-.44l0,0,0,0h0l0,0,0,0-.14-.21,0,.26.1-.05-.14-.21,0,.26-.05-.34-.2.31a.32.32,0,0,0,.25,0l-.05-.34-.2.31h0l.15-.25-.21.2.06.05.15-.25-.21.2.19-.18-.25.07.06.11.19-.18-.25.07.11,0h-.11v0l.11,0h-.11a.79.79,0,0,1-.09.23h0l-.24.46h0l-.25.5c-.15.3-.37.74-.64,1.32h0c-.61,1.28-1.11,2.41-1.54,3.38h0c-.63,1.46-1.13,2.68-1.54,3.67l.38.11-.38-.12c-.23.54-.46,1.09-.68,1.63h0c-.1.28-.23.67-.37,1.2l.4.05.15-.4a27.4,27.4,0,0,0-3.35-.6l-.09.41.13-.41Z"/><path class="cls-1" d="M320.09,538a6.16,6.16,0,0,1-1.39.26c-.33,0-.55-.24-.68-.71l-1.4-5.56c-.76-3-1.18-4.64-1.27-5l-.18-.7a.87.87,0,0,1,.16-.87,3.11,3.11,0,0,1,1.35-.51l.56-.14c.2,0,.28-.12.25-.24s-.21-.13-.53,0l-1.13.29-.66.17-.42.1-3.24.82L311,526l-1,10q-2.37-3.27-5.86-8.25a1.65,1.65,0,0,0-.27,0l-4.62,1.16-.66.17c-.28.06-.4.15-.37.29s.18.14.44.08c1-.26,1.62-.32,1.82-.18a4.11,4.11,0,0,1,.71,1.81l2.41,9.51a4.85,4.85,0,0,1,.18,1c0,.28-.28.5-.77.68-.13.05-.52.16-1.17.32-.28.07-.4.16-.38.27s.22.13.56.05l1.31-.39a13.28,13.28,0,0,1,1.29-.36l2.21-.47c.24-.06.35-.14.33-.23s-.35-.16-.94,0a2.26,2.26,0,0,1-1.31.08.42.42,0,0,1-.29-.24,9.63,9.63,0,0,1-.3-1.06L301.71,530q4.11,5.7,5,6.93l2.54,3.43c.24.33.45.48.63.43s.28-.47.35-1.28l.59-6.63q.38-3.93.75-5.79l2.74,10.82a4.45,4.45,0,0,1,.23,1.21c-.11.27-.54.49-1.29.67l-.83.21c-.23.06-.33.14-.31.26s.16.14.39.08l.61-.16,2.26-.57,1.13-.28,2-.52,1.9-.48.17,0c.32-.08.47-.19.44-.32S320.69,537.8,320.09,538Z"/><path class="cls-1" d="M327.42,533,326,533l-.55,0-.56,0c.2-.47.51-1.3.94-2.49s.71-1.89,1-2.49l.18.35c.17.34.29.6.38.77.34.63.88,1.72,1.63,3.27.11.22.18.34.2.38Zm9.74,4.16a4.31,4.31,0,0,1-1.57-.07,2.25,2.25,0,0,1-.92-1.11q-.56-1.08-1.11-2.13-4.35-8.16-4.91-9.34c-.3-.62-.5-.93-.6-.92s-.24.24-.4.72c-.24.65-.42,1.14-.56,1.44l-2.72,7c-.54,1.37-1,2.4-1.25,3.1a6.84,6.84,0,0,1-.82,1.77A2.15,2.15,0,0,1,321,538c-.52,0-.78.12-.78.2s.13.2.37.19h.32l4.17-.21c.3,0,.45-.08.45-.19s-.13-.16-.37-.16l-1.24,0c-.37,0-.56-.19-.58-.43a1.46,1.46,0,0,1,.11-.5l.49-1.36c.37-1,.63-1.6.77-1.89.79-.06,1.54-.1,2.24-.13l2-.09.46,0c.37.79.62,1.33.73,1.63l.6,1.31a4.44,4.44,0,0,1,.34.84q0,.21-.39.27a2.51,2.51,0,0,1-.53.07c-1,.06-1.43.16-1.42.29s.23.2.69.17q.45,0,1.71-.12l1.47-.09,2.57-.09,1.14,0a8.71,8.71,0,0,0,1-.08c.13,0,.19-.09.18-.2S337.36,537.12,337.16,537.13Z"/><path class="cls-1" d="M347.83,532a17.93,17.93,0,0,0-3.38-2.34,15.78,15.78,0,0,1-2.82-2,1.92,1.92,0,0,1-.62-1.57,1.74,1.74,0,0,1,1-1.42,4.63,4.63,0,0,1,4,.25,3.86,3.86,0,0,1,1.05,1,4.1,4.1,0,0,1,.65,1.38c.1.45.23.69.38.7a.17.17,0,0,0,.22-.16v-.17a13.76,13.76,0,0,1,.1-1.8,6.28,6.28,0,0,1,.13-.78c.07-.3.1-.49.11-.56s-.06-.28-.22-.29a.22.22,0,0,0-.25.15c-.12.35-.31.51-.56.48a2.44,2.44,0,0,1-.66-.23,8.36,8.36,0,0,0-2.64-.78,6.26,6.26,0,0,0-4,.74,3.51,3.51,0,0,0-1.84,2.74,3.94,3.94,0,0,0,.62,2.68,10.29,10.29,0,0,0,3.47,2.77,18.45,18.45,0,0,1,2.76,1.76,1.7,1.7,0,0,1,.46,1.43,2.11,2.11,0,0,1-1.12,1.6,3.73,3.73,0,0,1-2.36.45,5.05,5.05,0,0,1-2.77-1.21,3.78,3.78,0,0,1-1.33-2.52c-.07-.6-.19-.91-.36-.92s-.26.08-.28.3,0,.35,0,.82c0,.23,0,.55-.08.94a7.78,7.78,0,0,1-.23,1.28,5.58,5.58,0,0,0-.23.92c0,.19,0,.3.17.31s.16-.06.23-.2c.2-.48.44-.7.73-.67a1.4,1.4,0,0,1,.34.1,15.4,15.4,0,0,0,4.14,1.29,6.77,6.77,0,0,0,4.26-.77,3.71,3.71,0,0,0,1.95-2.9A3.45,3.45,0,0,0,347.83,532Z"/><path class="cls-1" d="M365.43,531.94c.14-1.39.29-2.51.45-3.39q-.42-.07-1.23-.27l-2-.49-2.51-.61c-1.68-.43-3.06-.78-4.15-1.08l-1.69-.45-1.79-.45-.37-.09c-.15.47-.46,1.34-.92,2.61-.22.6-.34,1-.37,1.07s0,.26.16.29.4-.21.66-.76a3,3,0,0,1,1.69-1.78,5.5,5.5,0,0,1,3,.13l.64.16-2.12,8.46c-.64,2.53-1,3.88-1.07,4.05s-.67.35-1.58.15c-.47-.1-.75-.16-.81-.16l-.14.12c0,.1.08.18.31.24l4.19.95,2.51.69.61.17.36.12c.26.06.41,0,.44-.11s-.05-.18-.23-.24a7.75,7.75,0,0,1-1.67-.68.68.68,0,0,1-.19-.72l3-12.12,1.15.29a4.55,4.55,0,0,1,2.37,1.18,3.8,3.8,0,0,1,.7,2.37c0,.55.12.85.3.89s.19,0,.21-.11A4.23,4.23,0,0,0,365.43,531.94Z"/><path class="cls-1" d="M376.65,544c-.11,0-.22,0-.35.19a8,8,0,0,1-1.15,1.41,2.4,2.4,0,0,1-1.14.49,4.08,4.08,0,0,1-1.53-.15q-.6-.18-3.18-1.2l-1.5-.62,2.64-6.39,1.6.67a3.7,3.7,0,0,1,1.75,1.11,3.27,3.27,0,0,1-.05,2,3.09,3.09,0,0,0-.12.67q0,.11.18.18c.14.06.24,0,.3-.14a2.08,2.08,0,0,0,.1-.3c.2-.57.52-1.4,1-2.48.17-.41.31-.73.43-1,.34-.69.56-1.15.65-1.38s.07-.37-.07-.43-.37.12-.64.56c-.52.81-1.05,1.22-1.58,1.25a10.8,10.8,0,0,1-3.37-1.05l2.32-5.61c1.08.41,1.84.7,2.27.88a7.54,7.54,0,0,1,3,1.93,2.73,2.73,0,0,1,.51,2.45c-.09.35-.06.55.1.62s.26,0,.31-.1.19-.57.38-1.26l.65-2.16c-.51-.16-.94-.32-1.28-.46l-1.59-.66q-2.72-1.17-7.05-2.87l-1.79-.72c-.43-.18-.67-.21-.72-.08s.17.27.65.47a2.34,2.34,0,0,1,.82.47.52.52,0,0,1,.06.52c0,.08-.18.5-.49,1.26l-4,9.61a2.91,2.91,0,0,1-.27.53c-.19.28-.66.28-1.4,0a6.25,6.25,0,0,0-.74-.24l-.16.08c0,.09.09.2.37.32l2,.81q4.67,1.81,10.73,4.6s0-.11.17-.37l.58-1.3.75-1.76C376.8,544.19,376.78,544.07,376.65,544Z"/><path class="cls-1" d="M387.43,545a4,4,0,0,1-2.86-.8l1.77-2.91a9.76,9.76,0,0,1,1.28-1.85c.27-.19.64-.14,1.12.15q2.2,1.35.82,3.61A3.47,3.47,0,0,1,387.43,545Zm1.91,9.4c-.43-.27-.75-.24-.94.08a.44.44,0,0,0,0,.5c.11.18.16.3.13.34s-.2.08-.41,0a1.27,1.27,0,0,1-.52-.86,4.67,4.67,0,0,1,.67-2.3,4.87,4.87,0,0,0,.47-3.65,6.76,6.76,0,0,0-2.8-3.09l.09-.09a14.09,14.09,0,0,0,3.13,1.19c1.76.33,3-.06,3.67-1.18a2.38,2.38,0,0,0,.31-1.67,3.58,3.58,0,0,0-.83-1.75,16.74,16.74,0,0,0-3.88-2.9l-1.26-.76-.77-.48-.46-.27-.71-.44-.75-.46-.39-.23a10.76,10.76,0,0,0-1.06-.61c-.14-.06-.23-.05-.28,0s.06.26.38.45a3.44,3.44,0,0,1,.9.7.44.44,0,0,1,.13.42,7.58,7.58,0,0,1-.62,1.11l-5.52,9.07a2.93,2.93,0,0,1-.51.7c-.19.11-.54,0-1-.25s-.93-.46-1-.36,0,.18.23.31l1,.6.3.19.5.3,1.55.95.74.44.34.21,2.1,1.28c.17.1.28.11.34,0s-.08-.27-.42-.48a4.53,4.53,0,0,1-1.08-.81.5.5,0,0,1-.05-.6c0-.08.33-.58.89-1.51l2.44-4a3,3,0,0,1,1.52,1.65,3.94,3.94,0,0,1-.38,2.4l-.66,1.57a3.25,3.25,0,0,0,0,2.34,5.46,5.46,0,0,0,2.55,2.95c1.05.64,1.77.63,2.17,0A.64.64,0,0,0,389.34,554.39Z"/><path class="cls-1" d="M420.83,595.71q-.37-.86-.24-1.14a8.15,8.15,0,0,1,2.11-1.06c.8-.34,1.34-.56,1.64-.67.59-.22,1.05-.39,1.36-.52l1.1-.47a11.25,11.25,0,0,1,.73,2.19q.36,2-2.31,3.18Q422,598.57,420.83,595.71Zm8-1.46a5.2,5.2,0,0,1-1.77-2.53l5-2.13a.63.63,0,0,1,.8.26,6,6,0,0,1,.48.95q.87,2.06-1.87,3.22A3,3,0,0,1,428.87,594.25Zm-.28,4.17a9.75,9.75,0,0,0-.38-3.68h.09q2.29,3.75,4.78,2.69c2-.85,2.23-3.06.71-6.65l-2.38-5.58-.41-1c-.14-.34-.27-.49-.37-.44s0,.33.19.89c.29.73.26,1.17-.11,1.32l-10.83,4.62a1.48,1.48,0,0,1-1,.19,1.74,1.74,0,0,1-.58-.87c-.22-.5-.38-.73-.5-.68s-.1.09-.07.19.15.4.36.89c1.51,3.56,2.43,5.69,2.77,6.41a18.1,18.1,0,0,0,1.26,2.21,5,5,0,0,0,2.17,2,2.93,2.93,0,0,0,2.39,0A3.23,3.23,0,0,0,428.59,598.42Z"/><path class="cls-1" d="M430.16,608.74l-.33-1.37c0-.17-.08-.35-.13-.55s-.09-.39-.13-.54c.51.11,1.38.26,2.63.46s2,.36,2.63.51l-.31.25-.69.51q-.84.68-2.91,2.22l-.34.26Zm-2.28,10.35a4.07,4.07,0,0,1-.22-1.56,2.29,2.29,0,0,1,.91-1.11c.65-.5,1.27-1,1.89-1.49q7.21-5.77,8.28-6.55c.55-.41.81-.66.79-.76s-.29-.19-.78-.26c-.69-.11-1.2-.2-1.53-.28l-7.37-1.38-3.28-.65a7.07,7.07,0,0,1-1.89-.48,2.3,2.3,0,0,1-.6-1.18c-.15-.51-.26-.75-.34-.73s-.17.16-.12.39.05.23.08.32l1,4.06c.07.3.16.43.27.4s.14-.15.09-.38q-.19-1.1-.21-1.23c0-.37.09-.59.31-.64a1.26,1.26,0,0,1,.51,0l1.43.23c1,.18,1.7.32,2,.4.21.77.39,1.49.54,2.18l.46,1.92.11.44c-.71.52-1.2.86-1.47,1l-1.17.83a5.33,5.33,0,0,1-.77.49c-.13,0-.25-.08-.34-.33a3.52,3.52,0,0,1-.16-.51c-.24-.93-.42-1.38-.55-1.35s-.15.27-.05.71.22.85.45,1.67c.11.4.23.88.36,1.42s.29,1.3.56,2.51l.24,1.12a7.5,7.5,0,0,0,.26.93c0,.12.12.17.23.14S427.93,619.28,427.88,619.09Z"/><path class="cls-1" d="M442.47,634.11c0-.28-.05-1.28-.14-3,0-.16,0-.36,0-.58s0-.4,0-.5l0-.56c0-.3-.08-.45-.19-.44s-.12.11-.12.31l0,1.09a1.87,1.87,0,0,1-.11.86c-.08.14-.29.22-.62.24l-8.14.46,8.78-9.38c-.08-.77-.16-1.78-.23-3,0-.6-.05-1.06-.05-1.36,0-.62,0-1,0-1.09s-.09-.35-.22-.34-.17.14-.17.41a5.09,5.09,0,0,1-.23,2.09,1.74,1.74,0,0,1-1.26,1,14.41,14.41,0,0,1-1.56.14l-8.42.47a4,4,0,0,1-1.48,0c-.17-.12-.31-.61-.41-1.47s-.18-1.1-.27-1.1-.16.14-.14.39c0-.07,0,.14.05.61.08,1,.14,1.73.17,2.32,0,.25,0,.88.07,1.89a2.39,2.39,0,0,0,0,.38c0,.25.07.38.18.37l.08,0a2.08,2.08,0,0,0,.05-1,4.51,4.51,0,0,1,.1-1.26q.07-.33.51-.36l6.38-.35.7,0,1.36-.08,1.51-.08q-4.14,4.3-7.35,7.89a26.69,26.69,0,0,0-3.19,3.86c0,.12.13.17.36.16l3.49-.2,6.22-.35,2.38-.13a4,4,0,0,1,1.31,0c.14.06.23.31.27.76.07.75.12,1.19.14,1.31s.06.19.13.18S442.47,634.4,442.47,634.11Z"/><path class="cls-1" d="M426.47,651.56a1.89,1.89,0,0,1,.37-1,13.76,13.76,0,0,1,1.65-1.29c2-1.46,3.56-2.6,4.62-3.39,1.55-1.14,2.5-1.84,2.86-2.08q2.08,2.85,3.76,5.44a2.7,2.7,0,0,1,.38.88,5.12,5.12,0,0,1-.06,1.28c0,.26,0,.41.15.43s.2-.1.23-.33l.34-2.58c0-.12,0-.25.05-.4a1.41,1.41,0,0,1,0-.23l.14-1.1c.07-.4,0-.61-.1-.63s-.2.1-.23.33c-.09.7-.16,1.13-.2,1.27s-.11.22-.2.21c-.29,0-.89-.7-1.8-2-2-2.89-3.17-4.58-3.42-5.07l5.38.7c.41.06.65.15.7.28a3.61,3.61,0,0,1,0,1.2c0,.4,0,.6.09.62s.19-.08.22-.28.06-.42.08-.6l.13-1,.15-1.56c0-.15,0-.32.06-.5s0-.27,0-.3l.46-3c0-.23,0-.36-.13-.37s-.22.22-.29.7a3.07,3.07,0,0,1-.26,1.06.42.42,0,0,1-.41.13l-11.72-1.54q-.74-.09-.87-.3a2,2,0,0,1-.05-1q.09-.86-.09-.87c-.12,0-.2.11-.24.38l0,.32c-.05.39-.1.75-.14,1.09s-.08.6-.1.77c-.15,1.1-.29,2.18-.43,3.23l-.2,1.58c0,.3,0,.46.12.47s.22-.18.28-.59a2.62,2.62,0,0,1,.38-1.22c.13-.11.5-.12,1.11,0l5.14.67a3.51,3.51,0,0,0-.48.42l-4.66,3.12a19,19,0,0,1-1.81,1.16c-.14,0-.19-.16-.15-.43.05-.5.07-.8.07-.9a.14.14,0,0,0-.14-.15c-.13,0-.21.15-.26.52l-.15,1.13-.18,1.4c0,.29-.09.81-.2,1.56-.14,1-.24,1.79-.31,2.33s-.06.93.07,1S426.4,652.09,426.47,651.56Z"/><path class="cls-1" d="M425.6,665.56c0-.12,0-.23-.22-.34a8.65,8.65,0,0,1-1.51-1,2.42,2.42,0,0,1-.57-1.11,4.14,4.14,0,0,1,0-1.53c.09-.4.4-1.49.94-3.27l.49-1.55,6.58,2.1-.53,1.65a3.66,3.66,0,0,1-1,1.83,3.23,3.23,0,0,1-1.95.12,4.22,4.22,0,0,0-.68-.06c-.07,0-.12.08-.16.19a.21.21,0,0,0,.17.29,1.56,1.56,0,0,0,.3.07c.59.15,1.44.41,2.56.77.42.13.75.24,1,.34.72.28,1.19.46,1.43.53s.37,0,.42-.1-.15-.36-.61-.6c-.85-.45-1.31-.93-1.38-1.46a10.86,10.86,0,0,1,.77-3.45l5.78,1.84c-.31,1.11-.54,1.89-.68,2.34a7.42,7.42,0,0,1-1.68,3.12,2.72,2.72,0,0,1-2.4.72c-.35-.06-.55,0-.61.15s0,.26.12.3.59.14,1.3.28l2.2.47a13.07,13.07,0,0,1,.36-1.32l.52-1.64q.93-2.81,2.27-7.26c.24-.79.43-1.41.57-1.85s.14-.69,0-.73-.25.2-.41.69a2.36,2.36,0,0,1-.4.86.53.53,0,0,1-.51.1c-.08,0-.52-.14-1.3-.39l-9.91-3.16a2.53,2.53,0,0,1-.55-.23c-.29-.16-.34-.63-.14-1.39q.16-.65.18-.75l-.09-.15c-.1,0-.2.09-.29.38l-.65,2q-1.41,4.8-3.68,11.08l.39.14,1.34.46,1.81.61C425.44,665.72,425.55,665.69,425.6,665.56Z"/><path class="cls-1" d="M425.33,676.38a4,4,0,0,1,.62-2.9l3,1.59a9.87,9.87,0,0,1,1.92,1.15c.2.26.18.64-.08,1.13-.8,1.52-2,1.87-3.55,1A3.48,3.48,0,0,1,425.33,676.38Zm-9.26,2.49c.23-.45.19-.76-.14-.93a.45.45,0,0,0-.5.07q-.26.18-.33.15t0-.42a1.23,1.23,0,0,1,.82-.56,4.58,4.58,0,0,1,2.34.52,4.88,4.88,0,0,0,3.67.24,6.79,6.79,0,0,0,2.9-3l.1.08a13.76,13.76,0,0,0-1,3.2c-.23,1.78.24,3,1.4,3.59a2.35,2.35,0,0,0,1.68.2,3.5,3.5,0,0,0,1.7-.93,16.85,16.85,0,0,0,2.65-4.06l.69-1.3.42-.8.25-.47.39-.74c.13-.26.27-.52.41-.78l.21-.41a10.61,10.61,0,0,0,.54-1.09c.05-.14,0-.23-.05-.28s-.25.08-.42.41a4.09,4.09,0,0,1-.64.95.48.48,0,0,1-.42.15,9.43,9.43,0,0,1-1.15-.55l-9.39-5a2.65,2.65,0,0,1-.73-.47q-.18-.27.18-1.05c.3-.62.4-1,.3-1s-.18,0-.29.25l-.54,1s-.08.15-.17.31-.19.37-.27.51l-.85,1.61-.4.77-.19.35-1.14,2.17c-.09.18-.09.3,0,.35s.25-.09.44-.45a4.62,4.62,0,0,1,.75-1.13.49.49,0,0,1,.59-.08c.08,0,.6.28,1.56.79l4.14,2.18a3,3,0,0,1-1.55,1.63,3.92,3.92,0,0,1-2.42-.24l-1.61-.56a3.22,3.22,0,0,0-2.33.18,5.42,5.42,0,0,0-2.79,2.73c-.57,1.08-.52,1.81.16,2.16C415.51,679.43,415.83,679.32,416.07,678.87Z"/><path class="cls-4" d="M185.43,690l-1.41-.29a7.87,7.87,0,0,0,1.8,4c1.61,2,3,2.48,4.27,1.56a2,2,0,0,0,.71-1.52,4.08,4.08,0,0,0-.81-2.31q-.45-.66-.69-1a2.66,2.66,0,0,1-.44-1.18.81.81,0,0,1,.26-.69,1,1,0,0,1,1-.11,2.59,2.59,0,0,1,1,.83,6.43,6.43,0,0,1,1.24,2.53l1.38.09a7.92,7.92,0,0,0-1.61-3.32,4.72,4.72,0,0,0-2.18-1.66,2,2,0,0,0-1.93.31,1.86,1.86,0,0,0-.69,1.54,4.33,4.33,0,0,0,.77,2.18l.81,1.24c.51.83.54,1.43.06,1.8s-1.33.12-2.25-1A6.06,6.06,0,0,1,185.43,690Zm-5.13-6.36-1.41-.28a7.88,7.88,0,0,0,1.8,4c1.62,2,3,2.49,4.28,1.56a2,2,0,0,0,.71-1.52,4.05,4.05,0,0,0-.82-2.3c-.29-.44-.52-.8-.68-1.06a2.4,2.4,0,0,1-.44-1.18.78.78,0,0,1,.25-.68,1,1,0,0,1,1-.12,2.71,2.71,0,0,1,1,.83,6.57,6.57,0,0,1,1.24,2.53l1.37.1a7.89,7.89,0,0,0-1.61-3.33,4.77,4.77,0,0,0-2.17-1.66,2,2,0,0,0-1.94.32,1.85,1.85,0,0,0-.68,1.53,4.23,4.23,0,0,0,.77,2.18l.8,1.24c.52.84.54,1.44.07,1.81s-1.34.11-2.25-1A6.11,6.11,0,0,1,180.3,683.59Zm-3.64-1.4,1.05,1.31,6.29-5.07-1.06-1.31Zm-6.54-8.11.88,1.09,5.86-2,0,0-3.2,5.29.88,1.1,8-2.91-1.11-1.38-5.56,2.24,0,0,3.12-5.27-.77-1-5.82,1.93,0,0,3.38-5-1.12-1.38Zm-4.63-8.86-1.41-.28a7.88,7.88,0,0,0,1.8,4c1.62,2,3,2.49,4.28,1.56a1.93,1.93,0,0,0,.7-1.52,4,4,0,0,0-.81-2.3c-.29-.44-.52-.8-.68-1.06a2.4,2.4,0,0,1-.44-1.18.78.78,0,0,1,.25-.68,1,1,0,0,1,1-.12,2.61,2.61,0,0,1,1,.83,6.59,6.59,0,0,1,1.25,2.53l1.37.1a7.89,7.89,0,0,0-1.61-3.33,4.74,4.74,0,0,0-2.18-1.66,2,2,0,0,0-1.93.32,1.85,1.85,0,0,0-.68,1.53,4.23,4.23,0,0,0,.77,2.18l.8,1.24c.52.84.54,1.44.06,1.81s-1.33.11-2.25-1A6.09,6.09,0,0,1,165.49,665.22Z"/><path class="cls-4" d="M256,774.74l4.47,5.5.9-.74L258,775.31l1.83-1.49,2.92,3.57.84-.68-2.92-3.58,1.79-1.45,3.41,4.19.9-.73-4.48-5.5Zm.71-10.07,1.27,1.56a2.58,2.58,0,0,1,.72,2,1.19,1.19,0,0,1-.3.8,11.33,11.33,0,0,1-1.12,1,9.9,9.9,0,0,1-1.19.87,1.11,1.11,0,0,1-.73.14,2.62,2.62,0,0,1-1.85-1.15l-1.27-1.55Zm-6.43,3.06,2.39,2.92a4.93,4.93,0,0,0,1.64,1.39,3.56,3.56,0,0,0,1.58.45,2.9,2.9,0,0,0,.52,0,1.48,1.48,0,0,0,.48-.15,8.85,8.85,0,0,0,1.49-1.05,11.73,11.73,0,0,0,1.28-1.15,2.06,2.06,0,0,0,.41-1,4.16,4.16,0,0,0-1.07-3.48l-2.46-3ZM248.93,766l1.12,1.38,3.71-8.23-.89-1.09-8.81,2,1.13,1.38,1.93-.48,2.66,3.27Zm-.66-5.38,3.75-1,0,0-1.72,3.48Zm-10.45-8.25,1.06,1.31,3.9-3.18,0,0-1.53,4.25.88,1.08,4.47-.64,0,0-3.91,3.17,1.07,1.31,6.25-5.1-1-1.23-6.05.9,2.07-5.79-1-1.23Z"/><path class="cls-1" d="M48,684.09c-12.94,1.62-21.15,2.83-31.8,12.73A59.72,59.72,0,0,0,1.59,717.71s28,34,30,40,7,43,17,66,147,161,153,163,49.2-5.92,67.5-10.13"/><path class="cls-1" d="M598.69,234.7c11.4-17.49,30.4-22.49,38.4-21.49s13,13,18,16,145,24,173,31,40,27,45,29,56,18,67,27,152,164,161,196c0,0-49-48-128-54s-120,1.64-120,1.64"/><path class="cls-1" d="M854.09,482.21c11,7,50-6,106,1s110,22,153,69c17.72,19.37,22,36,22,36"/><path class="cls-1" d="M944.71,321.6c9.38-13.39,33.38-14.39,39.38-12.39s138,168,144,180,0,53,0,53l-25-28s11-29,0-45-76-102-89-107S985,363.47,985,363.47"/><path class="cls-1" d="M1107.94,493.37c-8.46,3.6-14,5.91-14,5.91"/><path class="cls-1" d="M1100.13,450.64c26.83-13.37,63.72-31.06,70-30.43,10,1,28,26,25,32-1.85,3.71-40.1,20.84-69,33.36"/><path class="cls-1" d="M1071.49,465.17s8.4-4.36,20.32-10.36"/><path class="cls-1" d="M1018.18,349.93s26.91-18.72,47.91-16.72S1131,369.64,1187,433.42s69.06,75.79,69.06,99.79-19,30-53,44-64,29-61,33,11,15,58-5,55-24,56-37,2-39-1-46"/><path class="cls-1" d="M1142.09,610.21l-10-19s21-18,47-30,53-19,54-24-33.84-58.67-54.92-75.33"/><path class="cls-1" d="M1036.37,370.92s17.72-12.71,31.72-10.71,78.18,60.44,82.09,66.22"/><path class="cls-1" d="M1099,509.12c15.1,13.09,48.1,56.09,49.1,69.09"/><path class="cls-1" d="M674.21,233.84c21.88-51.63,95.88-127.63,164.88-173.63,50-33.37,99.57-51.47,123-58.9a17.19,17.19,0,0,1,21,9.58c10.72,24.68,27.77,81.67,5,162.32-31,110-48,143-48,143"/><path class="cls-1" d="M712.59,239.71c.75-1.79,1.58-3.61,2.47-5.47"/><path class="cls-5" d="M720.7,223.57C741,188.11,781,144.21,818.59,115.71c33-25,127-80,130.27-79.84,5.58.28,12.09,1.05,14.73,6.84,1.86,4.08,6.95,61.93-5,124-11.65,60.56-33.4,105.36-44,124.6"/><path class="cls-1" d="M911.68,296.57c-1.95,3.38-3.09,5.14-3.09,5.14"/><path class="cls-1" d="M24.59,735.71c3-14,24.26-28.82,34-18,9,10,35,39,38,43a7.94,7.94,0,0,1,1,8"/><path class="cls-1" d="M88.59,779.71c12-7,13-22,51,21s55,58,37,74"/><path class="cls-1" d="M161.59,901.71c2-16,22-27,27-27s42,30,45,35"/><path class="cls-1" d="M695.59,322.71c0-12,30-49,45-50s25,7,65,44,65,70,66,77-2,18-6,21-43-11-53-3-21,13-23,20"/><path class="cls-1" d="M808.59,310.71c2-5,47-12,59-10s91,87,93,96-28,26-30,32"/><rect class="cls-1" x="847.52" y="429.91" width="28" height="7" rx="3.5" ry="3.5" transform="translate(-23.44 50.12) rotate(-3.29)"/><rect class="cls-1" x="876.31" y="428.91" width="28" height="7" rx="3.5" ry="3.5"/><rect class="cls-1" x="904.65" y="429.91" width="28" height="7" rx="3.5" ry="3.5" transform="translate(35.35 -68.13) rotate(4.33)"/><rect class="cls-1" x="932.84" y="432.71" width="28" height="7" rx="3.5" ry="3.5" transform="translate(63.13 -116.82) rotate(7.3)"/><rect class="cls-1" x="960.91" y="436.71" width="28" height="7" rx="3.5" ry="3.5" transform="translate(63.86 -120.35) rotate(7.3)"/><rect class="cls-1" x="988.59" y="442.17" width="26.07" height="7" rx="3.38" ry="3.38" transform="translate(143.36 -236.43) rotate(14.49)"/><rect class="cls-1" x="1013.76" y="449.88" width="22.26" height="6.01" rx="2.9" ry="2.9" transform="translate(243.59 -350.28) rotate(21.95)"/><rect class="cls-1" x="1049.42" y="471.54" width="19.69" height="5.29" rx="2.55" ry="2.55" transform="translate(503.47 -544.63) rotate(37.27)"/><rect class="cls-1" x="1033.59" y="459.75" width="19.69" height="5.29" rx="2.55" ry="2.55" transform="translate(440.22 -506.47) rotate(34.19)"/><path class="cls-1" d="M730.09,289.21c1,7,77,101,85,107"/><path class="cls-1" d="M673.09,249.21c7,0,22-3,45,22"/></g></g></svg>