<svg id="グループ化_321" data-name="グループ化 321" xmlns="http://www.w3.org/2000/svg" viewBox="0 0 28 28">
  <defs>
    <style>
      .info_svg1 {
        fill: #fff;
      }
    </style>
  </defs>
  <g id="グループ化_108" data-name="グループ化 108">
    <path id="パス_540" data-name="パス 540" class="info_svg1" d="M13,11.938H11v-1h4v10h2v1H11v-1h2Zm2.344-5.914A1.437,1.437,0,0,1,13.91,7.483,1.407,1.407,0,0,1,12.5,6,1.38,1.38,0,0,1,13.91,4.564,1.439,1.439,0,0,1,15.344,6.024Z"/>
  </g>
  <g id="グループ化_109" data-name="グループ化 109">
    <path id="パス_541" data-name="パス 541" class="info_svg1" d="M14,2A12,12,0,1,1,2,14,12.013,12.013,0,0,1,14,2m0-2A14,14,0,1,0,28,14,14,14,0,0,0,14,0Z"/>
  </g>
</svg>
