<svg xmlns="http://www.w3.org/2000/svg" viewBox="0 0 589.88 519.68"><defs><style>.top_btn1_svg1{fill:#ccb405;}.top_btn1_svg2{fill:#ffeb01;}.top_btn1_svg3{fill:#e5cf03;}</style></defs><title>btn1</title><g id="レイヤー_2" data-name="レイヤー 2"><g id="content"><polygon class="top_btn1_svg1" points="0 107.31 412.38 519.68 589.88 332.88 335 78 0 107.31"/><polygon class="top_btn1_svg2" points="335 0 0 29.31 0 107.31 335 78 335 0"/><polygon class="top_btn1_svg3" points="335 0 589.88 254.88 589.88 332.88 335 78 335 0"/><path d="M79.38,48.53,75,48.91v6.66l-23.6,2.07V72l27.2-2.38v7.47l-34.67,3V44.46l7.47-.65v6.28L65.2,48.88V40.82l5.86-.52v8.07l2.46-.22V40.09l5.86-.51Z"/><path d="M114.37,60.07,80.42,63V55.36l34-3Z"/><path d="M154.61,70.46l-7.85.69L145.61,67l-7.89,4.93L117,73.76V66.25l10.39-29.09,8-.7L124.9,65.55l12-1,6.92-4.16-2.34-8.58,7.56-.67Z"/><path d="M191.77,55.71l-9.29.82-15.83-5.32v18.2l-7.34.64V34.37l7.34-.65v9.64L183.45,49l8.32-.72Z"/><path d="M231.55,49.81l-34,3V45.1l34-3Z"/><path d="M272.4,46.54,261.24,61.13l-19.39,1.7V55.36L257.72,54l7.22-9.41V32.85l-16,1.4-6.32,7.38-6.88.6V34.76l3.73-.32,6.29-7.38,26.64-2.34Z"/><path d="M289.69,48.59l-6.7.58V22l6.7-.59Zm0,10.77L283,60V53.29l6.7-.59Z"/><path d="M37.72,56.35,32.52,63,20.91,64V60.5l10-.87,3.31-4.21V49.57l3.52-.31Zm-8.83-5.79L21,51.25V47.91l7.94-.7Zm0,5.5-7.94.7V53.39l7.94-.69Zm5.91-7.72-2.42.21V45.33l2.42-.21ZM38.44,48,36,48.23V45l2.42-.21Z"/><path d="M38.28,81.35l-3.7.33-.54-2-3.73,2.33-9.78.86V79.37l4.9-13.72,3.76-.33L24.27,79l5.64-.5,3.27-2-1.11-4,3.57-.31Z"/><polygon points="306.38 29.82 316.49 39.05 306.38 50.05 306.38 29.82"/></g></g></svg>