<svg xmlns="http://www.w3.org/2000/svg" viewBox="0 0 412.38 504.15"><defs><style>.btn5_svg1{fill:#4cb5d6;}.btn5_svg2{fill:#429fbc;}.btn5_svg3{fill:#53c3f1;}</style></defs><title>アセット 16</title><g id="レイヤー_2" data-name="レイヤー 2"><g id="content"><polygon class="btn5_svg1" points="157.5 0 412.38 254.88 412.38 332.88 157.5 78 157.5 0"/><polygon class="btn5_svg2" points="0 91.78 412.38 504.15 412.38 332.88 157.5 78 0 91.78"/><polygon class="btn5_svg3" points="157.5 0 0 13.78 0 91.78 157.5 78 157.5 0"/><path d="M58.11,35.25,48.72,49.34,30.61,50.92V44.79l15.06-1.31L52,34.12V27.27l-22.72,2V23.19l28.82-2.52Z"/><path d="M86.05,31.49l-3.18.28V46.35l-5.27.46V32.23l-3.46.3-5,15-6,.52V42.81l2.32-.2L68.63,33,63,33.51v-5.3L77.6,26.93V24.37l5.27-.46v2.56l3.18-.28Z"/><path d="M118.41,33.86l-7.59.66L97.9,30.18V45l-6,.52V16.43l6-.52v7.86l13.72,4.62,6.79-.59Z"/><path d="M47.46,65.27l-6.26,9.4L29.12,75.73V71.64l10.05-.88,4.23-6.24V60L28.24,61.27v-4l19.22-1.68Z"/><path d="M68.88,61,65.37,72.56l-15,1.31V54.44l4.07-.36V69.56l8-.7,2.24-7.54Z"/><path d="M89.73,62.85,71.25,64.46V60.28l18.48-1.62Z"/><path d="M111.86,68.49l-4.27.37L107,66.61l-4.29,2.68-11.3,1V66.19L97,50.36l4.34-.38L95.69,65.81l6.52-.57L106,63,104.7,58.3l4.11-.36Z"/><path d="M117.94,62.09l-4.2.37V47.28l4.2-.37Zm0,5.94-4.18.36v-3.7l4.18-.36Z"/><polygon points="139.43 27.72 149.54 36.95 139.43 47.94 139.43 27.72"/></g></g></svg>