<svg xmlns="http://www.w3.org/2000/svg" viewBox="0 0 221.35 266.25"><defs><style>.fb_svg1{fill:#314c7c;}.fb_svg2{fill:#273d63;}.fb_svg3{fill:#3b5998;}.fb_svg4{fill:#fff;}</style></defs><title>アセット 9</title><g id="レイヤー_2" data-name="レイヤー 2"><g id="Header"><polygon class="fb_svg1" points="44.49 0 180.96 136.47 180.96 178.23 44.49 41.76 44.49 0"/><polygon class="fb_svg2" points="0.55 45.45 221.35 266.25 180.96 178.23 44.49 41.76 0.55 45.45"/><polygon class="fb_svg3" points="44.49 0 0 3.89 0.55 45.45 44.49 41.76 44.49 0"/><path id="White" class="fb_svg4" d="M32.25,10.6l-20,1.75A1.39,1.39,0,0,0,11,13.7v20a1.13,1.13,0,0,0,1.25,1.13L23,33.91V25.2l-2.93.25V22.06L23,21.8V19.3a4.54,4.54,0,0,1,4.37-4.88c1.24-.1,2.31-.1,2.62-.09v3l-1.8.15c-1.41.13-1.68.82-1.68,1.8v2.17l3.36-.29-.44,3.43-2.92.26V33.6l5.73-.5a1.38,1.38,0,0,0,1.25-1.35v-20A1.13,1.13,0,0,0,32.25,10.6Z"/></g></g></svg>