<svg xmlns="http://www.w3.org/2000/svg" viewBox="0 0 412.38 504.15"><defs><style>.yes_no_sound_svg_1{fill:#d1691c;}.yes_no_sound_svg_2{fill:#b75c18;}.yes_no_sound_svg_3{fill:#eb7c1c;}</style></defs><title>アセット 15</title><g id="レイヤー_2" data-name="レイヤー 2"><g id="content"><polygon class="yes_no_sound_svg_1" points="157.5 0 412.38 254.88 412.38 332.88 157.5 78 157.5 0"/><polygon class="yes_no_sound_svg_2" points="0 91.78 412.38 504.15 412.38 332.88 157.5 78 0 91.78"/><polygon class="yes_no_sound_svg_3" points="157.5 0 0 13.78 0 91.78 157.5 78 157.5 0"/><path d="M47.21,48.71l-5.28.47-4-3.74V22.28l5.28-.46V42.47l1.19,1.09,2.84-.25ZM65.83,38.15,63,38.4v5.18l-3.94,4.1-7.4.65-4.19-3.54v-6l4.15-4.46,6-.53V27.58l-11,1V23.27l11-1V19.64L63,19.18v2.65l2.84-.25v5.29L63,27.11v6.22l2.84-.25Zm-8.18,3.9V38.86l-3.88.34-1.28,1.24v2.09l1.28,1.08,2.53-.22Z"/><path d="M83.09,45.58l-7.5.65-4.82-4.45V20.15l5.29-.46V39.13L78,40.9l5.1-.45Zm13.81-4-5.28.46V25.58l-1.94-1.83-4.81.42V19l7.19-.63L96.9,22.9Z"/><polygon points="137.94 30.47 148.06 39.69 137.94 50.69 137.94 30.47"/><path d="M27,66.34,14.09,67.47V65.61l2.39-.21-.23-1.33-1.49.13V62.34l4.54-.4V61.3l2.31-.21v.65l4.72-.42v1.86l-1.45.13-.23,1.37,2.35-.2Zm-.86,7.09L15,74.4V68.09l11.17-1ZM23.8,69.69V68.9l-6.5.57v.79Zm0,2.37v-.82l-6.5.57v.82ZM22.66,63.5l-4.18.37.23,1.33,3.72-.32Z"/><path d="M36.75,63.35l-4.67.41-.63,8.6-2.3.2L29.73,64l-.86.07V61.81l1-.09.07-1,2.36-.21-.07,1.06,4.51-.4Zm4.35,4.78-1,.08v2.42l-1.57,1.6-4.21.37-1.64-1.55V68.51l1.64-1.91,3.46-.3V65.22L40.1,65v1.08l1-.08Zm-3.32,1.53V68.42l-2.32.2-.52.55v.77l.52.44,1.79-.15Zm3.39-5.48-2.2.19v-1l-.57-.52-.72.06V60.63l1.73-.15,1.76,1.64Z"/><path d="M54.51,68.07l-2.75,3-5.45.47-2.76-2.5V59.59l2.32-.21v8.48l1.42,1.28,3.48-.3,1.39-1.53V65.53l2.35-.2Z"/><path d="M67.1,69.73l-6.7.59-2.73-2.76v-5l1.13-1.14-2.8.24V59.34l9.2-.8v2.31l-3.43.3-1.71,1.6v3.77l1.53,1.39,5.51-.49ZM68.45,59.2l-2.63.23v-1.9l2.63-.23Zm0,2.58L65.82,62V60.1l2.63-.23Z"/><path d="M76.84,69l-5.78.51V64.3l-.91-.48,1.52-2.61-1.33.12V59.81l1.1-.09-1.27-.62,1.39-2.57,1.52.64,3.44-.29V58.4l-1.34.11-.53.92,2.19-.19v1.52L74.62,61l1.34.31-.15.49,1-.09V63l-1.18.1v.74l1.14-.1V65l-1.14.1v.73l1.14-.1V67l-1.14.1v.72l1.18-.1ZM73.12,58.69l-.93.08-.52.93.9-.08Zm1,5.24v-.74l-1.19.1V64Zm0,2V65.2l-1.19.1V66Zm0,2v-.72l-1.19.1V68Zm.5-7-.86.07-.55.95,1.07-.09Zm5.33,5.53-1.43,2.64-1.42-.72,1.39-2.58Zm3.3,1.94-3.12.28V65.45l-2.69.24V56.4l5.52-.48V65.2l-1.15.11V66.6l1.44-.12Zm-2.09-9.66v-.94L79.2,58v.94Zm0,2.41v-.93l-1.92.17v.93Zm0,2.46v-1l-1.92.16v1Z"/><path d="M91.17,60.3l-6.24.55v-5l6.24-.55v1.06l-1.25.11v.38l1.25-.11v2.09L89.92,59v.41l1.25-.11Zm6.31,7-5.92.52v-2L89,66l.53.57-2.46,2-1.23-1.24,1.53-1.22-2,.17V61.19l11.25-1v5.13l-3,.26v.52l3.79-.33ZM88.34,57v-.39l-1.5.13v.39Zm1.06,1.16v-.41L86.84,58v.42Zm-1.06,1.34V59.1l-1.5.13v.41Zm6.17,2.26v-.38l-7,.61v.38Zm0,1.38v-.41l-7,.61v.41Zm0,1.37v-.38l-7,.6v.39Zm3-7.52-4.24.37-.36.87-1.69-.57,1.19-2.89,1.73.49-.19.43,3.56-.31Zm-.36,2.52L92,60V58.42L97.12,58Z"/><path d="M111.67,56.91l-1.86.16V66l-2.31.2V65.12l-5.36.47-1.9-1.7V61l1.9-2,5.36-.47V57.27L99.42,58V55.72l8.08-.7V53.88l2.31-.2v1.13l1.86-.16Zm-4.17,6V60.7l-4.39.39-.58.55v1.14l.58.48Z"/><path d="M126,62.28l-2.3,2.5-8,.71L114,64V61.53l1.69-1.83,3-.26L120.34,61v1.86l2.27-.2.89-1V59.17l-.9-.83-4.71.41.55-3-4.72.41V53.88l7.44-.65-.53,3,3.06-.26L126,58.1Zm-7.78.73V61.75l-.54-.46-1.19.1-.5.55v.8l.44.42Z"/></g></g></svg>