<svg xmlns="http://www.w3.org/2000/svg" viewBox="0 0 412.38 504.15"><defs><style>.tap_btn1_svg1{fill:#aeb204;}.tap_btn1_svg2{fill:#959904;}.tap_btn1_svg3{fill:#bfce02;}</style></defs><title>アセット 12</title><g id="レイヤー_2" data-name="レイヤー 2"><g id="content"><polygon class="tap_btn1_svg1" points="157.5 0 412.38 254.88 412.38 332.88 157.5 78 157.5 0"/><polygon class="tap_btn1_svg2" points="0 91.78 412.38 504.15 412.38 332.88 157.5 78 0 91.78"/><polygon class="tap_btn1_svg3" points="157.5 0 0 13.78 0 91.78 157.5 78 157.5 0"/><path d="M43.91,35.2l-1.85.16v.71l-6.6,8.47-11.33,1V41.07l9.4-.83L37,35.8l-9.17.8V32.54l9.8-.86V27.62l-8.55.75-3.63,5.07-4.07.35V29.32l2-.17,3.56-5.06,15.13-1.33V31.3l1.85-.17Z"/><path d="M52.75,31.73,50.34,43.24,46,43.62,48.41,32v-10l4.34-.38Zm16-2.47L65.91,41.88l-10.21.89V21.42L60,21V38.41l2.54-.23,1.9-8.54Z"/><path d="M95.6,29.45l-1.52,3.16,1.25,7.28-2.92.79-.56-3.41L90.6,39.82l-2.28-1v1.75l-7.52.66V29.61L88.32,29v9L91,32.42l-.84-4.85-10.89.95v13l-2.9.25V40.23l-5.23,1.32-.53-3.36,1-.29V22.26l-.68.06V19l8.88-.78v3.35l-.58.05v3.89l2-.18V21.82l-.76.07v-3l2.34-.2V17.37L86,17.09v1.32l2.24-.19v3l-.74.07v3.48l2.18-.19-1.24-7.33,2.87-.79,1.34,7.86,2.31-.21v3l-1.77.16.17,1.12ZM76.38,24.79V21.84L74.56,22V25Zm0,6V28.06l-1.82.16V31Zm0,5.92V34.08l-1.82.16v2.95Zm9.17-3.06V31.86l-2,.17v1.83Zm0,4.46V36.3l-2,.17v1.86ZM85.12,25V21.49l-1.5.13V25.1ZM95,21.89l-2,.46-.66-5,2.06-.41Z"/><path d="M112.87,16.67l-11.3,22.85-4-1.71L108.8,15Zm7.77,18.69L117,38.25l-9.12-11.31,3.55-2.85Z"/><path d="M43.63,70.14l-4.27,4.61L22,76.27V51.42l17.34-1.51,4.3,3.89v5.7l-2.52,2.65,2.52,2.23Zm-5.3-11.6V56.45L36.78,55.1l-9.61.84V61l9.64-.84Zm0,9.82V66.24l-1.52-1.39-9.64.85v5.12L36.78,70Z"/><path d="M67.25,64.34,51.61,65.71v2L53,69,66.5,67.77v4.61l-16,1.4-3.85-3.64V57.72l3.85-4.16,12.94-1.13,3.79,3.64ZM62.31,60.9V58.41L61,57.26,53,58l-1.4,1.52v2.36Z"/><path d="M90.8,70.22,73.61,71.73,70,68.44V63.07l3.54-3.91,12.34-1.08V56.14l-1.21-1L70.89,56.39V51.75l16.3-1.43,3.61,3.51Zm-4.94-4.11V62L76,62.85l-1.27,1.41v1.49L76,67Z"/><path d="M119.9,67.71l-4.91.43V54.47l-1.52-1.35-2.63.23L109.35,55V68.63l-4.82.42V55.41L103.08,54l-2.67.23-1.48,1.61V69.54L94,70V53.55l3.75-4.12,6.61-.58L107,51l2.57-2.59,6.61-.58,3.76,3.46Z"/><polygon points="137.94 30.47 148.06 39.69 137.94 50.69 137.94 30.47"/></g></g></svg>