<?xml version="1.0" standalone="no"?>
<!DOCTYPE svg PUBLIC "-//W3C//DTD SVG 20010904//EN"
 "http://www.w3.org/TR/2001/REC-SVG-20010904/DTD/svg10.dtd">
<svg version="1.0" xmlns="http://www.w3.org/2000/svg"
 width="744.000000pt" height="744.000000pt" viewBox="0 0 744.000000 744.000000"
 preserveAspectRatio="xMidYMid meet">
<metadata>
Created by potrace 1.11, written by Peter Selinger 2001-2013
</metadata>
<g transform="translate(0.000000,744.000000) scale(0.100000,-0.100000)"
fill="#000000" stroke="none">
<path d="M240 3720 l0 -3720 1343 0 1343 0 1 1008 c0 985 0 1007 19 1004 10
-1 55 -16 99 -32 44 -15 159 -56 255 -90 186 -65 264 -93 455 -160 66 -23 158
-55 205 -72 47 -16 108 -37 135 -48 73 -27 288 -102 300 -104 6 -1 15 -4 20
-8 6 -3 26 -11 45 -16 19 -6 73 -25 120 -42 47 -17 110 -39 140 -50 30 -10
120 -42 200 -70 80 -29 150 -53 155 -54 11 -3 40 -14 70 -26 11 -4 63 -22 115
-40 52 -18 104 -36 115 -40 11 -4 34 -13 50 -18 108 -38 213 -75 230 -82 11
-5 45 -16 75 -26 30 -9 61 -21 68 -27 6 -5 12 -7 12 -3 0 4 13 0 30 -9 16 -8
33 -15 37 -15 11 0 44 -10 68 -19 62 -26 83 -33 168 -62 77 -26 190 -66 572
-200 17 -6 39 -15 50 -19 33 -13 179 -64 190 -66 15 -3 203 -72 213 -78 5 -3
20 -7 35 -10 l27 -5 0 1288 0 1288 -177 67 c-98 37 -187 71 -198 76 -11 4 -67
26 -125 48 -292 112 -398 152 -425 163 -16 7 -33 13 -37 14 -5 2 -10 4 -13 5
-3 1 -8 3 -12 5 -10 2 -43 15 -68 25 -11 5 -69 27 -130 50 -60 22 -121 45
-134 51 -13 5 -78 30 -145 55 -197 74 -250 95 -271 104 -11 5 -117 45 -235 90
-118 45 -226 86 -240 92 -14 6 -29 12 -35 14 -11 2 -189 70 -220 83 -11 5 -56
23 -100 39 -44 17 -109 42 -145 55 -36 14 -96 37 -135 51 -38 15 -79 30 -90
35 -11 5 -47 19 -80 31 -33 12 -69 26 -80 30 -55 23 -154 60 -162 60 -4 1 -26
9 -48 20 -22 11 -44 19 -48 20 -5 0 -23 6 -40 14 -49 21 -176 68 -179 65 -2
-1 -14 4 -28 11 -14 8 -27 15 -30 16 -3 0 -14 4 -25 8 -44 17 -145 56 -231 90
-51 20 -95 36 -99 36 -4 0 -21 7 -38 15 -18 8 -77 31 -132 51 -55 20 -104 42
-110 49 -7 8 -10 475 -9 1358 l1 1347 -1344 0 -1343 0 0 -3720z"/>
</g>
</svg>
