<svg xmlns="http://www.w3.org/2000/svg" viewBox="0 0 257 44"><defs><style>.a{fill:#c69c6d}</style></defs><title>btn_backto_tap</title><path class="a" d="M0 0h257v44H0z"/><path d="M13.26 21.55L21 14.94v13.21l-7.74-6.6zm37.86-4.61H49.3v2.76h-9.81v5.95H50.8v3.1H36.38V14h3.11v2.61h5.73v-3.38h2.44v3.34h1v-3.34h2.44zM65.9 23H51.78v-3.2H65.9zm16.95 5.75h-3.26L79.11 27l-3.28 1.76H67.2v-3.12L71.52 14h3.32L70.5 25.64h5l2.88-1.48-1-3.64h3.14zm11.2-11.96h-4.84v11.29h-3.09V16.79h-4.83V13.7h12.76zm13.6 11.29h-3v-3.6H98.1v3.6h-3v-11.5l2.9-2.91h6.81l2.88 2.91zm-3-6.66v-3.5l-1.27-1.28h-4l-1.28 1.28v3.5zm16.91-.48l-2.88 2.83h-6.44v4.31h-3V13.7h9.47l2.88 2.85zm-3-1.39v-1.68l-1.25-1.23h-5v4.15h5zm20.19-.43h-2.47v5.32l-3.73 4.31h-6.08v-3.11h4.72l2-2.36v-4.06h-6.28l-1 2.9h-3.21V19h1l1.65-5h3.32l-.67 2.13h7.3v.52h3.5zm0-3.45H135v-2.44h3.71zM154.1 23H140v-3.2h14.1zm16.95 5.75h-3.26l-.48-1.75-3.31 1.75h-8.6v-3.11L159.73 14H163l-4.3 11.64h5l2.87-1.48-1-3.64h3.15zm17.07.25h-6.21V18.83L180.16 17h-3.39L175 18.85v7.88h-3v-9.11l3.44-3.6h6l3.44 3.6V26h3.21zm17.4-3.8h-4l2.62 2.8-1.89 1.64-2.77-3.08 1.59-1.4h-2.21l-2.57 4.37-2.29-1.24 1.83-3.09h-2.68v-2.38h4.08l.79-1.35h-5.29v1.44l-1 6.44L189 29l1-6.05v-6.81h15.39v5.33h-5.95l1.36.62-.44.73h5.26zm.19-9.86h-16.6v-2.29h16.6zm-3.23 4.09v-1.26h-9.79v1.26zm20.15 6.65l-3 3h-10.4l-2.13-2.18v-3.14l2.17-2.17h3.9l2.17 2.15v2.39h2.93l1.15-1.13v-3.21l-1.17-1.16h-6.07l.71-3.82h-6.09v-2.92h9.6l-.69 3.85h4l3 3zm-10 .05v-1.62l-.69-.65h-1.53l-.66.65v1l.57.6z"/></svg>