<svg xmlns="http://www.w3.org/2000/svg" viewBox="0 0 191.89 5.56"><title>copyright</title><path d="M1.55 5.56A1.43 1.43 0 0 1 0 4.1V1.46A1.44 1.44 0 0 1 1.55 0 1.32 1.32 0 0 1 3 1.39V2h-.9v-.6a.49.49 0 0 0-.53-.53.49.49 0 0 0-.57.51v2.8a.49.49 0 0 0 .55.51.48.48 0 0 0 .54-.52v-.64H3v.64a1.32 1.32 0 0 1-1.45 1.39zm3.98 0A1.41 1.41 0 0 1 4 4.11V1.46A1.41 1.41 0 0 1 5.53 0a1.41 1.41 0 0 1 1.53 1.46v2.65a1.4 1.4 0 0 1-1.53 1.45zm.52-4.17a.48.48 0 0 0-.52-.52.48.48 0 0 0-.53.52v2.78a.48.48 0 0 0 .51.52.47.47 0 0 0 .52-.52zM9.8 3.41h-.65v2h-1V.12H9.8a1.11 1.11 0 0 1 1.2 1.2v.89a1.11 1.11 0 0 1-1.2 1.2zm.25-2.07c0-.27-.1-.4-.35-.4h-.55v1.7h.55c.25 0 .35-.14.35-.4zm3.85 1.93v2.18h-1V3.27L11.71.12h1l.7 2.17.71-2.17h1zm4.61 2.21c-.4 0-.55-.32-.55-.79v-1a.4.4 0 0 0-.41-.45H17v2.21h-1V.12h1.66a1.11 1.11 0 0 1 1.23 1.16V2a.78.78 0 0 1-.61.82.83.83 0 0 1 .62.81v1a.7.7 0 0 0 .2.54v.3zm-.58-4.16c0-.24-.11-.38-.36-.38H17V2.5h.51c.26 0 .4-.13.4-.42zm2.16 4.13V.12h1v5.33zm4.59 0L24.54 5a1 1 0 0 1-1 .54 1.32 1.32 0 0 1-1.39-1.39V1.39A1.41 1.41 0 0 1 23.71 0a1.36 1.36 0 0 1 1.49 1.39v.55h-1v-.59a.47.47 0 0 0-.52-.48.48.48 0 0 0-.53.5v2.84a.49.49 0 0 0 .54.49.48.48 0 0 0 .53-.49v-.75h-.53v-.72h1.5v2.71zm3.74 0V3.26H27.3v2.19h-1V.12h1v2.25h1.12V.12h1v5.33zM32.39 1v4.45h-1V1h-1V.12h3V1zM37 5.56a1.35 1.35 0 0 1-1.5-1.37v-.37h.93v.31c0 .4.18.61.55.61a.48.48 0 0 0 .53-.53c0-.43-.28-.72-.81-1.11a2.21 2.21 0 0 1-1.15-1.66A1.37 1.37 0 0 1 37.06 0a1.33 1.33 0 0 1 1.42 1.37v.34h-.91V1.4a.5.5 0 0 0-.51-.57.46.46 0 0 0-.49.48c0 .45.27.68.87 1.11a2.09 2.09 0 0 1 1.09 1.67A1.41 1.41 0 0 1 37 5.56zm4.05 0a1.39 1.39 0 0 1-1.52-1.35V.12h1v4.09a.51.51 0 0 0 1 0V.12h1v4.09a1.36 1.36 0 0 1-1.48 1.35zM46 5.45l-1-2.28-.38-.84v3.12h-.92V.12h.86l1 2.31.35.85V.12h.91v5.33zM49.74 1v4.45h-1V1h-1V.12h3V1zm3.43 4.56a1.41 1.41 0 0 1-1.53-1.45V1.46a1.53 1.53 0 0 1 3.06 0v2.65a1.4 1.4 0 0 1-1.53 1.45zm.52-4.17a.52.52 0 1 0-1 0v2.78a.52.52 0 1 0 1 0zm4.58 4.09c-.39 0-.55-.32-.55-.79v-1a.4.4 0 0 0-.41-.45h-.53v2.21h-1V.12h1.66a1.11 1.11 0 0 1 1.23 1.16V2a.78.78 0 0 1-.61.82.83.83 0 0 1 .62.81v1a.74.74 0 0 0 .2.54v.3zm-.58-4.16c0-.24-.11-.38-.36-.38h-.55V2.5h.51c.26 0 .4-.13.4-.42zm3.93 1.95v2.18h-1V3.27L59.42.12h1.06l.69 2.17.66-2.17h1zm5.55 2.18V3.26H66v2.19h-1V.12h1v2.25h1.13V.12h1v5.33zm3.61.11a1.41 1.41 0 0 1-1.52-1.45V1.46a1.53 1.53 0 0 1 3 0v2.65a1.4 1.4 0 0 1-1.48 1.45zm.52-4.17a.52.52 0 1 0-1 0v2.78a.52.52 0 1 0 1 0zm2.1 4.06V.12h1v4.45h1.5v.88zm5.02 0h-1.55V.12h1.55a1.35 1.35 0 0 1 1.47 1.44v2.49a1.32 1.32 0 0 1-1.47 1.4zm.46-3.88c0-.39-.16-.59-.53-.59h-.48v3.61h.48c.37 0 .53-.21.53-.58zM81 5.45V.12h1v5.33zm4.44 0l-1-2.28-.44-.84v3.12h-.9V.12h.9l1 2.31.35.85V.12h.91v5.33zm4.37 0L89.68 5a1.06 1.06 0 0 1-1 .54 1.31 1.31 0 0 1-1.38-1.39V1.39A1.41 1.41 0 0 1 88.84 0a1.36 1.36 0 0 1 1.49 1.38v.55h-1v-.58a.47.47 0 0 0-.52-.48.48.48 0 0 0-.52.5v2.84a.48.48 0 0 0 .53.49.48.48 0 0 0 .53-.49v-.75h-.52v-.72h1.49v2.71zm3.02.11a1.34 1.34 0 0 1-1.5-1.37v-.37h.92v.31c0 .4.19.61.55.61a.49.49 0 0 0 .54-.53c0-.43-.28-.72-.81-1.11a2.21 2.21 0 0 1-1.15-1.66A1.37 1.37 0 0 1 92.85 0a1.33 1.33 0 0 1 1.42 1.37v.34h-.92V1.4a.5.5 0 0 0-.51-.57.45.45 0 0 0-.48.48c0 .45.26.68.86 1.11a2.09 2.09 0 0 1 1.09 1.67 1.4 1.4 0 0 1-1.48 1.47zm3.92-.11V.12h1v4.45h1.5v.88zm3.46 0V.12h1v5.33zm5.33 0V1.58l-.21 1.16-.58 2.71H104l-.54-2.71-.21-1.16v3.87h-.9V.12h1.35l.56 2.7.17 1 .18-1 .55-2.7h1.34v5.33zm2.08 0V.12h1v5.33zM111.58 1v4.45h-1V1h-1V.12h3V1zm1.94 4.45V.12h2.57V1h-1.56v1.29h1.08v.79h-1.08v1.48h1.56v.89zm5.14 0h-1.55V.12h1.55a1.35 1.35 0 0 1 1.47 1.44v2.49a1.32 1.32 0 0 1-1.47 1.4zm.46-3.88c0-.39-.16-.59-.53-.59h-.48v3.61h.48c.37 0 .53-.21.53-.58zm2.06 3.88v-1h.82v1zm5.27 0l-.18-1h-1l-.19 1h-.94l1.13-5.33h1.13l1.07 5.33zm-.63-3.89l-.36 2.05h.69zm2.58 3.89V.12h1v4.45h1.51v.88zm3.47 0V.12h1v4.45h1.51v.88zm7.33.03c-.4 0-.55-.32-.55-.79v-1a.4.4 0 0 0-.41-.45h-.53v2.21h-1V.12h1.66a1.11 1.11 0 0 1 1.23 1.16V2a.78.78 0 0 1-.61.82.83.83 0 0 1 .62.81v1a.7.7 0 0 0 .2.54v.3zm-.58-4.16c0-.24-.11-.38-.36-.38h-.55V2.5h.51c.26 0 .4-.13.4-.42zm2.16 4.13V.12h1v5.33zm4.59 0l-.14-.45a1 1 0 0 1-1 .54 1.32 1.32 0 0 1-1.39-1.39V1.39A1.41 1.41 0 0 1 144.4 0a1.36 1.36 0 0 1 1.49 1.38v.55h-1v-.58a.47.47 0 0 0-.52-.48.48.48 0 0 0-.53.5v2.84a.49.49 0 0 0 .54.49.48.48 0 0 0 .53-.49v-.75h-.52v-.72h1.49v2.71zm3.74 0V3.26H148v2.19h-1V.12h1v2.25h1.12V.12h1v5.33zM153.08 1v4.45h-1V1h-1V.12h3V1zm3.32 4.56a1.34 1.34 0 0 1-1.49-1.37v-.37h.92v.31c0 .4.19.61.55.61a.48.48 0 0 0 .53-.53c0-.43-.27-.72-.8-1.11A2.21 2.21 0 0 1 155 1.44 1.37 1.37 0 0 1 156.43 0a1.32 1.32 0 0 1 1.41 1.37v.34h-.91V1.4a.5.5 0 0 0-.51-.57.45.45 0 0 0-.48.48c0 .45.26.68.86 1.11a2.09 2.09 0 0 1 1.09 1.67 1.41 1.41 0 0 1-1.49 1.47zm6.41-.08c-.39 0-.55-.32-.55-.79v-1a.4.4 0 0 0-.41-.45h-.52v2.21h-1V.12H162a1.11 1.11 0 0 1 1.23 1.16V2a.78.78 0 0 1-.61.82.84.84 0 0 1 .63.81v1a.74.74 0 0 0 .19.54v.3zm-.58-4.16c0-.24-.1-.38-.35-.38h-.55V2.5h.51c.25 0 .39-.13.39-.42zm2.16 4.13V.12H167V1h-1.57v1.29h1.09v.79h-1.09v1.48H167v.89zm4.99.11a1.34 1.34 0 0 1-1.49-1.37v-.37h.92v.31c0 .4.19.61.55.61a.48.48 0 0 0 .53-.53c0-.43-.27-.72-.81-1.11a2.2 2.2 0 0 1-1.14-1.66A1.37 1.37 0 0 1 169.41 0a1.32 1.32 0 0 1 1.41 1.37v.34h-.91V1.4a.5.5 0 0 0-.51-.57.46.46 0 0 0-.49.48c0 .45.27.68.87 1.11a2.09 2.09 0 0 1 1.09 1.67 1.41 1.41 0 0 1-1.49 1.47zm2.51-.11V.12h2.57V1h-1.57v1.29H174v.79h-1.08v1.48h1.57v.89zm6.11.03c-.39 0-.55-.32-.55-.79v-1a.4.4 0 0 0-.41-.45h-.53v2.21h-1V.12h1.66a1.11 1.11 0 0 1 1.23 1.16V2a.78.78 0 0 1-.61.82.83.83 0 0 1 .62.81v1a.74.74 0 0 0 .2.54v.3zm-.58-4.16c0-.24-.11-.38-.36-.38h-.55V2.5h.49c.26 0 .4-.13.4-.42zm3.92 4.13h-1L179.19.12h1l.65 3.67.68-3.67h1zm2.12 0V.12H186V1h-1.57v1.29h1.08v.79h-1.08v1.48H186v.89zm5.14 0H187V.12h1.56a1.36 1.36 0 0 1 1.47 1.44v2.49a1.32 1.32 0 0 1-1.43 1.4zm.46-3.88c0-.39-.16-.59-.54-.59h-.47v3.61h.47c.38 0 .54-.21.54-.58zm2.05 3.88v-1h.78v1z"/></svg>