<svg width="7.1px" height="174.7px" viewBox="0 0 7.1 174.7">
<style type="text/css">
	.text_svg{fill:#E60012;}
</style>
<defs>
</defs>
<g>
	<path class="text_svg" d="M0.2,5.1c1.2-1.2,1.8-3.4,2.1-5L3,0.3c-0.5,2.1-1.2,4.1-2,5.1L0.2,5.1z M6,5.3C5.7,3.6,4.8,1.7,3.9,0.3L4.4,0
		c0.8,1.2,2,3.5,2.3,4.9L6,5.3z"/>
	<path class="text_svg" d="M3,14.6c-0.1-0.8-0.4-1.6-0.7-2.1l0.5-0.2c0.2,0.4,0.6,1.4,0.7,2L3,14.6z M2.9,17c1.7-0.7,2.7-2.4,2.9-5
		c0.1,0,0.4,0.1,0.6,0.2c0.1,0,0.1,0.1,0.1,0.1c0,0.1-0.1,0.2-0.2,0.2C6,15.1,5,16.5,3.4,17.5L2.9,17z M4.2,14.1
		c-0.1-0.8-0.3-1.6-0.6-2.1l0.5-0.2c0.2,0.5,0.5,1.4,0.6,2L4.2,14.1z"/>
	<path class="text_svg" d="M5.7,30.9C5.1,31,4.3,31,3.7,31c-1.3,0-2.1-0.4-2.1-1.9c0-0.8,0.1-4.2,0.1-4.2c0-0.3,0-0.6,0-0.8
		c0.8,0,0.8,0.1,0.8,0.2c0,0.1-0.1,0.2-0.2,0.2c0,0.1,0,0.2-0.1,2.5c0.9-0.4,2.2-1.1,3-1.8c0.1,0.2,0.5,0.7,0.5,0.8
		c0,0.1,0,0.1-0.1,0.1c-0.1,0-0.2,0-0.2-0.1c-1.1,0.7-2.5,1.4-3.2,1.7c0,0.5,0,1,0,1.1c0,0.9,0.1,1.4,1.5,1.4c0.6,0,1.5-0.1,2.3-0.3
		L5.7,30.9z M6.3,23.2c0.5,0,0.9,0.5,0.9,1.2c0,0.6-0.4,1.2-0.9,1.2c-0.5,0-0.9-0.5-0.9-1.2C5.4,23.7,5.8,23.2,6.3,23.2z M6.3,24.9
		c0.3,0,0.5-0.3,0.5-0.6c0-0.3-0.2-0.6-0.5-0.6S5.8,24,5.8,24.3C5.8,24.7,6,24.9,6.3,24.9z"/>
	<path class="text_svg" d="M3.2,38.4c0,0,0-0.6,0-1.1c0.8,0,0.9,0.2,0.9,0.2c0,0.1-0.1,0.1-0.2,0.2c0,0.1,0,0.3,0,0.5c0,0.1,0,0.1,0,0.2
		v6.8l-0.6,0V38.4z"/>
	<path class="text_svg" d="M0.6,56.2h2.7v-3.8H1.1v-0.7H6v0.7H3.8v3.8h2.7v0.8H0.6V56.2z"/>
	<path class="text_svg" d="M1.4,63.5c0.6,0.4,1.4,1.2,1.7,1.8L2.6,66c-0.4-0.8-1.1-1.6-1.6-2L1.4,63.5z M6.5,65.7c-1.2,2-2.8,3.7-4.7,4.4
		c0,0.2,0,0.3-0.1,0.3c-0.1,0-0.6-0.8-0.6-0.9c0,0,0,0,0-0.1s0,0,0,0c2.2-0.4,4.2-2.7,5.2-4.6L6.5,65.7z"/>
	<path class="text_svg" d="M2.7,77.3c0,0,0-0.6,0-1c0.8,0.1,0.9,0.1,0.9,0.2c0,0.1-0.1,0.2-0.2,0.2c0,0.2,0,0.5,0,0.6c0,0.1,0,0.2,0,0.2
		v1.3c0.8,0.3,2.1,1,2.8,1.5l-0.4,0.8C4.8,80.4,4,80,3.2,79.6v4.8H2.7V77.3z M4.6,77.1c0.1,0.1,0.7,0.5,1.1,0.9l-0.3,0.5
		c-0.2-0.3-0.8-0.8-1.1-1L4.6,77.1z M5.2,76.2c0.1,0,0.7,0.4,1.1,0.9L6,77.6c-0.3-0.3-0.7-0.7-1.1-1L5.2,76.2z"/>
	<path class="text_svg" d="M1.2,97.8c-0.3-0.7-0.3-1.6-0.3-2.4c0-0.2,0-0.3,0-0.5c0.1-2,0.4-3.3,0.5-4.6c0-0.1,0-0.1,0-0.1
		c0,0,0.4,0.1,0.6,0.2c0.1,0,0.1,0.1,0.1,0.1c0,0.1-0.1,0.1-0.2,0.1c-0.1,0.7-0.5,2.5-0.6,3.9c0,0,0,0.3,0,0.6c0,0.4,0,0.5,0,0.5
		c0,0,0.7-2.1,0.7-2.1c0,0,0.1,0.4,0.2,0.7c-0.1,0.6-0.4,1.3-0.5,1.9c0,0.2-0.1,0.5-0.1,0.9c0,0.2,0,0.4,0,0.5c0,0,0,0,0,0
		c0,0,0,0.1,0,0.1L1.2,97.8z M3.5,95.3c-0.1,0.1-0.2,0.3-0.2,0.4c0,0.4,0.6,0.8,1.4,0.8c0.5,0,1-0.1,1.6-0.4L6.2,97
		c-0.5,0.2-1,0.3-1.4,0.3c-1.2,0-2-0.7-2-1.4c0-0.3,0.2-0.6,0.3-0.7L3.5,95.3z M3.1,91.3c0.3,0.1,0.7,0.2,1.1,0.2
		c0.6,0,1.2-0.1,1.8-0.2V92c-0.4,0.1-1,0.2-1.6,0.2c-0.5,0-0.9-0.1-1.2-0.2L3.1,91.3z"/>
	<path class="text_svg" d="M6.3,109.4c-0.6,0.9-1.8,2.1-2.9,2.1c-1.6,0-1.7-1.6-1.7-2.8c0-1.3,0.1-2.9,0.1-4.3c0-0.2,0-0.5,0-0.7
		c0.2,0,0.6,0,0.7,0.1c0.1,0,0.1,0.1,0.1,0.1c0,0.1-0.1,0.2-0.2,0.2c-0.1,1.5-0.2,3.4-0.2,4.6c0,1.3,0.2,2,1.2,2
		c1.1,0,2.2-1.4,2.6-2.3L6.3,109.4z"/>
	<path class="text_svg" d="M1.1,118.9C1.1,118.9,1.1,118.9,1.1,118.9c0-0.1,0-0.1,0-0.1C1.1,118.8,1.1,118.8,1.1,118.9
		c0.4,0.1,0.8,0.2,1.2,0.2c0.4,0,0.9-0.1,1.2-0.1v-0.4c0-0.4,0-0.9,0-1.3c0.8,0,0.8,0.2,0.8,0.2c0,0.1-0.1,0.1-0.2,0.2
		c0,0.4,0,0.7,0,1.1l0,0.2c0.6-0.1,1.1-0.2,1.7-0.4l0,0.7c-0.5,0.1-1.1,0.2-1.7,0.4c0,0.5,0,1,0,1.5c0.5-0.1,1-0.2,1.5-0.5v0.7
		c-0.5,0.2-1,0.3-1.5,0.4c0,0.7,0,1.3,0.1,1.8c0.9,0.3,1.6,0.8,2.1,1.4l-0.5,0.5c-0.4-0.6-1.1-1-1.5-1.3c-0.1,1.1-0.6,1.6-1.3,1.6
		c-0.8,0-1.5-0.5-1.5-1.2c0-0.5,0.4-1.2,1.6-1.2c0.2,0,0.4,0,0.7,0.1c0-0.5,0-1-0.1-1.6c-0.5,0.1-0.7,0.1-0.8,0.1
		c-0.8,0-1.1-0.2-1.1-0.6c0-0.2,0.2-0.5,0.4-0.7l0.5,0.1c-0.2,0.2-0.3,0.3-0.3,0.4c0,0.1,0.2,0.2,0.6,0.2c0.2,0,0.4,0,0.8-0.1
		c0-0.5,0-1,0-1.5c-0.8,0.1-1.2,0.2-1.5,0.2c-0.3,0-0.6,0-0.9-0.2L1.1,118.9z M2.9,123.9c-0.3,0-1,0.1-1,0.6c0,0.4,0.5,0.6,0.9,0.6
		c0.5,0,0.8-0.3,0.9-1.1C3.4,123.9,3.1,123.9,2.9,123.9z"/>
	<path class="text_svg" d="M0,134.8C0,134.8,0,134.8,0,134.8C0,134.7,0,134.7,0,134.8c0.1-0.1,0.9-0.1,2-0.5c0-0.1,0-0.3,0-0.4
		c0-0.7,0-1.4-0.1-1.7c0.8,0,0.8,0.1,0.8,0.2c0,0.1-0.1,0.2-0.2,0.2c0,0.4,0,1,0,1.7c0.6-0.2,1.3-0.3,2.1-0.5c0-0.4,0-0.8,0-1.1
		c0-0.4,0-0.7,0-0.9c0,0,0.8,0,0.8,0.2c0,0.1-0.1,0.2-0.2,0.2c0,0.4,0,0.9-0.1,1.5c0.6-0.1,1.2-0.2,1.8-0.2l-0.1,0.7
		c-0.1,0-0.3,0-0.4,0c-0.4,0-0.9,0-1.3,0.1c0,0.6-0.1,1.1-0.1,1.5c-0.2,0.9-0.6,1.3-1.1,1.3c-0.2,0-0.4-0.1-0.6-0.2L3.1,136
		c0.2,0.2,0.5,0.4,0.8,0.4c0.6,0,0.7-0.8,0.8-2c-0.7,0.1-1.4,0.3-2,0.5c0,0.5,0,1,0,1.4c0,0.1,0,0.2,0,0.3c0,1.1,0.1,1.8,1.4,1.8
		c0.6,0,1.2-0.1,1.7-0.3l-0.1,0.9C5.1,139,4.6,139,4.2,139c-1.8,0-2.1-1-2.1-2.5c0-0.1,0-0.2,0-0.3c0-0.4,0-0.8,0-1.3
		c-0.2,0.1-0.4,0.1-0.5,0.2c-0.5,0.1-1,0.3-1.3,0.4L0,134.8z"/>
	<path class="text_svg" d="M0.5,152.5c0.3-1.1,0.6-1.6,0.6-1.8c0.5-1.4,0.9-2.5,1.3-3.4c0.6-1.4,0.7-1.7,0.8-2.1c0.8,0.4,0.8,0.5,0.8,0.5
		c0,0.1-0.1,0.1-0.2,0.1c0,0,0,0-0.1,0c-1.4,2.9-1.8,4.2-1.8,4.3c0,0,0,0,0,0c0,0,0,0,0,0c0.4-0.7,0.8-0.9,1.2-0.9
		c0.4,0,0.8,0.3,0.8,1.6c0,0.8,0.1,1.2,0.6,1.2c1,0,1.6-1.8,1.8-3.1l0.5,0.8c-0.1,0.3-0.7,3.1-2.3,3.1c-0.9,0-1-0.9-1.1-1.9
		c0-0.6-0.1-1-0.4-1c-0.4,0-1.2,1-1.6,2.1c-0.1,0.2-0.1,0.5-0.2,0.8L0.5,152.5z"/>
	<path class="text_svg" d="M0.4,166.3c0.8-1.7,1.4-3.4,1.9-4.8c-0.8,0.2-1.1,0.3-1.4,0.3c-0.1,0-0.1,0-0.1,0l-0.2-0.7c0,0,0,0,0,0
		c0,0,0-0.1,0.1-0.1c0.2,0,0.4,0.1,0.6,0.1c0.2,0,0.4,0,0.7-0.1l0.7-0.1c0.2-0.7,0.4-1.5,0.4-2.2c0.1,0,0.5,0.1,0.7,0.2
		c0.1,0,0.1,0.1,0.1,0.1c0,0.1-0.1,0.2-0.2,0.2c-0.1,0.3-0.2,1-0.4,1.6l0.2-0.1c0.1,0,0.2,0,0.3,0c0.8,0,1,1,1,2
		c0,0.7-0.1,1.6-0.2,2.2c-0.2,0.9-0.8,1.4-1.4,1.4c-0.3,0-0.6-0.1-0.8-0.4L2,165c0.2,0.4,0.6,0.6,0.9,0.6c0.4,0,0.7-0.3,0.9-0.9
		c0.1-0.5,0.2-1.4,0.2-2.1c0-0.8-0.1-1.3-0.6-1.3c-0.1,0-0.3,0.1-0.6,0.1c-0.5,1.5-1,3.1-1.8,5L0.4,166.3z M5.4,160.7
		c1,0.8,1.7,1.8,1.7,2.7l-0.5,0.4c0,0,0,0,0,0c0,0,0,0,0-0.1c-0.1-0.9-0.6-2-1.6-2.7c0,0,0,0,0-0.1c0,0,0,0,0,0L5.4,160.7z"/>
	<path class="text_svg" d="M5.9,171.8c0.6,0,1.1,0.6,1.1,1.4c0,0.8-0.5,1.4-1.1,1.4c-0.6,0-1.1-0.6-1.1-1.4
		C4.8,172.4,5.3,171.8,5.9,171.8z M6.5,173.2c0-0.5-0.3-0.9-0.6-0.9c-0.3,0-0.6,0.4-0.6,0.9c0,0.5,0.3,0.8,0.6,0.8
		C6.2,174.1,6.5,173.7,6.5,173.2z"/>
</g>
</svg>