<svg xmlns="http://www.w3.org/2000/svg" viewBox="0 0 412.38 504.15"><defs><style>.btn6_svg1{fill:#c9142f;}.btn6_svg2{fill:#af1228;}.btn6_svg3{fill:#e4142c;}</style></defs><title>アセット 20</title><g id="レイヤー_2" data-name="レイヤー 2"><g id="content"><polygon class="btn6_svg1" points="157.5 0 412.38 254.88 412.38 332.88 157.5 78 157.5 0"/><polygon class="btn6_svg2" points="0 91.78 412.38 504.15 412.38 332.88 157.5 78 0 91.78"/><polygon class="btn6_svg3" points="157.5 0 0 13.78 0 91.78 157.5 78 157.5 0"/><polygon points="137.94 29.45 148.06 38.67 137.94 49.67 137.94 29.45"/><path d="M53.14,25.19l-3.81,4.87-8.5.74V28.23l7.31-.64,2.42-3.09V20.23L53.14,20ZM46.68,21l-5.82.51V19l5.82-.51Zm0,4-5.82.5V23l5.82-.51ZM51,19.32l-1.77.16V17.12L51,17Zm2.66-.23-1.77.16V16.89l1.77-.16Z"/><path d="M67.15,28.5l-2.71.24-.39-1.43L61.32,29l-7.16.63V27.05l3.59-10,2.75-.25-3.6,10L61,26.44,63.42,25l-.81-3,2.61-.22Z"/><path d="M80.87,17.46l-1.51.13v2.3l-8.14.71v5l9.39-.82v2.57l-12,1.05V16.05l2.58-.22V18L76,17.58V14.8l2-.18V17.4l.85-.07V14.54l2-.17Z"/><path d="M93.17,21.42l-11.72,1V19.79l11.72-1Z"/><path d="M107.26,25l-2.71.24-.39-1.43-2.73,1.7-7.16.63V23.54l3.59-10,2.75-.25L97,23.3l4.13-.36,2.39-1.44-.81-3,2.61-.22Z"/><path d="M44.53,52l-.64,3.35-3.64-.26.67-3.3Zm17.52-16.9-4,.34v.85l-3.59.32v-.85l-6.58.57v.85l-3.57.32v-.86l-4,.35V34.53l4-.35v-.92L47.92,33v.92l6.58-.58v-.92l3.59-.31V33l4-.35Zm.06,17.48L58.62,54l-1.18-3,3.27-1.32L40.53,51.47V48.8l3.08-.27-2.14-1.6,2.67-3-3.56.31V41.74l6-.53.3-.37,1.93,1.6-5.13,6.09,16.06-1.41-5.11-4.27,2-1.94,1.56,1.29,1.94-2.12,1.75,1.5-1.89,2.08,1.91,1.53L60,47.1l1.86-.16v2.67l-.92.08ZM59.65,38.39l-6.46,3.85v4.67L48,47.37V44.9l1.54-.13V41.32L52,39.93,42,40.8V38.27L57.4,36.93l1.1-.61ZM50.19,54.33l-3.61.85L46,52.1l3.59-.87Zm6-.73L52.5,54.73l-.81-3,3.64-1.14Z"/><path d="M69,38.21l-.88,3.35-5.22-1,.94-3.3Zm.18-5.35-.92,3.32-5.2-1.08,1-3.31Zm-.13,10.39-2.42,9.92-3.48-.43,2.42-10ZM80.79,34.1l-1.45,6.34-2.23-.34.07.46-2.49.54-.16-1-4.76,1.4-.46-2.72.64-.17V31.78l6.19-1.3.32,2.71-3.63.8v3.77l1.31-.36-.28-1.66,2.49-.52L77,39.38l1.27-5.64Zm3.27,17.13L70.27,52.44V42.34l13.79-1.21ZM75.75,45.7V44.39l-2.25.19V45.9Zm0,3.75V48.12l-2.25.19v1.34ZM84.38,40l-3.75.32V37.79l1-.08V33.13l-4.42.39V30.78l7.2-.63Zm-3.57,5.26V43.94l-2.25.2v1.31Zm0,3.75V47.67l-2.25.2V49.2Z"/><path d="M95.75,44.13l-6.26.55L88.59,51l-3.22-.37,1-7.17V34.53l9.36-.82Zm.37-11.88-10.4.91V30l10.4-.91Zm-3.71,9.07V37.15l-2.69.24v4.16Zm14.94-3.72-1.4.12V49.5l-3.32.29V38l-2.18.19-1.2,11.91L96.05,50l1.1-12.2V32.48l-.52.09-.26-3.17,10.4-1.65.42,3.14L100.51,32v2.87l6.84-.59Z"/><path d="M45.16,66.61l-3.78.33V58.87l3.78-.33ZM59.3,68.19l-5.59,7.15-11.28,1V72.55L52,71.71l3.55-4.54V57.24l3.78-.33Zm-7.65-2.14-3.78.33V58.3L51.65,58Z"/><path d="M79.94,62.24l-3.48,3.89-5.52.48-2,7.4-5.3.47V70.69l2.58-.22,1.91-7.37,6.64-.58,1.46-1.61V59.22l-14.85,1.3V56.73l18.61-1.62Z"/><path d="M99.29,64.31,82.1,65.81V61.92l17.19-1.5Z"/><path d="M106.09,65.67,102.7,66V52.21l3.39-.29Zm0,5.45-3.39.3V68l3.39-.29Z"/></g></g></svg>