<svg xmlns="http://www.w3.org/2000/svg" viewBox="0 0 167 80">
  <defs>
  </defs>
  <title>アセット 5</title>
  <g id="レイヤー_2" data-name="レイヤー 2">
    <g id="ガイド">
      <polygon class="cls-1 shadow" points="158 0 167 8 167 66 158 58 158 0" />
      <polygon class="cls-2 shadow" points="0 72 9 80 167 66 158 58 0 72" />
      <polygon class="cls-3" points="158 0 0 13.78 0 71.78 158 58 158 0" />
      <path d="M42.15,46.76l-5.89.52,5.58,2.07-1.29,3-7.24-2.69,1-2.18-2.08.19v5.15l-4.17.37V49l-8.28,5-1.47-2.62,5.05-3-5.13.45V45.78l9.83-.86v-1l-8,.7V38.33L18,37.75l3.88-8.59,3.74.59L25.08,31l5.69-.5.59-1.81,3.88.35-.35,1.1,6.6-.58v2.54l-6.73.59v1l6-.52v2.56l-6,.52v1l6-.52v2.54l-6,.52v1l6.8-.59V42.7l-9.31.81v1l9.9-.86ZM30.8,34V33l-6.58.57v1Zm0,3.55v-1l-6.58.58v1Zm0,3.58v-1l-6.58.58v1Z" />
      <path d="M68.6,30.48l-1.55,3.79-2.15-.8V36l-6.5.57v2.21L67.64,38v3.38l-9.24.81v4.52l2.92-.26,1-4,3.86.37-.82,3.3,2.9-.26v3.38l-24,2.1V47.94l3.18-.27-.77-3.16,3.81-1.07,1,3.87,2.65-.23V42.56l-9.27.81V40l9.27-.81V37l-6.5.57V34.85l-2.29,1.29-1.6-3.52,11.53-6.36,1.19,2.38,1-2.12ZM63,32.77,56,30.14,49.23,34Z" />
      <path d="M93.8,30.28l-3.45.3V47.16l-4.29.38v-2l-10,.87-3.53-3.14V37.83L76.11,34l10-.87V31l-15,1.31V28.08l15-1.31V24.66l4.29-.37v2.1l3.45-.3ZM86.06,41.37v-4l-8.15.72-1.09,1v2.11l1.09.89Z" />
      <path d="M119.49,40.35,115.23,45l-15,1.31-3.12-2.8V39l3.12-3.39,5.61-.5L109,37.89v3.45l4.22-.37,1.65-1.82V34.56L113.19,33l-8.73.76,1-5.6L96.71,29V24.74l13.82-1.2-1,5.64,5.69-.49,4.26,3.89ZM105,41.69V39.35l-1-.85-2.21.19-.94,1v1.47l.82.79Z" />
      <polygon points="133.5 22.01 143.61 31.23 133.5 42.23 133.5 22.01" />
    </g>
  </g>
</svg>
