<svg xmlns="http://www.w3.org/2000/svg" viewBox="0 0 167 80">
  <defs>
  </defs>
  <title>アセット 4</title>
  <g id="レイヤー_2" data-name="レイヤー 2">
    <g id="ガイド">
      <polygon class="cls-1 shadow" points="158 0 167 8 167 66 158 58 158 0" />
      <polygon class="cls-2 shadow" points="0 72 9 80 167 66 158 58 0 72" />
      <polygon class="cls-3" points="158 0 0 13.78 0 71.78 158 58 158 0" />
      <path d="M64.81,31.49,43.58,33.34V30.11l3.33-.29-.32-1.14,3.51-1.07.52,1.88,7.16-.62.52-2,3.5.46-.31,1.19,3.32-.29ZM54.46,48.77l-3.37.29V45.8l-3.42.3L47,49.83l-3.28-.39,1-5.57V34.46l9.75-.85ZM51.09,38.46V36.62L48,36.88v1.85Zm0,4.58v-1.8L48,41.51v1.8Zm8.06,1-3.21.28V34.19l3.21-.28Zm5,3.88-6,.53V45.24L60.92,45V33l3.22-.28Z" />
      <path d="M73.57,46.71,70.2,47l-2.9-2.69V27.67l3.8-.33V42.19L72,43l1.62-.15ZM87,45.38l-10.33.9-3-2.77v-4.6l3.73-.33v2.7l1.19,1.06L87,41.6ZM86.91,31,73.7,32.19V28.42l13.21-1.16Z" />
      <path d="M110.34,38.6l-5.14.45,3.39,3.34-2.4,2.3-3.53-3.62,2-2-2.8.25L98.6,45.22l-3-1.38L98,39.68l-3.42.3V37l5.19-.46,1-1.81L94,35.27v1.84l-1.32,8.33-3.44-.19,1.22-7.83V28.77l19.58-1.71v6.8l-7.57.66,1.73.64-.56,1,6.69-.58ZM110.59,26,89.46,27.83V24.91l21.13-1.85Zm-4.11,5.59V30L94,31v1.62Z" />
      <path d="M133.12,37.73l-3.77,4.1L116.12,43l-2.77-2.48v-4l2.77-3,5-.44,2.76,2.5v3.06l3.73-.33L129,36.67V32.61l-1.48-1.36-7.73.68.9-4.95-7.75.67V23.93l12.22-1.07-.87,5,5-.44,3.77,3.45Zm-12.78,1.18V36.85l-.88-.76-1.95.17-.83.91v1.3l.72.7Z" />
      <polygon points="24 31.89 14.89 41.76 24 50.11 24 31.89" />
    </g>
  </g>
</svg>
