<svg xmlns="http://www.w3.org/2000/svg" viewBox="0 0 202 62.11">
  <defs>
  </defs>
  <title>アセット 3</title>
  <g id="レイヤー_2" data-name="レイヤー 2">
    <g id="content">
      <polygon class="cls-1 shadow" points="202 3 3 20.41 3 62.11 202 44.7 202 3" />
      <polygon class="cls-2" points="199 0 0 17.41 0 59.11 199 41.7 199 0" />
      <path class="cls-1" d="M35.2,29l-2.38.21V27.94l-6.08.53v1.22l-2.42.21V26.5l3.84-.34v-.69l3.24-.28v.69l3.8-.33Zm0,8-10.82,1v-2l3.88-.34V34.8l-3.13.27V33l3.13-.27V32l-3.13.28v-2L28.24,30v-.86l3.07-.27v.87l3.13-.28v2l-3.13.27v.77l3.13-.27v2l-3.13.28v.77L35.18,35Zm-.59,6.22L25,44V38.59l9.64-.85Zm-2.87-1.84V40.1l-3.9.34V41.7Zm6.85-2.86-2.64.23v-13l2.64-.23Zm3.78,4.24-5.12.44v-3l2.36-.21V24.47l2.76-.24Z" />
      <path class="cls-1" d="M47.75,36.71,44.42,37V25.05l3.33-.29Zm12.1.68-3.44,3.78-6,.53V38.45l4.27-.37,1.85-2V24l3.35-.3Z" />
      <path class="cls-1" d="M72,34l-2.23.2v1.16l1.79-.16v1.61L68,37.08V34.31l-1.55.13,1.18.63-1.58,2.87-1.38-.76,1.48-2.71-1.48.13,0,0v3.7l6.94-.61V40.1l-9.39.82v-6.1l-.68.06V32.39l1-.09V26l-.93.09V23.62l.93-.08V22.46l2.68-.23v1.08L68.33,23V22L71,21.72v1.09l.91-.08v2.46l-.91.08v6.3l1-.09Zm-3.66-7.59V25.5l-3.07.27v.87Zm0,2.73v-.92l-3.07.27v.92Zm0,2.7v-.92l-3.07.26v.93Zm11.28,7.68-3.76.32V37l1.24-.11V26.27l-1.18.1-1.3,13.54H72.09l1.24-13.3-1.2.1V24.09L73.6,24l.24-2.58,2.54,0-.22,2.32,3.45-.3Z" />
      <path class="cls-1" d="M98.29,24l-2,.18v3.09l-10.94,1v6.67l12.62-1.1v3.46L81.85,38.63V22.07l3.47-.3v2.91l6.4-.56V20.38l2.71-.23v3.74l1.14-.1V20.05l2.72-.24Z" />
      <path class="cls-1" d="M114.76,29.29,99,30.67V27.11l15.75-1.38Z" />
      <path class="cls-1" d="M133.65,34.1l-3.64.32-.53-1.93-3.67,2.29-9.62.84V32.14L121,18.65l3.7-.33-4.84,13.5,5.55-.49,3.21-1.93-1.08-4,3.5-.31Z" />
      <path class="cls-1" d="M140.37,33.82l-3,.26-2.54-2.35V17.14l3.32-.29v13l.75.66,1.42-.12Zm11.79-1.17-9,.8L140.47,31V27l3.27-.28v2.36l1,.93,7.38-.64Zm-.1-12.57-11.57,1V17.79l11.57-1Z" />
      <path class="cls-1" d="M171.72,26.79l-4.51.39,3,2.93-2.11,2L165,29l1.77-1.73-2.46.22-2.87,5.15-2.6-1.21,2.05-3.64-3,.26V25.34l4.54-.39.89-1.6-5.91.52v1.61l-1.16,7.31-3-.17,1.06-6.86V18.18l17.17-1.51v6l-6.63.58,1.51.56-.49.87,5.87-.52Zm.21-11.06-18.52,1.62V14.79l18.52-1.62Zm-3.6,4.9V19.21l-10.93,1v1.42Z" />
      <path class="cls-1" d="M190.79,26.11l-3.31,3.59-11.59,1-2.42-2.17V25l2.42-2.63,4.35-.38,2.42,2.19v2.68l3.27-.29,1.28-1.41V21.62l-1.3-1.19-6.77.59.79-4.34-6.8.6V14l10.71-.94-.76,4.38,4.4-.39,3.31,3Zm-11.2,1V25.33l-.77-.66-1.71.15-.73.79v1.15l.63.61Z" />
      <polygon class="cls-1" points="15.23 28.45 7.72 36.59 15.23 43.47 15.23 28.45" />
    </g>
  </g>
</svg>
