<svg xmlns="http://www.w3.org/2000/svg" viewBox="0 0 243.97 96.49">
  <defs>
  </defs>
  <title>アセット 2</title>
  <g id="レイヤー_2" data-name="レイヤー 2">
    <g id="content">
      <polygon class="cls-1 shadow" points="234.97 0 243.97 8 243.97 76 234.97 68 234.97 0" />
      <polygon class="cls-2 shadow" points="0 88.49 9 96.49 243.97 76 234.97 68 0 88.49" />
      <polygon class="cls-3" points="234.97 0 0 20.49 0 88.49 234.97 68 234.97 0" />
      <path d="M78.88,41.73l-1.41,6.09-9.76-1.55,1.48-6Zm.24-9.31-1.52,6-9.69-1.71,1.56-5.95Zm-.2,18.28L74.31,68.08l-6.16-.87L72.67,49.8Zm26.86.25L93,52.07,84.16,67.41l-5.44-2.92L85.4,52.73l-5.52.48v-6l7.2-.63v-9l-6.28.55V32.19l6.28-.55v-2.8l6.41-.56v2.8l10.61-.93v15l1.68-.15Zm-.72,10.39-4.52,4.56-8.49-8.63,4.48-4.47ZM98,45.67V36.62L93.49,37v9.05Z" />
      <path d="M146.19,34.84l-6.33.55V32.31l-25.1,2.2v3.08l-6.37.56V29.22L124,27.85V25.61l6.56-.57v2.24l15.62-1.37ZM146.43,56l-.92,5.85-29.15-2.38-1.56,5.38-6.13-1.1,4.73-16.83,6.28,1L118,53.72l6.37.53V43.44l-13.62,1.19V38.86l33-2.89v5.77l-12.86,1.12v3.61l11.45-1v5.37l-11.45,1v2.92Z" />
      <polygon points="210.47 26.01 220.58 35.23 210.47 46.23 210.47 26.01" />
    </g>
  </g>
</svg>
