<svg xmlns="http://www.w3.org/2000/svg" viewBox="0 0 195.75 47.63"><title>subtext</title><g id="レイヤー_2" data-name="レイヤー 2"><g id="content"><path d="M11.58,24l-3.46.3v1.56L6.58,27.33l-5.06.44L0,26.57V24.45L1.52,23l4.37-.38v-1L.56,22V20.11l5.33-.46V18.58l-5.33.47V17.13l5.33-.47v-1l2.23-.19v1l2.93-.26v1.92l-2.93.26v1.06l2.93-.26v1.92l-2.93.26v1l3.46-.31ZM5.89,25.28v-1l-3.26.28L2.2,25v.61l.43.37,2.82-.25Z"/><path d="M24.87,17.32l-8.46.74-.56,8.46-2.18.19.55-8.45-1,.08V16.17l1.11-.09L14.43,15l2.19-.2-.08,1.13,8.33-.73Zm-.25,8.43L19,26.24l-1.75-1.57V22.55l2.18-.19v1.19l.6.54,4.55-.4Zm0-5.2-7.27.64V19.12l7.27-.63Z"/><path d="M30.9,24.31,29,25.55,26.7,21.22,28.56,20Z"/><path d="M46.86,23.8l-8.54.75-2-1.84V20.2L38.47,20V21.4l1,.88,7.43-.65Zm-.4-8.49-9.79.85V14l9.79-.86Z"/><path d="M60.65,20.45l-2.07,2.33-2,.17V20.68l.9-.07,1-1.07v-4L57,14.21l-1.28.12v6.73l-1.48,2.1L51,23.44l-1.95-2.11V15.27l2.66-2.92L58,11.81l2.69,2.44Zm-7-.29V14.51l-1,.08-1.42,1.54v4l.79.94,1-.09Z"/><path d="M74.24,13.82l-1,.09v3.6l-3.1,4L64.63,22V19.81l4.52-.39L71,16.94V14.1l-5.16.46V17.9l-2.27.2V14.75l-1,.09v-2.3l1-.08V11.23l2.27-.2v1.23L71,11.81V10.58l2.27-.2v1.23l1-.08Z"/><path d="M87.56,11.4l-1.92.17-2.12,1.48v7.34l-2.28.2V14.66l-3,2.12L75.7,17V14.73l1.91-.17L85,9.35l2.53-.22Z"/><path d="M100.07,15.43l-2.84.24L92.4,14.05v5.56l-2.25.2V8.9l2.25-.19v2.94l5.13,1.73,2.54-.22Z"/><path d="M106.06,18.62l-2.19.2-1.68-1.56V7.65l2.2-.19V16l.49.45,1.18-.1Zm7.73-4.38-1.18.1V16.5L111,18.19l-3.07.27L106.16,17V14.5l1.73-1.85,2.5-.21V9.85l-4.58.41V8.06l4.58-.4V6.56l2.22-.19v1.1l1.18-.1V9.56l-1.18.1v2.58l1.18-.1Zm-3.4,1.62V14.54l-1.61.14-.53.51v.87l.53.45,1-.1Z"/><path d="M127.79,10.17l-12.24,1.07V9.48l2.27-.2L117.6,8l-1.42.12V6.38L120.49,6V5.39l2.19-.19v.61l4.48-.39V7.18l-1.38.12-.22,1.3,2.23-.19ZM127,16.9l-10.6.93v-6l10.6-.92Zm-2.22-3.54v-.75l-6.16.53v.76Zm0,2.24v-.78l-6.16.54v.78Zm-1.08-8.11-4,.34.22,1.27,3.53-.31Z"/><path d="M141.69,8.78,129.47,9.85V8.65l12.22-1.07Zm0,6.81-12.22,1.06V15.58l5-.44v-.43l-4.26.37V14l4.26-.37v-.42l-4.5.4V10.23l11.13-1v3.41l-4.5.4v.41l4.26-.37v1.05l-4.26.37V15l5.05-.44ZM141,7.23l-10.9.95V4.74l10.9-1Zm-6.52,3.87v-.43l-2.47.22v.43Zm0,1.27V12l-2.47.21v.43ZM139,5.25V4.82l-6.85.6v.43Zm0,1.28V6.12l-6.85.6v.41Zm.11,4.17v-.43l-2.47.22v.43Zm0,1.27v-.43l-2.47.22v.43Z"/><path d="M155,9.63l-2.66.24.33,1.39-2.17.19-.35-1.39-3.3.29-.84.81v1.18l.71.56,7.77-.68v2.17l-8.7.76-2-1.71V10.3l2.2-2V6.71l-2.64.23V4.77L146,4.53V3.44l2.27-.19V4.33l6.35-.55V6l-6.35.55V8L155,7.46Z"/><path d="M168.66,13.23l-12.08,1v-2l4.35-.38v-10l2.19-.19V5.05l4.68-.41V6.7l-4.68.41V11.7l5.54-.48Z"/><path d="M174.49,12.64l-2.29.2-1.69-1.54V1.68l2.19-.2V10l.5.45,1.29-.12ZM182.22,3l-1.31.12v7.25l-1.68,1.83-2.5.22V10.16l1.5-.13.48-.55v-5l-4.6.4V2.68L178,2.34V.64l1.79-.15V3.16l.63-.06V.43l1.8-.15Z"/><path d="M195.75,2.19l-5.93.52-1.95,2V7.72l1.83,1.39,4.93-.43v2.2l-5.82.51-3.14-2.57V4L186.78,3l-2.67.23V1l11.64-1Z"/><path d="M50,44.89l-1.86,2-2.23.2V45l1.31-.11.61-.67V42.81l-.61-.55-2.64.23v3l-1.5,1.9-2.84.25-1.88-1.72V42.76l1.9-2.11,2.16-.19V39l-3.88.33V37.2l3.88-.34V35.75l2.16-.19v1.12l1.29-.12V38.7l-1.29.12v1.45L48.14,40,50,41.69Zm-7.58-.15V42.68l-1.36.11-.64.73v1.35l.58.56.86-.07ZM50,38.87l-2.09.19V38.3l-.54-.49-.68.06v-2.2l1.64-.14L50,37.08Z"/><path d="M54.69,40.07l-2.32,1.31-.68-1.5L54,38.57Zm0-4.08-.61,1.61-2.34-.79.63-1.62Zm9.4,8.62-.92,1.55-3.67-2,.58-1-1.09.1v2.93l-2.06.18V44l-4.17,3.09-.94-1.38,2.71-2-2.69.23V42.2l5.09-.44v-.6l-2.07.18V35l2-.17.48-1,1.53.23-.28.65,2.49-.22V40.8L59,41v.6l5.09-.45v1.71l-2.82.25Zm-5-7.43v-1l-2.35.21v1Zm0,2.33v-1l-2.35.21v1Zm5.09-.73-.66,1.62-2.33-.9.67-1.62Zm0-3.05-2.32,1.18-.6-1.5,2.31-1.2Z"/><path d="M76.69,41.82l-2.61,2.85-5.18.45-2.62-2.38v-9l2.21-.19v8l1.35,1.22,3.29-.29,1.33-1.45V39.41l2.23-.2Z"/><path d="M90.5,38.31l-.64.06v3.16L88.1,43.44l-2.45.21V41.51L87,41.4l.69-.73V38.56l-2.88.25v3.35l-1.55,1.7-2.78.25-1.54-1.4v-4L80.46,37l2.18-.19v-2L79.79,35V32.86l5-.44v4.19l2.88-.25V32.58l2.19-.19v3.77l.64,0Zm-7.86,3V39l-1.39.12-.41.48v1.89l.46.46.89-.08Z"/><path d="M103.05,42.13l-3.6.32L92.73,39V35.85l6.72-4.71,3.6-.32V33l-2.88.25L94.87,37v.42l5.37,2.73,2.81-.25Z"/><path d="M114.67,32.18l-1.77.15v.53l-4.49.4-.5,8.45-2.18.19.49-8.45-.85.07V31.34l1-.08.07-1.11,2.19-.19-.07,1.11,4.34-.38V29.58l1.79-.15ZM116.43,41l-5.56.49-1.76-1.59v-2.1l2.22-.19v1.18l.59.54,4.51-.39Zm0-5.34-7.26.63v-2l7.26-.63ZM117.1,32l-1.8.16V29.37l1.8-.16Z"/><path d="M130.62,31.73l-2.34.2.24,3.73-6.79.59-.5.57v1l.5.45,7.53-.66v2.18l-8.41.73L119.05,39V36.2l1.89-2.06,5.18-.45L126,32.13l-7,.62v-2.2l6.87-.6-.09-1.49,2.27-.2.1,1.49,2.47-.21Z"/><path d="M137.88,39.08l-3.11.28-2-1.85v-9l2.19-.19v8.07l.81.73,2.11-.18Zm5.73-1.64-2.19.19V30.78l-.8-.76-2,.18V28.06l3-.26,2,1.87Z"/><path d="M151.55,36.41l-1.66,1.8-2.38.21-1.67-1.51V34.56l1.67-1.82,2.38-.21,1.66,1.54ZM150.11,36V34.78l-.83-.75-1.17.1-.83.9V36.2l.83.77,1.15-.1Z"/></g></g></svg>