<svg xmlns="http://www.w3.org/2000/svg" viewBox="0 0 30 30">
  <defs>
    <style>
      .cls-1 {
        fill: #eadfc3;
      }
    </style>
  </defs>
  <g id="facebook" transform="translate(15 15)">
    <path id="パス_221" data-name="パス 221" class="cls-1" d="M28.344,0H1.656A1.655,1.655,0,0,0,0,1.656V28.344A1.656,1.656,0,0,0,1.656,30H16.024V18.383h-3.91V13.855h3.91V10.516c0-3.875,2.367-5.985,5.823-5.985a32.078,32.078,0,0,1,3.494.178v4.05h-2.4c-1.88,0-2.244.893-2.244,2.2V13.85H25.18l-.58,4.533H20.7V30h7.645A1.656,1.656,0,0,0,30,28.344V1.656A1.656,1.656,0,0,0,28.344,0Z" transform="translate(-15 -15)"/>
  </g>
</svg>
