<svg xmlns="http://www.w3.org/2000/svg" viewBox="0 0 30 30">
  <defs>
    <style>
      .cls-1 {
        fill: #eadfc3;
      }
    </style>
  </defs>
  <path id="Twitter" class="cls-1" d="M26.25,0H3.75A3.751,3.751,0,0,0,0,3.75v22.5A3.751,3.751,0,0,0,3.75,30h22.5A3.751,3.751,0,0,0,30,26.25V3.75A3.751,3.751,0,0,0,26.25,0Zm-3.8,11.183c.007.165.007.33.007.495A10.944,10.944,0,0,1,5.633,20.9a7.4,7.4,0,0,0,.915.052,7.713,7.713,0,0,0,4.778-1.65,3.846,3.846,0,0,1-3.593-2.67,3.868,3.868,0,0,0,1.732-.068A3.854,3.854,0,0,1,6.383,12.8v-.052a3.89,3.89,0,0,0,1.74.48A3.861,3.861,0,0,1,6.93,8.085a10.921,10.921,0,0,0,7.927,4.02,4.251,4.251,0,0,1-.1-.878A3.847,3.847,0,0,1,21.412,8.6a7.649,7.649,0,0,0,2.445-.93,3.869,3.869,0,0,1-1.7,2.13,7.794,7.794,0,0,0,2.213-.608,7.836,7.836,0,0,1-1.915,1.991Z"/>
</svg>
