<!-- Generator: Adobe Illustrator 23.0.0, SVG Export Plug-In  -->
<svg version="1.1" xmlns="http://www.w3.org/2000/svg" xmlns:xlink="http://www.w3.org/1999/xlink" x="0px" y="0px" width="171.1px"
	 height="103.1px" viewBox="0 0 171.1 103.1" style="enable-background:new 0 0 171.1 103.1;" xml:space="preserve">
<style type="text/css">
	.cm_tit_svg{fill:#FFFFFF;}
</style>
<defs>
</defs>
<g>
	<g>
		<g>
			<path class="cm_tit_svg" d="M38.4,74L31,82.2l-18,1.6l-7.4-6.7V55l7.4-8.1l17.9-1.6l7.5,6.8v6.8l-7.8,0.7v-3.2l-3.3-3l-10.8,0.9
				l-3.2,3.5v14.9l3.2,3l10.8-0.9l3.3-3.7v-3.2l7.8-0.7V74z"/>
			<path class="cm_tit_svg" d="M79.2,78l-7.7,0.7V54.1l-7.8,12.5l-6.9,0.6L48.9,56v24.6l-7.7,0.7v-37l7.7-0.7l11.3,15.2l11.3-17.1l7.7-0.7
				V78z"/>
			<path class="cm_tit_svg" d="M85.8,63.3l-4.4,0.4V47l4.4-0.4V63.3z M124.3,54.2l-25,2.2l0.4,1.5l23-2v21.5l-6.7,0.6v-4l-10.2,0.9v4
				l-6.6,0.6V59.8l-3.4,1.3l-2-8.3v27.1l-6.3,0.6V38.1l6.3-0.6v8.8l2.8-1.1l1.7,6.6l9.3-0.8v-1.7L99.5,50v-4.7l7.9-0.7v-1.6
				l-9.1,0.8v-4.8l9.1-0.8v-2l6.9-0.6v2l9.3-0.8v4.8l-9.3,0.8V44l8.1-0.7V48l-8.1,0.7v1.7l10-0.9V54.2z M116,63v-1.9L105.8,62v1.9
				L116,63z M116,69.4v-1.9l-10.2,0.9v1.9L116,69.4z"/>
			<path class="cm_tit_svg" d="M147,51l-21,1.8v-6l7.2-0.6v-3.2l-6.1,0.5v-6.1l6.1-0.5v-2.8l6.7-0.6v2.8l6.3-0.6v6.1l-6.3,0.6v3.2l7.1-0.6
				V51z M147,62.4l-7.1,0.6v3.1l6.3-0.6v6l-6.3,0.6v3.7l-6.7,0.6v-3.7l-6.1,0.5v-6l6.1-0.5v-3.1l-7.2,0.6V58l2.6-0.2l-0.5-4.1
				l5.6-1.2l0.7,4.7l4.5-0.4l0.8-4.9l5.6,0.2l-0.6,4.2l2.4-0.2V62.4z M169.6,68.9l-4.1,4.4l-3.6-3.5l-1.6,4.8l-5.3-1.6l2.6-7.6
				l-3.1-3v12.2l-6.1,0.5V33.4l19.2-1.7v13.9l-8.6,0.8V41l2.4-0.2v-2.4l-6.9,0.6v10.3l8.8-0.8l0.3-0.9l5.4,1.3l-5,14.6L169.6,68.9z
				 M161.3,54.9l-6.7,0.6v5.1l3.2-3.4l2,2L161.3,54.9z"/>
		</g>
	</g>
	<g>
		<g>
			<path class="cm_tit_svg" d="M44.6,25.2l-7.1,9.1l-15.8,1.4v-4.8l13.6-1.2l4.5-5.7v-8l4.8-0.4V25.2z M32.6,17.3l-10.8,0.9v-4.6l10.8-0.9
				V17.3z M32.6,24.8l-10.8,0.9v-4.6l10.8-0.9V24.8z M40.6,14.2l-3.3,0.3v-4.4l3.3-0.3V14.2z M45.6,13.8l-3.3,0.3V9.7l3.3-0.3V13.8z
				"/>
			<path class="cm_tit_svg" d="M70.6,31.4l-5,0.4l-0.7-2.7l-5.1,3.2l-13.3,1.2v-4.8L53,9.9l5.1-0.4l-6.7,18.7l7.7-0.7l4.4-2.7l-1.5-5.5
				l4.9-0.4L70.6,31.4z"/>
			<path class="cm_tit_svg" d="M96,10.8L93.2,11v4.3L78,16.7v9.3l17.5-1.5v4.8l-22.3,2v-23L78,7.8v4l8.9-0.8V5.8l3.8-0.3v5.2l1.6-0.1V5.4
				L96,5V10.8z"/>
			<path class="cm_tit_svg" d="M118.7,18.2l-21.8,1.9v-4.9l21.8-1.9V18.2z"/>
			<path class="cm_tit_svg" d="M144.8,24.9l-5,0.4l-0.7-2.7l-5.1,3.2L120.6,27v-4.8l6.7-18.7l5.1-0.4l-6.7,18.7l7.7-0.7l4.4-2.7l-1.5-5.5
				l4.9-0.4L144.8,24.9z"/>
		</g>
	</g>
	<polygon class="cm_tit_svg" points="171.1,82.9 3,97.8 3,103.1 171.1,87.9 	"/>
</g>
<g>
	<g>
		<g>
			<path d="M35.4,71L28,79.2l-18,1.6l-7.4-6.7V52l7.4-8.1l17.9-1.6l7.5,6.8v6.8l-7.8,0.7v-3.2l-3.3-3l-10.8,0.9l-3.2,3.5v14.9l3.2,3
				l10.8-0.9l3.3-3.7v-3.2l7.8-0.7V71z"/>
			<path d="M76.2,75l-7.7,0.7V51.1l-7.8,12.5l-6.9,0.6L45.9,53v24.6l-7.7,0.7v-37l7.7-0.7l11.3,15.2l11.3-17.1l7.7-0.7V75z"/>
			<path d="M82.8,60.3l-4.4,0.4V44l4.4-0.4V60.3z M121.3,51.2l-25,2.2l0.4,1.5l23-2v21.5l-6.7,0.6v-4l-10.2,0.9v4l-6.6,0.6V56.8
				l-3.4,1.3l-2-8.3v27.1l-6.3,0.6V35.1l6.3-0.6v8.8l2.8-1.1l1.7,6.6l9.3-0.8v-1.7L96.5,47v-4.7l7.9-0.7v-1.6l-9.1,0.8v-4.8l9.1-0.8
				v-2l6.9-0.6v2l9.3-0.8v4.8l-9.3,0.8V41l8.1-0.7V45l-8.1,0.7v1.7l10-0.9V51.2z M113,60v-1.9L102.8,59v1.9L113,60z M113,66.4v-1.9
				l-10.2,0.9v1.9L113,66.4z"/>
			<path d="M144,48l-21,1.8v-6l7.2-0.6v-3.2l-6.1,0.5v-6.1l6.1-0.5v-2.8l6.7-0.6v2.8l6.3-0.6v6.1l-6.3,0.6v3.2l7.1-0.6V48z
				 M144,59.4l-7.1,0.6v3.1l6.3-0.6v6l-6.3,0.6v3.7l-6.7,0.6v-3.7l-6.1,0.5v-6l6.1-0.5v-3.1l-7.2,0.6V55l2.6-0.2l-0.5-4.1l5.6-1.2
				l0.7,4.7l4.5-0.4l0.8-4.9l5.6,0.2l-0.6,4.2l2.4-0.2V59.4z M166.6,65.9l-4.1,4.4l-3.6-3.5l-1.6,4.8l-5.3-1.6l2.6-7.6l-3.1-3v12.2
				l-6.1,0.5V30.4l19.2-1.7v13.9l-8.6,0.8V38l2.4-0.2v-2.4l-6.9,0.6v10.3l8.8-0.8l0.3-0.9l5.4,1.3l-5,14.6L166.6,65.9z M158.3,51.9
				l-6.7,0.6v5.1l3.2-3.4l2,2L158.3,51.9z"/>
		</g>
	</g>
	<g>
		<g>
			<path d="M41.6,22.2l-7.1,9.1l-15.8,1.4v-4.8l13.6-1.2l4.5-5.7v-8l4.8-0.4V22.2z M29.6,14.3l-10.8,0.9v-4.6l10.8-0.9V14.3z
				 M29.6,21.8l-10.8,0.9v-4.6l10.8-0.9V21.8z M37.6,11.2l-3.3,0.3V7.1l3.3-0.3V11.2z M42.6,10.8l-3.3,0.3V6.7l3.3-0.3V10.8z"/>
			<path d="M67.6,28.4l-5,0.4l-0.7-2.7l-5.1,3.2l-13.3,1.2v-4.8L50,6.9l5.1-0.4l-6.7,18.7l7.7-0.7l4.4-2.7l-1.5-5.5l4.9-0.4
				L67.6,28.4z"/>
			<path d="M93,7.8L90.2,8v4.3L75,13.7v9.3l17.5-1.5v4.8l-22.3,2v-23L75,4.8v4L83.9,8V2.8l3.8-0.3v5.2l1.6-0.1V2.4L93,2V7.8z"/>
			<path d="M115.7,15.2l-21.8,1.9v-4.9l21.8-1.9V15.2z"/>
			<path d="M141.8,21.9l-5,0.4l-0.7-2.7l-5.1,3.2L117.6,24v-4.8l6.7-18.7l5.1-0.4l-6.7,18.7l7.7-0.7l4.4-2.7l-1.5-5.5l4.9-0.4
				L141.8,21.9z"/>
		</g>
	</g>
	<polygon points="168.1,79.9 0,94.8 0,100.1 168.1,84.9 	"/>
</g>
</svg>
