<svg xmlns="http://www.w3.org/2000/svg" viewBox="0 0 412.38 584.15"><defs><style>.no_svg_1{fill:#4cb5d6;}.no_svg_2{fill:#429fbc;}.no_svg_3{fill:#53c3f1;}</style></defs><title>agegate_no</title><g id="レイヤー_2" data-name="レイヤー 2"><g id="content"><polygon class="no_svg_1" points="157.5 0 412.38 254.88 412.38 412.88 157.5 158 157.5 0"/><polygon class="no_svg_2" points="0 171.78 412.38 584.15 412.38 412.88 157.5 158 0 171.78"/><polygon class="no_svg_3" points="157.5 0 0 13.78 0 171.78 157.5 158 157.5 0"/><path d="M38,70.25,29.32,71l-5.56-5.15v-25l6.1-.54V62.8l2.24,2L38,64.32Zm16-4.58-6.1.54V47.13L45.62,45l-5.57.49v-6l8.31-.73L54,44Z"/><path d="M71.85,67.29l-8.68.76L57.61,62.9v-25l6.11-.53V59.83L66,61.88l5.89-.52Zm16-4.58-6.11.54V44.17l-2.24-2.12-5.56.49v-6l8.31-.73,5.6,5.22Z"/><path d="M123.08,62.81l-6.83.59-8.2-6.9L98.47,65l-7.84.69v-6l5.49-.48,14.53-12.51-20,1.76v-6l29.56-2.58v5.92l-7.55,6.7,5.63,4.81,4.81-.42Zm-3-25.54L93.56,39.59V33.88l26.55-2.32Z"/><polygon points="139.43 35.13 149.54 44.35 139.43 55.35 139.43 35.13"/><path d="M39.06,103.8l-1.85.16v7l-6,7.8-10.7.93v-4.3l8.7-.76,3.6-4.76v-5.48l-9.95.87v6.45l-4.37.39V105.6l-1.88.16v-4.42l1.88-.17V98.8l4.37-.39v2.38l10-.87V97.54l4.38-.38v2.38l1.85-.17Z"/><path d="M63.6,108.45l-7.52,8.08-13.2,1.16v-4.43l11.4-1L59.2,107V95.24l4.4-.39Zm-10.9-6.9-9.47.83V98l9.47-.83Z"/><path d="M88.23,107l-5.48.48-9.32-3.14V115l-4.33.37v-21L73.43,94v5.68l9.9,3.33,4.9-.43Z"/><path d="M97.22,105.81l-4.35.38V92.29l4.35-.38Zm15.12-.25-5.87,6.57-11.15,1v-4.3l9.12-.8,3.48-3.83V91l4.42-.38Z"/><path d="M137.57,101.2l-20,1.75V98.43l20-1.75Z"/><path d="M21.06,132.26l-1.73,7.3-3,.27v-3l.74-.06,1-4.22Zm10.21-2.88-5.94.52v9.9l-3.06.26v-9.9l-5.9.52v-3l5.9-.51v-1.53l3.06-.27v1.53l5.94-.52Zm.05,9.13-3,.27-1.72-7,3-.26,1,4,.72-.06Z"/><path d="M47.63,132.21l-13.75,1.2V130.3l13.75-1.2Z"/><path d="M65.46,136.28l-3.18.28-.46-1.68-3.2,2-8.4.74v-3l4.21-11.79,3.23-.28-4.23,11.78,4.85-.42,2.8-1.69-.94-3.47,3-.27Z"/><path d="M83,134.75l-3.49.31L74.08,124l-.79.06-2.86,7-3.18.28v-3l1.22-.1,2.77-6.9,4.71-.41,5.52,11,1.51-.13Zm.15-12.4-1.2,1.3-1.73.16L79,122.71V121l1.22-1.31,1.73-.16,1.2,1.1Zm-1.27-.44v-.66l-.46-.44-.69.06-.45.52v.66l.45.46.69-.06Z"/><path d="M98.26,127.78,84.51,129v-3.11l13.75-1.2Z"/><path d="M116.1,126.53l-4.47,5.71-10,.88v-3l8.58-.75,2.83-3.62v-5l3-.27Zm-7.58-5-6.82.6v-2.87l6.82-.6Zm0,4.73-6.82.59V124l6.82-.6Zm5.07-6.63-2.08.18v-2.77l2.08-.18Zm3.13-.28-2.08.18v-2.76l2.08-.18Z"/><path d="M134.54,130.52l-6,.52v-10l-1.71-1.61-3.3.29-1.7,1.92v7.7l-2.92.26v-8.91l3.35-3.81,5.85-.52,3.35,3.23v8.22l3.13-.27Z"/></g></g></svg>