<svg xmlns="http://www.w3.org/2000/svg" viewBox="0 0 412.38 584.15"><defs><style>.yes_sound_svg_1{fill:#c90274;}.yes_sound_svg_2{fill:#af0265;}.yes_sound_svg_3{fill:#e30177;}</style></defs><title>アセット 39</title><g id="レイヤー_2" data-name="レイヤー 2"><g id="content"><polygon class="yes_sound_svg_1" points="157.5 0 412.38 254.88 412.38 412.88 157.5 158 157.5 0"/><polygon class="yes_sound_svg_2" points="0 171.78 412.38 584.15 412.38 412.88 157.5 158 0 171.78"/><polygon class="yes_sound_svg_3" points="157.5 0 0 13.78 0 171.78 157.5 158 157.5 0"/><path d="M44.47,75.36,37.21,76l-5.54-5.15V39l7.26-.63v28.4l1.63,1.49,3.91-.34ZM70.08,60.83l-3.91.34v7.14l-5.41,5.63-10.18.89L44.82,70V61.71l5.71-6.13,8.3-.73V46.3L43.66,47.63V40.37L58.83,39V35.39l7.34-.64V38.4l3.91-.34v7.26l-3.91.34v8.55l3.91-.34ZM58.83,66.2V61.82l-5.33.46L51.74,64v2.88l1.76,1.48L57,68Z"/><path d="M93.59,71.06,83.28,72l-6.62-6.13V36.11l7.26-.64V62.2l2.67,2.43,7-.61Zm19-5.44-7.26.64V43.57l-2.66-2.52L96,41.63V34.54l9.88-.86,6.66,6.2Z"/><polygon points="137.94 35.47 148.06 44.69 137.94 55.69 137.94 35.47"/><path d="M53.65,102.4l-20.28,1.78v-2.92l3.75-.33-.36-2.1L34.42,99V96.11l7.13-.62v-1l3.63-.32v1l7.41-.65v2.93l-2.27.2L50,99.8l3.7-.32Zm-1.36,11.14-17.55,1.54v-9.93l17.55-1.53Zm-3.67-5.86v-1.25l-10.21.89v1.25Zm0,3.71V110.1l-10.21.9v1.29ZM46.84,98l-6.58.58.37,2.09,5.84-.51Z"/><path d="M75.49,108.05l-3.24,3.58-3.46.3v-3.59l1.93-.17,1.16-1.3v-2.15l-1.18-1.1h-.17l-6,8.67-5.44.47-3.29-3v-5.09l3.27-3.59,2.92-.26v-2.6L57,98.68V95.05L62,94.6V93.16l3.57-.31v1.44l8.79-.77v3.63l-8.79.77v2.6l2.45-.22V99l3.43-.3V100l.71-.06,3.29,3Zm-10.63-1.9L62,106.4v-2l-1.37.12-1.19,1.28V108l1.19,1.08,2.3-.2Zm1.5-2.15-.75.06v1Z"/><path d="M82.77,105l-3.63.32v-13L82.77,92Zm13.22.74-3.76,4.13-6.58.57v-3.54l4.66-.41,2-2.22V91.13L96,90.81Z"/><path d="M117.17,107.7l-10.53.92-4.3-4.33V96.4l1.78-1.79-4.4.39V91.37l14.46-1.27v3.63l-5.39.48-2.69,2.51v5.93l2.41,2.17,8.66-.76Zm2.12-16.56-4.14.36v-3l4.14-.36Zm0,4.06-4.14.36v-3l4.14-.36Z"/><path d="M53.17,139.14l-3.11.27v-12l-4.49.39,2.1.47-.43,1.28,1.16-.1v6l-1.69.15V137l2.1-.19v2.49l-4.77.42v-3.84l-2.51.22,1.55,1L40.5,140.4l-2-1.48,2.17-2.75-1.89.16v-6l1.25-.11L39.62,129l2.1-.83-4.55.4v12l-3.14.27V121l8.94-.78V128l-.82.07.69,1.83,1.61-.14.71-2-.9.08v-7.86l8.91-.78ZM39.83,123.48v-1l-2.66.24v1Zm0,2.82v-1l-2.66.23v1Zm5.74,7.21v-1.59l-4,.34v1.59Zm4.49-10.92v-1l-2.64.23v1Zm0,2.81v-1l-2.64.23v1Z"/><path d="M66.15,126.14l-9.82.86v-7.82l9.82-.86V120l-2,.17v.6l2-.17v3.29l-2,.17v.64l2-.17Zm9.9,11-9.3.82v-3.18l-4,.35.84.9-3.87,3.19-1.93-2,2.41-1.9-3.08.26v-8L74.77,126v8.06l-4.67.41v.81l6-.52ZM61.7,121v-.6l-2.36.2v.6Zm1.66,1.83v-.64l-4,.35v.64Zm-1.66,2.1v-.65l-2.36.21v.65Zm9.69,3.56v-.61l-10.93,1v.6Zm0,2.17V130l-10.93,1v.64Zm0,2.14v-.6l-10.93,1v.6ZM76.05,121l-6.66.58-.55,1.36L66.17,122,68,117.47l2.73.77-.3.67,5.58-.49Zm-.55,4-8.06.7v-2.43l8.06-.7Z"/><path d="M98.3,120.82l-2.93.25v14l-3.63.32v-1.7l-8.42.74-3-2.66v-4.6l3-3.2,8.42-.74v-1.87L79.05,122.5V119l12.69-1.11v-1.79l3.63-.32v1.79l2.93-.26Zm-6.56,9.38v-3.42l-6.89.61-.93.87v1.79l.93.75Z"/><path d="M120.72,129.27l-3.61,3.93-12.65,1.11-2.64-2.37v-3.85l2.64-2.87,4.75-.42,2.64,2.39v2.93l3.57-.32,1.39-1.54v-3.89l-1.41-1.29-7.39.65.85-4.74-7.41.65v-3.57l11.69-1-.84,4.78,4.81-.42,3.61,3.29Zm-12.22,1.14v-2l-.84-.72-1.87.16-.79.87V130l.69.67Z"/></g></g></svg>