<svg xmlns="http://www.w3.org/2000/svg" viewBox="0 0 589.88 524.68"><defs><style>.talk_btn3_svg_1{opacity:0.2;}.talk_btn3_svg_2{fill:#cc7206;}.talk_btn3_svg_3{fill:#ff9406;}.talk_btn3_svg_4{fill:#e58007;}</style></defs><title>btn3</title><g id="レイヤー_2" data-name="レイヤー 2"><g id="content"><g class="talk_btn3_svg_1"><polygon class="talk_btn3_svg_2" points="0 112.31 412.38 524.68 589.88 337.88 335 83 0 112.31"/><polygon class="talk_btn3_svg_3" points="335 0 0 29.31 0 112.31 335 83 335 0"/><polygon class="talk_btn3_svg_4" points="335 0 589.88 254.88 589.88 337.88 335 83 335 0"/><path d="M44.1,72.12l-5.05,5.55-12.3,1.08-5.07-4.57V59.11l5.07-5.52L39,52.52l5.11,4.66v4.64l-5.32.47V60.07l-2.25-2-7.35.65L27,61.07V71.25l2.21,2,7.35-.64,2.28-2.5V67.94l5.29-.46Z"/><path d="M70.7,69.8l-5,5.54L53,76.45l-5.07-4.63v-15l5-5.52,12.7-1.11,5,4.61Zm-5.26-2V57.71l-2.19-2-7.84.69L53.2,58.78V68.9L55.47,71l7.75-.67Z"/><path d="M100.68,72.28l-5.26.46V56L90.1,64.5l-4.73.41-5.32-7.59V74.08l-5.26.46V49.32l5.26-.46L87.73,59.2l7.69-11.68,5.26-.46Z"/><path d="M110.66,71.44l-5.38.47V46.72l5.38-.47Z"/><path d="M136.48,69.15l-5.2.45V60.77L120.4,52.41V70.55l-5.17.46V45.85l5.17-.45,10.88,8.12V44.44l5.2-.45Z"/><path d="M163.45,61.68l-5,5.54-12.82,1.13-5.05-4.58V48.7l5.05-5.51,12.76-1.12,5,4.67V51.1l-5.13.45V49.49l-2.22-2.11-8.15.71-2.21,2.44V61l2.21,2,8.28-.73,2.12-2.36V58.1l-6.8.6V54.21l11.93-1.05Z"/><path d="M206.4,58.66l-4.3,4.74-14.46,1.27-4.33-4v-4l5.13-.45v1.56L190,59.27l9.75-.86,1.54-1.67v-1.9l-1.6-1.56-12.06,1.06-4.3-3.72V44.26l4.33-4.81,14.43-1.26,4.33,4.05v3.69l-5.26.46V45l-1.53-1.43-9.66.85-1.51,1.7v1.93L190,49.4l12-1.06,4.39,3.95Z"/><path d="M232.87,55.61l-5,5.54-12.67,1.11-5.08-4.63v-15l5-5.52L227.86,36l5,4.61Zm-5.26-2V43.52l-2.18-2-7.84.68-2.22,2.41V54.71l2.28,2.08,7.75-.68Z"/><path d="M259.49,53.28l-5,5.54-12.67,1.11-5.08-4.63v-15l5.05-5.51,12.7-1.12,5,4.61Zm-5.26-2V41.19l-2.18-2-7.84.68L242,42.26V52.38l2.28,2.08,7.75-.68Z"/><path d="M284.83,56.17l-5.19.45V47.79l-10.89-8.36V57.57l-5.17.46V32.87l5.17-.45,10.89,8.12V31.46l5.19-.45Z"/><polygon points="306.38 30.82 316.49 40.05 306.38 51.05 306.38 30.82"/></g></g></g></svg>