<svg xmlns="http://www.w3.org/2000/svg" viewBox="0 0 211.24 42.46" class="menuText"><title>menu1</title><g id="レイヤー_2" data-name="レイヤー 2"><g id="content"><path d="M23,32l-7.11,9.1L0,42.46V37.65l13.64-1.2,4.52-5.75v-8L23,22.29ZM10.91,24.06.05,25V20.44l10.86-1Zm0,7.52-10.86,1V27.94l10.86-1ZM19,21l-3.31.29v-4.4L19,16.63Zm5-.44-3.31.29v-4.4L24,16.19Z"/><path d="M49,38.18l-5.06.44L43.17,36l-5.09,3.18L24.71,40.3V35.46l6.7-18.74,5.14-.45L29.82,35l7.71-.67L42,31.65l-1.5-5.53,4.86-.42Z"/><path d="M74.41,17.57l-2.82.25v4.29l-15.2,1.33v9.27l17.53-1.53V36L51.58,38V15l4.81-.42v4l8.89-.78V12.6l3.77-.33v5.2l1.59-.14V12.14l3.77-.33Z"/><path d="M97.18,25,75.3,26.9V22L97.18,20Z"/><path d="M123.31,31.67l-5.06.44-.74-2.67-5.09,3.18L99.05,33.79V29l6.7-18.74,5.14-.45-6.72,18.75,7.71-.68,4.45-2.69-1.5-5.52,4.87-.43Z"/><path d="M147.45,22.15l-6,.52-10.2-3.43V31l-4.73.41v-23L131.27,8v6.21l10.82,3.64,5.36-.47Z"/><path d="M173.27,18.33l-21.88,1.92V15.3l21.88-1.92Z"/><path d="M199.77,16.2l-7.19,9.41L180.09,26.7V21.89L190.31,21,195,14.93V7.38l-10.31.9L180.58,13l-4.43.39V8.62l2.4-.21,4-4.76,17.17-1.5Z"/><path d="M211.21,17.5l-4.32.38V.38L211.21,0Zm0,6.94-4.32.38V20.53l4.32-.38Z"/></g></g></svg>