<svg xmlns="http://www.w3.org/2000/svg" viewBox="0 0 27.91 22.68"><defs><style>.tw_menu_svg1{fill:#55acee;}</style></defs><title>アセット 31</title><g id="レイヤー_2" data-name="レイヤー 2"><g id="content"><path class="tw_menu_svg1" d="M27.91,2.68a11.38,11.38,0,0,1-3.29.91A5.77,5.77,0,0,0,27.14.42,11.7,11.7,0,0,1,23.5,1.81a5.72,5.72,0,0,0-9.9,3.92A6.24,6.24,0,0,0,13.74,7a16.29,16.29,0,0,1-11.8-6A5.74,5.74,0,0,0,3.71,8.69,5.82,5.82,0,0,1,1.12,8v.07a5.72,5.72,0,0,0,4.59,5.61,5.71,5.71,0,0,1-1.5.2,5.49,5.49,0,0,1-1.08-.1,5.73,5.73,0,0,0,5.35,4,11.53,11.53,0,0,1-7.11,2.45A12.3,12.3,0,0,1,0,20.11a16.23,16.23,0,0,0,8.78,2.57c10.53,0,16.29-8.72,16.29-16.29,0-.25,0-.5,0-.74A11.71,11.71,0,0,0,27.91,2.68Z"/></g></g></svg>