<svg xmlns="http://www.w3.org/2000/svg" viewBox="0 0 191.89 5.56"><title>アセット 21</title><g id="レイヤー_2" data-name="レイヤー 2"><g id="copyRight"><path d="M1.55,5.56A1.43,1.43,0,0,1,0,4.1V1.46A1.44,1.44,0,0,1,1.55,0,1.32,1.32,0,0,1,3,1.39V2h-.9V1.4A.49.49,0,0,0,1.57.87.49.49,0,0,0,1,1.38v2.8a.49.49,0,0,0,.55.51.48.48,0,0,0,.54-.52V3.53H3v.64A1.32,1.32,0,0,1,1.55,5.56Z"/><path d="M5.53,5.56A1.41,1.41,0,0,1,4,4.11V1.46A1.41,1.41,0,0,1,5.53,0,1.41,1.41,0,0,1,7.06,1.46V4.11A1.4,1.4,0,0,1,5.53,5.56Zm.52-4.17A.48.48,0,0,0,5.53.87.48.48,0,0,0,5,1.39V4.17a.48.48,0,0,0,.51.52.47.47,0,0,0,.52-.52Z"/><path d="M9.8,3.41H9.15v2h-1V.12H9.8A1.11,1.11,0,0,1,11,1.32v.89A1.11,1.11,0,0,1,9.8,3.41Zm.25-2.07c0-.27-.1-.4-.35-.4H9.15v1.7H9.7c.25,0,.35-.14.35-.4Z"/><path d="M13.9,3.27V5.45h-1V3.27L11.71.12h1l.7,2.17L14.12.12h1Z"/><path d="M18.51,5.48c-.4,0-.55-.32-.55-.79v-1a.4.4,0,0,0-.41-.45H17V5.45H16V.12h1.66a1.11,1.11,0,0,1,1.23,1.16V2a.78.78,0,0,1-.61.82.83.83,0,0,1,.62.81v1a.7.7,0,0,0,.2.54v.3Zm-.58-4.16c0-.24-.11-.38-.36-.38H17V2.5h.51c.26,0,.4-.13.4-.42Z"/><path d="M20.09,5.45V.12h1V5.45Z"/><path d="M24.68,5.45,24.54,5a1,1,0,0,1-1,.54,1.32,1.32,0,0,1-1.39-1.39V1.39A1.41,1.41,0,0,1,23.71,0,1.36,1.36,0,0,1,25.2,1.39v.55h-1V1.35a.47.47,0,0,0-.52-.48.48.48,0,0,0-.53.5V4.21a.49.49,0,0,0,.54.49.48.48,0,0,0,.53-.49V3.46h-.53V2.74h1.5V5.45Z"/><path d="M28.42,5.45V3.26H27.3V5.45h-1V.12h1V2.37h1.12V.12h1V5.45Z"/><path d="M32.39,1V5.45h-1V1h-1V.12h3V1Z"/><path d="M37,5.56a1.35,1.35,0,0,1-1.5-1.37V3.82h.93v.31c0,.4.18.61.55.61a.48.48,0,0,0,.53-.53c0-.43-.28-.72-.81-1.11a2.21,2.21,0,0,1-1.15-1.66A1.37,1.37,0,0,1,37.06,0a1.33,1.33,0,0,1,1.42,1.37v.34h-.91V1.4a.5.5,0,0,0-.51-.57.46.46,0,0,0-.49.48c0,.45.27.68.87,1.11a2.09,2.09,0,0,1,1.09,1.67A1.41,1.41,0,0,1,37,5.56Z"/><path d="M41.05,5.56a1.39,1.39,0,0,1-1.52-1.35V.12h1V4.21a.51.51,0,0,0,1,0V.12h1V4.21A1.36,1.36,0,0,1,41.05,5.56Z"/><path d="M46,5.45,45,3.17l-.38-.84V5.45h-.92V.12h.86l1,2.31.35.85V.12h.91V5.45Z"/><path d="M49.74,1V5.45h-1V1h-1V.12h3V1Z"/><path d="M53.17,5.56a1.41,1.41,0,0,1-1.53-1.45V1.46a1.53,1.53,0,0,1,3.06,0V4.11A1.4,1.4,0,0,1,53.17,5.56Zm.52-4.17a.52.52,0,1,0-1,0V4.17a.52.52,0,1,0,1,0Z"/><path d="M58.27,5.48c-.39,0-.55-.32-.55-.79v-1a.4.4,0,0,0-.41-.45h-.53V5.45h-1V.12h1.66a1.11,1.11,0,0,1,1.23,1.16V2a.78.78,0,0,1-.61.82.83.83,0,0,1,.62.81v1a.74.74,0,0,0,.2.54v.3Zm-.58-4.16c0-.24-.11-.38-.36-.38h-.55V2.5h.51c.26,0,.4-.13.4-.42Z"/><path d="M61.62,3.27V5.45h-1V3.27L59.42.12h1.06l.69,2.17L61.83.12h1Z"/><path d="M67.17,5.45V3.26H66V5.45H65V.12h1V2.37h1.13V.12h1V5.45Z"/><path d="M70.78,5.56a1.41,1.41,0,0,1-1.52-1.45V1.46a1.53,1.53,0,0,1,3,0V4.11A1.4,1.4,0,0,1,70.78,5.56Zm.52-4.17a.52.52,0,1,0-1,0V4.17a.52.52,0,1,0,1,0Z"/><path d="M73.4,5.45V.12h1V4.57h1.51v.88Z"/><path d="M78.42,5.45H76.87V.12h1.55a1.35,1.35,0,0,1,1.47,1.44V4.05A1.32,1.32,0,0,1,78.42,5.45Zm.46-3.88c0-.39-.16-.59-.53-.59h-.48V4.59h.48c.37,0,.53-.21.53-.58Z"/><path d="M81,5.45V.12h1V5.45Z"/><path d="M85.44,5.45l-1-2.28L84,2.33V5.45H83.1V.12H84l1,2.31.35.85V.12h.91V5.45Z"/><path d="M89.81,5.45,89.68,5a1.06,1.06,0,0,1-1,.54,1.31,1.31,0,0,1-1.38-1.39V1.39A1.41,1.41,0,0,1,88.84,0a1.36,1.36,0,0,1,1.49,1.38v.55h-1V1.35a.47.47,0,0,0-.52-.48.48.48,0,0,0-.52.5V4.21a.48.48,0,0,0,.53.49.48.48,0,0,0,.53-.49V3.46h-.52V2.74h1.49V5.45Z"/><path d="M92.83,5.56a1.34,1.34,0,0,1-1.5-1.37V3.82h.92v.31c0,.4.19.61.55.61a.49.49,0,0,0,.54-.53c0-.43-.28-.72-.81-1.11a2.21,2.21,0,0,1-1.15-1.66A1.37,1.37,0,0,1,92.85,0a1.33,1.33,0,0,1,1.42,1.37v.34h-.92V1.4a.5.5,0,0,0-.51-.57.45.45,0,0,0-.48.48c0,.45.26.68.86,1.11a2.09,2.09,0,0,1,1.09,1.67A1.4,1.4,0,0,1,92.83,5.56Z"/><path d="M96.75,5.45V.12h1V4.57h1.5v.88Z"/><path d="M100.21,5.45V.12h1V5.45Z"/><path d="M105.54,5.45V1.58l-.21,1.16-.58,2.71H104l-.54-2.71-.21-1.16V5.45h-.9V.12h1.35l.56,2.7.17,1,.18-1,.55-2.7h1.34V5.45Z"/><path d="M107.62,5.45V.12h1V5.45Z"/><path d="M111.58,1V5.45h-1V1h-1V.12h3V1Z"/><path d="M113.52,5.45V.12h2.57V1h-1.56V2.29h1.08v.79h-1.08V4.56h1.56v.89Z"/><path d="M118.66,5.45h-1.55V.12h1.55a1.35,1.35,0,0,1,1.47,1.44V4.05A1.32,1.32,0,0,1,118.66,5.45Zm.46-3.88c0-.39-.16-.59-.53-.59h-.48V4.59h.48c.37,0,.53-.21.53-.58Z"/><path d="M121.18,5.45v-1H122v1Z"/><path d="M126.45,5.45l-.18-1h-1l-.19,1h-.94L125.27.12h1.13l1.07,5.33Zm-.63-3.89-.36,2.05h.69Z"/><path d="M128.4,5.45V.12h1V4.57h1.51v.88Z"/><path d="M131.87,5.45V.12h1V4.57h1.51v.88Z"/><path d="M139.2,5.48c-.4,0-.55-.32-.55-.79v-1a.4.4,0,0,0-.41-.45h-.53V5.45h-1V.12h1.66a1.11,1.11,0,0,1,1.23,1.16V2a.78.78,0,0,1-.61.82.83.83,0,0,1,.62.81v1a.7.7,0,0,0,.2.54v.3Zm-.58-4.16c0-.24-.11-.38-.36-.38h-.55V2.5h.51c.26,0,.4-.13.4-.42Z"/><path d="M140.78,5.45V.12h1V5.45Z"/><path d="M145.37,5.45,145.23,5a1,1,0,0,1-1,.54,1.32,1.32,0,0,1-1.39-1.39V1.39A1.41,1.41,0,0,1,144.4,0a1.36,1.36,0,0,1,1.49,1.38v.55h-1V1.35a.47.47,0,0,0-.52-.48.48.48,0,0,0-.53.5V4.21a.49.49,0,0,0,.54.49.48.48,0,0,0,.53-.49V3.46h-.52V2.74h1.49V5.45Z"/><path d="M149.11,5.45V3.26H148V5.45h-1V.12h1V2.37h1.12V.12h1V5.45Z"/><path d="M153.08,1V5.45h-1V1h-1V.12h3V1Z"/><path d="M156.4,5.56a1.34,1.34,0,0,1-1.49-1.37V3.82h.92v.31c0,.4.19.61.55.61a.48.48,0,0,0,.53-.53c0-.43-.27-.72-.8-1.11A2.21,2.21,0,0,1,155,1.44,1.37,1.37,0,0,1,156.43,0a1.32,1.32,0,0,1,1.41,1.37v.34h-.91V1.4a.5.5,0,0,0-.51-.57.45.45,0,0,0-.48.48c0,.45.26.68.86,1.11a2.09,2.09,0,0,1,1.09,1.67A1.41,1.41,0,0,1,156.4,5.56Z"/><path d="M162.81,5.48c-.39,0-.55-.32-.55-.79v-1a.4.4,0,0,0-.41-.45h-.52V5.45h-1V.12H162a1.11,1.11,0,0,1,1.23,1.16V2a.78.78,0,0,1-.61.82.84.84,0,0,1,.63.81v1a.74.74,0,0,0,.19.54v.3Zm-.58-4.16c0-.24-.1-.38-.35-.38h-.55V2.5h.51c.25,0,.39-.13.39-.42Z"/><path d="M164.39,5.45V.12H167V1h-1.57V2.29h1.09v.79h-1.09V4.56H167v.89Z"/><path d="M169.38,5.56a1.34,1.34,0,0,1-1.49-1.37V3.82h.92v.31c0,.4.19.61.55.61a.48.48,0,0,0,.53-.53c0-.43-.27-.72-.81-1.11a2.2,2.2,0,0,1-1.14-1.66A1.37,1.37,0,0,1,169.41,0a1.32,1.32,0,0,1,1.41,1.37v.34h-.91V1.4a.5.5,0,0,0-.51-.57.46.46,0,0,0-.49.48c0,.45.27.68.87,1.11a2.09,2.09,0,0,1,1.09,1.67A1.41,1.41,0,0,1,169.38,5.56Z"/><path d="M171.89,5.45V.12h2.57V1h-1.57V2.29H174v.79h-1.08V4.56h1.57v.89Z"/><path d="M178,5.48c-.39,0-.55-.32-.55-.79v-1a.4.4,0,0,0-.41-.45h-.53V5.45h-1V.12h1.66a1.11,1.11,0,0,1,1.23,1.16V2a.78.78,0,0,1-.61.82.83.83,0,0,1,.62.81v1a.74.74,0,0,0,.2.54v.3Zm-.58-4.16c0-.24-.11-.38-.36-.38h-.55V2.5H177c.26,0,.4-.13.4-.42Z"/><path d="M181.34,5.45h-1L179.19.12h1l.65,3.67.68-3.67h1Z"/><path d="M183.46,5.45V.12H186V1h-1.57V2.29h1.08v.79h-1.08V4.56H186v.89Z"/><path d="M188.6,5.45H187V.12h1.56a1.36,1.36,0,0,1,1.47,1.44V4.05A1.32,1.32,0,0,1,188.6,5.45Zm.46-3.88c0-.39-.16-.59-.54-.59h-.47V4.59h.47c.38,0,.54-.21.54-.58Z"/><path d="M191.11,5.45v-1h.78v1Z"/></g></g></svg>