<svg xmlns="http://www.w3.org/2000/svg" viewBox="0 0 27 25.65"><defs><style>.menu_btn_svg1{fill:#d0b263;}</style></defs><title>アセット 23</title><g id="レイヤー_2" data-name="レイヤー 2"><g id="ガイド"><polygon class="menu_btn_svg1" points="27 1 1 3.27 1 6.3 27 4.02 27 1"/><polygon class="menu_btn_svg1" points="27 10.67 1 12.95 1 15.97 27 13.7 27 10.67"/><polygon class="menu_btn_svg1" points="27 20.35 1 22.62 1 25.65 27 23.37 27 20.35"/><polygon points="26 0 0 2.27 0 5.3 26 3.02 26 0"/><polygon points="26 9.67 0 11.95 0 14.97 26 12.7 26 9.67"/><polygon points="26 19.35 0 21.62 0 24.65 26 22.37 26 19.35"/></g></g></svg>