<svg xmlns="http://www.w3.org/2000/svg" viewBox="0 0 589.88 524.68"><defs><style>.warikan_btn2_svg1{fill:#af3b1c;}.warikan_btn2_svg2{fill:#e55523;}.warikan_btn2_svg3{fill:#c94420;}</style></defs><title>アセット 10</title><g id="レイヤー_2" data-name="レイヤー 2"><g id="content"><polygon class="warikan_btn2_svg1" points="0 112.31 412.38 524.68 589.88 337.88 335 83 0 112.31"/><polygon class="warikan_btn2_svg2" points="335 0 0 29.31 0 112.31 335 83 335 0"/><polygon class="warikan_btn2_svg3" points="335 0 589.88 254.88 589.88 337.88 335 83 335 0"/><path d="M45,54.13,41.84,69.26l-5.74.5,3.21-15.23V41.42l5.7-.5ZM66.1,50.89,62.3,67.47,48.88,68.64V40.58l5.71-.5V62.91l3.34-.3,2.5-11.23Z"/><path d="M94.77,53.68,68.07,56V50l26.7-2.34Z"/><path d="M125.08,45.66,120,62.42,98.38,64.31V36.25l5.88-.51V58.09l11.54-1L119,46.19Z"/><path d="M133.63,49.92l-5.07.44V40.68l5.07-.44ZM150,51.82l-6.71,8.56-13.48,1.18v-5l11.18-1,4-5.12V38.81l5-.44Zm-8.65-2.58-5,.44V40l5-.44Z"/><path d="M180.59,48.08l-7.31.64-12.44-4.19V58.85l-5.78.5V31.29l5.78-.5v7.57l13.21,4.45,6.54-.57Z"/><path d="M200.2,32.08l-4,.35V30.36l-10.31.91v2.07l-4.1.35V27.92l6.5-.57V26.18l5.51-.48v1.17l6.44-.56Zm0,13.62-18.36,1.6V43.87l6.58-.58V42l-5.31.46V39l5.31-.47v-1.3l-5.31.47V34.28l5.31-.47V32.35l5.2-.46v1.47l5.31-.47v3.44l-5.31.47v1.3l5.31-.47v3.44l-5.31.46v1.31l6.58-.58Zm-1,10.53-16.35,1.43V48.42L199.16,47Zm-4.87-3.11V51l-6.6.58V53.7Zm11.62-4.85-4.48.39v-22l4.48-.39Zm6.4,7.18-8.67.76V51.07l4-.35V24.49l4.67-.41Z"/><path d="M220.23,45.34l-5.64.5V25.58l5.64-.49Zm20.52,1.14-5.84,6.42-10.21.9V48.29l7.24-.63,3.14-3.45V23.79l5.67-.5Z"/><path d="M260.11,40.79l-3.77.33v2l3-.27v2.74l-6,.52V41.37l-2.64.23,2,1.06-2.67,4.88-2.33-1.3,2.5-4.59-2.5.22-.07.07v6.27l11.78-1v4l-15.92,1.39V42.23l-1.17.11V38.13l1.77-.15V27.3l-1.57.14V23.26l1.57-.13V21.29l4.54-.39v1.83l5.21-.45V20.44l4.53-.4v1.84l1.54-.14v4.17l-1.54.14V36.73l1.67-.15Zm-6.2-12.88V26.45l-5.21.45v1.47Zm0,4.64V31l-5.21.46V33Zm0,4.58V35.56L248.7,36v1.57Zm19.12,13-6.38.56V45.92l2.11-.18v-18l-2,.18-2.2,23-4.27,0,2.1-22.54-2,.18V24.05l2.5-.22.4-4.37,4.31.05-.37,3.94,5.84-.51Z"/><path d="M76.08,77.18l-6.8.6v1.65l4.37-.38.58-.44,1.45,2.3-5.77,4.42,5.24,2.25-1.44,2.61-6.45-2.82-5,3.82-1.7-2.3,3.74-2.8-2.18-1,1.25-2.58-3.09.27v-2.6l6-.53V78l-6.8.59V76l6.8-.6V74.05l3-.26v1.37l6.8-.6ZM69.73,82l-6.27.55L67,84.08Z"/><path d="M84.77,83.26l-2.35.94v5l-2.89.26v-4.1L78,86l-.77-2.48,2.35-.94V78.2l-2,.18V75.81l2-.18V72.87l2.89-.25v2.76l1.91-.17v2.57l-1.91.16v3.47L84,80.78Zm9.37,4.47-2.79.58-.2-1.3-6.8,1.68L84,86l.76-.18,2.19-13.54,2.92.17L87.8,85l3-.74-.72-5,2.79-.58Z"/><path d="M110.85,83.24l-3.14,3.41-11.11,1V84.68l9.68-.84,1.46-1.59V80.18l-1.46-1.35-11.14,1v-3l12.51-1.09,3.2,3Zm-2.56-9-11.67,1V72.29l11.67-1Z"/><path d="M120.68,78.34l-.79,2-2.79-1.18-1,1.51,4.06-.35v5.34l-7.47.66V81l2.76-.24-1.21-.79,1.07-1.53-1-.44,1-1.8,1.2.5,1-1.52-2.16.19-2.2,3L111.77,77l2.32-3.07-1.83.16V70.68l2.87-.26v-.65l2.65-.23v.65l2.88-.25v3.43l-1,.08.72.63-2.13,3.29Zm-2.14-5.21v-1l-4.17.36v1l.41-.51.56.37Zm-.71,10.8V82.46l-2.77.24v1.48Zm11-13-2.83.25-.3,1.08,2.67-.23V83.44l-.58,0,.6,1.28-2.06.9-.86-2-1.22.11-.82,2.13-2-.56.54-1.37-.59,0V72.64l1.86-.16.32-1.08-2.34.2V69.51l7.65-.67Zm-2.69,4.42V74l-2.57.23v1.39Zm0,3.22V77.09l-2.57.23V78.8Zm0,3.22V80.33l-2.57.22V82Z"/><path d="M135.63,84.2l-3,.26-2.26-2.1v-13l3-.26V80.69l.66.61,1.6-.14Zm10.48-5.94-1.6.14v2.92l-2.21,2.3-4.17.37-2.36-2V78.62l2.34-2.51,3.4-.29v-3.5l-6.21.54v-3l6.21-.54v-1.5l3-.26v1.49l1.6-.14v3l-1.6.14v3.5l1.6-.14Zm-4.6,2.2v-1.8l-2.18.19-.73.7v1.18l.73.6,1.42-.12Z"/><path d="M152.16,74.65l-1.67,8-3,.27,1.69-8V68l3-.27Zm11.11-1.71-2,8.74-7.07.62V67.52l3-.27v12l1.76-.16,1.31-5.91Z"/><path d="M179.57,74.31l-14.06,1.23V72.36l14.06-1.23Z"/><path d="M196.75,70l-2.67,8.83-11.39,1V65l3.09-.27V76.53l6.08-.53,1.71-5.74Z"/><path d="M202.48,72.12l-2.67.23v-5.1l2.67-.23Zm8.63,1-3.53,4.51-7.11.62V75.6l5.89-.52,2.09-2.7V66.27l2.66-.24Zm-4.55-1.36L203.9,72v-5.1l2.66-.23Z"/><path d="M228.46,71l-3.85.34-6.56-2.21v7.54L215,77V62.2l3-.27v4l7,2.34,3.45-.3Z"/><path d="M243.65,74.75l-8.61.76L231.52,72V65.51L233,64.05l-3.6.32v-3l11.83-1v3l-4.42.39-2.19,2v4.85l2,1.78,7.09-.62Zm1.74-13.54L242,61.5V59.06l3.39-.3Zm0,3.32-3.39.3V62.37l3.39-.3Z"/><path d="M253.06,69.48l-2.78.25V58.48l2.78-.25Zm0,4.47-2.78.24V71.43l2.78-.24Z"/><polygon points="306.38 30.82 316.49 40.05 306.38 51.05 306.38 30.82"/></g></g></svg>