<svg xmlns="http://www.w3.org/2000/svg" viewBox="0 0 167 100">
  <defs>
  </defs>
  <title>アセット 20</title>
  <g id="レイヤー_2" data-name="レイヤー 2">
    <g id="content">
      <polygon class="cls-1 shadow" points="158 0 167 8 167 86 158 78 158 0" />
      <polygon class="cls-2 shadow" points="0 92 9 100 167 86 158 78 0 92" />
      <polygon class="cls-3" points="158 0 0 13.78 0 91.78 158 78 158 0" />
      <path d="M51,43.06l-3.31.29V54.44L31.55,55.85V44.76l-4.56.4V60l23.14-2v5.14L21.39,65.65v-20l-3.14.27V40.64l3.14-.27V33.49L27,33v6.88l4.56-.4V32.6L37,32.13V39l5.25-.46V31.67l5.43-.48v6.88L51,37.78ZM42.25,50V43.82L37,44.28v6.19Z" />
      <path d="M68.69,44.93,60,45.7V62.62l-5.53.48v-32l14.26-1.25ZM64,36.3V34.47l-4,.35v1.83Zm0,5V39.51l-4,.35v1.83ZM77,60,62.72,61.27V47.35L77,46.1Zm-4.56-8V50.3l-5.21.46v1.69Zm0,4.69V54.93l-5.21.46v1.76ZM85.2,60.41l-5.49.48V44l-8.7.76V29.67L85.2,28.43ZM79.71,34.92V33.09l-3.9.34v1.83Zm0,5V38.13l-3.9.34V40.3Z" />
      <path d="M103.07,33,88.6,34.24V29.51l4.73-.41V27.2l5-.44v1.9l4.73-.41Zm-.9,6.09L89.5,40.18V35.86l12.67-1.11Zm0,6L89.5,46.22V41.94l12.67-1.11Zm0,13.37L89.5,59.58V48l12.67-1.11Zm-4.66-3.74V51.39l-3.32.29V55Zm24-15.74-6.39.56v3.28l5.52-.48V57L104.28,58.4V43.79l5.56-.49V40l-6.43.56v-5l6.43-.56V32.14l-4.46,1.12-.83-4.73,14.85-3.92,1.11,4.84-5.42,1.37v3.77l6.39-.56Zm-6,13.65V47.54l-6,.53v5.11Z" />
      <polygon points="135 29.48 145.11 38.7 135 49.7 135 29.48" />
    </g>
  </g>
</svg>
