<svg xmlns="http://www.w3.org/2000/svg" viewBox="0 0 167 100">
  <defs>
  </defs>
  <title>アセット 19</title>
  <g id="レイヤー_2" data-name="レイヤー 2">
    <g id="content">
      <polygon class="cls-1 shadow" points="158 0 167 8 167 86 158 78 158 0" />
      <polygon class="cls-2 shadow" points="0 92 9 100 167 86 158 78 0 92" />
      <polygon class="cls-3" points="158 0.22 0.5 14 0.5 92 158 78.22 158 0.22" />
      <path d="M31.29,54l-4.24.37V38.86l4.24-.37ZM66.91,66.51,44,68.51V62.3l9.35-.81V54.06L46,54.7V48.53l7.3-.64V40.46l-4.44.39-1,5-4.28-.55L44.84,51l-4,1.36-1.84-8V69.45l-6.3.55V30.52L39,30v7.55l2.56-.89,1.25,5.55L45.3,30.05l5.62.64-.8,3.84,3.19-.27V28.72l6.46-.57v5.54l7-.61v6.21l-7,.61v7.43l6-.53V53l-6,.52v7.43l7.14-.62Z" />
      <path d="M110.75,41.27l-2,5.21L98.17,42.54,93.8,48,90,44.72l3.27-4-2.23-.85,1.81-5.07,4,1.45,3.69-4.6-7,.61-6,8.67-3.73-2.73-2.27.19V43L83,42.19l3.69,7.86L82.6,52.38l-1-2.39V65.73l-6.29.55V51.09L74,57l-4.62-.9,3.45-15.07,2.39.59V39l-4.7.42v-6.3l4.7-.41V26.8l6.29-.55v5.87l3.4-.3v4l7.93-11.18L96.19,27l8.86-.78.71-.86,3.78,3.12L101.82,38ZM108.11,62.9,87.05,64.74V49.05l21.06-1.84Zm-6-5V53.32l-9,.78v4.53Z" />
      <polygon points="134 31.23 144.11 40.45 134 51.45 134 31.23" />
    </g>
  </g>
</svg>
