<svg xmlns="http://www.w3.org/2000/svg" viewBox="0 0 167 100">
  <defs>
  </defs>
  <title>アセット 18</title>
  <g id="レイヤー_2" data-name="レイヤー 2">
    <g id="content">
      <polygon class="cls-1 shadow" points="158 0 167 8 167 86 158 78 158 0" />
      <polygon class="cls-2 shadow" points="0 92 9 100 167 86 158 78 0 92" />
      <polygon class="cls-3" points="158 0 0 13.78 0 91.78 158 78 158 0" />
      <path d="M37.49,55.16l-3.4,13.76-6.33-1,3.35-13.77ZM67.91,35.38l-11.41,1V49.47L50,50V37l-3.1.27L44,51.06l-6.54-.85,2.6-12.4-11.71,1V32.71l16.33-1.43V28.81l6.88-.6v2.47l16.32-1.43ZM36.78,42,34,50.26l-5.63-1.48,2.9-8.22ZM58.43,66.59,38.79,68.3V53.16l7-.62v8.65l12.63-1.11Zm-2.19-10.3-5.7,2.38-2.23-6.56L54,49.81ZM68.54,64,62.2,66.09,58.72,52.76l6.38-2.07Zm-.93-18.13-5.53,2.46-2.82-7.77,5.54-2.37Z" />
      <path d="M111.24,44.68l-4.62,3.38-4.15-6,2.27-1.67V37.07l-7.56.66.51,1.5L93.37,41l-1-2.89-5,.43v3.65L101.3,41V45.3L84.39,46.78l2,1.75L101,47.26l1.34-1.09,2.6,3.64-7.3,6.3,12.47,2.14-1.51,5.42L92.4,60.59l-5.87,5.09L82.71,62.4l3.61-2.95L83,58.81l1.68-4.93,6.88,1.2,3.82-3.14-10.66.93-9.86,9.89L71.3,59.29l12-12.42L81.66,47V39.08l-4,.35V42L81,43.8l-4.15,6.83-4.62-2.58,2.6-4.26-3.31.29V34.94l6.92-.61-.88-2.48-4.87.59-.25-5L109.81,23l.21,5-5.07.61-1,3.53,6.88-.61v9.15l-2.26.2ZM88.16,33.48l-1-2.81-3.91.51,1,2.65Zm11.21-4.25L92.82,30l1.05,3,4.49-.39Z" />
      <polygon points="135 30.48 145.11 39.7 135 50.7 135 30.48" />
    </g>
  </g>
</svg>
