<svg xmlns="http://www.w3.org/2000/svg" viewBox="0 0 167 100">
  <defs>
  </defs>
  <title>アセット 16</title>
  <g id="レイヤー_2" data-name="レイヤー 2">
    <g id="ガイド">
      <polygon class="cls-1 shadow" points="158 0 167 8 167 86 158 78 158 0" />
      <polygon class="cls-2 shadow" points="0 92 9 100 167 86 158 78 0 92" />
      <polygon class="cls-3" points="158 0 0 14 0 92 158 78 158 0" />
      <path d="M41.06,30.55,35.89,49l2.86-.25V69l-6.63.58V53.49l-4.07-.82,6.33-23ZM67.91,42.89l-9.32.81V59.81l7.76-.68v6.93l-23.2,2V61.16L51,60.48V44.37l-9.48.83V38L51,37.15V28.46l7.59-.66v8.68l9.32-.81Z" />
      <path d="M110.28,53.23l-1.68.15v6.08L93.92,60.75v3.44L87,64.8V61.36L71.85,62.68V58.32L87,57V55.27L70.63,56.7V52.38L87,51V49.27L71.85,50.6V46.19L87,44.87v-1.6L72.73,44.52V34.66L87,33.41V31.94L70.63,33.38v-5L87,27V25.27l6.92-.6v1.72L110.28,25v4.95L93.92,31.34v1.47l14.31-1.26v9.86L93.92,42.67v1.59L108.6,43v6.08l1.68-.15ZM87,39.33v-2L79.53,38v2Zm14.39-1.26v-2l-7.47.65v2Zm.75,11.56V48l-8.22.72v1.67Zm0,6V54l-8.22.72v1.72Z" />
      <polygon points="135 30.69 145.11 39.91 135 50.91 135 30.69" />
    </g>
  </g>
</svg>
