<svg xmlns="http://www.w3.org/2000/svg" viewBox="0 0 167 100">
  <defs>
  </defs>
  <title>アセット 23</title>
  <g id="レイヤー_2" data-name="レイヤー 2">
    <g id="content">
      <polygon class="cls-1 shadow" points="158 0 167 8 167 86 158 78 158 0" />
      <polygon class="cls-2 shadow" points="0 92 9 100 167 86 158 78 0 92" />
      <polygon class="cls-3" points="158 0 0 13.78 0 91.78 158 78 158 0" />
      <path d="M47.06,52.21,41,58.3,26.34,59.58V55.31l12.8-1.11,3.45-3.43v-3L25.25,49.34V45.08l21.81-1.91ZM46,40.92,26.26,42.65V38.38L46,36.66Z" />
      <path d="M71.34,48.1,63.7,56.31,50.29,57.49V53l11.58-1,5-5.34v-12l4.47-.39Zm-11.07-7-9.62.84V37.49l9.62-.84Z" />
      <path d="M97.67,44.73l-1.82.16v.71l-6.38,8.46-11.91,1V50.63l9.83-.86,3.33-4.43-9.15.8V42.08l9.83-.86V37.15l-8.91.78L78.86,43l-4.07.36V38.89l2-.18,3.56-5.06,12-1V31.38l5.33-.46v3.53l-5.07.44v1.42l5.07-.44v3.55l-1.82.16v1.25l1.82-.16Z" />
      <path d="M122.39,51.18l-4.7.41L117,49.11l-4.73,3L99.87,53.15v-4.5l6.22-17.4,4.77-.42-6.25,17.41,7.17-.63,4.13-2.49L114.52,40l4.52-.39Z" />
      <polygon points="133.5 31.01 143.61 40.23 133.5 51.23 133.5 31.01" />
    </g>
  </g>
</svg>
