<svg xmlns="http://www.w3.org/2000/svg" viewBox="0 0 167 100">
  <defs>
  </defs>
  <title>アセット 17</title>
  <g id="レイヤー_2" data-name="レイヤー 2">
    <g id="ガイド">
      <polygon class="cls-1 shadow" points="158 0 167 8 167 86 158 78 158 0" />
      <polygon class="cls-2 shadow" points="0 92 9 100 167 86 158 78 0 92" />
      <polygon class="cls-3" points="158 0.2 0.5 13.98 0.5 91.98 158 78.2 158 0.2" />
      <path d="M65,60.21l-6,6.62-7.21.63v-7L56,60l2-2.15v-4.4l-2-1.8-8.51.74v9.7l-4.87,6.13-9.19.8-6.08-5.55V53.32l6.17-6.84,7-.61v-4.7L27.9,42.27V35.35l12.54-1.1V30.64l7-.61v3.61l4.15-.37V40.2l-4.15.36v4.7l11.49-1,6,5.6Zm-24.54-.49V53.05L36,53.43,34,55.79v4.37L35.87,62l2.77-.24Zm24.5-19-6.75.59V38.91L56.43,37.3l-2.19.19V30.4l5.29-.46,5.41,5Z" />
      <path d="M109.57,31.68,107,38l-3.57-1.32v4.23L92.7,41.8v3.65L108,44.12V49.7L92.7,51V58.5l4.83-.42,1.72-6.65,6.38.61-1.35,5.45,4.79-.42v5.58L69.42,66.12V60.54l5.24-.46L73.4,54.86l6.3-1.77,1.72,6.4,4.36-.38V51.64L70.47,53V47.4l15.31-1.34V42.41L75,43.35V38.9L71.26,41l-2.64-5.81,19-10.52,2,3.93,1.68-3.5Zm-9.19,3.79-11.7-4.35L77.56,37.46Z" />
      <polygon points="134 31.19 144.11 40.42 134 51.41 134 31.19" />
    </g>
  </g>
</svg>
