<svg xmlns="http://www.w3.org/2000/svg" viewBox="0 0 230.25 129.16"><defs><style>.cls-1{fill:#d0b263;}.cls-2{fill:#fff;stroke:#fff;stroke-miterlimit:10;stroke-width:4.04px;}</style></defs><title>アセット 6</title><g id="レイヤー_2" data-name="レイヤー 2"><g id="content"><path class="cls-1" d="M48.51,39.06v88.35l-20.58,1.75V40.81L7.67,42.54V25.06l60.94-5.19V37.35Z"/><path class="cls-1" d="M112.14,122l-3.62-20.51-19.44,1.65-4,21.16L66,125.92,88.09,18.21,111,16.27l21.9,104ZM99.29,45.86,91.88,87.33l14-1.19Z"/><path class="cls-1" d="M176.38,76,163,77.15v40.52l-20.42,1.74V13.58l33.77-2.88c15.48-1.31,24.87,6.47,24.87,21.72v17.8C201.25,65.32,191.86,74.7,176.38,76Zm5.1-41.59c0-5.24-2.14-7.76-7.25-7.33l-11.2,1V61.89l11.2-1c5.11-.43,7.25-3.32,7.25-8.56Z"/><path class="cls-1" d="M224,82.93l-5.6.47L212.3,53.57V7.65l17.95-1.53V52Zm-10.54,30.45V95l15.48-1.32v18.43Z"/><path class="cls-2" d="M42.86,35.14v88.35l-20.58,1.75V36.89L2,38.61V21.13L63,16V33.43Z"/><path class="cls-2" d="M106.49,118.08l-3.62-20.51L83.43,99.22l-4,21.15L60.37,122,82.44,14.29l22.9-1.95,21.9,104ZM93.64,41.94,86.23,83.41l14-1.19Z"/><path class="cls-2" d="M170.73,72.09l-13.35,1.14v40.52L137,115.48V9.65l33.77-2.87c15.48-1.32,24.87,6.47,24.87,21.72V46.3C195.6,61.39,186.21,70.77,170.73,72.09Zm5.1-41.59c0-5.24-2.14-7.76-7.24-7.33l-11.21.95V58L168.59,57c5.1-.44,7.24-3.32,7.24-8.56Z"/><path class="cls-2" d="M218.34,79l-5.6.48-6.09-29.83V3.72L224.6,2.2V48.12ZM207.8,109.46V91l15.48-1.31v18.43Z"/><path d="M42.86,35.14v88.35l-20.58,1.75V36.89L2,38.61V21.13L63,16V33.43Z"/><path d="M106.49,118.08l-3.62-20.51L83.43,99.22l-4,21.15L60.37,122,82.44,14.29l22.9-1.95,21.9,104ZM93.64,41.94,86.23,83.41l14-1.19Z"/><path d="M170.73,72.09l-13.35,1.14v40.52L137,115.48V9.65l33.77-2.87c15.48-1.32,24.87,6.47,24.87,21.72V46.3C195.6,61.39,186.21,70.77,170.73,72.09Zm5.1-41.59c0-5.24-2.14-7.76-7.24-7.33l-11.21.95V58L168.59,57c5.1-.44,7.24-3.32,7.24-8.56Z"/><path d="M218.34,79l-5.6.48-6.09-29.83V3.72L224.6,2.2V48.12ZM207.8,109.46V91l15.48-1.31v18.43Z"/></g></g></svg>