<svg xmlns="http://www.w3.org/2000/svg" viewBox="0 0 221.35 266.25"><defs><style>.tw_svg1{fill:#4fa1d3;}.tw_svg2{fill:#458eba;}.tw_svg3{fill:#55acee;}.tw_svg4{fill:#fff;}</style></defs><title>アセット 8</title><g id="レイヤー_2" data-name="レイヤー 2"><g id="Header"><polygon class="tw_svg1" points="44.49 0 180.96 136.47 180.96 178.23 44.49 41.76 44.49 0"/><polygon class="tw_svg2" points="0.55 45.45 221.35 266.25 180.96 178.23 44.49 41.76 0.55 45.45"/><polygon class="tw_svg3" points="44.49 0 0 3.89 0.55 45.45 44.49 41.76 44.49 0"/><path class="tw_svg4" d="M34.77,14a11.19,11.19,0,0,1-3,1.07,5.88,5.88,0,0,0,2.26-3,11.5,11.5,0,0,1-3.27,1.53,4.69,4.69,0,0,0-3.75-1.29,5.71,5.71,0,0,0-5.14,5.58A4.85,4.85,0,0,0,22.06,19a13.26,13.26,0,0,1-10.59-4.44,5.37,5.37,0,0,0-.7,2.64,4.64,4.64,0,0,0,2.29,4.08,4.72,4.72,0,0,1-2.33-.44v.07a4.62,4.62,0,0,0,4.12,4.68,5.5,5.5,0,0,1-1.35.29,5.24,5.24,0,0,1-1,0A4.61,4.61,0,0,0,17.33,29,11.17,11.17,0,0,1,11,31.75a10.24,10.24,0,0,1-1.23,0,13.74,13.74,0,0,0,7.88,1.62c9.45-.83,14.62-9.11,14.62-15.9,0-.22,0-.45,0-.66A12,12,0,0,0,34.77,14Z"/></g></g></svg>