<svg xmlns="http://www.w3.org/2000/svg" viewBox="0 0 167 100">
  <defs>
  </defs>
  <title>アセット 21</title>
  <g id="レイヤー_2" data-name="レイヤー 2">
    <g id="content">
      <polygon class="cls-1 shadow" points="158 0 167 8 167 86 158 78 158 0" />
      <polygon class="cls-2 shadow" points="0 92 9 100 167 86 158 78 0 92" />
      <polygon class="cls-3" points="158 0 0 13.78 0 91.78 158 78 158 0" />
      <path d="M51,30.67,32.35,68.43,25.77,65.6,44.31,27.94ZM63.86,61.56l-6.08,4.77L42.72,47.63l5.87-4.71Z" />
      <path d="M106.54,61.72,68.06,65.09V58.76L84.8,57.29V50.07L70.29,51.34V45.05L84.8,43.78V36.56l-9.35.82L73.6,43.21l-6.67-1.56,5-15.2,6.59,1.35-1,3.11,7.3-.64V24.61l7-.62v5.67l13.51-1.18v6.29L91.81,36v7.22l12.46-1.09v6.29L91.81,49.46v7.22l14.73-1.29Z" />
      <polygon points="133.5 30.01 143.61 39.23 133.5 50.23 133.5 30.01" />
    </g>
  </g>
</svg>
