<svg xmlns="http://www.w3.org/2000/svg" viewBox="0 0 167 90">
  <defs>
  </defs>
  <title>アセット 25</title>
  <g id="レイヤー_2" data-name="レイヤー 2">
    <g id="content">
      <polygon class="cls-1 shadow" points="158 0 167 8 167 76 158 68 158 0" />
      <polygon class="cls-2 shadow" points="0 82 9 90 167 76 158 68 0 82" />
      <polygon class="cls-3" points="158 0 0 13.78 0 81.78 158 68 158 0" />
      <path d="M44.53,29.45l-2.08,5.92-8.07-2.55,2-5.81Zm1.92,15.94-6.51,15.3-5.48-2L40.9,43.46ZM70.3,26.9,67.19,41.46l-5.26-.76,1.78-7.82L51.41,34l-2.14,8.18-5.78-1,4.44-16.35,5.78.53-.78,2.85L65,27.1,65.3,26ZM68.22,55.62,63,59.15l-6.62-11.3L52.27,60l-5.71-1.35,7.82-23.23,5.73,1.35L56.67,46.9l4.59-2.77Z" />
      <path d="M106.71,54.15l-13,1.14V33.81L90,30.36l-7.1.62-3.67,4.13V51.7L73,52.25V33.07l7.22-8.22,12.58-1.1,7.22,7V48.4l6.74-.59Z" />
      <polygon points="133.5 24.01 143.61 33.23 133.5 44.23 133.5 24.01" />
    </g>
  </g>
</svg>
