<svg xmlns="http://www.w3.org/2000/svg" viewBox="0 0 167 90">
  <defs>
  </defs>
  <title>アセット 24</title>
  <g id="レイヤー_2" data-name="レイヤー 2">
    <g id="content">
      <polygon class="cls-1 shadow" points="158 0 167 8 167 76 158 68 158 0" />
      <polygon class="cls-2 shadow" points="0 82 9 90 167 76 158 68 0 82" />
      <polygon class="cls-3" points="158 0 0 13.78 0 81.78 158 68 158 0" />
      <path d="M62.87,40.23l-7,.62V36.38l2.59-.23V26.81l-7.55.66L48,41.54,42.56,42V37.54l2-.17,1.86-9.51-4.75.42V23.76l5.66-.5.59-3.07,4.57-.4-.64,3.07,11-1Z" />
      <path d="M88.81,28.34,81.87,29l-2.28,9.82L69,39.7V35.23l7-.62,1.2-5.26-10.8.95V25.85l22.38-2Zm-.89-7.08L67.15,23.08V18.66l20.77-1.82Z" />
      <path d="M114,21.84,112.3,22V35.71L91.76,37.5V33l16.12-1.41V20.53L91.76,21.94V17.49L108.7,16V13.8l5.33-.46v3.53l-5.16.45v1.42l5.16-.45Z" />
      <path d="M121.91,27.83l-4.42.39V14.1l4.42-.39Zm15.36-.25-6,6.67-11.33,1V30.87l9.27-.81,3.53-3.89V12.76l4.49-.39Z" />
      <path d="M48.81,67.87,45,68.21l-3.28-3V46.35L46,46V62.76l1,.85,1.83-.16ZM64,66.36l-11.68,1-3.41-3.14v-5.2l4.22-.37v3l1.34,1.2L64,62.1Zm-.13-16.21L49,51.45V47.19l14.93-1.31Z" />
      <path d="M90.36,58.7l-5.82.51L88.38,63l-2.72,2.6-4-4.1L84,59.26l-3.18.28-3.7,6.65-3.36-1.56,2.64-4.71-3.86.34V56.83l5.87-.51,1.14-2-7.61.66V57l-1.5,9.43-3.89-.22,1.37-8.85V47.59L90,45.65v7.7l-8.56.74,2,.72-.63,1.12,7.57-.66Zm.28-14.27-23.9,2.09v-3.3l23.9-2.09ZM86,50.75V48.93L71.9,50.16V52Z" />
      <path d="M116.08,57.72l-4.27,4.64-15,1.31-3.13-2.8V56.32l3.13-3.39,5.61-.49,3.12,2.82v3.45l4.22-.37,1.65-1.82V51.93l-1.68-1.53-8.73.76,1-5.6-8.76.77V42.11l13.82-1.2-1,5.64,5.68-.49L116.08,50Zm-14.45,1.34V56.72l-1-.85-2.21.19-.94,1v1.47l.81.79Z" />
      <polygon points="24 35.88 14.89 45.76 24 54.11 24 35.88" />
    </g>
  </g>
</svg>
