<svg xmlns="http://www.w3.org/2000/svg" viewBox="0 0 167 100">
  <defs>
  </defs>
  <title>アセット 22</title>
  <g id="レイヤー_2" data-name="レイヤー 2">
    <g id="content">
      <polygon class="cls-1 shadow" points="158 0 167 8 167 86 158 78 158 0" />
      <polygon class="cls-2 shadow" points="0 92 9 100 167 86 158 78 0 92" />
      <polygon class="cls-3" points="158 0 0 13.78 0 91.78 158 78 158 0" />
      <path d="M49.58,64.07l-9.78.86v-2l-18,1.58V49.17l-3.91-.77L22.4,33.33l5.83.56-.51,1.77,21.86-1.91Zm-5.87-5V39.48L26.06,41l-.83,2.73,15.4-1.35v17Zm-8.53-8.3V47.54l-7.95.7v3.25Zm0,7.91V55.49l-7.95.69v3.21Z" />
      <path d="M73.46,38.67l-11.81,1L60.06,61.43l-5.8.5,1.45-21.71-2.17.19V34.78l2.55-.22.17-2.68,6-.52L62.07,34l11.39-1Zm11,12.06L81.92,51v6.11l-4,4L67.32,62l-4.15-3.92V51.69l4.15-4.82,8.73-.76V43.38l5.87-.51V45.6l2.53-.23Zm-8.4,3.87V51.46L70.18,52l-1.31,1.39V55.3l1.31,1.13L74.71,56Zm8.57-13.83-5.56.48V38.8l-1.45-1.32-1.8.15V31.8l4.35-.38,4.46,4.13Z" />
      <path d="M102.3,33.73,87.83,35V30.26l4.73-.41V28l5-.44v1.9L102.3,29Zm-.89,6.09-12.68,1.1V36.61l12.68-1.11Zm0,6L88.73,47V42.69l12.68-1.11Zm0,13.37-12.68,1.1V48.7l12.68-1.11Zm-4.67-3.74V52.14l-3.31.29v3.35Zm24-15.74-6.39.56v3.28l5.53-.48V57.72l-16.34,1.42V44.54l5.56-.49V40.77l-6.42.56v-5l6.42-.57v-2.9L104.62,34l-.83-4.73,14.85-3.92,1.1,4.84-5.42,1.37v3.77l6.39-.56Zm-6,13.65V48.29l-6,.53v5.11Z" />
      <polygon points="135 30.48 145.11 39.7 135 50.7 135 30.48" />
    </g>
  </g>
</svg>
