<svg xmlns="http://www.w3.org/2000/svg" viewBox="0 0 57.8 45.24"><defs><style>.logo_svg1{fill:#d0b263;}.logo_svg2{fill:#fff;stroke:#fff;stroke-miterlimit:10;stroke-width:0.98px;}</style></defs><title>logo</title><g id="レイヤー_2" data-name="レイヤー 2"><g id="Header"><path class="logo_svg1" d="M4.91,17.22c-1.9.16-3-.87-3-2.6V12.86l2-.17v1.79c0,.68.36,1,1,.94a1,1,0,0,0,1-1.1V5.91L8,5.73V14A3.09,3.09,0,0,1,4.91,17.22Z"/><path class="logo_svg1" d="M9.59,16.57v-11l2.12-.18v11Z"/><path class="logo_svg1" d="M20.12,15.67v-8l-.46,2.43-1.21,5.68L16.84,16,15.7,10.48l-.45-2.35v8l-1.9.16v-11L16.21,5l1.18,5.47.36,2,.37-2.06,1.16-5.67,2.84-.24v11Z"/><path class="logo_svg1" d="M30.31,14.81l-3.59.3v-11l3.55-.3c1.56-.14,2.51.59,2.51,2.1V7.13a1.82,1.82,0,0,1-1.35,2,1.56,1.56,0,0,1,1.41,1.75v1.43A2.44,2.44,0,0,1,30.31,14.81Zm.44-8.54c0-.5-.22-.78-.75-.73l-1.15.1v3l1.06-.09a.82.82,0,0,0,.84-.93Zm0,4.59c0-.58-.3-.85-.84-.8l-1.1.09v3.1l1.2-.1c.53-.05.74-.34.74-.86Z"/><path class="logo_svg1" d="M34.33,14.47v-11L39.77,3V4.79l-3.32.28V7.79l2.29-.19V9.21l-2.29.2v3.05l3.32-.29V14Z"/><path class="logo_svg1" d="M45.63,13.5l-.37-2.12-2,.17-.41,2.19-2,.17L43.14,2.74l2.37-.2,2.28,10.78ZM44.3,5.61l-.77,4.3L45,9.79Z"/><path class="logo_svg1" d="M55.8,12.64v-8l-.46,2.43-1.21,5.67-1.61.14L51.38,7.44l-.45-2.35v8L49,13.21v-11L51.89,2l1.18,5.47.36,2L53.8,7.4,55,1.73l2.83-.24v11Z"/><path class="logo_svg1" d="M11.91,23.26V44.81l-5,.43V23.69L2,24.11V19.85l14.86-1.27v4.26Z"/><path class="logo_svg1" d="M27.83,43.46l-.89-5-4.74.41-1,5.16-4.66.39L22,18.14l5.59-.47L32.89,43ZM24.69,24.89,22.89,35l3.41-.29Z"/><path class="logo_svg1" d="M43.81,32.21l-3.25.28v9.88l-5,.43V17l8.23-.7c3.78-.32,6.07,1.58,6.07,5.3v4.34C49.88,29.6,47.59,31.89,43.81,32.21Zm1.25-10.14c0-1.28-.52-1.89-1.77-1.79l-2.73.23v8.26l2.73-.23c1.25-.11,1.77-.81,1.77-2.09Z"/><path class="logo_svg1" d="M55.77,33.87,54.4,34l-1.49-7.28V15.51l4.38-.37v11.2ZM53.2,41.3V36.8L57,36.48V41Z"/><path class="logo_svg2" d="M3.53,16.26c-1.89.16-3-.86-3-2.59V11.9l2-.17v1.8c0,.67.35,1,1,.93a1,1,0,0,0,1-1.1V5l2.13-.18v8.27A3.09,3.09,0,0,1,3.53,16.26Z"/><path class="logo_svg2" d="M8.21,15.61v-11l2.12-.18v11Z"/><path class="logo_svg2" d="M18.74,14.72v-8l-.46,2.43-1.21,5.67L15.46,15,14.32,9.52l-.45-2.35v8L12,15.29v-11l2.85-.25L16,9.54l.36,2,.38-2.06,1.16-5.67,2.83-.24v11Z"/><path class="logo_svg2" d="M28.93,13.85l-3.59.31v-11l3.55-.3c1.56-.13,2.52.59,2.52,2.11V6.17a1.83,1.83,0,0,1-1.35,2,1.57,1.57,0,0,1,1.4,1.75v1.43A2.44,2.44,0,0,1,28.93,13.85Zm.44-8.54c0-.5-.22-.77-.75-.73l-1.14.1v3l1.06-.09a.83.83,0,0,0,.83-.93Zm0,4.59c0-.57-.29-.84-.84-.8l-1.09.09v3.1l1.19-.1c.53,0,.74-.34.74-.85Z"/><path class="logo_svg2" d="M33,13.51v-11l5.44-.46V3.83l-3.32.29V6.83l2.29-.19V8.25l-2.29.2V11.5l3.32-.28v1.83Z"/><path class="logo_svg2" d="M44.25,12.55l-.37-2.13-2,.17-.41,2.19-2,.17L41.76,1.78l2.37-.2,2.28,10.78Zm-1.33-7.9L42.15,9l1.46-.12Z"/><path class="logo_svg2" d="M54.43,11.68v-8L54,6.15l-1.21,5.67L51.14,12,50,6.49l-.44-2.35v8l-1.9.16v-11L50.51,1l1.18,5.47.36,2,.38-2.06L53.59.78,56.43.54v11Z"/><path class="logo_svg2" d="M10.53,22.3V43.85l-5,.43V22.73l-4.94.42V18.89l14.86-1.27v4.27Z"/><path class="logo_svg2" d="M26.45,42.5l-.89-5-4.73.4-1,5.16-4.66.4,5.38-26.27,5.59-.48,5.34,25.36ZM23.32,23.93,21.51,34l3.41-.29Z"/><path class="logo_svg2" d="M42.43,31.26l-3.25.27v9.89l-5,.42V16l8.23-.7c3.78-.32,6.07,1.57,6.07,5.29V25C48.5,28.65,46.21,30.94,42.43,31.26Zm1.25-10.15c0-1.28-.52-1.89-1.77-1.78l-2.73.23v8.25l2.73-.23c1.25-.11,1.77-.81,1.77-2.09Z"/><path class="logo_svg2" d="M54.39,32.91,53,33l-1.48-7.28V14.55l4.37-.37v11.2Zm-2.57,7.43V35.85l3.77-.33V40Z"/><path d="M3.53,16.26c-1.89.16-3-.86-3-2.59V11.9l2-.17v1.8c0,.67.35,1,1,.93a1,1,0,0,0,1-1.1V5l2.13-.18v8.27A3.09,3.09,0,0,1,3.53,16.26Z"/><path d="M8.21,15.61v-11l2.12-.18v11Z"/><path d="M18.74,14.72v-8l-.46,2.43-1.21,5.67L15.46,15,14.32,9.52l-.45-2.35v8L12,15.29v-11l2.85-.25L16,9.54l.36,2,.38-2.06,1.16-5.67,2.83-.24v11Z"/><path d="M28.93,13.85l-3.59.31v-11l3.55-.3c1.56-.13,2.52.59,2.52,2.11V6.17a1.83,1.83,0,0,1-1.35,2,1.57,1.57,0,0,1,1.4,1.75v1.43A2.44,2.44,0,0,1,28.93,13.85Zm.44-8.54c0-.5-.22-.77-.75-.73l-1.14.1v3l1.06-.09a.83.83,0,0,0,.83-.93Zm0,4.59c0-.57-.29-.84-.84-.8l-1.09.09v3.1l1.19-.1c.53,0,.74-.34.74-.85Z"/><path d="M33,13.51v-11l5.44-.46V3.83l-3.32.29V6.83l2.29-.19V8.25l-2.29.2V11.5l3.32-.28v1.83Z"/><path d="M44.25,12.55l-.37-2.13-2,.17-.41,2.19-2,.17L41.76,1.78l2.37-.2,2.28,10.78Zm-1.33-7.9L42.15,9l1.46-.12Z"/><path d="M54.43,11.68v-8L54,6.15l-1.21,5.67L51.14,12,50,6.49l-.44-2.35v8l-1.9.16v-11L50.51,1l1.18,5.47.36,2,.38-2.06L53.59.78,56.43.54v11Z"/><path d="M10.53,22.3V43.85l-5,.43V22.73l-4.94.42V18.89l14.86-1.27v4.27Z"/><path d="M26.45,42.5l-.89-5-4.73.4-1,5.16-4.66.4,5.38-26.27,5.59-.48,5.34,25.36ZM23.32,23.93,21.51,34l3.41-.29Z"/><path d="M42.43,31.26l-3.25.27v9.89l-5,.42V16l8.23-.7c3.78-.32,6.07,1.57,6.07,5.29V25C48.5,28.65,46.21,30.94,42.43,31.26Zm1.25-10.15c0-1.28-.52-1.89-1.77-1.78l-2.73.23v8.25l2.73-.23c1.25-.11,1.77-.81,1.77-2.09Z"/><path d="M54.39,32.91,53,33l-1.48-7.28V14.55l4.37-.37v11.2Zm-2.57,7.43V35.85l3.77-.33V40Z"/></g></g></svg>