<svg xmlns="http://www.w3.org/2000/svg" viewBox="0 0 170.622 77.915">
  <defs>
    <style>
      .cls-1 {
        fill: none;
        stroke: #fff;
      }
    </style>
  </defs>
  <g id="グループ_2" data-name="グループ 2" transform="translate(-202.5 -238.5)">
    <g id="グループ化_213" data-name="グループ化 213" transform="translate(200.384 231.457)">
      <path id="パス_659" data-name="パス 659" class="cls-1" d="M24.934,15.778H24.35a9.452,9.452,0,0,0-2.476-4.725,8.527,8.527,0,0,0-6.255-2.61c-3.645,0-6.3,1.89-7.2,5.13-.495,1.71-.721,5.04-.721,9.854C7.7,30,7.97,32.247,8.869,34a7.327,7.327,0,0,0,6.525,3.555,8.337,8.337,0,0,0,6.66-3.375,16.3,16.3,0,0,0,2.3-4.5h.584v8.325H24.35l-1.485-2.25c-2.925,1.98-4.95,2.7-7.515,2.7-7.02,0-12.734-6.8-12.734-15.209a16.57,16.57,0,0,1,3.51-10.8,12.048,12.048,0,0,1,9.539-4.905c2.655,0,4.59.72,7.2,2.7l1.485-2.25h.584Z"/>
      <path id="パス_660" data-name="パス 660" class="cls-1" d="M42.439,37.2h2.97v.81h-9.45V37.2h3.016V21.4H35.959v-.81h6.48Zm.36-26.189a2.44,2.44,0,0,1-2.43,2.385,2.408,2.408,0,1,1,2.43-2.385Z"/>
      <path id="パス_661" data-name="パス 661" class="cls-1" d="M61.563,23.158c1.845-2.16,3.465-3.015,5.851-3.015a5.992,5.992,0,0,1,4.544,1.8,5.706,5.706,0,0,1,1.216,4.14V37.2h2.969v.81H66.694V37.2H69.71V24.867c0-2.52-.945-3.689-2.971-3.689a5.094,5.094,0,0,0-4.41,2.745C61.79,25,61.564,26.758,61.564,30v7.2h2.97v.81H55.085V37.2H58.1V21.4H55.085v-.81h6.479v2.565Z"/>
      <path id="パス_662" data-name="パス 662" class="cls-1" d="M91.443,34.183c0,2.07.63,2.925,2.25,2.925,1.439,0,2.205-.72,2.564-2.43h.9c-.5,2.565-1.98,3.78-4.635,3.78a4.55,4.55,0,0,1-3.689-1.53c-.676-.855-.855-1.665-.855-3.735V21.4H85.053v-.675c2.295-.855,5.085-4.275,5.94-7.29h.449v7.155h4.77v.81h-4.77v12.78Z"/>
      <path id="パス_663" data-name="パス 663" class="cls-1" d="M113,25.093a14.617,14.617,0,0,1,1.351-2.97,4.092,4.092,0,0,1,3.465-1.98,2.329,2.329,0,0,1,2.52,2.385c0,1.35-.721,2.25-1.755,2.25s-1.53-.72-1.575-2.25c-.045-.5-.225-.72-.63-.72-.9,0-1.755,1.08-2.476,3.1-.764,2.07-.9,3.375-.9,7.064V37.2h2.97v.81h-9.449V37.2h3.015V21.4h-3.015v-.81H113v4.5Z"/>
      <path id="パス_664" data-name="パス 664" class="cls-1" d="M133.607,31.212c0,2.655.225,3.78,1.035,4.77a4.395,4.395,0,0,0,3.6,1.575,6.209,6.209,0,0,0,6.255-5.4h.9c-.674,3.87-3.419,6.3-7.109,6.3a9.092,9.092,0,0,1-8.774-9.09,9.9,9.9,0,0,1,2.115-5.985,7.682,7.682,0,0,1,13.949,4.364h-11.97v3.465ZM141.482,25c0-2.79-1.125-3.96-3.779-3.96-2.791,0-4.1,1.4-4.1,4.365v1.53h7.875Zm2.25-14.58c.359,0,.54.09.54.315a.707.707,0,0,1-.36.495L136.8,17.038c-.135.09-.18.135-.27.135a.2.2,0,0,1-.136-.135.341.341,0,0,1,.09-.18l4.319-6.435Z"/>
      <path id="パス_665" data-name="パス 665" class="cls-1" d="M160.247,31.212c0,2.655.226,3.78,1.035,4.77a4.393,4.393,0,0,0,3.6,1.575,6.208,6.208,0,0,0,6.254-5.4h.9c-.676,3.87-3.42,6.3-7.109,6.3a9.092,9.092,0,0,1-8.775-9.09,9.909,9.909,0,0,1,2.115-5.985,7.682,7.682,0,0,1,13.949,4.364h-11.97v3.465ZM168.122,25c0-2.79-1.125-3.96-3.78-3.96-2.789,0-4.1,1.4-4.1,4.365v1.53h7.875Z"/>
      <path id="パス_666" data-name="パス 666" class="cls-1" d="M24.934,61.778H24.35a9.452,9.452,0,0,0-2.476-4.725,8.527,8.527,0,0,0-6.255-2.61c-3.645,0-6.3,1.89-7.2,5.13-.495,1.71-.721,5.04-.721,9.854C7.7,76,7.97,78.247,8.869,80a7.327,7.327,0,0,0,6.525,3.555,8.337,8.337,0,0,0,6.66-3.375,16.3,16.3,0,0,0,2.3-4.5h.584v8.325H24.35l-1.485-2.25c-2.925,1.98-4.95,2.7-7.515,2.7-7.02,0-12.734-6.795-12.734-15.209a16.57,16.57,0,0,1,3.51-10.8,12.048,12.048,0,0,1,9.539-4.9c2.655,0,4.59.72,7.2,2.7l1.485-2.25h.584Z"/>
      <path id="パス_667" data-name="パス 667" class="cls-1" d="M53.464,83.2h2.97v.81H50v-2.7a6.333,6.333,0,0,1-5.94,3.15,6.2,6.2,0,0,1-4.994-1.935c-.721-.945-.945-2.115-.945-4.41V67.4H35.105v-.81h6.479V78.741c0,3.555.721,4.68,3.1,4.68a4.894,4.894,0,0,0,4.455-2.52A15.761,15.761,0,0,0,50,75.006V67.4H46.983v-.81h6.479V83.2Z"/>
      <path id="パス_668" data-name="パス 668" class="cls-1" d="M72.633,71.093a14.729,14.729,0,0,1,1.351-2.97,4.092,4.092,0,0,1,3.465-1.98,2.33,2.33,0,0,1,2.521,2.385c0,1.35-.721,2.25-1.756,2.25s-1.529-.72-1.574-2.25c-.045-.5-.226-.72-.631-.72-.9,0-1.754,1.08-2.475,3.105-.765,2.07-.9,3.375-.9,7.064V83.2h2.971v.81H66.156V83.2H69.17V67.4H66.156v-.81h6.479v4.5Z"/>
      <path id="パス_669" data-name="パス 669" class="cls-1" d="M91.4,67.4H89.1v-.81h9.81v.81H95.358l5.04,12.78,5.129-12.78h-3.555v-.81h6.615v.81h-2.025L99.767,84.458H98.372Z"/>
      <path id="パス_670" data-name="パス 670" class="cls-1" d="M120.783,77.212c0,2.655.225,3.78,1.035,4.77a4.395,4.395,0,0,0,3.6,1.575,6.209,6.209,0,0,0,6.255-5.4h.9c-.674,3.87-3.419,6.3-7.109,6.3a9.092,9.092,0,0,1-8.774-9.09,9.9,9.9,0,0,1,2.115-5.985,7.682,7.682,0,0,1,13.949,4.364h-11.97v3.465ZM128.658,71c0-2.79-1.125-3.96-3.779-3.96-2.791,0-4.1,1.395-4.1,4.365v1.53h7.875Z"/>
      <path id="パス_671" data-name="パス 671" class="cls-1" d="M158.538,83.2h1.89v.81h-8.414V83.2h2.25l-4.5-6.524L144.769,83.2h3.42v.81H141.08V83.2h2.249l5.806-7.379L143.329,67.4H141.08v-.81h9.359v.81h-2.88l3.734,5.4,4.32-5.4h-2.97v-.81h6.614v.81h-2.385l-4.9,6.255Z"/>
    </g>
  </g>
</svg>
