<svg xmlns="http://www.w3.org/2000/svg" viewBox="0 0 412.38 504.15"><defs><style>.btn7_svg1{fill:#999;}.btn7_svg2{fill:#8c8c8c;}.btn7_svg3{fill:#b3b3b3;}</style></defs><title>アセット 18</title><g id="レイヤー_2" data-name="レイヤー 2"><g id="content"><polygon class="btn7_svg1" points="157.5 0 412.38 254.88 412.38 332.88 157.5 78 157.5 0"/><polygon class="btn7_svg2" points="0 91.78 412.38 504.15 412.38 332.88 157.5 78 0 91.78"/><polygon class="btn7_svg3" points="157.5 0 0 13.78 0 91.78 157.5 78 157.5 0"/><path d="M41.47,53,36.7,58.29l-11.64,1L20.26,55V40.73l4.8-5.22,11.58-1,4.83,4.41V43.3l-5,.44v-2.1l-2.12-1.93-7,.6-2.1,2.28v9.63l2.1,1.91,7-.61,2.15-2.37V49.09l5-.44Z"/><path d="M68,55.55,63,56V40.16l-5,8-4.48.39-5-7.18V57.26l-5,.44V33.84l5-.43,7.28,9.78,7.27-11,5-.44Z"/><path d="M72.43,46.06l-2.82.24V35.57l2.82-.25Zm24.79-5.87L81.1,41.6l.26,1L96.2,41.3V55.15l-4.31.38V52.94l-6.57.57V56.1L81,56.47V43.82l-2.21.86-1.31-5.32V56.81l-4.07.36V29.8l4.07-.36v5.67l1.78-.71,1.07,4.27,6-.52V37.07l-5.12.45v-3l5.12-.44V33l-5.88.51V30.46l5.88-.52V28.66l4.42-.38v1.28l6-.53v3.09l-6,.52v1L96,33.2v3l-5.23.45v1.08l6.43-.56ZM91.89,45.9V44.65l-6.57.57v1.25Zm0,4.13V48.81l-6.57.57V50.6Z"/><path d="M112,38.11,98.49,39.3V35.4l4.62-.4V32.9l-3.92.34V29.32l3.92-.35V27.2l4.31-.38V28.6l4.07-.36v3.93l-4.07.35v2.1l4.6-.4Zm0,7.36-4.6.41v2l4.07-.35v3.9l-4.07.35v2.39l-4.31.37V52.16l-3.92.34V48.6l3.92-.34v-2l-4.62.41v-4l1.66-.14-.35-2.62,3.63-.75.44,3,2.88-.25.49-3.16,3.64.12-.41,2.71,1.55-.13Zm14.63,4.19L124,52.51l-2.3-2.27-1,3.09-3.43-1,1.69-4.89-2-1.95v7.88l-4,.35V26.77l12.4-1.08v9l-5.53.48V31.7l1.54-.14V30l-4.45.39V37l5.7-.5.21-.6,3.49.86-3.23,9.39Zm-5.38-9L117,41v3.31L119,42.1l1.28,1.28Z"/><polygon points="139.43 27.72 149.54 36.95 139.43 47.94 139.43 27.72"/></g></g></svg>