<svg xmlns="http://www.w3.org/2000/svg" viewBox="0 0 221.35 266.25"><defs><style>.menu_svg1{fill:#333;}.menu_svg2{fill:#1a1a1a;}.menu_svg3{fill:#4d4d4d;}.menu_svg4{fill:#fff;}</style></defs><title>アセット 5</title><g id="レイヤー_2" data-name="レイヤー 2"><g id="Header"><polygon class="menu_svg1" points="44.49 0 180.96 136.47 180.96 178.23 44.49 41.76 44.49 0"/><polygon class="menu_svg2" points="0.55 45.45 221.35 266.25 180.96 178.23 44.49 41.76 0.55 45.45"/><polygon class="menu_svg3" points="44.49 0 0 3.89 0.55 45.45 44.49 41.76 44.49 0"/><polygon class="menu_svg4" points="32.6 10.93 10.6 12.86 10.6 15.41 32.6 13.49 32.6 10.93"/><polygon class="menu_svg4" points="32.6 19.12 10.6 21.04 10.6 23.6 32.6 21.68 32.6 19.12"/><polygon class="menu_svg4" points="32.6 27.3 10.6 29.23 10.6 31.79 32.6 29.86 32.6 27.3"/></g></g></svg>