<svg xmlns="http://www.w3.org/2000/svg" viewBox="0 0 223.65 29.14"><title>アセット 3</title><g id="レイヤー_2" data-name="レイヤー 2"><g id="content"><path d="M9.39,25.89c.84.68,1.35,1.18,1.35,1.32s-.17.34-.57.77-.43.42-.53.42a.25.25,0,0,1-.19-.07l-.75-.78a14.92,14.92,0,0,0-2.84-2.22,23.26,23.26,0,0,1-3,2.77,7.56,7.56,0,0,1-1.61,1c-.13,0-.14,0-.46-.33A4.57,4.57,0,0,0,0,28.18a15.94,15.94,0,0,0,3.87-2.9,18.09,18.09,0,0,0,3.28-4.43A51.74,51.74,0,0,0,2,21.4l-.21,0a.19.19,0,0,1-.24-.18,8.25,8.25,0,0,1-.1-1.49,34.9,34.9,0,0,0,4.18-.2c.78-.07,1.59-.16,2-.25a1.83,1.83,0,0,0,.47-.16.38.38,0,0,1,.16,0c.22,0,.46.14.77.53a1.71,1.71,0,0,1,.4.73c0,.16,0,.21-.38.56a4.42,4.42,0,0,0-.71,1,21.25,21.25,0,0,1-1.49,2.2A16.15,16.15,0,0,1,9.39,25.89Z"/><path d="M19.05,20.21c-4.56.46-4.56.46-6.08.66a6.48,6.48,0,0,0-1.49.25.5.5,0,0,0-.16,0,.3.3,0,0,1-.32-.22,5.15,5.15,0,0,1-.23-1.48,35.48,35.48,0,0,0,3.94-.19c1.86-.16,3.57-.34,4.3-.44a2.13,2.13,0,0,0,.68-.19.67.67,0,0,1,.28-.07c.26,0,.52.17,1,.76a1.39,1.39,0,0,1,.36.69c0,.14,0,.17-.25.35a4.07,4.07,0,0,0-.73.83,22,22,0,0,1-3.42,3.69,5.56,5.56,0,0,1,1.36,1.52c0,.14-.17.35-.57.71a1.71,1.71,0,0,1-.61.42c-.07,0-.14,0-.23-.13a13.46,13.46,0,0,0-1.77-1.93,15.35,15.35,0,0,0-2.35-1.81.18.18,0,0,1-.09-.16,2.4,2.4,0,0,1,.58-.75c.21-.19.31-.28.39-.28a.3.3,0,0,1,.19,0,11.62,11.62,0,0,1,2,1.42A19.67,19.67,0,0,0,19.05,20.21Z"/><path d="M25.09,22.23c0,.06,0,.1-.13.23a1.9,1.9,0,0,0-.27.52c-.58,1.31-1.62,2.79-2,2.83-.07,0-.1,0-.38-.22a2.83,2.83,0,0,0-.87-.4,6.29,6.29,0,0,0,2.13-3.58C24.63,21.85,25.09,22.05,25.09,22.23Zm1.22-2a36,36,0,0,0-4,.47h0A.24.24,0,0,1,22,20.5a5.07,5.07,0,0,1-.13-1.36A25.61,25.61,0,0,0,25.81,19H26l.3,0v-.35a9.59,9.59,0,0,0-.14-1.78,8.2,8.2,0,0,1,1.77,0,.18.18,0,0,1,.14.19.7.7,0,0,1-.09.3,2.57,2.57,0,0,0-.16,1.1v.37l.85-.08c.85-.07,2.53-.28,3.06-.37a.3.3,0,0,1,.14,0,.14.14,0,0,1,.16.11c0,.07,0,.44,0,.61,0,.69,0,.73-.27.75l-1,.06c-.46,0-.63,0-3,.24v2.41c0,1.32,0,1.32,0,2.41,0,.17,0,.28,0,.35,0,1.26-.46,1.71-1.82,1.83a3.77,3.77,0,0,1-1.1,0c-.09,0-.12-.1-.16-.29a4.5,4.5,0,0,0-.4-1.17,5.77,5.77,0,0,0,1.37.05c.47-.05.57-.16.57-.74Zm5.33,4.6c-.08.08-.13.11-.18.11-.24,0-.71-.47-1.28-1.33a8.07,8.07,0,0,1-1-1.94c0-.1.1-.2.31-.32a3.62,3.62,0,0,1,.86-.43c.1,0,.16.05.24.2a8,8,0,0,0,1,1.68A5.52,5.52,0,0,0,32.73,24,3.89,3.89,0,0,0,31.64,24.81Z"/><path d="M34.63,19.08a7.35,7.35,0,0,0-.93.37,1.15,1.15,0,0,1-.34.12c-.29,0-.55-.49-.79-1.58a22.35,22.35,0,0,0,2.6-.53c1.57-.37,3.56-.85,4.61-1.07s2.12-.49,2.62-.64a.58.58,0,0,1,.2-.05c.17,0,.23.06.35.38a2.6,2.6,0,0,1,.18.83c0,.15-.05.21-.23.22a5.57,5.57,0,0,0-.77.14,5.23,5.23,0,0,0-4,4.66c0,1.52,1.21,2.42,3.25,2.42.19,0,.25.06.25.21a4.48,4.48,0,0,1-.25,1.26.37.37,0,0,1-.34.24,4.92,4.92,0,0,1-1-.11c-2.23-.46-3.39-1.76-3.39-3.75a5,5,0,0,1,1-3,6.31,6.31,0,0,1,1.43-1.36C37.43,18.25,35.63,18.75,34.63,19.08Zm6.71-.25a4.1,4.1,0,0,1,1.3,1.32c0,.06-.08.15-.32.38s-.26.23-.36.27-.07,0-.1,0-.06,0-.3-.35a5.22,5.22,0,0,0-.85-1,.2.2,0,0,1-.07-.1c0-.06,0-.1.06-.1A2.91,2.91,0,0,1,41,19l.22-.15s0,0,0,0h.07Zm2.24.7a1.28,1.28,0,0,1-.38.26c-.05,0-.08,0-.14-.12a5.84,5.84,0,0,0-1-1.15s-.06-.07-.06-.1.08-.15.27-.29a1.25,1.25,0,0,1,.4-.25c.09,0,.25.1.53.35a2.8,2.8,0,0,1,.73.92C43.92,19.23,43.83,19.33,43.58,19.53Z"/><path d="M49.23,14.79a5.44,5.44,0,0,0,.47,1.71,17.82,17.82,0,0,0,3-1.3.54.54,0,0,1,.16,0c.13,0,.22.21.42,1a.5.5,0,0,0,0,.13.11.11,0,0,1,0,.05c0,.09,0,.15-.18.21a22.82,22.82,0,0,1-2.83,1.13,6.67,6.67,0,0,0,2.59,2.67.16.16,0,0,1,.1.15,3.58,3.58,0,0,1-.51,1.12c-.11.18-.19.25-.31.26s-.12,0-.29-.11a4.84,4.84,0,0,0-1.4-.5,5.86,5.86,0,0,0-1.68-.08c-1.54.14-2.33.63-2.33,1.47,0,.46.25.77.79,1a7.41,7.41,0,0,0,3.06.2,6.35,6.35,0,0,0,1.05-.16,6.88,6.88,0,0,0-.52,1.43c-.07.2-.17.26-.53.29a12.77,12.77,0,0,1-2.65,0c-1.74-.28-2.73-1.17-2.73-2.47a2.64,2.64,0,0,1,.68-1.73A4.3,4.3,0,0,1,48.42,20a4.84,4.84,0,0,1,2,.19,7.69,7.69,0,0,1-1.6-2.07c-.8.21-1.47.36-2.24.51l-1.67.25c-.18,0-.23,0-.3-.24a7.51,7.51,0,0,1-.21-1.21l.88-.06a21.33,21.33,0,0,0,2.93-.49c-.11-.25-.34-.79-.47-1.13a5,5,0,0,0-.47-1,12.87,12.87,0,0,1,1.59-.31c.25,0,.34,0,.34.19Z"/><path d="M60.34,18.12c1.8-.16,3,.79,3,2.39s-1,2.7-2.94,3.49a10.65,10.65,0,0,1-2.4.64c-.28,0-.34,0-.53-.39a1.53,1.53,0,0,0-.69-.7C60,23,61.65,22,61.65,20.62c0-.8-.56-1.22-1.5-1.13a5.32,5.32,0,0,0-3.44,2,3.5,3.5,0,0,0-.47.64c-.12.2-.19.27-.31.28a2,2,0,0,1-1-.34.39.39,0,0,1-.21-.4,2.64,2.64,0,0,1,0-.42s0-.13,0-.27c.07-.84.11-1.19.26-2.38,0-.14,0-.14.12-.76,0,0,0-.29.11-.78a4.26,4.26,0,0,0,0-.43,5.06,5.06,0,0,1,1.47.25c.1,0,.16.1.14.18a.46.46,0,0,1-.06.18,2.06,2.06,0,0,0-.3.85,19.69,19.69,0,0,0-.33,2.1A6.11,6.11,0,0,1,60.34,18.12Zm-.23-3.69c.51.26.67.39.67.53a3,3,0,0,1-.44.87c-.21.32-.28.39-.39.4s-.1,0-.26-.12A7.48,7.48,0,0,0,57.13,15c-.19-.06-.23-.08-.23-.18a1.61,1.61,0,0,1,.34-.72c.21-.33.3-.42.44-.43A8.31,8.31,0,0,1,60.11,14.43Z"/><path d="M67.06,20.39a.29.29,0,0,1,0,.18c0,.09,0,.1-.13.4a14.39,14.39,0,0,0-.73,2.3c0,.15-.08.23-.14.26a5.32,5.32,0,0,1-.65.15h-.32c-.17,0-.21,0-.26-.17a16.55,16.55,0,0,1-.44-3.86,20.08,20.08,0,0,1,.46-4.31c.13-.71.19-1.11.24-1.54a5.82,5.82,0,0,1,1.42.29c.22.07.29.13.29.26s0,.13-.16.35a16,16,0,0,0-.92,5.39c0,.3,0,.7.06,1.35.36-.85.49-1.11.79-1.78A3.32,3.32,0,0,0,67.06,20.39Zm2.84.67a3.6,3.6,0,0,0,1.8.15,7.38,7.38,0,0,0,2.14-.49l.19-.06c.09,0,.16,0,.17.17A11.61,11.61,0,0,1,74.32,22c0,.13,0,.17-.23.24a9.08,9.08,0,0,1-2.3.48,4.7,4.7,0,0,1-2.57-.28c-.58-.31-1.18-1-1.18-1.32,0-.18.28-.45,1-.94A1.64,1.64,0,0,0,69.9,21.06ZM69,14.51a12.17,12.17,0,0,0,1.77,0,16,16,0,0,0,2.54-.43l.12,0c.09,0,.13,0,.16.13a8.09,8.09,0,0,1,.07,1c0,.19,0,.26-.19.3a15.46,15.46,0,0,1-2.37.38,10.37,10.37,0,0,1-2.27,0c-.06,0-.09-.12-.09-.35a6.51,6.51,0,0,1,.07-1c0-.06,0-.09.13-.09Z"/><path d="M79.15,22.53c-.12-.33-.17-.44-.27-.67-1.52.62-1.75.7-3.1,1.15-.25.07-.56.19-.72.25l-.32-1.36a6.54,6.54,0,0,0,.8-.15V16.31c0-.28,0-.51,0-.78-.19.14-.25.2-.49.37a5.54,5.54,0,0,0-.46-1.29,6.83,6.83,0,0,0,2.55-2.69l1.27-.11a3.82,3.82,0,0,0,2.08,1.71,6.36,6.36,0,0,0-.72,1.2,5.3,5.3,0,0,1-2-1.72,9.88,9.88,0,0,1-1.9,2.21c.18,0,.3,0,.64,0l.67-.06v-.44a3.28,3.28,0,0,0-.05-.63l1.28-.12a3.22,3.22,0,0,0,0,.63V15l.5,0a9.72,9.72,0,0,0,1-.12,8.18,8.18,0,0,0,0,1v2.21c0,.53,0,.78,0,1.19-.3,0-.51,0-1,.05l-2.07.18v1.94c.63-.19.75-.24,1.57-.54-.18-.32-.25-.43-.51-.84L79,19.49a18.3,18.3,0,0,1,1.11,1.89,6.56,6.56,0,0,0,1.51-2.5A9.39,9.39,0,0,0,82,15.74,6.85,6.85,0,0,0,82,15l1.42-.13a6.54,6.54,0,0,0,0,.7,6.92,6.92,0,0,0,.89,3.69,5.19,5.19,0,0,0,2.21,2.05,5.3,5.3,0,0,0-.89,1.34,7,7,0,0,1-1.69-1.55,5.75,5.75,0,0,1-1.1-2.43,7.49,7.49,0,0,1-2.56,4.44,4.26,4.26,0,0,0-.64-.84Zm-.54-5.88V16l-1.81.16v.68ZM76.8,18.47l1.81-.16v-.7l-1.81.16Zm7.77-5.58a6.63,6.63,0,0,0,1.09-.15l.64.64c-.13.33-.16.41-.24.67a13.91,13.91,0,0,1-1.21,3.12,4.18,4.18,0,0,0-1.14-.55,8.31,8.31,0,0,0,1.08-2.55l-2.62.23a10.6,10.6,0,0,1-1.24,2.38,4.34,4.34,0,0,0-1-.85,8.51,8.51,0,0,0,1.39-2.94,8,8,0,0,0,.27-1.48l1.45.13c-.07.21-.13.38-.22.74s-.13.52-.21.78Z"/><path d="M90.85,17c-.47.91-1,1.82-1.49,2.56a2.54,2.54,0,0,1-1.8,1.32c-.94.08-1.58-.63-1.58-1.77a3,3,0,0,1,1.43-2.51,5.55,5.55,0,0,1,2.29-.8h.13c.67-1.41.84-1.79,1.29-2.84a9.76,9.76,0,0,0-2.48.55.16.16,0,0,1-.09,0c-.23,0-.43-.63-.5-1.6a4.76,4.76,0,0,0,.92,0,19.91,19.91,0,0,0,2-.29c.75-.13.75-.13.92-.25a.69.69,0,0,1,.23-.1c.17,0,.44.17.73.5a1.45,1.45,0,0,1,.34.56c0,.1-.06.19-.21.36a23.53,23.53,0,0,0-1.56,3.05,10.18,10.18,0,0,1,2.62.55,12,12,0,0,0,.12-1.36c0-.17,0-.36,0-.58a13.94,13.94,0,0,1,1.41.14c.24,0,.32.1.32.2a.79.79,0,0,1-.11.35,3.27,3.27,0,0,0-.25,1c0,.28-.08.46-.16.85a9.76,9.76,0,0,1,1.51.93A.26.26,0,0,1,97,18a2.11,2.11,0,0,1-.8,1.28.45.45,0,0,1-.24-.1c-.35-.28-.78-.61-1-.78a6.69,6.69,0,0,1-1.62,2.29,5.13,5.13,0,0,1-1.78,1.13.47.47,0,0,1-.32-.1s0-.05-.21-.27a1.24,1.24,0,0,0-.68-.53,6.33,6.33,0,0,0,2.12-1.29,5.35,5.35,0,0,0,1.29-1.9A7.91,7.91,0,0,0,90.85,17Zm-3.53,1.87c0,.31.11.5.32.48s.8-.71,1.63-2.18C88,17.39,87.32,18,87.32,18.85Z"/><path d="M99.44,13.92a15.06,15.06,0,0,1-2,1.25A5.33,5.33,0,0,0,96.69,14a13.09,13.09,0,0,0,3.16-2,9.4,9.4,0,0,0,2-2.28l1.48-.13a6.74,6.74,0,0,0,2.14,1.9,11.47,11.47,0,0,0,3.23,1.4,6.3,6.3,0,0,0-.7,1.47,11.92,11.92,0,0,1-2.14-1v1a9.33,9.33,0,0,0-1.13,0l-4.2.37a9.36,9.36,0,0,0-1.08.15Zm-.69,3.27a11.08,11.08,0,0,0-1.48.21V16a14,14,0,0,0,1.48-.06l7.82-.69c.63,0,1.06-.12,1.48-.19v1.44a13.75,13.75,0,0,0-1.48.05l-4.31.38A16.15,16.15,0,0,1,101,19.41c2.17-.3,2.17-.3,4-.66-.4-.4-.63-.62-1.32-1.26l1.24-.65a23.48,23.48,0,0,1,2.91,3.06l-1.22.9c-.35-.51-.45-.65-.74-1-1,.22-1.8.38-2.27.46-1.31.25-3.69.67-4.23.76a12.91,12.91,0,0,0-1.63.31l-.19-1.5.7,0,1.13-.16A14.76,14.76,0,0,0,100.65,17Zm6-4.12.55-.07a8.49,8.49,0,0,1-2.63-2.2A12,12,0,0,1,100,13.46a4.24,4.24,0,0,0,.51,0Z"/><path d="M113.63,16.07c-1.29.86-1.66,1.27-1.66,1.85a.48.48,0,0,0,.29.48,4,4,0,0,0,1.75.1,20,20,0,0,0,2.36-.36,7.09,7.09,0,0,0,1-.29h.06a.22.22,0,0,1,.2.14,4.09,4.09,0,0,1,.13,1.12.3.3,0,0,1-.23.34c-.32.09-1.77.29-2.73.38a7.93,7.93,0,0,1-3.08-.1,1.54,1.54,0,0,1-1.14-1.61A2.74,2.74,0,0,1,111.6,16a12.94,12.94,0,0,1,1.9-1.38c-.1-.42-.3-.58-.7-.55a3.53,3.53,0,0,0-1.72.76,10,10,0,0,0-1.1,1c-.39.43-.43.46-.54.47s-.4-.26-.68-.69a1.19,1.19,0,0,1-.21-.46c0-.12,0-.15.34-.37a9,9,0,0,0,2.5-2.78c-.93.14-1.41.2-1.92.24-.2,0-.24,0-.3-.23a9.82,9.82,0,0,1-.12-1.2,6.92,6.92,0,0,0,1.33,0c.52,0,1.08-.1,1.67-.18a5.35,5.35,0,0,0,.38-1.85c1.16.09,1.7.24,1.7.46a.32.32,0,0,1,0,.16c-.09.18-.2.39-.37.81l0,.09a17.9,17.9,0,0,0,1.86-.5,1.59,1.59,0,0,1,.42-.12c.11,0,.16,0,.19.1a7.85,7.85,0,0,1,.13,1c0,.14,0,.21-.22.27a29.14,29.14,0,0,1-3.07.72,8,8,0,0,1-1.08,1.67,3.73,3.73,0,0,1,1.56-.52c.59-.05,1,.26,1.25,1l2.07-1.31a4.75,4.75,0,0,0,1.14-1A4.09,4.09,0,0,1,119,13.09c0,.07,0,.13-.22.18a31.05,31.05,0,0,0-3.83,2c0,.23,0,.83,0,1.24v.63c0,.15,0,.23-.09.28a2,2,0,0,1-.81.17c-.45,0-.53,0-.53-.2v-.05c0-.38,0-.88,0-1.19Z"/><path d="M123.7,13.78c-.37,0-.68.08-1,.13a9.72,9.72,0,0,0,0-1.05V9.94a7.26,7.26,0,0,0,0-1,6.6,6.6,0,0,0,1,0l.39,0a6.44,6.44,0,0,0,.42-1.31l1.4,0-.49,1.16,1-.09a7.18,7.18,0,0,0,1-.13,6.91,6.91,0,0,0,0,1v2.9c0,.55,0,.81,0,1.05a8.25,8.25,0,0,0-.94,0l-.77.06v.82l3.38-.29a10.76,10.76,0,0,0,1.5-.21v1.35a10.84,10.84,0,0,0-1.52.05l-2.43.22a8,8,0,0,0,1.82,1,10.35,10.35,0,0,0,2.49.59,7,7,0,0,0-.78,1.34,8.59,8.59,0,0,1-2.39-.77,7.43,7.43,0,0,1-2.11-1.48c0,.15,0,.15,0,.34s0,.44,0,.48v.73a6.26,6.26,0,0,0,.09,1.26l-1.54.14a8.19,8.19,0,0,0,.09-1.3v-.7c0-.24,0-.4,0-.82A8.65,8.65,0,0,1,122.49,18a13.59,13.59,0,0,1-2.41,1.27,4.14,4.14,0,0,0-.82-1.13,10.77,10.77,0,0,0,4.11-2.35l-2.28.2a9.93,9.93,0,0,0-1.51.21V14.88a9.17,9.17,0,0,0,1.5-.05l3.29-.29v-.82Zm-1.1-1.23A18.43,18.43,0,0,1,120.33,14l-.51.31-.48-1.21a12.91,12.91,0,0,0,2.93-1.67Zm-2-3.94a12.54,12.54,0,0,1,1.92,1.64l-.92,1a9.5,9.5,0,0,0-1.91-1.73ZM124,10.75l2.18-.19v-.8L124,10Zm0,1.91,2.18-.19V11.6l-2.18.19ZM128.26,11a22.63,22.63,0,0,1,2.68,1.26l-.73,1.14A14.27,14.27,0,0,0,127.56,12Zm2.41-2.37a22,22,0,0,1-2.15,2.17l-.86-.84a10.89,10.89,0,0,0,2-2.13Z"/><path d="M133.92,7.4c.33.06.42.12.42.26a.9.9,0,0,1-.08.32,7.33,7.33,0,0,0-.3,2c-.11,2.1-.16,3.73-.16,5a3.47,3.47,0,0,0,.1.93c.15.41.61.59,1.34.53a5.31,5.31,0,0,0,3.32-1.72,8.52,8.52,0,0,0,1.24-1.62,4,4,0,0,0,.47,1.23.78.78,0,0,1,.07.3c0,.23-.25.57-.91,1.21A6.89,6.89,0,0,1,135.19,18a2.79,2.79,0,0,1-2.2-.52,3,3,0,0,1-.7-2.42c0-1,0-1.8.12-4.83,0-.46,0-.73,0-.85a13.14,13.14,0,0,0-.09-2A7.62,7.62,0,0,1,133.92,7.4Z"/><path d="M143.25,7.79a9.66,9.66,0,0,0-.11-1.47,8.44,8.44,0,0,1,1.48,0c.25,0,.31.08.31.22a.74.74,0,0,1-.06.25,2.49,2.49,0,0,0-.17,1.07c.61-.15,1.1-.28,1.74-.48l.14,0c.09,0,.13,0,.16.11a4.11,4.11,0,0,1,.1.88c0,.2,0,.29-.14.34a11.6,11.6,0,0,1-2.06.53c0,.72,0,1.1-.06,2.1a3.39,3.39,0,0,1,.18,1.06,2.66,2.66,0,0,1-.86,2.17.83.83,0,0,0-.11.38.59.59,0,0,0,.13.44c.2.2.79.27,1.81.18a5.49,5.49,0,0,0,2.44-.63,1.43,1.43,0,0,0,.46-1.22,5,5,0,0,0-.15-1.16,3.53,3.53,0,0,0,1.35.3c.16,0,.22,0,.25.09a3.19,3.19,0,0,1,.11.9,2.75,2.75,0,0,1-.63,2,3.26,3.26,0,0,1-1.55.8,13.91,13.91,0,0,1-2.14.34,5.25,5.25,0,0,1-2.84-.27,1.2,1.2,0,0,1-.61-1.14,3,3,0,0,1,.09-.79c-.92.06-1.56-.73-1.56-1.95a2.17,2.17,0,0,1,1.79-2.37,1.13,1.13,0,0,1,.47,0c0-.36,0-.69,0-1-.41.08-1.21.17-1.77.22-.41,0-.53,0-.6-.11a2.66,2.66,0,0,1-.12-.89V8.35a8.06,8.06,0,0,0,1.07,0c.45,0,1-.1,1.44-.16Zm-1,4.87c0,.54.24.87.61.84s.67-.45.67-1.05-.18-.81-.6-.78S142.21,12.09,142.21,12.66Zm6.4-4.44c.19-.25.21-.28.3-.28a3.19,3.19,0,0,1,.92.25,6.25,6.25,0,0,1,1.91,1.4.29.29,0,0,1,.11.2c0,.11-.08.26-.35.61s-.45.5-.54.5-.13,0-.24-.13a5.54,5.54,0,0,0-2.4-1.66c-.09,0-.13-.08-.13-.15A2.88,2.88,0,0,1,148.61,8.22Z"/><path d="M155.26,11c0,.07,0,.11-.13.23a2.08,2.08,0,0,0-.27.52c-.58,1.31-1.61,2.79-2,2.83-.08,0-.11,0-.38-.22a3.17,3.17,0,0,0-.88-.4,6.26,6.26,0,0,0,2.13-3.58C154.81,10.65,155.26,10.84,155.26,11Zm1.22-2c-2.81.26-2.95.29-4,.47h0a.24.24,0,0,1-.25-.19A5,5,0,0,1,152,7.94a27.22,27.22,0,0,0,4-.19l.19,0,.3,0V7.35a9.59,9.59,0,0,0-.14-1.78,8.2,8.2,0,0,1,1.77,0,.18.18,0,0,1,.14.2.71.71,0,0,1-.09.29A2.65,2.65,0,0,0,158,7.21v.36l.85-.07c.86-.08,2.53-.29,3.06-.38l.14,0a.13.13,0,0,1,.16.12c0,.06,0,.43,0,.6,0,.69,0,.73-.28.76l-1,.05-3,.24V11.3c0,1.3,0,1.3,0,2.4a2.58,2.58,0,0,1,0,.35c0,1.26-.46,1.72-1.83,1.84a3.33,3.33,0,0,1-1.1,0c-.09,0-.11-.09-.15-.28a4.42,4.42,0,0,0-.41-1.19,5,5,0,0,0,1.38.06c.47,0,.56-.16.56-.75Zm5.34,4.61a.32.32,0,0,1-.19.1c-.23,0-.71-.47-1.28-1.31a8.29,8.29,0,0,1-1-1.94c0-.11.09-.21.3-.33a3.47,3.47,0,0,1,.86-.42c.11,0,.16,0,.24.2a8.88,8.88,0,0,0,1,1.68,5.74,5.74,0,0,0,1.2,1.23A3.91,3.91,0,0,0,161.82,13.61Zm.76-8.47a1.55,1.55,0,0,1-1.41,1.52,1.25,1.25,0,0,1-1.4-1.27,1.55,1.55,0,0,1,1.4-1.52A1.25,1.25,0,0,1,162.58,5.14Zm-2.1.19a.62.62,0,0,0,.69.62.78.78,0,0,0,.7-.75.63.63,0,0,0-.7-.62A.77.77,0,0,0,160.48,5.33Z"/><path d="M167.51,8.86c2.39-.21,3.77-.36,5.09-.57h.17c.4,0,.4,0,.4,1,0,.53,0,.63-.27.65h-.05c-.86,0-1.35.08-5.13.41-1.39.12-2.09.2-3.29.34l-.38,0a3.89,3.89,0,0,0-.74.12l-.14,0c-.14,0-.24-.05-.26-.16a8,8,0,0,1-.13-1.58A46.26,46.26,0,0,0,167.51,8.86Z"/><path d="M176,8.67a2.25,2.25,0,0,1-.71.5c-.11,0-.12,0-.37-.23a3.45,3.45,0,0,0-.93-.58,10.65,10.65,0,0,0,3.05-3A8.38,8.38,0,0,0,178.16,3c1.39.39,1.72.53,1.72.71s0,.12-.17.23a3.77,3.77,0,0,0-.66.91l.24,0,.86-.06a5.52,5.52,0,0,0,2-.36.55.55,0,0,1,.22-.07c.18,0,.37.11.77.55s.42.49.42.63,0,.19-.18.34a4.16,4.16,0,0,0-.46.77,18.43,18.43,0,0,1-3.63,5.09,13.77,13.77,0,0,1-3.42,2.59.45.45,0,0,1-.33-.13,3,3,0,0,0-1.1-.67,18.18,18.18,0,0,0,4.46-3.47l-.38-.36a9,9,0,0,0-1.25-.92c-.08-.06-.1-.09-.1-.14s.17-.28.63-.79c.22-.24.27-.28.35-.29a5.39,5.39,0,0,1,1.77,1.26,12.61,12.61,0,0,0,1.66-2.95c-1.49.16-1.49.16-3.4.34A17.39,17.39,0,0,1,176,8.67Z"/><path d="M187,3.75a.21.21,0,0,1,.16.21.53.53,0,0,1,0,.18,3.43,3.43,0,0,0-.09,1c0,3.18-.61,5.26-2,7.1-.3.4-.42.52-.55.53a.44.44,0,0,1-.22,0,3.5,3.5,0,0,0-1.27-.36A7.67,7.67,0,0,0,184.64,10a10.32,10.32,0,0,0,.77-4.38,10.36,10.36,0,0,0-.13-1.89A6.1,6.1,0,0,1,187,3.75Zm1.4,1.14a10.88,10.88,0,0,0-.12-1.68c1.42-.07,1.93,0,1.93.25a.62.62,0,0,1-.07.26,1.58,1.58,0,0,0-.09.49c0,.35,0,.35-.06,6.08a13.84,13.84,0,0,0,3.85-3.55A6.34,6.34,0,0,0,194,8.28a.51.51,0,0,1,0,.22c0,.21-.13.39-.73,1a13,13,0,0,1-2.84,2.22,2.84,2.84,0,0,0-.62.46.56.56,0,0,1-.3.16,2.34,2.34,0,0,1-1-.55c-.26-.24-.38-.43-.38-.6a.63.63,0,0,1,.05-.22,3.4,3.4,0,0,0,.12-1.21Z"/><path d="M196.69,4.58a11.85,11.85,0,0,0-.16-2.6l.75,0a9,9,0,0,1,1,.06.16.16,0,0,1,.13.16,1.12,1.12,0,0,1-.08.34,8.88,8.88,0,0,0-.1,1.93l2.92-.26A14.24,14.24,0,0,0,201,1.5a11.42,11.42,0,0,1,1.48,0c.28,0,.36.06.36.18a1,1,0,0,1-.09.34,4.91,4.91,0,0,0-.1.92V4c1.33-.14,1.83-.2,2.22-.27l.13,0c.07,0,.12,0,.14.06a2.75,2.75,0,0,1,.07.8c0,.61,0,.68-.22.69h-.32c-.44,0-.55,0-2,.14a7.85,7.85,0,0,1-1,4.12,6.71,6.71,0,0,1-2.3,2.32,3.66,3.66,0,0,1-1,.46c-.12,0-.13,0-.41-.26a2.82,2.82,0,0,0-.87-.61,6.05,6.05,0,0,0,3.47-3,7.09,7.09,0,0,0,.57-2.9l-.85.08-1,.1-1.06.12c0,.92,0,.92,0,2.09V8.1c0,.18,0,.25-.19.31a4.52,4.52,0,0,1-.88.16c-.45,0-.52,0-.52-.23V8.15c.05-1.19.07-1.4.08-2.16-.68.08-1.89.26-2.2.34l-.08,0a.17.17,0,0,1-.2-.15,8.61,8.61,0,0,1-.15-1.48,14.87,14.87,0,0,0,2.13-.1Z"/><path d="M211.58,6.87c0,1.64,0,2.85.08,3.73v.09c0,.14,0,.2-.17.22a7.59,7.59,0,0,1-1.15.17c-.41,0-.45,0-.45-.21V10.8c.06-.66.08-2.15.08-3.79V5.3a22.37,22.37,0,0,1-2.08,1.4,6.58,6.58,0,0,1-1.57.83.3.3,0,0,1-.28-.12,4.09,4.09,0,0,0-1.1-.85,20.33,20.33,0,0,0,3.8-2.13A20,20,0,0,0,212.54,1,3.85,3.85,0,0,0,213,.3c.83.48,1.42,1,1.42,1.22,0,.08,0,.15-.21.23a3.62,3.62,0,0,0-1,.78c-.57.56-1.14,1.06-1.65,1.48Z"/><path d="M218.77,6.45c0,.8,0,2.91.07,3.52V10a.31.31,0,0,1-.09.26,3,3,0,0,1-1.1.24c-.42,0-.5,0-.5-.26v0c0-.34.06-4.09.06-5.63A32.13,32.13,0,0,0,217.07,0a12,12,0,0,1,1.74,0c.13,0,.2.09.2.19a1,1,0,0,1,0,.29,1.88,1.88,0,0,0-.09.56s0,.8-.07,2.34a13,13,0,0,1,1.47.33,18.79,18.79,0,0,1,3.22,1.12c.11.07.16.13.16.21a5.31,5.31,0,0,1-.45,1.18c-.1.23-.17.3-.25.31a.5.5,0,0,1-.21-.07,13.43,13.43,0,0,0-4-1.52Z"/></g></g></svg>