<svg xmlns="http://www.w3.org/2000/svg" width="188.74" height="16.74" viewBox="0 0 188.74 16.74"><defs><style>.cls-1{fill:#fff}.cls-2{fill:#fcee21}</style></defs><title>text_worldrank</title><g id="レイヤー_2" data-name="レイヤー 2"><g id="content"><path class="cls-1" d="M51.17 16.72h-3.5L43 9.49l-4.69 7.23h-3.53V0h3.51v10.78l3.19-5.13h3l3.22 5.15V0h3.5zm16.72-3.37l-3.34 3.39H56.1l-3.38-3.37v-10L56.08 0h8.47l3.34 3.35zm-3.51-1.63V5l-1.45-1.45H57.7L56.23 5v6.72l1.51 1.51h5.17zm19.82 5.02h-3.5v-3.92L79 11.27h-5.91v5.47h-3.6V0h11.35l3.36 3.33v4.43l-2 1.75 2 1.82zM80.67 6.47V4.78L79.3 3.35h-6.21v4.53h6.21zm18.49 10.27H85.88V0h3.5v13.25h9.78zm15.37-3.33l-3.38 3.33h-10.74V0h10.74l3.38 3.37zM111 11.8V4.94l-1.45-1.49h-5.58v9.82h5.58zm29.44 4.94h-3.5v-3.92l-1.68-1.55h-5.93v5.47h-3.6V0h11.35l3.36 3.33v4.43l-2 1.75 2 1.82zm-3.52-10.27V4.78l-1.38-1.43h-6.21v4.53h6.21zm19.76 10.27h-3.51v-4.19h-7.58v4.19h-3.5V3.39L145.43 0h7.91l3.34 3.39zM153.17 9V4.94l-1.47-1.49h-4.63l-1.48 1.49V9zm19.36 7.74h-3.46v-5.86l-7.25-6.19v12h-3.45V0h3.45l7.25 6V0h3.46zm16.21 0h-3.55v-4.8l-2.39-2.2h-4.94v7h-3.53V0h3.53v6.21h5L185.19 4V0h3.55v5.27L185.87 8l2.87 2.68z"/><path class="cls-2" d="M13.65 15.35H1.37V3.06l12.28 12.29z"/><path class="cls-2" d="M9.65 15.35h12.29V3.06L9.65 15.35z"/><path class="cls-2" d="M21.19 15.35h-9.54V2.02l9.54 13.33zm-19.07 0h9.53V2.02L2.12 15.35z"/><circle class="cls-2" cx="1.37" cy="3.06" r="1.37"/><circle class="cls-2" cx="11.65" cy="2.02" r="1.37"/><circle class="cls-2" cx="21.94" cy="3.06" r="1.37"/></g></g></svg>