<svg xmlns="http://www.w3.org/2000/svg" xmlns:xlink="http://www.w3.org/1999/xlink" width="283.02" height="134.62" viewBox="0 0 283.02 134.62"><defs><style>.cls-1{fill:url(#名称未設定グラデーション_9);}.cls-2{fill:url(#名称未設定グラデーション_9-2);}</style><linearGradient id="名称未設定グラデーション_9" x1="76.21" y1="104.51" x2="199.93" y2="104.51" gradientUnits="userSpaceOnUse"><stop offset="0" stop-color="#4d4d4d"/><stop offset="0.66" stop-color="#f2f2f2"/><stop offset="0.87" stop-color="gray"/></linearGradient><linearGradient id="名称未設定グラデーション_9-2" x1="0" y1="33.03" x2="280.32" y2="33.03" xlink:href="#名称未設定グラデーション_9"/></defs><title>title_2</title><g id="レイヤー_2" data-name="レイヤー 2"><g id="txt"><path d="M135.43,110,132,116.77l2.82,16.65-6.61,1.2-1.26-7.78-2.81,5.49L119,129.58v3.95H102V107.38h17v20.31l6.09-12-1.9-11.1H98.5V134H92v-3.55l-11.83,1.95-1.2-7.67,2.35-.46V89H79.72V81.46h20.1V89H98.5v8.75H103V89.93h-1.73V83.18h5.29v-3h7.06v3h5.06v6.75h-1.67v7.84H122L119.18,81l6.49-1.21,3,18h5.23v6.87h-4l.4,2.57ZM92,95.65V89H87.82v6.63Zm0,13.62V103H87.82v6.24Zm0,13.33v-6H87.82v6.64Zm20.74-5.09v-4.12h-4.48v4.12Zm0,10.07V123.4h-4.48v4.18Zm-1-29.81V89.93h-3.39v7.84Zm22.4-5-4.6.63L128,82l4.65-.52Z"/><path d="M171.16,84.55,145.6,133.82l-9-4.64L162,80Zm17.58,43.66L180.41,134,159.79,106.7l8-5.73Z"/><path d="M202.9,117.57H192.44V80H202.9Zm0,14.7H192.5v-9.15h10.4Z"/><path d="M68.53,68.76H46.77V54.93h8V26H31.4L22.25,68.76H5.46V54.93h6.23L17.44,26H2.7v-14H20.28L22.1,2.7H36.29l-2,9.35H68.53Z"/><path d="M90.42,46.37H76.7V2.7H90.42Zm47.7,3.38-18.53,19H84.43V55.25h28.78l11-11.08V2.7h14Z"/><path d="M214.61,68.76H197.82L181,49.43,162.65,68.76H145.07V55h11.35l35.33-36V16.52H145.62V3.17h62v18.3l-17.5,18.46Z"/><path d="M283,34.27l-29.72,20,8.28,14.53H245.73l-20-36.45h15.06l6.07,10.6L269.07,27.6V17H214.58V3.17H283Z"/><path class="cls-1" d="M132.73,107.26l-3.45,6.81,2.82,16.65-6.61,1.2-1.26-7.78-2.81,5.49-5.17-2.75v4h-17V104.68h17V125L122.33,113l-1.89-11.1H95.8v29.35H89.25v-3.55l-11.83,2L76.21,122l2.36-.46V86.32H77V78.76h20.1v7.56H95.8v8.75h4.54V87.23H98.61V80.48h5.29v-3H111v3H116v6.75h-1.67v7.84h4.94l-2.81-16.76L123,77.1l3,18h5.23v6.87h-4l.4,2.57ZM89.25,93V86.32H85.12V93Zm0,13.62v-6.24H85.12v6.24Zm0,13.33v-6H85.12v6.64ZM110,114.81v-4.12h-4.48v4.12Zm0,10.07V120.7h-4.48v4.18Zm-1-29.81V87.23h-3.39v7.84Zm22.4-5-4.6.63-1.49-11.44,4.65-.52Zm36.93-8.24-25.56,49.27-9-4.64,25.39-49.15Zm17.57,43.66-8.33,5.78L157,104l8-5.73Zm14-10.64H189.48V77.28h10.45Zm0,14.7H189.54v-9.15h10.39Z"/><path class="cls-2" d="M65.83,66.06H44.07V52.23h8V23.33H28.7L19.55,66.06H2.76V52.23H9l5.75-28.9H0v-14H17.58L19.4,0H33.59l-2,9.35H65.83ZM87.72,43.67H74V0H87.72Zm47.7,3.38-18.53,19H81.73V52.55h28.78l11-11.08V0h13.95Zm76.49,19H195.12l-16.8-19.33L160,66.06H142.37V52.31h11.36l35.32-36V13.82H142.92V.47H205v18.3l-17.5,18.46Zm68.41-34.49-29.72,20,8.28,14.54H243L223,29.61h15.06l6.07,10.6L266.37,24.9V14.3H211.88V.47h68.44Z"/></g></g></svg>