<svg xmlns="http://www.w3.org/2000/svg" width="284.14" height="76.62" viewBox="0 0 284.14 76.62"><defs><style>.cls-1{fill:#fff;}.cls-2{fill:#42210b;}</style></defs><title>title_4</title><g id="レイヤー_2" data-name="レイヤー 2"><g id="txt"><path class="cls-1" d="M216.68,45.65l-3.45,6.81L216,69.11l-6.6,1.2-1.26-7.78L205.36,68l-5.17-2.75v4h-17V43.07h17V63.38l6.09-12-1.89-11.1H179.75V69.68H173.2V66.13l-11.83,2-1.21-7.67,2.36-.46V24.71H161V17.15h20.11v7.56h-1.32v8.75h4.53V25.62h-1.72V18.87h5.28v-3h7.07v3H200v6.75H198.3v7.84h4.94L200.42,16.7l6.49-1.2,3.05,18h5.22v6.87h-4l.4,2.57ZM173.2,31.34V24.71h-4.14v6.63Zm0,13.62V38.72h-4.14V45Zm0,13.33v-6h-4.14v6.64Zm20.73-5.09V49.08h-4.48V53.2Zm0,10.07V59.09h-4.48v4.18Zm-1-29.81V25.62h-3.39v7.84Zm22.4-5-4.6.63-1.49-11.44,4.65-.52Z"/><path class="cls-1" d="M252.41,20.24,226.85,69.51l-9-4.64,25.39-49.15ZM270,63.9l-8.33,5.78L241,42.39l8-5.72Z"/><path class="cls-1" d="M284.14,53.26H273.69V15.67h10.45Zm0,14.7H273.75V58.81h10.39Z"/><path class="cls-1" d="M73,62.26H44.61V76.62H31.29V62.26H2.7V10.55H31.29V2.7H44.61v7.85H73ZM31.29,49.08V23.65H15.93V49.08Zm28.52,0V23.65H44.61V49.08Z"/><path class="cls-1" d="M149.47,75.92H75.18V66H106v-5.1H79.2V51H106V47.59h12.68V51h26.78v10H118.67V66h30.8ZM114.18,45h-37V4h37v8.32h-8.27V16h8.27V33h-8.27v3.69h8.27Zm-18-29V12.35H88V16Zm7,10.44V22.79H88V26.4Zm-7,10.28V33H88v3.69Zm55.14-28.8L137.65,28.44l12.68,10.28-6.61,8.16-11.9-9.81-6.46,9.73-8-6,6.85-10.2L118,25.46l6.3-7.85,5.52,4.47,5-7.45H119V4.5h22.61l1.18-1.8Z"/><path class="cls-2" d="M214,43l-3.45,6.81,2.81,16.65-6.6,1.2-1.26-7.78-2.82,5.49-5.17-2.75v3.95h-17V40.37h17V60.68l6.09-12-1.89-11.1H177.05V67H170.5V63.43l-11.83,1.95-1.21-7.67,2.36-.46V22h-1.56V14.45h20.11V22h-1.32v8.75h4.53V22.92h-1.72V16.17h5.28v-3h7.07v3h5v6.75H195.6v7.84h4.94L197.72,14l6.49-1.21,3,18h5.22v6.87h-4l.4,2.57ZM170.5,28.64V22h-4.14v6.63Zm0,13.62V36h-4.14v6.24Zm0,13.33v-6h-4.14v6.64Zm20.73-5.09V46.38h-4.48V50.5Zm0,10.07V56.39h-4.48v4.18Zm-1-29.81V22.92h-3.39v7.84Zm22.4-5-4.6.63L206.57,15l4.65-.52Z"/><path class="cls-2" d="M249.71,17.54,224.15,66.81l-9-4.64L240.52,13ZM267.28,61.2,259,67,238.33,39.69l8-5.73Z"/><path class="cls-2" d="M281.44,50.56H271V13h10.45Zm0,14.7H271.05V56.11h10.39Z"/><path class="cls-2" d="M70.34,59.56H41.91V73.92H28.59V59.56H0V7.85H28.59V0H41.91V7.85H70.34ZM28.59,46.38V21H13.23V46.38Zm28.52,0V21H41.91V46.38Z"/><path class="cls-2" d="M146.77,73.22H72.48V63.33h30.81v-5.1H76.5v-10h26.79V44.89H116v3.37h26.78v10H116v5.1h30.8ZM111.48,42.3h-37v-41h37V9.65h-8.27v3.61h8.27v17h-8.27V34h8.27Zm-18-29V9.65H85.25v3.61Zm7,10.44V20.09H85.25V23.7ZM93.44,34V30.29H85.25V34Zm55.14-28.8L135,25.74,147.63,36,141,44.18l-11.9-9.81-6.46,9.73-8-6,6.85-10.2-6.22-5.18,6.3-7.85,5.52,4.47,5-7.45H116.28V1.8h22.61L140.07,0Z"/></g></g></svg>