<svg viewbox="0 0 167 100" xmlns="http://www.w3.org/2000/svg">
	<defs>
		<clipPath id="svgPathOmoroi">
		   <polygon class="cls-3" points="158 0 0 14 0 92 158 78 158 0"></polygon>
		</clipPath>
	</defs>
	<g>
		<polygon class="cls-1 shadow" points="158 0 167 8 167 86 158 78 158 0"></polygon>
		<polygon class="cls-2 shadow" points="0 92 9 100 167 86 158 78 0 92"></polygon>
		<polygon class="cls-3 barWrap" points="158 0 0 14 0 92 158 78 158 0"></polygon>

		<g clip-path="url(#svgPathOmoroi)">
		  <path class="bar" d="M0,0.5h1"/>
		</g>

		<path d="M41,58.31l-4.5,4.93-5.37.47V58.46l3.15-.28,1.47-1.6V53.3L34.28,52l-6.34.56v7.22L24.32,64.3l-6.85.6-4.53-4.13v-7.6l4.59-5.09,5.19-.45v-3.5L13.38,45V39.79L22.72,39V36.29l5.22-.46v2.69L31,38.25V43.4l-3.09.27v3.5l8.56-.74L41,50.59Zm-18.28-.37V53l-3.28.29L17.91,55v3.25l1.41,1.35,2.06-.18ZM41,43.82l-5,.44V42.44l-1.31-1.19L33,41.39V36.11l3.94-.35,4,3.74Z" />
    <path d="M72.48,54.62l-5.62,6L54.05,61.7l-5.5-5V50.28l-4.07.35V45.45l4.07-.36V41.5l-4.07.35V36.73l4.07-.36V34l5.28-.46v2.34l17.34-1.52v5.13L53.83,41v3.6l17.34-1.52V48.3L53.83,49.82V54.1l2.43,2.16,8.5-.74,2.38-2.59v-2.4l5.34-.47Z" />
    <path d="M103.34,52.33l-5,5.5L78.53,59.56V54.19l17.28-1.52,1.85-2V46.42L95.81,44.7l-10.91,1,1.41-8.44-11,1V32.94L92.5,31.43l-1.41,8.38,7.22-.64,5,4.63Z" />
    <path d="M119.64,56l-7.5.66-4.82-4.45V30.54l5.28-.46V49.52l1.94,1.76,5.1-.44Zm13.81-4-5.28.46V36l-1.94-1.83-4.81.42V29.4l7.18-.63,4.85,4.52Z" />
    <path d="M143.63,45.43l-5.68.49V25.39l5.68-.49Zm0,8L138,54V49l5.65-.49Z" />
	</g>
</svg>
