<svg xmlns="http://www.w3.org/2000/svg" viewBox="0 0 167 75">
  <defs>
  </defs>
  <title>アセット 16</title>
  <g id="レイヤー_2" data-name="レイヤー 2">
    <g id="content">
      <polygon class="cls-1 shadow" points="158 0 167 8 167 61 158 53 158 0" />
      <polygon class="cls-2 shadow" points="0 67 9 75 167 61 158 53 0 67" />
      <polygon class="cls-3 barWrap" points="158 0 0 13.78 0 66.78 158 53 158 0" />
      <path d="M37.18,40.37l-4.42.39V26.64l4.42-.39Zm15.36-.25-6,6.67-11.33,1V43.41l9.27-.81,3.53-3.89V25.3l4.49-.39Z" />
      <path d="M78.47,32.85,74.59,37l-6.48.57V33.37L72.55,33,74,31.41V29.83l-11.53,1v6.81l3,3,11.07-1v4.5L63.51,45.3l-5.46-5.54V31.23l-1.82.16V27l1.82-.16V24.43L62.5,24v2.43l16-1.39Z" />
      <path d="M87,34.64,83.18,35V27.61L87,27.27Zm12.47,1.44-5.1,6.52-10.26.9V39.66l8.51-.74,3-3.9V26.19l3.83-.34Zm-6.57-2-3.84.34V27.09l3.84-.33Z" />
      <path d="M124.84,33.06l-5.56.48-9.47-3.18V41.25l-4.39.39V20.28l4.39-.38v5.76l10.06,3.39,5-.44Z" />
    </g>
  </g>
</svg>
