<svg viewbox="0 0 167 100" xmlns="http://www.w3.org/2000/svg">
	<defs>
		<clipPath id="svgPathWakaran">
		   <polygon class="cls-3" points="158 0 0 14 0 92 158 78 158 0"></polygon>
		</clipPath>
	</defs>
	<g>
		<polygon class="cls-1 shadow" points="158 0 167 8 167 86 158 78 158 0"></polygon>
		<polygon class="cls-2 shadow" points="0 92 9 100 167 86 158 78 0 92"></polygon>
		<polygon class="cls-3 barWrap" points="158 0 0 14 0 92 158 78 158 0"></polygon>

		<g clip-path="url(#svgPathWakaran)">
		  <path class="bar" d="M0,0.5h1"/>
		</g>

		<path d="M42.26,45.44,39,50l-1.53-1.52V65.08L27,66V61.09l5.43-.47v-8l-10.28.9,3.53,2L18.45,67.21l-4.22-2.63,6.78-11-5.16.46V50.5l-1.4,1.66-3.29-4L21.1,36.64,24.79,40l-7.63,9,19.1-1.67-7.63-7.61,3.69-4Z" />
    <path d="M66.64,57.87l-4.16,4.49L55.33,63V57.83l4.47-.39,1.53-1.7V45.4l-1.66-1.54-6.15.53L52.14,63.27l-5.22.45,1.31-18.86L45,45.14V39.8l3.63-.32.28-4.09,5.31-.46L53.92,39l8.53-.75,4.19,4Zm6.44-8.53-5,.44V35.65l5-.44Z" />
    <path d="M103.38,54l-4.69,5.16L76.75,61.11V55.74L96.32,54l1.5-1.67V49.83l-1.5-1.4L77.44,50.08V33.8l5.28-.46V44.28l15.91-1.39,4.75,4.33Zm-1.75-16.69L85.32,38.77V33.36l16.31-1.42Z" />
    <path d="M134.35,51.73l-4.29,4.72-6.62.58-4.34-3.94V44.5l-1.47-1.28-3.66.32L112.69,58l-5.47.48,2.38-28.37,5.62-.49L114.47,38l5.81-.51,4.07,3.71v9.18l1.21,1.18,2.32-.2L129.1,50V36.78l5.25-.46Z" />
    <path d="M144,46.79l-5.69.5V26.76l5.69-.5Zm0,8-5.66.5v-5l5.66-.5Z" />
	</g>
</svg>
