<svg xmlns="http://www.w3.org/2000/svg" viewBox="0 0 263.09 82.98">
  <defs>
  </defs>
  <title>アセット 2</title>
  <g id="レイヤー_2" data-name="レイヤー 2">
    <g id="content">
      <polygon class="cls-1 shadow" points="255.81 0 263.09 6.47 263.09 61.42 255.81 54.96 255.81 0" />
      <polygon class="cls-2 shadow" points="0 76.98 6 82.98 263.09 61.42 255.81 54.96 0 76.98" />
      <polygon class="cls-3" points="255.81 0 0 21.98 0 76.98 255.81 54.96 255.81 0" />
      <path d="M38.42,54.58l-4.53,5L18.68,60.9l-4.57-4.16V52.56l5.41-.47v1.65l1.62,1.47,10.25-.89L33,52.56v-2l-1.68-1.63L18.65,50l-4.54-3.91v-6.7l4.57-5.06L33.85,33l4.57,4.26v3.88l-5.54.48V40.21L31.27,38.7l-10.17.89-1.58,1.79v2l1.62,1.41,12.65-1.11,4.63,4.16Z" />
      <path d="M64.71,36.1l-8.86.77V57.65l-5.67.49V37.37l-8.86.77V32.45L64.71,30.4Z" />
      <path d="M91,54.57l-5.53.49V48.42l-12,1v6.64l-5.53.48V35.43l5.27-5.84L85.69,28.5,91,33.41ZM85.43,42.79V36.35L83.1,34.2l-7.31.64L73.46,37.4v6.44Z" />
      <path d="M118.29,52.18l-5.54.49V46.45l-2.65-2.22-9.35.82v8.67l-5.7.5V27.68L113,26.11l5.31,4.81v7l-3.14,3,3.14,2.61Zm-5.57-15.79V33.71l-2.17-2.08-9.8.86v7.18l9.8-.85Z" />
      <path d="M144.89,29.08l-8.87.78V50.63l-5.66.5V30.35l-8.87.78v-5.7l23.4-2Z" />
      <path d="M154,45.11l-3.44.3-1.72-3.27-.9-5.43.9-5.58,1.72-3.59,3.44-.3-1.89,3.88-.9,5.31.9,5.16Z" />
      <path d="M174.59,33.3l-18.43,1.62V32.26l3.41-.3-.33-1.9-2.13.18V27.59L163.6,27V26.1l3.3-.29v.92l6.74-.59V28.8l-2.07.18-.34,2,3.36-.29Zm-1.23,10.13-16,1.4v-9l16-1.39ZM170,38.1V37l-9.27.81v1.13Zm0,3.38V40.31l-9.27.81v1.17ZM168.4,29.26l-6,.52.33,1.9,5.31-.46Z" />
      <path d="M193.87,38.49l-3,3.25-3.14.27V38.75l1.75-.15,1.06-1.19V35.46l-1.08-1h-.15L184,42.35l-4.94.43-3-2.72V35.43l3-3.27,2.65-.23V29.56L177,30v-3.3l4.63-.41V25l3.25-.28V26l8-.7v3.3l-8,.7v2.36l2.22-.19V30.24l3.13-.28v1.21l.64-.05,3,2.74Zm-9.67-1.73-2.56.22V35.15l-1.25.11-1.07,1.17v2l1.07,1,2.09-.18Zm1.37-1.95-.68.06v.91Z" />
      <path d="M199.91,35.78l-3.3.29V24.21l3.3-.29Zm12,.67L208.5,40.2l-6,.52V37.5l4.23-.37,1.84-2V23.16l3.32-.29Z" />
      <path d="M221.37,30.29l-.92,5.58-1.7,3.57-3.44.3,1.9-3.86.88-5.31-.88-5.15-1.9-3.55,3.44-.3,1.7,3.29Z" />
      <polygon points="236.01 21.02 244.18 28.48 236.01 37.36 236.01 21.02" />
    </g>
  </g>
</svg>
