<svg viewbox="0 0 167 100" xmlns="http://www.w3.org/2000/svg">
	<defs>
		<clipPath id="svgPathIine">
		   <polygon class="cls-3" points="158 0 0 14 0 92 158 78 158 0"></polygon>
		</clipPath>
	</defs>
	<g>
		<polygon class="cls-1 shadow" points="158 0 167 8 167 86 158 78 158 0"></polygon>
		<polygon class="cls-2 shadow" points="0 92 9 100 167 86 158 78 0 92"></polygon>
		<polygon class="cls-3 barWrap" points="158 0 0 14 0 92 158 78 158 0"></polygon>

		<g clip-path="url(#svgPathIine)">
		  <path class="bar" d="M0,0.5h1"/>
		</g>

		<path d="M40,62.84l-7.5.66-4.82-4.45V37.42L32.91,37V56.4l1.94,1.76,5.1-.44Zm13.81-4-5.28.46V42.85L46.54,41l-4.81.42V36.28l7.18-.63,4.85,4.52Z" />
    <path d="M70.73,60.15l-7.5.66-4.81-4.46V34.73l5.28-.46V53.7l1.94,1.77L70.73,55Zm13.81-4-5.28.46V40.15l-1.93-1.83-4.82.42V33.59L79.7,33l4.84,4.51Z" />
    <path d="M117.23,48.21l-1.69.14V53.2l-3.21,3.31-9,.79-3.25-2.91V48.52l3.25-3.88,7-.62V37.34l-1.25-1.14-2,.17-9.69,8.32V57.82l-5.19.45V53l-3.75.33V48.07l3.75-.33v-8l-3.75.33V34.82l3.75-.33V30.11l5.19-.45v8.47l8.09-6.9,5.72-.5,4.31,3.91v8.93l1.69-.14Zm-6.84,3.28V48.81l-4.75.41-.85.89V52l.85.77,3.9-.34Z" />
    <path d="M130.9,47l-4.94.43v-20L130.9,27Zm0,7.93-4.93.44V50.44l4.93-.43Z" />
	</g>
</svg>
