<svg xmlns="http://www.w3.org/2000/svg" viewBox="0 0 432.9 34.4">
  <defs>
    <style>.top_web_svg1{fill:#006549;}.top_web_svg2{fill:#231815;}</style>
  </defs>
  <title>top_web</title>
  <g id="レイヤー_2" data-name="レイヤー 2">
    <g id="レイヤー_3" data-name="レイヤー 3">
      <path class="top_web_svg1" d="M0,4.22,2.15.66h7V31.84H5.42V4.22Z"/>
      <path class="top_web_svg1" d="M41.85,28.28v3.56H21.71L35.36,15.09c1.28-1.57,2.77-3.51,2.77-5.58A6.07,6.07,0,0,0,26,9.26H22.13C22.75,3.72,26.34,0,32,0c5.29,0,9.84,3.93,9.84,9.35a10.32,10.32,0,0,1-2.31,6.4L29.28,28.28Z"/>
      <path class="top_web_svg1" d="M57.32,30.1a2.4,2.4,0,1,1-2.4-2.39A2.4,2.4,0,0,1,57.32,30.1Z"/>
      <path class="top_web_svg1" d="M71.13,4.22,73.28.66h7V31.84H76.55V4.22Z"/>
      <path class="top_web_svg1" d="M96.19,16.25C96.19,9.84,99,0,107.07,0s10.87,9.84,10.87,16.25S115.09,32.5,107.07,32.5,96.19,22.62,96.19,16.25Zm3.73,0c0,4.3,1.57,12.82,7.15,12.82s7.15-8.52,7.15-12.82-1.57-12.9-7.15-12.9S99.92,11.91,99.92,16.21Z"/>
      <path class="top_web_svg2" d="M139.15,5A19.36,19.36,0,0,0,135,17.12a19.36,19.36,0,0,0,4.13,12.13H136.6c-2.3-3-3.71-7.73-3.71-12.13S134.3,8,136.6,5Z"/>
      <path class="top_web_svg2" d="M161,21c0,1.8.06,3.11.06,3.42,0,2.83-1.81,3.47-3.8,3.47-.22,0-.41,0-.62,0a.19.19,0,0,1-.22-.15,15.33,15.33,0,0,0-1.46-2.61,15.25,15.25,0,0,0,2.32.25c1.13,0,1.77-.32,1.77-1.36V19.6h-7.25a13.79,13.79,0,0,1-3.43,8.33c0,.05-.07.1-.11.1s-.06,0-.1-.05a9.8,9.8,0,0,0-2.26-1.06c3.78-2.94,4.23-7.4,4.23-11.75,0-.86,0-1.73,0-2.56,0-2-.1-6.59-.1-6.59h11Zm-9-12.64s0,1.42.06,3.22h7V8.33ZM152,13.8c0,1.11,0,2.28,0,3.44H159V13.8Z"/>
      <path class="top_web_svg2" d="M172.81,5c2.3,3,3.71,7.71,3.71,12.14s-1.41,9.17-3.71,12.13h-2.57a19.27,19.27,0,0,0,4.15-12.13A19.39,19.39,0,0,0,170.26,5Z"/>
      <path class="top_web_svg2" d="M200.24,2.5h3.28l4.59,20.65c.22,1,.52,2.77.74,4.53.17-1.52.43-3,.62-4l4.68-20.61h3.41l4.65,20.33a31.85,31.85,0,0,1,.75,3.93,41.24,41.24,0,0,1,.75-4.57L227.93,2.5h3.22L224.45,32h-3.18L216.56,11a32.82,32.82,0,0,1-.75-4c-.26,1.84-.55,3.57-.81,4.69L210.25,32h-3.18Z"/>
      <path class="top_web_svg2" d="M246.81,2.5H261.4V5.83H249.87v8.38h10.27v3.28H249.87V28.32h12.31v3.41H246.81Z"/>
      <path class="top_web_svg2" d="M281.81,2.5h8.32c3.09,0,7.67,1.2,7.67,7,0,3.57-1.91,6.06-4.64,6.54,2.92.36,5.88,2.65,5.88,7.26,0,5.53-3.19,8.46-8.45,8.46h-8.78Zm7.9,12.15c2.28,0,5-1.37,5-4.77,0-2.85-2.28-4.3-5-4.3h-4.87v9.07Zm.46,14c2.82,0,5.78-1.12,5.78-5.73,0-3.73-2.53-5.18-6.17-5.18h-4.94V28.6Z"/>
      <path class="top_web_svg2" d="M317.93,8.52a.71.71,0,0,1-.06-.23c0-.12.09-.23.28-.23,4.51,0,10.13-2.36,21-3.85l.37-.11a1,1,0,0,1,.4-.16c.28,0,1.21,2.63,1.21,3.13,0,.23-.09.34-.28.34a1.14,1.14,0,0,1-.49-.19,8.36,8.36,0,0,0-3.59.92c-3,1.41-8.18,7.09-8.18,12.16,0,6.36,5.9,7.89,10,8l-2.29,3.28c-2.93-.54-10.19-2.79-10.19-10.83,0-3.81,2.19-8.92,7-12.92-5.22.88-10.1,3-13.84,3.66Zm20.57,1.56a21.58,21.58,0,0,1,2.91,5.15l-1.8,1.22a19.39,19.39,0,0,0-2.78-5.3Zm3.18-1.33a18.36,18.36,0,0,1,2.88,4.61l-1.73,1.33a19.56,19.56,0,0,0-2.75-4.8Z"/>
      <path class="top_web_svg2" d="M361.74,17.28c5-3.73,8.83-12,9.45-15.36A21.49,21.49,0,0,1,374,3.26c.31.19.43.38.43.57,0,.34-.5.57-1,.57h-.06c-1.21,3.05-4.33,10.1-8.87,14.6Zm18.46,1.83s5.59,7.7,7.57,12.81l-2.38,2.14a32.11,32.11,0,0,0-2.07-5c-1.66.38-11.52,2.63-17.6,3.51a3.14,3.14,0,0,1,0,.53c0,.69-.19,1.22-.46,1.22s-.4-.22-.62-.83a30.52,30.52,0,0,1-1.11-4.05c1.6-.07,3.55-.26,5.53-.53a103.6,103.6,0,0,0,4.54-16.2s1.85.46,3,.84c.46.19.68.38.68.61s-.49.61-1.14.65c-.16.46-2.35,8.16-4.29,13.68,4-.65,7.87-1.45,10.09-2a64.58,64.58,0,0,0-3.86-6Zm-.77-17.34a31.51,31.51,0,0,0,10.9,14.14l-2.68,2.36c-3.59-3-8-9.49-10.44-15.43Z"/>
      <path class="top_web_svg2" d="M408.07,1.35h10.69V14.23h-2.07v-.91h-6.33V34.4h-2.29Zm8.62,4.8V3.6h-6.33V6.15Zm0,5V8.36h-6.33v2.75Zm-5.35,20.62c3.77-.72,4.88-4,5.19-6.82h-4.38V22.54h4.51v-.19c0-1.14,0-2.44,0-3.43H413V16.6h14.58v2.32h-3.15v3.62h4v2.37h-4v8.34h-2.16V24.91h-3.68c-.28,3.2-1.36,7.16-5,8.88Zm11-9.19V18.92h-3.52c0,.65-.07,2.25-.07,3.55v.07Zm8.24-9.22H424v.91h-2.1V1.35h10.9v23s.06,3.77.06,5.6c0,3.43-2.25,4.15-4.45,4.15-.37,0-.74,0-1.08,0,0,0-1.45-2.71-1.7-3.13a18.07,18.07,0,0,0,2.57.3c1.2,0,2.31-.34,2.31-1.79Zm0-7.17V3.6H424V6.15Zm0,5V8.36H424v2.75Z"/>
    </g>
  </g>
</svg>