<!-- Generator: Adobe Illustrator 23.0.0, SVG Export Plug-In  -->
<svg version="1.1" xmlns="http://www.w3.org/2000/svg" xmlns:xlink="http://www.w3.org/1999/xlink" x="0px" y="0px" width="264.4px"
	 height="74.2px" viewBox="0 0 264.4 74.2" style="enable-background:new 0 0 264.4 74.2;" xml:space="preserve">
<style type="text/css">
	.warikan_tit_svg{fill:#FFFFFF;}
</style>
<defs>
</defs>
<g>
	<g>
		<path class="warikan_tit_svg" d="M23.3,30.2l-4.1,0.4v-2.1L8.6,29.3v2.1l-4.2,0.4v-5.9l6.6-0.6v-1.2l5.6-0.5v1.2l6.6-0.6V30.2z M23.2,44.1
			L4.5,45.7v-3.5l6.7-0.6v-1.3l-5.4,0.5v-3.5l5.4-0.5v-1.3l-5.4,0.5v-3.5l5.4-0.5v-1.5l5.3-0.5v1.5l5.4-0.5v3.5L16.5,35v1.3l5.4-0.5
			v3.5l-5.4,0.5v1.3l6.7-0.6V44.1z M22.2,54.8L5.5,56.3v-9.4l16.7-1.5V54.8z M17.2,51.6v-2.2l-6.7,0.6v2.2L17.2,51.6z M29.1,46.7
			l-4.6,0.4V24.6l4.6-0.4V46.7z M35.6,54l-8.9,0.8v-5.2l4.1-0.4V22.4l4.8-0.4V54z"/>
		<path class="warikan_tit_svg" d="M44.8,43.6L39,44.1V23.4l5.8-0.5V43.6z M65.7,44.8l-6,6.6l-10.4,0.9v-5.6l7.4-0.6l3.2-3.5V21.6l5.8-0.5V44.8z
			"/>
		<path class="warikan_tit_svg" d="M86.5,38.9l-3.9,0.3v2l3.1-0.3v2.8l-6.1,0.5v-4.8L77,39.7l2,1.1l-2.7,5l-2.4-1.3l2.6-4.7L73.9,40L73.8,40v6.4
			l12-1.1v4.1l-16.3,1.4V40.3l-1.2,0.1v-4.3l1.8-0.2V25.1l-1.6,0.1V21l1.6-0.1V19l4.6-0.4v1.9l5.3-0.5v-1.9l4.6-0.4v1.9l1.6-0.1v4.3
			l-1.6,0.1v10.9l1.7-0.1V38.9z M80.2,25.7v-1.5l-5.3,0.5v1.5L80.2,25.7z M80.2,30.5v-1.6l-5.3,0.5v1.6L80.2,30.5z M80.2,35.1v-1.6
			L74.9,34v1.6L80.2,35.1z M99.7,48.4L93.2,49v-4.9l2.1-0.2V25.6l-2,0.2l-2.2,23.4l-4.4,0l2.1-23l-2.1,0.2v-4.5l2.6-0.2l0.4-4.5
			l4.4,0.1l-0.4,4l6-0.5V48.4z"/>
		<path class="warikan_tit_svg" d="M131.4,34l-8.9,11.3L102.8,47v-6l17-1.5l5.6-7.2v-10l6-0.5V34z M116.4,24.1l-13.5,1.2v-5.7l13.5-1.2V24.1z
			 M116.4,33.5l-13.5,1.2v-5.7l13.5-1.2V33.5z M126.4,20.3l-4.1,0.4v-5.5l4.1-0.4V20.3z M132.6,19.8l-4.1,0.4v-5.5l4.1-0.4V19.8z"/>
		<path class="warikan_tit_svg" d="M163.7,41.7l-6.3,0.6l-0.9-3.3l-6.3,4l-16.7,1.5v-6l8.3-23.4l6.4-0.6l-8.4,23.4l9.6-0.8l5.6-3.3l-1.9-6.9
			l6.1-0.5L163.7,41.7z"/>
		<path class="warikan_tit_svg" d="M195.3,16l-3.5,0.3v5.4l-18.9,1.7v11.6l21.8-1.9v6l-27.8,2.4V12.8l6-0.5v5l11.1-1V9.8l4.7-0.4v6.5l2-0.2V9.2
			l4.7-0.4V16z"/>
		<path class="warikan_tit_svg" d="M223.5,25.3l-27.3,2.4v-6.2l27.3-2.4V25.3z"/>
		<path class="warikan_tit_svg" d="M256,33.6l-6.3,0.6l-0.9-3.3l-6.3,4l-16.7,1.5v-6l8.3-23.4l6.4-0.6l-8.4,23.4l9.6-0.8l5.6-3.3l-1.9-6.9
			l6.1-0.5L256,33.6z"/>
		<path class="warikan_tit_svg" d="M264.3,24.8l-5.4,0.5V3.5l5.4-0.5V24.8z M264.4,33.5l-5.4,0.5v-5.4l5.4-0.5V33.5z"/>
	</g>
</g>
<polygon class="warikan_tit_svg" points="264.1,46 3,68.9 3,74.2 264.1,51 "/>
<g>
	<g>
		<path d="M20.3,27.2l-4.1,0.4v-2.1L5.6,26.3v2.1l-4.2,0.4v-5.9l6.6-0.6v-1.2l5.6-0.5v1.2l6.6-0.6V27.2z M20.2,41.1L1.5,42.7v-3.5
			l6.7-0.6v-1.3l-5.4,0.5v-3.5l5.4-0.5v-1.3l-5.4,0.5v-3.5l5.4-0.5v-1.5l5.3-0.5v1.5l5.4-0.5v3.5L13.5,32v1.3l5.4-0.5v3.5l-5.4,0.5
			v1.3l6.7-0.6V41.1z M19.2,51.8L2.5,53.3v-9.4l16.7-1.5V51.8z M14.2,48.6v-2.2l-6.7,0.6v2.2L14.2,48.6z M26.1,43.7l-4.6,0.4V21.6
			l4.6-0.4V43.7z M32.6,51l-8.9,0.8v-5.2l4.1-0.4V19.4l4.8-0.4V51z"/>
		<path d="M41.8,40.6L36,41.1V20.4l5.8-0.5V40.6z M62.7,41.8l-6,6.6l-10.4,0.9v-5.6l7.4-0.6l3.2-3.5V18.6l5.8-0.5V41.8z"/>
		<path d="M83.5,35.9l-3.9,0.3v2l3.1-0.3v2.8l-6.1,0.5v-4.8L74,36.7l2,1.1l-2.7,5l-2.4-1.3l2.6-4.7L70.9,37L70.8,37v6.4l12-1.1v4.1
			l-16.3,1.4V37.3l-1.2,0.1v-4.3l1.8-0.2V22.1l-1.6,0.1V18l1.6-0.1V16l4.6-0.4v1.9l5.3-0.5v-1.9l4.6-0.4v1.9l1.6-0.1v4.3l-1.6,0.1
			v10.9l1.7-0.1V35.9z M77.2,22.7v-1.5l-5.3,0.5v1.5L77.2,22.7z M77.2,27.5v-1.6l-5.3,0.5v1.6L77.2,27.5z M77.2,32.1v-1.6L71.9,31
			v1.6L77.2,32.1z M96.7,45.4L90.2,46v-4.9l2.1-0.2V22.6l-2,0.2l-2.2,23.4l-4.4,0l2.1-23l-2.1,0.2v-4.5l2.6-0.2l0.4-4.5l4.4,0.1
			l-0.4,4l6-0.5V45.4z"/>
		<path d="M128.4,31l-8.9,11.3L99.8,44v-6l17-1.5l5.6-7.2v-10l6-0.5V31z M113.4,21.1l-13.5,1.2v-5.7l13.5-1.2V21.1z M113.4,30.5
			l-13.5,1.2v-5.7l13.5-1.2V30.5z M123.4,17.3l-4.1,0.4v-5.5l4.1-0.4V17.3z M129.6,16.8l-4.1,0.4v-5.5l4.1-0.4V16.8z"/>
		<path d="M160.7,38.7l-6.3,0.6l-0.9-3.3l-6.3,4l-16.7,1.5v-6l8.3-23.4l6.4-0.6l-8.4,23.4l9.6-0.8l5.6-3.3l-1.9-6.9l6.1-0.5
			L160.7,38.7z"/>
		<path d="M192.3,13l-3.5,0.3v5.4l-18.9,1.7v11.6l21.8-1.9v6l-27.8,2.4V9.8l6-0.5v5l11.1-1V6.8l4.7-0.4v6.5l2-0.2V6.2l4.7-0.4V13z"
			/>
		<path d="M220.5,22.3l-27.3,2.4v-6.2l27.3-2.4V22.3z"/>
		<path d="M253,30.6l-6.3,0.6l-0.9-3.3l-6.3,4l-16.7,1.5v-6l8.3-23.4l6.4-0.6l-8.4,23.4l9.6-0.8l5.6-3.3l-1.9-6.9l6.1-0.5L253,30.6z
			"/>
		<path d="M261.3,21.8l-5.4,0.5V0.5l5.4-0.5V21.8z M261.4,30.5l-5.4,0.5v-5.4l5.4-0.5V30.5z"/>
	</g>
</g>
<polygon points="261.1,43 0,65.9 0,71.2 261.1,48 "/>
</svg>