<!-- Generator: Adobe Illustrator 23.0.0, SVG Export Plug-In  -->
<svg version="1.1" xmlns="http://www.w3.org/2000/svg" xmlns:xlink="http://www.w3.org/1999/xlink" x="0px" y="0px" width="653.4px"
	 height="20.3px" viewBox="0 0 653.4 20.3" style="enable-background:new 0 0 653.4 20.3;" xml:space="preserve">
<style type="text/css">
	.text_low_pc_svg{fill:#EA571E;}
</style>
<defs>
</defs>
<path class="text_low_pc_svg" d="M0.2,17.1c3.7-1.9,5.6-5.8,7.2-11.3l-3.1,0C3.2,8.3,2,10.1,1.1,11.1l-1.1-1c2.1-2,3.6-5.1,4.5-8.3
	c1.1,0.5,1.4,0.6,1.4,0.8c0,0.1-0.2,0.2-0.3,0.2c0,0,0,0-0.1,0c-0.2,0.5-0.3,1-0.5,1.4c1.2,0,2.9,0,3-0.1c0.1,0,0.2-0.2,0.3-0.2
	c0.1,0,0.9,1,0.9,1.3c0,0.2-0.1,0.3-0.3,0.3c-1.8,6-3.7,10.5-7.4,12.8L0.2,17.1"/>
<path class="text_low_pc_svg" d="M24.9,17.7c3.4-1.6,4.2-4,4.2-10.4c0-0.8,0-3.8,0-5.1c0,0,0.8,0,1.3,0.1c0.2,0.1,0.2,0.2,0.2,0.3
	c0,0.2-0.1,0.4-0.4,0.4c0,0.6,0,1,0,1.5c0,0.2,0,0.4,0,0.7c0,0.6,0,1.5,0,1.8c0,0.2,0,0.4,0,0.6c0,6.4-1,9.3-4.2,11.5L24.9,17.7
	 M25,5c0,0,0-0.3,0-0.7c0-0.6,0-1.5,0-2c1.4,0,1.5,0.2,1.5,0.4c0,0.2-0.2,0.4-0.4,0.4C26,3.8,26,5,26,5v7.4H25V5z"/>
<path class="text_low_pc_svg" d="M45,16.6c3.9-2.7,5.5-7.3,6.5-10.9l-4.9,0V4.1L52,4.1c0.1,0,0.2-0.1,0.2-0.1c0,0,0.1,0,0.1,0.1
	c0.6,0.8,0.8,1,0.8,1.1c0,0.2-0.2,0.3-0.3,0.3c-0.5,1.6-1.1,3.5-1.9,5.5c1.1,1.4,2.8,3.8,3.8,5.7l-1,1.3c-0.9-2.1-2.3-4.3-3.3-5.8
	c-1.1,2.3-2.5,4.4-4.3,5.8L45,16.6"/>
<path class="text_low_pc_svg" d="M71.2,9.2c0.6,0.7,1.4,1.6,2.1,2.7c0.9-1.2,2.3-3.2,3.1-5.2l-7.8,0V5c7.9,0,8.4,0,8.5,0c0.1,0,0.2-0.1,0.2-0.1
	c0.1,0,0.9,1.1,0.9,1.4c0,0.2-0.1,0.3-0.3,0.4c-0.9,2.2-2.4,4.7-3.8,6.6c0.6,1,1.1,2,1.4,2.9l-0.9,1.4c-0.9-2.7-2.4-5.2-4.1-7.2
	L71.2,9.2"/>
<path class="text_low_pc_svg" d="M91.8,16.6c3.9-2.7,5.5-7.3,6.5-10.9l-4.9,0V4.1l5.4-0.1c0.1,0,0.2-0.1,0.2-0.1c0,0,0,0,0.1,0.1
	c0.6,0.8,0.8,1,0.8,1.1c0,0.2-0.2,0.3-0.3,0.3c-0.5,1.6-1.1,3.5-1.9,5.5c1.1,1.4,2.8,3.8,3.8,5.7l-1,1.3c-0.9-2.1-2.3-4.3-3.3-5.8
	c-1.1,2.3-2.5,4.4-4.3,5.8L91.8,16.6"/>
<path class="text_low_pc_svg" d="M116.9,18.4c-0.4-1.5-0.6-3.2-0.6-4.9c0-0.4,0-0.8,0-1.2c0.1-4.2,0.7-7,0.8-9.8c0-0.1,0-0.1,0.1-0.1
	c0.1,0,1.1,0.5,1.2,0.5c0.1,0.1,0.2,0.2,0.2,0.3c0,0.1-0.1,0.2-0.4,0.3c-0.2,1.4-0.8,5.3-1,8.2c0,0.1,0,0.6,0,1.1
	c0,0.2,0,0.9,0.1,0.9c0.1,0,1-3.8,1-4.1c0,0,0.2,0.9,0.4,1.6c-0.2,1.2-0.6,2.8-0.8,4c-0.1,0.2-0.1,1-0.1,1.9c0,0.3,0,0.7,0.1,1
	c0,0,0,0,0,0.1c0,0,0,0.1-0.1,0.1L116.9,18.4 M120.7,13.2c-0.3,0.7-0.4,0.7-0.4,0.9c0,0.7,0.9,1.5,2.3,1.5c0.8,0,1.7-0.3,2.6-0.9
	l-0.2,2c-0.9,0.4-1.7,0.6-2.4,0.6c-2,0-3.3-1.5-3.3-3.1c0-0.1,0-0.9,0.5-1.6L120.7,13.2z M119.9,4.8c0.5,0.3,1.1,0.4,1.8,0.4
	c0.9,0,2-0.2,2.9-0.6v1.8c-0.6,0.2-1.7,0.4-2.7,0.4c-0.8,0-1.6-0.1-2.1-0.4L119.9,4.8z"/>
<path class="text_low_pc_svg" d="M139.7,16.9c1.9-1.9,2.9-5.5,2.9-9.1c0-0.1,0-0.2,0-0.3c0,0,0-0.5,0-1.1c0-0.7,0-1.6,0-2.1
	c1.1,0,1.4,0.2,1.4,0.4c0,0.1-0.1,0.3-0.3,0.4c0,0.9,0,1.7,0,2.2c0,0.1,0,0.2,0,0.3c0,5.2-1.4,8.6-2.7,10.3L139.7,16.9 M146,14.9
	c1.6-1.5,3.3-5.2,3.8-7.8l0.6,2.2c-0.9,2.6-2.5,6-4.5,7.7c0,0.2-0.1,0.3-0.1,0.3c-0.2,0-0.9-1.4-0.9-1.5c0-0.1,0.1-0.2,0.1-0.5
	c0-1.8,0.1-9.8,0.1-9.8c0-0.4,0-1.3,0-1.8c1.4,0.1,1.4,0.2,1.4,0.4c0,0.2-0.1,0.3-0.3,0.4c0,0.6,0,1.5,0,1.5L146,14.9z"/>
<path class="text_low_pc_svg" d="M165.2,13.3c2.1,0.6,5.2,1.7,6.8,3.1l-0.4,2.1c-2-2-4.8-3-6.9-3.5L165.2,13.3 M165.7,3.1
	c1.9,0.1,4.2,0.5,5.8,1.1l-0.3,1.9c-2-1.2-4-1.4-5.8-1.4L165.7,3.1z M165.9,8.1c1.7,0.2,3.7,0.7,5.1,1.5l-0.3,1.9
	c-1.6-1.1-3.5-1.6-5.1-1.8L165.9,8.1z"/>
<path class="text_low_pc_svg" d="M186.4,13.9c3.7-2.1,5.6-5.4,6.6-7.7l-5.1,0.1V4.7l3.2,0V3c0,0,0-1.2,0-1.8c1,0,1.5,0.1,1.5,0.4
	c0,0.2-0.2,0.4-0.4,0.4c0,0.3,0,0.8,0,1.3c0,0.4,0,0.9,0,1.2l1.6,0c0.1,0,0.2-0.2,0.3-0.2c0.2,0,0.8,1.1,0.8,1.3
	c0,0.2-0.2,0.2-0.3,0.3c-0.5,1.2-1.3,2.7-2.3,4.2l0,9.1H191l0.1-7.7c-1.1,1.4-2.3,2.6-3.7,3.5L186.4,13.9 M193.3,10
	c0.6,0.4,2.4,2.2,3.2,3.6l-0.8,1.4c-0.9-1.8-2.4-3.3-3.1-3.8L193.3,10z"/>
<path class="text_low_pc_svg" d="M210.1,18.1c1.2-3.3,2.3-6.7,3-9.9c-0.2,0.1-0.4,0.2-0.6,0.2c-0.7,0.3-1.3,0.4-1.7,0.4c-0.1,0-0.1,0-0.2,0
	l-0.3-1.6c0-0.1,0-0.1,0-0.1c0-0.1,0-0.1,0.1-0.1c0,0,0,0,0,0c0.3,0.1,0.6,0.1,0.9,0.1c0.6,0,1.6-0.3,2.1-0.4
	c0.3-1.4,0.6-3.2,0.6-4.7c0,0,0.9,0.2,1.2,0.4c0.2,0.1,0.2,0.2,0.2,0.3c0,0.1-0.2,0.3-0.4,0.3c-0.1,0.6-0.3,2.1-0.6,3.3l0.3-0.1
	c0.1,0,0.3-0.1,0.4-0.1c1.3,0,1.7,1.8,1.7,4.2c0,6.6-1.7,7.7-2.8,7.7c-0.5,0-0.9-0.2-1.3-0.8l-0.1-2.3c0.4,0.8,1,1.2,1.5,1.2
	c0.6,0,1.1-0.6,1.4-1.8c0.2-1,0.4-2.8,0.4-4.2c0-1.6-0.2-2.6-0.9-2.6c-0.1,0-0.5,0.1-0.8,0.2c-0.8,3.4-1.8,6.6-3,10.5L210.1,18.1
	 M218.3,6.2c1.6,1.6,2.7,3.8,2.9,5.9l-0.9,0.8c0,0-0.1,0-0.1,0c0,0,0,0,0-0.1c-0.2-2-0.9-4.2-2.7-5.7c0,0-0.1-0.1-0.1-0.1
	c0-0.1,0-0.1,0.1-0.1L218.3,6.2z M218.6,2.9c0.5,0.3,1.3,1.1,1.7,1.9L219.7,6c-0.4-0.8-1.1-1.6-1.6-2.1L218.6,2.9z M219.6,1.3
	c0.4,0.3,1.3,1.1,1.6,1.7l-0.5,1.2c-0.4-0.7-1.1-1.5-1.6-1.9L219.6,1.3z"/>
<path class="text_low_pc_svg" d="M234.1,19.4c1.1-1.6,1.5-3.9,1.6-4.6c0,0,0.7,0.3,1,0.6c0.1,0.1,0.1,0.2,0.1,0.3c0,0.2-0.1,0.3-0.3,0.3
	c0,0-0.1,0-0.1,0c-0.2,1.1-0.7,2.7-1.3,3.9L234.1,19.4 M235.2,1.1h3.1v13.3h-0.8v-0.5h-1.6v0.5h-0.8V1.1z M235.9,4.9h1.6V2.5h-1.6
	V4.9z M235.9,8.6h1.6V6.3h-1.6V8.6z M235.9,12.5h1.6v-2.4h-1.6V12.5z M237.7,14.8c0,0,0.5,2.5,1.4,4.1l-0.9,0.7
	c-0.7-1.5-1.2-4.2-1.2-4.2L237.7,14.8z M239.2,3.3h1.5c-0.2-1.1-0.8-2.3-0.8-2.3l0.8-0.4c0,0,0.6,1.3,0.9,2.3l-0.7,0.4h1.8
	c0.4-1.1,0.7-2.9,0.7-2.9s0.8,0.3,1.1,0.5c0.1,0.1,0.2,0.2,0.2,0.3c0,0.1-0.1,0.2-0.3,0.2c0,0-0.1,0-0.1,0c0,0.3-0.3,1.1-0.6,1.9
	h1.7v7.8h-0.8v-0.8h-4.5v0.9h-0.8V3.3z M239.7,11.8h4.9v8h-0.9v-1h-3.2v1.2h-0.8V11.8z M239.9,6.1h1.7V4.4h-1.7V6.1z M239.9,9h1.7
	V7.3h-1.7V9z M240.6,14.7h3.2v-1.6h-3.2V14.7z M240.6,17.5h3.2v-1.6h-3.2V17.5z M242.5,6.1h1.9V4.4h-1.9V6.1z M242.5,9h1.9V7.3h-1.9
	V9z"/>
<path class="text_low_pc_svg" d="M259.6,13C259.6,13,259.6,13,259.6,13c0-0.1,0-0.2,0-0.2c0.9-1.5,1.8-2.6,2.1-3.2c1.8-3.1,3.2-5.5,3.2-5.6
	c0,0,0,0,0,0c0,0-0.1,0-0.1,0.1c-1.1,0.7-2,1.1-3,1.1c-0.1,0-0.1,0-0.2,0l-0.4-1.6c0,0,0-0.1,0-0.1c0,0,0-0.1,0.1-0.1c0,0,0,0,0,0
	c0.3,0.1,0.6,0.1,0.8,0.1c1.1,0,2.1-0.4,3.2-1c0.1-0.1,0.2-0.2,0.3-0.2c0.1,0,0.7,0.8,0.9,1c0,0.1,0.1,0.1,0.1,0.2
	c0,0.1-0.1,0.2-0.3,0.3c-3.5,5.6-3.5,5.6-3.5,5.7c0,0,0,0,0,0s0.1-0.1,0.1-0.1c0.9-0.6,1.6-0.8,2.2-0.8c1.6,0,3,1.5,3,4
	c0,2.9-1.7,5.8-4.2,5.8c-1.2,0-2.8-0.9-2.8-2.8c0-1,0.5-2.2,1.7-2.2c1.1,0,2,1.2,2,3c0,0.1,0,0.2,0,0.3c1.4-0.6,2.3-2.3,2.3-3.9
	c0-2.1-1-2.8-2-2.8c-0.3,0-0.6,0.1-0.8,0.1c-1.9,0.5-2.8,2.1-3.6,3.8L259.6,13 M263.7,16.5c0-1-0.4-1.8-1.2-1.8
	c-0.3,0-0.7,0.1-0.7,0.8c0,1,1.1,1.3,1.7,1.3c0.1,0,0.1,0,0.2,0C263.7,16.8,263.7,16.6,263.7,16.5z"/>
<path class="text_low_pc_svg" d="M283.1,14.6c0.8,0.8,2.2,2.6,2.8,3.8L285,20c-0.7-1.6-1.8-3.3-2.6-4.2L283.1,14.6"/>
<path class="text_low_pc_svg" d="M307.8,17.7c3.4-0.3,4.9-3,4.9-5.8c0-1.8-0.8-3-1.7-3.4c-0.6,2.2-1.5,4.3-2.5,6c0.1,0.4,0.2,0.8,0.4,1.2l-1,0.5
	c0-0.2-0.1-0.3-0.2-0.5c-0.9,1.3-1.6,2-2.2,2c-0.7,0-1.3-1.1-1.3-2.7c0-2.7,1.7-5.4,3-6.7c0-0.9,0.1-1.8,0.1-2.7
	c-0.4,0.1-0.7,0.1-1,0.1c-0.6,0-1.1-0.2-1.5-0.5c0,0,0-1.4,0-1.6c0,0,0,0,0,0c0-0.1,0-0.2,0-0.2c0,0,0,0,0.1,0
	c0.6,0.5,1,0.7,1.6,0.7c0.2,0,0.4,0,0.8-0.1c0-0.8,0-1.5,0-2.3c0-0.2,0-0.3,0-0.5c0,0,0.8,0.1,1.1,0.1c0.2,0.1,0.2,0.2,0.2,0.3
	c0,0.2-0.1,0.3-0.3,0.4c0,0.5-0.1,1.1-0.1,1.8c1.3-0.4,2.6-1,3.6-1.6l0.1,1.7c-1.2,0.6-2.5,1.1-3.8,1.5c0,0.7-0.1,1.5-0.1,2.3
	c1.2-0.8,2-0.8,2.1-0.8c0,0,0-0.1,0-0.2c0.1-0.8,0.1-0.9,0.1-1.2c0.7,0.2,1.2,0.4,1.2,0.6c0,0.1-0.1,0.2-0.3,0.2
	c0,0.2-0.1,0.5-0.1,0.7c1.1,0.5,2.5,1.9,2.5,4.9c0,3.9-2,6.5-5,7.2L307.8,17.7 M307.1,11.1c0-0.4,0-0.7,0-1.1c-0.9,1.1-2,3.3-2,4.8
	c0,1.2,0.4,1.2,0.5,1.2c0.4,0,1.1-0.9,1.8-1.9C307.2,13,307.1,12,307.1,11.1z M309.8,8.3c-0.6,0.1-1.2,0.4-1.8,0.9c0,0.8,0,1.4,0,2
	c0,1,0.1,1.6,0.1,1.7c0.8-1.4,1.5-3.1,1.9-4.6H309.8z"/>
<path class="text_low_pc_svg" d="M327.8,18.1c0.8-3.3,2.2-9.4,2.6-12.1c-0.1,0-0.7,0.2-1.3,0.2c-0.4,0-0.7-0.1-1-0.3l-0.2-1.7c0,0,0-0.1,0-0.1
	c0,0,0-0.1,0-0.1c0,0,0,0,0,0c0.5,0.3,1,0.5,1.5,0.5c0.2,0,0.5,0,0.7-0.1c0.1,0,0.3-0.1,0.5-0.1c0.1-1,0.2-1.9,0.2-3.2
	c0,0,0.7,0.1,1.1,0.2c0.2,0.1,0.3,0.2,0.3,0.3c0,0.2-0.1,0.3-0.4,0.4c-0.1,0.6-0.1,1.3-0.2,1.9c0.6-0.2,1.1-0.5,1.7-0.8l0,1.8
	c-0.6,0.2-1.2,0.4-1.9,0.7c-0.4,2.5-1.8,9-2.5,12.6L327.8,18.1 M333.2,13.8c-0.2,0.3-0.2,0.6-0.2,0.9c0,1.1,1.2,1.7,2.4,1.7
	c0.6,0,1.2-0.1,1.9-0.5l-0.3,2c-0.5,0.2-1,0.2-1.4,0.2c-2,0-3.5-1.6-3.5-3.2c0-0.4,0.1-0.9,0.3-1.3L333.2,13.8z M333.4,6.8
	c0.5-0.1,1.1-0.1,1.6-0.1c1,0,1.9,0.2,2.3,0.6L337,9c-0.5-0.5-1.4-0.8-2.3-0.8c-0.5,0-0.9,0.1-1.4,0.2L333.4,6.8z"/>
<path class="text_low_pc_svg" d="M352.9,16.6c0.3,0,0.6,0.1,1,0.1c3.8,0,5-2.6,5-4.4c0-1.2-0.6-2.2-1.8-2.2c-2.1,0-3.6,2.9-3.8,3.5l-0.9,0.1
	c0,0,0,0,0,0c0,0-0.1,0-0.1-0.2c0-1.7,0.2-3.9,0.4-5.7c0.1-1.1,0.2-2.1,0.2-2.7c0-0.1,0-0.2,0.1-0.2l0.9,0.6
	c-0.1,1.3-0.6,4.6-0.6,5.7c0.8-1.1,2.3-2.6,4-2.6c1.8,0,2.7,1.7,2.7,3.7c0,2.7-1.7,6.1-6.1,6.1c-0.1,0-0.2,0-0.3,0L352.9,16.6
	 M353.3,2.2c0.3,0,0.6,0,1,0c1.1,0,2.2,0.1,3,0.4l-0.3,1.9c-0.8-0.5-2-0.7-3.2-0.7c-0.3,0-0.6,0-0.9,0L353.3,2.2z"/>
<path class="text_low_pc_svg" d="M383.3,14.3c-0.9,2-2.9,4.5-4.7,4.5c-2.7,0-2.8-3.5-2.8-5.9c0-2.7,0.2-5.8,0.2-8.8c0-0.5,0-1.1,0-1.6
	c0.2,0,1,0.1,1.3,0.2c0.2,0,0.2,0.2,0.2,0.3c0,0.2-0.1,0.4-0.4,0.5c-0.1,3.3-0.4,7.1-0.4,9.6c0,2.6,0.3,4,1.8,4
	c2.1,0,3.8-3.8,4.3-4.8L383.3,14.3"/>
<path class="text_low_pc_svg" d="M402.7,14c-0.8,2.5-1.4,3.2-2.1,3.2c-0.3,0-0.5-0.2-0.8-0.4c-1.7-1.5-1.9-4.8-2-7.5c0-2.8,0-3.3,0-4.2
	c0-0.1,0-0.1,0.1-0.1c0,0,0,0,0.1,0c0,0,0.8,0.1,1.1,0.2c0.1,0,0.2,0.2,0.2,0.3c0,0.1-0.1,0.3-0.3,0.3c0,1,0,2.6-0.1,3.5
	c0,0.3,0,0.5,0,0.7c0,2.3,0.3,4.1,1.3,5c0.1,0.1,0.2,0.1,0.3,0.1c0.5,0,0.8-1.1,1.4-3.6L402.7,14 M406.6,14.8
	C406.6,14.8,406.5,14.9,406.6,14.8c-0.1,0-0.1,0-0.1-0.1c0,0,0,0,0,0c0-0.1,0-0.2,0-0.3c0-3-1-6.7-2.4-9l1-0.5
	c1.4,2.1,2.6,6.2,2.6,9c0,0.1,0,0.1,0,0.2L406.6,14.8z"/>
<polyline class="text_low_pc_svg" points="425.5,0 429,0 429,1.5 426.4,1.5 426.4,18.8 425.5,18.8 425.5,0 "/>
<path class="text_low_pc_svg" d="M444.5,9.2c0.6,0.7,1.4,1.6,2.1,2.7c0.9-1.2,2.3-3.2,3.1-5.2l-7.8,0V5c7.9,0,8.4,0,8.5,0c0.1,0,0.2-0.1,0.2-0.1
	c0.1,0,0.9,1.1,0.9,1.4c0,0.2-0.1,0.3-0.3,0.4c-0.9,2.2-2.4,4.7-3.8,6.6c0.6,1,1.1,2,1.4,2.9l-0.9,1.4c-0.9-2.7-2.4-5.2-4.1-7.2
	L444.5,9.2"/>
<path class="text_low_pc_svg" d="M467.3,13.1c-0.2-1.6-0.7-3.4-1.1-4.4L467,8c0.4,0.9,1,2.9,1.1,4.2L467.3,13.1 M467.1,17.8
	c2.7-1.5,4.5-4.9,4.7-10.4c0,0,0.6,0.2,1,0.3c0.1,0,0.2,0.1,0.2,0.3c0,0.2-0.2,0.3-0.3,0.4c-0.5,5.6-2.1,8.7-4.7,10.7L467.1,17.8z
	 M469.3,12.1c-0.1-1.7-0.6-3.4-0.9-4.6l0.9-0.5c0.4,1,0.8,3,1,4.3L469.3,12.1z"/>
<path class="text_low_pc_svg" d="M488.6,17c3.2-1,4.1-4,4.2-7.1h-4.6V8.2h4.6c0-0.8,0-2.2,0-2.8V5c-1.1,0.2-2.3,0.3-3.3,0.3l-0.7-1.7
	c0.3,0,0.6,0,1,0c2,0,4.5-0.3,6-1.3c0,0,0.4,0.7,0.7,1.6c0,0.1,0,0.2,0,0.2c0,0.1,0,0.2-0.1,0.2c-0.1,0-0.2-0.1-0.3-0.3
	c-0.7,0.3-1.5,0.5-2.2,0.7c0,1.2,0,2.5,0,3.4h3.9v1.7h-3.9c-0.1,4.2-1.5,7.3-4.3,8.6L488.6,17"/>
<path class="text_low_pc_svg" d="M511.4,18.3c3.6-0.7,4-3.3,4-5.4c0-1,0-1.6-0.1-1.7c0.1,0,0.9,0.1,1.1,0.1c0.2,0,0.3,0.1,0.3,0.2
	c0,0.1-0.1,0.3-0.3,0.3c0,0.3,0,0.5,0,1c-0.1,2.9-0.7,5.6-4,6.9L511.4,18.3 M512.9,5.7h3.8V4h-4.4V2.5h4.4V2c0,0,0-0.7,0-1.4
	c0.5,0,1.4,0.1,1.4,0.5c0,0.1-0.1,0.3-0.4,0.4c0,0.2,0,0.5,0,0.8v0.2h4.6V4h-4.6v1.7h4v1.5h-8.8V5.7z M512.3,8.9h9.9v4.4h-1v-2.9h-8
	v2.8h-0.9V8.9z M517.9,12.6c0,0,0-0.6,0-1.4c0.1,0,1,0.1,1.1,0.2c0.2,0,0.2,0.1,0.2,0.3s-0.1,0.3-0.3,0.3c0,0.3,0,0.4,0,0.9v4.1
	c0,0.8,0.4,0.9,1.2,0.9c1.3,0,1.7-0.2,1.7-3.6l1,1.4c-0.2,3.1-0.7,3.8-2.8,3.8c-0.4,0-0.7,0-1-0.1c-0.4-0.1-1-0.7-1-1.9V12.6z"/>
<path class="text_low_pc_svg" d="M538.1,17.6c2.8-1.2,4.2-3.7,4.3-8.3c0-0.7,0-5.6-1.4-5.6c-1.1,0-2.1,3.9-2.1,6.8c0,0.8,0.1,1.2,0.2,1.7
	l-0.9,0.8c0,0,0,0,0,0c-0.1,0-0.3-1.9-0.3-3.3c0-0.3,0-0.6,0-0.9c0.1-3.1,0.5-4.8,0.6-7.6c0-0.1,0-0.2,0-0.2c0.2,0,1,0.3,1,0.3
	c0.2,0.1,0.3,0.2,0.3,0.3c0,0.1-0.1,0.3-0.4,0.3c-0.1,1.1-0.4,2.3-0.4,3.2c0,0.1,0,0.1,0,0.1c0,0,0,0.1,0,0.1c0,0,0-0.1,0.1-0.2
	c0.3-1.1,0.9-3.1,2.2-3.1c0.8,0,1.6,1,1.9,2.8c0.2,1.2,0.4,3.2,0.4,4.2c0,1.8-0.1,7.4-4.2,9.6L538.1,17.6"/>
<path class="text_low_pc_svg" d="M562.5,16.6c2.4-0.3,5.1-2.1,5.1-6.6c0-2.2-1-5-3.2-5.2c0,0.3,0,0.6,0,0.9c0,3.9-1.7,8.1-2.4,9.5
	c-0.4,0.8-0.8,1.2-1.2,1.2c-0.9,0-1.9-2.2-1.9-4.6c0-4,2.3-8.4,5.2-8.4c2.6,0,4.5,3,4.5,6.7c0,4.9-2.6,7.6-5,8.3L562.5,16.6
	 M559.8,11.6c0,1.7,0.6,2.8,0.9,2.8c0.2,0,0.3-0.2,0.5-0.5c0.8-1.5,2.1-5.1,2.1-8.2c0-0.3,0-0.5,0-0.8
	C561.5,5.5,559.8,8.8,559.8,11.6z"/>
<path class="text_low_pc_svg" d="M582.7,11c1.7-2.5,2.5-5.8,2.7-7.6c0,0,0.6,0.3,1.1,0.6c0.2,0.1,0.2,0.2,0.2,0.3c0,0.2-0.2,0.3-0.4,0.3
	c-0.6,2.4-1.4,4.9-2.4,6.8L582.7,11 M582.8,18c0.1,0,0.1,0,0.1,0c4.6,0,7.5-3.3,8-9.2c0,0,0.8,0.4,1.2,0.8c0.2,0.1,0.2,0.3,0.2,0.4
	c0,0.2-0.2,0.3-0.4,0.3c0,0-0.1,0-0.1,0c-0.8,4.9-3.1,8.9-8,9.4L582.8,18z M585.6,11.5c0.3,0.1,0.8,0.2,1.3,0.2
	c0.5,0,0.9-0.2,0.9-0.9V2.3c0,0,0-0.8,0-1.7c0,0,0.6,0,1.2,0.2c0.2,0.1,0.3,0.2,0.3,0.3c0,0.2-0.2,0.4-0.4,0.4c0,0.3,0,0.6,0,0.8
	c0,0.1,0,0.2,0,0.2v6.4c0,1.1,0,1.9,0,2c0,2.3-1.1,2.6-2.1,2.6c-0.2,0-0.4,0-0.5,0L585.6,11.5z M591.1,3.3c0.6,1.6,1.9,4.6,3.4,6.2
	c0,0-1.2,1.1-1.2,1.1c-0.9-1.1-2.5-4.9-3-6.6L591.1,3.3z"/>
<path class="text_low_pc_svg" d="M607.4,18c3.1-0.1,4.8-1.8,5.9-3.8c-1-0.7-2-1-2.6-1.2c-0.1,0.5-0.2,1-0.4,1.4l-1-0.4c0.6-2,1.1-4.6,1.5-7h-3.2
	V5.4h3.5c0.3-2.4,0.5-4.3,0.6-4.9c0,0,0.7,0.1,1.2,0.3c0.1,0,0.2,0.2,0.2,0.3c0,0.2-0.1,0.3-0.5,0.4c-0.1,0.4-0.2,1.9-0.5,3.9h6.5
	v1.6h-2.5c-0.2,2.6-0.5,4.7-1.2,6.6c1.1,0.9,2.3,2.2,3.4,4.2l-0.7,1.8c-1-2.1-2.1-3.6-3.2-4.5c-1.1,2.3-2.9,4.2-6,4.8L607.4,18
	 M611.8,7.1c-0.2,1.5-0.5,3.1-0.8,4.6c0.6,0.2,1.7,0.5,2.8,1.3c0.3-1,0.9-2.7,1-5.9H611.8z"/>
<polyline class="text_low_pc_svg" points="631.9,18.8 634.5,18.8 634.5,1.5 635.5,1.5 635.5,20.3 631.9,20.3 631.9,18.8 "/>
<path class="text_low_pc_svg" d="M651.7,13.6c1,0,1.8,1.4,1.8,3.1c0,1.7-0.8,3.1-1.8,3.1c-1,0-1.8-1.4-1.8-3.1C649.9,15,650.7,13.6,651.7,13.6
	 M652.7,16.7c0-1-0.4-1.7-1-1.7c-0.6,0-1,0.8-1,1.7c0,0.9,0.4,1.7,1,1.7C652.2,18.4,652.7,17.6,652.7,16.7z"/>
</svg>
