<svg xmlns="http://www.w3.org/2000/svg" viewBox="0 0 184.3 38.6"><defs><style>.cls-1{fill:#a3241d;}</style></defs><title>アセット 8</title><g id="レイヤー_2" data-name="レイヤー 2"><g id="レイヤー_1-2" data-name="レイヤー 1"><path class="cls-1" d="M35.05,7.3c.1,6.55-5.8,11.8-11.65,13.8l4.85-10.9L0,10.25l2.75-7.6,1.7,2.2h26.2l.7-1.65,3.7,3.7ZM18.6,26.7c0,9.25-6.75,11.9-15.1,11.9,3.55-2.3,9.25-7.5,9.25-12.25V14l5.85,5.25Z"/><path class="cls-1" d="M83.55,7.7c-1.2,5.85-5,20.6-9.5,25.05-3.85,3.85-11.5,5.3-16.65,5.3A32.74,32.74,0,0,1,53,37.8c2.85-1.35,13.55-6.65,15.6-9.15C71.9,24.6,74.4,17.5,76,12.5H61.75a22.49,22.49,0,0,1-12.15,12L59.2,0,64,3.45a20.83,20.83,0,0,1-.65,4.25H77.4L78,5.55Z"/><path class="cls-1" d="M135.5,11.9c.1,6.8-7.2,10.65-13.15,11.55l4.65-7.1H114.5v13.1c0,2.3,1.35,2.65,3.4,2.65h14.85l-2.05,5.4a37.38,37.38,0,0,1-6.65.6c-3.7,0-11.2-1.15-14-4-2.45-2.4-2.5-9.4-2.5-12.65,0-1.75,0-3.45.1-5.15H96.45L99,9.1l1.65,2.15H108c.3-3.7.7-7.45,1.2-11.1L114.5,1.5v9.75h15.75l1.45-2.2Z"/><path class="cls-1" d="M181.55,37.5l-10.3-9.35a27.26,27.26,0,0,1-19.75,9.4c-.7,0-1.45,0-2.15-.1,2.8-1.9,14-9.5,15.9-12.3,2.4-3.4,4.35-10.2,5.45-14.3l-20,.05,2.85-8,1.85,2.4H172.2l.5-2.3,6,2.55c-.6,6.5-2.85,16.35-6.8,21.8a14.3,14.3,0,0,1,11.35,3.6,3.44,3.44,0,0,1,1.05,2.45C184.3,35.1,182.9,36.55,181.55,37.5Z"/></g></g></svg>