<?xml version="1.0" encoding="UTF-8"?><svg id="uuid-a54d096c-5f53-4466-a8d4-7d3f23dadb15" xmlns="http://www.w3.org/2000/svg" viewBox="0 0 352 352"><defs><style>.uuid-5cabca70-e6af-4ce2-8935-04f3eb303f0b{fill:#fff;}.uuid-fbbe11b5-104e-419c-a11e-d8b4c9d4ad4e{fill:none;stroke:#fff;stroke-miterlimit:10;stroke-width:8px;}</style></defs><circle class="uuid-fbbe11b5-104e-419c-a11e-d8b4c9d4ad4e" cx="176" cy="176" r="172"/><path class="uuid-5cabca70-e6af-4ce2-8935-04f3eb303f0b" d="m153.63,98.42v-1.14c-.85.78-1.74,1.51-2.67,2.19h12v9.33h-9.69c-.06.39-.12.81-.21,1.2h10.35v8.07h-3.09v-.84h-5.07v.93h-3v-5c-.51,1.58-1.29,3.07-2.31,4.38-.68-.82-1.46-1.53-2.34-2.13,2.64-3.45,3-8.25,3-11.64v-4.08c-.33.21-.66.45-1,.66-.57-.95-1.29-1.8-2.13-2.52,3.1-1.75,5.69-4.27,7.53-7.32h3.18c2.21,1.65,4.31,3.46,6.27,5.4l-2.28,2.64c-.42-.48-1-1.08-1.59-1.74v1.56l-6.95.05Zm6.12,7.89v-1.14h-6.18c0,.36,0,.75-.06,1.14h6.24Zm-6.15-4.35v1.08h6.15v-1.08h-6.15Zm6.12-5.94c-.87-.84-1.8-1.71-2.67-2.4-.63.78-1.32,1.59-2.1,2.4h4.77Zm-4.47,16.53v2.13h5.07v-2.13h-5.07Zm12.84-1.83h-3.36v-16.92h3.36v16.92Zm6.66-19.92v23.16c0,2-.39,3-1.59,3.51s-3,.72-5.58.72c-.23-1.26-.62-2.48-1.17-3.63,1.8.06,3.54.06,4.11.06s.75-.18.75-.69v-23.13h3.48Z"/><path class="uuid-5cabca70-e6af-4ce2-8935-04f3eb303f0b" d="m196.47,111.38c2.94,1.68,6.16,2.79,9.51,3.27-.93.98-1.73,2.07-2.4,3.24-3.7-.93-7.14-2.66-10.08-5.09v5.4h-3.5v-5.2c-3,2.27-6.41,3.92-10.05,4.86-.64-1.08-1.41-2.09-2.28-3,3.33-.65,6.53-1.84,9.48-3.51h-8.61v-2.94h11.46v-1.32h-8.64v-2.58h8.64v-1.35h-10.15v-2.76h5.7c-.26-.81-.59-1.59-1-2.34l.36-.06h-6.27v-2.91h4c-.52-1.29-1.14-2.53-1.86-3.72l3.06-1c.91,1.33,1.67,2.74,2.28,4.23l-1.47.54h2.73v-4.94h3.33v4.89h2.22v-4.89h3.36v4.89h2.71l-1.08-.33c.77-1.38,1.4-2.84,1.89-4.35l3.75.9c-.84,1.38-1.65,2.73-2.34,3.78h3.9v2.91h-5.64c-.48.87-1,1.68-1.41,2.4h5.88v2.79h-10.45v1.35h9v2.58h-9v1.32h11.67v2.94h-8.7Zm-8.16-13.38c.4.74.73,1.51,1,2.31l-.51.09h5.61c.36-.72.72-1.59,1-2.4h-7.1Z"/><path class="uuid-5cabca70-e6af-4ce2-8935-04f3eb303f0b" d="m190.09,267.42h-10.26v6.38h-3.69v-6.42h-13.5v-3.38h4.74v-7.86h8.76v-3.6h-6.42c-1.12,1.99-2.49,3.82-4.08,5.46-.97-.84-2.01-1.61-3.09-2.31,2.93-2.73,5.1-6.18,6.3-10l3.63.93c-.28.84-.61,1.66-1,2.46h16.95v3.45h-8.61v3.6h7.92v3.3h-7.92v4.56h10.26v3.43Zm-14-3.42v-4.56h-5.09v4.56h5.09Z"/></svg>