<svg xmlns="http://www.w3.org/2000/svg"  viewBox="0 0 315 315">
  <g id="mv_img01" transform="translate(0.148 -18.052)">
    <circle id="楕円形_1" data-name="楕円形 1" cx="153.5" cy="153.5" r="153.5" transform="translate(3.852 22.052)" fill="none" stroke="#fff" stroke-miterlimit="10" stroke-width="8"/>
    <path id="パス_6" data-name="パス 6" d="M86.3,301.2,76.268,291.055l-4.185,4.14c-1.829,1.785-3.078,2.124-4.765,1.4s-3.569-2.552-6.148-5.2a16.579,16.579,0,0,0,1.785-4.247c1.785,1.972,3.935,4.131,4.461,4.693s1.017.625,1.535.116l4.131-4.087L63.1,277.724l2.98-2.945L76.1,284.925l3.007-2.945-8.272-8.423,2.927-2.891,8.3,8.4,3.007-2.971c-2.864-2.436-5.684-4.988-8.28-7.406a13.867,13.867,0,0,0,1.936-3.435c6.389,5.943,14,12.269,19.265,15.419l-.357,4.72a86.269,86.269,0,0,1-9.084-6.46l-3.364,3.319,8.53,8.655-2.927,2.891-8.53-8.637-3.007,2.971,10.029,10.154Z" transform="translate(-6.102 -26.122)" fill="#fff"/>
    <path id="パス_7" data-name="パス 7" d="M99.9,317.655c0-1.3-.152-3.293-.321-5.14a20.9,20.9,0,0,1-8.477,5.755A15.829,15.829,0,0,0,90,314.309c6.344-2.391,9.994-8.182,12.911-13.741l5.827-11.038,3.391,1.785-5.8,11.064-.089.161a62.1,62.1,0,0,0,4.917-5.166l2.07,2.266,1.606-3.069,6.3,3.3,1.633-3.105,3.569,1.892-1.633,3.105,6.657,3.489-1.642,3.132-6.657-3.489-1.606,3.07-3.569-1.892L119.49,303l-6.077-3.186.205.232c-2.133,1.731-4.515,3.873-6.166,5.086l-1.579-1.892a63.21,63.21,0,0,1-3.337,5.586c.4,1.883,1.106,6.451,1.294,7.576Zm-3.48-16.061c1.954-1.3,4.015-4.381,5.452-7.21l2.365,1.642c-1.437,3.043-3.632,6.3-5.907,7.915Zm20.425,25.876c.518.268.892-.08,2.347-2.766a11.725,11.725,0,0,0,2.4,2.971c-2.365,3.73-3.765,4.3-6.005,3.132l-2.329-1.222c-2.918-1.526-2.989-2.873-1.392-5.907l2.766-5.282-2.677-1.4c-2.953,4.685-5.729,7.138-12.287,5.782a10.154,10.154,0,0,0-.446-3.819c5.157,1.2,7.031-.428,9.146-3.846l-3.739-1.963,1.678-3.194,2.811,1.472,1.561-2.971-3.007-1.579,1.678-3.194,3.007,1.579,1.722-3.3,3.453,1.785-1.722,3.293,6.041,3.168,1.731-3.293,3.516,1.847-1.731,3.293,3.141,1.642-1.678,3.2-3.132-1.651-1.579,2.936,2.945,1.544-1.669,3.239-5.211-2.73-2.748,5.247c-.437.83-.446.99.1,1.276Zm-4.283-14.277,6.05,3.168,1.553-2.971-6.077-3.194Z" transform="translate(-9.207 -28.738)" fill="#fff"/>
    <path id="パス_8" data-name="パス 8" d="M144.266,326.494a10.709,10.709,0,0,0-1.446,3.266c-.375,2.2.892,3.971,5.523,4.765a52.262,52.262,0,0,0,9.458.821l-.892,4.461a63.7,63.7,0,0,1-9.191-.892c-6.585-1.133-10.252-4.069-9.414-8.923a18.74,18.74,0,0,1,1.678-4.658Zm20.9-3.221a41.309,41.309,0,0,1-5.693.482c.562,2.043,1.2,4.283,1.91,6.38l-2.561,2.311c-1.9-.7-5.184-1.785-7.486-2.5l.973-3.319c1.356.419,2.73.767,3.667,1.035l-1-3.944a89.438,89.438,0,0,1-15.526-2.445l.526-4.087a72.768,72.768,0,0,0,14.036,2.472l-.366-1.5-.518-2.133a71.515,71.515,0,0,1-12.108-2.231l.482-4.06a68.117,68.117,0,0,0,10.609,2.231h0a30.281,30.281,0,0,0-1.187-3.319l5.184-.1a31.737,31.737,0,0,0,.5,3.712,43.66,43.66,0,0,0,7.04-.473l.071,4.078a50.852,50.852,0,0,1-6.3.384l.419,1.642.509,1.927a39.1,39.1,0,0,0,6.6-.66Z" transform="translate(-14.397 -30.786)" fill="#fff"/>
    <path id="パス_9" data-name="パス 9" d="M183.43,314.016l5.354.357c-.178,1.08-.339,2.891-.375,3.694a88.071,88.071,0,0,1-1.517,11.118,49.276,49.276,0,0,1-3.881,10.957l-5.3-1.419a43.723,43.723,0,0,0,4.212-10.708A52.242,52.242,0,0,0,183.43,314.016Zm9.235-.178,4.542-2.186c1.856,2.588,5.077,7.718,6.871,11.011,1.731,3.043,4.461,8.5,5.907,11.912l-5.059,2.445a111.46,111.46,0,0,0-5.461-12.117,101.813,101.813,0,0,0-6.8-11.109Zm10.5-7.932a1.926,1.926,0,1,1,0-.045Zm.892,6.335a2.079,2.079,0,1,0-.562-4.113,2.07,2.07,0,1,0,.535,4.1Z" transform="translate(-18.654 -30.496)" fill="#fff"/>
    <path id="パス_10" data-name="パス 10" d="M229.261,307.276l-1.651,5.015a75.037,75.037,0,0,0-11.511-3.114l1.49-4.729a76.291,76.291,0,0,1,11.671,2.828Zm5.077,10.511A34.282,34.282,0,0,0,240.1,299.46l4.738,3.364a38.369,38.369,0,0,1-6.246,17.846,39.018,39.018,0,0,1-9.86,10.4l-4.8-2.98A37.244,37.244,0,0,0,234.338,317.788Z" transform="translate(-22.789 -29.807)" fill="#fff"/>
    <path id="パス_11" data-name="パス 11" d="M285.8,286.494l2.329,2.472L269,307.052l-2.338-2.463,7.95-7.522-1.713-1.785-6.184,5.862-2.338-2.472,6.193-5.853-1.428-1.526c-2.365,2.445-4.542,4.658-6.335,6.5l-2.436-2.32,2.677-2.677c-.205-.946-.455-2-.7-3.007l-4.1,3.873c3.89,4.461,8.173,10.324,9.235,15.972a16.817,16.817,0,0,0-4.292,1.026c-1.222-6.5-6.6-12.6-10.547-16.766l-7.138-7.585,19.916-18.836,6.3,6.665-16.784,15.883.892.892.223.232,17.5-16.552,2.311,2.436-3.935,3.721a39.639,39.639,0,0,1,7.522-.348l-1.089,4.06a17.626,17.626,0,0,0-2.418-.152l-3.864,3.962,1.535,1.624L279.854,284l2.329,2.472-6.246,5.952,1.713,1.785Zm-34.8-.607,1.544,1.624,13.643-12.9-1.5-1.624Zm14.83.642c.169,1.026.321,2.079.446,3.052l5.024-5.05a21.416,21.416,0,0,0-2.231.223l.482-1.785Z" transform="translate(-25.957 -26.362)" fill="#fff"/>
    <path id="パス_12" data-name="パス 12" d="M69.914,89.67s.946.7,1.347,1.053c6.317,5.149,8.816,7.433,9.146,8.923a3.739,3.739,0,0,1-.419,3.087,30.8,30.8,0,0,1-2.543,3.569,10.653,10.653,0,0,0-4.078-1.49c.982-1.062,1.785-2.133,2.186-2.614a1.553,1.553,0,0,0,.384-1.276c-.214-.732-1.642-2.168-5.416-5.273l-3.453,4.658c4.033,3.908,6.549,8.031,5.086,14.58a11.466,11.466,0,0,0-3.569-.134l10.083,7.567-4.685,6.246,2.3,1.722-2.5,3.4L51.06,116.733l7.228-9.672,9.744,7.272c1.035-4.809-.794-7.736-3.569-10.493l-2.98,3.971-3.275-2.445Zm-13.1,26.082L62.1,119.7l2.24-2.962-5.3-3.98Zm16.231,7.442-5.55-4.14-2.213,3.034,5.55,4.149Zm-.089-8.1,10.761-14.419,12.644,9.44-2.677,3.614-1.151-.892L87.01,120.3l1.276.892-2.561,3.426Zm5.773-1.035L83.8,117.84l5.505-7.352L84.235,106.7Z" transform="translate(-5.013 -7.211)" fill="#fff"/>
    <path id="パス_13" data-name="パス 13" d="M100.188,83.805c2.088.482,7.085,2.034,8.334,2.463l-.187,4.542c-1.294-.7-3.328-1.669-5.354-2.516l7.433,11.841-3.855,2.418L99.421,91.131a33.488,33.488,0,0,1,.321,10.484,20,20,0,0,0-4.176-2.391,34.032,34.032,0,0,0-.491-12.965l-4.818,3-2.213-3.569,5.711-3.569-2.605-4.14c-1.41,1.24-2.811,2.436-4.167,3.569A15.553,15.553,0,0,0,84.1,79.192,68.046,68.046,0,0,0,94.147,69.047l4.337,1.437a48.543,48.543,0,0,1-3.935,4.345l3.078,4.908,4.649-2.918,2.222,3.569L99.84,83.306ZM111.859,61.73l15.8,25.225-3.953,2.472-1.445-2.3-5.131,3.212,1.588,2.534-3.757,2.356L99.028,69.778Zm8.111,21.656L110.208,67.86l-5.131,3.221,9.762,15.562Z" transform="translate(-8.572 -4.202)" fill="#fff"/>
    <path id="パス_14" data-name="パス 14" d="M140.3,81.142a4.881,4.881,0,0,0,0-2.507l-3.828-20.166a23.536,23.536,0,0,0-1.2-4.122l5.836-1.106a26.689,26.689,0,0,0,.428,4.274l3.667,19.3c5.737-2.855,13.126-9.2,16.784-15.9l3.471,3.712c-3.935,7.076-10.832,12.965-19.033,17.489a10.707,10.707,0,0,0-2.043,1.437Z" transform="translate(-14.083 -3.287)" fill="#fff"/>
    <path id="パス_15" data-name="パス 15" d="M205.7,73.463a110.244,110.244,0,0,0-12.43-8.031l-1.927,10.547c-.2,1.08-.491,3.721-.616,5.238l-5.809-1.062a40.905,40.905,0,0,0,1.321-5.113l3.908-21.415a26.505,26.505,0,0,0,.446-4.577l5.818,1.062a39.977,39.977,0,0,0-1.16,4.461l-1.008,5.479a122.916,122.916,0,0,1,14.518,8.62Z" transform="translate(-19.431 -2.836)" fill="#fff"/>
    <path id="パス_16" data-name="パス 16" d="M243.382,97.756c-.776,1.258-2.623,4.39-2.677,4.515l-4.461-2.748,1.124-1.785-15.535-9.556-1.062,1.785-4.461-2.748c.125-.143,1.927-2.909,2.882-4.461l9.735-15.749c.553-.892,1.374-2.222,1.865-3.168,1.3.892,2.507,1.633,3.373,2.177L251.9,76.983c.8.491,2.025,1.249,3.23,1.9-.669.892-1.4,2.124-2,3.087ZM232.621,70.72,224.358,84.1l15.562,9.619,8.263-13.384Z" transform="translate(-22.812 -4.429)" fill="#fff"/>
    <path id="パス_17" data-name="パス 17" d="M278.224,109.955a53.7,53.7,0,0,1-4.961-4.461,68.886,68.886,0,0,1-17.641,3.3l-.892-5.05a57.411,57.411,0,0,0,15.169-1.9c-.419-.491-.812-1.008-1.2-1.517-.937-1.24-1.785-2.472-2.748-3.819l3.3-2.918a48.191,48.191,0,0,0,2.8,4.14c.66.892,1.383,1.785,2.124,2.623a32.246,32.246,0,0,0,5.63-2.98l2.677,4.461c-1.151.491-2.936,1.267-4.854,2.061a39.6,39.6,0,0,0,3.971,3.3Zm.286,5.96c-1.338.892-2.525,1.865-3.837,2.9-.821.669-2.222,1.785-3.632,3.043a24.887,24.887,0,0,1,.848,9.092l-4.7.428a34.3,34.3,0,0,0,.107-6.442l-.277.205c-2.775,2.1-6.094,2.24-9.316-2.017-2.811-3.712-3.364-7.9-.08-10.4,2.927-2.213,7.049-1.481,10.2,2.677a24.208,24.208,0,0,1,1.41,2.115c2.168-1.785,4.676-3.926,6.424-5.354Zm-12.394,4.212a12.974,12.974,0,0,0-1.526-2.677c-1.3-1.722-2.873-2.284-3.926-1.49s-1.169,2.356.071,3.989c1.526,2.017,3.212,1.785,4.81.58Zm14.678,2.133a50.209,50.209,0,0,0-1.178-10.413l4.417-.3a68.267,68.267,0,0,1,1.535,10.431Z" transform="translate(-26.95 -7.633)" fill="#fff"/>
    <path id="パス_18" data-name="パス 18" d="M152.967,115.768v-1.017a25.878,25.878,0,0,1-2.382,1.954h10.708v8.325h-8.646c-.054.348-.107.723-.187,1.071h9.235v7.2h-2.757v-.75h-4.524v.83h-2.677V128.92a12.706,12.706,0,0,1-2.061,3.908,10.022,10.022,0,0,0-2.088-1.9c2.356-3.078,2.677-7.361,2.677-10.386V116.9c-.294.187-.589.4-.892.589a9.031,9.031,0,0,0-1.9-2.249,18.524,18.524,0,0,0,6.719-6.532h2.837a52.8,52.8,0,0,1,5.595,4.818l-2.034,2.356c-.375-.428-.892-.964-1.419-1.553v1.392Zm5.461,7.04v-1.017h-5.514a6.652,6.652,0,0,1-.054,1.017Zm-5.488-3.881v.964h5.488v-.964Zm5.461-5.3c-.776-.75-1.606-1.526-2.382-2.142-.562.7-1.178,1.419-1.874,2.142Zm-3.989,14.75v1.9h4.524v-1.9Zm11.457-1.633h-3v-15.1h3Zm5.943-17.774v20.665c0,1.785-.348,2.677-1.419,3.132a13.5,13.5,0,0,1-4.979.642,13.017,13.017,0,0,0-1.044-3.239c1.606.054,3.159.054,3.667.054s.669-.161.669-.616V108.969Z" transform="translate(-15.397 -9.262)" fill="#fff"/>
    <path id="パス_19" data-name="パス 19" d="M194.445,127.3a23.914,23.914,0,0,0,8.486,2.918,14.973,14.973,0,0,0-2.142,2.891,22.851,22.851,0,0,1-8.994-4.542v4.818h-3.123v-4.64a25.4,25.4,0,0,1-8.968,4.337,14.847,14.847,0,0,0-2.034-2.677,28.125,28.125,0,0,0,8.459-3.132h-7.683v-2.623h10.226v-1.178h-7.709v-2.3h7.709v-1.2h-9.057V117.5H184.7a12.03,12.03,0,0,0-.892-2.088l.321-.054h-5.595v-2.6H182.1a24,24,0,0,0-1.66-3.319l2.73-.892a20.256,20.256,0,0,1,2.034,3.774l-1.312.482h2.436V108.4h2.971v4.363h1.981V108.4h3v4.363H196.7l-.964-.294a21.568,21.568,0,0,0,1.686-3.881l3.346.8c-.75,1.231-1.472,2.436-2.088,3.373h3.48v2.6h-5.033c-.428.776-.892,1.5-1.258,2.141h5.247v2.49h-9.324v1.2h8.031v2.3h-8.031v1.178h10.413V127.3Zm-7.281-11.939a13.186,13.186,0,0,1,.892,2.061l-.455.08h5.006a18.558,18.558,0,0,0,.892-2.142Z" transform="translate(-18.65 -9.229)" fill="#fff"/>
    <path id="パス_22" data-name="パス 22" d="M187.124,283.28h-9.155v5.693h-3.293v-5.729H162.63v-3.016h4.229v-7.013h7.816V270h-5.729a24.091,24.091,0,0,1-3.641,4.872,24.633,24.633,0,0,0-2.757-2.061,20.648,20.648,0,0,0,5.621-8.923l3.239.83a17.084,17.084,0,0,1-.892,2.2h15.124v3.078H177.96v3.212h7.067v2.945H177.96v4.069h9.155Zm-12.492-3.052v-4.069H170.09v4.069Z" transform="translate(-17.021 -25.976)" fill="#fff"/>
  </g>
</svg>
