<svg id="uuid-8c92a5ca-a0b7-4f0f-9a91-2bc2e4f36d7b" xmlns="http://www.w3.org/2000/svg" viewBox="0 0 352 352"><defs><style>.uuid-93464375-1531-4da8-bae5-991233e6843e{fill:#fff;}.uuid-a37b17e9-11f7-4861-9392-1b243b149c7d{fill:none;stroke:#fff;stroke-miterlimit:10;stroke-width:8px;}</style></defs><circle class="uuid-a37b17e9-11f7-4861-9392-1b243b149c7d" cx="176" cy="176" r="172"/><path class="uuid-93464375-1531-4da8-bae5-991233e6843e" d="m89.33,287.34l-11.24-11.37-4.69,4.64c-2.05,2-3.45,2.38-5.34,1.57s-4-2.86-6.89-5.83c.88-1.49,1.56-3.09,2-4.76,2,2.21,4.41,4.63,5,5.26s1.14.7,1.72.13l4.63-4.58-11.19-11.37,3.34-3.3,11.23,11.37,3.37-3.3-9.27-9.44,3.28-3.24,9.3,9.41,3.37-3.33c-3.21-2.73-6.37-5.59-9.28-8.3.9-1.17,1.63-2.47,2.17-3.85,7.16,6.66,15.69,13.75,21.59,17.28l-.4,5.29c-3.55-2.19-6.95-4.61-10.18-7.24l-3.77,3.72,9.56,9.7-3.28,3.24-9.56-9.68-3.37,3.33,11.24,11.38-3.34,3.27Z"/><path class="uuid-93464375-1531-4da8-bae5-991233e6843e" d="m101.1,302.85c0-1.46-.17-3.69-.36-5.76-2.58,2.91-5.85,5.12-9.5,6.45-.22-1.53-.64-3.02-1.24-4.44,7.11-2.68,11.2-9.17,14.47-15.4l6.53-12.37,3.8,2-6.5,12.4-.1.18c1.95-1.82,3.79-3.76,5.51-5.79l2.32,2.54,1.8-3.44,7.06,3.7,1.83-3.48,4,2.12-1.83,3.48,7.46,3.91-1.84,3.51-7.46-3.91-1.8,3.44-4-2.12,1.8-3.44-6.81-3.57.23.26c-2.39,1.94-5.06,4.34-6.91,5.7l-1.77-2.12c-1.14,2.15-2.39,4.24-3.74,6.26.45,2.11,1.24,7.23,1.45,8.49l-4.4,1.4Zm-3.9-18c2.19-1.46,4.5-4.91,6.11-8.08l2.65,1.84c-1.61,3.41-4.07,7.06-6.62,8.87l-2.14-2.63Zm22.89,29c.58.3,1-.09,2.63-3.1.71,1.25,1.62,2.37,2.69,3.33-2.65,4.18-4.22,4.82-6.73,3.51l-2.61-1.37c-3.27-1.71-3.35-3.22-1.56-6.62l3.1-5.92-3-1.57c-3.31,5.25-6.42,8-13.77,6.48.11-1.45-.06-2.9-.5-4.28,5.78,1.34,7.88-.48,10.25-4.31l-4.19-2.2,1.88-3.58,3.15,1.65,1.75-3.33-3.37-1.77,1.88-3.58,3.37,1.77,1.93-3.7,3.87,2-1.93,3.69,6.77,3.55,1.94-3.69,3.94,2.07-1.94,3.69,3.52,1.84-1.88,3.59-3.51-1.85-1.77,3.29,3.3,1.73-1.87,3.63-5.84-3.06-3.08,5.88c-.49.93-.5,1.11.11,1.43l1.47.8Zm-4.8-16l6.78,3.55,1.74-3.33-6.81-3.58-1.71,3.36Z"/><path class="uuid-93464375-1531-4da8-bae5-991233e6843e" d="m145,310.46c-.74,1.12-1.29,2.36-1.62,3.66-.42,2.47,1,4.45,6.19,5.34,3.5.63,7.05.94,10.6.92l-1,5c-3.45-.08-6.9-.42-10.3-1-7.38-1.27-11.49-4.56-10.55-10,.39-1.82,1.03-3.57,1.88-5.22l4.8,1.3Zm23.42-3.61c-2.11.33-4.24.51-6.38.54.63,2.29,1.35,4.8,2.14,7.15l-2.87,2.59c-2.13-.78-5.81-2-8.39-2.8l1.09-3.72c1.52.47,3.06.86,4.11,1.16l-1.12-4.42c-5.87-.4-11.69-1.32-17.4-2.74l.59-4.58c5.14,1.44,10.41,2.36,15.73,2.77l-.41-1.68-.58-2.39c-4.59-.44-9.13-1.28-13.57-2.5l.54-4.55c3.89,1.15,7.87,1.98,11.89,2.5h0c-.37-1.26-.81-2.51-1.33-3.72l5.81-.11c.1,1.4.29,2.79.56,4.16,2.64.04,5.28-.14,7.89-.53l.08,4.57c-2.34.29-4.7.43-7.06.43l.47,1.84.57,2.16c2.48-.04,4.96-.28,7.4-.74l.24,4.61Z"/><path class="uuid-93464375-1531-4da8-bae5-991233e6843e" d="m184.12,296.8l6,.4c-.2,1.21-.38,3.24-.42,4.14-.3,4.19-.87,8.35-1.7,12.46-.96,4.25-2.42,8.37-4.35,12.28l-5.94-1.59c2.1-3.77,3.68-7.81,4.72-12,1.27-5.13,1.84-10.41,1.69-15.69Zm10.35-.2l5.09-2.45c2.08,2.9,5.69,8.65,7.7,12.34,1.94,3.41,5,9.53,6.62,13.35l-5.67,2.74c-1.77-4.64-3.81-9.18-6.12-13.58-2.27-4.31-4.82-8.47-7.62-12.45v.05Zm11.77-8.89c2.65-.35,5.08,1.51,5.44,4.16.35,2.65-1.51,5.08-4.16,5.44-2.63.35-5.06-1.48-5.43-4.11-.39-2.67,1.46-5.14,4.13-5.53,0,0,.01,0,.02,0v.05Zm1,7.1c1.28-.1,2.24-1.23,2.14-2.51-.1-1.28-1.23-2.24-2.51-2.14-.09,0-.17.02-.26.03-1.28.19-2.17,1.37-2,2.65.2,1.24,1.35,2.11,2.6,1.95h.03Z"/><path class="uuid-93464375-1531-4da8-bae5-991233e6843e" d="m230.85,290.02l-1.85,5.62c-4.2-1.5-8.51-2.67-12.9-3.49l1.67-5.3c4.44.71,8.81,1.77,13.08,3.17Zm5.69,11.78c4.07-6.09,6.31-13.22,6.46-20.54l5.31,3.77c-.63,7.15-3.03,14.02-7,20-2.93,4.53-6.68,8.48-11.05,11.65l-5.38-3.34c4.61-3.04,8.57-6.96,11.66-11.54Z"/><path class="uuid-93464375-1531-4da8-bae5-991233e6843e" d="m290.66,270.59l2.61,2.77-21.43,20.27-2.62-2.76,8.91-8.43-1.92-2-6.93,6.57-2.62-2.77,6.94-6.56-1.6-1.71c-2.65,2.74-5.09,5.22-7.1,7.28l-2.73-2.6,3-3c-.23-1.06-.51-2.24-.79-3.37l-4.59,4.34c4.36,5,9.16,11.57,10.35,17.9-1.65.17-3.26.56-4.81,1.15-1.37-7.28-7.4-14.12-11.82-18.79l-8-8.5,22.32-21.11,7.06,7.47-18.81,17.8,1,1,.25.26,19.61-18.55,2.59,2.73-4.41,4.17c2.79-.4,5.61-.53,8.43-.39l-1.22,4.55c-.9-.12-1.8-.18-2.71-.17l-4.33,4.44,1.72,1.82,6.99-6.6,2.61,2.77-7,6.67,1.92,2,9.13-8.65Zm-39-.68l1.73,1.82,15.29-14.46-1.68-1.82-15.34,14.46Zm16.62.72c.19,1.15.36,2.33.5,3.42l5.63-5.66c-.84.04-1.67.12-2.5.25l.54-2-4.17,3.99Z"/><path class="uuid-93464375-1531-4da8-bae5-991233e6843e" d="m72.19,71.47s1.06.79,1.51,1.18c7.08,5.77,9.88,8.33,10.25,10,.35,1.17.18,2.43-.47,3.46-.85,1.4-1.81,2.74-2.85,4-1.39-.86-2.95-1.43-4.57-1.67,1.1-1.19,2-2.39,2.45-2.93.35-.39.51-.91.43-1.43-.24-.82-1.84-2.43-6.07-5.91l-3.87,5.22c4.52,4.38,7.34,9,5.7,16.34-1.32-.26-2.67-.31-4-.15l11.3,8.48-5.25,7,2.58,1.93-2.8,3.81-25.47-19,8.1-10.84,10.92,8.15c1.16-5.39-.89-8.67-4-11.76l-3.34,4.45-3.67-2.74,13.12-17.59Zm-14.68,29.23l5.92,4.42,2.51-3.32-5.94-4.46-2.49,3.36Zm18.19,8.34l-6.22-4.64-2.48,3.4,6.22,4.65,2.48-3.41Zm-.1-9.08l12.06-16.16,14.17,10.58-3,4.05-1.29-1-6.19,8.37,1.43,1-2.87,3.84-14.31-10.68Zm6.47-1.16l5.68,4.24,6.17-8.24-5.68-4.24-6.17,8.24Z"/><path class="uuid-93464375-1531-4da8-bae5-991233e6843e" d="m102.13,68.27c2.34.54,7.94,2.28,9.34,2.76l-.21,5.09c-1.45-.79-3.73-1.87-6-2.82l8.33,13.27-4.32,2.71-8-12.8c.74,3.87.86,7.84.36,11.75-1.45-1.08-3.02-1.98-4.68-2.68.75-4.83.56-9.77-.55-14.53l-5.4,3.36-2.48-4,6.4-4-2.92-4.64c-1.58,1.39-3.15,2.73-4.67,4-.97-1.01-2.05-1.89-3.23-2.64,4.14-3.38,7.92-7.2,11.26-11.37l4.86,1.61c-1.37,1.71-2.84,3.34-4.41,4.87l3.45,5.5,5.21-3.27,2.49,4-5.22,3.27.39.56Zm13.08-24.74l17.71,28.27-4.43,2.77-1.62-2.58-5.75,3.6,1.78,2.84-4.21,2.64-17.86-28.52,14.38-9.02Zm9.09,24.27l-10.94-17.4-5.75,3.61,10.94,17.44,5.75-3.65Z"/><path class="uuid-93464375-1531-4da8-bae5-991233e6843e" d="m140.91,66.31c.24-.92.24-1.89,0-2.81l-4.29-22.6c-.31-1.58-.76-3.12-1.35-4.62l6.54-1.24c.03,1.61.19,3.21.48,4.79l4.11,21.63c6.43-3.2,14.71-10.31,18.81-17.82l3.89,4.16c-4.41,7.93-12.14,14.53-21.33,19.6-.82.45-1.59.99-2.29,1.61l-4.57-2.7Z"/><path class="uuid-93464375-1531-4da8-bae5-991233e6843e" d="m208.21,58.21c-4.44-3.31-9.09-6.32-13.93-9l-2.16,11.82c-.22,1.21-.55,4.17-.69,5.87l-6.51-1.19c.62-1.88,1.11-3.79,1.48-5.73l4.38-24c.31-1.69.48-3.41.5-5.13l6.52,1.19c-.53,1.64-.96,3.31-1.3,5l-1.13,6.14c5.64,2.84,11.07,6.07,16.27,9.66l-3.43,5.37Z"/><path class="uuid-93464375-1531-4da8-bae5-991233e6843e" d="m246.65,83.65c-.87,1.41-2.94,4.92-3,5.06l-5-3.08,1.26-2-17.41-10.71-1.19,2-5-3.08c.14-.16,2.16-3.26,3.23-5l10.91-17.65c.62-1,1.54-2.49,2.09-3.55,1.46,1,2.81,1.83,3.78,2.44l19.88,12.29c.9.55,2.27,1.4,3.62,2.13-.75,1-1.57,2.38-2.24,3.46l-10.93,17.69Zm-12.06-30.3l-9.26,15,17.44,10.78,9.26-15-17.44-10.78Z"/><path class="uuid-93464375-1531-4da8-bae5-991233e6843e" d="m281.06,93.73c-1.96-1.55-3.81-3.22-5.56-5-6.4,2.09-13.05,3.33-19.77,3.7l-1-5.66c5.74.05,11.45-.67,17-2.13-.47-.55-.91-1.13-1.34-1.7-1.05-1.39-2-2.77-3.08-4.28l3.7-3.27c.97,1.6,2.01,3.15,3.14,4.64.74,1,1.55,2,2.38,2.94,2.21-.9,4.32-2.02,6.31-3.34l3,5c-1.29.55-3.29,1.42-5.44,2.31,1.4,1.33,2.89,2.56,4.45,3.7l-3.79,3.09Zm.32,6.68c-1.5,1-2.83,2.09-4.3,3.25-.92.75-2.49,2-4.07,3.41.94,3.31,1.26,6.76.95,10.19l-5.27.48c.27-2.4.31-4.81.12-7.22l-.31.23c-3.11,2.35-6.83,2.51-10.44-2.26-3.15-4.16-3.77-8.85-.09-11.65,3.28-2.48,7.9-1.66,11.43,3,.57.76,1.1,1.55,1.58,2.37,2.43-2,5.24-4.4,7.2-6l3.2,4.2Zm-13.89,4.72c-.45-1.06-1.02-2.07-1.71-3-1.46-1.93-3.22-2.56-4.4-1.67s-1.31,2.64.08,4.47c1.71,2.26,3.6,2,5.39.65l.64-.45Zm16.45,2.39c-.03-3.93-.47-7.84-1.32-11.67l4.95-.34c.87,3.85,1.45,7.75,1.72,11.69l-5.35.32Z"/><path class="uuid-93464375-1531-4da8-bae5-991233e6843e" d="m153.63,98.42v-1.14c-.85.78-1.74,1.51-2.67,2.19h12v9.33h-9.69c-.06.39-.12.81-.21,1.2h10.35v8.07h-3.09v-.84h-5.07v.93h-3v-5c-.51,1.58-1.29,3.07-2.31,4.38-.68-.82-1.46-1.53-2.34-2.13,2.64-3.45,3-8.25,3-11.64v-4.08c-.33.21-.66.45-1,.66-.57-.95-1.29-1.8-2.13-2.52,3.1-1.75,5.69-4.27,7.53-7.32h3.18c2.21,1.65,4.31,3.46,6.27,5.4l-2.28,2.64c-.42-.48-1-1.08-1.59-1.74v1.56l-6.95.05Zm6.12,7.89v-1.14h-6.18c0,.36,0,.75-.06,1.14h6.24Zm-6.15-4.35v1.08h6.15v-1.08h-6.15Zm6.12-5.94c-.87-.84-1.8-1.71-2.67-2.4-.63.78-1.32,1.59-2.1,2.4h4.77Zm-4.47,16.53v2.13h5.07v-2.13h-5.07Zm12.84-1.83h-3.36v-16.92h3.36v16.92Zm6.66-19.92v23.16c0,2-.39,3-1.59,3.51s-3,.72-5.58.72c-.23-1.26-.62-2.48-1.17-3.63,1.8.06,3.54.06,4.11.06s.75-.18.75-.69v-23.13h3.48Z"/><path class="uuid-93464375-1531-4da8-bae5-991233e6843e" d="m196.47,111.38c2.94,1.68,6.16,2.79,9.51,3.27-.93.98-1.73,2.07-2.4,3.24-3.7-.93-7.14-2.66-10.08-5.09v5.4h-3.5v-5.2c-3,2.27-6.41,3.92-10.05,4.86-.64-1.08-1.41-2.09-2.28-3,3.33-.65,6.53-1.84,9.48-3.51h-8.61v-2.94h11.46v-1.32h-8.64v-2.58h8.64v-1.35h-10.15v-2.76h5.7c-.26-.81-.59-1.59-1-2.34l.36-.06h-6.27v-2.91h4c-.52-1.29-1.14-2.53-1.86-3.72l3.06-1c.91,1.33,1.67,2.74,2.28,4.23l-1.47.54h2.73v-4.94h3.33v4.89h2.22v-4.89h3.36v4.89h2.71l-1.08-.33c.77-1.38,1.4-2.84,1.89-4.35l3.75.9c-.84,1.38-1.65,2.73-2.34,3.78h3.9v2.91h-5.64c-.48.87-1,1.68-1.41,2.4h5.88v2.79h-10.45v1.35h9v2.58h-9v1.32h11.67v2.94h-8.7Zm-8.16-13.38c.4.74.73,1.51,1,2.31l-.51.09h5.61c.36-.72.72-1.59,1-2.4h-7.1Z"/><path class="uuid-93464375-1531-4da8-bae5-991233e6843e" d="m190.09,267.42h-10.26v6.38h-3.69v-6.42h-13.5v-3.38h4.74v-7.86h8.76v-3.6h-6.42c-1.12,1.99-2.49,3.82-4.08,5.46-.97-.84-2.01-1.61-3.09-2.31,2.93-2.73,5.1-6.18,6.3-10l3.63.93c-.28.84-.61,1.66-1,2.46h16.95v3.45h-8.61v3.6h7.92v3.3h-7.92v4.56h10.26v3.43Zm-14-3.42v-4.56h-5.09v4.56h5.09Z"/></svg>