<svg xmlns="http://www.w3.org/2000/svg" viewBox="0 0 237.1 42.75"><defs><style>.cls-1{fill:#a3241d;}</style></defs><title>アセット 7</title><g id="レイヤー_2" data-name="レイヤー 2"><g id="レイヤー_1-2" data-name="レイヤー 1"><path class="cls-1" d="M35.6,28.4l-13.5,2,2,11L18.5,42.45,16.4,31.2,0,33.6l1.55-7.8,2,1.95,11.9-1.7L14,17.75.8,19.7l1.5-7.6,2,2L13,12.75,11.6,5.1l5.65-1L18.7,12l13.45-2L32.9,15,19.65,17l1.5,8.25,13.7-2ZM31.55,8.3l-6.4-4.85A10.31,10.31,0,0,1,28.4,2.9c1.9,0,4.45.7,4.45,3.05A3.22,3.22,0,0,1,31.55,8.3Zm6.2-2.75L31.1.55A11.25,11.25,0,0,1,34.5,0c2,0,4.6.7,4.6,3.1A3.39,3.39,0,0,1,37.75,5.55Z"/><path class="cls-1" d="M82.9,21.1a12.39,12.39,0,0,1-9.85,12l4-9.2L67,25.6,70.2,41.85l-4.5.9L62.45,26.4,53.2,27.9l1-5.65,1.45,1.45,6.05-1.05L60,14l4.85.85L66.2,22,78.9,19.8l.45-1.05,3.55,1.9Z"/><path class="cls-1" d="M134.9,18.25c-.05,11.4-6.1,19-16.85,22.2a32.23,32.23,0,0,1-7.5,1.25c7-3.65,13.7-11.3,17-18.55l-27.1.05L103,16l1.6,2.15H129.3l.6-2.55Zm-3.9-7.1-25.7,0L107.85,4l1.6,2.15H131Z"/><path class="cls-1" d="M162.15,28.7H155.7V5.5l6.45,3.05Zm18.1-2.3A15.21,15.21,0,0,1,179,31.75c-3.3,7.45-10.85,9.75-18.5,9.75,3.45-2.2,13.05-9.3,13.05-14.2L173.5,5.8l6.75,2Z"/><path class="cls-1" d="M237.1,26.45H198.85l3.55-9.8,2.25,3H237.1Z"/></g></g></svg>