<svg xmlns="http://www.w3.org/2000/svg" viewBox="0 0 308.05 116.7"><defs><style>.cls-1{fill:#9a221c;}.cls-2{fill:none;}.cls-3{fill:#6d2208;}</style></defs><title>アセット 1</title><g id="レイヤー_2" data-name="レイヤー 2"><g id="トリーゴ"><polygon class="cls-1" points="0 30.68 0 51.16 20.33 51.01 20.6 116.69 43.59 116.69 43.59 51.16 63.77 51.16 63.77 30.68 0 30.68"/><path class="cls-1" d="M66.24,116.7V56.81s2.2-27.19,31.53-28.61c19.59,0,30.41,16.49,31.33,28.56.88,11.64-7.61,25-9.91,28.21-1.73,2.52.09,3.26,1.81,3.24h7.26v19.7l-16.47-.26c-9.45-2.21-16.3-7-17.3-20.44.6-11.63,11.59-20.59,11.36-27.93-.19-4.25-3.95-7.79-7.82-7.73-4.48-.17-8.76,3-9,7.52C88.83,64.91,89,116.7,89,116.7Z"/><polyline class="cls-2" points="133.79 28.16 133.79 107.71 153.39 107.71 153.39 28.16"/><rect class="cls-1" x="133.79" y="27.42" width="19.59" height="80.29"/><path class="cls-1" d="M156.75,67.57s2.16-36.06,40.37-37c0,0,13.87-.22,28,12.76L210,55.63s-5.76-6.06-14.18-5.93A20,20,0,0,0,176.29,68c-1.16,12,8.65,19.89,15.76,20.5h14.36V68h18.73v39.7H192.05S156.75,104.57,156.75,67.57Z"/><path class="cls-1" d="M268.89,29.7c-21.63,0-39.16,16.69-39.16,38.32a39.16,39.16,0,0,0,78.32,0C308.05,46.39,290.51,29.7,268.89,29.7Zm0,58.27a19.54,19.54,0,1,1,19.53-19.53A19.53,19.53,0,0,1,268.89,88Z"/><path class="cls-2" d="M288.42,68.44A19.53,19.53,0,1,1,268.89,48.9,19.53,19.53,0,0,1,288.42,68.44Z"/><polygon class="cls-3" points="95.69 0.86 95.69 24.28 103.95 24.28 103.95 17.92 117.09 22.66 117.09 14.53 103.95 9.39 103.95 0.86 95.69 0.86"/><rect class="cls-3" x="127.11" width="8.35" height="13.23"/><path class="cls-3" d="M142.29,0V15.27s-.89,4.89-6.83,8.35h12s3.2-4.44,3.2-8.35V0"/><rect class="cls-3" x="157.65" y="9.41" width="16.34" height="5.42"/><polyline class="cls-3" points="194.32 18.02 181.27 18.02 181.27 22.91 202.94 22.91 202.94 2.66 181.27 2.66 181.27 7.9 194.32 7.9"/><rect class="cls-3" x="203.91" y="2.66" width="2.75" height="3.02"/><rect class="cls-3" x="207.61" y="2.66" width="2.75" height="3.02"/></g></g></svg>