<svg xmlns="http://www.w3.org/2000/svg" xmlns:xlink="http://www.w3.org/1999/xlink" viewBox="0 0 709 709"><defs><style>.a,.d,.e,.f,.m{fill:none;}.b{clip-path:url(#a);}.c{clip-path:url(#b);}.d,.e{stroke:#dcd8cb;}.d,.e,.f,.g,.m{stroke-miterlimit:10;}.d{stroke-width:60px;}.e{stroke-width:40px;}.f,.g,.m{stroke:#23100f;}.f{stroke-width:6px;}.g,.h{fill:#23100f;}.g{stroke-width:2px;}.i{fill:#f8c800;}.j{fill:#094c83;}.k{fill:#9e141f;}.l{fill:#578d80;}.m{stroke-width:3px;}.n{fill:#fff;}.o{fill:#9a221c;}.p{fill:#6d2208;}</style><clipPath id="a"><rect class="a" width="709" height="709"/></clipPath><clipPath id="b"><rect class="a" y="0.23" width="806" height="847"/></clipPath></defs><title>アートボード 1</title><g class="b"><g class="c"><line class="d" x1="588" y1="-48" x2="588" y2="902"/><line class="d" x1="-79" y1="147" x2="588" y2="147"/><line class="d" x1="-79" y1="565" x2="588" y2="565"/><line class="e" x1="358" y1="-44" x2="358" y2="906"/><line class="e" x1="128" y1="-49" x2="128" y2="901"/><line class="f" x1="673" y1="-44" x2="673" y2="901"/><line class="g" x1="661" y1="29" x2="685" y2="29"/><line class="g" x1="661" y1="24" x2="685" y2="24"/><line class="g" x1="661" y1="159" x2="685" y2="159"/><line class="g" x1="661" y1="154" x2="685" y2="154"/><line class="g" x1="661" y1="675" x2="685" y2="675"/><line class="g" x1="661" y1="670" x2="685" y2="670"/><rect class="h" x="637.96" y="208" width="70" height="411"/><rect class="i" x="495" y="54" width="56" height="56"/><rect class="j" x="218" y="54" width="56" height="56"/><rect class="k" x="155" y="54" width="56" height="56" rx="28"/><rect class="l" x="275" y="184" width="56" height="56"/><polyline class="m" points="639 403.5 587.5 403 588 146.5 185.5 146.5 185.5 122.25"/><polygon class="h" points="197.77 132.19 195.57 134.24 185.5 123.41 175.43 134.24 173.23 132.19 185.5 119 197.77 132.19"/><path d="M478.76,45.3a10.67,10.67,0,0,0,2.62-4.87l2.5.85a12.46,12.46,0,0,1-2.75,5.49Zm6.47-8.57v1.12h16s0,.68-.07,1c-.33,4.48-.68,6.37-1.33,7.1a2.48,2.48,0,0,1-1.75.82,16.34,16.34,0,0,1-2.82,0,5.79,5.79,0,0,0-.7-2.37,19.41,19.41,0,0,0,2.1.1,1,1,0,0,0,.8-.25c.32-.37.62-1.55.82-4.35h-16V25.35h5.88a12.43,12.43,0,0,0,.5-2l3.52.23a16.13,16.13,0,0,1-.85,1.77h7v8.23H485.23v1.1h16.6v2Zm2.08,4.3a19,19,0,0,1,.65,4.62l-2.6.37a18.61,18.61,0,0,0-.48-4.62ZM485.23,27.4v1.1h10.2V27.4Zm10.2,4.13V30.35h-10.2v1.18Zm-4.25,9.3a19.18,19.18,0,0,1,1.25,4.07l-2.42.67a19.57,19.57,0,0,0-1.08-4.22Zm3.7-.65a17.11,17.11,0,0,1,1.65,3.19l-2.25.86a14.24,14.24,0,0,0-1.5-3.33Z"/><path d="M520.13,43c2.42.77,5.07,1.77,6.7,2.47l-3.58,1.32a44.59,44.59,0,0,0-6.39-2.62L519,43h-6.93l2,.9a32.43,32.43,0,0,1-7.8,3,19.68,19.68,0,0,0-2.15-2.13A34.36,34.36,0,0,0,510.73,43h-3.4v-9.6H524V43Zm6.6-10.43h-22.5V30.38H514v-.9h-6.45v-4.7H514v-1.3h2.92v1.3h6.8v4.7h-6.8v.9h9.8Zm-16.5,3.5H521v-1H510.23Zm0,2.6H521v-1H510.23Zm0,2.63H521v-1H510.23ZM514,27.7V26.53h-3.65V27.7Zm2.92-1.17V27.7h3.85V26.53Z"/><path d="M539,33s0,.8,0,1.18c-.28,7.67-.55,10.6-1.25,11.54a2.31,2.31,0,0,1-1.73,1,11.77,11.77,0,0,1-2.57.1,7,7,0,0,0-.75-2.7,14.76,14.76,0,0,0,1.87.1.81.81,0,0,0,.75-.37c.4-.53.68-2.6.85-8.18H534c-.35,4.4-1.2,8.37-3.3,11.2a7.87,7.87,0,0,0-2.07-2.08c2.52-3.34,2.75-8.82,2.82-14.52H529V27.5h4.12v-4H536v4h3.25V29a17.79,17.79,0,0,0,2.62-5.6l2.7.6a19.6,19.6,0,0,1-.85,2.4h8.07V29.1h-9.37a18.75,18.75,0,0,1-2,2.95,17.19,17.19,0,0,0-2.32-1.6l.2-.2h-4c0,.9-.05,1.8-.07,2.7Zm8.67,6.5a9.53,9.53,0,0,0,4.9,5.07,10.39,10.39,0,0,0-1.88,2.28A10.83,10.83,0,0,1,546.25,42a11.72,11.72,0,0,1-5.34,4.85,9.06,9.06,0,0,0-1.9-2c3.47-1.47,4.8-3.47,5.3-5.32h-4.48V36.8h4.78V34.23h-1.18A14.57,14.57,0,0,1,542,36.5a15.28,15.28,0,0,0-2.3-1.52,13.51,13.51,0,0,0,2.78-5.65l2.67.6c-.15.57-.35,1.15-.55,1.7h6.95v2.6h-4.1V36.8h4.47v2.65Z"/><text/><path d="M202.13,253.83,204,255a13.69,13.69,0,0,0-.83,1.8,27.18,27.18,0,0,1-3.45,6.83c.93.6,1.78,1.15,2.4,1.6l-2.25,2.94c-.6-.52-1.42-1.12-2.32-1.77a24.12,24.12,0,0,1-9.23,6.22l-2.9-2.52a20.82,20.82,0,0,0,9.3-5.6c-1.67-1.1-3.37-2.12-4.65-2.85l2.1-2.37c1.33.67,3,1.62,4.7,2.62a17.88,17.88,0,0,0,2.6-5.32h-7.17a30.08,30.08,0,0,1-6.58,6.45L183,260.9a23.18,23.18,0,0,0,7.94-8.3,11.48,11.48,0,0,0,1.13-2.62l3.62,1.12c-.6.88-1.22,2-1.52,2.55l0,0h5.13a8.19,8.19,0,0,0,2-.23,28,28,0,0,0-1.65-2.85l2-.8a36,36,0,0,1,2,3.43Zm2.37-5.15a32.39,32.39,0,0,1,2,3.4l-2,.85a23.79,23.79,0,0,0-2-3.45Z"/><path d="M222.58,268.15a16.65,16.65,0,0,0,.23,3.27h-3.95a28.06,28.06,0,0,0,.17-3.27V260a48.73,48.73,0,0,1-8.6,3.4l-1.79-3.05A38.57,38.57,0,0,0,220,255.78a26.55,26.55,0,0,0,6.52-5.65l2.68,2.42a40.7,40.7,0,0,1-6.63,5.38Z"/><path d="M239.58,252.58l3.65.77c-.2.7-.5,1.93-.6,2.48a57.76,57.76,0,0,1-2.12,7.52,35.58,35.58,0,0,1-3.68,7.15l-3.5-1.48a30.7,30.7,0,0,0,3.88-6.94A35.77,35.77,0,0,0,239.58,252.58Zm6.35.75,3.33-1.08c1,1.95,2.75,5.8,3.7,8.2s2.19,6.25,2.89,8.72l-3.69,1.2a78.68,78.68,0,0,0-2.6-8.82A71.81,71.81,0,0,0,245.93,253.33Z"/><path d="M269.56,264.7a23.73,23.73,0,0,0,9.1-9.72l1.94,3.52a26.43,26.43,0,0,1-9.24,9.25,27.2,27.2,0,0,1-9.28,3.52L260,268A25.83,25.83,0,0,0,269.56,264.7Zm0-8.1L267,259.23a51.92,51.92,0,0,0-6.25-5.4l2.35-2.5A52,52,0,0,1,269.56,256.6Z"/><path d="M296,258v.87h8v1.8h-8v.9h9.82v2.08H283.36V261.6H293v-.9h-7.87v-1.8H293V258h-7.32V256.3H293v-1h-9.59v-2H293v-.92h-7.05v-1.73H293v-1.57h3v1.57h7v2.65h2.85v2h-2.85V258Zm-9.48,6.42h16.58v8.1h-3v-.73h-10.7v.75h-2.88Zm2.88,1.9v.9h10.7v-.9Zm10.7,3.6v-1h-10.7v1ZM296,253.3h4v-.92h-4Zm0,3h4v-1h-4Z"/><path d="M320.68,263.78a12.76,12.76,0,0,1-.22,1.4h8.17s0,.7-.07,1.05c-.28,3.27-.58,4.82-1.2,5.44a2.9,2.9,0,0,1-2,.83c-.7.05-2,.07-3.3,0a6.13,6.13,0,0,0-.77-2.47c1.12.12,2.22.15,2.7.15a1.16,1.16,0,0,0,.87-.25c.28-.25.48-1,.65-2.5h-5.77c-1,2.22-2.8,3.92-6.48,5.05a7.59,7.59,0,0,0-1.62-2.33c4.6-1.22,5.65-3.37,6-6.39h-4.28c-.35,3-1.22,6.17-3.2,8.44a11.93,11.93,0,0,0-2.54-1.65c2.79-3.12,3.07-7.64,3.07-11v-5.55h17.87v5.85h-6.47v1.55h8.59v2.33Zm9.5-10.83H309.11V250.3h21.07Zm-16.52,6.95c0,.5,0,1-.05,1.55h5.6V259.9Zm0-3.7v1.55h12.07V256.2Z"/><path d="M300.66,30.42c0,1,0,3.33,0,3.4h-3.4l0-1.32H285.52l0,1.32h-3.35c0-.1.05-2.25.05-3.42v-12c0-.73,0-1.7,0-2.4,1,0,1.9,0,2.57,0h13.5c.62,0,1.52,0,2.42,0,0,.73,0,1.6,0,2.38ZM285.52,19.2V29.37h11.84V19.2Z"/><path d="M289.07,58.72a36.22,36.22,0,0,0,.2-4.37c0-1.68,0-9.92,0-12.05a19.21,19.21,0,0,0-.22-3.42h4a21,21,0,0,0-.2,3.42c0,2.13,0,10.37,0,12.05a38.36,38.36,0,0,0,.2,4.37Z"/><path d="M284.57,65.08c1.22,1.72,3.35,5.47,4.25,7.19l-3.23,1.83a53.58,53.58,0,0,0-4.17-7.4Zm8.92,10.24a18.85,18.85,0,0,0,2.87-7.42,13.55,13.55,0,0,0,.33-2.92l3.95.52c-.28,1-.55,2.15-.7,2.85a26.46,26.46,0,0,1-3.4,8.62A21,21,0,0,1,288,84.5L285.07,82A18.65,18.65,0,0,0,293.49,75.32Z"/><path d="M291.34,102.9a23.6,23.6,0,0,0,9-9.52l1.87,3.45A26.56,26.56,0,0,1,284,109.32l-2.08-3.2A25.53,25.53,0,0,0,291.34,102.9Zm-.25-7.72-2.47,2.57a50,50,0,0,0-6.13-5.22l2.28-2.48A54.48,54.48,0,0,1,291.09,95.18Z"/><path class="n" d="M669.54,298.35c-.78,2.55-1.77,5.82-2.61,8.16a9.24,9.24,0,0,1,2.19,6c0,1.92-.39,3.18-1.32,3.84a4.28,4.28,0,0,1-1.74.63,12.83,12.83,0,0,1-1.92.06,7.56,7.56,0,0,0-.78-3c.54,0,.93,0,1.32,0a1.55,1.55,0,0,0,.84-.27c.33-.24.45-.84.45-1.68a8,8,0,0,0-2.07-5.25c.6-1.89,1.23-4.5,1.71-6.54h-2.34v23.55h-3.09V297.15h6.51l.51-.15Zm16.35,7.44a26.88,26.88,0,0,1-4.11,11.67,16.48,16.48,0,0,0,5.55,3.36,14.21,14.21,0,0,0-2.31,3,18.12,18.12,0,0,1-5.49-3.66,19.63,19.63,0,0,1-5.52,3.72,12.58,12.58,0,0,0-2.07-3,14.87,14.87,0,0,0,5.28-3.48,25.73,25.73,0,0,1-3.18-6.21c-.39,4.35-1.44,9.18-4,12.54a11.59,11.59,0,0,0-2.7-2.13c3.27-4.38,3.54-10.8,3.54-15.42v-8.76h15.36v3.24h-12v4.56h8.82l.6-.12Zm-9.54,2.7a21.92,21.92,0,0,0,3,6.24,21.28,21.28,0,0,0,2.55-6.24Z"/><path class="n" d="M663.12,335.34c-.54.39-1.08.78-1.68,1.17a12,12,0,0,0-2.49-2.58,20.68,20.68,0,0,0,8-8.22l3.81.72c-.3.51-.63,1.05-1,1.56h6.6l.57-.15,2.43,1.53a27.2,27.2,0,0,1-2.34,3.48h6.27v11.34h-9.63a15.26,15.26,0,0,1,2.82,1.95l-2.34,2.43a20.68,20.68,0,0,0-5.25-3.45l.93-.93h-7.32v-2.85h17.28v-1.5H663.63v-2.67h16.23V335.7H663.12ZM659,350.91a10.07,10.07,0,0,0,4-5.34l3.18,1.14a11.49,11.49,0,0,1-4.29,6.27Zm8.85-20.1c-.57.69-1.2,1.38-1.86,2h7c.51-.63,1.05-1.35,1.5-2Zm7.62,19.68c1,0,1.23-.36,1.38-2.82a8.51,8.51,0,0,0,3.06,1.23c-.39,3.72-1.35,4.62-4.11,4.62H671.4c-3.66,0-4.5-.93-4.5-3.87v-3.57h3.48v3.51c0,.81.21.9,1.44.9Zm6.36-5.31a28.4,28.4,0,0,1,5.22,6L683.79,353a28.9,28.9,0,0,0-5-6.21Z"/><path class="n" d="M686.34,361v15.72H683v-1.05h-2.91v8.22h-3.42v-8.22h-2.88v1.17h-3.21v-4.44l-1.68,2.28a34,34,0,0,0-2.28-2.76v12h-3.51v-10a22.55,22.55,0,0,1-3,2.49,13.7,13.7,0,0,0-1.65-3.39,22.26,22.26,0,0,0,7.62-8.4h-6.51v-3.21h3.57v-5.52h3.51v5.52h1.23l.63-.15,1.95,1.26a29.41,29.41,0,0,1-3.06,6.15c.9.69,2.4,2,3.21,2.73V361h6.09v-5h3.42v5Zm-12.57,3.21v2.58h2.88v-2.58Zm2.88,8.28v-2.67h-2.88v2.67Zm3.42-8.28v2.58H683v-2.58Zm2.91,8.28v-2.67h-2.91v2.67Z"/><path class="n" d="M684.12,406.29h-3.63v-1.83H666c-.51,3.42-1.77,7.05-4.56,9.54a12.3,12.3,0,0,0-2.79-2.49c3.72-3.33,4.05-8.13,4.05-11.79v-6.6h21.42Zm2-19v3.42H659.94V387.3Zm-19.8,9.12v3.33c0,.45,0,.93,0,1.41h14.19v-4.74Z"/><path class="n" d="M662.82,433.89a27.54,27.54,0,0,1-1.77,7.74,15,15,0,0,0-2.61-1.26,21.86,21.86,0,0,0,1.53-7Zm24.21-1c-1.38,1.14-2.82,2.37-4.08,3.3a11.63,11.63,0,0,0,4.5,3.57,16,16,0,0,0-2.1,2.91A13.87,13.87,0,0,1,680.1,437v3.42c0,1.53-.24,2.37-1.2,2.85a9,9,0,0,1-4.08.54,12.34,12.34,0,0,0-.84-3c1,0,2.13,0,2.46,0s.48-.12.48-.42v-7.2c-1.11,4.56-3.3,7.71-6.09,9.42a12.77,12.77,0,0,0-2.22-2.37,10.5,10.5,0,0,0,4.65-5.34h-2.91v-2.79l-2.1,1c-.09-.51-.27-1.11-.45-1.77l-1.5.12v12.42h-3.06V431.7l-4.17.33-.36-3.09,2.16-.12c.45-.54.9-1.14,1.35-1.77a27.61,27.61,0,0,0-3.42-4.2l1.74-2.4c.21.21.45.42.69.63a36.81,36.81,0,0,0,2.16-5.19l3.09,1.08a67.54,67.54,0,0,1-3.39,6.12,15.09,15.09,0,0,1,1,1.17,48.36,48.36,0,0,0,2.7-4.86l2.91,1.35c-1.65,2.52-3.69,5.49-5.58,7.89l2.61-.15c-.3-.66-.63-1.32-1-1.92l2.52-1.05a26.09,26.09,0,0,1,2.67,6.36l-.33.15h4l.54-.09,1.8.72V430h-5.79V418.83h4.68a24,24,0,0,0,1.05-3l4,.57c-.42.84-.87,1.68-1.32,2.43h6.18V430H680.1v.27a21,21,0,0,0,1.32,3.42,29.75,29.75,0,0,0,2.73-3Zm-18,.42a22,22,0,0,1,1.47,5.13l-2.64.84a22.21,22.21,0,0,0-1.32-5.22Zm5.28-10.17h8v-1.53h-8Zm0,4.17h8V425.7h-8Z"/><path class="n" d="M685.74,447v26.88h-3.48V472.8H663.51v1.08h-3.36V447Zm-3.48,22.62V450.21H663.51v19.41Zm-.87-6.18a27.12,27.12,0,0,1-3.06,2,18.32,18.32,0,0,0,3.54,1.23,10.05,10.05,0,0,0-1.8,2.28A18.25,18.25,0,0,1,674,465.6V469h-3.12v-3.12a28.81,28.81,0,0,1-5.13,2.49,14.46,14.46,0,0,0-1.92-2.25,24.37,24.37,0,0,0,6.93-3.15h-4.71V457.8h13.83v4.65Zm-.18-6.54H664.53v-2h6.69v-1.14h-5.28v-1.92h5.28v-1.26h3.24v1.26H680v1.92h-5.52v1.14h6.75ZM669,461.13h7.74v-1.5H669Zm5.61,1.89a12.71,12.71,0,0,0,1.65,1.32c.63-.42,1.32-.93,2-1.41h-3.51Z"/><path class="n" d="M685.5,477.84v25.71h-3.72v-1.83H664.05v1.83h-3.57V477.84Zm-21.45,3.45v6.6H671v-6.6Zm0,16.83H671v-6.66h-6.9Zm17.73-16.83h-7.2v6.6h7.2Zm0,16.83v-6.66h-7.2v6.66Z"/><path class="n" d="M658.56,531.33c1.08-1.59,1.47-4.17,1.59-6.81l2,.36c-.18,2.82-.48,5.7-1.74,7.44Zm13.68-10.77s0,.81-.06,1.2c-.3,7.2-.66,10-1.38,11a2.53,2.53,0,0,1-1.8,1,14.56,14.56,0,0,1-2.7.09,7.42,7.42,0,0,0-.75-2.79,17.15,17.15,0,0,0,1.89.09.84.84,0,0,0,.81-.36,6.59,6.59,0,0,0,.6-2.7l-.93.36a16.51,16.51,0,0,0-1.38-3.9l1.44-.48a21.82,21.82,0,0,1,1,2.43c.06-.9.12-2,.18-3.18H660.3V506.94h11.46v2.88H668.1v1.74h3.18v2.7H668.1V516h3.18v2.67H668.1v1.86ZM664,525a29.71,29.71,0,0,1,.33,5.52l-1.65.21a35.51,35.51,0,0,0-.21-5.55Zm-.66-15.21v1.74h1.92v-1.74Zm1.92,4.44H663.3V516h1.92Zm-1.92,6.3h1.92V518.7H663.3Zm2.7,4.17a24,24,0,0,1,1,4.83l-1.59.3a24.56,24.56,0,0,0-.93-4.86Zm15.66-4.47c.87,4.74,2.55,8.79,5.67,10.8a11.9,11.9,0,0,0-2.31,2.88c-3.78-2.73-5.52-7.56-6.51-13.68H677.1c-.09,4.53-.69,10.08-3.15,13.68a13,13,0,0,0-2.85-1.77c2.55-3.81,2.76-9.39,2.76-13.74V506.91H686v13.35Zm-4.53-10.05V517h5.64v-6.81Z"/><rect class="h" x="28" y="342.23" width="425" height="147" rx="14.74"/><path class="n" d="M91.39,382.72v22.39h-2.9v-.9H72.87v.9h-2.8V382.72Zm-2.9,18.84V385.39H72.87v16.17Zm-.72-5.14a24.56,24.56,0,0,1-2.55,1.7,15.13,15.13,0,0,0,3,1,8.49,8.49,0,0,0-1.5,1.9,15.18,15.18,0,0,1-5-2.82V401H79v-2.6a23.6,23.6,0,0,1-4.27,2.07,12.25,12.25,0,0,0-1.6-1.87A20.15,20.15,0,0,0,78.92,396H75v-4.27H86.52v3.87ZM87.62,391H73.72v-1.68H79.3v-1H74.9v-1.6h4.4v-1.05H82v1.05h4.6v1.6H82v1h5.63Zm-10.15,3.52h6.45v-1.25H77.47Zm4.67,1.58a10.74,10.74,0,0,0,1.38,1.1c.52-.35,1.1-.78,1.62-1.18H82.22Z"/><path class="n" d="M116.19,383.42v21.42h-3.1v-1.53H98.32v1.53h-3V383.42Zm-17.87,2.87v5.5h5.75v-5.5Zm0,14h5.75v-5.55H98.32Zm14.77-14h-6v5.5h6Zm0,14v-5.55h-6v5.55Z"/><path class="n" d="M118.75,403c.9-1.32,1.22-3.47,1.32-5.67l1.65.3c-.15,2.35-.4,4.74-1.45,6.19Zm11.4-9s0,.67-.05,1c-.25,6-.55,8.37-1.15,9.12a2.13,2.13,0,0,1-1.5.87,12.53,12.53,0,0,1-2.25.08,6.11,6.11,0,0,0-.63-2.32,15.39,15.39,0,0,0,1.58.07.69.69,0,0,0,.67-.3,5.49,5.49,0,0,0,.5-2.25l-.77.3a13.84,13.84,0,0,0-1.15-3.25l1.2-.4a19.26,19.26,0,0,1,.85,2c0-.75.1-1.63.15-2.65h-7.4V382.67h9.55v2.4h-3v1.45h2.65v2.25H126.7v1.47h2.65v2.23H126.7V394Zm-6.9,3.72a24.76,24.76,0,0,1,.27,4.6l-1.37.18a29.71,29.71,0,0,0-.18-4.63Zm-.55-12.67v1.45h1.6v-1.45Zm1.6,3.7h-1.6v1.47h1.6ZM122.7,394h1.6v-1.55h-1.6Zm2.25,3.47a20.5,20.5,0,0,1,.85,4l-1.33.25a20.73,20.73,0,0,0-.77-4Zm13-3.72c.73,4,2.13,7.32,4.73,9a9.7,9.7,0,0,0-1.93,2.39c-3.15-2.27-4.6-6.29-5.42-11.39h-1.18c-.07,3.77-.57,8.4-2.62,11.39a10.73,10.73,0,0,0-2.37-1.47c2.12-3.17,2.29-7.82,2.29-11.45v-9.6h10.13v11.13Zm-3.77-8.38v5.68h4.7v-5.68Z"/><path class="n" d="M157,386.62c-.1.67-.22,1.27-.35,1.87h9.18v13.57c0,1.46-.35,2.13-1.38,2.55A13.36,13.36,0,0,1,160,405a10,10,0,0,0-1-2.52c1.2.07,2.77.07,3.15,0s.57-.12.57-.52V391.22H158l2.5.5c-.35.92-.7,1.82-1.05,2.62h1.82v2.3h-4.22v1.63h4.77v2.4h-4.77v3.69h-2.8v-3.69h-4.62v-2.4h4.62v-1.63h-4.1v-2.3h1.93a18.4,18.4,0,0,0-1-2.52l2.35-.58A15.1,15.1,0,0,1,154.6,394l-1.33.37h3.65a24,24,0,0,0,1-3.12h-9.22V405h-3V388.49h8.1c.1-.6.2-1.2.27-1.87H144.7v-2.78h9.62c.05-.74.1-1.45.13-2.1l3.29.31c-.07.57-.17,1.19-.25,1.79h9.3v2.78Z"/><path class="n" d="M190.59,384.22v20.34h-3.27v-2H174.07v2H171V384.22Zm-3.27,15.3V387.24H174.07v12.28Z"/><path class="n" d="M204.8,383.27c-.15.65-.33,1.42-.45,2.05s-.33,1.65-.5,2.55c.82-.05,1.57-.1,2.07-.1,2.62,0,4.47,1.17,4.47,4.72,0,2.93-.35,6.88-1.4,9-.82,1.72-2.2,2.27-4.07,2.27a13.86,13.86,0,0,1-2.95-.35l-.55-3.27a14.57,14.57,0,0,0,3,.52,1.79,1.79,0,0,0,1.84-1.07c.7-1.38,1-4.33,1-6.78,0-2-.85-2.25-2.42-2.25-.4,0-1,.05-1.7.1-.95,3.75-2.75,9.58-5,13.22l-3.25-1.3c2.43-3.24,4.1-8.19,5-11.57-.87.1-1.65.2-2.12.28-.7.07-2,.25-2.75.37l-.28-3.35a21,21,0,0,0,2.63,0c.77,0,1.95-.1,3.2-.2a27,27,0,0,0,.52-5.25Zm8.54,2.32a44.77,44.77,0,0,1,4.33,9.2l-3.13,1.48c-.65-2.75-2.42-7.23-4.2-9.43Z"/><path class="n" d="M225.87,393.64a12.17,12.17,0,0,1,7.27-2.35c4.35,0,6.88,2.68,6.88,5.68,0,4.52-3.58,8-13.87,7.09l-1-3.24c7.42,1,11.34-.78,11.34-3.93,0-1.6-1.52-2.77-3.7-2.77A8.65,8.65,0,0,0,226,397a5.34,5.34,0,0,0-.92,1.45l-2.88-.73a88.89,88.89,0,0,0,1.23-10.32l3.35.45C226.47,389.24,226.05,392.22,225.87,393.64Zm.78-10.75a77.57,77.57,0,0,0,9.89,1.93l-.75,3.05c-2.5-.33-8-1.48-9.94-2Z"/><path class="n" d="M251.87,388.09a20.71,20.71,0,0,1-1.87,3v14.05h-2.78V394.47c-.65.67-1.3,1.3-1.95,1.85a18.5,18.5,0,0,0-1.57-2.78,20.45,20.45,0,0,0,5.57-6.4Zm-.42-5.24a29.54,29.54,0,0,1-5.95,6.07,22.88,22.88,0,0,0-1.58-2.15,20.05,20.05,0,0,0,4.9-5ZM261.09,402a17,17,0,0,0,1.9.1c.8,0,3.65,0,4.73,0a8.46,8.46,0,0,0-.85,2.72h-4.13c-3.45,0-6.17-.7-8.09-3.42a10.71,10.71,0,0,1-2.25,3.82,14.88,14.88,0,0,0-2.3-1.85c2.05-2,2.8-5.27,3-9.14l2.9.22c-.1,1.28-.25,2.45-.45,3.58a6,6,0,0,0,2.7,3.17v-8.72h-6.65v-2.63h6.45v-2.62H252.8v-2.55h5.27v-2.85h2.82v2.85h5.35v2.55h-5.35v2.62h6.5v2.63h-6.3v3h5.3V398h-5.3Z"/><path class="n" d="M277.22,393.17a22.65,22.65,0,0,1-5.07,5.92,18.64,18.64,0,0,0-2.65-1.92,15.48,15.48,0,0,0,4.65-4.95Zm2.13-1.25h-9.78v-2.8h3.35v-5.65h3v5.65h3.37V381.8h3v2.34h7.2v2.65h-7.2v2.33H292v2.8h-9.68v4.65c0,1.35-.27,2.1-1.25,2.5a11.88,11.88,0,0,1-4.12.4,10.2,10.2,0,0,0-.9-2.68c1.1,0,2.48,0,2.83,0s.5-.1.5-.35Zm10.17,7.2A13.78,13.78,0,0,0,288,397c-2.5,5.42-7.37,7.34-15.14,8.29a8.59,8.59,0,0,0-1.43-2.89c7.15-.53,11.62-2,13.67-6.68l2.4.68a34.47,34.47,0,0,0-2.75-2.78l2.43-1.52a26.31,26.31,0,0,1,4.92,5.3Z"/><path class="n" d="M300.15,400.72l1.72-2.33a5.86,5.86,0,0,0,4.13,1.9c1.87,0,3.15-.92,3.15-2.57,0-1.83-1.08-3-5.1-3v-2.65c3.4,0,4.5-1.18,4.5-2.83a2.21,2.21,0,0,0-2.48-2.32,5.27,5.27,0,0,0-3.5,1.65l-1.87-2.25a8.2,8.2,0,0,1,5.55-2.28c3.57,0,6,1.75,6,4.93a4.38,4.38,0,0,1-3.1,4.22v.13a4.61,4.61,0,0,1,3.69,4.55c0,3.39-3,5.37-6.49,5.37A7.87,7.87,0,0,1,300.15,400.72Z"/><path class="n" d="M337.64,382.05a28.82,28.82,0,0,0,7.43,8.89,14.62,14.62,0,0,0-2.53,2.68c-.52-.48-1.05-1-1.6-1.6v.17c-.27,7.55-.57,10.5-1.45,11.55a3,3,0,0,1-2.27,1.17,24.31,24.31,0,0,1-3.78.08,7.25,7.25,0,0,0-1-3c1.37.1,2.67.12,3.3.12a1.19,1.19,0,0,0,1-.34c.5-.53.77-2.75,1-8h-4.93c-.62,4.8-2.24,9.07-8.72,11.5a10,10,0,0,0-2-2.75c5.65-1.82,7-5.1,7.45-8.75h-4.23V392a17.38,17.38,0,0,1-2,1.8,18.18,18.18,0,0,0-2.55-2.4,20.73,20.73,0,0,0,7.38-9.34l3.2.92a30.3,30.3,0,0,1-4.95,7.87h13.49a42.57,42.57,0,0,1-5.22-7.67Z"/><path class="n" d="M349.72,385.72l10.7-1c2.55-.2,5.25-.35,7-.43l0,3.2a25.52,25.52,0,0,0-4.77.33,7.52,7.52,0,0,0-5.23,6.92c0,4.08,3.8,5.55,8,5.75L364.29,404c-5.2-.32-10.09-3.12-10.09-8.49a9.83,9.83,0,0,1,3.64-7.63c-2.14.23-7.34.78-10.22,1.4l-.32-3.4C348.3,385.82,349.25,385.77,349.72,385.72ZM366,393.34l-1.9.85a19.55,19.55,0,0,0-1.95-3.47l1.85-.78A33.68,33.68,0,0,1,366,393.34Zm2.9-1.22L367,393a21.66,21.66,0,0,0-2.05-3.38l1.83-.85C367.39,389.67,368.34,391.14,368.87,392.12Z"/><path class="n" d="M393.72,388.67c-1.5-.08-3.83-.13-7.18-.13,0,1.25,0,2.6,0,3.68a6.11,6.11,0,0,1,.92,3.42c0,3.23-1.9,7.33-7.94,9L376.92,402c2.5-.53,4.67-1.35,6.05-2.83a5,5,0,0,1-1.13.13,4.36,4.36,0,0,1-4.27-4.55,4.67,4.67,0,0,1,4.95-4.63,5.86,5.86,0,0,1,1,.08l0-1.65c-3.75.05-7.57.2-10.62.37l-.08-3c2.83,0,7.33-.12,10.65-.17a5.26,5.26,0,0,0,0-.75,16.91,16.91,0,0,0-.22-2.15h3.6c-.08.4-.15,1.72-.18,2.12,0,.2,0,.45,0,.75,2.5,0,5.87,0,7.17,0Zm-11.28,7.9c1,0,1.95-.78,1.63-2.93a1.77,1.77,0,0,0-1.63-.87,1.9,1.9,0,1,0,0,3.8Z"/><path class="n" d="M404.35,400.79a4,4,0,1,1-4.05-4.05A4,4,0,0,1,404.35,400.79Zm-1.8,0A2.24,2.24,0,1,0,400.3,403,2.24,2.24,0,0,0,402.55,400.79Z"/><path class="n" d="M90.22,443.64c0,1,0,3.37,0,3.47H86.82l0-1.37h-12l0,1.37H71.37c0-.12.08-2.3.08-3.49V431.39c0-.7,0-1.72,0-2.42,1,0,2,0,2.65,0H87.79c.63,0,1.58,0,2.48,0,0,.75,0,1.67,0,2.42ZM74.8,432.19v10.38H86.87V432.19Z"/><path class="n" d="M95.55,435.12c.9.07,2.72.15,4,.15H113c1.15,0,2.28-.1,2.93-.15V439c-.6,0-1.88-.12-2.93-.12H99.57c-1.42,0-3.1.05-4,.12Z"/><path class="n" d="M123.82,428c1.25,1.75,3.4,5.58,4.33,7.33l-3.3,1.87a57.39,57.39,0,0,0-4.23-7.55Zm9.07,10.45a19.48,19.48,0,0,0,3-7.55,14.36,14.36,0,0,0,.33-3l4.05.57c-.3.95-.58,2.18-.75,2.9a26.17,26.17,0,0,1-3.48,8.78,21.21,21.21,0,0,1-8.67,7.67l-3-2.58A18.81,18.81,0,0,0,132.89,438.44Z"/><path class="n" d="M155.72,441.07a23.75,23.75,0,0,0,9.1-9.73l2,3.53a26.71,26.71,0,0,1-9.25,9.25,27.14,27.14,0,0,1-9.27,3.52l-2.1-3.3A25.71,25.71,0,0,0,155.72,441.07Zm0-8.1-2.55,2.62a52,52,0,0,0-6.25-5.4l2.35-2.5A53,53,0,0,1,155.72,433Z"/><path class="n" d="M180,444.79a22.26,22.26,0,0,0,2.3-.4c3.17-.75,5.62-3,5.62-6.62,0-3.43-1.85-6-5.17-6.55a53.6,53.6,0,0,1-1.48,6.72c-1.47,5-3.62,8.05-6.32,8.05s-5.05-3-5.05-7.2c0-5.7,5-10.6,11.4-10.6,6.12,0,10,4.28,10,9.68,0,5.2-3.2,8.89-9.45,9.84Zm-1.92-7.5a40.22,40.22,0,0,0,1.32-6,7.76,7.76,0,0,0-6.27,7.18c0,2.5,1,3.72,1.92,3.72S177.1,440.64,178.1,437.29Z"/><path class="n" d="M215.74,443.42h1.68v2.22h-1.68v3.22h-2.57v-3.22h-4.95v-2.22h1.57v-2.93h-.6v-.62c-1.17,4.75-3.57,7.57-6.77,9.07a8.65,8.65,0,0,0-1.8-1.65,10.3,10.3,0,0,0,4-3,13.23,13.23,0,0,0-1.38-1.27c-.25.25-.47.47-.72.7a13.77,13.77,0,0,0-1.38-1.23l-.12.1a3.72,3.72,0,0,1-1.33.5,9,9,0,0,1-1.42.05,6.14,6.14,0,0,0-.63-2.45,6.81,6.81,0,0,0,.93.05,1.1,1.1,0,0,0,.65-.22,2.28,2.28,0,0,0,.32-1.48,7.32,7.32,0,0,0-1.4-4.4c.43-1.57.88-3.75,1.18-5.45h-1.78v19.62h-2.52V426.6h5.1l.37-.11,1.85,1c-.52,2.15-1.27,4.93-1.87,6.93a8.55,8.55,0,0,1,1.55,5.05,7.64,7.64,0,0,1-.15,1.62,12.43,12.43,0,0,0,2.45-4.72c-.38.2-.78.37-1.15.52a12.35,12.35,0,0,0-1.7-2.05,13.8,13.8,0,0,0,5-2.82h-4.17v-2.48h2.25a14.39,14.39,0,0,0-1.5-2.6l2.15-1a10.29,10.29,0,0,1,1.85,3.07l-1,.5h2.1v-4h2.75v4H213l-1-.42a21.44,21.44,0,0,0,1.78-3.2l2.57.95c-.72,1-1.42,1.92-2,2.67H217V432h-4.48a13.52,13.52,0,0,0,5,2.62,10.69,10.69,0,0,0-1.72,2.1l-.08,0v1.55h1.4v2.22h-1.4Zm-6.55-4.93v-.22h4v-1.83h2a14.88,14.88,0,0,1-4.23-3v3.45h-2.75v-3.27a15.85,15.85,0,0,1-3.69,2.7l2.19.45a11,11,0,0,1-.45,1.37h1.43l.42-.07Zm-4,1.83c-.25.42-.5.82-.75,1.22.45.35.93.73,1.32,1.08a12.42,12.42,0,0,0,.93-2.3Zm7.95,3.1v-2.93h-1.28v2.93Z"/><path class="n" d="M225.65,427.62a20.81,20.81,0,0,0-.6,2.2,61.23,61.23,0,0,0-1.2,9.07,11.08,11.08,0,0,0,.1,1.6c.35-.87.75-1.7,1.1-2.5l1.55,1.2a60.61,60.61,0,0,0-1.78,6.07,8.09,8.09,0,0,0-.15,1.15c0,.28,0,.68.05,1l-2.85.2a31.61,31.61,0,0,1-1-8.1,69.6,69.6,0,0,1,1-9.8,18.51,18.51,0,0,0,.25-2.42Zm5.79,12.22a8.58,8.58,0,0,0-.29,2.08c0,1.1.94,1.75,3.44,1.75a29.13,29.13,0,0,0,6.2-.65l.08,3.34a34.41,34.41,0,0,1-6.4.5c-4.27,0-6.3-1.55-6.3-4.07a15.28,15.28,0,0,1,.43-3.22Zm8.65-10.6v3.2a67.24,67.24,0,0,1-10.62,0l0-3.2A49.76,49.76,0,0,0,240.09,429.24Z"/><path class="n" d="M261.92,433a12.79,12.79,0,0,0-.45,1.28c2.87,1,4.77,3.17,4.77,6.07,0,3.48-2.07,6.9-8.15,7.8l-1.65-2.6c4.78-.53,6.73-2.92,6.73-5.35a3.68,3.68,0,0,0-2.55-3.47,19.27,19.27,0,0,1-5.22,7.49c.17.66.37,1.25.57,1.85l-2.85.85c-.1-.3-.22-.65-.32-1a8.86,8.86,0,0,1-3.83,1c-1.82,0-3.35-1.1-3.35-3.62,0-3.15,2.63-6.5,6.08-8.12.07-1.05.15-2.1.25-3.1h-.8c-1.3,0-3.23-.1-4.38-.15l-.1-2.88a39.45,39.45,0,0,0,4.58.33h.95l.15-1.33a9.21,9.21,0,0,0,.07-1.47l3.25.07a11.11,11.11,0,0,0-.35,1.33c-.1.4-.17.85-.25,1.32a41.33,41.33,0,0,0,8.4-1.05l0,2.85a71.86,71.86,0,0,1-8.79.9c-.08.73-.15,1.48-.18,2.23a16.29,16.29,0,0,1,3.7-.45h.42c.1-.5.2-1.13.23-1.48Zm-9.75,10.1a35.25,35.25,0,0,1-.52-4.95c-1.85,1.25-3.1,3.15-3.1,4.55,0,.77.35,1.2,1.15,1.2A5.17,5.17,0,0,0,252.17,443.09Zm2.25-6.2a28,28,0,0,0,.28,4.1,14.22,14.22,0,0,0,3.12-4.7,12.27,12.27,0,0,0-3.4.55Z"/><path class="n" d="M277.32,426.69a40.5,40.5,0,0,0-1,5.13c1.18-1.9,3.33-4,6.12-4,3.45,0,6.13,3.37,6.13,8.82,0,7-4.3,10.35-10.85,11.55l-1.87-2.88c5.49-.85,9.34-2.64,9.34-8.64,0-3.83-1.27-5.95-3.32-5.95-2.92,0-5.47,4.4-5.6,7.65a15.43,15.43,0,0,0,.13,2.62l-3.08.2a32.87,32.87,0,0,1-.3-4.12,61,61,0,0,1,.7-7.93,24,24,0,0,0,.2-2.6Z"/><path class="n" d="M313.29,446.81a18.58,18.58,0,0,0-5-3.42c0,.32,0,.62,0,.87,0,2.13-1.6,3.75-4.87,3.75-3.95,0-6.05-1.5-6.05-4.12s2.3-4.25,6.12-4.25a14.85,14.85,0,0,1,1.52.08c0-.75-.07-1.53-.09-2.25h-1.28c-1.45,0-4.3-.13-5.95-.33l0-2.92a45.69,45.69,0,0,0,6,.45h1.18v-2.58h-1.18a42.06,42.06,0,0,1-5.37-.37l0-2.83a32.79,32.79,0,0,0,5.38.48h1.22v-1.13a9.93,9.93,0,0,0-.12-1.7h3.37a16.61,16.61,0,0,0-.18,1.75l0,1a54.39,54.39,0,0,0,5.9-.6l.07,2.85c-1.62.15-3.62.35-6,.47l0,2.58c2.5-.1,4.57-.33,6.6-.58v2.93c-2.23.25-4.15.42-6.55.5,0,.92.1,1.92.17,2.87a19.18,19.18,0,0,1,6.93,3.75Zm-8.14-4.44a13.33,13.33,0,0,0-2-.18c-1.75,0-2.7.68-2.7,1.52s.88,1.53,2.58,1.53c1.32,0,2.17-.4,2.17-1.82C305.17,443.14,305.17,442.79,305.15,442.37Z"/><path class="n" d="M341.49,432.42c-1.5-.08-3.82-.13-7.17-.13,0,1.25,0,2.6,0,3.68a6,6,0,0,1,.93,3.42c0,3.23-1.9,7.32-7.95,9l-2.62-2.65c2.5-.52,4.67-1.34,6.05-2.82a5.07,5.07,0,0,1-1.13.13,4.36,4.36,0,0,1-4.27-4.55,4.66,4.66,0,0,1,4.94-4.63,5.89,5.89,0,0,1,1,.08l0-1.65c-3.75.05-7.58.2-10.63.37l-.07-3c2.82,0,7.32-.12,10.64-.17,0-.3,0-.58,0-.75a16.6,16.6,0,0,0-.23-2.15h3.6c-.07.4-.15,1.72-.17,2.12,0,.2,0,.45,0,.75,2.5,0,5.88,0,7.18,0Zm-11.27,7.9c1,0,1.95-.78,1.62-2.93a1.75,1.75,0,0,0-1.62-.87,1.9,1.9,0,1,0,0,3.8Z"/><path class="n" d="M352.12,444.54a4,4,0,1,1-4.05-4.05A4.05,4.05,0,0,1,352.12,444.54Zm-1.8,0a2.24,2.24,0,1,0-2.25,2.22A2.22,2.22,0,0,0,350.32,444.54Z"/><rect class="k" x="558" y="416.23" width="80" height="46.53"/><path class="n" d="M586.38,432.08c-.1.7-.23,1.32-.36,1.95h9.54v14.12c0,1.5-.36,2.21-1.43,2.65a14.1,14.1,0,0,1-4.65.44,10.14,10.14,0,0,0-1-2.63c1.25.08,2.89.08,3.28.06s.59-.13.59-.55V436.86h-5l2.6.52c-.37,1-.73,1.9-1.09,2.73h1.89v2.39h-4.39v1.69h5v2.5h-5v3.85H583.5v-3.85h-4.81v-2.5h4.81V442.5h-4.27v-2.39h2a19.9,19.9,0,0,0-1-2.62l2.45-.6a16.21,16.21,0,0,1,1.17,2.83l-1.38.39h3.79a24.43,24.43,0,0,0,1-3.25h-9.59v14.38h-3.12V434H583c.11-.63.21-1.25.29-1.95h-9.7v-2.89h10c.05-.78.1-1.51.13-2.18l3.43.31c-.08.6-.18,1.25-.26,1.87h9.67v2.89Z"/><path class="n" d="M621.28,429.58v21.17h-3.41v-2.06H604.09v2.11h-3.25V429.58Zm-3.41,15.91V432.73H604.09v12.76Z"/><polygon class="o" points="154.58 20.46 154.58 26.78 160.85 26.74 160.94 47 168.03 47 168.03 26.78 174.25 26.78 174.25 20.46 154.58 20.46"/><path class="o" d="M175,47V28.52a9.74,9.74,0,0,1,19.4,0c.27,3.59-2.35,7.71-3.06,8.7-.53.78,0,1,.56,1h2.24v6.08l-5.08-.08c-2.92-.68-5-2.16-5.34-6.31.18-3.58,3.57-6.35,3.5-8.61a2.52,2.52,0,0,0-2.41-2.39,2.6,2.6,0,0,0-2.77,2.32C182,31,182,47,182,47Z"/><polyline class="a" points="195.85 19.69 195.85 44.23 201.9 44.23 201.9 19.69"/><rect class="o" x="195.85" y="19.46" width="6.04" height="24.77"/><path class="o" d="M202.94,31.84s.66-11.12,12.45-11.41c0,0,4.28-.07,8.64,3.94l-4.67,3.79A6.42,6.42,0,0,0,215,26.33,6.17,6.17,0,0,0,209,32a5.83,5.83,0,0,0,4.87,6.32h4.43V32H224V44.22h-10.2S202.94,43.26,202.94,31.84Z"/><path class="o" d="M237.53,20.16A11.86,11.86,0,0,0,225.45,32a12.08,12.08,0,0,0,24.16,0A11.86,11.86,0,0,0,237.53,20.16Zm0,18a6,6,0,1,1,6-6h0a6,6,0,0,1-6,6h0Z"/><path class="a" d="M243.55,32.11a6,6,0,1,1-6-6,6,6,0,0,1,6,6Z"/><polygon class="p" points="184.1 11.27 184.1 18.49 186.65 18.49 186.65 16.53 190.7 17.99 190.7 15.48 186.65 13.9 186.65 11.27 184.1 11.27"/><rect class="p" x="193.79" y="11" width="2.58" height="4.08"/><path class="p" d="M198.48,11v4.71a4.21,4.21,0,0,1-2.11,2.58h3.7a5.42,5.42,0,0,0,1-2.58V11"/><rect class="p" x="203.21" y="13.9" width="5.04" height="1.67"/><polyline class="p" points="214.53 16.56 210.5 16.56 210.5 18.07 217.19 18.07 217.19 11.82 210.5 11.82 210.5 13.44 214.53 13.44"/><rect class="p" x="217.48" y="11.82" width="0.85" height="0.93"/><rect class="p" x="218.63" y="11.82" width="0.85" height="0.93"/></g><rect class="a" y="-0.77" width="709" height="709"/></g></svg>