<svg xmlns="http://www.w3.org/2000/svg" viewBox="0 0 338.04 45.08"><defs><style>.a{fill:#932323;}</style></defs><title>アセット 1</title><path class="a" d="M30.86,10.43c-.12.86-.92,1.59-1,2.38s-.31,1.65-.43,2.44.43,1.83.25,2.62-1,1.47-1.28,2.26-.25,1.65-.49,2.44-.49,1.59-.73,2.38-.07,1.77-.31,2.56-1.16,1.35-1.46,2.14-.43,1.58-.8,2.32-.18,1.77-.55,2.5-1.4,1.16-1.76,1.89-.8,1.46-1.22,2.2-.55,1.58-1,2.31-1,1.28-1.4,2c-.67,1-1.53,2.19-2.69,2.19-.61,0-1-.91-1.58-1.28-.8-.49-1.65-.91-1.9-1.77a3.68,3.68,0,0,1,.86-2.5,23,23,0,0,0,1.52-2c.43-.73.8-1.53,1.22-2.26s0-1.89.37-2.62.79-1.53,1.1-2.26.91-1.46,1.22-2.26.91-1.4,1.16-2.19.91-1.53,1.16-2.32.42-1.65.67-2.44-.06-1.77.12-2.56.91-1.53,1.1-2.38.06-1.71.18-2.56.31-2,.43-2.81c-1-.37-1.22.49-2.38.55s-1.1.36-2.2.43-1.16-.25-2.26-.25-1.09.18-2.19.25-1.34-.92-2.38-.61c-.31.73-.31,1.83-.61,2.56s-.61,1.4-.92,2.07-.67,1.34-1,2-1,1.16-1.41,1.84-.48,1.46-.85,2.07-.43,1.59-.79,2.2A4,4,0,0,1,3.47,25.5c-.67,0-1.22-.61-1.77-1A3.07,3.07,0,0,1,.23,22.51c-.12-.85-.49-2,.06-2.8.37-.55.8-1.23,1.22-1.9s1.22-1,1.59-1.77S4,14.82,4.38,14.09s.43-1.52.73-2.19.67-1.41,1-2.14-.18-1.71.06-2.44S7.43,6.1,7.61,5.37a14.2,14.2,0,0,0,.31-2.32l.24.06c.19-.91.25-2.07,1-2.56A4.58,4.58,0,0,1,12,.06c.91.25,1.4,1.28,1.89,2a3.71,3.71,0,0,1,.67,2.51c-.06.06-.18-.07-.18,0,1.28-.07,1.28.54,2.56.54s1.28-.91,2.56-1,1.28.12,2.56.06,1.28.37,2.5.3,1.28-.61,2.57-.67c1-.06,1.64,1,2.31,1.71S31.16,7,31.1,7.93,30.92,9.64,30.86,10.43Z"/><path class="a" d="M70.44,12.63c.07,1.16-.24,1.16-.24,2.32s-.06,1.16,0,2.31.18,1.16.18,2.26.25,1.16.25,2.32c.06.91.18,2.07-.37,2.68a3.71,3.71,0,0,1-2.68.86c-.06,0-.06.43-.12.43-.92,0-1.59-1-2.2-1.59A3.18,3.18,0,0,1,64,22.08c-.06-1.16.43-1.16.37-2.31s-.92-1.1-1-2.26.37-1.16.3-2.32.49-1.16.43-2.32L64,10.55C64,9.4,64,9.4,63.92,8.3s-.8-1.16-.8-2.26a3.7,3.7,0,0,1,1.16-2.5,3.52,3.52,0,0,1,2.44-1.1,3.66,3.66,0,0,1,2.57.73,3.93,3.93,0,0,1,1.09,2.56c.06,1.16,0,1.16.06,2.32s.31,1.1.37,2.26S70.38,11.47,70.44,12.63ZM89.29,8.79c0,.85.13,1.64.07,2.5s.3,1.7.3,2.5-.3,1.71-.3,2.5-.13,1.71-.19,2.5-.42,1.71-.49,2.5-.24,1.65-.42,2.5-.37,1.59-.55,2.38-.43,1.65-.67,2.44-.37,1.59-.73,2.32-.92,1.28-1.35,2-.79,1.35-1.28,2A23.92,23.92,0,0,1,82.4,37c-.55.61-1,1.28-1.58,1.83a21.23,21.23,0,0,1-1.9,1.53A22.53,22.53,0,0,1,77.09,42c-.67.49-1.7.31-2.44.73-.48.25-.91.68-1.46.68a3.38,3.38,0,0,1-2.75-1.9c-.42-.79-1.15-1.7-.91-2.56a3.73,3.73,0,0,1,2-1.95c.61-.37,1.28-.79,1.95-1.28s1.1-1.16,1.71-1.71,1.28-1,1.77-1.52a22.24,22.24,0,0,0,1.65-1.77,22.15,22.15,0,0,0,1.59-1.89c.36-.74.06-1.77.3-2.44s1.1-1.41,1.34-2.32.06-1.65.19-2.56.12-1.65.18-2.57.12-1.64.12-2.5.49-1.71.49-2.56.06-1.71.06-2.56-.55-1.65-.55-2.56-.18-1.65-.18-2.57c0-.42.36-.85.36-1.28a3.69,3.69,0,0,1,.8-2.56,3.64,3.64,0,0,1,2.56-.73,3.85,3.85,0,0,1,2.68.61,4.05,4.05,0,0,1,.86,2.68c0,.49.3.86.3,1.28C89.72,7.08,89.29,7.93,89.29,8.79Z"/><path class="a" d="M154.93,22.27a3.36,3.36,0,0,1-1.1,2.32,2.9,2.9,0,0,1-2.25.73v.55c-.8,0-1.59-.55-2.38-.49s-1.59.3-2.38.3-1.53-.12-2.32-.12-1.59.43-2.38.43-1.59-.43-2.38-.43-1.52.25-2.32.25-1.58.48-2.38.48-1.52-.42-2.31-.42-1.59.42-2.38.48-1.59-.79-2.38-.79-1.53.86-2.32.86-1.59-.13-2.38-.07l.06-.3v.49h-.12v-.49A3.08,3.08,0,0,1,121,25c-.61-.61-1.52-1.16-1.52-2.13,0,0,0-.07.12-.07a3.75,3.75,0,0,1,1.22-2.37,3.56,3.56,0,0,1,2.32-1.29V19c.79,0,1.58.67,2.38.67s1.58-.18,2.38-.18,1.52-.49,2.31-.49,1.59-.18,2.38-.18,1.59,0,2.38-.06,1.53.12,2.32.12,1.59-.06,2.38-.06,1.53.37,2.32.3,1.58.13,2.38.13,1.58.24,2.32.24,1.58-.37,2.37-.43,1.59.31,2.38.31a2.88,2.88,0,0,1,2.38.55,3.19,3.19,0,0,1,.74,2.38Z"/><path class="a" d="M215.5,38.25a3.74,3.74,0,0,1-1.83,1.83,3.38,3.38,0,0,1-1.09.12c-.74,0-1.16-.67-1.71-1.1s-1.28-.61-1.53-1.34c0-.12.06-.3-.06-.36-1.28-.06-1.22.36-2.5.42s-1.28-.12-2.5-.06-1.22.55-2.5.61-1.22-.36-2.5-.3-1.28-.19-2.5-.12l-2.51.12c-1.22.06-1.15.91-2.44,1s-1.22.06-2.5.13-1.28-.55-2.5-.49-1.22.3-2.5.36c-.06,0-.12-.3-.18-.3-1,0-2.2.18-2.81-.55s-.55-2.07-.3-3c.12-.79.42-1.53.61-2.32s-.13-1.65.12-2.44.55-1.46.79-2.26.86-1.34,1.16-2.07.79-1.4,1.1-2.14.12-1.64.49-2.37,1.1-1.23,1.46-2,.24-1.64.55-2.38.73-1.4,1.1-2.13.43-1.53.79-2.2.86-1.4,1.22-2.07.61-1.47,1-2.14.85-1.4,1.22-2.07A3.83,3.83,0,0,1,194.7,4.7a3.92,3.92,0,0,1,2.87.3A3.54,3.54,0,0,1,199,7.26a3,3,0,0,1-.48,2.44c-.37.67-.49,1.53-.86,2.32s-.61,1.46-1,2.26-.54,1.52-.91,2.25-1.4,1.1-1.77,1.83-.79,1.47-1.1,2.2-.3,1.65-.67,2.44-.79,1.4-1.1,2.13-.48,1.59-.79,2.38-.3,1.59-.61,2.38-1,1.65-1.22,2.38c1.16.37,1.22-.43,2.38-.55s1.16-.06,2.32-.18,1.22.3,2.38.24,1.09-.42,2.25-.48,1.22.24,2.38.12,1.1-.31,2.26-.37,1.16.18,2.32.12,1.71.67,2.38-.3-.8-1-1.16-2.14-.12-1.16-.49-2.25.18-1.28-.18-2.38-.61-1-1-2.08a3.58,3.58,0,0,1,0-2.62,3.83,3.83,0,0,1,2.08-1.83c.85-.31,1.7.43,2.44.79s1.76.67,2,1.59c.36,1.1-.18,1.28.18,2.38s.49,1.1.8,2.26.42,1.09.79,2.25,1,.86,1.4,2-.06,1.22.31,2.37.3,1.1.67,2.26.42,1.1.79,2.2A3.36,3.36,0,0,1,215.5,38.25Z"/><path class="a" d="M250.21,11.71c-.18.86,0,1.77-.18,2.63s-.55,1.64-.67,2.44-.8,1.64-1,2.44.37,1.83.25,2.68-.62,1.65-.74,2.44.06,1.77-.06,2.56-.36,1.71-.49,2.5-.85,1.65-1,2.44-.31,1.77-.43,2.57A2.79,2.79,0,0,1,245,36.3a2.92,2.92,0,0,1-2,.73,1.17,1.17,0,0,1-.42-.06,2.57,2.57,0,0,1-1.9-1.22,2.7,2.7,0,0,1-.67-2.2c.13-.73.19-1.52.31-2.38s.24-1.52.36-2.31-.12-1.59,0-2.38.07-1.59.19-2.38.61-1.47.73-2.26.06-1.65.18-2.38.55-1.52.73-2.32.55-1.46.74-2.25.3-1.53.48-2.32-.24-1.71-.06-2.44l-.12-.06a3.63,3.63,0,0,1,1.77-2.14A4,4,0,0,1,248,7.75a3.68,3.68,0,0,1,2.26,1.34A3.24,3.24,0,0,1,250.21,11.71Zm20.68,24.16c-.49.18-.73,1-1.22,1a4,4,0,0,1-2-.67c-.49-.37-.37-1.28-.61-1.89s-.86-1.41-1.16-2.14-.61-1.46-.92-2.2-.54-1.52-.85-2.25-.85-1.41-1.1-2.14-.24-1.64-.49-2.38-.36-1.58-.54-2.38-1.29-1.28-1.53-2.07-.06-1.65-.24-2.44-.49-1.53-.67-2.32.12-1.65,0-2.44c0,0-.19.12-.19.06a3.32,3.32,0,0,1,.67-2.5,3.75,3.75,0,0,1,2.14-1.71,4,4,0,0,1,2.5,1,3.05,3.05,0,0,1,1.1,2.14c.18.79.61,1.58.79,2.37s.43,1.59.61,2.38.55,1.59.79,2.38-.24,1.77,0,2.56,1.35,1.29,1.59,2.08-.06,1.77.24,2.56l.92,2.32c.3.73,1.16,1.28,1.46,2.07s.43,1.59.8,2.38a4,4,0,0,1,.18,2.75C272.78,35.26,271.75,35.44,270.89,35.87ZM286,12.14c-.18.73-.92,1.34-1.28,2a8.52,8.52,0,0,1-1,2.14c-.55.61-1.46.73-2.07,1.16a8.63,8.63,0,0,1-2,.91,6.51,6.51,0,0,1-2.2.31c-.24.06-.49.73-.73.73a15,15,0,0,1-2.32-.06,8.73,8.73,0,0,1-2-1,7.91,7.91,0,0,1-2.14-.85c-.67-.49-.79-1.59-1.28-2.32s-1.1-1.34-1.28-2.2.24-1.7.24-2.56a12.16,12.16,0,0,1,0-2.56,8.16,8.16,0,0,1,.67-2.44,7.8,7.8,0,0,1,1.35-2.26,8,8,0,0,1,2-1.1A14.55,14.55,0,0,1,273.88.73a10.21,10.21,0,0,1,2.32.12c.18,0,.3.13.37.13.79,0,1.64-.67,2.44-.55a9.66,9.66,0,0,1,2.07,1.16,6.21,6.21,0,0,1,2.07,1.09,7.31,7.31,0,0,1,1.53,1.83,9.63,9.63,0,0,1,.73,2.2A14.65,14.65,0,0,1,285.53,9c0,.24.67.43.67.67A11.22,11.22,0,0,1,286,12.14Zm-5.8-2.81c-.12-1.4-.18-2.25-.67-2.68s-1.4-.31-2.92-.31c-.13,0-.07-.24-.07-.24s-.06.18-.12.18c-1.16.06-2.07-.12-2.62.43a4.29,4.29,0,0,0-.85,1.77c-.13.49.42,1.1.48,1.83,0,1.71-.12,2.38.37,2.81a4.44,4.44,0,0,0,2.93.91c.12,0,.3-.55.49-.55a2.49,2.49,0,0,0,2.19-1.22,4.56,4.56,0,0,0,1.22-2.56C280.59,9.58,280.16,9.46,280.16,9.33Z"/><path class="a" d="M320.24,13a3.42,3.42,0,0,1-2.5.19c-.61-.06-1.47.79-2.38.79-.73-.06-1.53-.18-2.32-.18h-2.32c-.85,0-1.64-.61-2.31-.61-1.41.06-2.32.18-2.32.18s-.13.67-.19.67a4,4,0,0,1-2.44-1.16,3.52,3.52,0,0,1-1-2.38,3.24,3.24,0,0,1,1.09-2.32c.55-.67,1.22-1.52,2.14-1.58a5,5,0,0,0,2.5.55,23.48,23.48,0,0,1,2.44-.37c.79-.06,1.59-.06,2.44-.06s1.89-.43,2.75-.37a18.89,18.89,0,0,1,2.74.37,3.7,3.7,0,0,1,2.14,1.59,2.94,2.94,0,0,1,.36,2.32C320.91,11.53,320.91,12.45,320.24,13Zm17.33,7.26c-.55.55-1.59.74-2.26,1.35s-1,1.34-1.59,1.95-1.4,1-2,1.52-1.47.92-2.08,1.53-.91,1.46-1.58,2.07-1.28,1-1.95,1.59-1.16,1.28-1.77,1.77-1.65.67-2.32,1.22-1.4.91-2.14,1.4-1.09,1.34-1.76,1.83-1.47.92-2.14,1.34a3.41,3.41,0,0,1-1.83.49,3.2,3.2,0,0,1-2.69-1.65,3.56,3.56,0,0,1-.85-2.44,3.56,3.56,0,0,1,1.71-2.07c.67-.43,1.22-1.1,1.83-1.53s1.65-.48,2.32-1a22.71,22.71,0,0,0,1.89-1.47,21.08,21.08,0,0,0,1.77-1.64c.67-.49,1.28-1,1.89-1.53s1.1-1.16,1.71-1.64,1.22-1.1,1.77-1.65,1-1.28,1.58-1.83,1.34-.92,1.89-1.47,1.53-.79,2.08-1.34,1-1.28,1.58-1.77c.67-.67,1.35-1.64,2.26-1.64s1.65.85,2.32,1.52a3,3,0,0,1,.79,2.32C338,18.36,338.24,19.58,337.57,20.25Z"/></svg>