<svg xmlns="http://www.w3.org/2000/svg" viewBox="0 0 463.13 46.85"><defs><style>.a{fill:#932323;}</style></defs><title>アセット 3</title><path class="a" d="M37.47,15.62c0,1,.31,2.07-.3,2.68s-1.77.37-2.69.31-1.71-.06-2.56-.06-1.65.54-2.5.54-1.71.19-2.5.19-1.71-.8-2.57-.8c-.24,0-.91.25-1.22.25,0,.91.07,1.83.07,2.68s.61,1.77.54,2.63-.48,1.7-.61,2.5a22.63,22.63,0,0,1-.67,2.5c-.18.85-.55,1.65-.73,2.44s-.18,1.77-.43,2.56a25.38,25.38,0,0,1-1.4,2.14c-.37.79-.24,1.83-.67,2.5s-1.4,1.1-1.89,1.77a16.43,16.43,0,0,1-1.77,1.77,17.21,17.21,0,0,1-2,1.58,16.56,16.56,0,0,1-1.95,1.47c-.55.36-1,1.15-1.65,1.15-1.16,0-2.08-1.15-2.69-2.19a3.19,3.19,0,0,1,.92-4.45,20.6,20.6,0,0,0,2.07-1.47A9.82,9.82,0,0,0,12,36.42a10,10,0,0,0,1.4-2.07,16.19,16.19,0,0,0,1-2.32c.31-.73,1.16-1.34,1.4-2.26a11.9,11.9,0,0,0,.49-2.68c.18-.86-.3-1.83-.18-2.75s.3-1.77.36-2.68-.06-1.47-.06-2.44c-.85.06-1.4.24-2.25.24s-1.77-.67-2.63-.67-1.77-.12-2.62-.06-1.71.79-2.5.85c-1,.06-1.83-.06-2.62.06-.13,0-.25-.12-.37-.12A3.67,3.67,0,0,1,1,18.91a3.64,3.64,0,0,1-1-2.38c-.12-1,.61-1.58,1.16-2.26a2.56,2.56,0,0,1,2-1.15c.67-.06,1.34-.68,2.13-.74s1.46.19,2.26.19,1.46.24,2.26.18S11.3,12,12,12s1.53.42,2.26.42,1.58-.18,2.38-.18c-.06-.79-.37-1.71-.43-2.56s-.43-1.59-.49-2.44.31-1.65.19-2.5-.37-2.08.18-2.75A4.54,4.54,0,0,1,18.68.55a4.68,4.68,0,0,1,2.69.91A4,4,0,0,1,22.89,3.9c.12.92,0,1.83.12,2.75S23,8.48,23,9.39s-.12,2-.06,2.87h1.4c.86,0,1.71.06,2.57.06s1.7-.36,2.56-.3,1.71.55,2.56.55,1.71-.74,2.56-.74a4.55,4.55,0,0,1,2.57,1.29c.61.61.3,1.64.3,2.56Z"/><path class="a" d="M71.14,32.58a2.72,2.72,0,0,1-1,.12c-.73,0-1.28-.61-1.83-1s-1.52-.67-1.76-1.34-.25-1.77-.49-2.68-.37-1.71-.55-2.57.24-1.89.06-2.74-.49-1.71-.67-2.63-.61-1.7-.73-2.56l.36-.06a2.87,2.87,0,0,1,.73-2.19,2.75,2.75,0,0,1,2-1.35,3.46,3.46,0,0,1,2.5.43,3.67,3.67,0,0,1,1.1,2.38c.06.79.61,1.52.73,2.38s.06,1.58.24,2.38.43,1.58.61,2.38-.06,1.71.12,2.44.19,1.77.43,2.44a3.33,3.33,0,0,1,.06,2.44A3.71,3.71,0,0,1,71.14,32.58ZM82.3,25.87a2.74,2.74,0,0,1-.42,2.19,2.71,2.71,0,0,1-1.83,1.28c-.19,0-.37.31-.55.31a4.34,4.34,0,0,1-2.38-.37,4.56,4.56,0,0,1-1-2.19l-.36-2.2c-.13-.73.3-1.59.18-2.32s-.79-1.34-.92-2.07-.36-1.47-.42-2.2.61-1.65.48-2.32c-.12-.85-.67-1.89-.12-2.56s1.59-.61,2.44-.73a2.88,2.88,0,0,1,2.38.24,3.53,3.53,0,0,1,1.59,2.14c.12.85.12,1.77.24,2.68s-.24,1.83-.12,2.75.49,1.77.67,2.62.06,1.89.18,2.68Zm12.82-4.4c-.31.8-.37,1.59-.68,2.32s-.54,1.53-.85,2.26-.24,1.65-.61,2.38-1,1.28-1.34,2-.31,1.65-.67,2.38-.61,1.47-.92,2.2-1.22,1.22-1.58,1.89-.86,1.34-1.22,2.07-.92,1.34-1.29,2.08-.79,1.34-1.22,2,0,1.89-.42,2.56c-.61,1-2.08,1.1-3.17,1.1a3.56,3.56,0,0,1-1.77-.12,3.21,3.21,0,0,1-1.16-2.2A3.06,3.06,0,0,1,78.34,42,25,25,0,0,0,79.93,40c.42-.73.36-1.77.79-2.5s1.28-1.22,1.65-2,.79-1.53,1.15-2.26.19-1.83.55-2.56.61-1.59,1-2.32,1.1-1.34,1.46-2.14.49-1.58.86-2.38.42-1.64.73-2.44.67-1.52,1-2.31,1.28-1.22,2-1.53a2.94,2.94,0,0,1,2.38-.24,3,3,0,0,1,1.71,1.77A3.09,3.09,0,0,1,95.12,21.47Z"/><path class="a" d="M131.47,24.52a3.34,3.34,0,0,1-1.83,1.71,4.74,4.74,0,0,1-.92.06,3.38,3.38,0,0,1-2-.61A3.32,3.32,0,0,1,125.43,24c-.24-.74-.67-1.47-.92-2.26s.19-1.65,0-2.44-.67-1.4-.85-2.2-.12-1.58-.24-2.38a23,23,0,0,1-.37-2.32c-.12-.79-.67-1.46-.73-2.25s.24-1.65.18-2.38h-.43a3.45,3.45,0,0,1,.74-2.56,4.11,4.11,0,0,1,2.31-1.59,4.21,4.21,0,0,1,2.81.79A4,4,0,0,1,128.85,7c.12.79.42,1.64.55,2.5s.42,1.64.54,2.5.31,1.71.49,2.5,0,1.77.19,2.56.42,1.71.61,2.5.79,1.65,1,2.38C132.51,22.88,131.9,23.73,131.47,24.52Zm12-3a4,4,0,0,1-2.38,1.53,3,3,0,0,1-.73,0,3.54,3.54,0,0,1-2.08-1,2.92,2.92,0,0,1-1.1-1.89c-.18-.73-.12-1.52-.24-2.32s-1-1.4-1.16-2.13-.12-1.59-.18-2.32,0-1.59-.06-2.32-.37-1.52-.49-2.26-.43-1.52-.55-2.25a4.08,4.08,0,0,1,1-2.69,4.06,4.06,0,0,1,2.19-1.7A4.2,4.2,0,0,1,140.5,3a3.81,3.81,0,0,1,1.28,2.44c.12.73-.06,1.52.06,2.26s.18,1.52.31,2.25.73,1.41.85,2.14-.61,1.65-.49,2.38.92,1.4,1,2.13-.12,1.53,0,2.26C143.73,19.77,144,20.86,143.49,21.53Zm15.49-6c-.24.73-.55,1.46-.85,2.19s-1.22,1.16-1.53,1.89-.12,1.65-.42,2.38-1.22,1.16-1.53,1.89a21.3,21.3,0,0,1-.67,2.26c-.3.73-.61,1.47-1,2.2s-.48,1.46-.85,2.19-.61,1.41-1,2.14-.73,1.34-1.09,2.07-1,1.22-1.41,1.89a19.52,19.52,0,0,1-1.1,2.08c-.36.73-.48,1.58-.85,2.26s-1.34,1-1.77,1.64l.25.19a3.59,3.59,0,0,1-2.75,2A3.09,3.09,0,0,1,139.16,42a3.39,3.39,0,0,1,.24-2.68c.37-.74.67-1.53,1-2.2s1.58-1,2-1.71.61-1.52,1-2.19.61-1.53,1-2.26.92-1.34,1.28-2.07.61-1.53,1-2.26.61-1.53,1-2.26.67-1.46,1-2.2.06-1.76.37-2.5.67-1.52,1-2.25,1.4-1.22,1.7-2-.06-1.76.25-2.5.73-1.46,1-2.25a3.36,3.36,0,0,1,2-1.83,3.14,3.14,0,0,1,2.56.18,3.13,3.13,0,0,1,1.77,1.65,3.39,3.39,0,0,1,.43,2.62C159.53,14,159.29,14.82,159,15.56Z"/><path class="a" d="M220.9,22.33a3,3,0,0,1-2.2,1H216c-.92,0-1.83-.18-2.69-.18s-1.83.24-2.74.24-1.77.37-2.69.43c-.12.79-.61,1.53-.79,2.38s-.3,1.65-.49,2.44.12,1.77-.06,2.56-.61,1.59-.91,2.38S205.28,35.2,205,36s-1.16,1.34-1.53,2.08-.55,1.58-.85,2.32-.61,1.58-1,2.31-1,1.35-1.47,2c-.67,1-1.46,2.13-2.56,2.13-.67,0-1.22-.73-1.77-1.1a3,3,0,0,1-1.46-2,3.49,3.49,0,0,1,.36-2.56,17,17,0,0,0,.86-2.14c.37-.61,1.22-1,1.59-1.77s.85-1.28,1.15-2,.49-1.46.74-2.2.12-1.52.36-2.31.49-1.41.73-2.14-.06-1.58.07-2.38.54-1.22.67-1.95c-.86.06-1.53-.12-2.38-.06s-1.71.06-2.56.12-1.71.67-2.51.73-1.83-.73-2.62-.61-1.77,0-2.56.06-1.77.19-2.56.31c-.13,0-.19.3-.31.3a3.07,3.07,0,0,1-2-1.09,3.05,3.05,0,0,1-1.16-1.9,2.89,2.89,0,0,1,.91-2.13c.55-.67,1-1.83,1.9-2s1.58-.12,2.37-.25,1.65.43,2.51.37,1.52-.43,2.38-.49,1.58.55,2.43.49,1.53-.55,2.38-.61,1.59.37,2.44.3,1.59-.42,2.38-.48,1.59.24,2.38.18,1.65-.06,2.44-.12,1.59-.67,2.38-.67,1.59-.31,2.38-.37,1.65.24,2.44.24,1.59-.3,2.38-.3h2.44a3.91,3.91,0,0,1,2.44,1.34,3.64,3.64,0,0,1,1.1,2.44A3.23,3.23,0,0,1,220.9,22.33ZM209.92,7a4,4,0,0,1-2.63,1.29c-1.22.06-1.22-.31-2.5-.25s-1.22-.43-2.5-.36-1.22.36-2.44.42-1.22.19-2.5.25-1.22-.25-2.44-.19-1.22.55-2.5.61l-.12-.61c-.92,0-2,.25-2.63-.3a3.73,3.73,0,0,1-.85-2.56c-.06-.92.61-1.53,1.22-2.2s1.1-1.65,2.07-1.71a17.86,17.86,0,0,1,2.5.12A16.62,16.62,0,0,0,197,1.34c1.29-.06,1.22-.24,2.51-.3s1.22.18,2.5.12S203.27,1,204.49,1s1.28.42,2.5.36c.91-.06,1.95-.24,2.62.31a4.45,4.45,0,0,1,1.28,2.56A4,4,0,0,1,209.92,7Zm9.27-1.22c0,.86.37,1.83.37,2.75s-.25,2.07-.31,2.68a2.64,2.64,0,0,1-1,1.65,2.46,2.46,0,0,1-1.71.79c-.06,0-.12.49-.18.49a3.4,3.4,0,0,1-2.13-1,3.39,3.39,0,0,1-.55-2.26,15.86,15.86,0,0,0,.42-2.63c.07-.85-.48-1.83-.48-2.62a7.6,7.6,0,0,1,.61-2.68c0-.73-.13-1.71.36-2.2s1.53,0,2.26.06,1.4-.18,1.89.31,1.22,1.22,1.22,2A7.31,7.31,0,0,0,219.19,5.73Zm7.69,6.41a2.43,2.43,0,0,1-1,1.46,2.16,2.16,0,0,1-1.59.61c-.12,0-.3.68-.42.68-.8-.13-1-1.22-1.41-1.77a2.1,2.1,0,0,1-.49-1.71,19.06,19.06,0,0,0,.13-2.75c.06-.79-.37-1.71-.37-2.68s.31-1.71.31-2.75c0-.12.3.06.3,0l.06-.18c0-.73-.36-1.65.12-2.13a2.87,2.87,0,0,1,4.27.06,2.92,2.92,0,0,1,.49,2.07.22.22,0,0,1-.12.18c0,.8-.06,1.53-.06,2.26s.06,1.53.06,2.2.55,1.52.49,2.25S227,11.35,226.88,12.14Z"/><path class="a" d="M281,34.53a3.36,3.36,0,0,1-1.22,2.26,2.83,2.83,0,0,1-2.32.73c-.85-.06-1.77,0-2.68,0s-1.77-.06-2.68-.12-1.77.61-2.69.61-1.77-.43-2.68-.43-1.71-.25-2.56-.25-1.71.07-2.63.07-1.71.42-2.56.42-1.71.19-2.56.25-1.77-.74-2.63-.67-1.7.24-2.56.3-1.71.31-2.62.31c-.06,0-.12-.25-.18-.25a3.54,3.54,0,0,1-3.12-2.93c-.06-.91-.24-2,.31-2.68a4.28,4.28,0,0,1,2.62-1.1c.73,0,1.53.31,2.32.31s1.53-.55,2.32-.55,1.52.55,2.32.49,1.52-.74,2.25-.74,1.59.49,2.32.43,1.59-.55,2.32-.55h2.32c.79,0,1.52.06,2.32.06s1.46.31,2.19.31,1.47-.37,2.2-.37,1.46.86,2.2.86,1.52-.55,2.19-.55,1.53-.19,2.26-.19a4.3,4.3,0,0,1,2.62,1.28,4,4,0,0,1,.61,2.75Zm-8.36-19.22a3.69,3.69,0,0,1-2.56,1c-.79-.12-1.77-1-2.93-1-1-.06-2,.55-3.05.55-.79,0-1.58.12-2.31.12s-1.65-.42-2.38-.36H257a4.42,4.42,0,0,0-2.14.55s-.18-.61-.24-.61-.06.73-.12.73A3.55,3.55,0,0,1,252.19,15a3,3,0,0,1-1-2.26c-.06-.92.49-1.46,1.1-2.14s1-1.52,2-1.52a5.41,5.41,0,0,0,2.44.43,22.61,22.61,0,0,1,2.44-.43c.74-.06,1.59-.43,2.44-.43s1.59.12,2.44.12h2.32c.73.07,1.53-.06,2.26-.06s1.58,0,2.32.13c.91.12,1.52,1.09,2,1.76s1.34,1.53,1.22,2.45A3.52,3.52,0,0,1,272.62,15.31Z"/><path class="a" d="M315.14,32.58a2.75,2.75,0,0,1-1,.12c-.73,0-1.28-.61-1.83-1s-1.52-.67-1.76-1.34-.25-1.77-.49-2.68-.37-1.71-.55-2.57.24-1.89.06-2.74-.49-1.71-.67-2.63-.61-1.7-.73-2.56l.36-.06a2.87,2.87,0,0,1,.73-2.19,2.75,2.75,0,0,1,2-1.35,3.46,3.46,0,0,1,2.5.43,3.67,3.67,0,0,1,1.1,2.38c.06.79.61,1.52.73,2.38s.06,1.58.24,2.38.43,1.58.61,2.38-.06,1.71.12,2.44.19,1.77.43,2.44a3.33,3.33,0,0,1,.06,2.44A3.74,3.74,0,0,1,315.14,32.58Zm11.16-6.71a2.74,2.74,0,0,1-.42,2.19,2.71,2.71,0,0,1-1.83,1.28c-.19,0-.37.31-.55.31a4.34,4.34,0,0,1-2.38-.37,4.56,4.56,0,0,1-1-2.19l-.36-2.2c-.13-.73.3-1.59.18-2.32s-.79-1.34-.92-2.07-.36-1.47-.42-2.2.61-1.65.48-2.32c-.12-.85-.67-1.89-.12-2.56s1.59-.61,2.44-.73a2.88,2.88,0,0,1,2.38.24,3.53,3.53,0,0,1,1.59,2.14c.12.85.12,1.77.24,2.68s-.24,1.83-.12,2.75.49,1.77.67,2.62.06,1.89.18,2.68Zm12.82-4.4c-.31.8-.37,1.59-.68,2.32s-.54,1.53-.85,2.26-.24,1.65-.61,2.38-1,1.28-1.34,2-.31,1.65-.67,2.38-.61,1.47-.92,2.2-1.22,1.22-1.58,1.89-.86,1.34-1.23,2.07-.91,1.34-1.28,2.08-.79,1.34-1.22,2,0,1.89-.42,2.56c-.61,1-2.08,1.1-3.17,1.1a3.55,3.55,0,0,1-1.77-.12,3.21,3.21,0,0,1-1.16-2.2,3.06,3.06,0,0,1,.12-2.44A22.8,22.8,0,0,0,323.92,40c.43-.73.37-1.77.8-2.5s1.28-1.22,1.65-2,.79-1.53,1.15-2.26.19-1.83.55-2.56.61-1.59,1-2.32,1.1-1.34,1.46-2.14.49-1.58.86-2.38.42-1.64.73-2.44.67-1.52,1-2.31,1.28-1.22,2-1.53a2.94,2.94,0,0,1,2.38-.24,3,3,0,0,1,1.71,1.77A3.09,3.09,0,0,1,339.12,21.47Z"/><path class="a" d="M384.8,6.53A3,3,0,0,1,384,8.85c-.61.61-1.34,1.4-2.26,1.4-1.22,0-1.22.06-2.44.06s-1.22-.37-2.44-.37-1.22.31-2.44.31H372c-1.22,0-1.22-.18-2.44-.18a4.3,4.3,0,0,1-2.74-1c-.61-.61-.25-1.77-.25-2.68s-.3-2.08.37-2.69,1.71-.37,2.62-.37c1.22,0,1.22.07,2.44.07s1.22-.8,2.44-.8h2.38c1.22,0,1.22.86,2.44.86s1.22-.31,2.44-.31a3.33,3.33,0,0,1,2.44.73,3.32,3.32,0,0,1,.67,2.44ZM384.68,21a3.6,3.6,0,0,1-2.32,1.09c-1.22.06-1.28-.3-2.5-.3s-1.22.24-2.44.3-1.22.49-2.44.55-1.22-.49-2.44-.42-1.22.12-2.44.18c-.06,0-.12.43-.12.43a4,4,0,0,1-2.5-1,3.62,3.62,0,0,1-.92-2.5,3.8,3.8,0,0,1,.67-2.63,4.07,4.07,0,0,1,2.57-1.22,17.62,17.62,0,0,1,2.5-.24c1.22.12,1.22.61,2.44.55s1.22.18,2.44.18,1.22-.36,2.44-.42,1.22-.49,2.44-.55a3.71,3.71,0,0,1,2.44,1.28,3,3,0,0,1,.91,2.38A3,3,0,0,1,384.68,21Zm18.48,2.31c-.54.61-1.4.92-2,1.53s-.61,1.59-1.16,2.2-1.46.85-2,1.46-.67,1.59-1.22,2.2-1.34.91-1.89,1.46-1.4.85-2,1.46-1.1,1.16-1.71,1.71-.8,1.47-1.4,2-1.41.86-2,1.41-1,1.28-1.64,1.83-1.47.73-2.14,1.22-1.22,1-1.89,1.52v-.06a3.21,3.21,0,0,1-2,.8,3.86,3.86,0,0,1-3-1c-.55-.73-.13-1.83-.06-2.69s.12-1.89.85-2.44,1.52-.79,2.2-1.28,1.15-1.28,1.76-1.83,1.1-1.28,1.71-1.77,1.71-.61,2.32-1.16.79-1.64,1.4-2.25,1.22-1.1,1.83-1.71,1.41-.92,2-1.53,1.28-1.09,1.83-1.7,1.4-1,1.95-1.65.55-1.71,1.1-2.38,1.22-1.16,1.77-1.77a3.16,3.16,0,0,1,2.38-.91,2.94,2.94,0,0,1,2.31.67,3.22,3.22,0,0,1,1.22,2.13A3.4,3.4,0,0,1,403.16,23.3Z"/><path class="a" d="M462.46,41.3a2.77,2.77,0,0,1-2.14.73c-.85,0-1.65.86-2.5.92s-1.65-.61-2.5-.61-1.65.67-2.5.73-1.71-.61-2.5-.61-1.71.3-2.5.3-1.71-.06-2.57-.06-1.64-.24-2.5-.24-1.46.18-2.19.18-1.53.25-2.26.25-1.47-.19-2.2-.19-1.52-.18-2.25-.18-1.53.43-2.26.37-1.4-1-1.95-1.59a3,3,0,0,1-1.22-2.07c.06-.92.79-1.41,1.4-2a2.85,2.85,0,0,1,2-1.15c.86.06,1.77.06,2.75.12s1.77-.55,2.74-.49,1.77.24,2.75.24,1.77-.12,2.68-.12c.43,0,1.28.55,1.71.55.49-1-.37-1.34-.06-2.44s.3-1.1.61-2.2.49-1,.73-2.07-.12-1.22.12-2.32.37-1,.67-2.13,1.22-1,.55-1.9-.85-.36-2-.36-1.1-.06-2.26-.06-1.09.55-2.19.61-1.16.12-2.26.12-1.16-.49-2.26-.49a3,3,0,0,1-2.19-.85,2.82,2.82,0,0,1-.92-2.2,2.92,2.92,0,0,1,.79-2.19,3,3,0,0,1,2.2-.68c1.28-.06,1.28-.36,2.56-.36s1.35,0,2.63,0,1.28-.43,2.56-.43,1.28.49,2.62.49,1.28.12,2.56.12,1.29-.49,2.57-.49c1,0,1.58.67,2.25,1.47s1.59,1.64,1.35,2.62-.43,1.1-.74,2.2-.18,1.16-.42,2.25-1,.92-1.35,2.08.49,1.28.25,2.38-.73,1-1,2.13.12,1.22-.12,2.32-.49,1-.37,2.08c.74,0,1.1.18,1.83.18s1.59.12,2.38.06,1.53-.37,2.32-.43,1.59.06,2.32.06c.91-.06,1.4.61,2,1.22a2.38,2.38,0,0,1,1,2A2.9,2.9,0,0,1,462.46,41.3Z"/></svg>