<svg xmlns="http://www.w3.org/2000/svg" viewBox="0 0 273.72 50.32"><defs><style>.a{fill:#932323;}</style></defs><title>アセット 2</title><path class="a" d="M22.78,44.11a2.6,2.6,0,0,1-2.19,1.09,2.48,2.48,0,0,1-1.9-.73c-1-.79-1.22-.06-2.37-1-.55-.48-.8-1.52-1.47-2.13s-1.59-.67-2.26-1.22-1.28-1-1.89-1.59-1.28-1.16-1.89-1.64-1-1.53-1.58-2-1.35-1.09-1.9-1.58c-1.15-1-1.4-.25-2.31-1.1s-.86-.92-1.83-1.71A3.86,3.86,0,0,1,0,28.25a3.76,3.76,0,0,1,.61-2.38c.42-.68.67-1.47,1.16-2.14S3,22.69,3.5,22s1-1.16,1.53-1.77,1.1-1.16,1.59-1.77.42-1.77.91-2.38,1-1.28,1.46-1.83,1.23-1.09,1.77-1.64a22.71,22.71,0,0,1,1.47-1.89c.55-.61,1.65-.61,2.19-1.16s1-1.34,1.53-1.89.79-1.47,1.34-2l.18.19a3.55,3.55,0,0,1,2.51-1,3.78,3.78,0,0,1,2.56,1,4.08,4.08,0,0,1,.85,2.62,3.69,3.69,0,0,1-.85,2.62c-.61.55-1.47.86-2,1.41s-1.15,1.09-1.7,1.7-1.22,1-1.77,1.65-.73,1.47-1.28,2.07-1.1,1.16-1.59,1.77-1.46.92-1.95,1.53-.8,1.46-1.28,2.07-1,1.28-1.47,2A23.26,23.26,0,0,0,8,27.15c.24,1.16,1,.42,2.07,1.34.55.49,1.28.91,2,1.46s.68,1.71,1.28,2.2,1.47.85,2,1.4,1.46.92,2,1.41c1.1.91.73,1,1.65,1.76s1.28.37,2.19,1.16.8.92,1.71,1.71A4.28,4.28,0,0,1,24.18,42C24.25,42.83,23.39,43.43,22.78,44.11Z"/><path class="a" d="M88.42,35.87c-.12.85-1.1,1.59-1.41,2.38s.13,2-.24,2.81a21.65,21.65,0,0,1-1.52,2.19,20.56,20.56,0,0,1-1.71,2.14c-.55.55-1.53.55-2.14,1a13.06,13.06,0,0,1-1.83,1.35c-.67.36-1.22,1.09-1.95,1.4s-1.52.12-2.32.3a13.78,13.78,0,0,1-2.19.61,13.39,13.39,0,0,1-2.32-.18c-.06,0-.06.12-.06.12-.25,0-.43.25-.61.25a15,15,0,0,1-2.32,0c-.79-.12-1.34-1-2.08-1.22s-1.58-.12-2.25-.43a14.55,14.55,0,0,1-1.95-1.16A13,13,0,0,1,59.87,46a11.57,11.57,0,0,1-1-2,12.15,12.15,0,0,1-.3-2.13,7.14,7.14,0,0,1-.43-2c.06-.43-.31-.92-.24-1.41a13.28,13.28,0,0,1,.79-2,8.6,8.6,0,0,1,1-1.83A8.41,8.41,0,0,1,61,33c.55-.49.73-1.46,1.34-1.83a12.21,12.21,0,0,1,2.56-.85,16.32,16.32,0,0,1,2.56-.49c.86,0,1.71-.18,2.56-.18.25,0,.49.3.74.3.79.06,1.7-.67,2.5-.49s1.4,1,2.13,1.22a12.47,12.47,0,0,1,2.14,1.16,14.3,14.3,0,0,1,2.13,1.1,20.26,20.26,0,0,1,1.77,1.41c0-.43-.3-.61-.3-1.1,0-.86.55-1.71.3-2.38s-1.1-1.16-1.64-1.77a8,8,0,0,0-1.53-1.71,8.87,8.87,0,0,0-2.07-.85,16.79,16.79,0,0,0-2.08-.74c-.67-.18-1.34-.73-2.07-.91s-1.47-.37-2.2-.49-1.52.18-2.32.12A3.09,3.09,0,0,1,65,22.45a2.79,2.79,0,0,1,.25-3c.73-1,.55-1.16,1.22-2.13s.3-1.29,1-2.32,1.1-.74,1.77-1.71.37-1.22,1.1-2.2.67-1,1.4-2,1.83-.61,1.35-1.71S72.19,7.2,71,7.2s-1.22-.06-2.38,0-1.16.3-2.32.36S65.11,7,64,7s-1.16.67-2.32.67a3.49,3.49,0,0,1-2.32-1.34A3.5,3.5,0,0,1,58,4a4,4,0,0,1,.91-2.69C59.5.73,60.6.79,61.58.79s1.09,0,2.25,0S65,.92,66.15.85,67.31.73,68.47.73,69.57.06,70.73,0s1.16.24,2.32.24,1.09.31,2.25.31c0,0,1.16.06,2.32.06s1.1-.43,2.26-.49a4.15,4.15,0,0,1,2,.49A4.35,4.35,0,0,1,83.23,2c.31.55.06,1.34.06,2a4.32,4.32,0,0,1-.3,2c-.79,1.1-1.1.85-1.83,1.89s-.92,1-1.65,2.07-.67,1.1-1.4,2.2-.55,1.22-1.28,2.26-.8,1-1.53,2.13-1.64.67-2.07,1.89c.79.18,2,.25,2.74.43s1.22,1.1,1.89,1.4a15.54,15.54,0,0,1,2.14.67,20.07,20.07,0,0,1,2,1,9.6,9.6,0,0,1,2,1.22A9.71,9.71,0,0,1,85.12,25a12.56,12.56,0,0,1,1.35,1.77,12.7,12.7,0,0,1,1,2,11.06,11.06,0,0,1,.61,2.2,13.11,13.11,0,0,1,0,2.26A21.28,21.28,0,0,1,88.42,36ZM75.91,39.53a5.6,5.6,0,0,0-1.34-1.77A6.46,6.46,0,0,0,72.5,37c-.68-.18-1.28-1-2.14-1.1-.06,0-.18.31-.37.31v.06a11,11,0,0,0-2,.12,7.37,7.37,0,0,0-1.83.85c-.91.61-.85,1.41-1,2.38,0,.12-.06.19-.06.37,0,.85-.3,1.77.49,2.44a7,7,0,0,0,2.26,1c.67.19,1.52-.24,2.44-.24.18,0,.3.18.49.18a16.19,16.19,0,0,0,2.38.13c.85-.13,1.46-.8,2.13-1.1a7.5,7.5,0,0,0,2.08-1s.36-.12.36-.18C77.32,40.38,76.34,40.08,75.91,39.53Z"/><path class="a" d="M156.49,29.83a2.62,2.62,0,0,1-2.19.85,3.77,3.77,0,0,1-2.2.55c-.61-.06-1.34-.85-2.13-.91s-1.59.18-2.38.18c0,.73.12,1.71.06,2.5s.18,1.59.12,2.32,0,1.59-.06,2.32-.55,1.53-.67,2.26A3,3,0,0,1,145.88,42a3.39,3.39,0,0,1-2.14,1.16c-.12,0-.3.24-.42.24A3.91,3.91,0,0,1,141,41.73a3.69,3.69,0,0,1-.79-2.56c.06-.68.06-1.41.12-2.2s-.12-1.4-.06-2.2.3-1.4.3-2.13.12-1.22.12-2c-.67,0-1-.67-1.58-.67-.79,0-1.59.55-2.38.49s-1.53-.73-2.32-.73-1.77.18-2.56.18c0,.73-.06,1.65-.06,2.32l-.19,2c-.06.68.62,1.47.55,2.14s-.85,1.46-1.09,2.2a10.06,10.06,0,0,1-1.22,2c-.37.67-.25,1.71-.74,2.32a10.92,10.92,0,0,1-1.7,1.7,11.24,11.24,0,0,1-2.08,1.22,12.13,12.13,0,0,1-2.32.55,9.57,9.57,0,0,1-2.32-.06c-.18,0-.24.37-.42.37a13.44,13.44,0,0,1-2.62-.55,9.9,9.9,0,0,1-2.32-1.34c-.8-.43-1.83-.55-2.44-1.16a11.81,11.81,0,0,1-1.59-2.26,12.21,12.21,0,0,1-.85-2.56,13.09,13.09,0,0,1,.18-2.69c0-.36-.49-.73-.49-1a9.66,9.66,0,0,1,.67-2.26A13.52,13.52,0,0,1,112,30.93c.37-.61.25-1.65.73-2.2A10.81,10.81,0,0,1,114.28,27c.61-.48,1.71-.3,2.38-.73a14,14,0,0,1,2-1.1,13.54,13.54,0,0,1,2.2-.85,24.06,24.06,0,0,1,2.26-.85c.79-.07,1.52.12,2.25.06,0-.19.25-.19.31-.37,0-.79-.12-1.59-.12-2.38s-.07-1.52-.07-2.26.19-1.52.19-2.25-.61-1.59-.67-2.26c0-.92,0-1.65-.06-2.2-.07-.36.06-.42,0-.61-.55,0-1.53-.3-2.75-.3-.91.06-1.89.06-2.81.12a11.68,11.68,0,0,1-2.8-.24,2.65,2.65,0,0,1-2.14-.74c-.67-.61-1.71-1.15-1.77-2.07a4.07,4.07,0,0,1,1.1-2.68c.55-.61,1.65-.37,2.62-.43,0,0,.92-.12,2.2-.18.67-.06,1.4-.55,2.2-.61s1.52.48,2.19.42c1,0,1.77.06,2.26.06,0,0,.12-.48.31-.48a6.33,6.33,0,0,1,2.74.61c.92.42,1.34,1.4,1.83,2.13a5.94,5.94,0,0,1,1.1,2,8.73,8.73,0,0,1,.43,2.32c.06.67.55,1.47.61,2.38,0,.73.18,1.59.24,2.44s0,1.59.06,2.38-.49,1.65-.49,2.44.06,1.65,0,2.44c0,.06.06.61.06.73.8,0,1.59-.67,2.38-.67s1.59-.18,2.38-.18,1.53.3,2.32.37c.61,0,1.46.42,2.2.42,0-.67.06-1.52.06-2.13,0-.92-.25-1.71-.25-2.56s-.36-1.71-.42-2.51.79-1.64,1.34-2.31,1.28-1.59,2.19-1.65,1.71.85,2.32,1.46a3,3,0,0,1,1.1,2.2c.06.85.61,1.77.67,2.68s-.55,1.77-.55,2.69c0,.73.31,1.28.25,2,.79,0,1.34.31,2.07.31s1.59-.43,2.2-.43a3.75,3.75,0,0,1,2.13.73,3.26,3.26,0,0,1,2.38,1,3.54,3.54,0,0,1,1.16,2.38C158.08,28.67,157.17,29.22,156.49,29.83Zm-31.41.73c-.49.06-.73-.36-1.22-.36-1,.12-1.71,1-2.5,1.34s-2,.3-2.63.85a7.33,7.33,0,0,0-1.09,1.47,3.65,3.65,0,0,0-.74,1.77c-.06.12.49.3.49.48,0,1.29,0,2.14.49,2.69a4,4,0,0,0,2.56.73c.12,0,.18-.12.24-.12a4.16,4.16,0,0,0,2.14-.18,4.49,4.49,0,0,0,1.71-1.47,6.45,6.45,0,0,0,.36-2.19c.13-.92.37-1.71.43-2.57S125,31.48,125.08,30.56Z"/><path class="a" d="M185.89,14.52c-.18.85,0,1.77-.18,2.62s-.55,1.65-.67,2.44-.79,1.65-1,2.44.37,1.83.25,2.69-.61,1.64-.73,2.44.06,1.77-.06,2.56-.37,1.71-.49,2.5-.86,1.65-1,2.44-.3,1.77-.43,2.56a2.77,2.77,0,0,1-.91,1.89,2.92,2.92,0,0,1-2,.74,1,1,0,0,1-.43-.07,2.53,2.53,0,0,1-1.89-1.22,2.62,2.62,0,0,1-.67-2.19c.12-.73.18-1.53.3-2.38s.25-1.53.37-2.32-.12-1.58,0-2.38.06-1.58.18-2.38.61-1.46.73-2.25.06-1.65.19-2.38.54-1.53.73-2.32.55-1.47.73-2.26.3-1.52.49-2.32-.25-1.7-.06-2.44l-.13-.06A3.65,3.65,0,0,1,181,10.74a4,4,0,0,1,2.69-.19A3.75,3.75,0,0,1,186,11.9,3.28,3.28,0,0,1,185.89,14.52Zm20.68,24.16c-.48.18-.73,1-1.22,1a3.92,3.92,0,0,1-2-.67c-.49-.36-.36-1.28-.61-1.89s-.85-1.4-1.16-2.13-.61-1.47-.91-2.2-.55-1.53-.86-2.26-.85-1.4-1.09-2.13-.25-1.65-.49-2.38-.37-1.59-.55-2.38-1.28-1.28-1.53-2.07-.06-1.65-.24-2.44-.49-1.53-.67-2.32.12-1.65,0-2.44c0,0-.18.12-.18.06a3.23,3.23,0,0,1,.67-2.5,3.66,3.66,0,0,1,2.13-1.71,4,4,0,0,1,2.5,1,3,3,0,0,1,1.1,2.13c.18.79.61,1.59.79,2.38s.43,1.59.61,2.38.55,1.58.8,2.38-.25,1.77,0,2.56,1.34,1.28,1.58,2.07-.06,1.77.25,2.57.61,1.52.91,2.32,1.16,1.28,1.47,2.07.42,1.59.79,2.38a3.9,3.9,0,0,1,.18,2.74C208.47,38.07,207.43,38.25,206.57,38.68ZM221.64,15c-.18.73-.91,1.34-1.28,2a8.59,8.59,0,0,1-1,2.13c-.55.61-1.47.74-2.08,1.16a8.67,8.67,0,0,1-2,.92,6.69,6.69,0,0,1-2.2.3c-.24.06-.49.74-.73.74a13.84,13.84,0,0,1-2.32-.07,9.1,9.1,0,0,1-2-1c-.67-.31-1.59-.37-2.14-.86s-.79-1.58-1.28-2.32-1.1-1.34-1.28-2.19.25-1.71.25-2.56a11.61,11.61,0,0,1,0-2.57,8,8,0,0,1,.67-2.44,7.51,7.51,0,0,1,1.34-2.25,7.84,7.84,0,0,1,2-1.1,12.83,12.83,0,0,1,1.95-1.28,9.64,9.64,0,0,1,2.32.12c.19,0,.31.12.37.12.79,0,1.65-.67,2.44-.55a10.6,10.6,0,0,1,2.07,1.16,6.28,6.28,0,0,1,2.08,1.1,7.06,7.06,0,0,1,1.52,1.83,8.89,8.89,0,0,1,.73,2.2,13.42,13.42,0,0,1,.13,2.31c0,.25.67.43.67.68A10.7,10.7,0,0,1,221.64,15Zm-5.79-2.81c-.12-1.4-.19-2.26-.67-2.68s-1.41-.31-2.93-.31c-.12,0-.06-.24-.06-.24s-.06.18-.12.18c-1.16.06-2.08-.12-2.63.43a4.29,4.29,0,0,0-.85,1.77c-.12.48.42,1.09.49,1.83,0,1.7-.13,2.38.36,2.8a4.38,4.38,0,0,0,2.93.92c.12,0,.31-.55.49-.55a2.5,2.5,0,0,0,2.19-1.22,4.56,4.56,0,0,0,1.22-2.56C216.27,12.38,215.85,12.26,215.85,12.14Z"/><path class="a" d="M255.92,15.8c-.67.49-1.52.3-2.5.18-.61-.06-1.46.8-2.38.8-.73-.07-1.52-.19-2.32-.19h-2.31c-.86,0-1.65-.61-2.32-.61-1.41.06-2.32.19-2.32.19s-.12.67-.18.67a4,4,0,0,1-2.44-1.16,3.56,3.56,0,0,1-1-2.38,3.22,3.22,0,0,1,1.1-2.32c.55-.67,1.22-1.52,2.13-1.59a5,5,0,0,0,2.5.55,24,24,0,0,1,2.44-.36c.8-.06,1.59-.06,2.44-.06s1.9-.43,2.75-.37a17.73,17.73,0,0,1,2.75.37,3.7,3.7,0,0,1,2.13,1.58,3,3,0,0,1,.37,2.32C256.59,14.34,256.59,15.25,255.92,15.8Zm17.33,7.26c-.55.55-1.59.73-2.26,1.34s-1,1.34-1.58,2-1.41,1-2,1.53-1.46.91-2.07,1.52-.92,1.47-1.59,2.08-1.28,1-2,1.58-1.16,1.29-1.77,1.77-1.65.67-2.32,1.22-1.4.92-2.13,1.41-1.1,1.34-1.77,1.83-1.47.91-2.14,1.34a3.41,3.41,0,0,1-1.83.49,3.18,3.18,0,0,1-2.68-1.65,3.54,3.54,0,0,1-.86-2.44A3.57,3.57,0,0,1,248,35c.67-.43,1.22-1.1,1.83-1.53s1.65-.49,2.32-1A20.67,20.67,0,0,0,254,31a23,23,0,0,0,1.77-1.65c.67-.49,1.28-1,1.89-1.52s1.1-1.16,1.71-1.65,1.22-1.1,1.77-1.65,1-1.28,1.59-1.83,1.34-.91,1.89-1.46,1.52-.79,2.07-1.34,1-1.28,1.59-1.77c.67-.67,1.34-1.65,2.25-1.65s1.65.86,2.32,1.53a3,3,0,0,1,.8,2.31C273.68,21.17,273.92,22.39,273.25,23.06Z"/></svg>