<svg xmlns="http://www.w3.org/2000/svg" viewBox="0 0 395.36 45.08"><defs><style>.a{fill:#932323;}</style></defs><title>アセット 7</title><path class="a" d="M34.25,11.65c-.24.8-.31,1.59-.61,2.38s-.61,1.53-.85,2.26-.55,1.52-.86,2.32-.37,1.58-.67,2.31-.43,1.65-.73,2.38-1,1.35-1.41,2S28,26.54,27.6,27.27s-.31,1.77-.73,2.44-1,1.28-1.53,1.95a14.15,14.15,0,0,1-1.46,1.95,22,22,0,0,1-1.77,1.71c-.55.61-1.22,1-1.83,1.65s-.55,1.71-1.16,2.32a4.16,4.16,0,0,1-2.68.73,3.31,3.31,0,0,1-2.26-1.28c-.67-.61-1.47-1.34-1.47-2.2a3.86,3.86,0,0,1,1-2.62c.55-.61,1.16-1.16,1.71-1.71S16.5,31,17,30.38s1.47-.85,2-1.46.49-1.65,1-2.26,1.47-1,1.89-1.59.55-1.58.92-2.25,1-1.28,1.4-2a20.37,20.37,0,0,0,1.1-2.07,23.58,23.58,0,0,0,.85-2.32c.31-.73-.06-1.71.19-2.44s1.28-1.52,1.52-2.26c-.73,0-1.83-.3-2.68-.3s-1.65.36-2.5.36-1.59-.24-2.44-.24-1.59.37-2.44.37H15.28c-.86,0-1.65.42-2.44.42H10.4c-.86,0-1.71-.79-2.44-.79-.92,0-1.77-.12-2.44-.12A5.88,5.88,0,0,0,3.08,12V12a3.45,3.45,0,0,1-2.44-1A3.28,3.28,0,0,1,0,8.48c0-.92-.19-2,.42-2.62s1.65-.55,2.63-.55c.12,0,1-.06,2.37-.06.74,0,1.53-.61,2.45-.61.73,0,1.58.3,2.44.3S11.92,5,12.78,5s1.58.06,2.37.06,1.65.25,2.45.25,1.64-.06,2.44-.06,1.64-.37,2.44-.37h2.37c.86,0,1.71.67,2.44.67.92,0,1.71-.61,2.44-.61a6.88,6.88,0,0,1,2.38.37,3,3,0,0,1,2.51,1.34,3.41,3.41,0,0,1,.91,2.87C35.35,10.31,34.49,10.86,34.25,11.65Z"/><path class="a" d="M96,20.25c-.3.74,0,1.83-.36,2.5s-1,1.29-1.41,2-.55,1.52-.91,2.19-1.53,1-2,1.65-.43,1.65-.86,2.32-1.28,1-1.71,1.71-.67,1.46-1.16,2.13a23.84,23.84,0,0,1-1.09,2.14,23.49,23.49,0,0,1-1.35,2c-.48.67-1,1.28-1.46,1.89s-1.46.92-2,1.53a3.12,3.12,0,0,1-4.39.67,3.13,3.13,0,0,1-1.35-2.26,4.13,4.13,0,0,1,.55-2.68,23,23,0,0,0,1.71-1.71c.49-.61.85-1.28,1.4-2s1.41-1,1.9-1.65.67-1.46,1.09-2.14,1.1-1.22,1.53-1.89.55-1.58,1-2.25.86-1.35,1.29-2.08a18.84,18.84,0,0,0,1.15-1.83,4.91,4.91,0,0,0-2.31-.18c-1.22,0-1.22-.31-2.38-.31s-1.22.49-2.44.49S79.33,22,78.17,22H73.35c-1.22,0-1.22-.12-2.38-.12s-1.22.61-2.44.61-1.16.18-2.38.18S64.93,22,63.71,22a2.68,2.68,0,0,1-2.14-.79,2.81,2.81,0,0,1-.79-2.2,3,3,0,0,1,.61-2.32A3,3,0,0,1,63.71,16c1.28,0,1.28-.55,2.5-.55s1.28-.18,2.5-.18a7.38,7.38,0,0,1,2.5.55c1.22,0,1.22-.49,2.44-.49s1.22-.06,2.5-.06,1.22.67,2.45.67,1.28-.73,2.5-.73,1.22.73,2.44.73,1.28-.55,2.5-.55,1.22-.24,2.44-.24,1.28.18,2.5.18h2.5a3.93,3.93,0,0,1,3,1.77C97.14,18.06,96.59,19.22,96,20.25ZM91.83,6.65a2.85,2.85,0,0,1-2.07.91c-.86,0-1.71.25-2.56.25s-1.71-.12-2.5-.12-1.71.67-2.57.67S80.43,8,79.57,8s-1.71-.06-2.5-.06-1.83.55-2.68.55-1.77-.55-2.63-.55S70,7.75,69.08,7.75s-1.77,0-2.63-.06v.42a3.42,3.42,0,0,1-2.31-1.28,3.36,3.36,0,0,1-1-2.38,3.4,3.4,0,0,1,1.16-2.31A3.57,3.57,0,0,1,66.7.92c.85,0,1.71.3,2.56.3s1.71.55,2.62.55,1.71-.49,2.57-.49h2.62c.79,0,1.65-.06,2.5-.06s1.65.37,2.5.37,1.65-.31,2.5-.31S86.22,1,87.07,1s1.65.3,2.51.3A3.78,3.78,0,0,1,92.2,2a3.58,3.58,0,0,1,.55,2.56A2.59,2.59,0,0,1,91.83,6.65Z"/><path class="a" d="M139.47,13c-.67.49-1.52.31-2.5.19-.61-.06-1.46.79-2.38.79-.73-.06-1.52-.18-2.32-.18H130c-.86,0-1.65-.61-2.32-.61-1.41.06-2.32.18-2.32.18s-.12.67-.18.67a4,4,0,0,1-2.44-1.16,3.54,3.54,0,0,1-1-2.38,3.25,3.25,0,0,1,1.1-2.32c.55-.67,1.22-1.52,2.13-1.58a5,5,0,0,0,2.5.55,23.9,23.9,0,0,1,2.44-.37c.8-.06,1.59-.06,2.44-.06s1.9-.43,2.75-.37a19,19,0,0,1,2.75.37A3.71,3.71,0,0,1,139.9,8.3a3,3,0,0,1,.37,2.32C140.14,11.53,140.14,12.45,139.47,13Zm17.33,7.26c-.55.55-1.59.74-2.26,1.35s-1,1.34-1.59,1.95-1.4,1-2,1.52-1.46.92-2.07,1.53-.92,1.46-1.59,2.07-1.28,1-1.95,1.59-1.16,1.28-1.77,1.77-1.65.67-2.32,1.22-1.4.91-2.13,1.4S138,36,137.34,36.48s-1.47.92-2.14,1.34a3.41,3.41,0,0,1-1.83.49,3.18,3.18,0,0,1-2.68-1.65,3.52,3.52,0,0,1-.86-2.44,3.6,3.6,0,0,1,1.71-2.07c.67-.43,1.22-1.1,1.83-1.53s1.65-.48,2.32-1a22.71,22.71,0,0,0,1.89-1.47,21.08,21.08,0,0,0,1.77-1.64c.67-.49,1.28-1,1.89-1.53s1.1-1.16,1.71-1.64,1.22-1.1,1.77-1.65,1-1.28,1.59-1.83,1.34-.92,1.89-1.47,1.52-.79,2.07-1.34,1-1.28,1.59-1.77c.67-.67,1.34-1.64,2.25-1.64s1.65.85,2.32,1.52a3,3,0,0,1,.8,2.32C157.23,18.36,157.47,19.58,156.8,20.25Z"/><path class="a" d="M216.09,10.43c-.12.86-.91,1.59-1,2.38s-.3,1.65-.42,2.44.42,1.83.24,2.62-1,1.47-1.28,2.26-.24,1.65-.49,2.44-.49,1.59-.73,2.38-.06,1.77-.31,2.56-1.16,1.35-1.46,2.14-.43,1.58-.79,2.32-.19,1.77-.55,2.5-1.41,1.16-1.77,1.89-.79,1.46-1.22,2.2-.55,1.58-1,2.31-1,1.28-1.4,2c-.67,1-1.53,2.19-2.69,2.19-.6,0-1-.91-1.58-1.28-.79-.49-1.65-.91-1.89-1.77a3.62,3.62,0,0,1,.85-2.5c.49-.67,1.1-1.28,1.53-2s.79-1.53,1.22-2.26,0-1.89.36-2.62.8-1.53,1.1-2.26.92-1.46,1.22-2.26a22.78,22.78,0,0,0,1.16-2.19c.31-.8.92-1.53,1.16-2.32s.43-1.65.67-2.44-.06-1.77.12-2.56.92-1.53,1.1-2.38.06-1.71.18-2.56.31-2,.43-2.81c-1-.37-1.22.49-2.38.55s-1.1.36-2.19.43-1.16-.25-2.26-.25-1.1.18-2.2.25-1.34-.92-2.38-.61c-.3.73-.3,1.83-.61,2.56s-.61,1.4-.91,2.07-.67,1.34-1,2-1,1.16-1.4,1.84-.49,1.46-.86,2.07-.42,1.59-.79,2.2a4,4,0,0,1-3.11,1.52c-.67,0-1.22-.61-1.77-1a3.06,3.06,0,0,1-1.46-1.95c-.13-.85-.49-2,.06-2.8.36-.55.79-1.23,1.22-1.9s1.22-1,1.58-1.77.92-1.22,1.28-1.95.43-1.52.74-2.19.67-1.41,1-2.14-.18-1.71.06-2.44,1.28-1.22,1.47-1.95a15.35,15.35,0,0,0,.3-2.32l.25.06c.18-.91.24-2.07,1-2.56a4.58,4.58,0,0,1,2.87-.49c.91.25,1.4,1.28,1.89,2a3.66,3.66,0,0,1,.67,2.51c-.06.06-.18-.07-.18,0,1.28-.07,1.28.54,2.56.54s1.28-.91,2.56-1,1.28.12,2.57.06,1.28.37,2.5.3,1.28-.61,2.56-.67c1-.06,1.65,1,2.32,1.71S216.4,7,216.33,7.93,216.15,9.64,216.09,10.43Z"/><path class="a" d="M278.25,11.65c-.24.8-.31,1.59-.61,2.38s-.61,1.53-.85,2.26-.55,1.52-.86,2.32-.37,1.58-.67,2.31-.43,1.65-.73,2.38-1,1.35-1.41,2-1.09,1.22-1.52,1.95-.31,1.77-.73,2.44-1,1.28-1.53,1.95a14.15,14.15,0,0,1-1.46,1.95,22,22,0,0,1-1.77,1.71c-.55.61-1.22,1-1.83,1.65s-.55,1.71-1.16,2.32a4.16,4.16,0,0,1-2.68.73,3.31,3.31,0,0,1-2.26-1.28c-.67-.61-1.47-1.34-1.47-2.2a3.86,3.86,0,0,1,1-2.62c.55-.61,1.16-1.16,1.71-1.71s1-1.22,1.52-1.83,1.47-.85,2-1.46.49-1.65,1-2.26,1.47-1,1.89-1.59.55-1.58.92-2.25,1-1.28,1.4-2a20.37,20.37,0,0,0,1.1-2.07,23.58,23.58,0,0,0,.85-2.32c.31-.73-.06-1.71.19-2.44s1.28-1.52,1.52-2.26c-.73,0-1.83-.3-2.68-.3s-1.65.36-2.5.36-1.59-.24-2.44-.24-1.59.37-2.44.37h-2.44c-.86,0-1.65.42-2.44.42H254.4c-.86,0-1.71-.79-2.44-.79-.92,0-1.77-.12-2.44-.12a5.88,5.88,0,0,0-2.44.61V12a3.45,3.45,0,0,1-2.44-1A3.28,3.28,0,0,1,244,8.48c0-.92-.19-2,.42-2.62s1.65-.55,2.63-.55c.12,0,1-.06,2.37-.06.74,0,1.53-.61,2.45-.61.73,0,1.58.3,2.44.3s1.58.06,2.44.06,1.58.06,2.37.06,1.65.25,2.45.25,1.64-.06,2.44-.06,1.64-.37,2.44-.37h2.37c.86,0,1.71.67,2.44.67.92,0,1.71-.61,2.44-.61a6.88,6.88,0,0,1,2.38.37,3,3,0,0,1,2.51,1.34,3.41,3.41,0,0,1,.91,2.87C279.35,10.31,278.49,10.86,278.25,11.65Z"/><path class="a" d="M314.66,12.38c-.12.8.19,1.65.07,2.51s-.74,1.52-.92,2.31.43,1.77.31,2.57-.8,1.52-1,2.31-.18,1.65-.31,2.44-.36,1.65-.54,2.44-.19,1.65-.37,2.44-.43,1.59-.67,2.38-.49,1.53-.67,2.32-.73,1.53-1,2.32-.37,1.4-.91,1.77a3.91,3.91,0,0,1-2,1c-.3,0-.55-.61-.91-.74a3.42,3.42,0,0,1-2.14-1.34,3.81,3.81,0,0,1-.3-2.62c.24-.73.42-1.53.67-2.26s.73-1.4,1-2.2-.3-1.7-.12-2.44,1-1.4,1.16-2.19-.18-1.65,0-2.38.49-1.53.67-2.32-.06-1.59.06-2.38.86-1.4,1-2.19.55-1.53.67-2.32-.06-1.59.06-2.38.25-1.53.37-2.32A3.25,3.25,0,0,1,310,6.89a3.07,3.07,0,0,1,2.44-.55,3.22,3.22,0,0,1,2.25,1.1,3.66,3.66,0,0,1,1,2.57C315.52,10.8,314.79,11.53,314.66,12.38Zm25.63,17.88c-1.1.67-1,1-2.08,1.65s-1.22.48-2.38,1.22-1,.79-2.13,1.46-1.22.55-2.32,1.28-1,.86-2.14,1.53c-.54.36-1.28.18-1.89.18s-.91-.37-1.4-.61c-1.1-.61-2.14-1.28-2.14-2.5s-.12-1.22-.12-2.5-.06-1.22-.06-2.44.55-1.22.49-2.44-.31-1.22-.37-2.5-.12-1.22-.18-2.44.43-1.23.43-2.44-.55-1.23-.55-2.45-.12-1.22-.12-2.5,0-1.22-.06-2.44.18-1.22.12-2.44h.06a3.42,3.42,0,0,1,.85-2.44,3.52,3.52,0,0,1,4.94-.18,3.58,3.58,0,0,1,1,2.44c.06,1.22-.24,1.22-.18,2.38s.36,1.16.43,2.32-.07,1.16,0,2.32-.43,1.15-.43,2.31.24,1.16.24,2.32.43,1.16.49,2.32.12,1.16.18,2.38-1.28,1.4-.24,1.95,1,.06,2.07-.55.61-1.4,1.59-2,1.16-.49,2.13-1.16a3.7,3.7,0,0,1,2.69-.18,3.31,3.31,0,0,1,1.83,1.71,2.71,2.71,0,0,1,.37,2.25A3.06,3.06,0,0,1,340.29,30.26Z"/><path class="a" d="M393.9,26.66a2.89,2.89,0,0,1-2,.73c-.12,0-.36.67-.55.67-1.22-.18-1-.36-2.38-.61-.79-.06-1.58-.67-2.44-.79s-1.71-.12-2.44-.24c-1.4-.19-1.22-.37-2.44-.55s-1.22.24-2.44.42c0,.61.06.92.06,1.59,0,.85-.36,1.77-.36,2.62s-.19,1.77-.19,2.69S379,35,379,35.81s.06,1.77.06,2.62-.55,1.77-.55,2.63.12,1.95-.49,2.56a4,4,0,0,1-2.56.73h-.12a3.83,3.83,0,0,1-2.56-.91,4.16,4.16,0,0,1-1.16-2.69c.06-.85.18-1.71.18-2.56s.31-1.71.37-2.56-.25-1.71-.19-2.63.19-1.7.19-2.56V27.88c0-.79.61-1.59.61-2.38V23.12c0-.79-.73-1.58-.73-2.38s.3-1.58.3-2.38.31-1.58.31-2.38-.19-1.58-.19-2.31-.3-1.65-.3-2.38.24-1.65.24-2.38-.3-1.59-.3-2.38-.49-1.59-.49-2.32a3.62,3.62,0,0,1,1.22-2.44c.55-.67,1.4-.61,2.38-.61s1.89-.31,2.56.3A4.24,4.24,0,0,1,379,4c0,.79-.37,1.64-.37,2.56.06.73.37,1.58.37,2.44s-.49,1.71-.49,2.56.86,1.59.92,2.5-.86,1.65-.8,2.5.37,1.77.37,2.63c1,.48,1.16-.07,2.32.12s1.1-.06,2.19.12,1,.61,2.2.79,1.16-.42,2.26-.24,1,1,2.13,1.16,1.1-.06,2.26.06a2.94,2.94,0,0,1,2.2,1.16,3.11,3.11,0,0,1,.73,2.5C395.19,25.68,394.52,26.11,393.9,26.66Z"/></svg>