<svg xmlns="http://www.w3.org/2000/svg" viewBox="0 0 401.96 47.88"><defs><style>.a{fill:#932323;}</style></defs><title>アセット 9</title><path class="a" d="M33.38,26c-.61.67-1.1,1.58-2,1.64s-1.71.31-2.57.37S27,27.5,26.18,27.5s-1.71.67-2.56.67-1.47.18-2.32.25c-.12.79-.06,1.4-.18,2.19S20.14,32.14,20,33s-.06,1.65-.25,2.5-.12,1.65-.3,2.5-.49,1.59-.67,2.38-.37,1.65-.55,2.44a21.9,21.9,0,0,1-.49,2.44,4.4,4.4,0,0,1-1.16,2,4,4,0,0,1-2.19.61c-.37,0-.61-.37-1-.43-.85-.31-1.89-.61-2.32-1.4a3.9,3.9,0,0,1,.06-2.75c.25-.73,0-1.71.19-2.56s.61-1.59.85-2.44.49-1.59.61-2.44.43-1.65.61-2.5.49-1.65.61-2.5.24-1.9.37-2.75c-.74.06-1.65.55-2.32.55s-1.47-.49-2.14-.49-1.46.18-2.13.18-1.65-.06-2.38-.06-1.65.13-2.44.06v-.24A3.25,3.25,0,0,1,.5,27.38c-.61-.61-.49-1.59-.49-2.5a3,3,0,0,1,.73-2.32,3.13,3.13,0,0,1,2.32-1.1c.79,0,1.53.25,2.38.25H7.76c.79,0,1.58-.25,2.44-.25s1.58-.24,2.38-.24,1.58.12,2.44.12c0-.12-.43-.12-.43-.24.12-.8.73-1.47.79-2.2s.13-1.53.19-2.26-.31-1.58-.25-2.32S16,12.68,16,12c-.67.3-1.4,1-2.13,1.34s-1.34.73-2.08,1-1.52.49-2.25.74c-.37.18-.92-.31-1.35-.31a3.53,3.53,0,0,1-1.95-.24A3.68,3.68,0,0,1,4.71,13a4,4,0,0,1,.18-2.8c.37-.8,1.34-1,2.26-1.35.73-.3,1.4-1,2.19-1.4S11.17,7.31,12,7s1.52-.91,2.32-1.28,1.46-1,2.19-1.34,1.59-.73,2.32-1.1,1.77-.49,2.5-.85a15.73,15.73,0,0,0,2-1.65l.13.24c.85-.48,1.76-1.22,2.62-1s1.22,1.34,1.71,2.13a3.35,3.35,0,0,1,.73,2.38,3.52,3.52,0,0,1-1.65,2,21.17,21.17,0,0,1-2,1c-.61.37-1.16.92-1.89,1.28a.06.06,0,0,0-.06.06A8.41,8.41,0,0,1,23,11.4c-.06.67-.37,1.52-.43,2.44-.06.73.12,1.58.06,2.5s-.42,1.58-.49,2.44S22,20.36,22,21.22c.73-.06,1.4.42,2.14.36s1.52-.06,2.25-.12,1.47-.43,2.2-.49,1.46-.42,2.2-.49a3.6,3.6,0,0,1,2.56.92,3.5,3.5,0,0,1,1.22,2.44C34.6,24.76,33.93,25.37,33.38,26Z"/><path class="a" d="M91.09,23c-.07,1.16,0,1.16-.07,2.31s-.79,1.16-.79,2.32.55,1.22.49,2.38-.61,1.1-.67,2.32.49,1.16.49,2.32-.25,1.16-.31,2.38.37,1.16.31,2.32-.86,1.15-.92,2.31.18,1.16.12,2.32A3.35,3.35,0,0,1,86.63,47s-.06-.18-.12-.18a3,3,0,0,1-2.44-1.4c-1.22-.31-1.28.18-2.5.18H79.13c-1.22,0-1.22.12-2.44.12H71.81c-1.16,0-1.16.06-2.38.06a2.84,2.84,0,0,1-2.14-1.1,2.56,2.56,0,0,1-.73-2.13c0-.92-.06-1.77.49-2.32a3.26,3.26,0,0,1,2.38-.85c1.16,0,1.16-.37,2.38-.37s1.16.31,2.32.31,1.22.24,2.38.24,1.15-.49,2.37-.49,1.16.61,2.38.61,1.59.55,2.44-.24.25-1.22.25-2.38.18-1.1.18-2.2.55-1.52-.24-2.25-1.22-.43-2.44-.43-1.28.36-2.5.36-1.22.13-2.44.13-1.22-.31-2.44-.31H71.62c-1.22,0-1.22.18-2.44.18a2.69,2.69,0,0,1-2.07-1,2.76,2.76,0,0,1-1-2.08,3.52,3.52,0,0,1,.61-2.5,3.48,3.48,0,0,1,2.5-.85c1.22,0,1.22-.25,2.51-.25s1.22.43,2.5.43,1.22.31,2.5.31,1.22-.37,2.5-.37,1.22-.3,2.44-.3,1.89,1.46,2.81.61-.37-1.47-.31-2.63l.12-2.32c0-1.16,1.34-1.76.49-2.62s-1.46.25-2.62.25-1.16-.43-2.32-.43-1.16.36-2.32.36-1.16.55-2.32.55S74,19,72.84,19s-1.15.43-2.31.43-1.16-.55-2.32-.55a2.58,2.58,0,0,1-2.14-.61,2.82,2.82,0,0,1-1-2.14A3,3,0,0,1,66,13.9a2.81,2.81,0,0,1,2.2-.67c1.22,0,1-.43,2.5-.43.73,0,1.53-.18,2.44-.18s1.65-.25,2.44-.25,1.71.55,2.44.55c1.46,0,1.22-.37,2.44-.37s1.22.43,2.44.43,1.28-.24,2.5-.24,1.22.49,2.44.49c.86,0,2-.25,2.56.36a3.48,3.48,0,0,1,.43,2.62c-.06,1.16-.12,1.16-.12,2.32s-.12,1.16-.18,2.38.55,1.16.55,2.38Z"/><path class="a" d="M155.81,14.51,155.68,17c-.12,1.22.49,1.22.37,2.44s-.18,1.22-.24,2.44-.13,1.22-.19,2.44-.48,1.22-.55,2.44.13,1.22,0,2.44-.24,1.16-.3,2.38.06,1.22,0,2.44-.12,1.22-.24,2.44a3.1,3.1,0,0,1-.92,2.32,3.46,3.46,0,0,1-2.38.61c-.06,0-.12.36-.18.36a3.55,3.55,0,0,1-2.87-1.58c-1-.55-1.1-.19-2.26-.19s-1.22-.24-2.44-.24-1.22-.18-2.38-.12-1.22.48-2.37.48-1.22,0-2.44.07-1.16.48-2.38.48-1.16,0-2.38,0-1.22.13-2.38.13-1.22-.37-2.38-.37c-.06,0-.06.24-.12.24-.92,0-1.47-.91-2.08-1.52a3.08,3.08,0,0,1-1.1-2.08c0-.91-.12-2.07.43-2.68a4.15,4.15,0,0,1,2.69-1c1.22,0,1.22.19,2.44.19s1.15.06,2.37.06,1.22-.31,2.38-.37,1.22,0,2.44-.06a8,8,0,0,1,2.38.43c1.22,0,1.22-.31,2.38-.37s1.22-.18,2.44-.24,1.16.67,2.38.61a2.2,2.2,0,0,0,2.14-.8c.79-.79.73-.79.79-1.95s0-1.16.06-2.25-.61-1.22-.55-2.32.37-1.1.43-2.26,0-1.1.06-2.26.37-1.1.49-2.25a3.79,3.79,0,0,0-.37-2.14c-.42-1.1-.61-.06-2-.06-.73,0-1.59-.43-2.44-.43s-1.59.8-2.38.86-1.71-.43-2.38-.43c-1.46,0-1.22-.18-2.44-.18s-1.16.55-2.38.55-1.16.12-2.38.18-1.22-.79-2.38-.79a7.09,7.09,0,0,0-2.38.48c-1.22.06-1.22.25-2.44.25a4,4,0,0,1-2.56-1.16c-.61-.61-.36-1.65-.36-2.62a2.9,2.9,0,0,1,.54-2.38,3.16,3.16,0,0,1,2.38-.8c1.22,0,1.1-.42,2.5-.42.8,0,1.71.42,2.51.42,1.4,0,1.28-.06,2.5-.06s1.28.06,2.5.06,1.28-.24,2.5-.24a15.75,15.75,0,0,1,2.56.12c1.22,0,1.22.31,2.5.31s1.22-.43,2.5-.43,1.22-.37,2.51-.37h2.5c1.22,0,1.22.31,2.5.25a3.74,3.74,0,0,1,2.62.91,4,4,0,0,1,1,2.69C156.36,13.29,155.87,13.29,155.81,14.51Z"/><path class="a" d="M210.16,28c-.61.49-1.1,1-1.89,1-.19,0-.43.48-.55.42-1.22-.18-1.16-.55-2.44-.73s-1.22-.06-2.44-.24-1.28.06-2.5-.13-1.16-.42-2.38-.61-1.28-.73-2.51-.61c0,.68.07,1.53.07,2.2,0,.85-.31,1.71-.37,2.62s.79,1.77.79,2.63-.42,1.77-.42,2.68-.19,1.77-.25,2.62-.36,1.77-.43,2.63a2.57,2.57,0,0,1-1,2,2.72,2.72,0,0,1-2,.92c-.07,0-.13.36-.19.36A4,4,0,0,1,189,45a4.38,4.38,0,0,1-.92-2.75c.06-.85.49-1.71.55-2.56s-.3-1.71-.24-2.62-.06-1.71-.06-2.56.12-1.71.12-2.57.49-1.71.49-2.56-.37-1.59-.37-2.38.37-1.58.37-2.38-.55-1.58-.55-2.38,0-1.58-.06-2.38.36-1.58.3-2.37-.06-1.59-.12-2.38-.49-1.59-.49-2.32.31-1.65.25-2.38S188.2,8.71,188.2,8s-.25-1.65-.31-2.38h.67c0-.91-.3-2.07.31-2.68s1.77-.68,2.68-.68a3,3,0,0,1,2.38.86,3.12,3.12,0,0,1,1,2.32c0,.79-.07,1.64-.07,2.5s-.12,1.65-.12,2.5.55,1.65.55,2.5-.06,1.65,0,2.5.18,1.65.18,2.5.13,1.28.19,2.14c1,.55.85.67,2,.85s1.16,0,2.26.19,1.16-.25,2.32-.13,1,1,2.07,1.16,1.16-.06,2.26.06,1.16-.06,2.25.06a3.8,3.8,0,0,1,2.44,1.29,3.8,3.8,0,0,1,.61,2.74C211.68,27.07,210.77,27.44,210.16,28Zm-.25-9.64c-.48.43-.91,1.1-1.58,1.1-.06,0-.13-.43-.19-.43-.73-.06-1.64.06-2.07-.43a2.94,2.94,0,0,1-.43-2.19c.06-.86-.36-1.89-.36-2.87,0-1.77.24-1.65.18-3.29-.06-.74.61-1.22,1.1-1.71s.85-1.53,1.64-1.59a3.93,3.93,0,0,1,2.08,1c.49.49.37,1.28.37,2.07v3.48c0,1,.85,2.26.79,3.29C211.38,17.56,210.4,17.86,209.91,18.35Zm9-3.78c0,.79-.06,1.58-.12,2.32a2.05,2.05,0,0,1-.73,1.58,2.22,2.22,0,0,1-1.65.86c-.06,0-.12.12-.18.06a3.1,3.1,0,0,1-2.08-.67,3.2,3.2,0,0,1-.24-2.14c0-.67.06-1.46.06-2.2s0-1.52.06-2.19a7.88,7.88,0,0,0-.36-2.32l.06.12c0-.73.73-1.16,1.22-1.64a2.18,2.18,0,0,1,1.64-.86c.74,0,1.65-.12,2.14.37s.18,1.4.18,2.13a5.68,5.68,0,0,1,.49,2.32C219.43,13,219,13.77,218.94,14.57Z"/><path class="a" d="M278.6,23.78a3.36,3.36,0,0,1-1.1,2.32,2.91,2.91,0,0,1-2.26.73v.55c-.79,0-1.58-.55-2.37-.49s-1.59.31-2.38.31-1.53-.13-2.32-.13-1.59.43-2.38.43-1.59-.43-2.38-.43-1.53.25-2.32.25-1.58.49-2.38.49-1.52-.43-2.32-.43-1.58.43-2.38.49-1.58-.8-2.37-.8-1.53.86-2.32.86-1.59-.12-2.38-.06l.06-.31v.49h-.12v-.49a3.08,3.08,0,0,1-2.2-1.1c-.61-.61-1.52-1.16-1.52-2.13,0,0,0-.06.12-.06a3.75,3.75,0,0,1,1.22-2.38,3.55,3.55,0,0,1,2.32-1.28v-.13c.79,0,1.58.68,2.38.68s1.58-.19,2.37-.19,1.53-.49,2.32-.49,1.59-.18,2.38-.18,1.59,0,2.38-.06,1.53.12,2.32.12,1.59-.06,2.38-.06,1.52.37,2.32.31,1.58.12,2.38.12,1.58.24,2.31.24,1.59-.36,2.38-.42,1.59.3,2.38.3a2.88,2.88,0,0,1,2.38.55,3.19,3.19,0,0,1,.73,2.38Z"/><path class="a" d="M340.51,16.09c0,1,.31,2.08-.3,2.69s-1.77.36-2.68.3S335.82,19,335,19s-1.64.55-2.5.55-1.71.18-2.5.18S328.25,19,327.4,19c-.25,0-.92.24-1.22.24,0,.92.06,1.83.06,2.69s.61,1.77.55,2.62-.49,1.71-.61,2.5a24.37,24.37,0,0,1-.67,2.5c-.19.86-.55,1.65-.73,2.44s-.19,1.77-.43,2.57-1,1.4-1.4,2.13-.25,1.83-.68,2.5-1.4,1.1-1.89,1.77a16.43,16.43,0,0,1-1.77,1.77,17.27,17.27,0,0,1-1.95,1.59,16.51,16.51,0,0,1-2,1.46c-.55.37-1,1.16-1.65,1.16-1.16,0-2.07-1.16-2.68-2.2a3.17,3.17,0,0,1,.91-4.45,21.29,21.29,0,0,0,2.08-1.46,10.16,10.16,0,0,0,1.71-1.89,11,11,0,0,0,1.4-2.08,16.37,16.37,0,0,0,1-2.32c.31-.73,1.16-1.34,1.41-2.25a13.23,13.23,0,0,0,.49-2.69c.18-.85-.31-1.83-.19-2.74s.31-1.77.37-2.69-.06-1.46-.06-2.44c-.86.06-1.4.25-2.26.25s-1.77-.67-2.62-.67-1.77-.13-2.63-.07-1.7.8-2.5.86c-1,.06-1.83-.06-2.62.06-.12,0-.24-.12-.37-.12a3.67,3.67,0,0,1-2.44-.61,3.65,3.65,0,0,1-1-2.38c-.12-1,.61-1.59,1.16-2.26a2.55,2.55,0,0,1,2-1.16c.67-.06,1.34-.67,2.14-.73s1.46.18,2.25.18,1.47.25,2.26.19,1.46-.74,2.2-.74,1.52.43,2.25.43,1.59-.18,2.38-.18c-.06-.8-.36-1.71-.42-2.56s-.43-1.59-.49-2.45.3-1.64.18-2.5-.37-2.07.18-2.74A4.6,4.6,0,0,1,321.73,1a4.59,4.59,0,0,1,2.68.92,4,4,0,0,1,1.52,2.44c.13.91,0,1.83.13,2.75s-.06,1.83,0,2.74-.13,2-.06,2.87h1.4c.85,0,1.71.06,2.56.06s1.71-.37,2.56-.31,1.71.55,2.57.55,1.7-.73,2.56-.73a4.48,4.48,0,0,1,2.56,1.28c.61.61.3,1.65.3,2.56Z"/><path class="a" d="M373.51,25a3.35,3.35,0,0,1-1.83,1.71,4.64,4.64,0,0,1-.91.06,3.38,3.38,0,0,1-2-.61,3.47,3.47,0,0,1-1.29-1.65c-.24-.73-.67-1.46-.91-2.26s.18-1.64,0-2.44-.67-1.4-.85-2.19-.13-1.59-.25-2.38-.24-1.53-.37-2.32-.67-1.46-.73-2.26.25-1.64.19-2.38h-.43a3.46,3.46,0,0,1,.73-2.56,4.09,4.09,0,0,1,2.32-1.58,4.18,4.18,0,0,1,2.81.79,4,4,0,0,1,.91,2.56c.12.79.43,1.65.55,2.5s.43,1.65.55,2.5.3,1.71.49,2.5,0,1.77.18,2.57.43,1.71.61,2.5.79,1.65,1,2.38C374.55,23.35,373.94,24.21,373.51,25Zm12-3a4,4,0,0,1-2.38,1.53,3,3,0,0,1-.73,0,3.55,3.55,0,0,1-2.07-1,2.88,2.88,0,0,1-1.1-1.89c-.18-.73-.12-1.53-.25-2.32s-1-1.4-1.16-2.14-.12-1.58-.18-2.31,0-1.59-.06-2.32-.36-1.53-.49-2.26-.42-1.53-.55-2.26a4.06,4.06,0,0,1,1-2.68,4.1,4.1,0,0,1,2.2-1.71,4.3,4.3,0,0,1,2.8.85,3.83,3.83,0,0,1,1.28,2.44c.13.74-.06,1.53.06,2.26s.19,1.53.31,2.26.73,1.4.85,2.13-.61,1.65-.48,2.38.91,1.41,1,2.14-.12,1.52,0,2.26C385.78,20.24,386,21.34,385.53,22ZM401,16c-.25.73-.55,1.47-.86,2.2s-1.22,1.16-1.52,1.89-.12,1.65-.43,2.38-1.22,1.16-1.52,1.89-.31,1.59-.68,2.26-.61,1.46-1,2.19-.49,1.47-.86,2.2-.61,1.4-1,2.13-.73,1.35-1.1,2.08-1,1.22-1.4,1.89a22.59,22.59,0,0,1-1.1,2.07c-.37.74-.49,1.59-.86,2.26s-1.34,1-1.76,1.65l.24.18a3.2,3.2,0,0,1-4.64,1.47,3.49,3.49,0,0,1-1.4-2.32,3.5,3.5,0,0,1,.24-2.69c.37-.73.68-1.52,1-2.19s1.59-1,2-1.71.61-1.53,1-2.2.61-1.52,1-2.26.91-1.34,1.28-2.07.61-1.52,1-2.26.61-1.52,1-2.25.67-1.47,1-2.2.06-1.77.36-2.5.68-1.53,1-2.26,1.4-1.22,1.71-1.95-.06-1.77.24-2.5.73-1.47,1-2.26a3.41,3.41,0,0,1,1.95-1.83,3.22,3.22,0,0,1,2.56.18,3.13,3.13,0,0,1,1.77,1.65,3.31,3.31,0,0,1,.43,2.62C401.58,14.51,401.33,15.3,401,16Z"/></svg>