<svg xmlns="http://www.w3.org/2000/svg" viewBox="0 0 344.63 51.34"><defs><style>.a{fill:#932323;}</style></defs><title>アセット 8</title><path class="a" d="M41,35.12c0,.79-.07,1.46-.13,2.19s.55,1.71.31,2.44a15.56,15.56,0,0,1-1,2.08A21,21,0,0,1,39.43,44c-.37.67-1.28,1-1.71,1.59s-.85,1.22-1.34,1.83-.92,1.22-1.47,1.77a3,3,0,0,1-2.31.61c-.92,0-2.14.24-2.81-.49s-.49-1.89-.49-2.74a3.32,3.32,0,0,1,1.1-2.26,17.4,17.4,0,0,0,1.77-1.89,12.1,12.1,0,0,0,.91-2.5,11.49,11.49,0,0,0,.86-2.38c.24-.86,1-1.59,1-2.44a9.82,9.82,0,0,0-.25-2.69,9.9,9.9,0,0,0-1.4-2.26A13.45,13.45,0,0,0,31,27.31c-.3.73-.43,1.89-.73,2.62s-1.22,1.1-1.59,1.83-.3,1.53-.67,2.2-.67,1.4-1,2.07a21.44,21.44,0,0,1-1.09,2c-.43.68-.8,1.35-1.22,2s-1,1.28-1.47,1.83-1.34,1-1.89,1.64-.91,1.41-1.52,2c0,.73.12,1.34.18,2a3.43,3.43,0,0,1-.79,2.44,3.93,3.93,0,0,1-2.32,1.46c-.06,0-.19-.36-.25-.36a3.29,3.29,0,0,1-2.74-2,10.08,10.08,0,0,1-2,.19,9.08,9.08,0,0,1-1.83.3c-.68,0-1.35.37-2,.25s-1.46-.12-2.07-.37A13.28,13.28,0,0,1,3.74,48c-.67-.55-.73-1.59-1.28-2.26a14.4,14.4,0,0,1-1.22-2.07c-.3-.8-1-1.41-1.16-2.2a11.6,11.6,0,0,1,0-2.5,15.76,15.76,0,0,1,0-2.38C.2,35.85.26,35,.45,34.2S1.61,33,1.91,32.31s.18-1.71.61-2.38,1.16-1,1.65-1.65a12.67,12.67,0,0,1,1.22-1.89A20.16,20.16,0,0,1,7.16,25c.55-.49.91-1.28,1.52-1.77s1.47-.49,2.08-.85a16.56,16.56,0,0,1,2.07-1.16c0-.8-.3-1.65-.24-2.38s.12-1.53.18-2.32.18-1.89.18-2.62c-1.09-.37-1.22.79-2.38.79l-2.25.12C7.16,14.8,7.16,14,6,14a4.06,4.06,0,0,1-.06.85A3.83,3.83,0,0,1,3.5,13.52C2.89,13,3,12,3,11.08s-.18-1.89.43-2.5S5,8.09,5.88,8.09c1.22,0,1.22-.3,2.44-.36s1.22.24,2.44.18a5.39,5.39,0,0,0,2.38-.55c.06-.79-.31-1.46-.25-2.2s.73-1.52.8-2.25A3.34,3.34,0,0,1,14.6.47,3.72,3.72,0,0,1,17.22,0c.92.12,2.08.12,2.63.79s.48,1.77.42,2.75c-.06.55.06,1.22.06,1.89s-.18.79-.24,1.46c1.1.25,1,0,2.2-.06s1.22.31,2.38.31a7.2,7.2,0,0,1,2.31.3c1.16-.06,1.16.12,2.32.12,1-.06,1.89-.24,2.5.37a3.36,3.36,0,0,1,.61,2.5,3.12,3.12,0,0,1-.67,2.26,3,3,0,0,1-2.25.91c-1.29.06-1.29-.06-2.51,0s-1.22.06-2.44.06-1.22-.12-2.5-.12A5.49,5.49,0,0,0,19.6,14c-.06.79.31,1.77.31,2.62s-.86,1.65-.86,2.5l.86-.06c.67-.12,1.34.18,1.95.12S23.14,19,23.75,19a29.6,29.6,0,0,1,3.3.18,8.42,8.42,0,0,0,.42-1.34c.25-.91.49-2,1.22-2.44a4.12,4.12,0,0,1,2.87-.36c.91.24,1.52,1.22,1.95,1.95a3.63,3.63,0,0,1,.43,2.62c-.12.55-.12.79-.25,1.34.74.43.86,1.41,1.53,2s1.65.85,2.2,1.52a18.38,18.38,0,0,1,1.7,2.07c.37.61.25,1.53.55,2.2s.8,1.28,1,2a14.67,14.67,0,0,1,.61,2.14C41.44,33.59,41,34.38,41,35.12ZM12.71,39.33c-.06-.92.18-1.77.18-2.69S13,34.93,13,34s-.55-1.77-.55-2.62.31-1.65.31-2.51c-.55.43-1.1.67-1.65,1.16s-.85,1.16-1.34,1.71a19.71,19.71,0,0,0-1.46,1.71,9.81,9.81,0,0,0-.92,2.68A8.6,8.6,0,0,0,6.73,39a6.26,6.26,0,0,0,.12,2.44,4.17,4.17,0,0,0,1.89,1.77c.37.18.92-.49,1.29-.43a5.65,5.65,0,0,0,3.29-.67C13.26,41.22,12.71,40.18,12.71,39.33Zm11-14.4a14.94,14.94,0,0,0-2.74.36,15.88,15.88,0,0,0-1.83.74c0,.36-.25.79-.25,1.16,0,.91.49,1.83.49,2.8s.24,1.83.24,2.75-.12,1.46-.12,2.38c.43-.61.25-1,.61-1.77a20.46,20.46,0,0,0,1.1-2c.37-.68,1.22-1.1,1.53-1.77s1-1.29,1.34-2,.49-1.58.79-2.25C24.61,25.36,24.06,24.93,23.75,24.93Z"/><path class="a" d="M102.69,35a13.27,13.27,0,0,1-1,2.32,12.39,12.39,0,0,1-1.16,2.2,14.46,14.46,0,0,1-1.59,2.07,14.15,14.15,0,0,1-2.37,1,12.91,12.91,0,0,1-2.2,1.28,11.5,11.5,0,0,1-2.56.31,9.87,9.87,0,0,1-2.32-.49A10.47,10.47,0,0,1,87.19,43a11.82,11.82,0,0,1-2-1.22c-.55-.49-1-1.1-1.47-1.59a19.48,19.48,0,0,1-1.22-1.71C82,37.92,81.4,37.5,81,37a6.67,6.67,0,0,0-2.2-1.77,5.19,5.19,0,0,0-2.68-.74c-.18,0-.37-.18-.61-.18a7.32,7.32,0,0,0-2,.31c-.49.18-.8.91-1.41,1.34a11.5,11.5,0,0,0-1.64,1.46c-.49.49-.92,1-1.47,1.71-.43.49-1.22.86-1.71,1.53s-.91,1.16-1.28,1.83A3,3,0,0,1,63.4,44c-.55,0-1.1.19-1.59-.06A3.3,3.3,0,0,1,60.47,42a2.8,2.8,0,0,1,0-2.2c.49-1.16.18-1.28.61-2.38s.86-.91,1.28-2,.37-1.16.8-2.26-.13-1.34.3-2.44.37-1.1.79-2.25.86-.92,1.28-2,.55-1.1,1-2.19a6,6,0,0,0,.31-2.38c.48-1.16.61-1.1,1-2.2s.8-.91,1.28-2-.06-1.34.37-2.44.85-.92,1.28-2,.12-1.22.55-2.31.37-1.16.79-2.26a4.07,4.07,0,0,1,1.89-2,3.43,3.43,0,0,1,2.69.12,3.25,3.25,0,0,1,1.52,2A3,3,0,0,1,78.41,11c-.43,1.16-.61.85-1.16,2.13-.25.74-.49,1.53-.8,2.32s-.54,1.59-.85,2.26c-.55,1.34-.67,1.1-1.1,2.2s-.24,1.22-.73,2.31-.49,1.1-1,2.26-.61,1-1,2.14.06,1.28-.12,2.5c.54-.37.79-.92,1.46-1.16a6.49,6.49,0,0,1,2.13-.12c.37-.06.74-.61,1.1-.61a7.09,7.09,0,0,1,2.32.67,8.54,8.54,0,0,1,2.26.61A10.73,10.73,0,0,1,83,29.63a10.36,10.36,0,0,1,2,1.34c.55.61.74,1.46,1.22,2.07a20.07,20.07,0,0,0,1.35,2,10.92,10.92,0,0,0,1.7,1.71c.86.67,1.53.37,2.57.37a3.72,3.72,0,0,0,2.44-.73,6.23,6.23,0,0,0,1.4-2.2,11.76,11.76,0,0,0,.79-2.56,4.11,4.11,0,0,1,1.47-2.38,3.56,3.56,0,0,1,2.56-.18,2.79,2.79,0,0,1,2.13,1.09,3.56,3.56,0,0,1,1,2.44A14.34,14.34,0,0,1,102.69,35Z"/><path class="a" d="M152.83,29.32c-.61.49-1.1,1-1.89,1-.19,0-.43.49-.55.42-1.22-.18-1.16-.54-2.44-.73s-1.22-.06-2.44-.24-1.28.06-2.5-.12-1.16-.43-2.38-.61-1.28-.74-2.5-.61c0,.67.06,1.52.06,2.19,0,.86-.31,1.71-.37,2.63s.79,1.77.79,2.62-.42,1.77-.42,2.68-.19,1.77-.25,2.63-.36,1.77-.42,2.62a2.58,2.58,0,0,1-1,2,2.72,2.72,0,0,1-2,.92c-.06,0-.13.36-.19.36a4,4,0,0,1-2.68-.85,4.38,4.38,0,0,1-.92-2.75c.07-.85.49-1.7.55-2.56s-.3-1.71-.24-2.62-.06-1.71-.06-2.56.12-1.71.12-2.56.49-1.71.49-2.57-.37-1.58-.37-2.38.37-1.58.37-2.38-.55-1.58-.55-2.37,0-1.59-.06-2.38.36-1.59.3-2.38-.06-1.59-.12-2.38-.49-1.59-.49-2.32.31-1.65.25-2.38-.06-1.65-.06-2.38-.25-1.65-.31-2.38h.67c0-.91-.3-2.07.31-2.68s1.77-.67,2.68-.67a3,3,0,0,1,2.38.85,3.12,3.12,0,0,1,1,2.32c0,.79-.06,1.65-.06,2.5s-.13,1.65-.13,2.5.55,1.65.55,2.5-.06,1.65,0,2.5.19,1.65.19,2.5.12,1.29.18,2.14c1,.55.85.67,1.95.85s1.16,0,2.26.19,1.16-.25,2.32-.12,1,1,2.07,1.15,1.16-.06,2.26.07,1.16-.07,2.25.06a3.79,3.79,0,0,1,2.44,1.28,3.8,3.8,0,0,1,.61,2.74C154.35,28.41,153.44,28.77,152.83,29.32Zm-.25-9.64c-.48.43-.91,1.1-1.58,1.1-.06,0-.12-.43-.19-.43-.73-.06-1.64.06-2.07-.42a3,3,0,0,1-.43-2.2c.06-.85-.36-1.89-.36-2.87,0-1.77.24-1.64.18-3.29-.06-.73.61-1.22,1.1-1.71s.85-1.52,1.65-1.59a3.93,3.93,0,0,1,2.07,1c.49.49.37,1.28.37,2.08v3.47c0,1,.85,2.26.79,3.3C154.05,18.89,153.07,19.19,152.58,19.68Zm9-3.78c0,.79-.06,1.59-.12,2.32a2,2,0,0,1-.73,1.58,2.22,2.22,0,0,1-1.65.86c-.06,0-.12.12-.18.06a3,3,0,0,1-2.08-.67,3.19,3.19,0,0,1-.24-2.14c0-.67.06-1.46.06-2.19s0-1.53.06-2.2a7.88,7.88,0,0,0-.36-2.32l.06.12c0-.73.73-1.15,1.22-1.64a2.2,2.2,0,0,1,1.64-.86c.74,0,1.65-.12,2.14.37s.18,1.4.18,2.13a5.68,5.68,0,0,1,.49,2.32C162.1,14.31,161.67,15.11,161.61,15.9Z"/><path class="a" d="M221.27,25.11a3.34,3.34,0,0,1-1.1,2.32,2.91,2.91,0,0,1-2.26.73v.55c-.79,0-1.58-.55-2.37-.49s-1.59.31-2.38.31-1.53-.12-2.32-.12-1.59.42-2.38.42-1.59-.42-2.38-.42-1.52.24-2.32.24-1.58.49-2.38.49-1.52-.43-2.32-.43-1.58.43-2.37.49-1.59-.79-2.38-.79-1.53.85-2.32.85-1.59-.12-2.38-.06l.06-.31v.49h-.12v-.49a3.07,3.07,0,0,1-2.2-1.09c-.61-.61-1.52-1.16-1.52-2.14,0,0,0-.06.12-.06a3.75,3.75,0,0,1,1.22-2.38,3.55,3.55,0,0,1,2.32-1.28v-.12c.79,0,1.58.67,2.38.67s1.58-.18,2.37-.18,1.53-.49,2.32-.49,1.59-.19,2.38-.19,1.59,0,2.38-.06,1.53.12,2.32.12,1.59-.06,2.38-.06,1.52.37,2.32.31,1.58.12,2.38.12,1.58.25,2.31.25,1.59-.37,2.38-.43,1.59.3,2.38.3a2.88,2.88,0,0,1,2.38.55,3.2,3.2,0,0,1,.73,2.38Z"/><path class="a" d="M283.19,17.42c0,1,.3,2.08-.31,2.69s-1.77.37-2.68.3-1.71-.06-2.57-.06-1.64.55-2.5.55-1.71.19-2.5.19-1.71-.8-2.56-.8c-.24,0-.92.25-1.22.25,0,.91.06,1.83.06,2.68s.61,1.77.55,2.62-.49,1.71-.61,2.5a25.3,25.3,0,0,1-.67,2.51c-.19.85-.55,1.64-.73,2.44s-.19,1.77-.43,2.56-1,1.4-1.4,2.13-.25,1.83-.67,2.5-1.41,1.1-1.9,1.77A16.43,16.43,0,0,1,261.28,44a17.27,17.27,0,0,1-1.95,1.59,15.48,15.48,0,0,1-1.95,1.46c-.55.37-1,1.16-1.65,1.16-1.16,0-2.07-1.16-2.68-2.19a3.19,3.19,0,0,1,.91-4.46A19.7,19.7,0,0,0,256,40.12a10.16,10.16,0,0,0,1.71-1.89,10.22,10.22,0,0,0,1.4-2.08,16.71,16.71,0,0,0,1-2.31c.3-.74,1.15-1.35,1.4-2.26a13.23,13.23,0,0,0,.49-2.69c.18-.85-.31-1.83-.19-2.74s.31-1.77.37-2.69-.06-1.46-.06-2.44c-.86.07-1.4.25-2.26.25s-1.77-.67-2.62-.67-1.77-.12-2.62-.06-1.71.79-2.51.85c-1,.06-1.83-.06-2.62.06-.12,0-.24-.12-.37-.12a3.67,3.67,0,0,1-2.44-.61,3.65,3.65,0,0,1-1-2.38c-.12-1,.61-1.59,1.16-2.26a2.55,2.55,0,0,1,2-1.16c.67-.06,1.34-.67,2.14-.73s1.46.18,2.25.18,1.47.25,2.26.19,1.46-.73,2.2-.73,1.52.42,2.25.42,1.59-.18,2.38-.18c-.06-.79-.36-1.71-.42-2.56s-.43-1.59-.49-2.44.3-1.65.18-2.5-.37-2.08.18-2.75a4.53,4.53,0,0,1,2.57-1.46,4.58,4.58,0,0,1,2.68.91,4.08,4.08,0,0,1,1.53,2.44c.12.92,0,1.83.12,2.75s-.06,1.83,0,2.74-.12,2-.06,2.87h1.4c.85,0,1.71.06,2.56.06s1.71-.37,2.56-.3,1.71.54,2.57.54,1.7-.73,2.56-.73a4.48,4.48,0,0,1,2.56,1.28c.61.61.31,1.65.31,2.57Z"/><path class="a" d="M316.18,26.33A3.35,3.35,0,0,1,314.35,28a4.64,4.64,0,0,1-.91.06,3.38,3.38,0,0,1-2-.61,3.47,3.47,0,0,1-1.29-1.65c-.24-.73-.67-1.46-.91-2.25s.18-1.65,0-2.44-.67-1.41-.85-2.2-.13-1.59-.25-2.38-.24-1.52-.36-2.32-.68-1.46-.74-2.25.25-1.65.19-2.38h-.43a3.48,3.48,0,0,1,.73-2.57,4.09,4.09,0,0,1,2.32-1.58,4.24,4.24,0,0,1,2.81.79,4,4,0,0,1,.91,2.56c.12.8.43,1.65.55,2.5s.43,1.65.55,2.51.3,1.7.49,2.5,0,1.77.18,2.56.43,1.71.61,2.5.79,1.65,1,2.38C317.22,24.68,316.61,25.54,316.18,26.33Zm12-3a4,4,0,0,1-2.38,1.53,3,3,0,0,1-.73,0,3.55,3.55,0,0,1-2.07-1,2.88,2.88,0,0,1-1.1-1.89c-.18-.73-.12-1.53-.25-2.32s-1-1.4-1.15-2.13-.13-1.59-.19-2.32,0-1.59-.06-2.32-.36-1.53-.49-2.26-.42-1.52-.55-2.25a4.06,4.06,0,0,1,1-2.69,4.15,4.15,0,0,1,2.2-1.71,4.25,4.25,0,0,1,2.8.86,3.79,3.79,0,0,1,1.28,2.44c.13.73-.06,1.52.07,2.25s.18,1.53.3,2.26.73,1.4.85,2.14-.61,1.64-.48,2.38.91,1.4,1,2.13-.12,1.53,0,2.26C328.45,21.57,328.69,22.67,328.2,23.34Zm15.5-6c-.25.74-.55,1.47-.86,2.2s-1.22,1.16-1.52,1.89-.12,1.65-.43,2.38-1.22,1.16-1.52,1.89-.31,1.59-.68,2.26-.61,1.46-1,2.19-.49,1.47-.86,2.2-.61,1.4-1,2.14-.73,1.34-1.1,2.07-1,1.22-1.4,1.89-.67,1.4-1.1,2.08-.49,1.58-.85,2.25-1.35,1-1.77,1.65l.24.18a3.18,3.18,0,0,1-4.64,1.47,3.49,3.49,0,0,1-1.4-2.32,3.5,3.5,0,0,1,.24-2.69c.37-.73.68-1.52,1-2.19s1.59-1,2-1.71.62-1.52,1-2.2.61-1.52,1-2.25.91-1.34,1.28-2.08.61-1.52,1-2.25.61-1.53,1-2.26.67-1.47,1-2.2.06-1.77.36-2.5.68-1.52,1-2.26,1.4-1.22,1.71-2-.06-1.77.24-2.5.73-1.46,1-2.26a3.41,3.41,0,0,1,2-1.83,3.18,3.18,0,0,1,2.56.19,3.08,3.08,0,0,1,1.77,1.64,3.34,3.34,0,0,1,.43,2.63C344.25,15.84,344,16.63,343.7,17.36Z"/></svg>