<svg xmlns="http://www.w3.org/2000/svg" viewBox="0 0 109.54 52.63"><defs><style>.a{fill:#fff;}</style></defs><title>アセット 51</title><path class="a" d="M37.71,9a15.61,15.61,0,0,0,2.93-3.6c-.56.1-3,.56-5.56,1L35,11.22c0,1.11.3,1.51,2.26,1.54a31.31,31.31,0,0,0,5.7-.51l-.11,2.43a42.77,42.77,0,0,1-5.58.31c-4.11-.05-4.69-1.05-4.66-3.18L32.7,6.9c-1.61.3-3,.57-3.79.74l-.4-2.37c.85-.09,2.43-.34,4.22-.64l0-2.58a15.17,15.17,0,0,0-.12-2l2.68,0a16.41,16.41,0,0,0-.19,2.05l0,2.12c2.64-.45,5.17-.93,6-1.1a5.48,5.48,0,0,0,1.28-.42l1.71,1.38c-.16.25-.44.64-.6,1a25.5,25.5,0,0,1-3.8,5.19Z"/><path class="a" d="M47.29,6.08c.65.06,2,.13,2.9.14l9.67.14c.82,0,1.64-.05,2.1-.08l0,2.83c-.43,0-1.34-.11-2.1-.12l-9.67-.14c-1,0-2.23,0-2.9.05Z"/><path class="a" d="M64.25,14a8.56,8.56,0,0,0,3.12-4.26c.52-1.54.59-4.95.62-7.13A6.69,6.69,0,0,0,67.85,1L70.5,1a11.16,11.16,0,0,0-.15,1.62,39.84,39.84,0,0,1-.65,7.73,10.38,10.38,0,0,1-3.28,5.12Zm8.33.38A7.69,7.69,0,0,0,72.74,13l.15-10.49A8.9,8.9,0,0,0,72.77,1l2.68,0A8.94,8.94,0,0,0,75.3,2.6L75.17,12a11.34,11.34,0,0,0,4.5-3.73l1.36,2a20,20,0,0,1-6.18,4.83,4.42,4.42,0,0,0-.8.53Z"/><path class="a" d="M0,42.92l8.21-.52a6.34,6.34,0,0,0,1.08,3.05,4.56,4.56,0,0,0,3.81,1.69A4.22,4.22,0,0,0,16,46.28a2.62,2.62,0,0,0,1-2A2.57,2.57,0,0,0,16,42.33q-1-.86-4.42-1.62c-3.79-.85-6.48-2-8.1-3.39a6.83,6.83,0,0,1-2.43-5.39,7.33,7.33,0,0,1,1.24-4.07,8.38,8.38,0,0,1,3.76-3,17.49,17.49,0,0,1,6.86-1.09q5.36,0,8.16,2a8.59,8.59,0,0,1,3.34,6.33l-8.13.48a4.39,4.39,0,0,0-1.36-2.75A4.38,4.38,0,0,0,12.05,29a3.42,3.42,0,0,0-2.26.64A1.93,1.93,0,0,0,9,31.15a1.59,1.59,0,0,0,.62,1.2,7.16,7.16,0,0,0,2.9,1,36.17,36.17,0,0,1,8.1,2.46,8.51,8.51,0,0,1,3.56,3.1,7.78,7.78,0,0,1,1.12,4.13,8.85,8.85,0,0,1-1.49,5,9.28,9.28,0,0,1-4.15,3.44A16.8,16.8,0,0,1,13,52.63q-7.12,0-9.87-2.74A10.87,10.87,0,0,1,0,42.92Z"/><path class="a" d="M46.83,47.54H37l-1.36,4.61H26.87L37.36,24.24h9.41L57.26,52.15h-9Zm-1.79-6L42,31.47l-3.05,10Z"/><path class="a" d="M60,24.24h8.63v21H82.09v6.87H60Z"/><path class="a" d="M86,24.24h23.12v6H94.64v4.43h13.43v5.7H94.64v5.5h14.9v6.32H86Z"/></svg>