<svg xmlns="http://www.w3.org/2000/svg" viewBox="0 0 223.88 43.56"><defs><style>.a{fill:#932323;}</style></defs><title>アセット 6</title><path class="a" d="M41.55,8.67c-.3.73-.49,1.53-.85,2.26s-.31,1.58-.67,2.25-.68,1.47-1,2.14-1,1.22-1.4,1.95-.68,1.47-1,2.14-1.34,1-1.77,1.64-.73,1.47-1.16,2.08-.37,1.71-.85,2.32S31.49,26.48,31,27a3.19,3.19,0,0,1-2.63,1.16c-.73,0-1.77.25-2.44-.3a3.93,3.93,0,0,1-1.22-2.63,3.59,3.59,0,0,1,1-2.56,22.36,22.36,0,0,0,1.52-1.83c.43-.61.49-1.46,1-2.13s1.28-1,1.71-1.77.67-1.41,1-2.08.48-1.52.85-2.25.79-1.35,1.1-2,1.1-1.34,1.4-2c-.85-.06-1.77-.12-2.56-.12S30,8.12,29.17,8.12s-1.71.12-2.57.12-1.7.13-2.5.13-1.7.3-2.56.36-1.65-.55-2.5-.55-1.65.92-2.5.92-1.71-.25-2.5-.19-1.71.19-2.5.19S9.83,8.91,9,8.91s-1.64.31-2.5.37S4.76,9,4,9a3.44,3.44,0,0,1-2.44-.67A4.22,4.22,0,0,1,0,6.05,4.22,4.22,0,0,1,.86,3.3c.61-.67,1.77-.49,2.75-.55.79-.06,1.58-.85,2.5-.91s1.71.85,2.56.79,1.71-.06,2.56-.12,1.71,0,2.56-.06,1.71-.06,2.57-.12,1.7-.68,2.56-.74,1.71.06,2.56.06S23.19,2,24,2s1.71.06,2.56.06,1.71.18,2.57.18,1.7-.67,2.56-.67h2.5c.85.06,1.71,0,2.56.06s1.71.37,2.5.43a3.1,3.1,0,0,1,2.63,1.47,3.3,3.3,0,0,1,.42,2.92C42.1,7.21,41.86,7.94,41.55,8.67ZM22.33,20.14c-.12.79-.55,1.59-.67,2.38S21.42,24.1,21.3,25s-.37,1.58-.49,2.38-.24,1.58-.43,2.44-.36,1.58-.49,2.38-.06,1.64-.24,2.44-.24,1.64-.49,2.44-.61,1.52-.85,2.32-.8,1-1.34,1.4-1,1.16-1.77,1.16a4.16,4.16,0,0,1-1-.19c-.91-.3-1.28-1.09-1.71-1.89s-1-1.52-.73-2.44c.18-.73.85-1.4,1.1-2.13s-.37-1.71-.18-2.44,1.15-1.34,1.28-2.14-.37-1.64-.19-2.44.25-1.52.37-2.26.61-1.52.73-2.25.55-1.53.61-2.32.06-1.52.18-2.32.55-1.52.68-2.25-.25-1.65-.19-2.38h-.06a3.2,3.2,0,0,1,1.47-2.08c.73-.55,1.46-1.22,2.37-1.1a3.6,3.6,0,0,1,2.2,1.53,3.66,3.66,0,0,1,.86,2.5c-.07.79.12,1.65,0,2.44S22.46,19.35,22.33,20.14Z"/><path class="a" d="M101.27,8.55a2.87,2.87,0,0,1-.67,1.52c-.73,1-.86.92-1.65,1.89s-.24,1.35-1,2.26-1,.86-1.77,1.77-.92.86-1.71,1.83S94.13,19,93.4,20a23.69,23.69,0,0,1-1.65,1.83L90.29,23.8c-.73,1-.61,1-1.4,2s-1,.8-1.71,1.77-1.41.86-1.22,2c.24,1.41,1,1,2,1.9s1,1,2,1.95a3.3,3.3,0,0,1,1.47,2.19,3.82,3.82,0,0,1-.92,2.57,3.44,3.44,0,0,1-2.62.85,3.17,3.17,0,0,1-2.14-.73c-.85-.79-1.22-.37-2.13-1.16s-1-.67-1.89-1.46A21.32,21.32,0,0,0,80,34.11c-.92-.79-.67-1.1-1.53-1.83s-1.22-.43-2.07-1.22-.73-1-1.65-1.77-1-.55-2-1.28a4.28,4.28,0,0,1-1.28-2.69,4,4,0,0,1,1-2.62c.61-.73,1.71-.61,2.56-.67a2.69,2.69,0,0,1,2.13.79c.8.67,1.16.25,2,.92s.55,1,1.52,1.28c1.22.3.8-.43,1.71-1.65.43-.55.67-1.46,1.22-2.19s1.16-1.16,1.71-1.83,1.16-1.28,1.65-2,1.15-1.28,1.58-1.89c.92-1.16.61-1.1,1.4-2.07a5.69,5.69,0,0,0,1.16-2.2c-.73,0-1.22-.36-2-.36s-1.46.61-2.19.61-1.47-.13-2.2-.13h-2.2c-.85,0-1.77-.06-2.62-.06s-1.71.25-2.62.25-1.71-.31-2.63-.31-1.7.49-2.56.49-1.77-.18-2.62-.18-1.77-.12-2.62-.06a3.12,3.12,0,0,1-2.32-1,3.08,3.08,0,0,1-1.28-2.26,3.38,3.38,0,0,1,.79-2.56c.55-.67,1.58-.61,2.5-.67S68.2,4.77,69,4.77s1.46-.37,2.26-.43,1.52.06,2.25.06,1.53.43,2.32.37,1.53-.13,2.26-.13,1.52-.73,2.32-.73,1.52.49,2.25.49,1.71.24,2.63.24h2.56c.85,0,1.71-.18,2.62-.12s1.71.18,2.56.25,1.77-.25,2.63-.25,1.71.37,2.62.43c.61,0,1.4-.18,1.89.12s.61,1.1.86,1.71a2.79,2.79,0,0,1,.24,1.71Z"/><path class="a" d="M143.36,12.27c-.67.49-1.53.3-2.5.18-.61-.06-1.47.8-2.38.8-.73-.07-1.53-.19-2.32-.19h-2.32c-.85,0-1.65-.61-2.32-.61-1.4.06-2.32.19-2.32.19s-.12.67-.18.67a4,4,0,0,1-2.44-1.16,3.56,3.56,0,0,1-1-2.38,3.22,3.22,0,0,1,1.1-2.32c.55-.67,1.22-1.52,2.14-1.59a5,5,0,0,0,2.5.55,23.23,23.23,0,0,1,2.44-.36c.79-.06,1.59-.06,2.44-.06s1.89-.43,2.74-.37a17.57,17.57,0,0,1,2.75.37,3.63,3.63,0,0,1,2.13,1.58,3,3,0,0,1,.37,2.32C144,10.81,144,11.72,143.36,12.27Zm17.32,7.26c-.55.55-1.58.73-2.25,1.34s-1,1.34-1.59,1.95-1.4,1-2,1.53-1.47.91-2.08,1.52-.91,1.47-1.58,2.08-1.28,1-2,1.58-1.15,1.29-1.76,1.77-1.65.67-2.32,1.22-1.41.92-2.14,1.41-1.1,1.34-1.77,1.83-1.46.91-2.13,1.34a3.5,3.5,0,0,1-1.83.49,3.19,3.19,0,0,1-2.69-1.65,3.57,3.57,0,0,1-.85-2.44,3.55,3.55,0,0,1,1.71-2.08c.67-.42,1.22-1.09,1.83-1.52s1.64-.49,2.32-1a20.67,20.67,0,0,0,1.89-1.46,23,23,0,0,0,1.77-1.65c.67-.49,1.28-1,1.89-1.52s1.1-1.16,1.71-1.65,1.22-1.1,1.76-1.65,1-1.28,1.59-1.83,1.34-.91,1.89-1.46,1.53-.79,2.08-1.34,1-1.28,1.58-1.77c.67-.67,1.34-1.65,2.26-1.65s1.65.85,2.32,1.53a3,3,0,0,1,.79,2.31C161.11,17.64,161.35,18.86,160.68,19.53Z"/><path class="a" d="M214.61,25.75c-.61.49-1.1,1-1.89,1-.19,0-.43.49-.55.43-1.22-.19-1.16-.55-2.44-.74s-1.22-.06-2.44-.24-1.28.06-2.51-.12-1.15-.43-2.37-.61-1.29-.73-2.51-.61c0,.67.07,1.52.07,2.19,0,.86-.31,1.71-.37,2.63s.79,1.77.79,2.62S200,34.11,200,35s-.19,1.77-.25,2.63-.36,1.77-.43,2.62a2.56,2.56,0,0,1-1,2,2.72,2.72,0,0,1-2,.92c-.07,0-.13.36-.19.36a4,4,0,0,1-2.68-.85,4.38,4.38,0,0,1-.92-2.74c.06-.86.49-1.71.55-2.57s-.3-1.7-.24-2.62-.06-1.71-.06-2.56.12-1.71.12-2.56.49-1.71.49-2.57-.37-1.58-.37-2.38.37-1.58.37-2.37-.55-1.59-.55-2.38,0-1.59-.06-2.38.36-1.59.3-2.38-.06-1.59-.12-2.38-.49-1.59-.49-2.32.31-1.65.25-2.38-.06-1.65-.06-2.38-.25-1.64-.31-2.38H193c0-.91-.3-2.07.31-2.68S195.09,0,196,0a3,3,0,0,1,2.38.85,3.12,3.12,0,0,1,1,2.32c0,.79-.07,1.65-.07,2.5s-.12,1.65-.12,2.5.55,1.65.55,2.5-.06,1.65,0,2.5.18,1.65.18,2.51.13,1.28.19,2.13c1,.55.85.67,1.95.86s1.16,0,2.26.18,1.16-.25,2.32-.12,1,1,2.07,1.16,1.16-.07,2.26.06,1.16-.06,2.25.06a3.79,3.79,0,0,1,2.44,1.28,3.8,3.8,0,0,1,.61,2.74C216.13,24.84,215.22,25.2,214.61,25.75Zm-.25-9.64c-.49.43-.91,1.1-1.58,1.1-.06,0-.13-.43-.19-.43-.73-.06-1.64.07-2.07-.42a3,3,0,0,1-.43-2.2c.06-.85-.36-1.89-.36-2.87,0-1.77.24-1.64.18-3.29-.06-.73.61-1.22,1.1-1.71s.85-1.52,1.64-1.59a4,4,0,0,1,2.08,1c.49.49.37,1.28.37,2.08v3.47c0,1,.85,2.26.79,3.3C215.83,15.32,214.85,15.62,214.36,16.11Zm9-3.78c0,.79-.06,1.59-.12,2.32a2,2,0,0,1-.73,1.58,2.22,2.22,0,0,1-1.65.86c-.06,0-.12.12-.18.06a3,3,0,0,1-2.08-.67,3.19,3.19,0,0,1-.24-2.14c0-.67.06-1.46.06-2.19s0-1.53.06-2.2a7.88,7.88,0,0,0-.36-2.32l.06.13c0-.74.73-1.16,1.22-1.65a2.18,2.18,0,0,1,1.64-.86c.74,0,1.65-.12,2.14.37s.18,1.4.18,2.14a5.6,5.6,0,0,1,.49,2.31C223.88,10.74,223.45,11.54,223.39,12.33Z"/></svg>