<svg xmlns="http://www.w3.org/2000/svg" viewBox="0 0 187.95 37.85"><defs><style>.cls-1{fill:#a3241d;}</style></defs><title>アセット 12</title><g id="レイヤー_2" data-name="レイヤー 2"><g id="レイヤー_1-2" data-name="レイヤー 1"><path class="cls-1" d="M29.65,31l-6.95-5.3C18.15,32.55,9.45,38,1.15,37.8L0,37.75c4.4-3.2,14.6-11.2,17.2-16.25l-11-8.4a40.31,40.31,0,0,1,13.3,2.6C21.25,10.55,22.7,5.25,24.05,0l5.6,2.3a103.92,103.92,0,0,1-4,16.9c2.15,1.65,6.25,5.55,6.25,8.4A3.8,3.8,0,0,1,29.65,31Z"/><path class="cls-1" d="M87.7,35.1H49.6L53,26l1.85,2.45H87.65ZM83.4,11.35,54,11.4l3.3-8.7,1.8,2.45H83.4Z"/><path class="cls-1" d="M133.3,37.85H105.1l2-5.65,1.3,1.7h11.2a113.37,113.37,0,0,0,2.8-13L109.75,21l1.9-5.4,1.25,1.6h10l.1-1.5,3.85,1.4a17.72,17.72,0,0,1,.35,3.65c0,4.5-1.9,10.1-5.35,13.2h11.4Z"/><path class="cls-1" d="M188,23.3H149.7l3.55-9.8,2.25,3H188Z"/></g></g></svg>