<svg xmlns="http://www.w3.org/2000/svg" viewBox="0 0 522.7 47.88"><defs><style>.a{fill:#932323;}</style></defs><title>アセット 5</title><path class="a" d="M33.38,26c-.61.67-1.1,1.58-2,1.64s-1.71.31-2.57.37S27,27.5,26.18,27.5s-1.71.67-2.56.67-1.47.18-2.32.25c-.12.79-.06,1.4-.18,2.19S20.14,32.14,20,33s-.06,1.65-.25,2.5-.12,1.65-.3,2.5-.49,1.59-.67,2.38-.37,1.65-.55,2.44a21.9,21.9,0,0,1-.49,2.44,4.35,4.35,0,0,1-1.16,2,4,4,0,0,1-2.19.61c-.37,0-.61-.37-1-.43-.85-.31-1.89-.61-2.32-1.4a3.9,3.9,0,0,1,.06-2.75c.25-.73,0-1.71.19-2.56s.61-1.59.85-2.44.49-1.59.61-2.44.43-1.65.61-2.5.49-1.65.61-2.5.24-1.9.37-2.75c-.74.06-1.65.55-2.32.55s-1.47-.49-2.14-.49-1.46.18-2.13.18-1.65-.06-2.38-.06-1.65.13-2.44.06v-.24A3.25,3.25,0,0,1,.5,27.38c-.61-.61-.49-1.59-.49-2.5a3,3,0,0,1,.73-2.32,3.13,3.13,0,0,1,2.32-1.1c.79,0,1.53.24,2.38.24H7.76c.79,0,1.58-.24,2.44-.24s1.58-.24,2.38-.24,1.58.12,2.44.12c0-.12-.43-.12-.43-.24.12-.8.73-1.47.79-2.2s.13-1.53.19-2.26-.31-1.58-.25-2.32S16,12.68,16,12c-.67.3-1.4,1-2.13,1.34s-1.34.73-2.08,1-1.52.49-2.25.74c-.37.18-.92-.31-1.35-.31a3.53,3.53,0,0,1-1.95-.24A3.68,3.68,0,0,1,4.71,13a4,4,0,0,1,.18-2.8c.37-.8,1.34-1,2.26-1.35.73-.3,1.4-1,2.19-1.4S11.17,7.31,12,7s1.52-.91,2.32-1.28,1.46-1,2.19-1.34,1.59-.73,2.32-1.1,1.77-.49,2.5-.85a15.73,15.73,0,0,0,2-1.65l.13.24c.85-.48,1.76-1.22,2.62-1s1.22,1.34,1.71,2.13a3.35,3.35,0,0,1,.73,2.38,3.52,3.52,0,0,1-1.65,2,21.17,21.17,0,0,1-2,1c-.61.37-1.16.92-1.89,1.28a.06.06,0,0,0-.06.06A8.41,8.41,0,0,1,23,11.4c-.06.67-.37,1.52-.43,2.44-.06.73.12,1.58.06,2.5s-.42,1.58-.49,2.44S22,20.36,22,21.22c.73-.06,1.4.42,2.14.36s1.52-.06,2.25-.12,1.47-.43,2.2-.49,1.46-.42,2.2-.48a3.55,3.55,0,0,1,2.56.91,3.5,3.5,0,0,1,1.22,2.44C34.6,24.76,33.93,25.36,33.38,26Z"/><path class="a" d="M91.09,23c-.07,1.16,0,1.16-.07,2.31s-.79,1.16-.79,2.32.55,1.22.49,2.38-.61,1.1-.67,2.32.49,1.16.49,2.32-.25,1.16-.31,2.38.37,1.16.31,2.32-.86,1.15-.92,2.31.18,1.16.12,2.32A3.35,3.35,0,0,1,86.63,47s-.06-.18-.12-.18a3,3,0,0,1-2.44-1.4c-1.22-.31-1.28.18-2.5.18H79.13c-1.22,0-1.22.12-2.44.12H71.81c-1.16,0-1.16.06-2.38.06a2.84,2.84,0,0,1-2.14-1.1,2.56,2.56,0,0,1-.73-2.13c0-.92-.06-1.77.49-2.32a3.26,3.26,0,0,1,2.38-.85c1.16,0,1.16-.37,2.38-.37s1.16.31,2.32.31,1.22.24,2.38.24,1.15-.49,2.37-.49,1.16.61,2.38.61,1.59.55,2.44-.24.25-1.22.25-2.38.18-1.1.18-2.2.55-1.52-.24-2.26-1.22-.42-2.44-.42-1.28.36-2.5.36-1.22.13-2.44.13-1.22-.31-2.44-.31H71.62c-1.22,0-1.22.18-2.44.18a2.69,2.69,0,0,1-2.07-1,2.76,2.76,0,0,1-1-2.08,3.52,3.52,0,0,1,.61-2.5,3.48,3.48,0,0,1,2.5-.85c1.22,0,1.22-.25,2.51-.25s1.22.43,2.5.43,1.22.31,2.5.31,1.22-.37,2.5-.37,1.22-.3,2.44-.3,1.89,1.46,2.81.61-.37-1.47-.31-2.63l.12-2.32c0-1.15,1.34-1.77.49-2.62s-1.46.25-2.62.25-1.16-.43-2.32-.43-1.16.36-2.32.36-1.16.55-2.32.55S74,19,72.84,19s-1.15.43-2.31.43-1.16-.55-2.32-.55a2.58,2.58,0,0,1-2.14-.61,2.82,2.82,0,0,1-1-2.14A3,3,0,0,1,66,13.9a2.81,2.81,0,0,1,2.2-.67c1.22,0,1-.43,2.5-.43.73,0,1.53-.19,2.44-.19s1.65-.24,2.44-.24,1.71.55,2.44.55c1.46,0,1.22-.37,2.44-.37s1.22.43,2.44.43,1.28-.24,2.5-.24,1.22.49,2.44.49c.86,0,2-.25,2.56.36a3.48,3.48,0,0,1,.43,2.62c-.06,1.16-.12,1.16-.12,2.32s-.12,1.16-.18,2.38.55,1.16.55,2.38Z"/><path class="a" d="M155.81,14.51c-.06,1.22-.06,1.22-.13,2.44s.49,1.22.37,2.44-.18,1.22-.24,2.44-.13,1.22-.19,2.44-.48,1.22-.55,2.44.13,1.22,0,2.44-.24,1.16-.3,2.38.06,1.22,0,2.44-.12,1.22-.24,2.44a3.1,3.1,0,0,1-.92,2.32,3.46,3.46,0,0,1-2.38.61c-.06,0-.12.36-.18.36a3.53,3.53,0,0,1-2.87-1.59c-1-.54-1.1-.18-2.26-.18s-1.22-.24-2.44-.24-1.22-.18-2.38-.12-1.22.48-2.37.48-1.22,0-2.44.06-1.16.49-2.38.49-1.16,0-2.38,0-1.22.13-2.38.13-1.22-.37-2.38-.37c-.06,0-.06.24-.12.24-.92,0-1.47-.91-2.08-1.52a3.08,3.08,0,0,1-1.1-2.08c0-.91-.12-2.07.43-2.68a4.15,4.15,0,0,1,2.69-1c1.22,0,1.22.19,2.44.19s1.15.06,2.37.06,1.22-.31,2.38-.37,1.22,0,2.44-.06a8,8,0,0,1,2.38.43c1.22,0,1.22-.31,2.38-.37s1.22-.18,2.44-.24,1.16.67,2.38.61a2.2,2.2,0,0,0,2.14-.8c.79-.79.73-.79.79-1.95s0-1.16.06-2.25-.61-1.23-.55-2.32.37-1.1.43-2.26,0-1.1.06-2.26.37-1.1.49-2.25a3.79,3.79,0,0,0-.37-2.14c-.42-1.1-.61-.06-2-.06-.73,0-1.59-.43-2.44-.43s-1.59.8-2.38.86-1.71-.43-2.38-.43c-1.46,0-1.22-.18-2.44-.18s-1.16.55-2.38.55-1.16.12-2.38.18-1.22-.79-2.38-.79a7.09,7.09,0,0,0-2.38.48c-1.22.06-1.22.25-2.44.25a4,4,0,0,1-2.56-1.16c-.61-.61-.36-1.65-.36-2.62a2.9,2.9,0,0,1,.54-2.38,3.16,3.16,0,0,1,2.38-.8c1.22,0,1.1-.42,2.5-.42.8,0,1.71.42,2.51.42,1.4,0,1.28-.06,2.5-.06s1.28.06,2.5.06,1.28-.24,2.5-.24a15.75,15.75,0,0,1,2.56.12c1.22,0,1.22.31,2.5.31s1.22-.43,2.5-.43,1.22-.37,2.51-.37h2.5c1.22,0,1.22.31,2.5.25a3.74,3.74,0,0,1,2.62.91,4,4,0,0,1,1,2.69C156.36,13.29,155.87,13.29,155.81,14.51Z"/><path class="a" d="M215.53,11.94c-.13.86-.92,1.59-1,2.38s-.31,1.65-.43,2.44.43,1.83.25,2.63-1,1.46-1.29,2.25-.24,1.65-.48,2.44-.49,1.59-.74,2.38-.06,1.77-.3,2.57-1.16,1.34-1.46,2.13-.43,1.59-.8,2.32-.18,1.77-.55,2.5-1.4,1.16-1.77,1.89-.79,1.47-1.22,2.2-.55,1.58-1,2.32-1,1.28-1.41,2c-.67,1-1.52,2.2-2.68,2.2-.61,0-1-.92-1.59-1.29-.79-.48-1.64-.91-1.89-1.77A3.7,3.7,0,0,1,198,41a23,23,0,0,0,1.52-2c.43-.73.8-1.52,1.22-2.26s0-1.89.37-2.62.79-1.53,1.1-2.26.91-1.46,1.22-2.25.91-1.41,1.16-2.2.91-1.53,1.15-2.32.43-1.65.68-2.44-.07-1.77.12-2.56.91-1.53,1.1-2.38.06-1.71.18-2.56.3-1.95.43-2.81c-1-.36-1.22.49-2.38.55s-1.1.37-2.2.43-1.16-.25-2.26-.25-1.09.19-2.19.25-1.34-.92-2.38-.61c-.31.73-.31,1.83-.61,2.56s-.61,1.4-.92,2.07-.67,1.35-1,2-1,1.16-1.41,1.83-.49,1.46-.85,2.07-.43,1.59-.79,2.2A4,4,0,0,1,188.13,27c-.67,0-1.22-.61-1.76-1a3.06,3.06,0,0,1-1.47-2c-.12-.85-.49-2,.06-2.8.37-.55.8-1.22,1.22-1.89s1.22-1,1.59-1.77.91-1.22,1.28-2,.43-1.52.73-2.19.67-1.4,1-2.14-.19-1.7.06-2.44,1.28-1.22,1.46-1.95a14.2,14.2,0,0,0,.31-2.32l.24.06c.18-.91.25-2.07,1-2.56a4.58,4.58,0,0,1,2.87-.49c.91.25,1.4,1.28,1.89,2a3.67,3.67,0,0,1,.67,2.5c-.06.06-.19-.06-.19,0,1.29-.06,1.29.55,2.57.55s1.28-.92,2.56-1,1.28.12,2.56.06,1.28.37,2.5.31,1.28-.61,2.56-.67c1-.07,1.65,1,2.32,1.7s1.71,1.41,1.65,2.38S215.59,11.15,215.53,11.94Z"/><path class="a" d="M278.23,14c-.06,1.22-.67,1.16-.73,2.38s-.24,1.22-.3,2.44.48,1.22.42,2.44-.55,1.16-.61,2.38.61,1.22.55,2.44-.42,1.22-.49,2.44.13,1.22.07,2.38.06,1.22,0,2.44-.61,1.22-.68,2.38.31,1.22.25,2.44a3.36,3.36,0,0,1-1.34,2.07,2.85,2.85,0,0,1-2.08.79c-.06,0-.12.25-.18.25A2.89,2.89,0,0,1,271,40.07a2.65,2.65,0,0,1-.74-2.2c0-.06-.36.18-.42.18-1.29-.06-1.29-.61-2.57-.61s-1.34-.06-2.62,0-1.28.67-2.56.74-1.34-.61-2.62-.55-1.29.12-2.57.18-1.28.49-2.56.49-1.46-.67-2.68-.31a4.36,4.36,0,0,1-1.35,1.83c-.48.43-.91,1.22-1.7,1.22,0,0-.06-.55-.13-.55-.91,0-2,.25-2.62-.3a4,4,0,0,1-.85-2.56c-.06-1.28.36-1.28.3-2.5s-.24-1.28-.24-2.51.24-1.28.18-2.56l-.12-2.44c-.06-1.28-.55-1.28-.61-2.5s-.06-1.22-.12-2.5.42-1.28.36-2.5-.3-1.22-.36-2.5-.19-1.22-.25-2.44-.12-1.28-.18-2.5.37-1.28.31-2.5c-.07-1-.31-2.14.3-2.75s1.77-.73,2.68-.79a3.72,3.72,0,0,1,2.57.67A3.89,3.89,0,0,1,251,9.57c.79-.25,1.46.06,2.19-.07s1.53-1,2.32-1.15S257.25,8.16,258,8l2.44-.18c.73-.06,1.65.3,2.56.24s1.65.18,2.56.12,1.65-.67,2.51-.73,1.64.12,2.5.12,1.46.55,2.13.55,1.47.06,2.14.12c.91.07,2,0,2.56.67a3.9,3.9,0,0,1,.91,2.63C278.23,12.8,278.29,12.8,278.23,14Zm-7.19.67c-.19,0-.31-.31-.49-.31-.8,0-1.59.25-2.38.25s-1.59.55-2.38.61-1.65-.18-2.38-.12c-.92.06-1.71-.13-2.38-.06s-1.59.18-2.5.24-1.59.61-2.44.79-1.65.12-2.5.31-1.34.18-2.14.36c-.36,1.22-.06,1.16,0,2.38s.25,1.28.31,2.5-.31,1.29-.31,2.51.25,1.21.31,2.44,0,1.28.06,2.5-1.22,1.83-.37,2.68,1.41.12,2.56.06,1.16-.73,2.32-.79l2.32-.12c1.16-.06,1.16.12,2.32.06s1.16-.06,2.32-.06,1.16.3,2.32.3,1.15-.18,2.31-.24,1.65.91,2.44.06.07-1.28.13-2.44-.31-1.22-.25-2.38.73-1.1.8-2.26-.31-1.16-.25-2.32-.3-1.22-.24-2.37.55-1.1.61-2.26S271,15.85,271,14.69Z"/><path class="a" d="M340.45,13.71c-.24.8-.79,1.47-1,2.26s-.73,1.53-1,2.26-.06,1.71-.3,2.5-.25,1.65-.49,2.44-1.4,1.22-1.71,1.95.12,1.83-.18,2.56-1,1.35-1.34,2.08-.92,1.4-1.29,2.13-.85,1.35-1.28,2.08-.67,1.52-1.09,2.19-.8,1.47-1.29,2.14a20.79,20.79,0,0,1-1.64,1.83,20.35,20.35,0,0,1-1.1,2.26c-.67.85-2,1-3.05,1a3.12,3.12,0,0,1-1.95-.85,2.65,2.65,0,0,1-1-2.2c-.12-.85-.55-1.89.06-2.62s1.65-.86,2.14-1.47.73-1.52,1.22-2.19.91-1.41,1.34-2.08.73-1.52,1.16-2.19.79-1.47,1.16-2.2,1-1.34,1.4-2.13.37-1.65.67-2.38.37-1.65.67-2.44,1-1.34,1.28-2.14.61-1.52.86-2.38.36-1.71.61-2.56c-.86,0-1.89.12-2.75.06s-1.77-.3-2.62-.3-1.71.48-2.56.48-1.71-.36-2.57-.36-1.64.55-2.56.61-1.64,0-2.56.06-1.71-.24-2.56-.18-1.71.3-2.56.36-2-.06-2.87.06c-.37,1,.73,1.22.79,2.32s-.49,1.16-.43,2.26-.18,1.16-.18,2.26.25,1.09.31,2.19a3.06,3.06,0,0,1-.8,2.44,3,3,0,0,1-2.38,1c0,.06-.06.24-.12.24-.85,0-1.46-.73-2.07-1.34A2.52,2.52,0,0,1,304,23.6c-.06-1.28-.48-1.28-.54-2.57s-.31-1.28-.31-2.56,0-1.28,0-2.56,0-1.28,0-2.56.43-1.34.43-2.63-.19-1.28-.25-2.56c0-.91-.18-1.95.43-2.62a4,4,0,0,1,2.56-.92,4.13,4.13,0,0,1,2.44.67c.61.55.67,1.77.8,2.63.91-.06,2-.86,2.8-.92s1.77.67,2.62.61,1.71-.67,2.57-.67,1.77.43,2.62.37S322,7,322.82,6.94s1.71.18,2.63.18,1.7-.36,2.56-.36,1.65.24,2.44.24h2.44c.79,0,1.65.06,2.44.12s1.59.37,2.44.37,2.2-.06,2.81.73a3.79,3.79,0,0,1,.36,3C340.76,12.13,340.64,12.92,340.45,13.71Z"/><path class="a" d="M374.18,33.05a2.7,2.7,0,0,1-1,.12c-.73,0-1.28-.61-1.83-1s-1.53-.67-1.77-1.35-.24-1.76-.49-2.68-.36-1.71-.55-2.56.25-1.89.06-2.75-.48-1.7-.67-2.62-.61-1.71-.73-2.56l.37-.06a2.81,2.81,0,0,1,.73-2.2,2.77,2.77,0,0,1,2-1.34,3.45,3.45,0,0,1,2.5.43,3.6,3.6,0,0,1,1.1,2.37c.06.8.61,1.53.73,2.38s.06,1.59.25,2.38a23.63,23.63,0,0,0,.61,2.38c.12.86-.06,1.71.12,2.44s.18,1.77.43,2.44a3.43,3.43,0,0,1,.06,2.44A3.65,3.65,0,0,1,374.18,33.05Zm11.17-6.71a2.76,2.76,0,0,1-.43,2.2,2.69,2.69,0,0,1-1.83,1.28c-.18,0-.36.3-.55.3a4.45,4.45,0,0,1-2.38-.36,4.58,4.58,0,0,1-1-2.2c-.13-.73-.25-1.46-.37-2.2s.31-1.58.18-2.31S378.15,21.7,378,21s-.37-1.46-.43-2.19.61-1.65.49-2.32c-.12-.86-.67-1.89-.12-2.56s1.58-.61,2.44-.74a2.88,2.88,0,0,1,2.38.25,3.52,3.52,0,0,1,1.58,2.13c.12.86.12,1.77.25,2.69s-.25,1.83-.13,2.74.49,1.77.68,2.63.06,1.89.18,2.68ZM398.16,22c-.31.79-.37,1.58-.67,2.32s-.55,1.52-.86,2.25-.24,1.65-.61,2.38-1,1.28-1.34,2-.3,1.64-.67,2.38l-.91,2.19c-.37.73-1.22,1.22-1.59,1.89s-.85,1.35-1.22,2.08-.92,1.34-1.28,2.07-.79,1.34-1.22,2,0,1.9-.43,2.57c-.61,1-2.07,1.09-3.17,1.09a3.45,3.45,0,0,1-1.77-.12,3.23,3.23,0,0,1-1.16-2.19,3.14,3.14,0,0,1,.12-2.44,23.43,23.43,0,0,0,1.59-2c.43-.73.37-1.76.79-2.5s1.28-1.22,1.65-2,.79-1.52,1.16-2.26.18-1.83.55-2.56.61-1.58,1-2.32,1.1-1.34,1.47-2.13.49-1.59.85-2.38.43-1.65.73-2.44.68-1.53,1-2.32,1.28-1.22,2-1.52a3,3,0,0,1,2.38-.25A3.09,3.09,0,0,1,398.16,22Z"/><path class="a" d="M463.25,16.7a2.55,2.55,0,0,1-2,1c-1.34,0-1.34.24-2.62.24s-1.46-.61-2.74-.18c-.13.85-.07,2.07-.19,2.87s-.79,1.58-.91,2.38-.12,1.64-.31,2.5-.36,1.58-.55,2.38-.24,1.64-.42,2.5.24,1.77,0,2.56-1,1.4-1.29,2.26.25,1.77.07,2.56-.49,1.65-.74,2.44-1.34,1.28-1.64,2.07-.43,1.59-.67,2.38A2.87,2.87,0,0,1,448,46.11a2.67,2.67,0,0,1-1.71.67,3.25,3.25,0,0,1-1.1-.18,3.14,3.14,0,0,1-1.95-1.53,3.8,3.8,0,0,1-.55-2.68c.3-.8.85-1.47,1.16-2.26s.91-1.47,1.16-2.26.3-1.65.55-2.44-.13-1.77.06-2.56.79-1.53,1-2.32.67-1.52.86-2.38.61-1.52.73-2.38.06-1.64.24-2.5.25-1.65.43-2.44.18-1.89.31-2.74c-1.1-.37-1.29,0-2.44,0s-1.16-.07-2.32-.07-1.16.74-2.32.74-1.34-.8-2.38-.25-.06,1-.06,2.38c0,.73.3,1.59.3,2.32,0,1.34-.48,1.22-.48,2.38s.18,1.16.18,2.32c.06,1-.49,1.46-1,2.13s-1.16,1.53-2.07,1.53l-.06.18c-.92,0-1.59-.91-2.2-1.52a3,3,0,0,1-1-2.2c-.06-1.16,0-1.16-.06-2.38s-.55-1.16-.55-2.32-.12-1.16-.12-2.32,1.47-1.83.55-2.56c-1.22-.85-1.65.49-3.17.49s-1.53.18-3,.24c-.06,0-.06-.12-.06-.12a3.7,3.7,0,0,1-2.5-1.16,3.59,3.59,0,0,1-.86-2.44,3.75,3.75,0,0,1,.74-2.56,4,4,0,0,1,2.5-1.34c1.52-.06,1.52.18,3.05.18s1.71.92,2.93,0c.85-.67.36-1,.36-2.07s-.49-1-.55-2.2-.12-1-.12-2.13A3.43,3.43,0,0,1,436.16,2a3.09,3.09,0,0,1,2.26,1,3,3,0,0,1,1,2.25c0,1.1-.24,1.1-.24,2.2s.86,1,.86,2.14-1.41,1.7-.55,2.37c1,.8,1.46-.3,2.74-.36s1.28.06,2.62,0,1.29-.12,2.57-.18,1.28.3,2.5-.07c.12-.85-.12-1.46-.06-2.31s.79-1.59.85-2.38.31-1.65.37-2.5a2.85,2.85,0,0,1,1-2.08,2.9,2.9,0,0,1,2.26-.67,2.78,2.78,0,0,1,2.2.92c.55.67,1.34,1.46,1.28,2.38S457,6.15,457,6.88s.13,1.53.06,2.26l-.18,2.38c1,.3,1,.06,2.14-.12s1-.49,2.07-.49a4,4,0,0,1,2.5,1.28,3.51,3.51,0,0,1,1,2.44C464.59,15.54,463.86,16.09,463.25,16.7Z"/><path class="a" d="M504.91,14.51a3.48,3.48,0,0,1-2.5.18c-.61-.06-1.47.79-2.38.79-.73-.06-1.53-.18-2.32-.18h-2.32c-.85,0-1.65-.61-2.32-.61-1.4.06-2.31.18-2.31.18s-.13.67-.19.67a4,4,0,0,1-2.44-1.16,3.53,3.53,0,0,1-1-2.37,3.22,3.22,0,0,1,1.1-2.32c.55-.67,1.22-1.53,2.14-1.59a5,5,0,0,0,2.5.55,23.07,23.07,0,0,1,2.44-.37c.79-.06,1.59-.06,2.44-.06s1.89-.42,2.74-.36a18.88,18.88,0,0,1,2.75.36,3.74,3.74,0,0,1,2.14,1.59,3,3,0,0,1,.36,2.32C505.58,13,505.58,14,504.91,14.51Zm17.32,7.26c-.55.55-1.58.73-2.25,1.34s-1,1.34-1.59,1.95-1.4,1-2,1.53-1.47.91-2.08,1.52-.91,1.46-1.58,2.07-1.28,1-2,1.59-1.15,1.28-1.76,1.77-1.65.67-2.32,1.22-1.41.92-2.14,1.4-1.1,1.35-1.77,1.83-1.46.92-2.13,1.35a3.49,3.49,0,0,1-1.83.48,3.2,3.2,0,0,1-2.69-1.64,3.59,3.59,0,0,1-.85-2.44A3.52,3.52,0,0,1,497,33.66c.67-.42,1.22-1.1,1.83-1.52s1.64-.49,2.32-1,1.28-1,1.89-1.46a23,23,0,0,0,1.77-1.65c.67-.49,1.28-1,1.89-1.53s1.1-1.16,1.71-1.64,1.22-1.1,1.76-1.65,1-1.28,1.59-1.83,1.34-.91,1.89-1.46,1.53-.8,2.08-1.35,1-1.28,1.58-1.77c.67-.67,1.34-1.64,2.26-1.64s1.65.85,2.32,1.52a3,3,0,0,1,.79,2.32C522.66,19.87,522.9,21.1,522.23,21.77Z"/></svg>