<svg xmlns="http://www.w3.org/2000/svg" viewBox="0 0 294.63 46.36"><defs><style>.a{fill:#932323;}</style></defs><title>アセット 4</title><path class="a" d="M40.26,35.45a3.17,3.17,0,0,1-1,2.26c-.61.61-1.35,1.46-2.26,1.46-1.22,0-1.22-.67-2.44-.67s-1.16.12-2.38.12-1.22.06-2.44.06-1.22-.3-2.44-.3-1.16.85-2.38.85H22.45c-1.22,0-1.22-.55-2.38-.55s-1.22-.24-2.44-.24-1.22.12-2.38.12-1.22.67-2.44.67-1.22-.18-2.44-.18S9.21,39,8,39s-1.22.24-2.44.24-1.16-.79-2.38-.79a3,3,0,0,1-2.32-.67A3.14,3.14,0,0,1,0,35.45,3.33,3.33,0,0,1,.73,33a3.22,3.22,0,0,1,2.44-.61c1.28,0,1.28-.43,2.56-.43S7,31.85,8.3,31.85s1.28.67,2.56.67,1.22-.85,2.5-.85,1.89,1.52,2.81.67-.55-1.41-.55-2.57V25.14c0-1.1.3-1.1.3-2.26s.19-1.16.19-2.32S16,19.4,16,18.31s.31-1.16.31-2.32-.37-1.1-.73-2.14c-.86,0-1.28-.06-2.08-.06s-1.64-.06-2.44-.06-1.58-.24-2.38-.24a2.82,2.82,0,0,1-2.13-1,3,3,0,0,1-1.1-2.2,3.29,3.29,0,0,1,.85-2.38A3.6,3.6,0,0,1,8.72,6.78h2.2c.73,0,1.4.24,2.14.24h2.19c.73,0,1.47-.18,2.2-.18s1.77.36,2.62.42,1.77-.12,2.68-.06,1.77-.42,2.63-.42,1.77-.13,2.68-.13,1.71.19,2.63.19A3.83,3.83,0,0,1,33,8.12a3.34,3.34,0,0,1,.74,2.44,3.3,3.3,0,0,1-.86,2.26,3.14,3.14,0,0,1-2.26,1H30.5c-.85,0-1.77.19-2.62.12s-1.71-.36-2.56-.36-2,.06-2.87,0c-.37,1.1.67,1.28.67,2.44s-.06,1.1-.06,2.26-.79,1.16-.79,2.31.12,1.16.12,2.26-.06,1.16-.06,2.32.3,1.16.3,2.26.31,1.16.31,2.31-.43,1.1.06,2.14.91.06,2.07.06,1.22.12,2.38.12,1.22-.18,2.38-.18,1.22.12,2.38.12h2.38c1.22,0,1.22.25,2.38.25a3.5,3.5,0,0,1,2.5,1,3.38,3.38,0,0,1,.79,2.44Z"/><path class="a" d="M72.23,32.15a2.58,2.58,0,0,1-1,.13c-.73,0-1.28-.61-1.83-1s-1.53-.67-1.77-1.34-.24-1.77-.49-2.69-.36-1.71-.55-2.56.25-1.89.06-2.74-.48-1.71-.67-2.63-.61-1.71-.73-2.56l.37-.06a2.81,2.81,0,0,1,.73-2.2,2.77,2.77,0,0,1,2-1.34,3.45,3.45,0,0,1,2.5.43A3.62,3.62,0,0,1,72,15.93c.06.79.61,1.52.73,2.38s.06,1.58.25,2.37a23.63,23.63,0,0,0,.61,2.38c.12.86-.06,1.71.12,2.44s.18,1.77.43,2.44a3.46,3.46,0,0,1,.06,2.45A3.69,3.69,0,0,1,72.23,32.15Zm11.16-6.71a2.76,2.76,0,0,1-.43,2.2,2.69,2.69,0,0,1-1.83,1.28c-.18,0-.36.31-.55.31a4.35,4.35,0,0,1-2.38-.37,4.54,4.54,0,0,1-1-2.2c-.13-.73-.25-1.46-.37-2.19s.31-1.59.18-2.32-.79-1.34-.91-2.07-.37-1.47-.43-2.2.61-1.65.49-2.32C76,14.71,75.46,13.67,76,13s1.58-.61,2.44-.73a2.85,2.85,0,0,1,2.38.24,3.51,3.51,0,0,1,1.58,2.14c.12.85.12,1.77.25,2.68s-.25,1.83-.13,2.75.49,1.76.68,2.62.06,1.89.18,2.68ZM96.2,21.05c-.3.79-.37,1.59-.67,2.32s-.55,1.52-.86,2.26-.24,1.64-.61,2.38-1,1.28-1.34,2-.3,1.65-.67,2.38l-.91,2.19c-.37.74-1.22,1.22-1.59,1.9s-.85,1.34-1.22,2.07-.91,1.34-1.28,2.07-.79,1.35-1.22,2,0,1.89-.43,2.56c-.61,1-2.07,1.1-3.17,1.1a3.45,3.45,0,0,1-1.77-.13A3.23,3.23,0,0,1,79.3,44a3.14,3.14,0,0,1,.12-2.44A25,25,0,0,0,81,39.6c.43-.74.37-1.77.79-2.51s1.28-1.21,1.65-2,.79-1.52,1.16-2.25.18-1.83.55-2.57.61-1.58,1-2.31,1.1-1.35,1.47-2.14.49-1.59.85-2.38.43-1.65.73-2.44.68-1.52,1-2.32,1.28-1.22,2-1.52A3,3,0,0,1,94.55,17a3.09,3.09,0,0,1,1.65,4.09Z"/><path class="a" d="M156.83,11.05c-.12.85.13,1.7,0,2.56s-.24,1.65-.42,2.44.06,1.71-.13,2.5-.73,1.59-.91,2.38-.79,1.52-1,2.32.25,1.83,0,2.62-.79,1.46-1.09,2.26-1,1.34-1.35,2.13-.55,1.59-.91,2.32-.73,1.47-1,2.26-.36,1.65-.73,2.38-.37,1.71-.79,2.44-1.47,1.1-1.9,1.83-.6,1.52-1,2.26c-.67,1-1.77,1.09-2.87,1.09a2.55,2.55,0,0,1-1.59-.49c-.79-.48-2-.73-2.13-1.58s.55-1.77,1-2.56,1-1.35,1.46-2.08.49-1.64.92-2.38,1-1.4,1.34-2.13.49-1.65.85-2.38.86-1.47,1.16-2.26.92-1.46,1.22-2.26-.06-1.76.24-2.62.55-1.59.8-2.38.43-1.58.67-2.44.73-1.52.91-2.38-.36-1.77-.24-2.62a13.84,13.84,0,0,0,.67-2.07c-1-.43-1-.07-2.07,0s-1.16-.31-2.26-.25-1.16-.18-2.26-.12-1.1.37-2.19.43a5.05,5.05,0,0,0-2.14.42c-.3.74-.85,1-1.16,1.65s-.24,1.53-.55,2.26-.55,1.4-.91,2.07-.67,1.34-1,2-1.22,1-1.59,1.71-.24,1.65-.67,2.26a3.71,3.71,0,0,1-3,1.4,4.15,4.15,0,0,1-2.07-.42,4,4,0,0,1-1.46-2.38,4.35,4.35,0,0,1,.36-2.81c.43-.61,1.59-.79,1.95-1.52s.13-1.65.49-2.38.86-1.22,1.22-1.95.49-1.47.8-2.2.73-1.34,1-2.08.37-1.46.61-2.19.86-1.4,1-2.08.18-1.58.37-2.31a3.88,3.88,0,0,1,1.4-2.38c.73-.49,1.71-.06,2.62.18a3.13,3.13,0,0,1,2.2,1.16,4.1,4.1,0,0,1,.67,2.62c0,.06-.25.43-.25.49,1.22,0,1.29,0,2.57-.06s1.22-.73,2.5-.79,1.28-.06,2.56-.06,1.28.06,2.5,0,1.28-.19,2.56-.25a4.52,4.52,0,0,1,2.93,1,4,4,0,0,1,.55,2.93C157.2,9.46,156.9,10.25,156.83,11.05Zm8.42-6c-.06.73-.3,1.46-.36,2.26s-.31,1.46-.43,2.19-.49,1.47-.61,2.14a3.25,3.25,0,0,1-.67,1.77,2.92,2.92,0,0,1-1.89.36c-.19,0-.43.43-.61.37-.74-.12-1-1.1-1.41-1.71s-.91-1.16-.79-1.89a23.93,23.93,0,0,0,.85-2.5c.13-.86.37-1.77.43-2.56a14.71,14.71,0,0,0-.18-2.69,2.77,2.77,0,0,1,.61-1.95c.49,0,1.22.18,1.95.18s1.47-.18,2,.31a2.68,2.68,0,0,1,.61,1.95c0,.61.61,1.4.55,2.26Zm6.41,2.74c-.06.92.36,1.89.24,2.69a2.92,2.92,0,0,1-1,1.71,2.78,2.78,0,0,1-1.83.48c-.18,0-.36.19-.48.19-.74-.13-1.16-.8-1.59-1.41a2.12,2.12,0,0,1-.37-1.83c.13-.73.25-1.58.31-2.38a16.19,16.19,0,0,0-.06-2.44,11.81,11.81,0,0,1,.43-2.25L167,2.44a3.05,3.05,0,0,1,.61-2.13c.49-.49,1.4-.06,2.2,0s1.46-.18,1.95.3a3,3,0,0,1,.55,2,7.6,7.6,0,0,1,.36,2.62C172.57,6,171.78,6.9,171.66,7.81Z"/><path class="a" d="M224.36,19a6.3,6.3,0,0,1-1.22,1.83c-.49.61-.61,1.71-1.22,2.13a8.6,8.6,0,0,1-2.13,1.1c-.74.25-1.65-.3-2.44-.3-.25.06-.49.73-.8.73-.73,0-1.4-.73-2.13-.86s-1.65.31-2.32,0-1.1-1.09-1.71-1.58a6.93,6.93,0,0,1-1.65-1.83c-1.09-.31-1.16.42-2.31.42s-1.16-.6-2.32-.6-1.16.36-2.32.36-1.16-.06-2.32-.06-1.16-.43-2.32-.43a4.89,4.89,0,0,0-2.25.49c.06.86.18,1.47.24,2.2s-.61,1.64-.61,2.38.85,1.58.92,2.31c.06.92-.62,1.9-.31,2.57s1.46,1,2,1.52A5.83,5.83,0,0,0,199,33.13a8.7,8.7,0,0,0,2.51,1.28c.73.12,1.58-.06,2.31,0s1.53.12,2.26.18,1.53-.42,2.2-.42c1.1,0,2.07.85,3,.79a13.72,13.72,0,0,0,2.8-.91,3.47,3.47,0,0,1,2.56.54,3,3,0,0,1,1.41,2.08,3,3,0,0,1-2.44,3.78c-.73.18-1.47.92-2.32,1a18.22,18.22,0,0,1-2.5-.19c-.79.07-1.65.31-2.5.31s-1.71-.55-2.63-.61-1.77.43-2.68.37-1.71-.55-2.56-.68-1.71,0-2.5-.24a11.59,11.59,0,0,1-2.2-1.1,16.05,16.05,0,0,1-2.32-1c-.67-.49-.91-1.47-1.46-2.08s-1.53-.85-1.89-1.52-.31-1.65-.61-2.38-1-1.34-1.22-2.14a15.33,15.33,0,0,1-.13-2.38c-.06-.91-.3-1.83-.3-2.74s-.12-1.83-.12-2.75.3-1.83.3-2.74-.36-1.53-.36-2.32.61-1.59.61-2.38.06-1.53.06-2.32-.37-1.58-.31-2.38.31-1.52.31-2.32a4.08,4.08,0,0,1,1.22-2.5,3.83,3.83,0,0,1,2.62-.79,3.6,3.6,0,0,1,2.32,1.22,3.55,3.55,0,0,1,1,2.56c-.07.86.12,1.71.12,2.56s-.67,2-.67,2.87c1.16.43,1.34.18,2.62.18s1.22-.24,2.5-.24,1.28-.43,2.5-.43,1.28.43,2.56.43,1.35.37,2.57-.06a11,11,0,0,1,.67-3c.36-1,1.22-1.52,1.89-2.26a6.18,6.18,0,0,1,1.52-1.58,7.71,7.71,0,0,1,2-1.28c.73-.19,1.58.36,2.38.36.18,0,.3-.42.36-.42a10,10,0,0,1,2.38,0c.79.12,1.4.79,2.14,1.09a7.65,7.65,0,0,1,1.7,1.47c.61.55,1.47.79,1.9,1.46a12.61,12.61,0,0,1,.73,2.2,14.27,14.27,0,0,1,.3,2.32v.67a16.74,16.74,0,0,1,.25,2.38C225.7,17.88,224.73,18.37,224.36,19ZM219.11,12a3.38,3.38,0,0,0-2.62-1.22c-.12,0-.12-.18-.12-.18h-.12a3.25,3.25,0,0,0-2.32,1.4,3.53,3.53,0,0,0-.61,1.59c-.12.49-.61,1-.61,1.77A2.54,2.54,0,0,0,214,17.76a3.88,3.88,0,0,0,2.56,1.4h.55a3.5,3.5,0,0,0,2.44-1.71,5.45,5.45,0,0,0,.49-2.74c0-.12.67-.31.67-.43C220.64,12.88,219.6,12.45,219.11,12Z"/><path class="a" d="M280.48,15.93a3.18,3.18,0,0,1-2.2,1.09c-1.76.07-1.83-.18-3.53.25-.13.79,0,1.65-.13,2.5s-.61,1.59-.73,2.38.12,1.71-.06,2.56-.43,1.59-.61,2.44-.61,1.59-.79,2.38.06,1.71-.18,2.5-.74,1.59-1,2.38-.73,1.53-.92,2.32-.61,1.52-.85,2.32-.37,1.64-.67,2.44-.06,1.77-.31,2.56-1.09,1.1-1.64,1.46a3.52,3.52,0,0,1-1.89.67,4.79,4.79,0,0,1-1.29.07c-.85-.31-1.28-1.35-1.64-2.14a3.3,3.3,0,0,1-.49-2.62c.24-.8.67-1.53.91-2.26s.49-1.65.74-2.44.24-1.65.48-2.44S265,33,265.23,32.22s-.49-1.9-.24-2.69,1.16-1.4,1.34-2.26.49-1.58.67-2.38,0-1.7.12-2.56.24-1.65.37-2.44.3-2,.49-2.87c-1.35-.36-1.53-.06-2.93,0s-1.35,0-2.75.07-1.34.24-2.62.85c-1,.49.12.85.12,2s-.55,1.22-.49,2.38.55,1.16.55,2.38-.49,1.16-.43,2.32a2.9,2.9,0,0,1-.85,2.26,3.08,3.08,0,0,1-2.2.85,3,3,0,0,0-.06.73c-.91,0-1.71-.85-2.32-1.46s-1.46-1.34-1.46-2.26c-.06-1.16.73-1.22.73-2.38s-.18-1.16-.24-2.32.18-1.15.12-2.37.55-1.65-.37-2.32c-1.22-.92-1.52-.25-3-.19s-1.53.74-3,.8c-.06,0-.06-.37-.13-.37a3.48,3.48,0,0,1-2.44-1,3.52,3.52,0,0,1-1.16-2.37c0-1,.8-1.65,1.35-2.26a3.13,3.13,0,0,1,2.19-.86c1.53,0,1.53-.85,3-.91s2,1.46,3.17.55c.92-.67-.06-1.28-.06-2.38s.06-1.1,0-2.2-.3-1.09-.36-2.19c0-.92.91-1.47,1.52-2.08a3.06,3.06,0,0,1,2-1.22,3.07,3.07,0,0,1,2.31.92,3.08,3.08,0,0,1,.92,2.32c0,1-.18,1.09-.18,2.13s.55,1.1.55,2.2-.86,1.34-.37,2.32,1.34-.19,2.62-.19c.8-.06,1.59-.42,2.32-.42,1.28,0,1.22.54,2.38.54s1.34.37,2.38,0c.12-.79.3-1.95.43-2.74s.36-1.65.42-2.44-.3-1.71-.24-2.5h.37a2.66,2.66,0,0,1,1-2.08A3.16,3.16,0,0,1,273.1,0a3.41,3.41,0,0,1,2.26,1.35,3,3,0,0,1,.73,2.38c-.06.79.06,1.52,0,2.25s.24,1.53.12,2.26-.43,1-.49,1.77a5.41,5.41,0,0,0,2.38.43,3.5,3.5,0,0,1,2.44.85,3.63,3.63,0,0,1,1.34,2.32C281.94,14.59,281.09,15.32,280.48,15.93Zm7.26-2.38c-.06.73-.67,1.16-1.16,1.58s-.91,1.16-1.58,1.16c-.07,0-.13.25-.19.25a3.36,3.36,0,0,1-2.19-1,3.74,3.74,0,0,1-.43-2.26,23.25,23.25,0,0,0,.55-2.68c.06-1-.8-2-.8-2.81a4.76,4.76,0,0,1,.68-2.38l-.55-.3c0-.8.91-1.22,1.4-1.71s.92-1,1.65-1a2.88,2.88,0,0,1,2,.61,2.93,2.93,0,0,1,.43,2.08s-.06,1.22-.06,2.8c0,.86.48,1.89.42,2.87S287.8,12.75,287.74,13.55Zm6.16-3.79c0,1,.06,2,0,2.75a2.94,2.94,0,0,1-.55,2,3.25,3.25,0,0,1-2,.92c-.06,0-.12-.73-.18-.73a1.9,1.9,0,0,1-1.53-.86,2,2,0,0,1-.85-1.65,21.35,21.35,0,0,0,.43-2.62c0-.85-.07-1.71-.07-2.62s-.36-1.77-.36-2.63h.43c0-.73-.25-1.58.24-2.07S290.79,2,291.58,2s1.71-.43,2.2.06a3.48,3.48,0,0,1,.61,2.25c0,.86.24,1.83.24,2.75S293.9,8.91,293.9,9.76Z"/></svg>