<svg xmlns="http://www.w3.org/2000/svg" viewBox="0 0 416.76 55.56"><defs><style>.a{fill:#fff;}</style></defs><title>アセット 53</title><path class="a" d="M46.62,45a4.11,4.11,0,0,1-.87,2.79c-.68.75-1.86.5-2.79.5a3,3,0,0,1-2.1-.81c-.62-.62-1.8-.62-2.42-1.24s-.62-1.86-1.18-2.48-1.92-.62-2.48-1.3-.68-1.74-1.24-2.36-.93-1.48-1.49-2.17-1.49-1-2-1.73S29,34.73,28.52,34.05s-.93-1.55-1.43-2.23-.49-1.43-.93-2.23A6.63,6.63,0,0,0,26,32.07c0,1.24.12,1.24.12,2.48s.12,1.3.12,2.54-1.55,1.86-.74,2.79,1.49,0,2.6,0,1.12-.37,2.24-.37c.8,0,1.36.68,1.92,1.24s1.42,1.11,1.42,1.92a4.1,4.1,0,0,1-.86,2.54c-.56.56-1.68.5-2.48.5-1.12,0-1.12.18-2.24.18s-1.24-.62-2,.13,0,.8,0,1.79-.5,1.06-.5,2a3.06,3.06,0,0,1-.8,2.36,3.55,3.55,0,0,1-2.36,1.24,3.69,3.69,0,0,1-2.48-1.12c-.62-.62-.56-1.49-.56-2.48s-.06-1-.06-2,.31-1.24-.43-1.92-1.06-.49-2.17-.49-1.12.18-2.3.18a2.74,2.74,0,0,1-2-.8,2.52,2.52,0,0,1-.68-2.11,2.45,2.45,0,0,1,.8-1.92,2.92,2.92,0,0,1,1.92-1.18c1.18,0,1.18-.19,2.3-.19s1.73,1.24,2.48.44-.5-1.43-.5-2.61-.12-1.24-.12-2.41-.07-1.18-.07-2.42.5-1.18.25-2.3c-.43.69-.86,1.12-1.3,1.8s-.25,1.74-.68,2.42a22.77,22.77,0,0,1-1.43,1.92c-.43.68-1.18,1.18-1.61,1.8s-.8,1.43-1.24,2-1.18,1.18-1.67,1.8-1.18,1.06-1.68,1.68-.8,1.48-1.36,2a22.24,22.24,0,0,1-1.55,1.8,4.07,4.07,0,0,1-2.79,1.18c-.87,0-1.55-.87-2.17-1.55A3.42,3.42,0,0,1,0,44.78a3.25,3.25,0,0,1,1.12-2.3c.49-.56.93-1.3,1.48-1.86s.81-1.36,1.31-2,1.3-1,1.79-1.61,1.18-1.12,1.68-1.8.37-1.68.8-2.29,1-1.31,1.43-1.93,1.05-1.24,1.49-1.86.87-1.3,1.3-2,1.24-1.12,1.67-1.8.19-1.73.56-2.48,1.24-1.05,1.61-1.8.75-1.61,1.12-2.29c-1.12-.43-1.24.25-2.42.25s-1.18.25-2.36.25-1.17-.5-2.35-.5-1.18.12-2.36.12-1.17-.37-2.35-.37a2.69,2.69,0,0,1-2.11-.93c-.62-.62-1.55-1.18-1.55-2.11a3.44,3.44,0,0,1,1.36-2.35,3.41,3.41,0,0,1,2.3-1.24H8.18c1.37,0,1.37.37,2.73.37s1.3-.31,2.67-.31,1.36-.25,2.66-.25,1.8,1.37,2.85.56C19.9,11.61,19,11.05,19,10s-.5-1.06-.5-2,.19-1,.19-2.11.93-1.49,1.55-2.1A2.91,2.91,0,0,1,22.38,2.5a3,3,0,0,1,2.11,1.24,2.65,2.65,0,0,1,1.11,2.1c0,1.06.32,1.06.32,2.11S26,8.94,26,10s-1.12,1.55-.31,2.17c1.05.8,1.42-.13,2.79-.13S29.88,12,31.18,12h2.67c1.36,0,1.36-.12,2.73-.12s1.3-.31,2.66-.31a4.22,4.22,0,0,1,2.67,1.17,4,4,0,0,1,.87,2.67,4,4,0,0,1-.87,2.67,4,4,0,0,1-2.67.93c-1.36,0-1.36.24-2.79.24H30.94c-1.37,0-1.37.07-2.73.07.06.06-.25-.19-.19-.13.31.75.93,1.37,1.3,2.11s.75,1.43,1.12,2.11a22.17,22.17,0,0,0,1.12,2.17c.37.68.43,1.67.86,2.35s1.12,1.18,1.62,1.86.93,1.31,1.42,1.93,1.18,1.11,1.68,1.79.86,1.37,1.36,2,.81,1.48,1.36,2.11,1.49.8,2,1.42,1.3,1,1.86,1.55l1.8,1.61a4.23,4.23,0,0,1,1,2.67Z"/><path class="a" d="M103.66,17.25c0,.74-.31,1.61-.31,2.48s-.43,1.67-.49,2.54.55,1.68.55,2.54-.86,1.68-.86,2.55.8,1.67.8,2.54,0,1.67-.06,2.48-.68,1.73-.68,2.54.68,1.74.68,2.54-.56,1.67-.56,2.48.5,1.8.5,2.54V45a4.26,4.26,0,0,1-.93,2.55h.87c0,.93-1.12,1.42-1.74,2s-1.18,1.8-2.11,1.8c-.06,0-.06-.56-.06-.56a3.34,3.34,0,0,1-2.91-1.3c-1.18-.37-1.18-.12-2.48-.12H91.39c-1.31,0-1.31.12-2.55.12s-1.24-.25-2.54-.25-1.24.56-2.48.56-1.3.06-2.54.06S80,49.8,78.8,49.8s-1.3-.5-2.54-.5-1.24.5-2.54.5-1.24-.31-2.48-.31A3.26,3.26,0,0,1,69,48.25a2.88,2.88,0,0,1-1-2.17c-.06-1.24-.18-1.24-.18-2.54s0-1.24-.06-2.54-.38-1.25-.38-2.55.62-1.24.62-2.54-.55-1.24-.55-2.54.24-1.24.24-2.54-.55-1.24-.55-2.48.18-1.3.18-2.54.44-1.31.37-2.55-.62-1.24-.62-2.54.07-1.24.07-2.54.49-1.24.49-2.54S67,14.4,67,13.16s.74-1.3.74-2.54-.55-1.31-.55-2.55a3.8,3.8,0,0,1,1.24-2.41,3.35,3.35,0,0,1,2.41-.81c1.24,0,1.24-.31,2.48-.31s1.24.25,2.55.25,1.24-.44,2.47-.44S79.54,5,80.79,5s1.24-.87,2.47-.87,1.24.06,2.49.06,1.23.56,2.47.56,1.31-.31,2.55-.31,1.24.12,2.48.12,1.24-.06,2.48-.06a7.09,7.09,0,0,1,2.6,1c.81.31,2.11.13,2.79.75a7.57,7.57,0,0,1,1.36,1.79c.31.62,0,1.49.19,2.24a6.59,6.59,0,0,1,.56,2,22.9,22.9,0,0,0-.44,2.54c0,.68.87,1.55.87,2.54ZM96.1,11.67a3.73,3.73,0,0,1-.37-.5c-1.24,0-1.24-.24-2.42-.18A15.49,15.49,0,0,1,91,11c-1.24,0-1.24.74-2.42.74s-1.17-.68-2.35-.68-1.18.31-2.42.31-1.18.19-2.35.19-1.18.37-2.36.37-1.24-.13-2.42-.13-1.67-1.3-2.48-.43.43,1.3.43,2.48-.06,1.18-.06,2.36.19,1.17.19,2.35-.62,1.24-.62,2.42-.74,1.74.06,2.6,1.49-.68,2.67-.68,1.24.62,2.48.62,1.17-.25,2.41-.25,1.18-.12,2.42-.12,1.18.43,2.42.43S87.73,23,89,23s1.18-.19,2.42-.19,1.17.74,2.41.74A4.39,4.39,0,0,0,96.1,23c0-.93.18-1.62.18-2.48S96,18.61,96,17.81c0-1.06.38-2,.38-2.79,0-1.37.06-2.36.06-2.73A.66.66,0,0,0,96.1,11.67Zm-.5,26c0-.81.5-1.61.5-2.48s.18-1.68.18-2.48-.18-1.61-.18-2.48c-1.12-.37-1.18.25-2.42.25S92.5,30,91.32,30s-1.24.37-2.41.37-1.24.13-2.42.13-1.18-.5-2.42-.5-1.18.56-2.36.56-1.24-.75-2.41-.75-1.24.56-2.42.56-1.8-1.18-2.6-.31.24,1.43.24,2.67-.24,1.24-.18,2.48.06,1.24.06,2.48.12,1.24.12,2.48-1,1.79-.12,2.72,1.43-.49,2.6-.49,1.18-.13,2.36-.13,1.18.07,2.42.07h2.35c1.18,0,1.18.55,2.36.55s1.18-.24,2.35-.24,1.18-.06,2.36-.06,1.18.3,2.36.3,1.11-.3,2.23-.68c0-.74.62-1.17.62-2S95.6,38.51,95.6,37.65Z"/><path class="a" d="M166.9,30a16.07,16.07,0,0,1-.68,2.54c-.19.87.31,1.86,0,2.67a15.16,15.16,0,0,1-.93,2.48c-.37.8-1.24,1.36-1.67,2.11s-1.18,1.24-1.74,1.92a24.9,24.9,0,0,1-1.61,2A4.06,4.06,0,0,1,158,45c-.93,0-1.55-.93-2.24-1.67s-1.42-1.3-1.42-2.17A3.92,3.92,0,0,1,155.87,39a13.1,13.1,0,0,0,1.55-2.17A11,11,0,0,0,159,34.61a14.56,14.56,0,0,0,.68-2.61c.19-.8,0-1.67.12-2.66,0-.25.56-.5.56-.81,0-.74-.74-1.48-.93-2.35a10.3,10.3,0,0,0-.8-2.23c-.31-.75-.07-1.93-.62-2.55s-1.55-.74-2.3-1.17-1.42-1.43-2.29-1.74a10.08,10.08,0,0,0-2.67-.25,20.71,20.71,0,0,1,.31,2.05c.13.74-.06,1.55,0,2.29s.5,1.49.5,2.3-.44,1.48-.5,2.29.31,1.55.25,2.36-.43,1.48-.62,2.29a13,13,0,0,1-.25,2.23c-.25.68-.68,1.37-1,2.05s-1.18,1-1.61,1.61-.44,1.55-.93,2.11-1.68.43-2.3.86a11.64,11.64,0,0,1-1.79,1.37,12.9,12.9,0,0,1-2.17.62,13.52,13.52,0,0,1-2.23.18,10.31,10.31,0,0,1-2.42-.06,15.71,15.71,0,0,1-2.42-.93,13.93,13.93,0,0,1-2.42-1.18,10.92,10.92,0,0,1-1.49-2.17,11.83,11.83,0,0,1-1.24-2.29,12.34,12.34,0,0,1-1-2.48,13.16,13.16,0,0,1-.06-2.66c0-1.18.62-2.36.81-3.6.18-.74.37-1.49.62-2.23a12.26,12.26,0,0,1,.49-2.23c.31-.75.25-1.68.62-2.36s1.06-1.18,1.55-1.8a14.86,14.86,0,0,1,1.61-1.67c.56-.56.87-1.43,1.49-1.92s1.74-.25,2.42-.69.93-1.36,1.67-1.73,1.61-.31,2.36-.62,1.49-.62,2.29-.81a14.9,14.9,0,0,1,2.36-.37,16.52,16.52,0,0,1,2.42-.31c.8,0,1.67-.19,2.48-.12S152,11.79,152.77,12a16.22,16.22,0,0,1,2.41.12,17.28,17.28,0,0,1,2.42.56,19.19,19.19,0,0,1,2,1.37,9.51,9.51,0,0,1,1.92,1.55,14.23,14.23,0,0,1,1.61,1.79c.5.62,1.24,1.18,1.67,1.8a16.9,16.9,0,0,1,.81,2.36,16.65,16.65,0,0,1,.81,2.23,17.07,17.07,0,0,1,.43,2.42,17.28,17.28,0,0,1,.37,2.35A10.58,10.58,0,0,1,166.9,30Zm-22.26-7.31a21.06,21.06,0,0,0-.49-2.11,19.85,19.85,0,0,0-.56-1.92,8.1,8.1,0,0,0-1.8.37,12.36,12.36,0,0,0-2,1.42,12,12,0,0,0-1.92,1.62c-.56.55-.69,1.48-1.12,2.23s-1.43,1.11-1.74,1.92a15,15,0,0,0-.68,2.42,11.55,11.55,0,0,0-.31,2.42c0,.68.75,1.3.87,1.86a4,4,0,0,0,.62,1.73,3.3,3.3,0,0,0,2.05,1.8c.31.06.68-.37.93-.37a4.08,4.08,0,0,0,3-1.49,7.23,7.23,0,0,0,1.18-2,9.66,9.66,0,0,0,.93-2.23c.19-.93.37-1.8.5-2.73s.62-1.86.62-2.72S144.71,23.39,144.64,22.71Z"/><path class="a" d="M224.25,37.59c.19.92-.25,1.86-.25,2.79a14.71,14.71,0,0,1-.12,2.29,14,14,0,0,1-.37,2.29,16.55,16.55,0,0,1-.5,2.36,9.55,9.55,0,0,1-1.18,2c-.43.69-1.24,1.06-1.79,1.62s-1.43.68-2,1.11a3.1,3.1,0,0,1-2.29.81,3.38,3.38,0,0,1-2.3-1.18,3.25,3.25,0,0,1-.18-2.54,2.74,2.74,0,0,1,1.11-2,8.17,8.17,0,0,0,1.61-2A10.61,10.61,0,0,0,217.49,43c.25-.81-.49-1.74-.49-2.6a7.55,7.55,0,0,0-.31-2.86,9.16,9.16,0,0,0-1.37-2.72,8.47,8.47,0,0,0-1.73-1.37c-.62-.49-1.06-1.24-1.8-1.55a12.18,12.18,0,0,0-2.29-.37c-.69,0-1.43-.25-2.24-.25a13.87,13.87,0,0,0-2.17.37c-.3,1.24.32,1.31.32,2.67s-.19,1.3-.19,2.6-.31,1.31-.31,2.61.8,1.3.8,2.6a13.36,13.36,0,0,1-.24,2.23,12.92,12.92,0,0,1-.75,2.17c-.18.68-1,1.12-1.36,1.8a10.46,10.46,0,0,1-1.18,1.74c-.56.68-.68,2-1.43,2.54s-2,.12-2.85.43a8.69,8.69,0,0,1-2.6.37v.31c-.19,0-.31.07-.43.07A10.81,10.81,0,0,1,192,53.7a13.51,13.51,0,0,1-2.54-1.17,9,9,0,0,1-3.16-4.22A10.79,10.79,0,0,1,185.5,46c-.12-.86-.8-1.67-.8-2.54,0-.68.74-1.36.8-2s-.24-1.49-.12-2.17,1.12-1.31,1.36-2.05-.24-1.86.13-2.54,1.3-1.12,1.8-1.74a14.46,14.46,0,0,1,1.73-1.67,21.38,21.38,0,0,1,1.74-1.55,20,20,0,0,1,2-1.24,23.6,23.6,0,0,1,2.17-.93c.68-.31,1-1.12,1.74-1.36.37-1.31.68-1.31.68-2.67s-.5-1.3-.5-2.67,1-1.73.07-2.66-1.24.37-2.55.43-1.3-.25-2.6-.18-1.24,0-2.54,0c-.06,0-.13.12-.13.12a4,4,0,0,1-2.48-1,3.17,3.17,0,0,1-.55-2.42c-.07-1-.38-2.11.18-2.73s1.8-.62,2.73-.62c1.3-.06,1.3-.12,2.67-.19s1.3.31,2.66.25,2,.62,2.85-.37S198,9.69,198,8.26s.12-1.49.12-3c0-.07.19-.07.19-.13a2.65,2.65,0,0,1,1.24-2c.62-.56,1.17-1.31,2.17-1.31A3.26,3.26,0,0,1,204,3.05c.62.62,1.61,1.3,1.61,2.24,0,1.42-.12,1.42-.12,2.85S204.1,10,205.16,11s1.48-.37,2.91-.44l2.85-.12c1.49,0,1.49.56,2.92.5a3.27,3.27,0,0,1,2.41.68,3.14,3.14,0,0,1,1,2.29c.06,1,.18,2.17-.44,2.79s-1.8.62-2.73.68c-1.11,0-1.11.31-2.23.31s-1.11-.31-2.23-.31l-2.23.13c-1.12.06-1.61-.68-2.36.18S205,19,205,20.1s.12,1.18.12,2.36-.62,1.3-.3,2.42c.68-.07,1.79-.07,2.47-.07a17.24,17.24,0,0,1,2.49,0c.8.13,1.61.31,2.41.5a23.62,23.62,0,0,1,2.17,1.18,17.8,17.8,0,0,1,2.17,1.11c.68.44,1.8.31,2.42.87s1.3,1.12,1.86,1.74a17.73,17.73,0,0,1,1.3,2.48A16.22,16.22,0,0,1,223.69,35a13.25,13.25,0,0,1,.56,2.73Zm-25.73-1.18a6,6,0,0,0-.37-2.73c-.8.37-1.11,1-1.73,1.43s-1.74.55-2.24,1.11-.31,1.74-.62,2.48-1.17,1.24-1.42,2a14.91,14.91,0,0,0-.31,2.66,3.19,3.19,0,0,0,1,2.48c.37.44.75.68,2.3.75.06,0,.06.24.12.24a2.13,2.13,0,0,0,1.92-.93,4.06,4.06,0,0,0,1.12-1.73c.18-.62-.31-1.37-.31-2.17.06-1.43.62-1.43.62-2.79S198.52,37.83,198.52,36.41Zm33.73-3.16a3.19,3.19,0,0,1-2.23.49,2.94,2.94,0,0,1-2.42-1.05c-.5-.62-1-1.3-1.49-1.92s-1.49-.93-2-1.62a24.19,24.19,0,0,1-1.37-2c-.49-.68-.8-1.43-1.24-2.11s-1-1.36-1.36-2.11c0,0,.74,0,.74-.18a3.25,3.25,0,0,1-.37-2.48A3.3,3.3,0,0,1,222,18.3c.87-.43,1.86-.93,2.67-.62a3.61,3.61,0,0,1,1.92,2,25.88,25.88,0,0,0,1,2.54c.43.74,1.36,1.18,1.92,1.92s.87,1.55,1.43,2.23a25.13,25.13,0,0,0,1.8,2.05,3.48,3.48,0,0,1,.8,2.54A3.38,3.38,0,0,1,232.25,33.25Z"/><path class="a" d="M292.27,14.71a3.74,3.74,0,0,1-2.55,1c-.86,0-1.79-.19-2.72-.12s-1.74.62-2.67.68-1.8-.25-2.73-.19c0,.62.44,1.3.44,1.92s-.25,1.31-.25,2-.62,1.61-.62,2.42.87,1.61.8,2.41-.43,1.62-.43,2.42a19.7,19.7,0,0,1-.5,2.17,19.66,19.66,0,0,1-.68,2.17c.06.81.68,1.68.68,2.54s-.43,1.49-.49,2.23.25,1.55.12,2.3-.06,1.49-.25,2.23a22.14,22.14,0,0,1-.86,2.11c-.31.87-1.18,1.55-1.43,2.29s-.74,1.68-1.05,2.42-.19,1.92-.56,2.6c-.5.93-.93,1.68-1.3,2.3a5.22,5.22,0,0,1-2.05,1.67c-.68.56-1.3,1.3-2.11,1.3a3.82,3.82,0,0,1-2.54-1.42,3.42,3.42,0,0,1-1-2.48,3.81,3.81,0,0,1,1.11-2.48l.32.25c.12-.19.24-.62.62-1.24s.49-1.37.92-2.3a18.11,18.11,0,0,0,1-2.17c.31-.68,1-1.55,1.3-2.35a14.79,14.79,0,0,1-2.17,1.11,10.82,10.82,0,0,1-2.05.07c-.18,0-.31.12-.43.12a11.91,11.91,0,0,1-2.17-.56,10.17,10.17,0,0,1-2-1,11.37,11.37,0,0,1-1.62-1.43c-.62-.43-1.48-.49-1.92-1a9.33,9.33,0,0,1-1.73-2.17c-.44-.81,0-2-.19-2.85s-1.05-1.68-1.05-2.61a10.61,10.61,0,0,1,.86-2.85c.25-.8.13-1.73.56-2.42a9.47,9.47,0,0,1,1.55-2,9.67,9.67,0,0,1,2.05-1.43,10.54,10.54,0,0,1,2.23-1,9.59,9.59,0,0,1,2.29-.68c.81-.19,1.55-1,2.36-1s1.67.93,2.54,1.11a11.94,11.94,0,0,1,2.54.62c.13.07-.06-.06,0,0a11.52,11.52,0,0,0,.19-1.42c0-1.18.12-2.36.06-3.47-.8,0-1.55.31-2.36.37l-2.35.18c-.81.07-1.61-.18-2.42-.18s-1.61.25-2.35.31-1.55.43-2.36.49-1.67-.55-2.42-.49-1.61.31-2.35.37-1.62.43-2.36.5-1.67-.07-2.36.06c-.12,0-.24.31-.37.31-.87,0-1.49-.68-2.11-1.18a3,3,0,0,1-1-2c-.12-1-.37-2,.19-2.67a3.78,3.78,0,0,1,2.48-1.36c.68-.07,1.49-.31,2.35-.38s1.55-.12,2.42-.18,1.61.18,2.42.12,1.55-.37,2.42-.49,1.61.55,2.48.49,1.55-.49,2.35-.56,1.61.07,2.42,0,1.55-.86,2.42-.93,1.8.5,2.6.44c-.06-.87.06-2,0-2.85s-.68-1.74-.8-2.61a2.9,2.9,0,0,1,1-2.35c.49-.69,1-1.8,1.92-1.93a3.69,3.69,0,0,1,2.54,1.12c.68.56,1.55,1.24,1.68,2.17s.37,1.92.49,2.91-.25,2.05-.18,3C282.1,9.19,283,9,284,9s1.86.38,2.79.38,1.86-.93,2.73-1a4,4,0,0,1,2.6,1.25,3.32,3.32,0,0,1,.81,2.54A3.54,3.54,0,0,1,292.27,14.71ZM272.49,29.22a3.23,3.23,0,0,0-1.3-1.49c-.56-.25-1.06-.93-1.8-.93l-.06.18a5.17,5.17,0,0,0-2.73.81A3.75,3.75,0,0,0,264.92,30c-.06.31-.55.62-.55,1a5.59,5.59,0,0,0,1.11,3.35,3.84,3.84,0,0,0,2.85,1.18c.13,0,.19-.62.19-.62.74,0,1.43.31,2.11-.06a5.21,5.21,0,0,0,1.86-1.18,13.67,13.67,0,0,0,1-2.6A5.79,5.79,0,0,0,272.49,29.22Z"/><path class="a" d="M354.27,14.71a3.74,3.74,0,0,1-2.55,1c-.86,0-1.79-.19-2.72-.12s-1.74.62-2.67.68-1.8-.25-2.73-.19c0,.62.44,1.3.44,1.92s-.25,1.31-.25,2-.62,1.61-.62,2.42.87,1.61.8,2.41-.43,1.62-.43,2.42a19.7,19.7,0,0,1-.5,2.17,19.66,19.66,0,0,1-.68,2.17c.06.81.68,1.68.68,2.54s-.43,1.49-.49,2.23.25,1.55.12,2.3-.06,1.49-.25,2.23a22.14,22.14,0,0,1-.86,2.11c-.31.87-1.18,1.55-1.43,2.29s-.74,1.68-1.05,2.42-.19,1.92-.56,2.6c-.5.93-.93,1.68-1.3,2.3a5.22,5.22,0,0,1-2.05,1.67c-.68.56-1.3,1.3-2.11,1.3a3.82,3.82,0,0,1-2.54-1.42,3.42,3.42,0,0,1-1-2.48,3.81,3.81,0,0,1,1.11-2.48l.32.25c.12-.19.24-.62.62-1.24s.49-1.37.92-2.3a18.11,18.11,0,0,0,1-2.17c.31-.68,1-1.55,1.3-2.35a14.79,14.79,0,0,1-2.17,1.11,10.82,10.82,0,0,1-2.05.07c-.18,0-.31.12-.43.12a11.91,11.91,0,0,1-2.17-.56,10.17,10.17,0,0,1-2-1,11.37,11.37,0,0,1-1.62-1.43c-.62-.43-1.48-.49-1.92-1a9.33,9.33,0,0,1-1.73-2.17c-.44-.81,0-2-.19-2.85s-1.05-1.68-1.05-2.61a10.61,10.61,0,0,1,.86-2.85c.25-.8.13-1.73.56-2.42a9.47,9.47,0,0,1,1.55-2,9.67,9.67,0,0,1,2.05-1.43,10.54,10.54,0,0,1,2.23-1,9.59,9.59,0,0,1,2.29-.68c.81-.19,1.55-1,2.36-1s1.67.93,2.54,1.11a11.94,11.94,0,0,1,2.54.62c.13.07-.06-.06,0,0a11.52,11.52,0,0,0,.19-1.42c0-1.18.12-2.36.06-3.47-.8,0-1.55.31-2.36.37l-2.35.18c-.81.07-1.61-.18-2.42-.18s-1.61.25-2.35.31-1.55.43-2.36.49-1.67-.55-2.42-.49-1.61.31-2.35.37-1.62.43-2.36.5-1.67-.07-2.36.06c-.12,0-.24.31-.37.31-.87,0-1.49-.68-2.11-1.18a3,3,0,0,1-1-2c-.12-1-.37-2,.19-2.67a3.78,3.78,0,0,1,2.48-1.36c.68-.07,1.49-.31,2.35-.38s1.55-.12,2.42-.18,1.61.18,2.42.12,1.55-.37,2.42-.49,1.61.55,2.48.49,1.55-.49,2.35-.56,1.61.07,2.42,0,1.55-.86,2.42-.93,1.8.5,2.6.44c-.06-.87.06-2,0-2.85s-.68-1.74-.8-2.61a2.9,2.9,0,0,1,1-2.35c.49-.69,1-1.8,1.92-1.93a3.69,3.69,0,0,1,2.54,1.12c.68.56,1.55,1.24,1.68,2.17s.37,1.92.49,2.91-.25,2.05-.18,3C344.1,9.19,345,9,346,9s1.86.38,2.79.38,1.86-.93,2.73-1a4,4,0,0,1,2.6,1.25,3.32,3.32,0,0,1,.81,2.54A3.54,3.54,0,0,1,354.27,14.71ZM334.49,29.22a3.23,3.23,0,0,0-1.3-1.49c-.56-.25-1.06-.93-1.8-.93l-.06.18a5.17,5.17,0,0,0-2.73.81A3.75,3.75,0,0,0,326.92,30c-.06.31-.55.62-.55,1a5.59,5.59,0,0,0,1.11,3.35,3.84,3.84,0,0,0,2.85,1.18c.13,0,.19-.62.19-.62.74,0,1.43.31,2.11-.06a5.21,5.21,0,0,0,1.86-1.18,13.67,13.67,0,0,0,1-2.6A5.79,5.79,0,0,0,334.49,29.22Z"/><path class="a" d="M416.33,35.42a16.15,16.15,0,0,1-.37,2.35c-.19.74-.38,1.55-.62,2.29s-.69,1.43-1.06,2.17-.31,1.68-.74,2.36-1.61.81-2.11,1.43a2.62,2.62,0,0,1-2,1.17,3,3,0,0,1-2.42-.43,3.4,3.4,0,0,1-1.43-2.23,3.55,3.55,0,0,1,.93-2.48,14.69,14.69,0,0,0,1.61-1.86c.44-.74.25-1.74.56-2.48s1.12-1.37,1.3-2.17a16.17,16.17,0,0,0,.31-2.48c0-.74-.86-1.36-1-2.11a11.63,11.63,0,0,0-.49-2,11.28,11.28,0,0,0-1.06-1.86c-.43-.62-.18-1.68-.62-2.24s-1.3-.74-1.86-1.24a20.13,20.13,0,0,1-.93,2.55c-.25.8,0,1.86-.31,2.72s-1,1.49-1.36,2.36-1.12,1.43-1.49,2.23a22.7,22.7,0,0,1-1,2.11c-.37.74-.62,1.42-1,2.05s-.5,1.54-.93,2.16-.5,1.62-.93,2.17-1.55.81-2.05,1.31-.68,1.67-1.24,2.11-1.3.92-1.92,1.36a16.18,16.18,0,0,1-2.23.74,9.93,9.93,0,0,1-2.23.62,9.87,9.87,0,0,1-2.24.62l-.06-.49a12.79,12.79,0,0,1-2.17-.56c-.74-.19-1.61.06-2.29-.25a6.76,6.76,0,0,1-4-2.48c-.5-.56-.31-1.67-.68-2.35a10,10,0,0,1-1-2c-.24-.68-.68-1.3-.86-2s-.25-1.43-.31-2.11a12.22,12.22,0,0,1-.13-2.17,15.12,15.12,0,0,1,.31-2.3,13.25,13.25,0,0,1,.44-2.29c.18-.8.31-1.55.55-2.29a16.65,16.65,0,0,1,1.06-2.11,21.57,21.57,0,0,1,1-2c.43-.68.43-1.67.93-2.29a16.29,16.29,0,0,1,1.92-1.49,15,15,0,0,1,1.55-1.05c.5-.37,1-.81,1.49-1.18-.19-1-.56-2-.81-2.91s-.68-1.93-.93-2.92.44-1.61.87-2.29.81-1.61,1.68-1.8a3.67,3.67,0,0,1,2.72.13c.75.43.81,1.54,1,2.41s.8,1.55,1,2.42.37,1.49.56,2.29c.74-.18,1.23-.43,2-.55s1.49.12,2.23.06,1.49-.25,2.23-.25c.56,0,1.18.25,1.8.31.81.06,1.74.19,2.54.31.06-.87-.37-1.8-.31-2.67a4.36,4.36,0,0,1,1.18-2.72,4.44,4.44,0,0,1,2.85-.93,4.55,4.55,0,0,1,2.61,1.3,4.39,4.39,0,0,1,1,2.73c-.06.68-.19,1.36-.25,2.1s-.25,1.31-.31,2c.25.12.37.12.62.25a22.67,22.67,0,0,1,1.92,1.42,14.48,14.48,0,0,1,1.8,1.55c.5.56,1.36.93,1.86,1.55s.31,1.68.68,2.36,1.61,1.18,1.92,1.92,0,1.92.25,2.73a16.25,16.25,0,0,1,.5,2.48,18.72,18.72,0,0,1,.43,2.54A16.27,16.27,0,0,1,416.33,35.42Zm-28.27,2.79c-.13-.75-.93-1.37-1.12-2.17s.06-1.62-.12-2.36,0-1.61-.19-2.36-.56-1.48-.68-2.23-.12-1.61-.25-2.35-.87-1-1-1.8a8.44,8.44,0,0,0-1.55,1.73,12.42,12.42,0,0,0-1.3,2.36,13.55,13.55,0,0,0-1.24,2.54c-.13.87.37,1.86.37,2.73a20.09,20.09,0,0,0,.19,2c.12.69-.13,1.43.12,2A4.9,4.9,0,0,0,383,40.5a4.09,4.09,0,0,0,2.48.93,5.59,5.59,0,0,0,3-.68C388.3,40,388.24,39,388.06,38.21Zm9-16.93c-.5,0-.93-.56-1.37-.56h-.12c-.81,0-1.61.31-2.42.37s-2.05,0-2.85.19c.25.87,1,1.86,1.3,2.73s.56,1.67.74,2.54-.3,1.92-.12,2.79.37,1.74.56,2.54.68,1.55.87,2.42c.31-.56.62-1,.93-1.61s.62-1.24.93-1.92.37-1.68.68-2.48,1.05-1.43,1.36-2.24-.12-1.79.13-2.6.55-1.36.8-2.23C397.92,21.16,397.67,21.34,397.05,21.28Z"/></svg>