<svg xmlns="http://www.w3.org/2000/svg" viewBox="0 0 237.9 39.2"><defs><style>.cls-1{fill:#a3241d;}</style></defs><title>アセット 11</title><g id="レイヤー_2" data-name="レイヤー 2"><g id="レイヤー_1-2" data-name="レイヤー 1"><path class="cls-1" d="M29.65,31.2,22.7,25.9C18.15,32.8,9.45,38.25,1.15,38.05L0,38c4.4-3.2,14.6-11.2,17.2-16.25l-11-8.4A40.31,40.31,0,0,1,19.5,16C21.25,10.8,22.7,5.5,24.05.25l5.6,2.3a103.92,103.92,0,0,1-4,16.9c2.15,1.65,6.25,5.55,6.25,8.4A3.8,3.8,0,0,1,29.65,31.2Z"/><path class="cls-1" d="M59.65,29l-4.9-9.45c3.3.1,7,2.25,7.75,5.65a3.78,3.78,0,0,1,0,.75C62.55,27.7,61.3,28.65,59.65,29Zm22.9-10.3C82,23,80.15,31.8,77,35.1,74.2,38,68.8,39.2,65,39.2a25.78,25.78,0,0,1-4-.3C63.4,38,71.8,34.45,73.4,32.4c2.4-2.95,4.4-11.9,5-15.5ZM68,25l-4.2-9.6c3,.2,7,3.2,7,6.55C70.75,23.65,69.6,24.6,68,25Z"/><path class="cls-1" d="M137.6,11.75c.1,6.8-7.2,10.65-13.15,11.55l4.65-7.1H116.6V29.3C116.6,31.6,118,32,120,32h14.85l-2,5.4a37.38,37.38,0,0,1-6.65.6c-3.7,0-11.2-1.15-14.05-4-2.45-2.4-2.5-9.4-2.5-12.65,0-1.75.05-3.45.1-5.15H98.55L101.1,9l1.65,2.15h7.3c.3-3.7.7-7.45,1.2-11.1l5.35,1.35V11.1h15.75l1.45-2.2Z"/><path class="cls-1" d="M188,23.55H149.7l3.55-9.8,2.25,3H188Z"/><path class="cls-1" d="M213.5,23.55l-11.9-5.9A21.47,21.47,0,0,1,209.3,16c2.75,0,6.55,1,6.55,4.45A3.77,3.77,0,0,1,213.5,23.55Zm7.25,12.3a25.46,25.46,0,0,1-7.5,1.35h-7.4l-2-5.25c4.4-.4,13.5-1.2,17.7-2.8,3.75-1.5,11.6-11.4,13.85-14.4C235.35,25,230.55,32.6,220.75,35.85Zm-2.7-23-10.7-9.75a25.18,25.18,0,0,1,3.35-.25c3.55,0,9.7,1.35,9.7,5.95A5.15,5.15,0,0,1,218.05,12.9Zm14.85-2.2-6.45-4.85a12.66,12.66,0,0,1,3.3-.55c1.9,0,4.45.7,4.45,3.05A3.22,3.22,0,0,1,232.9,10.7Zm3.6-5-6.6-5A11.25,11.25,0,0,1,233.3.1c1.95,0,4.6.7,4.6,3.1A3.47,3.47,0,0,1,236.5,5.7Z"/></g></g></svg>