<svg xmlns="http://www.w3.org/2000/svg" viewBox="0 0 527.62 50.87"><defs><style>.a{fill:#fff;}</style></defs><title>アセット 10</title><path class="a" d="M17.84,27.93A3.41,3.41,0,0,1,20,29.27c.67.67,1.65,1.28,1.65,2.14a4,4,0,0,1-1.35,2.5c-.91,1-.85,1-1.77,2s-.91,1-1.89,2-1,.85-1.95,1.83-1.34.48-2.32,1.46a2.82,2.82,0,0,1-2.07,1.1c-.18,0-.37-.12-.61-.12a3.33,3.33,0,0,1-2.56-1.77c-.31-.8-.8-1.47-1.1-2.26s-.79-1.46-1-2.26-.36-1.64-.61-2.44.18-1.77-.06-2.56-.73-1.53-.91-2.32S3,27,2.77,26.16s-.36-1.58-.54-2.44-.8-1.52-.92-2.32.43-1.76.31-2.56S1.13,17.26,1,16.4.15,14.88,0,14s.18-1.71.06-2.5A3.37,3.37,0,0,1,.88,9.14,3.07,3.07,0,0,1,3,7.74a3.1,3.1,0,0,1,2.44.73,3.12,3.12,0,0,1,1.28,2.14c.12.85.12,1.7.24,2.5s.8,1.64.92,2.44-.19,1.77-.06,2.62.91,1.53,1,2.38.13,1.71.31,2.5.24,1.71.43,2.56.3,1.65.48,2.5.37,1.65.61,2.51.74,1.46,1,2.25c1.16-.61.86-1,1.77-1.95s1-.91,2-1.83A3.69,3.69,0,0,1,17.84,27.93Zm25.14,5c-.49.74-.67,1.9-1.59,2.14-.3.12-.67-.31-1-.31a3,3,0,0,1-1.83-.85c-.61-.43-1.52-.73-1.7-1.52s-.61-1.47-.8-2.26-.36-1.59-.61-2.32-.12-1.65-.36-2.38-.73-1.46-1-2.2-.49-1.52-.73-2.25-.25-1.71-.55-2.38c-.31-.86-1-1.47-1.22-2.08a3.23,3.23,0,0,1,.12-2.62c.31-.79,1.1-1,1.95-1.4s1.71-1,2.57-.61a3.68,3.68,0,0,1,2,1.95c.24.61.24,1.52.61,2.44.3.67.24,1.65.55,2.5s.91,1.4,1.22,2.2.49,1.58.79,2.44.31,1.64.61,2.44,1.1,1.4,1.34,2.25-.06,1.71.12,2.57A2.68,2.68,0,0,1,43,32.93Z"/><path class="a" d="M70.12,48.06c-.43-.73-.12-1.52.06-2.44h.06c.18-.91.06-2.13.79-2.56s1.83.12,2.75.37l.06-.31c.85.18,1.71-.12,2.5,0a19.88,19.88,0,0,0,2.44.49v-.12c.86,0,1.77.49,2.5.36A13.6,13.6,0,0,0,83.66,43a9.88,9.88,0,0,0,2.08-1.28l.24.43A6.65,6.65,0,0,0,88,40a8,8,0,0,0,.19-2.81h.06c0-.12.3-.12.3-.18a9,9,0,0,0-1-2.56,5.33,5.33,0,0,0-1-2.44l-.18.18a5.83,5.83,0,0,0-2.14-1,9.36,9.36,0,0,0-2.32-.79A23.23,23.23,0,0,0,79.45,30v-.07c-1,0-2.07.37-3.29.49l-.06-.3c-1,.06-2.08.24-2.81-.43l.37-.37C72.93,28.66,72,27.93,72,27h.37c0-1.1-.07-1.1-.07-2.26s.55-1,.55-2.14,0-1.16,0-2.25-.06-1.1-.06-2.2.19-1.1.19-2.2,0-2.07.61-2.62a3.59,3.59,0,0,1,2.68-.73v.3a3.24,3.24,0,0,1,2.44.67,3.32,3.32,0,0,1,.49,2.57h-.06C79,17.32,79,17.32,79,18.54s.54,1.22.48,2.44-.24,1.22-.24,2.44c.06,0,.12-.19.18-.19v-.06a16.51,16.51,0,0,1,2.5.49,15.08,15.08,0,0,1,2.38.61,13.73,13.73,0,0,1,2.44.37,19,19,0,0,1,2.26,1A12.92,12.92,0,0,1,91.17,27l-.25.24A12.28,12.28,0,0,1,93,29.09a11.37,11.37,0,0,1,1.15,2.44c.31.86,0,1.89.13,2.75s.85,1.7.91,2.62h.06c0,.12-.24.18-.24.3h-.43c0,.8.67,1.65.55,2.44s-1.16,1.29-1.46,2a12.37,12.37,0,0,1-.74,2.25,11.44,11.44,0,0,1-1.22,2.14,13.88,13.88,0,0,1-2.07,1.22l-.12-.12c-.61.43-.92,1.4-1.65,1.77s-1.52.3-2.26.55a14.63,14.63,0,0,1-2.25.36,14.55,14.55,0,0,1-2.26.31c-.79.06-1.53.73-2.32.73v-.31c-.73,0-1.46.25-2.19.19s-1.47-.37-2.26-.49-1.47-.31-2.2-.49c0,0-.06-.06.12-.36A3.2,3.2,0,0,1,70.12,48.06ZM83.66,9.87c-.79-.12-1.71.13-2.5-.06l-2.38-.55c-.79-.18-1.46-.79-2.26-1s-1.58-.31-2.31-.61S72.74,6.76,72,6.46L72,6.34v.3c-.86-.37-1.1-1.16-1.47-1.95a3,3,0,0,1-.12-2.38l-.24-.12a3.18,3.18,0,0,1,2-1.53c.8-.3,1.83-.91,2.69-.55L74.69.3c.68.3,1.59.36,2.44.67s1.47.91,2.32,1.16,1.71.18,2.5.36,1.59.8,2.44.92,1.71.24,2.51.36l.06-.3c.91.12,1.4,1,2,1.71a2.81,2.81,0,0,1,.55,2.25h.06a2.85,2.85,0,0,1-1.1,1.83,2.72,2.72,0,0,1-2,1v-.18c-.12,0-.31.24-.49.24a.58.58,0,0,0,0,.37C85.19,10.61,84.46,10.06,83.66,9.87Z"/><path class="a" d="M160.34,31.1a11.93,11.93,0,0,1-.18,2.5,20.14,20.14,0,0,1-1.22,2.14,15.76,15.76,0,0,1-1.22,2.2,15.6,15.6,0,0,1-1.53,2A19.1,19.1,0,0,1,154,41.17a12.41,12.41,0,0,1-2.08,1.4c-.73.31-1.71.06-2.5.31s-1.52.91-2.38,1a15.64,15.64,0,0,1-2.5.19h-.06c-.37,0-.67-.37-1-.43-.91,0-1.34-.67-1.95-1.28a3.13,3.13,0,0,1,.06-4.09,2.76,2.76,0,0,1,2.08-.67c.3.06.6-.12.85-.12a18.29,18.29,0,0,0,2.62-.12,17.59,17.59,0,0,0,2.5-.74A11.17,11.17,0,0,0,151.68,35a7,7,0,0,0,1.34-2,7.36,7.36,0,0,0,1.16-2.31c0-.19-.18-.31-.18-.43-.07-1.16-.92-1.77-1.77-2.56a4.51,4.51,0,0,0-2-1.1,7.85,7.85,0,0,0-2.37-.79c-.37,0-.8.42-1.29.48-.06,0-.06-.18-.12-.18-1.16.12-1.22-.3-2.38-.24s-1.1.73-2.25.85-1.1.18-2.26.31-1.16-.13-2.32-.07-1.22-.42-2.32-.36a12.88,12.88,0,0,1-2.32,0c-1.16.06-1.16.61-2.25.67a3.37,3.37,0,0,1-2.44-.79,3.11,3.11,0,0,1-1-2.26,3.17,3.17,0,0,1,.79-2.32,3.33,3.33,0,0,1,2.14-1.34c1.16-.12,1.16.36,2.32.3s1.1-.85,2.25-1,1.16.36,2.32.3,1.16-.24,2.32-.36,1.16.18,2.32.12,1.16.3,2.32.24,1.09-.55,2.25-.61c.68-.06,1.29.06,1.9.06a11.66,11.66,0,0,1,2.44-.18,15.17,15.17,0,0,1,2.31.85,9.85,9.85,0,0,1,2.2.92,8.92,8.92,0,0,1,2,1.4c.55.49,1.41.67,1.83,1.28s.43,1.47.73,2.14a8.07,8.07,0,0,1,.86,2,8.94,8.94,0,0,1,.43,2.2C160.65,30.49,160.4,30.74,160.34,31.1Z"/><path class="a" d="M220.3,34.7c-.42.74-.42,1.71-.85,2.38s-1.28,1.16-1.83,1.83a16.43,16.43,0,0,1-1.77,1.77,17.09,17.09,0,0,1-1.77,1.83c-.67.49-1.28,1.22-2,1.65a16.55,16.55,0,0,1-2.44.79,16.15,16.15,0,0,1-2.5.67,15.91,15.91,0,0,1-2.5.06c-.25,0-.43-.18-.68-.18a18.06,18.06,0,0,1-2.56-.06,12.55,12.55,0,0,1-2.62-.18,17.13,17.13,0,0,1-2.5-.86c-.73-.42-1.34-1.16-2-1.64s-1.52-.61-2.07-1.16-.43-1.59-.85-2.26-1.35-.92-1.71-1.65a21.79,21.79,0,0,1-.49-2.25,14.19,14.19,0,0,1,.06-2.26c-.12-.79-1-1.47-1.1-2.26s.49-1.59.43-2.44,0-1.52,0-2.32-.67-1.58-.67-2.38.61-1.52.61-2.31,0-1.53.06-2.32-.55-1.59-.49-2.38.73-1.47.79-2.26,0-1.52.13-2.32.36-1.52.48-2.25.25-1.53.43-2.32a3.7,3.7,0,0,1,1.4-2.32A4.21,4.21,0,0,1,194,4.87a3.78,3.78,0,0,1,2.2,1.65,3.43,3.43,0,0,1,0,2.56c-.19.79.3,1.71.12,2.5s-.37,1.65-.49,2.44-.55,1.59-.67,2.38.3,1.71.24,2.5-.73,1.65-.73,2.44.06,1.65.06,2.44.19,1.47.25,2.14.3,1.46.36,2.13-.61,1.47-.55,2.2.86,1.34,1,2a6.65,6.65,0,0,0,1,2.69,5.84,5.84,0,0,0,1.7,2.13,7.69,7.69,0,0,0,2.5,1.53,12.13,12.13,0,0,0,3,.12c.13,0,.31.49.43.49a9.42,9.42,0,0,0,2.56-.86,13.13,13.13,0,0,0,2.32-1.09,13,13,0,0,0,2.32-1.35,14.7,14.7,0,0,0,1.65-2.07c.48-.73.67-1.65,1.09-2.44a3.9,3.9,0,0,1,2.32-1.53,3.4,3.4,0,0,1,2.5.49c.86.49,1.71,1,2,1.83S220.73,33.85,220.3,34.7Z"/><path class="a" d="M282.64,31.71a8.33,8.33,0,0,1-.67,2.14c-.36.61-.42,1.52-.91,2.07a13,13,0,0,1-1.77,1.41,13.73,13.73,0,0,1-2,1.16,20.71,20.71,0,0,1-2.08.91,13.92,13.92,0,0,1-2.19.31c-.73.12-1.53-.37-2.26-.37a2.94,2.94,0,0,1-2.26-.79,3.52,3.52,0,0,1-1.34-2.26A3.5,3.5,0,0,1,268.55,34a3.21,3.21,0,0,1,2.26-1.1,9.39,9.39,0,0,0,2.32-.36c.85-.18,1.83-.12,2.32-.49a2.82,2.82,0,0,0,1-2.5c0-.06.55-.12.55-.18a3.46,3.46,0,0,0-1.22-1.65,6.19,6.19,0,0,0-2.07-.67A7.08,7.08,0,0,0,271.6,27c-.85,0-1.77.06-2.8.06-.86,0-1.77.36-2.75.42S264,26.89,263,27c-.73.85.06,1.22.12,2.56.06.73.8,1.46.8,2.32s.06,1.58.06,2.31c.12,1.35-.43,1.22-.31,2.38s-.06,1.16,0,2.32.25,1.16.31,2.32.24,1.16.36,2.32-.24,1.16-.12,2.32a2.73,2.73,0,0,1-.67,2.19,3,3,0,0,1-2.07,1.16c-.06,0-.13.43-.19.43a4,4,0,0,1-2.44-1c-.55-.55-.42-1.52-.48-2.38-.13-1.16-.49-1.16-.55-2.32s-.37-1.15-.43-2.31.06-1.16,0-2.32.37-1.22.3-2.38.13-1.16,0-2.32-.24-1.16-.3-2.32.06-1.16,0-2.32-.31-1.15-.79-2.19c-.8.06-1.41.49-2.26.61s-1.65.24-2.5.3a3.83,3.83,0,0,1-2.5-1,3.32,3.32,0,0,1-1.22-2.2,2.71,2.71,0,0,1,1-2.19c.49-.68.92-1.53,1.83-1.65s1.83.3,2.75.18,1.46-.67,2.38-.79c.36-.92.61-.86.55-1.83s-.8-.92-.86-1.89.8-1.59,1.34-2.2a3,3,0,0,1,2-1.34,3.47,3.47,0,0,1,2.5.67c.61.55.49,1.52.55,2.44s.18.92.24,1.89.37.86.86,1.65c1,0,1.52.36,2.44.3s2-.24,2.86-.24c.55-1.65-.18-1.77-.06-3.48a3.44,3.44,0,0,1,1.34-2.19,3.17,3.17,0,0,1,2.38-.49,3,3,0,0,1,2.2.79,3.54,3.54,0,0,1,1.16,2.38c-.12,1.65-1.16,1.71-.86,3.29a11.59,11.59,0,0,1,2.57.86,8.87,8.87,0,0,1,2,1.46,7.83,7.83,0,0,1,1.89,1.53,7.35,7.35,0,0,1,1,2.19c.3.8,1,1.47,1,2.32v.43A8.05,8.05,0,0,1,282.64,31.71Z"/><path class="a" d="M322.84,27.93a3.41,3.41,0,0,1,2.2,1.34c.67.67,1.65,1.28,1.65,2.14a4,4,0,0,1-1.35,2.5c-.91,1-.85,1-1.77,2s-.91,1-1.89,2-1,.85-1.95,1.83-1.34.48-2.32,1.46a2.82,2.82,0,0,1-2.07,1.1c-.18,0-.37-.12-.61-.12a3.33,3.33,0,0,1-2.56-1.77c-.31-.8-.8-1.47-1.1-2.26s-.79-1.46-1-2.26-.36-1.64-.61-2.44.18-1.77-.06-2.56-.73-1.53-.91-2.32-.49-1.58-.68-2.38-.36-1.58-.54-2.44-.8-1.52-.92-2.32.43-1.76.31-2.56-.49-1.58-.61-2.44-.86-1.52-1-2.38.18-1.71.06-2.5a3.37,3.37,0,0,1,.79-2.38A3.07,3.07,0,0,1,308,7.74a3.1,3.1,0,0,1,2.44.73,3.12,3.12,0,0,1,1.28,2.14c.12.85.12,1.7.24,2.5s.8,1.64.92,2.44-.19,1.77-.06,2.62.91,1.53,1,2.38.13,1.71.31,2.5.24,1.71.43,2.56.3,1.65.48,2.5.37,1.65.61,2.51.74,1.46,1,2.25c1.16-.61.86-1,1.77-1.95s1-.91,1.95-1.83A3.69,3.69,0,0,1,322.84,27.93Zm25.14,5c-.49.74-.67,1.9-1.59,2.14-.3.12-.67-.31-1-.31a3,3,0,0,1-1.83-.85c-.61-.43-1.52-.73-1.7-1.52s-.61-1.47-.8-2.26-.36-1.59-.61-2.32-.12-1.65-.36-2.38-.73-1.46-1-2.2-.49-1.52-.73-2.25-.25-1.71-.55-2.38c-.31-.86-1-1.47-1.22-2.08a3.23,3.23,0,0,1,.12-2.62c.31-.79,1.1-1,1.95-1.4s1.71-1,2.57-.61a3.68,3.68,0,0,1,2,1.95c.24.61.24,1.52.61,2.44.3.67.24,1.65.55,2.5s.91,1.4,1.22,2.2.49,1.58.79,2.44.31,1.64.61,2.44,1.1,1.4,1.34,2.25-.06,1.71.12,2.57A2.68,2.68,0,0,1,348,32.93Z"/><path class="a" d="M404.22,23.3a4.07,4.07,0,0,1-2.5,1.34c-1.16,0-1.16-.49-2.26-.49s-1.1.24-2.26.24-1.28-.79-2.32-.3c.07.91.68,2,.68,2.87s-.25,1.76-.25,2.62a17.52,17.52,0,0,1,2.69.91c.91.19,1.89.31,2.31,1a3.86,3.86,0,0,1,.74,2.69,3.85,3.85,0,0,1-1.83,2.07,3.53,3.53,0,0,1-2.51.61,7.73,7.73,0,0,1-1-.18c-.06.91-.61,1.52-.73,2.38a18.5,18.5,0,0,1-.55,2.5,14.15,14.15,0,0,1-.8,2.38,12.73,12.73,0,0,1-1.46,2.13,12.36,12.36,0,0,1-1.83,1.71,8.75,8.75,0,0,1-2.44.85,10.64,10.64,0,0,1-2.44.61c-.79.13-1.59,1.1-2.44,1.1-.06,0-.06-.61-.06-.61s-.06.25-.06.25-.06.18-.13.18a10.62,10.62,0,0,1-2.8-.25,10.38,10.38,0,0,1-2.5-1.28,10.67,10.67,0,0,1-2.2-1.58c-.73-.61-1.77-1-2.26-1.77a9.69,9.69,0,0,1-1.09-2.56c-.25-.92.42-1.9.42-2.81,0-.06-.85-.12-.85-.31,0-.79.61-1.52.79-2.25s.25-1.59.55-2.26,1.16-1.1,1.71-1.65a7.63,7.63,0,0,1,1.58-1.58,10.38,10.38,0,0,1,1.77-1.47c.68-.3,1.53-.24,2.26-.49s1.47-.36,2.2-.48,1.46-.06,2.25-.06c1-.07,1.9-.37,2.81-.37.37,0,.31-.06.67-.06-.06-.73.12-1.34.06-2.2s.61-1.58.55-2.38c0-.06-.42-.24-.42-.24-1.23-.06-1.23.61-2.51.61s-1.22-.67-2.44-.61-1.22.18-2.44.18-1.22-.06-2.44-.06H376c-1.28,0-1.22.61-2.5.61v-.79c-.91,0-2,.18-2.56-.43a4.14,4.14,0,0,1-1.28-2.56,4.12,4.12,0,0,1,1.28-2.56c.61-.61,1.59-.49,2.5-.49,1.22,0,1.22-.55,2.44-.61s1.16.3,2.38.3,1.22-.06,2.38-.06,1.22-.24,2.38-.24,1.22-.18,2.38-.25,1.46,1.16,2.56.8c-.06-.8.12-2.08,0-2.87s-.43-1.95-.55-2.74c-1.22-.43-1.4.3-2.74.24s-1.29.24-2.63.24-1.28-.24-2.56-.3h-2.62c-1.28-.06-1.28.49-2.63.43a3.83,3.83,0,0,1-2.56-1.29,3.56,3.56,0,0,1-.49-2.56,2.78,2.78,0,0,1,3.18-2.93c1.22.06,1.22-.18,2.38-.18s1.21-.43,2.37-.43,1.16.49,2.38.55,1.16.25,2.32.25a8.37,8.37,0,0,0,2.44.06c-.06-.37.25-1.28.18-1.65l-.6.12a3.76,3.76,0,0,1,.6-2.68A4.18,4.18,0,0,1,388.66.6c.92-.18,1.77.61,2.5,1.1a3.21,3.21,0,0,1,1.28,2.07c.13.86.43,1.71.61,2.44,1,.37,1.1.06,2.2.06s1.1-.36,2.2-.3,1.1.67,2.19.67a2.65,2.65,0,0,1,2.08.92c.61.61,1.52,1.22,1.52,2.13a4,4,0,0,1-1,2.62,4.18,4.18,0,0,1-2.63,1.16l-.06-.18c-1.34,0-1.34-.55-2.68-.55s-1.35.18-2.63.55c.06.79.37,1.1.43,1.89s-.24,1.95-.18,2.75c1.1.36,1.28-.61,2.44-.67s1.22-.07,2.38-.07,1.16.13,2.38.13a3.73,3.73,0,0,1,2.56.85c.61.61.43,1.65.43,2.62S404.83,22.69,404.22,23.3ZM388.3,36.05c-.37,0-.49-.07-.92-.07-.79,0-1.65.31-2.5.31a15.16,15.16,0,0,0-2.5.18,6,6,0,0,0-2.26,1c-1,.73-1.77,1.16-1.89,2.38,0,0,.12,0,.12.06s.37,0,.37.06a3.15,3.15,0,0,0,.79,2.32,5,5,0,0,0,3.3,1.22.06.06,0,0,1,.06-.06l.06-.67c1.58,0,2.68.12,3.47-.37A4.89,4.89,0,0,0,388,39.64a7,7,0,0,0,.73-1.83C388.84,37.27,388.3,36.78,388.3,36.05Z"/><path class="a" d="M471.14,20.31A3,3,0,0,1,469,21.65l-2.38.12c-1.22,0-1.22-.12-2.44-.06s-1.16.37-2.38.43-1.65-1-2.44-.13-.12,1.29-.12,2.57.06,1.34.06,2.62a3.16,3.16,0,0,1-1,2.26,2.9,2.9,0,0,1-2.25.73,2.86,2.86,0,0,1-2.2-.86,2.82,2.82,0,0,1-1-2.13c0-1.22-.48-1.22-.48-2.44s1.28-1.77.36-2.56-1.4.61-2.74.67-1.41-.49-2.75-.43-1.34.31-2.68.37a6.17,6.17,0,0,0-2.56.36c.12.74-.43,1.16-.31,2s.49,1.52.55,2.25.18,1.59.24,2.26c.13.85.8,1.59.92,2.2a12.17,12.17,0,0,0,.43,2.44,7.11,7.11,0,0,0,1.34,2c.61.73.73,1.83,1.4,2.26a9.42,9.42,0,0,0,2.44,1c.79.12,1.65.19,2.44.25s1.65-.06,2.44-.06a25.14,25.14,0,0,0,2.81-.49,21.45,21.45,0,0,0,2.74-.37,27.09,27.09,0,0,0,2.63-.85,4.13,4.13,0,0,1,2.86,0,3.83,3.83,0,0,1,1.59,2.25,3.13,3.13,0,0,1-.43,2.44,2.74,2.74,0,0,1-1.71,1.71c-.85.31-1.64.55-2.56.8a18.1,18.1,0,0,1-2.56.79c-.85.12-1.77.36-2.68.43s-1.77-.49-2.69-.49c-.67,0-1.4.42-2.07.42s-1.41.19-2.08.13-1.28-.61-2-.74a9.8,9.8,0,0,1-2.68-.3,14.17,14.17,0,0,1-2.38-1.28c-.67-.43-1.1-1.4-1.71-2a18.55,18.55,0,0,1-1.65-2,20,20,0,0,1-1.28-2.25,14.55,14.55,0,0,1-1.16-2.26,18.5,18.5,0,0,1-.42-2.63c-.13-.73-.55-1.52-.68-2.44s-.24-1.58-.3-2.5-.37-1.64-.49-2.5.06-1.28-.06-2.13a4.26,4.26,0,0,0-2.14-.55c-1.09.06-1.09.36-2.19.43s-1.1-.13-2.26-.07c-.06,0-.06.13-.12.13a3.83,3.83,0,0,1-2.5-.8,3.82,3.82,0,0,1-.79-2.5c0-.91-.07-2,.54-2.62a3.83,3.83,0,0,1,2.63-.92c1-.06,1.1.31,2.13.25s1-.49,2.14-.49a3.47,3.47,0,0,0,2-.37c-.06-.91-.37-1.34-.43-2.07-.06-1,.73-1.89.73-2.44h-.12A3.19,3.19,0,0,1,435.26,9a3.41,3.41,0,0,1,2.45-.79,2.75,2.75,0,0,1,2.07,1c.67.61,1.65,1.22,1.65,2.14a11.81,11.81,0,0,0-.31,2.32c0,.67.18,1.22.25,2.07,1.09.37,1.09,0,2.19-.06s1.16.55,2.32.49,1.1-.73,2.2-.79,1.16-.19,2.25-.25,1.22.92,2,.06.18-1,.18-2.25.12-1.29.12-2.57.18-1.28.18-2.5a3,3,0,0,1,1-2.26c.61-.6,1.34-1.4,2.26-1.4a3.78,3.78,0,0,1,2.44,1.22,3.37,3.37,0,0,1,.91,2.44c0,1.22-.18,1.22-.18,2.44s.12,1.22.12,2.44-.79,1.65.06,2.5,1.16-.3,2.38-.36,1.16.55,2.32.49,1.16-.49,2.32-.49,1.16-.43,2.32-.49a4.27,4.27,0,0,1,2.44,1.34,3.75,3.75,0,0,1,1.22,2.32A3.23,3.23,0,0,1,471.14,20.31Z"/><path class="a" d="M526.77,27.57c-.55.54-1.47.61-2.08,1s-1,1.16-1.64,1.53a10.71,10.71,0,0,1-2,1,13.94,13.94,0,0,1-2.25.49c-.74.12-1.53-.36-2.26-.36l-.06.12a10.53,10.53,0,0,1-2.38-.12,15.14,15.14,0,0,1-2.26-.67,20.32,20.32,0,0,1-2.07-1.22c-.67-.37-1.65-.43-2.26-.92A8,8,0,0,0,505.17,27a6.3,6.3,0,0,0-2.56-1,7,7,0,0,0-3.11.37,10.89,10.89,0,0,0-2.44,1.95l-.12-.12a2.71,2.71,0,0,1-2.26.48c-.86-.06-1.83,0-2.44-.67a4,4,0,0,1-1.1-2.62c.06-.85,1-1.59,1.65-2.2a24.85,24.85,0,0,1,2.07-1.76,23.24,23.24,0,0,1,2.44-1.23A20.36,20.36,0,0,1,500,20a13.62,13.62,0,0,1,2.62-.61,12.84,12.84,0,0,1,2.62.18,11.43,11.43,0,0,1,2.44.8c.86.3,1.34,1.1,2.14,1.58a16.74,16.74,0,0,1,2.32,1.16A7.31,7.31,0,0,0,514,24.64a7,7,0,0,0,2.5,0c.91,0,2.13.36,3.05-.06a9.83,9.83,0,0,0,2.56-1.77c.67-.67,1.22-1.41,2.14-1.34a3.32,3.32,0,0,1,2.25,1.22,3.11,3.11,0,0,1,1.1,2.31A3.84,3.84,0,0,1,526.77,27.57Z"/></svg>