<svg xmlns="http://www.w3.org/2000/svg" viewBox="0 0 352 370.2"><defs><style>.a{fill:none;stroke:#fff;stroke-miterlimit:10;stroke-width:8px;}.b{fill:#fff;}</style></defs><title>アセット 9</title><circle class="a" cx="176" cy="194.2" r="172"/><text/><path class="b" d="M89.33,305.54,78.09,294.17l-4.69,4.64c-2.05,2-3.45,2.38-5.34,1.57s-4-2.86-6.89-5.83a18.58,18.58,0,0,0,2-4.76c2,2.21,4.41,4.63,5,5.26s1.14.7,1.72.13l4.63-4.58L63.33,279.23l3.34-3.3L77.9,287.3,81.27,284,72,274.56l3.28-3.24,9.3,9.41,3.37-3.33c-3.21-2.73-6.37-5.59-9.28-8.3a15.54,15.54,0,0,0,2.17-3.85C88,271.91,96.53,279,102.43,282.53l-.4,5.29a96.68,96.68,0,0,1-10.18-7.24l-3.77,3.72L97.64,294l-3.28,3.24-9.56-9.68-3.37,3.33,11.24,11.38Z"/><path class="b" d="M101.1,321.05c0-1.46-.17-3.69-.36-5.76a23.42,23.42,0,0,1-9.5,6.45A17.74,17.74,0,0,0,90,317.3c7.11-2.68,11.2-9.17,14.47-15.4L111,289.53l3.8,2-6.5,12.4-.1.18a69.59,69.59,0,0,0,5.51-5.79l2.32,2.54,1.8-3.44,7.06,3.7,1.83-3.48,4,2.12-1.83,3.48,7.46,3.91-1.84,3.51-7.46-3.91-1.8,3.44-4-2.12,1.8-3.44-6.81-3.57.23.26c-2.39,1.94-5.06,4.34-6.91,5.7l-1.77-2.12a70.83,70.83,0,0,1-3.74,6.26c.45,2.11,1.24,7.23,1.45,8.49Zm-3.9-18c2.19-1.46,4.5-4.91,6.11-8.08l2.65,1.84c-1.61,3.41-4.07,7.06-6.62,8.87Zm22.89,29c.58.3,1-.09,2.63-3.1a13.14,13.14,0,0,0,2.69,3.33c-2.65,4.18-4.22,4.82-6.73,3.51l-2.61-1.37c-3.27-1.71-3.35-3.22-1.56-6.62l3.1-5.92-3-1.57c-3.31,5.25-6.42,8-13.77,6.48a11.38,11.38,0,0,0-.5-4.28c5.78,1.34,7.88-.48,10.25-4.31l-4.19-2.2,1.88-3.58,3.15,1.65,1.75-3.33-3.37-1.77,1.88-3.58,3.37,1.77,1.93-3.7,3.87,2-1.93,3.69,6.77,3.55,1.94-3.69,3.94,2.07-1.94,3.69,3.52,1.84-1.88,3.59-3.51-1.85L126,321.64l3.3,1.73L127.43,327l-5.84-3.06-3.08,5.88c-.49.93-.5,1.11.11,1.43Zm-4.8-16,6.78,3.55,1.74-3.33L117,312.69Z"/><path class="b" d="M145,328.66a12,12,0,0,0-1.62,3.66c-.42,2.47,1,4.45,6.19,5.34a58.57,58.57,0,0,0,10.6.92l-1,5a71.38,71.38,0,0,1-10.3-1c-7.38-1.27-11.49-4.56-10.55-10a21,21,0,0,1,1.88-5.22Zm23.42-3.61a46.29,46.29,0,0,1-6.38.54c.63,2.29,1.35,4.8,2.14,7.15l-2.87,2.59c-2.13-.78-5.81-2-8.39-2.8l1.09-3.72c1.52.47,3.06.86,4.11,1.16L157,325.55a100.23,100.23,0,0,1-17.4-2.74l.59-4.58A81.55,81.55,0,0,0,155.92,321l-.41-1.68-.58-2.39a80.15,80.15,0,0,1-13.57-2.5l.54-4.55a76.34,76.34,0,0,0,11.89,2.5v0a33.93,33.93,0,0,0-1.33-3.72l5.81-.11a35.57,35.57,0,0,0,.56,4.16,48.93,48.93,0,0,0,7.89-.53l.08,4.57a57,57,0,0,1-7.06.43l.47,1.84.57,2.16a43.82,43.82,0,0,0,7.4-.74Z"/><path class="b" d="M184.12,315l6,.4c-.2,1.21-.38,3.24-.42,4.14A98.69,98.69,0,0,1,188,332a55.22,55.22,0,0,1-4.35,12.28l-5.94-1.59a49,49,0,0,0,4.72-12A58.55,58.55,0,0,0,184.12,315Zm10.35-.2,5.09-2.45c2.08,2.9,5.69,8.65,7.7,12.34,1.94,3.41,5,9.53,6.62,13.35l-5.67,2.74a124.92,124.92,0,0,0-6.12-13.58A114.1,114.1,0,0,0,194.47,314.75Zm11.77-8.89a4.84,4.84,0,1,1-4.15,5.48A4.88,4.88,0,0,1,206.24,305.86Zm1,7.1a2.33,2.33,0,1,0-.63-4.61,2.36,2.36,0,0,0-2,2.65A2.34,2.34,0,0,0,207.21,313Z"/><path class="b" d="M230.85,308.22,229,313.84a84.09,84.09,0,0,0-12.9-3.49l1.67-5.3A85.5,85.5,0,0,1,230.85,308.22ZM236.54,320A38.42,38.42,0,0,0,243,299.46l5.31,3.77a43,43,0,0,1-7,20,43.73,43.73,0,0,1-11.05,11.65l-5.38-3.34A41.74,41.74,0,0,0,236.54,320Z"/><path class="b" d="M290.66,288.79l2.61,2.77-21.43,20.27-2.62-2.76,8.91-8.43-1.92-2-6.93,6.57-2.62-2.77,6.94-6.56L272,294.17c-2.65,2.74-5.09,5.22-7.1,7.28l-2.73-2.6,3-3c-.23-1.06-.51-2.24-.79-3.37l-4.59,4.34c4.36,5,9.16,11.57,10.35,17.9a18.85,18.85,0,0,0-4.81,1.15c-1.37-7.28-7.4-14.12-11.82-18.79l-8-8.5,22.32-21.11,7.06,7.47-18.81,17.8,1,1,.25.26,19.61-18.55,2.59,2.73-4.41,4.17a44.42,44.42,0,0,1,8.43-.39l-1.22,4.55a19.74,19.74,0,0,0-2.71-.17l-4.33,4.44,1.72,1.82L284,286l2.61,2.77-7,6.67,1.92,2Zm-39-.68,1.73,1.82,15.29-14.46L267,273.65Zm16.62.72c.19,1.15.36,2.33.5,3.42l5.63-5.66a24,24,0,0,0-2.5.25l.54-2Z"/><path class="b" d="M72.19,89.67s1.06.79,1.51,1.18c7.08,5.77,9.88,8.33,10.25,10a4.19,4.19,0,0,1-.47,3.46,34.52,34.52,0,0,1-2.85,4,11.94,11.94,0,0,0-4.57-1.67c1.1-1.19,2-2.39,2.45-2.93a1.74,1.74,0,0,0,.43-1.43c-.24-.82-1.84-2.43-6.07-5.91L69,101.59c4.52,4.38,7.34,9,5.7,16.34a12.85,12.85,0,0,0-4-.15L82,126.26l-5.25,7,2.58,1.93L76.53,139,51.06,120l8.1-10.84,10.92,8.15c1.16-5.39-.89-8.67-4-11.76L62.74,110l-3.67-2.74ZM57.51,118.9l5.92,4.42L65.94,120,60,115.54Zm18.19,8.34-6.22-4.64L67,126l6.22,4.65Zm-.1-9.08L87.66,102l14.17,10.58-3,4.05-1.29-1L91.35,124,92.78,125l-2.87,3.84ZM82.07,117l5.68,4.24L93.92,113l-5.68-4.24Z"/><path class="b" d="M102.13,86.47c2.34.54,7.94,2.28,9.34,2.76l-.21,5.09c-1.45-.79-3.73-1.87-6-2.82l8.33,13.27-4.32,2.71-8-12.8a37.53,37.53,0,0,1,.36,11.75,22.41,22.41,0,0,0-4.68-2.68,38.14,38.14,0,0,0-.55-14.53L91,92.58l-2.48-4,6.4-4L92,79.94c-1.58,1.39-3.15,2.73-4.67,4A17.43,17.43,0,0,0,84.1,81.3,76.26,76.26,0,0,0,95.36,69.93l4.86,1.61a54.4,54.4,0,0,1-4.41,4.87l3.45,5.5,5.21-3.27,2.49,4-5.22,3.27Zm13.08-24.74L132.92,90l-4.43,2.77-1.62-2.58-5.75,3.6,1.78,2.84-4.21,2.64L100.83,70.75ZM124.3,86,113.36,68.6l-5.75,3.61,10.94,17.44Z"/><path class="b" d="M140.91,84.51a5.47,5.47,0,0,0,0-2.81l-4.29-22.6a26.38,26.38,0,0,0-1.35-4.62l6.54-1.24a29.91,29.91,0,0,0,.48,4.79l4.11,21.63c6.43-3.2,14.71-10.31,18.81-17.82L169.1,66c-4.41,7.93-12.14,14.53-21.33,19.6a12,12,0,0,0-2.29,1.61Z"/><path class="b" d="M208.21,76.41a123.55,123.55,0,0,0-13.93-9l-2.16,11.82c-.22,1.21-.55,4.17-.69,5.87l-6.51-1.19a45.85,45.85,0,0,0,1.48-5.73l4.38-24a29.71,29.71,0,0,0,.5-5.13l6.52,1.19a44.8,44.8,0,0,0-1.3,5l-1.13,6.14a137.76,137.76,0,0,1,16.27,9.66Z"/><path class="b" d="M246.65,101.85c-.87,1.41-2.94,4.92-3,5.06l-5-3.08,1.26-2L222.5,91.12l-1.19,2-5-3.08c.14-.16,2.16-3.26,3.23-5l10.91-17.65c.62-1,1.54-2.49,2.09-3.55,1.46,1,2.81,1.83,3.78,2.44L256.2,78.57c.9.55,2.27,1.4,3.62,2.13-.75,1-1.57,2.38-2.24,3.46Zm-12.06-30.3-9.26,15,17.44,10.78,9.26-15Z"/><path class="b" d="M281.06,111.93a60.18,60.18,0,0,1-5.56-5,77.2,77.2,0,0,1-19.77,3.7l-1-5.66a64.34,64.34,0,0,0,17-2.13c-.47-.55-.91-1.13-1.34-1.7-1.05-1.39-2-2.77-3.08-4.28l3.7-3.27a54,54,0,0,0,3.14,4.64c.74,1,1.55,2,2.38,2.94a36.14,36.14,0,0,0,6.31-3.34l3,5c-1.29.55-3.29,1.42-5.44,2.31a44.38,44.38,0,0,0,4.45,3.7Zm.32,6.68c-1.5,1-2.83,2.09-4.3,3.25-.92.75-2.49,2-4.07,3.41a27.89,27.89,0,0,1,.95,10.19l-5.27.48a38.44,38.44,0,0,0,.12-7.22l-.31.23c-3.11,2.35-6.83,2.51-10.44-2.26-3.15-4.16-3.77-8.85-.09-11.65,3.28-2.48,7.9-1.66,11.43,3a27.1,27.1,0,0,1,1.58,2.37c2.43-2,5.24-4.4,7.2-6Zm-13.89,4.72a14.54,14.54,0,0,0-1.71-3c-1.46-1.93-3.22-2.56-4.4-1.67s-1.31,2.64.08,4.47c1.71,2.26,3.6,2,5.39.65Zm16.45,2.39a56.27,56.27,0,0,0-1.32-11.67l4.95-.34a76.5,76.5,0,0,1,1.72,11.69Z"/><text/><path class="b" d="M153.63,116.62v-1.14a29,29,0,0,1-2.67,2.19h12V127h-9.69c-.06.39-.12.81-.21,1.2h10.35v8.07h-3.09v-.84h-5.07v.93h-3v-5a14.24,14.24,0,0,1-2.31,4.38,11.23,11.23,0,0,0-2.34-2.13c2.64-3.45,3-8.25,3-11.64v-4.08c-.33.21-.66.45-1,.66a10.12,10.12,0,0,0-2.13-2.52,20.76,20.76,0,0,0,7.53-7.32h3.18a59.18,59.18,0,0,1,6.27,5.4l-2.28,2.64c-.42-.48-1-1.08-1.59-1.74v1.56Zm6.12,7.89v-1.14h-6.18c0,.36,0,.75-.06,1.14Zm-6.15-4.35v1.08h6.15v-1.08Zm6.12-5.94c-.87-.84-1.8-1.71-2.67-2.4-.63.78-1.32,1.59-2.1,2.4Zm-4.47,16.53v2.13h5.07v-2.13Zm12.84-1.83h-3.36V112h3.36ZM174.75,109v23.16c0,2-.39,3-1.59,3.51s-3,.72-5.58.72a14.59,14.59,0,0,0-1.17-3.63c1.8.06,3.54.06,4.11.06s.75-.18.75-.69V109Z"/><path class="b" d="M196.47,129.58a26.8,26.8,0,0,0,9.51,3.27,16.78,16.78,0,0,0-2.4,3.24A25.61,25.61,0,0,1,193.5,131v5.4H190V131.2a28.46,28.46,0,0,1-10.05,4.86,16.64,16.64,0,0,0-2.28-3,31.52,31.52,0,0,0,9.48-3.51h-8.61v-2.94H190v-1.32h-8.64v-2.58H190v-1.35H179.85V118.6h5.7a13.48,13.48,0,0,0-1-2.34l.36-.06h-6.27v-2.91h4a26.89,26.89,0,0,0-1.86-3.72l3.06-1a22.7,22.7,0,0,1,2.28,4.23l-1.47.54h2.73V108.4h3.33v4.89h2.22V108.4h3.36v4.89H199l-1.08-.33a24.17,24.17,0,0,0,1.89-4.35l3.75.9c-.84,1.38-1.65,2.73-2.34,3.78h3.9v2.91h-5.64c-.48.87-1,1.68-1.41,2.4h5.88v2.79H193.5v1.35h9v2.58h-9v1.32h11.67v2.94Zm-8.16-13.38a14.78,14.78,0,0,1,1,2.31l-.51.09h5.61c.36-.72.72-1.59,1-2.4Z"/><path class="b" d="M93.75,237.64l10.22-13c7.8,8.65,19.15,14.33,30.5,14.33,11.63,0,19.86-5.68,19.86-14.47,0-10.22-7.94-16.74-33.34-16.74v-14.9c22.13,0,30.93-7.24,30.93-16.17,0-7.52-6.1-13.06-17.88-13.06-9.22,0-18.58,3.83-27.24,12.77L95.88,163.58C106.8,153.23,120.28,147,134.75,147c22.56,0,36.75,11.06,36.75,27.52,0,12.06-6.53,20.85-18.16,24.54v.57c11.91,3,20.85,12.34,20.85,26.53,0,18.44-17.59,29.79-38.44,29.79C115.74,255.94,102.12,247.43,93.75,237.64Z"/><path class="b" d="M179.59,240.19l9.79-12.91c7.37,7,15.6,11.64,27,11.64,12.06,0,21.57-6.67,21.57-19.3,0-12.34-9.51-19-21.28-19a34.78,34.78,0,0,0-20.43,5.82l-9.51-6,2.84-51.78h65v17.59h-47L205.69,189a38.27,38.27,0,0,1,16.88-3.41c19.16,0,36.18,10.5,36.18,33.63,0,23.83-18.73,36.74-40,36.74C200.87,255.94,189.09,249.42,179.59,240.19Z"/><path class="b" d="M190.09,285.62H179.83V292h-3.69v-6.42h-13.5V282.2h4.74v-7.86h8.76v-3.6h-6.42a27,27,0,0,1-4.08,5.46,27.61,27.61,0,0,0-3.09-2.31,23.14,23.14,0,0,0,6.3-10l3.63.93a19.15,19.15,0,0,1-1,2.46h16.95v3.45h-8.61v3.6h7.92v3.3h-7.92v4.56h10.26Zm-14-3.42v-4.56H171v4.56Z"/><text/><text/></svg>