<svg xmlns="http://www.w3.org/2000/svg" viewBox="0 0 186.8 35.4"><defs><style>.cls-1{fill:#a3241d;}</style></defs><title>アセット 9</title><g id="レイヤー_2" data-name="レイヤー 2"><g id="レイヤー_1-2" data-name="レイヤー 1"><path class="cls-1" d="M38.1,32.65H0l3.35-9.1L5.2,26H38.05ZM33.8,8.9,4.4,9,7.7.25,9.5,2.7H33.8Z"/><path class="cls-1" d="M83.7,35.4H55.5l2-5.65,1.3,1.7H70a113.37,113.37,0,0,0,2.8-13l-12.65.05,1.9-5.4,1.25,1.6h10l.1-1.5,3.85,1.4a17.72,17.72,0,0,1,.35,3.65c0,4.5-1.9,10.1-5.35,13.2h11.4Z"/><path class="cls-1" d="M138.35,20.85H100.1l3.55-9.8,2.25,3h32.45Z"/><path class="cls-1" d="M184.05,34.65l-10.3-9.35A27.26,27.26,0,0,1,154,34.7c-.7,0-1.45-.05-2.15-.1,2.8-1.9,14-9.5,15.9-12.3,2.4-3.4,4.35-10.2,5.45-14.3l-20,.05L156,0l1.85,2.4H174.7l.5-2.3,6,2.55c-.6,6.5-2.85,16.35-6.8,21.8a14.3,14.3,0,0,1,11.35,3.6,3.44,3.44,0,0,1,1.05,2.45C186.8,32.25,185.4,33.7,184.05,34.65Z"/></g></g></svg>