<svg id="uuid-0ac1d075-299e-4cf8-be76-3ac88972b168" xmlns="http://www.w3.org/2000/svg" viewBox="0 0 137 98.54"><defs><style>.uuid-a45de6d0-349e-4a31-a93f-0ed30cf6fc0e{fill:#bababa;}.uuid-7b51bc76-fcbb-4170-8613-bcf696180388{fill:#fff;}</style></defs><path id="uuid-0322f8ee-d63a-48ec-be3e-44ecb7d7edae" class="uuid-a45de6d0-349e-4a31-a93f-0ed30cf6fc0e" d="m133,90.54H4V9.54l32,28L68,6l33,31.54,32-28v81Z"/><path class="uuid-7b51bc76-fcbb-4170-8613-bcf696180388" d="m55.78,78.86c10.39-9.91,17.23-16.7,17.23-22.46,0-3.93-2.15-6.3-5.98-6.3-2.91,0-5.28,1.94-7.32,4.15l-4.31-4.31c3.66-3.93,7.22-6.09,12.66-6.09,7.54,0,12.55,4.79,12.55,12.12,0,6.79-6.25,13.79-13.36,21.22,1.99-.22,4.63-.43,6.52-.43h8.72v6.68h-26.71v-4.58Z"/><circle id="uuid-275368da-2f6b-48bc-a14d-1c768b270477" class="uuid-a45de6d0-349e-4a31-a93f-0ed30cf6fc0e" cx="4.5" cy="10.04" r="4.5"/><circle id="uuid-15c876e0-ac78-4608-9564-b4cf52ff106a" class="uuid-a45de6d0-349e-4a31-a93f-0ed30cf6fc0e" cx="68" cy="4.5" r="4.5"/><circle id="uuid-ad9fb429-aedb-447f-8719-592260fa3a6e" class="uuid-a45de6d0-349e-4a31-a93f-0ed30cf6fc0e" cx="132.5" cy="10.04" r="4.5"/><ellipse id="uuid-f18e7460-1d42-4352-aa67-a39b87e815b1" class="uuid-a45de6d0-349e-4a31-a93f-0ed30cf6fc0e" cx="68.5" cy="90.04" rx="64.5" ry="8.5"/></svg>