<svg xmlns="http://www.w3.org/2000/svg" viewBox="0 0 137 98.54"><defs><style>.a{fill:#f8c900;}.b{fill:#fff;}</style></defs><title>アセット 54</title><polygon class="a" points="133 90.54 4 90.54 4 9.54 36 37.54 68 6 101 37.54 133 9.54 133 90.54"/><path class="b" d="M34.41,54.38c0,.32,0,.72-.06,1.14.16,2.76,1.16,11.39,8.62,14.89a7.82,7.82,0,0,0-1.84,2c-4.52-2.24-6.76-6.36-7.88-10.05a17.07,17.07,0,0,1-7.4,10.05,8.33,8.33,0,0,0-2-1.9c8-4.42,7.7-13.51,7.84-16.15Z"/><path class="b" d="M59.35,61.68c0,4.81.22,8.59,1.38,8.59.3,0,.38-1.06.42-2.68a9.63,9.63,0,0,0,1.54,1.48c-.18,2.5-.6,3.56-2.14,3.56-2.92,0-3.5-3.82-3.62-8.95H46.21V62l-.18.16a19.6,19.6,0,0,0-2.16-1.5,13.14,13.14,0,0,0,4.26-6.84l2.48.52c-.16.5-.32,1-.5,1.48H61.93v2H49.23c-.16.32-.34.64-.52.94h11.4v1.92H48.57V59a15.91,15.91,0,0,1-2,2.68Zm-4,2.86a17.78,17.78,0,0,1-2.12,3.11,22.89,22.89,0,0,1,3.16,2.54L54.49,72a22.9,22.9,0,0,0-3-2.58,22.28,22.28,0,0,1-5.2,3.52,15.51,15.51,0,0,0-1.78-1.86,17.7,17.7,0,0,0,5.06-3c-1.14-.76-2.3-1.47-3.36-2.06L48,64.42c1,.54,2.2,1.23,3.34,2a13.08,13.08,0,0,0,1.76-2.58Z"/><path class="b" d="M68.84,55.71H72L76.52,64l1.56,3.36h.1c-.17-1.62-.4-3.67-.4-5.44V55.71h2.94V71.25H77.57l-4.49-8.32L71.5,59.59h-.1c.15,1.68.38,3.64.38,5.42v6.24H68.84Z"/><path class="b" d="M83.58,65.39c0-3.93,2.71-6.2,5.65-6.2s5.65,2.27,5.65,6.2-2.71,6.15-5.65,6.15S83.58,69.27,83.58,65.39Zm8.15,0c0-2.23-.91-3.68-2.5-3.68s-2.5,1.45-2.5,3.68.9,3.63,2.5,3.63S91.73,67.59,91.73,65.39Z"/><path class="b" d="M97.29,69.52a1.92,1.92,0,1,1,1.91,2A1.93,1.93,0,0,1,97.29,69.52Z"/><path class="b" d="M104.35,68.75h3.34V58.92h-2.82V57a9.88,9.88,0,0,0,3.61-1.3h2.29v13h2.92v2.5h-9.34Z"/><circle class="a" cx="4.5" cy="10.04" r="4.5"/><circle class="a" cx="68" cy="4.5" r="4.5"/><circle class="a" cx="132.5" cy="10.04" r="4.5"/><ellipse class="a" cx="68.5" cy="90.04" rx="64.5" ry="8.5"/></svg>