<svg xmlns="http://www.w3.org/2000/svg" viewBox="0 0 187.9 40.65"><defs><style>.cls-1{fill:#a3241d;}</style></defs><title>アセット 10</title><g id="レイヤー_2" data-name="レイヤー 2"><g id="レイヤー_1-2" data-name="レイヤー 1"><path class="cls-1" d="M38.85,18.6h-7v7.85c0,11.55-9.4,12.25-18.2,14.2,4.3-3.3,12.2-8.35,12.2-14.4V18.6H15.25V29.75H9.4V18.6H0l2.65-7.45,1.7,2.3H9.4V4.8l5.85,3.4v5.25H25.8V3.5L31.8,6v7.5h7.05Z"/><path class="cls-1" d="M89.45,25.35H51.2l3.55-9.8,2.25,3H89.45Z"/><path class="cls-1" d="M136.5,31.7l-.3,5.85a41.72,41.72,0,0,1-9.95,1c-10.7,0-19.2-2-19.2-14.45A192.68,192.68,0,0,1,108.3,4L114,5.45c0,8,.1,15.9.1,23.85,0,1.75,1.15,2.4,2.75,2.4ZM135,13.55c-2.9,4.05-8.75,4.9-13.4,4.9a36,36,0,0,1-6.95-.65L131.9,10ZM133.5,8.3l-6.4-4.85a10.31,10.31,0,0,1,3.25-.55c1.9,0,4.45.7,4.45,3.05A3.22,3.22,0,0,1,133.5,8.3Zm6.2-2.75-6.65-5a11.25,11.25,0,0,1,3.4-.55c2,0,4.6.7,4.6,3.1A3.39,3.39,0,0,1,139.7,5.55Z"/><path class="cls-1" d="M185.15,39.15l-10.3-9.35a27.26,27.26,0,0,1-19.75,9.4c-.7,0-1.45-.05-2.15-.1,2.8-1.9,14-9.5,15.9-12.3,2.4-3.4,4.35-10.2,5.45-14.3l-20.05.05,2.85-8L159,6.9H175.8l.5-2.3,6,2.55c-.6,6.5-2.85,16.35-6.8,21.8a14.3,14.3,0,0,1,11.35,3.6A3.44,3.44,0,0,1,187.9,35C187.9,36.75,186.5,38.2,185.15,39.15Z"/></g></g></svg>