<svg xmlns="http://www.w3.org/2000/svg" width="69.7" height="78.36" viewBox="0 0 69.7 78.36"><defs><style>.cls-1{fill:#fff}.cls-2{fill:#42210b}</style></defs><title>n6</title><g id="レイヤー_2" data-name="レイヤー 2"><g id="content"><path class="cls-1" d="M69.7 65.45L56.93 78.36H17L4 65.54V17L17 4h39.75l13 12.91v10.45H54.56v-3.91L50 18.82H23.8l-4.56 4.63v8.91h37.87L69.7 44zm-15.14-6.72v-8.19l-4.2-4.18H19.24v12.37l4.56 4.54H50z"/><path class="cls-2" d="M65.7 61.45L52.93 74.36H13L0 61.54V13L13 0h39.75l13 12.91v10.45H50.56v-3.91L46 14.82H19.8l-4.56 4.63v8.91h37.87L65.7 40zm-15.14-6.72v-8.19l-4.2-4.18H15.24v12.37l4.56 4.54H46z"/></g></g></svg>