<svg xmlns="http://www.w3.org/2000/svg" width="49.7" height="50.51" viewBox="0 0 49.7 50.51"><defs><style>.cls-1{fill:#fff}.cls-2{fill:#42210b}</style></defs><title>text_ko</title><g id="レイヤー_2" data-name="レイヤー 2"><g id="content"><path class="cls-1" d="M16.59 5.09l-4 21.57h2.51v23.85H7.57V31.2L4 30.51 8.86 4zM49.7 49.92H18.08V4.79H49.7zm-6.65-6.77V11.6H24.82v31.55zm-1.93-21h-4.31v3.45h4V41H27.15V25.62H31v-3.45h-4.2v-6H31v-3h5.85v3h4.31zm-4.95 13.5v-4.79H32v4.79z"/><path class="cls-2" d="M12.59 1.09l-4 21.57h2.51v23.85H3.57V27.2L0 26.51 4.86 0zM45.7 45.92H14.08V.79H45.7zm-6.65-6.77V7.6H20.82v31.55zm-1.93-21h-4.31v3.45h4V37H23.15V21.62H27v-3.45h-4.2v-6H27v-3h5.85v3h4.31zm-4.95 13.5v-4.79H28v4.79z"/></g></g></svg>