<svg xmlns="http://www.w3.org/2000/svg" width="286.8" height="58.26" viewBox="0 0 286.8 58.26"><defs><style>.cls-1{fill:#fff;}.cls-2{fill:#42210b;}</style></defs><title>title_6</title><g id="レイヤー_2" data-name="レイヤー 2"><g id="txt"><path class="cls-1" d="M54.56,56.31H28.72V43.09H19.13l3.56,4.47L8.21,58.26,2.7,51,14,43.09H4.42V3.9h46V43.09H38v4.64h16.6ZM41.07,15.17v-3.6H13.79v3.6Zm0,10.13V21.64H13.79V25.3Zm0,10.18V31.77H13.79v3.71Z"/><path class="cls-1" d="M80,27.42H72.19V10.48H54.73V3.84H80ZM70.13,26,57.78,30.22l-1.9-5.49,12.29-4.18Zm-1-11.84-.8,5.49L56.4,18l1-5.55Zm36.53,42.05H58.07V33H73.8l1.61-4.52,7.93,2L82.53,33h23.09ZM96.26,42V39H67.37v3Zm0,8.35v-3H67.37v3Zm11.31-21.4H99.71V10.48H82.3V3.84h25.27ZM97.75,26l-12.4,4.18-1.84-5.49L95.8,20.55Zm-1-11.84-.92,5.49L84,18l1-5.55Z"/><path class="cls-1" d="M134.42,55.91H120.64L111.79,47V7.39h9.71V43l3.56,3.55h9.36Zm25.39-5H150.1V20.67L146.54,17H137.7V7.56h13.21l8.9,9Z"/><path class="cls-1" d="M219.34,32.85l-3.45,6.81,2.81,16.65-6.6,1.2-1.27-7.78L208,55.22l-5.17-2.74v4h-17V30.28h17V50.59l6.09-12L207,27.53H182.41V56.88h-6.55V53.34L164,55.28l-1.21-7.67,2.35-.45V11.91h-1.55V4.36h20.11v7.55h-1.32v8.76h4.53V12.83h-1.72V6.08h5.28v-3h7.07v3h5.05v6.75H201v7.84h4.94L203.08,3.9l6.49-1.2,3.05,18h5.22v6.86h-4l.4,2.58Zm-43.48-14.3V11.91h-4.14v6.64Zm0,13.62V25.93h-4.14v6.24Zm0,13.33v-6h-4.14v6.64Zm20.73-5.09V36.29h-4.48v4.12Zm0,10.06V46.3h-4.48v4.17Zm-1-29.8V12.83h-3.39v7.84Zm22.39-5-4.59.63L211.93,4.87l4.65-.51Z"/><path class="cls-1" d="M255.07,7.45,229.51,56.71l-9-4.63L245.88,2.93ZM272.64,51.1l-8.33,5.78L243.69,29.59l8.05-5.72Z"/><path class="cls-1" d="M286.8,40.46H276.35V2.87H286.8Zm0,14.71H276.41V46H286.8Z"/><path class="cls-2" d="M51.86,53.61H26V40.39H16.43L20,44.86,5.51,55.56,0,48.29l11.26-7.9H1.72V1.2h46V40.39H35.26V45h16.6ZM38.37,12.47V8.87H11.08v3.6Zm0,10.13V18.94H11.08V22.6Zm0,10.18V29.07H11.08v3.71Z"/><path class="cls-2" d="M77.3,24.72H69.49V7.78H52V1.14H77.3Zm-9.87-1.38L55.08,27.52,53.18,22l12.29-4.18Zm-1-11.84L65.59,17,53.7,15.28l1-5.55Zm36.53,42.05H55.37V30.32H71.1l1.61-4.52,7.93,2-.81,2.51h23.09Zm-9.36-14.3v-3H64.67v3Zm0,8.35v-3H64.67v3Zm11.31-21.39H97V7.78H79.6V1.14h25.27Zm-9.82-2.87-12.4,4.18L80.81,22,93.1,17.85Zm-1-11.84L93.16,17,81.33,15.28l1-5.55Z"/><path class="cls-2" d="M131.72,53.21H117.94l-8.85-8.92V4.69h9.71V40.28l3.56,3.55h9.36Zm25.39-5H147.4V18l-3.56-3.67H135V4.86h13.21l8.9,9Z"/><path class="cls-2" d="M216.64,30.15,213.19,37,216,53.61l-6.6,1.2L208.13,47l-2.81,5.49-5.17-2.74v3.95h-17V27.58h17V47.89l6.09-12-1.9-11.1H179.71V54.18h-6.55V50.64l-11.83,1.94-1.21-7.67,2.35-.45V9.21h-1.55V1.66H181V9.21h-1.32V18h4.53V10.13h-1.72V3.38h5.28V.4h7.07v3h5v6.75h-1.66V18h4.94L200.38,1.2,206.87,0l3,18h5.22v6.86h-4l.4,2.58Zm-43.48-14.3V9.21H169v6.64Zm0,13.62V23.23H169v6.24Zm0,13.33v-6H169v6.64Zm20.73-5.09V33.59h-4.48v4.12Zm0,10.07V43.6h-4.48v4.18Zm-1-29.81V10.13h-3.39V18Zm22.39-5-4.59.63L209.23,2.17l4.65-.51Z"/><path class="cls-2" d="M252.37,4.75,226.81,54l-9-4.63L243.18.23ZM269.94,48.4l-8.33,5.78L241,26.89l8-5.72Z"/><path class="cls-2" d="M284.1,37.76H273.65V.17H284.1Zm0,14.71H273.71V43.31H284.1Z"/></g></g></svg>