<svg xmlns="http://www.w3.org/2000/svg" width="28.49" height="36.19" viewBox="0 0 28.49 36.19"><defs><style>.cls-1,.cls-4,.cls-5,.cls-7{fill:none}.cls-2{fill:#c9ac7a}.cls-3{fill:#7a5332}.cls-4,.cls-5{stroke:#7a5332}.cls-4,.cls-5,.cls-7{stroke-miterlimit:10}.cls-4,.cls-7{stroke-width:.43px}.cls-5{stroke-width:.44px}.cls-6{clip-path:url(#clip-path)}.cls-7{stroke:#aa8f68}</style><clipPath id="clip-path"><path class="cls-1" d="M4.93 1.91C2.11 4.12 0 9.88 0 17.61c0 6.74 1.6 12 3.88 14.68a3.1 3.1 0 0 0 1 1c1.78 1.14 5.28 1.91 9.31 1.91s7.52-.77 9.3-1.91a3.1 3.1 0 0 0 1-1c2.28-2.7 3.88-7.94 3.88-14.68 0-7.73-2-13.59-5.06-15.7"/></clipPath></defs><title>kask</title><g id="レイヤー_2" data-name="レイヤー 2"><g id="content"><ellipse cx="15.84" cy="32.57" rx="12.15" ry="3.62"/><path class="cls-2" d="M4.93 1.91C2.11 4.12 0 9.88 0 17.61c0 6.74 1.6 12 3.88 14.68a3.1 3.1 0 0 0 1 1c1.78 1.14 5.28 1.91 9.31 1.91s7.52-.77 9.3-1.91a3.1 3.1 0 0 0 1-1c2.28-2.7 3.88-7.94 3.88-14.68 0-7.73-2-13.59-5.06-15.7"/><path class="cls-3" d="M14.3.14l-4.07.23L5.48 1.8 3.67 3.46v1.42l.68.47.49-1.07 1.49-.84 2.84-.86 5.81-.67 5.79.96 2.39.98.86.86.23.64.46-.94V2.98l-3.62-1.9-4.53-.71L14.3.14z"/><path class="cls-4" d="M4.35 4.82c.72-1.3 4.91-2.76 10-2.76 4.87 0 8.94 1.38 9.88 2.61"/><ellipse class="cls-5" cx="14.25" cy="4.02" rx="10.55" ry="3.8"/><g class="cls-6"><path class="cls-7" d="M5.37 8.14S.75 21.53 6.78 34.45M20.3 9.35a38.48 38.48 0 0 1-1.76 25.85m5.75-28s4.42 14.45-2.1 27M11.05 7.26S7 21 11.14 35.2m3.99-27.96s3.51 15.13-.13 28.48"/></g><path class="cls-3" d="M25.81 4.72a1.66 1.66 0 0 1 0 .32c0 2.79-5.19 5.05-11.59 5.05S2.65 7.83 2.65 5a1.73 1.73 0 0 1 0-.32l1.11-1.59s1.72 4.06 8.9 4.11S24.48 5.92 24.71 3z"/></g></g></svg>