<svg xmlns="http://www.w3.org/2000/svg" width="69.06" height="78.36" viewBox="0 0 69.06 78.36"><defs><style>.cls-1{fill:#fff}.cls-2{fill:#42210b}</style></defs><title>n8</title><g id="レイヤー_2" data-name="レイヤー 2"><g id="content"><path class="cls-1" d="M69.06 66.45L57 78.36H16.32L4 66.54V47.09l6.57-6.18L4 34.73V16L16.32 4h40.52l12.22 11.91v18.73l-6.57 6.27 6.57 6.18zM53.83 30.36v-7.45l-4.2-4.09h-26.1l-4.29 4.09v7.54L23.07 34h27zm0 28.55v-7.46l-4.11-3.91H23.44l-4.2 3.91V59l4.65 4.36h25.37z"/><path class="cls-2" d="M65.06 62.45L53 74.36H12.32L0 62.54V43.09l6.57-6.18L0 30.73V12L12.32 0h40.52l12.22 11.91v18.73l-6.57 6.27 6.57 6.18zM49.83 26.36v-7.45l-4.2-4.09h-26.1l-4.29 4.09v7.54L19.07 30h27zm0 28.55v-7.46l-4.11-3.91H19.44l-4.2 3.91V55l4.65 4.36h25.37z"/></g></g></svg>