<svg xmlns="http://www.w3.org/2000/svg" xmlns:xlink="http://www.w3.org/1999/xlink" width="285.21" height="148.5" viewBox="0 0 285.21 148.5"><defs><style>.cls-1{fill:url(#名称未設定グラデーション_26);}.cls-2{fill:url(#名称未設定グラデーション_26-2);}</style><linearGradient id="名称未設定グラデーション_26" y1="47.65" x2="281.51" y2="47.65" gradientUnits="userSpaceOnUse"><stop offset="0" stop-color="#987f09"/><stop offset="0.66" stop-color="#c9ac7a"/><stop offset="0.87" stop-color="#987f09"/></linearGradient><linearGradient id="名称未設定グラデーション_26-2" x1="0.47" y1="123.37" x2="282.02" y2="123.37" xlink:href="#名称未設定グラデーション_26"/></defs><title>title_1</title><g id="レイヤー_2" data-name="レイヤー 2"><g id="txt"><path d="M32.3,6.16,21.18,48.81h6.35v47.8H11.84V58.51L2.7,55.94l13.91-53ZM97.37,94.63,83,97.8l-1.88-7.92L33.89,95.23,31.8,80l4.28-.5,8.44-25.33h-13V38.92H97.17V54.16h-36L53,77.81,77.4,75.14,74.32,62.57l14.8-3.17ZM89.72,24.47H39.06V9H89.72Zm47.54-2.28H98.92V8.74h11.92V3.49h15V8.74h11.42Zm-2,17.22H101.4V27.34h33.87Zm0,17.32H101.4v-12h33.87Zm0,38.6H101.4V62h33.87ZM122.86,83.55v-9.7h-9v9.7Zm39.93-13.36L150.67,98,138,92.36l12.12-27.61Zm29.6,25.23H166.17V62.17H140.54V17.05h6.55L143.72,5.27,157,2.7l4.07,14.35h10l4-14.35,13.41,2.57-3.38,11.78h5.56V62.17h-9.93v19h11.62ZM175.9,49.11V30.51H155.44v18.6ZM284.21,78.4,268.42,94.83H253V77.51h6.85L267.32,70V39.22L256.4,28.43h-9.84V79.79l-11.32,15H210.6L195.7,77.41V31.2l20.37-20.48h47.58L284.21,31.1Zm-53.64-6.82V28.43H223L212.19,39.22V69.69l6.06,7.72h7.85Z"/><path class="cls-1" d="M29.6,3.46,18.48,46.11h6.35v47.8H9.14V55.81L0,53.24,13.91.2ZM94.67,91.93,80.26,95.1l-1.88-7.92L31.19,92.53,29.1,77.29l4.28-.5,8.44-25.33h-13V36.22H94.47V51.46h-36L50.26,75.11,74.7,72.44,71.62,59.87l14.8-3.17ZM87,21.77H36.36V6.33H87Zm47.54-2.28H96.22V6h11.92V.79h15V6h11.42Zm-2,17.22H98.7V24.64h33.87Zm0,17.32H98.7v-12h33.87Zm0,38.6H98.7V59.28h33.87ZM120.16,80.85v-9.7h-9v9.7Zm39.93-13.36L148,95.3l-12.71-5.64,12.12-27.61Zm29.6,25.23H163.47V59.47H137.84V14.35h6.55L141,2.57,154.33,0l4.07,14.35h10l4-14.35,13.41,2.57-3.38,11.78H188V59.47h-9.93v19h11.62ZM173.2,46.41V27.81H152.74v18.6ZM281.51,75.7,265.72,92.13h-15.4V74.81h6.85l7.45-7.52V36.52L253.7,25.73h-9.84V77.09l-11.32,15H207.9L193,74.71V28.5L213.37,8H261L281.51,28.4Zm-53.64-6.82V25.73h-7.55L209.49,36.52V67l6.06,7.72h7.85Z"/><path d="M47.05,131.62H43.43V133L30.55,148.35H8.45v-8.69H26.78l6.74-8H15.63v-7.9H34.76v-7.9H18.06L11,125.05H3.05v-8.68H7l6.94-9.24H43.43v16.59h3.62Z"/><path d="M61.48,126.39l-4.71,22H48.25L53,126.24v-19.4h8.48Zm31.31-2.08-5.65,24H67.22V106.84H75.7V140.6h5l3.72-16.29Z"/><path d="M135,126.68l-18.68,12.54,5.2,9.13h-10L99,125.45h9.46l3.82,6.66,14-9.62v-6.67H92v-8.69h43Z"/><path d="M182.6,148.35H172.05l-10.56-12.14L150,148.35h-11v-8.64H146l22.2-22.6v-1.58h-29v-8.4h39v11.51l-11,11.6Z"/><path d="M227,131.62h-3.62V133l-12.89,15.35H188.38v-8.69h18.33l6.74-8H195.56v-7.9h19.13v-7.9H198l-7.09,9.23H183v-8.68h3.92l6.94-9.24h29.53v16.59H227Z"/><path d="M271.23,132.16H231.59v-8.93h39.64Z"/><path d="M285.21,135.81h-9V103.38h9Zm0,12.69h-9v-7.9h9Z"/><path class="cls-2" d="M44.47,129H40.86v1.39L28,145.78H5.87v-8.69H24.21L31,129H13.06v-7.89H32.19v-7.9H15.49L8.4,122.48H.47v-8.69H4.39l6.94-9.23H40.86v16.59h3.61Zm14.33-5.23-4.71,22H45.57l4.75-22.12v-19.4H58.8Zm31.31-2.07-5.65,24H64.54V104.26H73V138h5l3.72-16.29Zm42.13,2.37-18.69,12.54,5.21,9.13h-10L96.21,122.87h9.47l3.81,6.67,14-9.63v-6.66H89.23v-8.69h43Zm47.46,21.67H169.15l-10.56-12.15-11.54,12.15H136v-8.64h7.13l22.2-22.61V113h-29v-8.39h39v11.5l-11,11.6ZM224,129h-3.61v1.39l-12.89,15.35h-22.1v-8.69h18.34l6.74-8.05H192.56v-7.89h19.13v-7.9H195l-7.09,9.23H180v-8.69h3.92l6.94-9.23h29.53v16.59H224Zm44.17.55H228.49v-8.94h39.65ZM282,133.24h-9V100.81h9Zm0,12.69h-9V138h9Z"/></g></g></svg>