<svg xmlns="http://www.w3.org/2000/svg" viewBox="0 0 293.3 110.79">
  <defs>
  </defs>
  <title>アセット 8</title>
  <g id="レイヤー_2" data-name="レイヤー 2">
    <g id="content">
      <polygon class="cls-1 shadow" points="284.3 0 293.3 8 293.3 86 284.3 78 284.3 0" />
      <polygon class="cls-2 shadow" points="0 102.79 9 110.79 293.3 86 284.3 78 0 102.79" />
      <polygon class="cls-3" points="284.3 0 0 24.79 0 102.79 284.3 78 284.3 0" />
      <path d="M58.63,47,41.1,69.81l-4.08-3,6.51-8.24L40.71,56.8l2.82-3.57L46.35,55l3.72-4.7L44,50.87l-4.05,4.27-3.32-3L45,43.21l3.69,2.43,5.48-.48.63-.85Zm10.73,9.38-6.91,9.84L66.77,69l-2.92,4-4.19-2.82-3.42,4.84-4.05-2.8,3.46-4.85-2-1.32,2.92-3.68,1.76,1.18,2.92-4.08-4.88.43-4.81,5.9L48,63.23,58,50.94l3.79,2.52-1,1.26L65,54.34l.4-.6Z" />
      <path d="M96,70.33l-9.23.81-17.2-8.86v-8l17.2-12.07L96,41.37v5.68l-7.37.65L75,57.22v1.06l13.74,7L96,64.65Z" />
      <path d="M128.11,44.4l-12.85,1.13v3.12l8.27-.72,1.09-.83,2.73,4.34L116.46,59.8l9.89,4.25L123.63,69l-12.19-5.31L102,70.86l-3.22-4.33,7.07-5.3-4.11-1.8,2.36-4.89-5.85.51V50.14l11.32-1V46L96.73,47.15V42.2l12.85-1.12V38.49l5.68-.5v2.59l12.85-1.12Zm-12,9.09-11.85,1,6.64,2.9Z" />
      <path d="M141.45,56.15,137,57.94v9.43l-5.44.47V60.11l-3,1.19-1.46-4.69,4.45-1.78V46.59l-3.85.34V42.08l3.85-.33V36.53l5.44-.47v5.21l3.62-.32V45.8l-3.62.32v6.54l3-1.19Zm17.7,8.45-5.28,1.09-.36-2.46-12.85,3.19-.7-5.16,1.43-.35,4.15-25.57,5.51.32-3.89,23.81,5.62-1.39-1.37-9.44,5.28-1.09Z" />
      <path d="M187.61,56.4l-5.94,6.43-21,1.83V59.12l18.3-1.6,2.75-3V50.6L179,48.06l-21,1.84V44.29l23.64-2.07,6,5.58Zm-4.85-17.08-22,1.93V35.71l22-1.93Z" />
      <path d="M207.09,32.48,192.31,62.36l-5.21-2.23,14.68-29.81Zm10.16,24.45-4.82,3.77L200.51,45.91l4.65-3.73Z" />
      <polygon points="256.08 31.41 266.19 40.63 256.08 51.62 256.08 31.41" />
    </g>
  </g>
</svg>
