<svg xmlns="http://www.w3.org/2000/svg" viewBox="0 0 293.3 110.79">
  <defs>
  </defs>
  <title>アセット 10</title>
  <g id="レイヤー_2" data-name="レイヤー 2">
    <g id="content">
      <polygon class="cls-1 shadow" points="284.3 0 293.3 8 293.3 86 284.3 78 284.3 0" />
      <polygon class="cls-2 shadow" points="0 102.79 9 110.79 293.3 86 284.3 78 0 102.79" />
      <polygon class="cls-3" points="284.3 0 0 24.79 0 102.79 284.3 78 284.3 0" />
      <path d="M75.24,65.9l-1.9,6.41-5-1.09,2-6.32ZM100.1,53.27l-2.52.22V58l1.66-.15v4.22L69.59,64.7V60.49l1.66-.15V55.79L68.83,56V51.69l2.42-.21V49.65l-2.89-1.14,4.09-8.79,4.84,1.33-.49,1.11,22.44-2v4.31l-1.66.15v4.51L100.1,49ZM78.46,50.85V46.33L76,46.55v4.51Zm0,8.86V55.16L76,55.38v4.55ZM83.2,70.59l-5.11,1.14-1-6.09,5-1.13Zm2.43-20.37V45.7l-2.43.22v4.51Zm0,8.86V54.54l-2.43.21V59.3Zm5.84,10.58-5,1.41-1.29-6,5.05-1.34Zm1.36-20.07V45.07l-2.45.22V49.8Zm0,8.86V53.9l-2.45.22v4.55Zm6.91,10.32-5,1.44-1.5-5.92,5.08-1.4Z" />
      <path d="M115.46,59.16l-3.32,3-2.26-2.76v8.86l-5,.44v-7.3l-2,3.79-3.92-2.38L104.27,53l-4.62.41V48.56l5.21-.46V37.51l5-.44v10.6l4.81-.43v4.85l-4.81.42V55.8l1.56-1.36ZM104.4,46.48l-3.72.93-1.29-7.72,3.68-1Zm11.09-8.2-1.33,7.95L110.48,46l1.32-8Zm16.07,19.31-3.12,1.3v7.77l-5,.44V61L117,63.58l-1.3-4.94,7.67-3.16V35.89l5-.44v18l1.86-.76ZM123.09,50,121,54l-5.18-2.44,2.16-4Zm.1-8.41-2.09,4-5.21-2.43,2.16-4Z" />
      <path d="M142.34,56.48l-5.24.46V35.69l5.24-.46Zm0,8.43-5.25.46V60.16l5.25-.46Z" />
      <path d="M178.25,56.23l-5.28,6-5.15.45V56.84l2.29-.2,2.5-2.74V43.57L169,40.27l-3.28.29V57.79l-3.79,5.38-8.23.72-5-5.41V43l6.8-7.47,15.91-1.39,6.87,6.24Zm-17.93-.73V41l-2.52.22-3.62,3.93V55.41l2,2.41,2.63-.23Z" />
      <path d="M197.81,31.9,183,61.78l-5.22-2.23,14.68-29.8ZM208,56.35l-4.81,3.77L191.24,45.33l4.65-3.73Z" />
      <polygon points="256.08 31.41 266.19 40.63 256.08 51.62 256.08 31.41" />
    </g>
  </g>
</svg>
