<svg xmlns="http://www.w3.org/2000/svg" viewBox="0 0 243.97 86.49">
  <defs>
  </defs>
  <title>アセット 12</title>
  <g id="レイヤー_2" data-name="レイヤー 2">
    <g id="content">
      <polygon class="cls-1 shadow" points="234.97 0 243.97 8 243.97 66 234.97 58 234.97 0" />
      <polygon class="cls-2 shadow" points="0 78.49 9 86.49 243.97 66 234.97 58 0 78.49" />
      <polygon class="cls-3" points="234.97 0 0 20.49 0 78.49 234.97 58 234.97 0" />
      <path d="M76.19,53.47,71,59.2,53.55,60.72,48.32,56V51.16l6.19-.54v1.89l1.86,1.69,11.76-1,1.86-2v-2.3L68.06,47,53.51,48.26l-5.19-4.48V36.09l5.23-5.8L71,28.77l5.24,4.89v4.45l-6.35.55V37L68,35.26l-11.65,1-1.82,2.06v2.33l1.86,1.62L70.88,41l5.31,4.77Z" />
      <path d="M106.28,32.28l-10.17.89V57l-6.49.57V33.74l-10.17.89V28.1l26.83-2.35Z" />
      <path d="M137.18,47.25l-6.05,6.68-15.29,1.34-6.12-5.58V31.58l6.09-6.66,15.32-1.34,6.05,5.56Zm-6.34-2.42V32.66l-2.64-2.44-9.46.83L116.07,34V46.16l2.74,2.51,9.35-.82Z" />
      <path d="M167.6,35.68l-6,6.5L148,43.37v9.09l-6.38.56V22.66l19.93-1.74,6,5.48Zm-6.38-2.38V29.74l-2.64-2.37L148,28.3v8.76l10.58-.93Z" />
      <path d="M178.71,41.76l-6.75.59V18l6.75-.59Zm0,9.53-6.72.59V45.94l6.72-.58Z" />
    </g>
  </g>
</svg>
