<svg xmlns="http://www.w3.org/2000/svg" viewBox="0 0 293.3 110.79">
  <defs>
    <style>
    </style>
  </defs>
  <title>アセット 9</title>
  <g id="レイヤー_2" data-name="レイヤー 2">
    <g id="content">
      <polygon class="cls-1 shadow" points="284.3 0 293.3 8 293.3 86 284.3 78 284.3 0" />
      <polygon class="cls-2 shadow" points="0 102.79 9 110.79 293.3 86 284.3 78 0 102.79" />
      <polygon class="cls-3" points="284.3 0 0 24.79 0 102.79 284.3 78 284.3 0" />
      <path d="M37.55,49.69,33.33,64.43l-5.68-1.1,4.29-14.68ZM59.83,61l-5.61,2.29-.6-1.71L36.75,76.62l-4-4.07L45.52,61.27l-5.28.46v-17l6.41-.56v16.1l3.91-3.53,2.16,2-3.35-9.94L55,46.7Z" />
      <path d="M78,50.16l-11.35,1L65.1,72l-5.58.49,1.4-20.87-2.09.18V46.43l2.45-.22.17-2.57,5.74-.5L67,45.71l11-1Zm10.56,11.6L86.12,62v5.88L82.3,71.73l-10.23.9-4-3.77V62.68l4-4.63,8.4-.73V54.7l5.65-.5v2.62l2.42-.21Zm-8.07,3.73v-3l-5.64.5L73.57,64.3v1.86l1.26,1.08,4.35-.38Zm8.24-13.31-5.35.47V50.29L82,49l-1.73.15V43.56l4.19-.37,4.28,4Z" />
      <path d="M116,68.79l-9.23.81-17.2-8.86v-8l17.2-12.07,9.23-.8v5.67l-7.37.65L95,55.68v1.06l13.75,7,7.2-.63Z" />
      <path d="M148.12,42.87,135.27,44v3.12l8.27-.72,1.1-.83,2.72,4.35-10.89,8.35,9.89,4.25-2.72,4.92-12.19-5.31L122,69.32,118.8,65l7.08-5.3-4.12-1.8L124.12,53l-5.85.51V48.6l11.33-1V44.49l-12.85,1.12v-5l12.85-1.12V37l5.67-.5V39l12.85-1.12Zm-12,9.08-11.86,1,6.64,2.9Z" />
      <path d="M161.47,54.61,157,56.4v9.43l-5.45.47V58.57l-3,1.19-1.46-4.69,4.45-1.78V45.05l-3.85.34V40.54l3.85-.33V35l5.45-.47v5.21l3.61-.32v4.85l-3.61.32v6.54l3-1.19Zm17.69,8.45-5.28,1.09-.36-2.46-12.85,3.19-.7-5.15,1.43-.36,4.15-25.57,5.51.32-3.88,23.81,5.61-1.38-1.36-9.45L176.71,46Z" />
      <path d="M207.62,54.86l-5.94,6.43-21,1.84V57.58L199,56l2.76-3V49.07L199,46.52l-21.05,1.84V42.75l23.64-2.07,6,5.58Zm-4.85-17.07-22,1.92V34.17l22-1.93Z" />
      <path d="M227.1,30.94,212.32,60.82l-5.21-2.23,14.68-29.81Zm10.16,24.45-4.81,3.77L220.53,44.37l4.64-3.73Z" />
      <polygon points="256.08 31.41 266.19 40.63 256.08 51.62 256.08 31.41" />
    </g>
  </g>
</svg>
