<svg xmlns="http://www.w3.org/2000/svg" viewBox="0 0 27.54 27.54"><defs><style>.line_menu_svg1{fill:#00c300;}.line_menu_svg2{fill:#fff;}</style></defs><title>アセット 29</title><g id="レイヤー_2" data-name="レイヤー 2"><g id="content"><rect class="line_menu_svg1" x="0.01" y="0.01" width="27.52" height="27.51" rx="4.99" transform="translate(-0.02 27.52) rotate(-89.92)"/><path class="line_menu_svg2" d="M23.8,12.56c0-4.49-4.5-8.14-10-8.14s-10,3.65-10,8.14c0,4,3.56,7.39,8.38,8,.33.07.77.21.89.49a2.15,2.15,0,0,1,0,.91s-.12.71-.15.86-.2,1,.87.54a32.31,32.31,0,0,0,7.88-5.82h0A7.28,7.28,0,0,0,23.8,12.56ZM9.85,15.23h-2a.53.53,0,0,1-.53-.53v-4a.53.53,0,0,1,.53-.53.52.52,0,0,1,.52.53v3.46H9.85a.52.52,0,0,1,.52.52A.52.52,0,0,1,9.85,15.23Zm2.06-.53a.53.53,0,0,1-.53.53.52.52,0,0,1-.52-.53v-4a.52.52,0,0,1,.52-.53.53.53,0,0,1,.53.53Zm4.79,0a.52.52,0,0,1-.35.5.51.51,0,0,1-.17,0,.53.53,0,0,1-.42-.21l-2-2.78V14.7a.53.53,0,0,1-.53.53.52.52,0,0,1-.52-.53v-4a.52.52,0,0,1,.35-.5.51.51,0,0,1,.17,0,.53.53,0,0,1,.42.21l2,2.78V10.72a.53.53,0,0,1,.53-.53.52.52,0,0,1,.52.53Zm3.23-2.52a.53.53,0,0,1,0,1.06H18.46v.94h1.47a.52.52,0,0,1,.52.52.52.52,0,0,1-.52.53h-2a.53.53,0,0,1-.53-.53v-2h0v-2h0a.53.53,0,0,1,.53-.53h2a.52.52,0,0,1,.52.53.52.52,0,0,1-.52.52H18.46v.94Z"/></g></g></svg>