<svg xmlns="http://www.w3.org/2000/svg" viewBox="0 0 412.38 504.15"><defs><style>.btn2_svg1{fill:#dd6b1d;}.btn2_svg2{fill:#c45f1a;}.btn2_svg3{fill:#f97c1e;}</style></defs><title>アセット 12</title><g id="レイヤー_2" data-name="レイヤー 2"><g id="content"><polygon class="btn2_svg1" points="157.5 0 412.38 254.88 412.38 332.88 157.5 78 157.5 0"/><polygon class="btn2_svg2" points="0 91.78 412.38 504.15 412.38 332.88 157.5 78 0 91.78"/><polygon class="btn2_svg3" points="157.5 0 0 13.78 0 91.78 157.5 78 157.5 0"/><path d="M41.54,30.53l-3.67.32V29l-9.36.82v1.88L24.78,32V26.75l5.91-.52V25.17l5-.43V25.8l5.85-.52Zm0,12.36L24.84,44.35V41.23l6-.52V39.53L26,40V36.83l4.82-.42V35.22L26,35.65V32.52l4.82-.42V30.77l4.73-.42v1.34l4.82-.42v3.12l-4.82.42V36l4.82-.42v3.12l-4.82.42v1.18l6-.52Zm-.91,9.57-14.85,1.3v-8.4l14.85-1.3Zm-4.43-2.83V47.69l-6,.53v1.94Zm10.55-4.4-4.06.35v-20l4.06-.36Zm5.82,6.52-7.88.69V47.77l3.64-.32V23.63l4.24-.37Z"/><path d="M62.1,42.37,57,42.81V24.42L62.1,24Zm18.64,1-5.31,5.83L66.16,50V45l6.58-.57,2.84-3.13V22.79l5.16-.45Z"/><path d="M100.68,38l-3.42.3v1.79l2.76-.24v2.48l-5.43.48V38.55l-2.39.21,1.81,1-2.42,4.43L89.47,43l2.27-4.17-2.27.2-.06.07v5.69l10.7-.93v3.63L85.65,48.73v-9.4l-1.06.1V35.61l1.61-.14v-9.7l-1.43.13V22.11L86.2,22V20.32L90.32,20v1.66L95,21.21V19.54l4.13-.36v1.67l1.39-.12v3.78l-1.39.13v9.69l1.51-.13ZM95,26.33V25l-4.72.41v1.33Zm0,4.21V29.12l-4.72.41V31Zm0,4.15V33.27l-4.72.41v1.43Zm17.37,11.82-5.79.51V42.68l1.91-.16V26.18l-1.82.16-2,20.84-3.88,0,1.91-20.47-1.85.16v-4l2.28-.2.36-4,3.91.05-.33,3.57,5.3-.46Z"/><path d="M120.88,37.07l-5.52.48V17.64l5.52-.48Zm0,7.79-5.49.48V40.49l5.49-.48Z"/><path d="M42.31,67.77,36.67,75l-12.6,1.1V72.28l10.84-1,3.58-4.57V60.42l3.82-.34Zm-9.57-6.28-8.63.75V58.61l8.63-.75Zm0,6-8.63.75V64.57l8.63-.76Zm6.4-8.38-2.62.23v-3.5l2.62-.23Zm4-.35L40.47,59V55.47l2.63-.23Z"/><path d="M62.35,72.75l-4,.35L57.74,71l-4,2.53-10.63.93V70.59l5.33-14.88,4.08-.36L47.15,70.24l6.12-.54,3.54-2.13-1.19-4.39,3.86-.34Z"/><path d="M82,56.44l-2.24.2v3.41L67.64,61.11v7.36l13.92-1.22v3.82L63.82,72.62V54.36L67.64,54v3.22l7.06-.62V52.5l3-.27v4.13L79,56.25V52.12l3-.26Z"/><path d="M100.1,62.33,82.73,63.85V59.92L100.1,58.4Z"/><path d="M120.92,67.63l-4,.35-.59-2.12-4,2.53-10.62.92V65.47L107,50.58l4.09-.35-5.35,14.88,6.13-.53,3.54-2.14-1.2-4.39,3.87-.33Z"/><polygon points="137.94 30.47 148.06 39.69 137.94 50.69 137.94 30.47"/></g></g></svg>