<svg xmlns="http://www.w3.org/2000/svg" viewBox="0 0 412.38 504.15"><defs><style>.btn4_svg1{fill:#aeb204;}.btn4_svg2{fill:#959904;}.btn4_svg3{fill:#bfce02;}</style></defs><title>アセット 15</title><g id="レイヤー_2" data-name="レイヤー 2"><g id="content"><polygon class="btn4_svg1" points="157.5 0 412.38 254.88 412.38 332.88 157.5 78 157.5 0"/><polygon class="btn4_svg2" points="0 91.78 412.38 504.15 412.38 332.88 157.5 78 0 91.78"/><polygon class="btn4_svg3" points="157.5 0 0 13.78 0 91.78 157.5 78 157.5 0"/><path d="M32.61,34.77l-3.94,5-8.78.76V37.91l7.55-.66,2.5-3.19V29.64l2.67-.23Zm-6.68-4.38-6,.52V28.39l6-.53Zm0,4.16-6,.53V32.53l6-.52Zm4.47-5.84-1.83.16V26.43l1.83-.16Zm2.75-.24-1.83.16V26.19L33.15,26Z"/><path d="M47.08,38.2l-2.8.24L43.88,37l-2.82,1.76-7.4.65V36.69l3.71-10.37,2.84-.25L36.49,36.44l4.27-.37,2.46-1.49-.83-3.06,2.7-.23Z"/><path d="M61.26,26.78l-1.56.14V29.3L51.28,30v5.13l9.7-.85V37L48.62,38.06V25.33l2.66-.23v2.24l4.92-.43V24l2.09-.18v2.87l.88-.07V23.77l2.09-.18Z"/><path d="M74,30.88,61.85,31.94V29.2L74,28.14Z"/><path d="M88.52,34.57l-2.8.24-.41-1.47L82.5,35.1l-7.4.64V33.07l3.7-10.38,2.85-.25L77.93,32.82l4.26-.38L84.66,31l-.83-3.06,2.69-.24Z"/><path d="M98.15,23.43,94,23.8v9.72l-2.65.23V24l-4.14.36V21.73l10.94-1Z"/><path d="M109.83,32.13l-2.59.23V29.25l-5.6.49v3.11l-2.59.22v-9.9l2.47-2.73,5.84-.51,2.47,2.3Zm-2.59-5.51v-3l-1.09-1-3.42.3-1.09,1.2v3Z"/><path d="M121.78,24.94l-2.46,2.65-5.53.48v3.71l-2.6.23V19.63l8.13-.71,2.46,2.23Zm-2.6-1V22.52l-1.07-1-4.32.38V25.5l4.32-.38Z"/><path d="M51.25,52.26l-4.73.41V62.89l-7.11,8.88-11.63,1v-6l9-.79,3.81-4.85V53.39l-12,1-1.89,5.73-6.13.53V54.8l1.85-.16,3.2-10L32,44.06l-1.38,4.27,14-1.22v1l6.68-.58Zm0-6.61-7.08.62V41.58L51.25,41Z"/><path d="M80.34,57.13l-27,2.36v-6.1l27-2.36Z"/><path d="M112.45,65.38l-6.24.54-.91-3.29L99,66.55,82.55,68V62l8.26-23.11,6.34-.56-8.3,23.12,9.51-.84,5.49-3.31L102,50.51l6-.52Z"/><path d="M121.57,56.59l-5.32.47V35.48l5.32-.47Zm0,8.56-5.33.47v-5.3l5.33-.46Z"/><polygon points="137.94 29.45 148.06 38.67 137.94 49.67 137.94 29.45"/></g></g></svg>