<svg xmlns="http://www.w3.org/2000/svg" viewBox="0 0 243.97 96.49">
  <defs>
  </defs>
  <title>アセット 15</title>
  <g id="レイヤー_2" data-name="レイヤー 2">
    <g id="content">
      <polygon class="cls-1" points="234.97 0 243.97 8 243.97 76 234.97 68 234.97 0" />
      <polygon class="cls-2" points="0 88.49 9 96.49 243.97 76 234.97 68 0 88.49" />
      <polygon class="cls-3" points="234.97 0 0 20.49 0 88.49 234.97 68 234.97 0" />
      <path d="M55.1,60.1l-5.61,6.18L30.67,67.93,25,62.77V57.61L31.71,57v2l2,1.82,12.7-1.11,2-2.18V55.12l-2.08-2-15.7,1.38L25,49.64V41.35l5.64-6.26,18.78-1.64,5.65,5.27v4.81l-6.85.6V42.32l-2-1.86-12.58,1.1-2,2.21v2.52l2,1.75,15.66-1.37,5.73,5.14Z" />
      <path d="M87.53,37.25l-11,1v25.7l-7,.61V38.82l-11,1V32.73l29-2.53Z" />
      <path d="M119.9,60.12l-6.84.6V52.51l-14.82,1.3V62l-6.85.6V36.43l6.53-7.22,15.46-1.35,6.52,6.07Zm-6.84-14.58v-8l-2.89-2.67-9,.8-2.88,3.17v8Z" />
      <path d="M153.59,57.17l-6.85.6V50.08l-3.28-2.75-11.57,1V59.07l-7,.62V26.85L147,24.91l6.57,6v8.68l-3.89,3.79,3.89,3.22ZM146.7,37.63V34.31L144,31.74,131.89,32.8v8.89L144,40.63Z" />
      <path d="M186.4,28.6l-11,.95V55.26l-7,.61V30.17l-11,1v-7l29-2.53Z" />
      <polygon points="210.47 26.01 220.58 35.23 210.47 46.23 210.47 26.01" />
    </g>
  </g>
</svg>
