<svg viewbox="0 0 167 100" xmlns="http://www.w3.org/2000/svg">
	<defs>
		<clipPath id="svgPathWakaru">
		   <polygon class="cls-3" points="158 0 0 14 0 92 158 78 158 0"></polygon>
		</clipPath>
	</defs>
	<g>
		<polygon class="cls-1 shadow" points="158 0 167 8 167 86 158 78 158 0"></polygon>
		<polygon class="cls-2 shadow" points="0 92 9 100 167 86 158 78 0 92"></polygon>
		<polygon class="cls-3 barWrap" points="158 0 0 14 0 92 158 78 158 0"></polygon>

		<g clip-path="url(#svgPathWakaru)">
		  <path class="bar" d="M0,0.5h1"/>
		</g>

		<path d="M58.26,43.94,55,48.5,53.45,47v16.6L43,64.49v-4.9l5.43-.48v-8L38.1,52l3.53,2L34.45,65.71l-4.22-2.63,6.78-11-5.16.45V49l-1.4,1.65-3.29-4L37.1,35.13l3.69,3.37-7.63,8.94,19.1-1.67-7.63-7.61,3.69-4Z"></path>
		<path d="M82.64,56.37l-4.16,4.48-7.15.63V56.32l4.47-.39,1.53-1.69V43.89l-1.66-1.54-6.15.54L68.14,61.76l-5.22.46,1.31-18.87L61,43.64V38.29L64.61,38l.28-4.08,5.31-.47-.28,4.09,8.53-.75,4.19,4Zm6.44-8.54-5,.44V34.15l5-.44Z"></path>
		<path d="M120.59,51.92l-5.25,5.71L96.93,59.24l-3.84-3.45V50.2L96.93,46l6.91-.6,3.84,3.47v4.25l5.19-.45,2-2.24V44.79l-2.06-1.88-10.75.94L103.34,37l-10.78.94V32.72l17-1.49-1.22,7,7-.61,5.25,4.79Zm-17.78,1.65V50.69l-1.22-1-2.72.23-1.16,1.26V53l1,1Z"></path>
		<path d="M130.21,47.89l-5.68.5V27.86l5.68-.5Zm0,8-5.65.5v-5l5.65-.5Z"></path>
	</g>
</svg>
