<svg viewbox="0 0 167 100" xmlns="http://www.w3.org/2000/svg">
	<defs>
		<clipPath id="svgPathTsumaran">
		   <polygon class="cls-3" points="158 0 0 14 0 92 158 78 158 0"></polygon>
		</clipPath>
	</defs>
	<g>
		<polygon class="cls-1 shadow" points="158 0 167 8 167 86 158 78 158 0"></polygon>
		<polygon class="cls-2 shadow" points="0 92 9 100 167 86 158 78 0 92"></polygon>
		<polygon class="cls-3 barWrap" points="158 0 0 14 0 92 158 78 158 0"></polygon>

		<g clip-path="url(#svgPathTsumaran)">
		  <path class="bar" d="M0,0.5h1"/>
		</g>

    <path d="M40.7,54.3l-6.82,7.6L15.23,63.53V58.22l16-1.4L35,52.55v-6L31,43,12.6,44.61l0-5.38,21.16-1.85,7,6.42Z" />
    <path d="M72.15,51.58l-8.34.73v3.75l-3.72,3.55L47.9,60.67l-3.65-2.9V52.68l3.65-3.57,10.54-.92V45.72L45.59,46.84V42.22l12.85-1.13V38.53L45.59,39.66V35l12.85-1.12V31.59l5.37-.47v2.32l7.06-.62v4.62l-7.06.62v2.56L70.87,40v4.62l-7.06.62v2.47L72.15,47ZM58.44,54.66V52.28L50.59,53l-1,1.06V55.5l1,.87,6.78-.59Z" />
    <path d="M102.47,51.15l-4.69,5.16L75.85,58.23V52.85l19.56-1.71,1.5-1.66V47l-1.5-1.4L76.53,47.2V30.92l5.28-.46V41.39L97.72,40l4.75,4.34Zm-1.75-16.69L84.41,35.88v-5.4l16.31-1.43Z" />
    <path d="M133.44,48.85l-4.28,4.71-6.63.58-4.34-3.93V41.62l-1.47-1.28-3.66.32-1.28,14.42-5.47.48,2.38-28.36,5.62-.49-.75,8.37,5.82-.5,4.06,3.7v9.19l1.22,1.17,2.31-.2,1.22-1.35V33.9l5.25-.46Z" />
    <path d="M143.11,43.91l-5.69.49V23.87l5.69-.5Zm0,8-5.66.49v-5l5.66-.49Z" />
	</g>
</svg>
