<svg viewbox="0 0 167 100" xmlns="http://www.w3.org/2000/svg">
	<defs>
		<clipPath id="svgPathYabai">
		   <polygon class="cls-3" points="158 0 0 14 0 92 158 78 158 0"></polygon>
		</clipPath>
	</defs>
	<g>
		<polygon class="cls-1 shadow" points="158 0 167 8 167 86 158 78 158 0"></polygon>
		<polygon class="cls-2 shadow" points="0 92 9 100 167 86 158 78 0 92"></polygon>
		<polygon class="cls-3 barWrap" points="158 0 0 14 0 92 158 78 158 0"></polygon>

		<g clip-path="url(#svgPathYabai)">
		  <path class="bar" d="M0,0.5h1"/>
		</g>

		<path d="M52.2,50.8,47,56.26l-7.47.65V51.22l5.19-.45,2-1.89V44.41l-2-1.55-2.29.2v5.22l-5.15.45V43.51L32.2,44l1.06,18.78-5.16.45L27,44.41l-2.91.25V39.29l2.63-.23-.22-3.89,5.16-.45.21,3.89,5.35-.47V34.23l5.15-.45v3.91l4.54-.4,5.25,4.57Z" />
    <path d="M65.06,60l-5.31.46-4-3.74V33.52L61,33.06V53.72l1.19,1.05,2.87-.25ZM84,36.77l-3.44.3V44.6l3.07-.27v5.19l-3.07.27V55.1l-3.72,3.82-7.47.66L65.22,56V50l4.15-4.39,5.91-.52V38.84l-10.84.95V34.51l9.4-.82V31l4.35-.38V37l1.53-.14V30.52L84,30.14ZM75.28,53.38V50.25l-3.75.33-1.25,1.23v2l1.28,1L74,54.64Z" />
    <path d="M100.15,56.89l-7.5.65-4.82-4.45V31.46L93.11,31V50.44l1.94,1.77,5.1-.45Zm13.81-4-5.28.46V36.89l-1.94-1.83-4.81.42V30.33l7.18-.63L114,34.21Z" />
    <path d="M128.69,46.48l-4.94.44v-20l4.94-.44Zm0,7.94-4.94.43V49.94l4.94-.43Z" />
	</g>
</svg>
