<svg xmlns="http://www.w3.org/2000/svg" viewBox="0 0 238.53 64.73">
  <defs>
    <style>
      .cls-1 {
        fill: gray;
      }

      .cls-2 {
        fill: #e6e6e6;
      }

    </style>
  </defs>
  <title>アセット 6</title>
  <g id="レイヤー_2" data-name="レイヤー 2">
    <g id="content">
      <polygon class="cls-1 shadow" points="238.53 2.43 3 23.04 3 64.73 238.53 44.13 238.53 2.43" />
      <polygon class="cls-2" points="235.5 0 0 20.04 0 61.73 235.5 41.13 235.5 0" />
      <path class="cls-1" d="M41.94,38.65l-5.12,6.54-11.42,1V42.73l9.82-.86,3.25-4.14V32l3.47-.3ZM33.25,33l-7.81.68V30.34l7.81-.68Zm0,5.41L25.44,39v-3.3l7.81-.69Zm5.81-7.59L36.68,31V27.81l2.38-.21Zm3.58-.32-2.38.21V27.49l2.38-.21Z" />
      <path class="cls-1" d="M60.72,43.1l-3.64.32-.53-1.92-3.67,2.29-9.62.84V41.15l4.82-13.5,3.7-.32-4.84,13.5,5.55-.49,3.21-1.93-1.08-4,3.5-.31Z" />
      <path class="cls-1" d="M79.11,28.27l-2,.17v3.09l-10.94,1v6.68l12.61-1.11v3.47l-16.08,1.4V26.38l3.47-.31V29l6.39-.56V24.69l2.72-.24v3.74l1.14-.1V24.35l2.72-.24Z" />
      <path class="cls-1" d="M95.58,33.6,79.83,35V31.41L95.58,30Z" />
      <path class="cls-1" d="M114.47,38.4l-3.64.32-.54-1.92-3.66,2.29L97,39.93V36.44L101.83,23l3.7-.32-4.84,13.49,5.55-.48,3.21-1.94-1.09-4,3.51-.3Z" />
      <path class="cls-1" d="M131.92,31.54l-4.31.38-7.34-2.47v8.44l-3.41.3V21.64l3.41-.3v4.47l7.8,2.62,3.85-.34Z" />
      <path class="cls-1" d="M150,28.84l-15.75,1.38V26.65L150,25.28Z" />
      <path class="cls-1" d="M168.92,27.32l-5.18,6.77-9,.79V31.41l7.36-.64,3.35-4.37V21l-7.43.65L155.1,25l-3.19.28V21.86l1.73-.15,2.92-3.43,12.36-1.08Z" />
      <path class="cls-1" d="M176.22,33.31l-2.95.26-2.54-2.36V16.63l3.33-.29v13l.75.66,1.41-.12ZM188,32.14l-9,.8-2.64-2.43v-4l3.27-.28v2.36l1,.93,7.38-.64Zm-.09-12.57-11.58,1V17.28l11.58-1Z" />
      <path class="cls-1" d="M207.57,26.28l-4.51.39,3,2.93-2.1,2-3.09-3.18,1.77-1.73-2.46.22-2.88,5.15-2.59-1.21,2-3.64-3,.26V24.83l4.55-.4.88-1.59-5.9.52V25l-1.16,7.31-3-.17,1.07-6.87V17.67l17.16-1.51v6l-6.63.58,1.51.56-.49.86,5.87-.51Zm.22-11.06-18.53,1.62V14.28l18.53-1.62Zm-3.61,4.9V18.7l-10.92,1v1.41Z" />
      <path class="cls-1" d="M226.65,25.59l-3.31,3.6-11.6,1L209.32,28V24.51l2.42-2.63,4.35-.38,2.43,2.19v2.67l3.26-.28,1.28-1.41V21.1l-1.3-1.18-6.77.59.79-4.34-6.79.6V13.5l10.71-.94-.77,4.38,4.41-.39,3.31,3Zm-11.21,1V24.82l-.76-.66-1.72.15-.72.79v1.15l.63.61Z" />
      <polygon class="cls-1" points="15.23 31.07 7.72 39.21 15.23 46.09 15.23 31.07" />
    </g>
  </g>
</svg>
