<svg xmlns="http://www.w3.org/2000/svg" viewBox="0 0 152.74 50.46"><title>アセット 22</title><g id="レイヤー_2" data-name="レイヤー 2"><g id="content"><path d="M12.31,21.94c1.07.87,1.73,1.51,1.73,1.7s-.22.43-.74,1c-.39.4-.56.53-.67.54a.39.39,0,0,1-.26-.09c-.18-.2-.18-.2-.95-1a19.14,19.14,0,0,0-3.65-2.85A30,30,0,0,1,4,24.77,9.81,9.81,0,0,1,1.88,26.1c-.17,0-.18,0-.59-.42a5.71,5.71,0,0,0-1-.8,20.52,20.52,0,0,0,5-3.72,23,23,0,0,0,4.22-5.69,65.87,65.87,0,0,0-6.61.71l-.26,0c-.19,0-.29-.06-.32-.24a10.68,10.68,0,0,1-.12-1.91,46.61,46.61,0,0,0,5.36-.25c1-.09,2-.21,2.59-.33a1.89,1.89,0,0,0,.61-.2.37.37,0,0,1,.2,0c.28,0,.59.18,1,.68a2.12,2.12,0,0,1,.5.94c0,.2,0,.27-.48.71A5.73,5.73,0,0,0,11,16.9a27.5,27.5,0,0,1-1.92,2.82A20.36,20.36,0,0,1,12.31,21.94Z"/><path d="M24.67,14.65c-5.85.6-5.85.6-7.8.85a9,9,0,0,0-1.92.32l-.2,0c-.2,0-.32-.07-.41-.28a6.41,6.41,0,0,1-.3-1.89c1.16,0,2.93-.06,5.06-.24,2.39-.21,4.57-.44,5.52-.57a3.27,3.27,0,0,0,.87-.24.94.94,0,0,1,.35-.1c.34,0,.68.22,1.25,1a1.89,1.89,0,0,1,.47.9c0,.18,0,.22-.32.44a4.93,4.93,0,0,0-.94,1.07,29.23,29.23,0,0,1-4.39,4.74,7.37,7.37,0,0,1,1.75,1.94c0,.19-.22.46-.74.92a2.19,2.19,0,0,1-.78.53c-.1,0-.18,0-.3-.17a17.36,17.36,0,0,0-2.27-2.47,18.41,18.41,0,0,0-3-2.32.22.22,0,0,1-.11-.21,2.8,2.8,0,0,1,.74-1c.26-.24.4-.36.5-.36a.32.32,0,0,1,.23.06,14.5,14.5,0,0,1,2.63,1.82A25.87,25.87,0,0,0,24.67,14.65Z"/><path d="M32.4,17.24c0,.09,0,.14-.17.3a2.25,2.25,0,0,0-.35.67c-.74,1.68-2.07,3.58-2.56,3.62-.1,0-.13,0-.49-.27A3.78,3.78,0,0,0,27.71,21a8.16,8.16,0,0,0,2.74-4.59C31.81,16.76,32.4,17,32.4,17.24ZM34,14.65a46.28,46.28,0,0,0-5.19.61h0a.29.29,0,0,1-.32-.24,6.46,6.46,0,0,1-.17-1.73A35.36,35.36,0,0,0,33.32,13l.25,0L34,13v-.45a12.23,12.23,0,0,0-.18-2.29A10.5,10.5,0,0,1,36,10.3a.23.23,0,0,1,.19.25,1,1,0,0,1-.12.38,3.44,3.44,0,0,0-.2,1.42v.47l1.09-.1c1.1-.09,3.25-.37,3.92-.48l.19,0a.17.17,0,0,1,.2.15c0,.08,0,.57,0,.78,0,.89,0,.94-.35,1l-1.23.07c-.59,0-.81.05-3.83.3v3.1c0,1.69,0,1.69,0,3.09a4.43,4.43,0,0,1,0,.45c0,1.61-.59,2.2-2.34,2.35a4.64,4.64,0,0,1-1.41,0c-.12,0-.15-.12-.2-.36a5.64,5.64,0,0,0-.52-1.51,6.53,6.53,0,0,0,1.76.06c.61,0,.72-.19.72-.94Zm6.84,5.91a.5.5,0,0,1-.23.14c-.31,0-.91-.61-1.65-1.71a10.18,10.18,0,0,1-1.31-2.49c0-.13.12-.26.39-.41a4.46,4.46,0,0,1,1.1-.55c.14,0,.21.06.31.26A10.91,10.91,0,0,0,40.65,18a7.59,7.59,0,0,0,1.55,1.59A5.12,5.12,0,0,0,40.8,20.56Z"/><path d="M44.62,13.21a8,8,0,0,0-1.2.47,1.39,1.39,0,0,1-.44.15c-.36,0-.7-.62-1-2a27.26,27.26,0,0,0,3.33-.67c2-.48,4.57-1.09,5.91-1.37,1.52-.33,2.73-.64,3.37-.83a.62.62,0,0,1,.25,0c.22,0,.3.07.45.47a3.49,3.49,0,0,1,.24,1.07c0,.2-.07.27-.31.29a6.2,6.2,0,0,0-1,.17c-2.84.72-5.11,3.38-5.11,6,0,2,1.55,3.1,4.17,3.11.24,0,.32.07.32.27a5.83,5.83,0,0,1-.32,1.61.48.48,0,0,1-.44.31A5.93,5.93,0,0,1,51.61,22c-2.86-.59-4.35-2.26-4.35-4.81a6.45,6.45,0,0,1,1.32-3.88,7.82,7.82,0,0,1,1.84-1.75C48.21,12.14,45.89,12.78,44.62,13.21Zm8.6-.32a5.25,5.25,0,0,1,1.67,1.68c0,.09-.1.2-.41.49s-.33.3-.47.36-.08,0-.11,0-.09,0-.39-.45a7.74,7.74,0,0,0-1.09-1.24.36.36,0,0,1-.09-.12c0-.09.05-.14.07-.14s.34-.33.4-.39a2.27,2.27,0,0,0,.29-.19.11.11,0,0,1,0,0h.08Zm2.88.9a1.57,1.57,0,0,1-.49.32c-.07,0-.1,0-.18-.15a7.08,7.08,0,0,0-1.3-1.47c0-.05-.07-.09-.07-.13s.11-.19.34-.38a1.77,1.77,0,0,1,.52-.31c.12,0,.32.12.67.44a3.82,3.82,0,0,1,.95,1.19C56.54,13.4,56.42,13.52,56.1,13.79Z"/><path d="M63.32,7.7a7.07,7.07,0,0,0,.61,2.2,22.74,22.74,0,0,0,3.81-1.67l.2-.07c.17,0,.29.28.54,1.34,0,.08,0,.1,0,.16a.23.23,0,0,1,0,.07c0,.12-.06.19-.23.27a27.76,27.76,0,0,1-3.63,1.45A8.59,8.59,0,0,0,68,14.88a.2.2,0,0,1,.14.19,4.9,4.9,0,0,1-.66,1.44c-.15.23-.25.32-.4.33s-.15,0-.37-.15a6.37,6.37,0,0,0-1.8-.64A7.32,7.32,0,0,0,62.75,16c-2,.17-3,.81-3,1.87,0,.61.32,1,1,1.27a9.82,9.82,0,0,0,3.93.25,8.85,8.85,0,0,0,1.34-.2A10,10,0,0,0,65.37,21c-.08.26-.22.34-.67.37a16.46,16.46,0,0,1-3.4-.05c-2.23-.35-3.51-1.49-3.51-3.16a3.41,3.41,0,0,1,.87-2.23,5.55,5.55,0,0,1,3.62-1.48,6.17,6.17,0,0,1,2.6.24,10,10,0,0,1-2-2.66c-1,.28-1.88.47-2.87.65-.59.11-1.88.3-2.14.32s-.3,0-.38-.3a8.64,8.64,0,0,1-.27-1.56l1.12-.06a31.54,31.54,0,0,0,3.77-.63c-.15-.32-.44-1-.61-1.45a5.7,5.7,0,0,0-.6-1.31,14.31,14.31,0,0,1,2-.4c.32,0,.44.05.44.25Z"/><path d="M77.55,12c2.3-.21,3.8,1,3.8,3.06s-1.26,3.47-3.78,4.49a14.81,14.81,0,0,1-3.08.82c-.35,0-.44-.05-.67-.51a2,2,0,0,0-.89-.89c4.22-.7,6.3-1.95,6.3-3.77,0-1-.72-1.55-1.93-1.45a6.92,6.92,0,0,0-4.41,2.56,4.52,4.52,0,0,0-.6.82c-.15.26-.25.35-.41.36A2.48,2.48,0,0,1,70.64,17a.5.5,0,0,1-.27-.51,3.47,3.47,0,0,1,0-.54,3.11,3.11,0,0,1,0-.35c.08-1.07.13-1.53.33-3.05,0-.18,0-.18.16-1,0,0,0-.37.13-1a3.82,3.82,0,0,0,0-.55,6.33,6.33,0,0,1,1.89.31c.13.06.2.14.18.24a.54.54,0,0,1-.08.22,2.91,2.91,0,0,0-.39,1.1,24,24,0,0,0-.42,2.69A7.84,7.84,0,0,1,77.55,12Zm-.3-4.73c.65.32.85.49.85.67A3.73,3.73,0,0,1,77.55,9c-.27.41-.37.5-.5.51s-.14,0-.34-.15a9.77,9.77,0,0,0-3.28-1.48c-.25-.08-.3-.11-.3-.24a2.11,2.11,0,0,1,.44-.93c.26-.42.38-.53.57-.55A10.93,10.93,0,0,1,77.25,7.25Z"/><path d="M86.14,14.89a.41.41,0,0,1,.07.23c0,.12,0,.14-.17.52a18.51,18.51,0,0,0-.94,2.95c0,.18-.1.29-.17.33a6.26,6.26,0,0,1-.84.19H84c-.08,0-.2,0-.34,0s-.26,0-.33-.22a21.22,21.22,0,0,1-.57-5,25.92,25.92,0,0,1,.58-5.52c.17-.91.26-1.42.32-2a7.18,7.18,0,0,1,1.82.38c.29.09.37.16.37.33s0,.17-.2.45c-.56.93-1.18,4.53-1.18,6.91,0,.38,0,.9.07,1.73.47-1.09.64-1.43,1-2.28A4.92,4.92,0,0,0,86.14,14.89Zm3.65.87a4.65,4.65,0,0,0,2.3.18,8.64,8.64,0,0,0,2.76-.63l.23-.07c.12,0,.2,0,.22.22A11.84,11.84,0,0,1,95.45,17c0,.17,0,.22-.28.31a12.3,12.3,0,0,1-3,.61,5.91,5.91,0,0,1-3.3-.36c-.74-.39-1.51-1.24-1.51-1.69,0-.23.35-.58,1.26-1.21A2.07,2.07,0,0,0,89.79,15.76ZM88.61,7.35a13.79,13.79,0,0,0,2.27,0,19.3,19.3,0,0,0,3.26-.56l.15,0c.12,0,.17,0,.2.17a9.88,9.88,0,0,1,.09,1.34c0,.25,0,.34-.24.39a18.33,18.33,0,0,1-3,.48,14.43,14.43,0,0,1-2.91.08c-.08,0-.12-.16-.12-.46a8.31,8.31,0,0,1,.09-1.26.15.15,0,0,1,.17-.11Z"/><path d="M101.63,17.64c-.15-.42-.22-.56-.34-.85-2,.78-2.25.89-4,1.46-.32.1-.73.25-.93.33L96,16.83c.3,0,.67-.11,1-.19v-7c0-.35,0-.65,0-1a7.63,7.63,0,0,1-.62.47,7.4,7.4,0,0,0-.59-1.65A8.63,8.63,0,0,0,99,4l1.63-.15a4.9,4.9,0,0,0,2.68,2.2,7.89,7.89,0,0,0-.93,1.54,7,7,0,0,1-2.54-2.2,12.8,12.8,0,0,1-2.43,2.83c.23,0,.38,0,.82-.05l.86-.08V7.55A4.43,4.43,0,0,0,99,6.74l1.65-.14a4.14,4.14,0,0,0-.07.81V8l.64-.06a11,11,0,0,0,1.29-.16,12.67,12.67,0,0,0,0,1.29v2.83c0,.69,0,1,0,1.53-.38,0-.65,0-1.27.06l-2.66.24V16.2a21.31,21.31,0,0,0,2-.69c-.24-.41-.32-.56-.66-1.08l1.43-.69a21.37,21.37,0,0,1,1.43,2.43A8.44,8.44,0,0,0,104.77,13a11.9,11.9,0,0,0,.54-4,7.64,7.64,0,0,0,0-.91l1.83-.16a6.86,6.86,0,0,0,0,.88,8.82,8.82,0,0,0,1.15,4.74A6.7,6.7,0,0,0,111,16.12a6.55,6.55,0,0,0-1.15,1.72,9.3,9.3,0,0,1-2.17-2,7.59,7.59,0,0,1-1.41-3.11,9.06,9.06,0,0,1-1.56,3.8A8.77,8.77,0,0,1,103,18.42a6.29,6.29,0,0,0-.82-1.08Zm-.69-7.54V9.23l-2.32.2v.87Zm-2.32,2.33,2.32-.2v-.9l-2.32.2Zm10-7.16A7.68,7.68,0,0,0,110,5.08l.83.82c-.17.43-.2.53-.31.86a17.94,17.94,0,0,1-1.56,4,5.23,5.23,0,0,0-1.46-.7,10.37,10.37,0,0,0,1.39-3.28l-3.36.3a13.36,13.36,0,0,1-1.6,3.06,4.84,4.84,0,0,0-1.31-1.09,10.75,10.75,0,0,0,1.79-3.78,10.06,10.06,0,0,0,.35-1.89l1.86.17a7.67,7.67,0,0,0-.28.94c-.09.34-.17.66-.27,1Z"/><path d="M116.63,10.52a37.72,37.72,0,0,1-1.92,3.29,3.31,3.31,0,0,1-2.3,1.69c-1.21.1-2-.81-2-2.28A3.82,3.82,0,0,1,112.21,10a6.94,6.94,0,0,1,2.94-1l.17,0c.86-1.81,1.07-2.29,1.65-3.65a12.36,12.36,0,0,0-3.18.72.27.27,0,0,1-.12,0c-.29,0-.55-.82-.64-2.06a5.8,5.8,0,0,0,1.18,0c.57,0,1.55-.19,2.57-.38s1-.16,1.18-.32a.62.62,0,0,1,.3-.12c.22,0,.56.21.92.63a1.89,1.89,0,0,1,.44.71c0,.14-.07.26-.27.48a31.16,31.16,0,0,0-2,3.91,12.81,12.81,0,0,1,3.36.71,13.06,13.06,0,0,0,.16-1.75,7.24,7.24,0,0,0-.05-.75,17.49,17.49,0,0,1,1.81.18c.3,0,.4.13.4.26a1,1,0,0,1-.13.45,4.43,4.43,0,0,0-.32,1.24c0,.36-.1.6-.2,1.09a12.33,12.33,0,0,1,1.93,1.2.31.31,0,0,1,.14.23c0,.47-.73,1.62-1,1.65a.56.56,0,0,1-.3-.13c-.45-.36-1-.78-1.35-1a8.65,8.65,0,0,1-2.08,2.94,6.43,6.43,0,0,1-2.29,1.45.62.62,0,0,1-.4-.13c0-.05,0-.07-.27-.35a1.61,1.61,0,0,0-.87-.67,8.43,8.43,0,0,0,2.72-1.66,6.89,6.89,0,0,0,1.65-2.44A10.27,10.27,0,0,0,116.63,10.52Zm-4.54,2.4c0,.4.15.64.42.62s1-.91,2.09-2.8C113,11,112.09,11.84,112.09,12.92Z"/><path d="M127.63,6.59A19.52,19.52,0,0,1,125,8.2a7.78,7.78,0,0,0-.94-1.57,16.65,16.65,0,0,0,4.05-2.57,12.44,12.44,0,0,0,2.56-2.92l1.9-.17a8.55,8.55,0,0,0,2.74,2.43,14.85,14.85,0,0,0,4.15,1.8,8.71,8.71,0,0,0-.91,1.88,15.23,15.23,0,0,1-2.74-1.22V7.11a10.88,10.88,0,0,0-1.44.06l-5.4.47a12.39,12.39,0,0,0-1.38.19Zm-.89,4.2a12.82,12.82,0,0,0-1.9.27V9.21c.5,0,1.14,0,1.9-.09l10-.88a19.05,19.05,0,0,0,1.9-.25V9.85a14.68,14.68,0,0,0-1.9.06l-5.54.49a21,21,0,0,1-1.68,3.25c2.79-.4,2.79-.4,5.11-.85-.52-.52-.8-.8-1.69-1.62l1.59-.84a31.46,31.46,0,0,1,3.74,3.92l-1.57,1.16c-.45-.65-.59-.83-1-1.3-1.34.28-2.3.48-2.9.59-1.69.31-4.75.86-5.43,1a17.8,17.8,0,0,0-2.09.4l-.25-1.93c.49,0,.69,0,.91,0s.62-.07,1.44-.19a19.46,19.46,0,0,0,1.72-3.35Zm7.65-5.29c.22,0,.37,0,.7-.08a11,11,0,0,1-3.37-2.82A15.49,15.49,0,0,1,128.37,6L129,6Z"/><path d="M145.82,9.35c-1.67,1.12-2.14,1.64-2.14,2.38a.61.61,0,0,0,.37.61,5.08,5.08,0,0,0,2.25.14,27,27,0,0,0,3-.46c.35-.09.56-.15,1.23-.38h.08a.25.25,0,0,1,.25.18,5,5,0,0,1,.17,1.44.38.38,0,0,1-.3.43,32.9,32.9,0,0,1-3.5.48,10.2,10.2,0,0,1-3.95-.12A2,2,0,0,1,141.85,12a3.47,3.47,0,0,1,1.36-2.65,15.37,15.37,0,0,1,2.44-1.77c-.14-.54-.39-.75-.91-.7a4.47,4.47,0,0,0-2.2,1,12.84,12.84,0,0,0-1.41,1.28c-.51.56-.56.6-.69.61s-.52-.34-.88-.89a1.64,1.64,0,0,1-.27-.6c0-.15,0-.18.44-.47a11.71,11.71,0,0,0,3.21-3.56c-1.19.18-1.81.25-2.47.31-.25,0-.3,0-.39-.3a14.84,14.84,0,0,1-.15-1.54,8.66,8.66,0,0,0,1.72-.05c.65,0,1.38-.13,2.13-.23A6.69,6.69,0,0,0,144.27,0c1.5.12,2.19.31,2.19.59a.46.46,0,0,1-.07.21,11.35,11.35,0,0,0-.47,1,.28.28,0,0,0,0,.12c1-.22,1.8-.46,2.38-.64a2.07,2.07,0,0,1,.54-.16.19.19,0,0,1,.24.12,9.36,9.36,0,0,1,.17,1.29c0,.18-.07.27-.29.34a34.49,34.49,0,0,1-3.93.93A10.87,10.87,0,0,1,143.6,6a4.71,4.71,0,0,1,2-.66c.76-.07,1.26.32,1.6,1.23l2.65-1.68a5.7,5.7,0,0,0,1.46-1.25,5.43,5.43,0,0,1,1.43,1.91c0,.1-.06.17-.28.24a37.21,37.21,0,0,0-4.91,2.53c0,.3,0,1.07,0,1.6v.8c0,.2,0,.3-.12.36a2.58,2.58,0,0,1-1,.22c-.57.05-.67,0-.67-.25V11c0-.49,0-1.12,0-1.52Z"/><path d="M5.7,43.36c-.47,0-.88.1-1.24.16,0-.35,0-.74,0-1.34V38.43a9.43,9.43,0,0,0,0-1.29,9.55,9.55,0,0,0,1.27-.07l.51,0a8.21,8.21,0,0,0,.54-1.68l1.79,0L8,36.88l1.35-.12a8.86,8.86,0,0,0,1.24-.16,9,9,0,0,0,0,1.32v3.72a13.07,13.07,0,0,0,0,1.35,10.84,10.84,0,0,0-1.21.06l-1,.08v1l4.34-.38a11.8,11.8,0,0,0,1.93-.27v1.74a13,13,0,0,0-1.95.07l-3.13.27a9.85,9.85,0,0,0,2.34,1.25,13.12,13.12,0,0,0,3.19.75,9.39,9.39,0,0,0-1,1.73,11.6,11.6,0,0,1-3.08-1,9.83,9.83,0,0,1-2.7-1.89c0,.18,0,.18,0,.43,0,.06,0,.56,0,.61v.94a7.32,7.32,0,0,0,.12,1.62l-2,.18a10.38,10.38,0,0,0,.11-1.67v-.9c0-.31,0-.51,0-1.05a10.57,10.57,0,0,1-2.46,2.2,17.56,17.56,0,0,1-3.09,1.64A5.25,5.25,0,0,0,0,49a13.94,13.94,0,0,0,5.28-3l-2.93.25a14.14,14.14,0,0,0-1.93.27V44.78a15.88,15.88,0,0,0,1.92-.07l4.22-.37V43.29ZM4.29,41.79a23.58,23.58,0,0,1-2.91,1.87l-.66.39L.1,42.5a16,16,0,0,0,3.77-2.14ZM1.66,36.73a16.12,16.12,0,0,1,2.46,2.1L2.94,40.15A12.53,12.53,0,0,0,.49,37.93ZM6.1,39.48l2.79-.25v-1l-2.79.24Zm0,2.45,2.79-.25V40.57l-2.79.24Zm5.45-2.18A30.76,30.76,0,0,1,15,41.37l-.95,1.46a19,19,0,0,0-3.39-1.77Zm3.09-3a27.06,27.06,0,0,1-2.75,2.79l-1.11-1.08a13.71,13.71,0,0,0,2.55-2.73Z"/><path d="M18.78,35.18c.42.08.54.15.54.34a1.19,1.19,0,0,1-.1.41,9.59,9.59,0,0,0-.39,2.53c-.13,2.7-.2,4.79-.2,6.44a3.88,3.88,0,0,0,.14,1.19c.18.53.77.77,1.71.68a6.79,6.79,0,0,0,4.25-2.2,11.14,11.14,0,0,0,1.6-2.08,5.08,5.08,0,0,0,.61,1.58,1,1,0,0,1,.08.38c0,.3-.32.73-1.16,1.55a8.9,8.9,0,0,1-5.45,2.73,3.61,3.61,0,0,1-2.82-.67C17,47.45,16.7,46.6,16.7,45c0-1.3,0-2.3.15-6.2,0-.58,0-.93,0-1.08a14.54,14.54,0,0,0-.12-2.55A9.54,9.54,0,0,1,18.78,35.18Z"/><path d="M30.74,35.69a10.17,10.17,0,0,0-.16-1.89,11.18,11.18,0,0,1,1.9,0c.32,0,.41.1.41.28a.89.89,0,0,1-.09.33,3.75,3.75,0,0,0-.22,1.37c.8-.19,1.42-.36,2.24-.61a.35.35,0,0,1,.19-.05c.11,0,.16,0,.2.13a5.6,5.6,0,0,1,.13,1.14c0,.25-.05.37-.18.43a15.33,15.33,0,0,1-2.64.68c0,.92-.05,1.41-.09,2.69a4.15,4.15,0,0,1,.24,1.37,3.38,3.38,0,0,1-1.11,2.78,1.05,1.05,0,0,0-.14.48.79.79,0,0,0,.17.57c.26.26,1,.34,2.32.23A7.07,7.07,0,0,0,37,44.84a1.84,1.84,0,0,0,.59-1.57,6.42,6.42,0,0,0-.19-1.48,4.5,4.5,0,0,0,1.74.38c.2,0,.28,0,.31.12a3.86,3.86,0,0,1,.14,1.16A3.54,3.54,0,0,1,38.82,46a4.27,4.27,0,0,1-2,1,19.9,19.9,0,0,1-2.74.44,6.84,6.84,0,0,1-3.65-.35,1.55,1.55,0,0,1-.79-1.46,3.63,3.63,0,0,1,.12-1c-1.18.07-2-1-2-2.51a2.77,2.77,0,0,1,2.3-3,1.44,1.44,0,0,1,.61,0c0-.47,0-.89,0-1.27-.52.1-1.54.22-2.27.28-.52.05-.67,0-.77-.15a3.31,3.31,0,0,1-.15-1.13V36.4a11.19,11.19,0,0,0,1.38,0c.57-.05,1.26-.13,1.85-.21Zm-1.35,6.23c0,.7.32,1.13.79,1.09s.86-.58.86-1.35-.24-1-.78-1S29.39,41.19,29.39,41.92Zm8.22-5.68c.24-.33.27-.36.39-.37a4,4,0,0,1,1.18.33A8.11,8.11,0,0,1,41.63,38a.36.36,0,0,1,.13.25c0,.15-.1.34-.45.79s-.57.63-.69.64-.17,0-.3-.17a7.23,7.23,0,0,0-3.08-2.13c-.12,0-.17-.1-.17-.19A3.7,3.7,0,0,1,37.61,36.24Z"/><path d="M46.12,39.83c0,.08,0,.13-.16.3a2.21,2.21,0,0,0-.36.66c-.74,1.68-2.07,3.58-2.55,3.63-.1,0-.14,0-.49-.28a4.29,4.29,0,0,0-1.13-.52A8,8,0,0,0,44.17,39C45.54,39.34,46.12,39.59,46.12,39.83Zm1.57-2.59a50.19,50.19,0,0,0-5.2.6h0a.31.31,0,0,1-.32-.24A6.55,6.55,0,0,1,42,35.87a34.75,34.75,0,0,0,5.08-.24l.25,0,.39,0v-.45a11.46,11.46,0,0,0-.19-2.29,10.37,10.37,0,0,1,2.27.06.22.22,0,0,1,.19.25,1,1,0,0,1-.12.37,3.47,3.47,0,0,0-.2,1.42v.47l1.09-.1c1.09-.09,3.24-.36,3.92-.47a.34.34,0,0,1,.18,0,.16.16,0,0,1,.2.14,7.74,7.74,0,0,1,0,.79c0,.88,0,.93-.36,1l-1.22.07-3.84.31v3.12c0,1.66,0,1.66,0,3.08,0,.2,0,.35,0,.45,0,1.61-.58,2.2-2.33,2.35a4.63,4.63,0,0,1-1.41,0c-.12,0-.16-.12-.21-.36a5.77,5.77,0,0,0-.52-1.53,5.9,5.9,0,0,0,1.77.08c.6,0,.72-.21.72-1Zm6.84,5.9c-.1.1-.17.14-.24.14-.3,0-.9-.6-1.64-1.69a10.56,10.56,0,0,1-1.31-2.49c0-.13.11-.26.38-.41a4.64,4.64,0,0,1,1.11-.55c.14,0,.2.06.3.26a11.75,11.75,0,0,0,1.25,2.16,7.74,7.74,0,0,0,1.54,1.58A5,5,0,0,0,54.53,43.14Zm1-10.86a2,2,0,0,1-1.79,1.95,1.6,1.6,0,0,1-1.8-1.63,2,2,0,0,1,1.8-1.94A1.59,1.59,0,0,1,55.5,32.28Zm-2.69.24a.82.82,0,0,0,.9.81,1,1,0,0,0,.89-1,.81.81,0,0,0-.89-.8A1,1,0,0,0,52.81,32.52Z"/><path d="M61.81,37.05c3.07-.27,4.84-.45,6.54-.72l.21,0c.51,0,.51,0,.51,1.31,0,.68,0,.8-.34.83h-.06c-1.11,0-1.74.1-6.6.52-1.78.16-2.67.25-4.22.44l-.48,0a4.58,4.58,0,0,0-.94.15l-.19,0c-.18,0-.3,0-.33-.2a9.66,9.66,0,0,1-.17-2C57.1,37.43,58.29,37.36,61.81,37.05Z"/><path d="M72.61,36.81a2.88,2.88,0,0,1-.91.65c-.13,0-.15,0-.47-.3A4.66,4.66,0,0,0,70,36.42,13.55,13.55,0,0,0,74,32.57a10.77,10.77,0,0,0,1.5-3c1.78.5,2.2.68,2.2.91,0,.08-.05.16-.22.29a6.11,6.11,0,0,0-.84,1.17l.31,0c.58,0,1-.07,1.11-.08a7.14,7.14,0,0,0,2.57-.45.63.63,0,0,1,.28-.1c.24,0,.47.15,1,.72s.53.62.53.8,0,.24-.23.44a4.52,4.52,0,0,0-.59,1,23.61,23.61,0,0,1-4.66,6.53c-1.49,1.48-3.86,3.28-4.38,3.32a.57.57,0,0,1-.43-.16,3.78,3.78,0,0,0-1.41-.86,23,23,0,0,0,5.72-4.46c-.12-.1-.12-.1-.49-.45A10.07,10.07,0,0,0,74.32,37c-.1-.08-.13-.12-.13-.19s.22-.35.81-1c.28-.31.35-.37.45-.38A6.9,6.9,0,0,1,77.72,37a16.34,16.34,0,0,0,2.14-3.79l-4.38.44A20.68,20.68,0,0,1,72.61,36.81Z"/><path d="M86.72,30.5a.26.26,0,0,1,.2.27.88.88,0,0,1,0,.24,4.45,4.45,0,0,0-.12,1.31c0,4.07-.77,6.74-2.54,9.11-.38.5-.54.66-.7.68a.74.74,0,0,1-.29-.08,4.37,4.37,0,0,0-1.63-.45,9.73,9.73,0,0,0,2.12-3.11,13.31,13.31,0,0,0,1-5.62,12.26,12.26,0,0,0-.17-2.42A7.84,7.84,0,0,1,86.72,30.5ZM88.52,32a14.32,14.32,0,0,0-.15-2.15c1.81-.09,2.47,0,2.47.32a1,1,0,0,1-.08.34,2.25,2.25,0,0,0-.12.63c0,.45,0,.45-.09,7.79a17.77,17.77,0,0,0,5-4.55,7.92,7.92,0,0,0,.25,2,.66.66,0,0,1,0,.28c0,.26-.17.5-.94,1.28a17.49,17.49,0,0,1-3.65,2.86,3.44,3.44,0,0,0-.79.58.73.73,0,0,1-.39.2,2.9,2.9,0,0,1-1.24-.71c-.34-.3-.49-.54-.49-.75a.84.84,0,0,1,.07-.29,4.27,4.27,0,0,0,.15-1.55Z"/><path d="M99.17,31.57a15.52,15.52,0,0,0-.2-3.34l1,0a11.36,11.36,0,0,1,1.23.07.21.21,0,0,1,.17.21c0,.08,0,.08-.11.44a11.4,11.4,0,0,0-.13,2.48l3.75-.35a18.47,18.47,0,0,0-.19-3.43,16.19,16.19,0,0,1,1.9,0c.36,0,.46.08.46.23a1.21,1.21,0,0,1-.12.45,6,6,0,0,0-.12,1.17v1.39c1.7-.18,2.34-.26,2.84-.35l.17,0a.2.2,0,0,1,.19.07,3.74,3.74,0,0,1,.08,1c0,.79,0,.87-.28.89h-.41a25.36,25.36,0,0,0-2.62.18,10.09,10.09,0,0,1-1.28,5.28,8.75,8.75,0,0,1-3,3,5.18,5.18,0,0,1-1.22.6c-.16,0-.17,0-.53-.34a3.75,3.75,0,0,0-1.12-.79c2.42-1.08,3.68-2.17,4.45-3.86a9.08,9.08,0,0,0,.74-3.71l-1.09.09-1.31.13c-.3,0-.76.09-1.36.16,0,1.18,0,1.18,0,2.68v.21c0,.24,0,.33-.24.41a6.58,6.58,0,0,1-1.12.2c-.59.05-.67,0-.67-.29v-.25c.06-1.53.08-1.8.1-2.76-.88.09-2.42.32-2.83.43a.16.16,0,0,1-.1,0,.22.22,0,0,1-.25-.19,10.85,10.85,0,0,1-.2-1.9,19.76,19.76,0,0,0,2.74-.13Z"/><path d="M118.26,34.52c0,2.1,0,3.65.1,4.77v.12c0,.18,0,.26-.22.29a11,11,0,0,1-1.48.21c-.52.05-.57,0-.57-.27v-.08c.07-.86.1-2.76.1-4.86V32.5c-1.14.83-1.7,1.21-2.67,1.8a8.27,8.27,0,0,1-2,1.06.39.39,0,0,1-.35-.15,5.44,5.44,0,0,0-1.42-1.1,25.4,25.4,0,0,0,4.88-2.73,25.75,25.75,0,0,0,4.87-4.46,5,5,0,0,0,.56-.83c1.06.61,1.81,1.24,1.81,1.56,0,.1-.06.19-.26.29a4.85,4.85,0,0,0-1.21,1c-.74.72-1.47,1.37-2.12,1.91Z"/><path d="M127.44,34c0,1,0,3.73.09,4.51v.09a.38.38,0,0,1-.12.32,4,4,0,0,1-1.41.31c-.54,0-.64,0-.64-.33v-.07c0-.43.08-5.24.08-7.22a41.72,41.72,0,0,0-.18-5.87,17.37,17.37,0,0,1,2.23,0c.17,0,.25.11.25.25a1.49,1.49,0,0,1-.06.37,2.92,2.92,0,0,0-.12.71s0,1-.08,3a17,17,0,0,1,1.88.42A24.49,24.49,0,0,1,133.49,32c.14.09.21.16.21.26a6.68,6.68,0,0,1-.58,1.52c-.13.3-.21.39-.31.4a.45.45,0,0,1-.27-.1,17.6,17.6,0,0,0-5.1-1.94Z"/></g></g></svg>