<svg xmlns="http://www.w3.org/2000/svg" viewBox="0 0 155.82 16.77"><defs><style>.site_svg1{fill:#d0b263;}</style></defs><title>アセット 28</title><g id="レイヤー_2" data-name="レイヤー 2"><g id="content"><path class="site_svg1" d="M5,16.77c-2.64,0-4.23-1.6-4.23-4.06V10.19H3.6v2.56c0,1,.5,1.46,1.36,1.46s1.33-.49,1.33-1.46V.78h3V12.56A3.94,3.94,0,0,1,5,16.77Z"/><path class="site_svg1" d="M11.06,16.42V5.14h2.49V16.42Zm0-12.78V1.27H13.5V3.64Z"/><path class="site_svg1" d="M24.08,16.42V8.06c0-.61-.31-1-.86-1-.71,0-1,1-1,1.58v7.82H19.71V8c0-.61-.31-1-.81-1-.74,0-1,.94-1,1.55v7.89h-2.5V5.14h2.16l.22,1.79c.4-1.32,1.18-2,2.23-2s1.73.72,2,1.87A2.32,2.32,0,0,1,24.29,5C25.74,5,26.57,6,26.57,7.8v8.62Z"/><path class="site_svg1" d="M37.1,16.42h-5V.78h4.94c2.16,0,3.49,1.15,3.49,3.31V5.78a2.34,2.34,0,0,1-1.88,2.63,2.43,2.43,0,0,1,2,2.65v2C40.61,15.29,39.26,16.42,37.1,16.42ZM37.71,4.3c0-.71-.31-1.13-1-1.13H35.08v4.3h1.47c.76,0,1.16-.4,1.16-1.22Zm0,6.55c0-.82-.4-1.24-1.16-1.24H35.08V14h1.66c.74,0,1-.4,1-1.13Z"/><path class="site_svg1" d="M45.65,16.6A3.35,3.35,0,0,1,42.16,13V8.53A3.36,3.36,0,0,1,45.65,5a3.28,3.28,0,0,1,3.4,3.57V11H44.58v2.42a1,1,0,0,0,1.09,1.18,1,1,0,0,0,1.12-1.18v-1.1h2.26v.73A3.25,3.25,0,0,1,45.65,16.6Zm1.09-8.45c0-.73-.38-1.2-1.07-1.2a1.06,1.06,0,0,0-1.09,1.2V9.84h2.16Z"/><path class="site_svg1" d="M57.37,16.6a1.73,1.73,0,0,1-1.86-1.43A2.77,2.77,0,0,1,53,16.6a2.57,2.57,0,0,1-2.59-2.88v-.33c0-2.28,1.93-3.15,4.59-3.81V8a.88.88,0,0,0-1-1c-.69,0-.92.35-.92,1v.82H50.79v-.7A3,3,0,0,1,54.11,5c2.28,0,3.28,1.45,3.28,3.42v5.88c0,.37.17.56.57.58V16.6ZM55,11.13c-1.5.33-2.21.89-2.21,1.93v.63a.94.94,0,0,0,1,1.06A1.2,1.2,0,0,0,55,13.57Z"/><path class="site_svg1" d="M68.11,16.42V8.06c0-.61-.31-1-.86-1-.71,0-1,1-1,1.58v7.82H63.74V8c0-.61-.31-1-.81-1-.74,0-1,.94-1,1.55v7.89H59.39V5.14h2.16l.22,1.79C62.17,5.61,63,5,64,5s1.73.72,2,1.87A2.32,2.32,0,0,1,68.32,5C69.77,5,70.6,6,70.6,7.8v8.62Z"/><path class="site_svg1" d="M79.44,16.6A3.34,3.34,0,0,1,75.92,13V8.6a3.51,3.51,0,1,1,7,0V13A3.33,3.33,0,0,1,79.44,16.6Zm1.07-8.47A1.08,1.08,0,0,0,79.44,7a1.06,1.06,0,0,0-1.07,1.18v5.33a1,1,0,0,0,1.07,1.15,1.06,1.06,0,0,0,1.07-1.15Z"/><path class="site_svg1" d="M88,7.28v9.14H85.48V7.28H84.22v-2h1.26V4.39c0-2.23,1-3.61,3.32-3.61h.79v2h-.41c-1,0-1.26.46-1.26,1.31V5.26h1.6v2Z"/><path class="site_svg1" d="M94.35,7.28v9.14H91.83V7.28H90.57v-2h1.26V4.39c0-2.23,1-3.61,3.33-3.61h.78v2h-.4c-1,0-1.26.46-1.26,1.31V5.26h1.59v2Z"/><path class="site_svg1" d="M97.21,16.42V5.14H99.7V16.42Zm0-12.78V1.27h2.42V3.64Z"/><path class="site_svg1" d="M104.87,16.6A3.33,3.33,0,0,1,101.38,13V8.6A3.36,3.36,0,0,1,104.87,5c2.1,0,3.31,1.38,3.31,3.61V9.3h-2.12V8.2c0-.75-.38-1.25-1.11-1.25s-1.14.5-1.14,1.29v5.1c0,.8.4,1.27,1.14,1.27a1.08,1.08,0,0,0,1.11-1.22V12.26h2.12V13C108.18,15.27,107,16.6,104.87,16.6Z"/><path class="site_svg1" d="M109.68,16.42V5.14h2.49V16.42Zm0-12.78V1.27h2.42V3.64Z"/><path class="site_svg1" d="M120.6,16.6a1.73,1.73,0,0,1-1.86-1.43,2.77,2.77,0,0,1-2.54,1.43,2.57,2.57,0,0,1-2.59-2.88v-.33c0-2.28,1.93-3.15,4.59-3.81V8a.88.88,0,0,0-1-1c-.69,0-.92.35-.92,1v.82H114v-.7A3,3,0,0,1,117.34,5c2.28,0,3.28,1.45,3.28,3.42v5.88c0,.37.17.56.57.58V16.6Zm-2.4-5.47c-1.5.33-2.21.89-2.21,1.93v.63a.94.94,0,0,0,1,1.06,1.2,1.2,0,0,0,1.26-1.18Z"/><path class="site_svg1" d="M122.62,16.42V.78h2.49V16.42Z"/><path class="site_svg1" d="M133.76,16.6a3.13,3.13,0,0,1-3.47-3.28v-.54h2.14v.61a1.12,1.12,0,0,0,1.24,1.29c.76,0,1.18-.33,1.18-1.06,0-1-.73-1.41-2.16-2.28a3.55,3.55,0,0,1-2.26-3.24A3.07,3.07,0,0,1,133.76,5,3,3,0,0,1,137,8.15v.42H135V8c0-.66-.38-1.06-1.16-1.06s-1.05.33-1.05.94.5,1.18,1.71,1.88c1.5.8,2.66,1.74,2.66,3.64A3.11,3.11,0,0,1,133.76,16.6Z"/><path class="site_svg1" d="M138.6,16.42V5.14h2.49V16.42Zm0-12.78V1.27h2.43V3.64Z"/><path class="site_svg1" d="M146.22,7.28V13a7.81,7.81,0,0,0,.59,3.46h-2.56A7.9,7.9,0,0,1,143.7,13V7.28h-1.28v-2h1.4v-2l2.4-.64V5.26h1.52v2Z"/><path class="site_svg1" d="M152.43,16.6a3.36,3.36,0,0,1-3.5-3.57V8.53A3.37,3.37,0,0,1,152.43,5a3.27,3.27,0,0,1,3.39,3.57V11h-4.46v2.42a1,1,0,0,0,1.09,1.18,1,1,0,0,0,1.12-1.18v-1.1h2.25v.73A3.24,3.24,0,0,1,152.43,16.6Zm1.09-8.45c0-.73-.38-1.2-1.07-1.2a1.06,1.06,0,0,0-1.09,1.2V9.84h2.16Z"/><path d="M4.23,16C1.59,16,0,14.4,0,11.93V9.42H2.83V12a1.26,1.26,0,0,0,1.35,1.45c.86,0,1.33-.49,1.33-1.45V0h3V11.79A3.93,3.93,0,0,1,4.23,16Z"/><path d="M10.28,15.64V4.37h2.49V15.64Zm0-12.78V.49h2.43V2.86Z"/><path d="M23.3,15.64V7.28c0-.61-.31-1-.85-1-.71,0-1,1-1,1.57v7.82H18.93V7.23c0-.61-.31-1-.81-1-.73,0-1,.94-1,1.55v7.89h-2.5V4.37h2.17L17,6.15c.4-1.31,1.19-2,2.23-2s1.74.73,2,1.88a2.3,2.3,0,0,1,2.28-1.88C25,4.18,25.8,5.26,25.8,7v8.62Z"/><path d="M36.32,15.64h-5V0h4.94c2.16,0,3.49,1.15,3.49,3.31V5a2.35,2.35,0,0,1-1.87,2.63,2.45,2.45,0,0,1,2,2.66v2C39.84,14.51,38.48,15.64,36.32,15.64Zm.62-12.12c0-.7-.31-1.12-1-1.12H34.3V6.69h1.47a1.06,1.06,0,0,0,1.17-1.22Zm0,6.55c0-.82-.4-1.24-1.16-1.24H34.3v4.41H36c.74,0,1-.39,1-1.12Z"/><path d="M44.87,15.83a3.35,3.35,0,0,1-3.49-3.57V7.75a3.37,3.37,0,0,1,3.49-3.57,3.29,3.29,0,0,1,3.4,3.57v2.49H43.8v2.42a1,1,0,0,0,1.1,1.17A1,1,0,0,0,46,12.66V11.55h2.26v.73A3.25,3.25,0,0,1,44.87,15.83ZM46,7.37A1,1,0,0,0,44.9,6.18a1.07,1.07,0,0,0-1.1,1.19V9.06H46Z"/><path d="M56.59,15.83a1.71,1.71,0,0,1-1.85-1.43,2.81,2.81,0,0,1-2.54,1.43,2.58,2.58,0,0,1-2.59-2.89v-.33c0-2.28,1.92-3.15,4.58-3.8V7.19a.88.88,0,0,0-1-1c-.69,0-.93.35-.93,1v.82H50v-.7a3,3,0,0,1,3.33-3.17c2.28,0,3.27,1.46,3.27,3.43v5.87c0,.38.17.56.57.59v1.76Zm-2.4-5.47c-1.5.32-2.21.89-2.21,1.92v.64a.93.93,0,0,0,1,1.05,1.2,1.2,0,0,0,1.26-1.17Z"/><path d="M67.33,15.64V7.28c0-.61-.31-1-.85-1-.72,0-1,1-1,1.57v7.82H63V7.23c0-.61-.31-1-.81-1-.73,0-1,.94-1,1.55v7.89h-2.5V4.37h2.16L61,6.15c.4-1.31,1.19-2,2.23-2s1.74.73,2,1.88a2.3,2.3,0,0,1,2.28-1.88C69,4.18,69.83,5.26,69.83,7v8.62Z"/><path d="M78.66,15.83a3.33,3.33,0,0,1-3.51-3.62V7.82a3.5,3.5,0,1,1,7,0v4.39A3.33,3.33,0,0,1,78.66,15.83Zm1.07-8.48a1.07,1.07,0,0,0-1.07-1.17,1,1,0,0,0-1.07,1.17v5.33a1,1,0,0,0,1.07,1.15,1.06,1.06,0,0,0,1.07-1.15Z"/><path d="M87.22,6.5v9.14H84.7V6.5H83.44v-2H84.7V3.62C84.7,1.39,85.72,0,88,0h.78V2h-.4c-1,0-1.26.47-1.26,1.31V4.49h1.59v2Z"/><path d="M93.57,6.5v9.14H91.05V6.5H89.8v-2h1.25V3.62c0-2.23,1-3.62,3.33-3.62h.79V2h-.41c-1,0-1.26.47-1.26,1.31V4.49h1.59v2Z"/><path d="M96.43,15.64V4.37h2.49V15.64Zm0-12.78V.49h2.43V2.86Z"/><path d="M104.1,15.83a3.33,3.33,0,0,1-3.49-3.62V7.82a3.36,3.36,0,0,1,3.49-3.64c2.09,0,3.3,1.39,3.3,3.62v.72h-2.11V7.42c0-.75-.38-1.24-1.12-1.24S103,6.67,103,7.47v5.09c0,.8.4,1.27,1.14,1.27a1.07,1.07,0,0,0,1.12-1.22V11.48h2.11v.75C107.4,14.49,106.19,15.83,104.1,15.83Z"/><path d="M108.9,15.64V4.37h2.49V15.64Zm0-12.78V.49h2.43V2.86Z"/><path d="M119.82,15.83A1.72,1.72,0,0,1,118,14.4a2.81,2.81,0,0,1-2.54,1.43,2.58,2.58,0,0,1-2.59-2.89v-.33c0-2.28,1.92-3.15,4.58-3.8V7.19a.88.88,0,0,0-1-1c-.69,0-.93.35-.93,1v.82h-2.28v-.7a3,3,0,0,1,3.33-3.17c2.28,0,3.27,1.46,3.27,3.43v5.87c0,.38.17.56.57.59v1.76Zm-2.4-5.47c-1.5.32-2.21.89-2.21,1.92v.64a.93.93,0,0,0,1,1.05,1.2,1.2,0,0,0,1.26-1.17Z"/><path d="M121.84,15.64V0h2.5V15.64Z"/><path d="M133,15.83a3.13,3.13,0,0,1-3.46-3.29V12h2.13v.61a1.12,1.12,0,0,0,1.24,1.29c.76,0,1.19-.33,1.19-1.05,0-1-.74-1.41-2.17-2.28a3.56,3.56,0,0,1-2.25-3.24A3.06,3.06,0,0,1,133,4.18a3,3,0,0,1,3.28,3.19V7.8H134.2V7.23c0-.65-.38-1.05-1.17-1.05s-1,.32-1,.94.5,1.17,1.71,1.87c1.49.8,2.66,1.74,2.66,3.64A3.12,3.12,0,0,1,133,15.83Z"/><path d="M137.82,15.64V4.37h2.5V15.64Zm0-12.78V.49h2.42V2.86Z"/><path d="M145.44,6.5v5.69a7.64,7.64,0,0,0,.6,3.45h-2.57a8,8,0,0,1-.55-3.45V6.5h-1.28v-2H143v-2l2.4-.63V4.49H147v2Z"/><path d="M151.65,15.83a3.35,3.35,0,0,1-3.49-3.57V7.75a3.37,3.37,0,0,1,3.49-3.57,3.29,3.29,0,0,1,3.4,3.57v2.49h-4.47v2.42a1,1,0,0,0,1.09,1.17,1,1,0,0,0,1.12-1.17V11.55h2.26v.73A3.25,3.25,0,0,1,151.65,15.83Zm1.09-8.46a1,1,0,0,0-1.07-1.19,1.06,1.06,0,0,0-1.09,1.19V9.06h2.16Z"/></g></g></svg>