<svg xmlns="http://www.w3.org/2000/svg" viewBox="0 0 30.4 383.55"><defs><style>.text1_svg_1{fill:#006549;}</style></defs><title>アセット 1</title><g id="レイヤー_2" data-name="レイヤー 2"><g id="レイヤー_1-2" data-name="レイヤー 1"><path class="text1_svg_1" d="M30.4,0V10.11H28V2.3H7.81V0Z"/><path class="text1_svg_1" d="M28.7,25.82a9.41,9.41,0,0,0-.8,1,67.75,67.75,0,0,1-11.42,12.7c2,1.82,4.25,4.1,5.57,5.57L19.81,47a67.49,67.49,0,0,0-5.92-6.24A65.77,65.77,0,0,0,6.5,34.85l2-1.7c1.22.8,3.84,2.79,6,4.64a53,53,0,0,0,9.92-10.91H6.21c-1.22,0-2.59.13-3.2.19V24.23a24.93,24.93,0,0,0,3.2.25H25a6.75,6.75,0,0,0,2-.25Z"/><path class="text1_svg_1" d="M13.76,67.78l-2.4.89a58.58,58.58,0,0,0-2.75-7l2.33-.87C11.58,62.18,13.15,66.11,13.76,67.78Zm15.39-6.72c-.22.6-.38,1.12-.51,1.53a24.59,24.59,0,0,1-4.23,9.54,23.17,23.17,0,0,1-9.85,7.23l-2.05-2.11a20.13,20.13,0,0,0,9.79-6.43,21.09,21.09,0,0,0,4.13-10.53Zm-8.64,5-2.37.83a60.5,60.5,0,0,0-2.46-6.75l2.3-.8C18.53,60.58,20.09,64.67,20.51,66Z"/><path class="text1_svg_1" d="M24.8,103.74c.67,0,1.85-.06,2.49-.12v2.56c-.67-.07-1.66-.1-2.43-.1H17a15.48,15.48,0,0,1-8,13l-2.47-1.72a12.92,12.92,0,0,0,7.94-11.3H5.76c-1,0-2,0-2.78.1v-2.6c.67.07,1.79.16,2.72.16h8.8V98c-3.11.35-6.37.48-8.8.51l-.58-2.34a69.51,69.51,0,0,0,10.14-.54A35.44,35.44,0,0,0,23,93.79L24.67,96c-.7.19-1.31.35-1.79.45-1.54.41-3.68.89-5.86,1.25v6.07Z"/><path class="text1_svg_1" d="M12.19,147.84c-.54,6.5-2.21,10.27-10.14,12.22a5.79,5.79,0,0,0-1.35-2c7.33-1.57,8.61-4.67,9.06-10.21Zm1.7-11.65H1.38V134H13.89v-3.14h2.43V134H29.09v2.2H16.32v3.17h9.92v2.11H4.35v-2.11h9.54Zm11.93,13.95v-3.93H4.51v3.93H2.21V144h26v6.11Zm-.16,7.14c1.19,0,1.38-.54,1.47-4.13a8.15,8.15,0,0,0,2.18.93c-.29,4.29-.93,5.38-3.42,5.38H21.21c-2.88,0-3.61-.71-3.61-3.17v-8.48H20v8.45c0,.86.22,1,1.47,1Z"/><path class="text1_svg_1" d="M10.24,173.12a54.64,54.64,0,0,0-1.47,8.58c1.25-3.2,4.48-7,8.41-7,4.1,0,7.07,4.13,7.07,10.65,0,8.55-5.4,12.39-13.08,13.76L9.7,196.8c6.72-1,12-3.68,12-11.45,0-4.9-1.63-8.42-4.89-8.42-3.84,0-7.43,5.6-7.81,9.69A12.74,12.74,0,0,0,9,190.4l-2.4.19a36.59,36.59,0,0,1-.35-4.92,87.15,87.15,0,0,1,.93-10A24.21,24.21,0,0,0,7.46,173Z"/><path class="text1_svg_1" d="M14.75,234.34a25.73,25.73,0,0,0,2.66-.36c4-.89,7.87-3.8,7.87-9.15a8.65,8.65,0,0,0-8.23-9,60.58,60.58,0,0,1-1.88,8.93c-1.86,6.36-4.35,9.66-7.23,9.66s-5.51-3.2-5.51-8.32c0-6.72,6-12.57,13.57-12.57,7.23,0,11.84,5.12,11.84,11.39,0,6.46-4.26,10.84-11.62,11.8ZM12.7,224.23a49.33,49.33,0,0,0,1.73-8.36c-5.95.77-9.53,5.83-9.53,10,0,3.93,1.82,5.63,3.13,5.63S11.14,229.47,12.7,224.23Z"/><path class="text1_svg_1" d="M9.54,254.4a36.13,36.13,0,0,1-6.92,11.23,11.15,11.15,0,0,0-2.08-1.4,28.21,28.21,0,0,0,6.4-10.47ZM25.41,264c-3,8.93-9.44,13.18-21.22,15a8.85,8.85,0,0,0-1.28-2.31c11.26-1.47,17.34-5.31,20.06-13.47Zm-9-14.21v16.13c0,1.47-.35,2.15-1.41,2.56s-2.78.45-5.47.45a8.15,8.15,0,0,0-.86-2.43c2.11.06,4.06,0,4.61,0s.73-.16.73-.64v-16.1ZM23,253.47a49.62,49.62,0,0,1,7,10.47l-2.37,1.28a44.71,44.71,0,0,0-6.75-10.66Z"/><path class="text1_svg_1" d="M24.54,300.71c-1,5-2.62,8.8-5.18,11.74a59.43,59.43,0,0,1,9.47,5.44L27,320.06a59.19,59.19,0,0,0-9.57-5.75C14,317.19,9.22,319,2.43,320a8.51,8.51,0,0,0-1.25-2.24c6.15-.83,10.53-2.3,13.73-4.67-2.46-1.12-5-2.18-7.39-3.07l-.74,1.56-2.33-.86c1.28-2.62,2.88-6.24,4.45-10h-8v-2.4h9C11,295.65,12,293,12.83,290.72l2.53.45c-.83,2.21-1.79,4.64-2.82,7.14H29.6v2.4Zm-13,0c-1.05,2.52-2.11,5-3.1,7.23,2.69.93,5.6,2.08,8.44,3.36,2.5-2.63,4-6.08,5-10.59Z"/><path class="text1_svg_1" d="M0,340.87V330.75H2.37v7.81H22.59v2.31Z"/><path class="text1_svg_1" d="M15.68,378.08c.1-1.18.13-3.2.13-4.8-2.88,1.57-4.87,3.14-4.87,5.18,0,2.44,2.37,2.79,5.57,2.79a53.48,53.48,0,0,0,8.45-.77l-.1,2.56a84.34,84.34,0,0,1-8.44.51c-4.42,0-8-1-8-4.73s3.68-6,7.29-7.88a2.59,2.59,0,0,0-2.78-1.85,8,8,0,0,0-5.35,2.27c-.89.87-1.76,2-2.84,3.23L2.66,373a31.66,31.66,0,0,0,7.1-9.47H8.45c-1.28,0-3.36,0-5.09-.16V361a43,43,0,0,0,5.22.36c.64,0,1.31,0,2,0a16.07,16.07,0,0,0,.8-3.84l2.59.23c-.19.89-.48,2.14-.92,3.55a81.81,81.81,0,0,0,9.47-1l0,2.34a87.34,87.34,0,0,1-10.27.83,19.72,19.72,0,0,1-2.81,4.77,9.18,9.18,0,0,1,4.32-1.16,3.91,3.91,0,0,1,4.09,2.82c2.15-1,4-1.76,5.63-2.5.93-.41,1.7-.76,2.56-1.18l1,2.3c-.74.23-1.89.68-2.72,1-1.73.64-4,1.53-6.31,2.65,0,1.76.07,4.39.1,5.89Z"/></g></g></svg>