<svg width="443.7px" height="323.2px" viewBox="0 0 443.7 323.2">
<!-- <svg width="443.7px" height="323.2px" viewBox="-50 0 543.7 323.2"> -->
<style type="text/css">
	.st0{fill:#542D71;stroke:#542D71;stroke-width:3.1565;stroke-linecap:round;stroke-linejoin:round;stroke-miterlimit:10;}
	.st1{fill:#542D71;stroke:#542D71;stroke-width:2.75;stroke-linecap:round;stroke-linejoin:round;stroke-miterlimit:10;}
	.st2{fill:#D7BC6E;}
	<!-- .st2{fill:#fff;} -->
</style>
<defs>
</defs>
<g class="bgsvg">
	<g class="h">
		<path class="st0" d="M50.5,12.2v65.5c0,1.9,0.9,3.4,2.6,4.3c1.1,0.6,1.7,1.4,1.7,2.2v2.5c0,0.8-0.6,1.3-1.7,1.3H33.2
			c-1,0-1.5-0.4-1.5-1.2v-2.6c0-0.8,0.6-1.6,1.7-2.2c1.7-1,2.6-2.4,2.6-4.3V46H20.5v31.7c0,1.9,0.8,3.4,2.5,4.3
			c1.2,0.6,1.7,1.4,1.7,2.2v2.5c0,0.8-0.6,1.3-1.7,1.3h-20c-1,0-1.5-0.4-1.5-1.2v-2.6c0-0.8,0.6-1.6,1.7-2.2c1.7-1,2.5-2.4,2.5-4.3
			V12.2c0-1.9-0.8-3.3-2.5-4.3C2.2,7.3,1.6,6.5,1.6,5.6V3.2c0-0.8,0.6-1.3,1.7-1.3h20c1,0,1.5,0.4,1.5,1.2v2.5
			c0,0.8-0.6,1.6-1.7,2.3c-1.7,1-2.5,2.4-2.5,4.3v26.1H36V12.2c0-1.9-0.9-3.3-2.6-4.3c-1.2-0.6-1.7-1.4-1.7-2.3V3.2
			c0-0.8,0.6-1.3,1.7-1.3h19.9c1,0,1.5,0.4,1.5,1.2v2.5c0,0.8-0.6,1.6-1.6,2.3C51.4,8.9,50.5,10.3,50.5,12.2z"/>
		<path class="st0" d="M77.3,12.8L76.7,9c-0.2-1.2-0.3-1.9-0.3-2c0-0.4,0.3-0.7,1-0.9l11.4-4.4c0.2-0.1,0.4-0.1,0.6-0.1
			c0.6,0,1,0.3,1.2,1l18.2,75.1c0.3,1.4,0.7,2.3,1.2,2.9c0.5,0.6,1.4,1.2,2.7,1.9c1,0.5,1.5,1.1,1.5,1.8v2.4c0,0.9-0.4,1.3-1.3,1.3
			H90.5c-1.2,0-1.8-0.4-1.8-1.3v-2.4c0-0.8,0.7-1.6,2.2-2.2c1.8-0.8,2.6-1.8,2.6-3.2c0-0.4,0-0.8-0.1-1.3l-2.8-11.6H73l-2.8,11.1
			C70.1,77.7,70,78,70,78.3c0,1.1,1,2.3,3,3.7c1.3,0.9,1.9,1.7,1.9,2.3v2.4c0,0.9-0.6,1.3-1.9,1.3H59c-1.6,0-2.3-0.4-2.3-1.3v-2.9
			c0-0.8,0.5-1.4,1.5-1.9c1.8-0.9,3-2.5,3.6-4.7L77.3,12.8z M81.9,30.6l-7,28.4h13.9L81.9,30.6z"/>
		<path class="st0" d="M136,48.4v29.3c0,1.9,0.8,3.4,2.5,4.3c1.2,0.6,1.7,1.4,1.7,2.2v2.5c0,0.8-0.6,1.3-1.7,1.3h-20.9
			c-1,0-1.5-0.4-1.5-1.2v-2.6c0-0.8,0.6-1.6,1.7-2.2c1.7-1,2.5-2.4,2.5-4.3V12.2c0-1.9-0.8-3.3-2.5-4.3c-1.2-0.6-1.7-1.4-1.7-2.3
			V3.2c0-0.8,0.6-1.3,1.7-1.3H136c9.8,0,17.4,2.1,22.8,6.3c5.4,4.2,8.1,9.8,8.1,16.9C166.9,40.6,156.6,48.4,136,48.4z M136,8.5
			v33.4c4,0,7-0.4,8.8-1.1c1.9-0.8,3.3-2.3,4.5-4.5c1.1-2.3,1.7-5.8,1.7-10.5c0-4.7-0.5-8.3-1.5-10.6c-1-2.3-2.6-4-4.6-5
			C142.7,9.1,139.8,8.6,136,8.5z"/>
		<path class="st0" d="M184.6,48.4v29.3c0,1.9,0.8,3.4,2.5,4.3c1.2,0.6,1.7,1.4,1.7,2.2v2.5c0,0.8-0.6,1.3-1.7,1.3h-20.9
			c-1,0-1.5-0.4-1.5-1.2v-2.6c0-0.8,0.6-1.6,1.7-2.2c1.7-1,2.5-2.4,2.5-4.3V12.2c0-1.9-0.8-3.3-2.5-4.3c-1.2-0.6-1.7-1.4-1.7-2.3
			V3.2c0-0.8,0.6-1.3,1.7-1.3h18.1c9.8,0,17.4,2.1,22.8,6.3c5.4,4.2,8.1,9.8,8.1,16.9C215.5,40.6,205.2,48.4,184.6,48.4z
			 M184.6,8.5v33.4c4,0,7-0.4,8.8-1.1c1.9-0.8,3.3-2.3,4.5-4.5c1.1-2.3,1.7-5.8,1.7-10.5c0-4.7-0.5-8.3-1.5-10.6
			c-1-2.3-2.6-4-4.6-5C191.3,9.1,188.4,8.6,184.6,8.5z"/>
		<path class="st0" d="M245.7,49.6v28.1c0,1.9,0.9,3.4,2.6,4.3c1.1,0.6,1.7,1.4,1.7,2.2v2.5c0,0.8-0.6,1.3-1.7,1.3h-20.9
			c-1,0-1.5-0.4-1.5-1.2v-2.6c0-0.8,0.6-1.6,1.7-2.2c1.7-1,2.5-2.4,2.5-4.3V49.6l-13.4-37.5c-0.8-2.2-2.2-3.7-4-4.4
			c-1-0.4-1.5-1-1.5-1.9V3.1c0-0.8,0.4-1.2,1.3-1.2h21.7c1.3,0,1.9,0.5,1.9,1.4V6c0,0.7-0.6,1.2-1.9,1.5c-2,0.6-2.9,1.4-2.9,2.5
			c0,0.4,0.1,0.8,0.3,1.2l9.8,26.9l8.8-24.6c0.3-0.9,0.5-1.8,0.5-2.7c0-1.4-1-2.5-3-3.2c-1.2-0.4-1.7-0.9-1.7-1.6V3.2
			c0-0.8,0.5-1.3,1.5-1.3H264c1.3,0,1.9,0.4,1.9,1.2V6c0,0.8-0.6,1.5-1.9,1.9c-2.5,1-4.2,2.6-5,4.7L245.7,49.6z"/>
	</g>
	<g class="h">
		<path class="st0" d="M50.5,106.6v65.5c0,1.9,0.9,3.4,2.6,4.3c1.1,0.6,1.7,1.4,1.7,2.2v2.5c0,0.8-0.6,1.3-1.7,1.3H33.2
			c-1,0-1.5-0.4-1.5-1.2v-2.6c0-0.8,0.6-1.6,1.7-2.2c1.7-1,2.6-2.4,2.6-4.3v-31.7H20.5v31.7c0,1.9,0.8,3.4,2.5,4.3
			c1.2,0.6,1.7,1.4,1.7,2.2v2.5c0,0.8-0.6,1.3-1.7,1.3h-20c-1,0-1.5-0.4-1.5-1.2v-2.6c0-0.8,0.6-1.6,1.7-2.2c1.7-1,2.5-2.4,2.5-4.3
			v-65.5c0-1.9-0.8-3.3-2.5-4.3c-1.2-0.6-1.7-1.4-1.7-2.3v-2.4c0-0.8,0.6-1.3,1.7-1.3h20c1,0,1.5,0.4,1.5,1.2v2.5
			c0,0.8-0.6,1.6-1.7,2.3c-1.7,1-2.5,2.4-2.5,4.3v26.1H36v-26.1c0-1.9-0.9-3.3-2.6-4.3c-1.2-0.6-1.7-1.4-1.7-2.3v-2.4
			c0-0.8,0.6-1.3,1.7-1.3h19.9c1,0,1.5,0.4,1.5,1.2v2.5c0,0.8-0.6,1.6-1.6,2.3C51.4,103.3,50.5,104.7,50.5,106.6z"/>
		<path class="st0" d="M77.3,107.2l-0.6-3.8c-0.2-1.2-0.3-1.9-0.3-2c0-0.4,0.3-0.7,1-0.9l11.4-4.4c0.2-0.1,0.4-0.1,0.6-0.1
			c0.6,0,1,0.3,1.2,1l18.2,75.1c0.3,1.4,0.7,2.3,1.2,2.9c0.5,0.6,1.4,1.2,2.7,1.9c1,0.5,1.5,1.1,1.5,1.8v2.4c0,0.9-0.4,1.3-1.3,1.3
			H90.5c-1.2,0-1.8-0.4-1.8-1.3v-2.4c0-0.8,0.7-1.6,2.2-2.2c1.8-0.8,2.6-1.8,2.6-3.2c0-0.4,0-0.8-0.1-1.3l-2.8-11.6H73l-2.8,11.1
			c-0.1,0.5-0.2,0.8-0.2,1.1c0,1.1,1,2.3,3,3.7c1.3,0.9,1.9,1.7,1.9,2.3v2.4c0,0.9-0.6,1.3-1.9,1.3H59c-1.6,0-2.3-0.4-2.3-1.3v-2.9
			c0-0.8,0.5-1.4,1.5-1.9c1.8-0.9,3-2.5,3.6-4.7L77.3,107.2z M81.9,125l-7,28.4h13.9L81.9,125z"/>
		<path class="st0" d="M136,142.8v29.3c0,1.9,0.8,3.4,2.5,4.3c1.2,0.6,1.7,1.4,1.7,2.2v2.5c0,0.8-0.6,1.3-1.7,1.3h-20.9
			c-1,0-1.5-0.4-1.5-1.2v-2.6c0-0.8,0.6-1.6,1.7-2.2c1.7-1,2.5-2.4,2.5-4.3v-65.5c0-1.9-0.8-3.3-2.5-4.3c-1.2-0.6-1.7-1.4-1.7-2.3
			v-2.4c0-0.8,0.6-1.3,1.7-1.3H136c9.8,0,17.4,2.1,22.8,6.3c5.4,4.2,8.1,9.8,8.1,16.9C166.9,135.1,156.6,142.8,136,142.8z
			 M136,102.9v33.4c4,0,7-0.4,8.8-1.1c1.9-0.8,3.3-2.3,4.5-4.5c1.1-2.3,1.7-5.8,1.7-10.5c0-4.7-0.5-8.3-1.5-10.6
			c-1-2.3-2.6-4-4.6-5C142.7,103.6,139.8,103,136,102.9z"/>
		<path class="st0" d="M184.6,142.8v29.3c0,1.9,0.8,3.4,2.5,4.3c1.2,0.6,1.7,1.4,1.7,2.2v2.5c0,0.8-0.6,1.3-1.7,1.3h-20.9
			c-1,0-1.5-0.4-1.5-1.2v-2.6c0-0.8,0.6-1.6,1.7-2.2c1.7-1,2.5-2.4,2.5-4.3v-65.5c0-1.9-0.8-3.3-2.5-4.3c-1.2-0.6-1.7-1.4-1.7-2.3
			v-2.4c0-0.8,0.6-1.3,1.7-1.3h18.1c9.8,0,17.4,2.1,22.8,6.3c5.4,4.2,8.1,9.8,8.1,16.9C215.5,135.1,205.2,142.8,184.6,142.8z
			 M184.6,102.9v33.4c4,0,7-0.4,8.8-1.1c1.9-0.8,3.3-2.3,4.5-4.5c1.1-2.3,1.7-5.8,1.7-10.5c0-4.7-0.5-8.3-1.5-10.6
			c-1-2.3-2.6-4-4.6-5C191.3,103.6,188.4,103,184.6,102.9z"/>
		<path class="st0" d="M245.7,144v28.1c0,1.9,0.9,3.4,2.6,4.3c1.1,0.6,1.7,1.4,1.7,2.2v2.5c0,0.8-0.6,1.3-1.7,1.3h-20.9
			c-1,0-1.5-0.4-1.5-1.2v-2.6c0-0.8,0.6-1.6,1.7-2.2c1.7-1,2.5-2.4,2.5-4.3V144l-13.4-37.5c-0.8-2.2-2.2-3.7-4-4.4
			c-1-0.4-1.5-1-1.5-1.9v-2.8c0-0.8,0.4-1.2,1.3-1.2h21.7c1.3,0,1.9,0.5,1.9,1.4v2.7c0,0.7-0.6,1.2-1.9,1.5c-2,0.6-2.9,1.4-2.9,2.5
			c0,0.4,0.1,0.8,0.3,1.2l9.8,26.9L250,108c0.3-0.9,0.5-1.8,0.5-2.7c0-1.4-1-2.5-3-3.2c-1.2-0.4-1.7-0.9-1.7-1.6v-2.9
			c0-0.8,0.5-1.3,1.5-1.3H264c1.3,0,1.9,0.4,1.9,1.2v2.9c0,0.8-0.6,1.5-1.9,1.9c-2.5,1-4.2,2.6-5,4.7L245.7,144z"/>
	</g>
	<g class="h">
		<path class="st0" d="M50.5,201v65.5c0,1.9,0.9,3.4,2.6,4.3c1.1,0.6,1.7,1.4,1.7,2.2v2.5c0,0.8-0.6,1.3-1.7,1.3H33.2
			c-1,0-1.5-0.4-1.5-1.2V273c0-0.8,0.6-1.6,1.7-2.2c1.7-1,2.6-2.4,2.6-4.3v-31.7H20.5v31.7c0,1.9,0.8,3.4,2.5,4.3
			c1.2,0.6,1.7,1.4,1.7,2.2v2.5c0,0.8-0.6,1.3-1.7,1.3h-20c-1,0-1.5-0.4-1.5-1.2V273c0-0.8,0.6-1.6,1.7-2.2c1.7-1,2.5-2.4,2.5-4.3
			V201c0-1.9-0.8-3.3-2.5-4.3c-1.2-0.6-1.7-1.4-1.7-2.3V192c0-0.8,0.6-1.3,1.7-1.3h20c1,0,1.5,0.4,1.5,1.2v2.5
			c0,0.8-0.6,1.6-1.7,2.3c-1.7,1-2.5,2.4-2.5,4.3V227H36V201c0-1.9-0.9-3.3-2.6-4.3c-1.2-0.6-1.7-1.4-1.7-2.3V192
			c0-0.8,0.6-1.3,1.7-1.3h19.9c1,0,1.5,0.4,1.5,1.2v2.5c0,0.8-0.6,1.6-1.6,2.3C51.4,197.7,50.5,199.1,50.5,201z"/>
		<path class="st0" d="M77.3,201.6l-0.6-3.8c-0.2-1.2-0.3-1.9-0.3-2c0-0.4,0.3-0.7,1-0.9l11.4-4.4c0.2-0.1,0.4-0.1,0.6-0.1
			c0.6,0,1,0.3,1.2,1l18.2,75.1c0.3,1.4,0.7,2.3,1.2,2.9c0.5,0.6,1.4,1.2,2.7,1.9c1,0.5,1.5,1.1,1.5,1.8v2.4c0,0.9-0.4,1.3-1.3,1.3
			H90.5c-1.2,0-1.8-0.4-1.8-1.3V273c0-0.8,0.7-1.6,2.2-2.2c1.8-0.8,2.6-1.8,2.6-3.2c0-0.4,0-0.8-0.1-1.3l-2.8-11.6H73L70.2,266
			c-0.1,0.5-0.2,0.8-0.2,1.1c0,1.1,1,2.3,3,3.7c1.3,0.9,1.9,1.7,1.9,2.3v2.4c0,0.9-0.6,1.3-1.9,1.3H59c-1.6,0-2.3-0.4-2.3-1.3v-2.9
			c0-0.8,0.5-1.4,1.5-1.9c1.8-0.9,3-2.5,3.6-4.7L77.3,201.6z M81.9,219.4l-7,28.4h13.9L81.9,219.4z"/>
		<path class="st0" d="M136,237.2v29.3c0,1.9,0.8,3.4,2.5,4.3c1.2,0.6,1.7,1.4,1.7,2.2v2.5c0,0.8-0.6,1.3-1.7,1.3h-20.9
			c-1,0-1.5-0.4-1.5-1.2V273c0-0.8,0.6-1.6,1.7-2.2c1.7-1,2.5-2.4,2.5-4.3V201c0-1.9-0.8-3.3-2.5-4.3c-1.2-0.6-1.7-1.4-1.7-2.3V192
			c0-0.8,0.6-1.3,1.7-1.3H136c9.8,0,17.4,2.1,22.8,6.3c5.4,4.2,8.1,9.8,8.1,16.9C166.9,229.5,156.6,237.2,136,237.2z M136,197.3
			v33.4c4,0,7-0.4,8.8-1.1c1.9-0.8,3.3-2.3,4.5-4.5c1.1-2.3,1.7-5.8,1.7-10.5c0-4.7-0.5-8.3-1.5-10.6c-1-2.3-2.6-4-4.6-5
			C142.7,198,139.8,197.4,136,197.3z"/>
		<path class="st0" d="M184.6,237.2v29.3c0,1.9,0.8,3.4,2.5,4.3c1.2,0.6,1.7,1.4,1.7,2.2v2.5c0,0.8-0.6,1.3-1.7,1.3h-20.9
			c-1,0-1.5-0.4-1.5-1.2V273c0-0.8,0.6-1.6,1.7-2.2c1.7-1,2.5-2.4,2.5-4.3V201c0-1.9-0.8-3.3-2.5-4.3c-1.2-0.6-1.7-1.4-1.7-2.3V192
			c0-0.8,0.6-1.3,1.7-1.3h18.1c9.8,0,17.4,2.1,22.8,6.3c5.4,4.2,8.1,9.8,8.1,16.9C215.5,229.5,205.2,237.2,184.6,237.2z
			 M184.6,197.3v33.4c4,0,7-0.4,8.8-1.1c1.9-0.8,3.3-2.3,4.5-4.5c1.1-2.3,1.7-5.8,1.7-10.5c0-4.7-0.5-8.3-1.5-10.6
			c-1-2.3-2.6-4-4.6-5C191.3,198,188.4,197.4,184.6,197.3z"/>
		<path class="st0" d="M245.7,238.4v28.1c0,1.9,0.9,3.4,2.6,4.3c1.1,0.6,1.7,1.4,1.7,2.2v2.5c0,0.8-0.6,1.3-1.7,1.3h-20.9
			c-1,0-1.5-0.4-1.5-1.2V273c0-0.8,0.6-1.6,1.7-2.2c1.7-1,2.5-2.4,2.5-4.3v-28.1L216.7,201c-0.8-2.2-2.2-3.7-4-4.4
			c-1-0.4-1.5-1-1.5-1.9v-2.8c0-0.8,0.4-1.2,1.3-1.2h21.7c1.3,0,1.9,0.5,1.9,1.4v2.7c0,0.7-0.6,1.2-1.9,1.5c-2,0.6-2.9,1.4-2.9,2.5
			c0,0.4,0.1,0.8,0.3,1.2l9.8,26.9l8.8-24.6c0.3-0.9,0.5-1.8,0.5-2.7c0-1.4-1-2.5-3-3.2c-1.2-0.4-1.7-0.9-1.7-1.6V192
			c0-0.8,0.5-1.3,1.5-1.3H264c1.3,0,1.9,0.4,1.9,1.2v2.9c0,0.8-0.6,1.5-1.9,1.9c-2.5,1-4.2,2.6-5,4.7L245.7,238.4z"/>
		<path class="st0" d="M330.6,275.7c0,0.9-0.8,1.1-1.5,1.1h-44.5c-1.1,0-1.6-0.4-1.6-1.3V273c0-0.8,0.7-1.6,2.2-2.5
			c1.3-0.8,1.9-2.2,1.9-4V201c0-1.9-0.8-3.4-2.5-4.3c-1.1-0.6-1.7-1.4-1.7-2.2v-2.7c0-0.7,0.5-1.1,1.6-1.1h41.2c1.2,0,2,0.3,2,1.3
			v15.7c0,0.8-0.1,1.4-0.3,1.5c-0.2,0.2-0.8,0.2-1.7,0.2h-2.5c-1.1,0-1.7-0.5-1.8-1.6c-0.5-2.9-1.4-5.3-2.6-7.4
			c-1.3-2-3.8-3.1-7.7-3.1h-8.4v31.3h3.1c1.9,0,3.2-0.3,4-0.9c0.7-0.6,1.6-2.5,2.7-5.7c0.4-1,0.5-1.4,0.7-1.6s0.5-0.3,1.2-0.3h2.9
			c1.2,0,1.7,0.5,1.7,1.4v20.9c0,0.9-0.5,1.3-1.6,1.3h-3.1c-0.7,0-1.1-0.1-1.4-0.4c-0.3-0.3-0.6-1.1-1.1-2.6
			c-0.8-2.6-1.7-4.2-2.6-4.8c-0.9-0.6-2.2-0.9-3.9-0.9h-2.7v35h9.1c3.4,0,5.7-0.7,7-2c1.3-1.3,2.9-4.9,4.8-10.8
			c0.4-1.3,1.3-2,2.4-2h2.9c1.1,0,1.7,0.5,1.7,1.4V275.7z"/>
		<path class="st0" d="M372.2,237.3v-36.3c0-1.9-0.8-3.3-2.5-4.3c-1.2-0.6-1.7-1.4-1.7-2.3v-2.4c0-0.9,0.6-1.3,1.7-1.3h15.2
			c1,0,1.5,0.4,1.5,1.2v2.5c0,0.8-0.6,1.6-1.7,2.3c-1.7,1-2.6,2.4-2.6,4.3v74.5c0,1.2-0.6,1.8-1.9,1.8h-3c-1.3,0-2.3-0.6-2.8-1.8
			L346.5,215v51.4c0,1.9,0.9,3.4,2.6,4.3c1.1,0.6,1.7,1.4,1.7,2.2v2.5c0,0.8-0.6,1.3-1.7,1.3h-15c-1,0-1.5-0.4-1.5-1.2V273
			c0-0.8,0.6-1.6,1.7-2.2c1.7-1,2.5-2.4,2.5-4.3v-65.5c0-1.9-0.8-3.3-2.5-4.3c-1.2-0.6-1.7-1.4-1.7-2.3v-2.4c0-0.8,0.6-1.3,1.7-1.3
			h14.2c1,0,1.7,0.1,2.1,0.3c0.4,0.2,0.7,0.7,1.1,1.5L372.2,237.3z"/>
		<path class="st0" d="M388.1,194.4v-2.9c0-0.6,0.5-0.8,1.5-0.8h17.4c9.8,0,18.1,3.3,24.9,9.9c6.7,6.6,10.1,17.4,10.1,32.2
			c0,7.7-1,15-3.1,22c-2,7-5.3,12.4-9.8,16.2c-4.5,3.8-12.1,5.7-22.7,5.7h-17.2c-0.8,0-1.2-0.3-1.2-0.9V273c0-0.8,0.6-1.6,1.7-2.2
			c1.7-1,2.5-2.5,2.5-4.3V201c0-1.9-0.7-3.2-2.2-4.1C388.8,196.1,388.1,195.3,388.1,194.4z M407.7,197.3v73.1
			c4.5,0,7.9-0.9,10.4-2.7c2.5-1.8,4.2-5.6,5.4-11.6c1.1-6,1.7-12.8,1.7-20.6c0-8.4-0.4-15-1.3-19.9c-0.8-4.9-1.9-8.6-3.2-11.1
			c-1.3-2.5-2.8-4.3-4.7-5.3C414.1,198.2,411.4,197.5,407.7,197.3z"/>
	</g>
	<g class="l">
		<path class="st1" d="M3.4,317v-27.5c0-0.8-0.4-1.4-1.1-1.8c-0.5-0.3-0.7-0.6-0.7-1v-1c0-0.4,0.2-0.5,0.7-0.5h8.8
			c0.4,0,0.6,0.2,0.6,0.5v1.1c0,0.4-0.2,0.7-0.7,1c-0.7,0.4-1.1,1-1.1,1.8v28.3c0,0.4,0.3,0.7,0.7,0.7h1.7c1.4,0,2.5-0.4,3.3-1.1
			c0.8-0.7,1.4-1.9,1.7-3.7c0.1-0.7,0.2-0.9,0.3-1c0.1-0.2,0.2-0.3,0.6-0.3h1.3c0.5,0,0.8,0.2,0.8,0.5v7.6c0,0.4-0.3,0.7-0.7,0.7
			H2.3c-0.6,0-0.9-0.2-0.9-0.7v-0.9c0-0.4,0.3-0.7,0.8-0.9C3,318.4,3.4,317.8,3.4,317z"/>
		<path class="st1" d="M40.3,312.9c0,2.8-0.9,4.9-2.6,6.5c-1.7,1.6-3.9,2.3-6.7,2.3c-2.8,0-5-0.8-6.8-2.3c-1.8-1.5-2.6-3.6-2.6-6.1
			v-23.9c0-0.8-0.4-1.4-1.1-1.8c-0.5-0.3-0.7-0.6-0.7-1v-1c0-0.4,0.2-0.5,0.7-0.5h8.8c0.4,0,0.6,0.2,0.6,0.5v1.1
			c0,0.4-0.2,0.7-0.7,1c-0.7,0.4-1.1,1-1.1,1.8v24.1c0,3.2,1.3,4.8,3.9,4.8c2.8,0,4.2-1.9,4.2-5.7v-23.3c0-0.8-0.4-1.4-1.1-1.8
			c-0.5-0.3-0.7-0.6-0.7-1v-1c0-0.4,0.2-0.5,0.7-0.5h6.3c0.4,0,0.6,0.2,0.6,0.5v1.1c0,0.4-0.2,0.7-0.7,1c-0.7,0.4-1.1,1-1.1,1.8
			V312.9z"/>
		<path class="st1" d="M45.1,317v-27.5c0-0.8-0.4-1.4-1.1-1.8c-0.5-0.3-0.7-0.6-0.7-1v-1c0-0.4,0.2-0.5,0.7-0.5h9.6
			c0.3,0,0.6,0.2,0.7,0.6l3.1,16.4l3.1-16.4c0.1-0.3,0.3-0.6,0.7-0.6h9.7c0.4,0,0.6,0.2,0.6,0.5v1.1c0,0.4-0.2,0.7-0.7,1
			c-0.7,0.4-1.1,1-1.1,1.8V317c0,0.8,0.4,1.4,1.1,1.8c0.5,0.3,0.7,0.6,0.7,0.9v1c0,0.4-0.2,0.5-0.7,0.5h-8.5
			c-0.4,0-0.6-0.2-0.6-0.5v-1.1c0-0.3,0.2-0.7,0.7-0.9c0.7-0.4,1.1-1,1.1-1.8v-28.1l-6,32.1c0,0.2-0.2,0.3-0.4,0.3h-1.6
			c-0.2,0-0.4-0.1-0.4-0.3l-5.9-32.1V317c0,0.8,0.4,1.4,1.1,1.8c0.5,0.3,0.7,0.6,0.7,0.9v1c0,0.4-0.2,0.5-0.7,0.5h-6.3
			c-0.4,0-0.6-0.2-0.6-0.5v-1.1c0-0.3,0.2-0.6,0.7-0.9C44.8,318.4,45.1,317.8,45.1,317z"/>
		<path class="st1" d="M81,317c0,0.8,0.4,1.4,1.1,1.8c0.5,0.3,0.7,0.6,0.7,0.9v1c0,0.4-0.2,0.5-0.7,0.5h-8.8
			c-0.4,0-0.6-0.2-0.6-0.5v-1.1c0-0.3,0.2-0.6,0.7-0.9c0.7-0.4,1.1-1,1.1-1.8v-27.5c0-0.8-0.4-1.4-1.1-1.8c-0.5-0.3-0.7-0.6-0.7-1
			v-1c0-0.4,0.2-0.5,0.7-0.5h8.8c0.4,0,0.6,0.2,0.6,0.5v1.1c0,0.4-0.2,0.7-0.7,1c-0.7,0.4-1.1,1-1.1,1.8V317z"/>
		<path class="st1" d="M100.6,304.7v-15.2c0-0.8-0.4-1.4-1.1-1.8c-0.5-0.3-0.7-0.6-0.7-1v-1c0-0.4,0.2-0.5,0.7-0.5h6.4
			c0.4,0,0.6,0.2,0.6,0.5v1.1c0,0.4-0.2,0.7-0.7,1c-0.7,0.4-1.1,1-1.1,1.8v31.2c0,0.5-0.3,0.7-0.8,0.7h-1.2c-0.6,0-1-0.2-1.2-0.7
			l-11.7-25.3V317c0,0.8,0.4,1.4,1.1,1.8c0.5,0.3,0.7,0.6,0.7,0.9v1c0,0.4-0.2,0.5-0.7,0.5h-6.3c-0.4,0-0.6-0.2-0.6-0.5v-1.1
			c0-0.3,0.2-0.6,0.7-0.9c0.7-0.4,1.1-1,1.1-1.8v-27.5c0-0.8-0.4-1.4-1.1-1.8c-0.5-0.3-0.7-0.6-0.7-1v-1c0-0.4,0.2-0.5,0.7-0.5h5.9
			c0.4,0,0.7,0,0.9,0.1c0.1,0.1,0.3,0.3,0.4,0.6L100.6,304.7z"/>
		<path class="st1" d="M127.7,320.8c0,0.4-0.4,0.5-0.6,0.5h-18.7c-0.4,0-0.7-0.2-0.7-0.6v-1c0-0.3,0.3-0.7,0.9-1.1
			c0.5-0.4,0.8-0.9,0.8-1.7v-27.5c0-0.8-0.3-1.4-1-1.8c-0.5-0.3-0.7-0.6-0.7-0.9v-1.1c0-0.3,0.2-0.4,0.7-0.4h17.3
			c0.5,0,0.8,0.1,0.8,0.5v6.6c0,0.4,0,0.6-0.1,0.6c-0.1,0.1-0.3,0.1-0.7,0.1h-1c-0.4,0-0.7-0.2-0.8-0.7c-0.2-1.2-0.6-2.2-1.1-3.1
			c-0.5-0.9-1.6-1.3-3.2-1.3H116v13.1h1.3c0.8,0,1.4-0.1,1.7-0.4c0.3-0.3,0.7-1.1,1.1-2.4c0.1-0.4,0.2-0.6,0.3-0.7
			c0.1-0.1,0.2-0.1,0.5-0.1h1.2c0.5,0,0.7,0.2,0.7,0.6v8.8c0,0.4-0.2,0.6-0.7,0.6h-1.3c-0.3,0-0.5-0.1-0.6-0.2
			c-0.1-0.1-0.3-0.5-0.4-1.1c-0.3-1.1-0.7-1.8-1.1-2c-0.4-0.2-0.9-0.4-1.6-0.4H116v14.7h3.8c1.4,0,2.4-0.3,2.9-0.8
			c0.5-0.5,1.2-2.1,2-4.5c0.2-0.6,0.5-0.8,1-0.8h1.2c0.5,0,0.7,0.2,0.7,0.6V320.8z"/>
		<path class="st1" d="M160.7,312.3c0.3,0,0.5,0.3,0.5,0.6c-0.3,2.6-1.1,4.7-2.5,6.3c-1.5,1.7-3.5,2.5-5.9,2.5
			c-3.5,0-6.3-1.6-8.4-4.7c-2.1-3.1-3.2-7.7-3.2-13.7c0-6,1-10.5,3.1-13.8c2.1-3.2,4.7-4.8,7.9-4.8c1.3,0,2.8,0.4,4.4,1.1
			c0.4,0.2,0.7-0.1,0.9-0.2c0.2-0.1,0.4-0.4,0.9-0.4s1.4,0,1.4,0c0.4,0,0.5,0.2,0.5,0.7v6.9c0,0.4-0.2,0.7-0.5,0.7h-1.2
			c-0.4,0-0.7-0.1-0.8-0.3c-0.1-0.2-0.3-0.6-0.6-1.4c-1.1-3.6-2.7-4.4-4.5-4.4c-1.1,0-2,0.5-2.6,1.4c-0.6,0.9-1.1,2.7-1.4,5.3
			c-0.3,2.6-0.5,5.2-0.5,7.8c0,5.8,0.4,10,1.2,12.7c0.8,2.7,2.2,4.1,4.1,4.1c2.3,0,3.8-2,4.6-6c0.1-0.3,0.3-0.5,0.6-0.5
			L160.7,312.3z"/>
		<path class="st1" d="M181.8,289.4v27.5c0,0.8,0.4,1.4,1.1,1.8c0.5,0.3,0.7,0.6,0.7,0.9v1c0,0.4-0.2,0.5-0.7,0.5h-8.2
			c-0.4,0-0.6-0.2-0.6-0.5v-1.1c0-0.3,0.2-0.6,0.7-0.9c0.7-0.4,1.1-1,1.1-1.8v-13.3h-6.5v13.3c0,0.8,0.4,1.4,1.1,1.8
			c0.5,0.3,0.7,0.6,0.7,0.9v1c0,0.4-0.2,0.5-0.7,0.5h-8.2c-0.4,0-0.6-0.2-0.6-0.5v-1.1c0-0.3,0.2-0.6,0.7-0.9
			c0.7-0.4,1.1-1,1.1-1.8v-27.5c0-0.8-0.4-1.4-1.1-1.8c-0.5-0.3-0.7-0.6-0.7-1v-1c0-0.4,0.2-0.5,0.7-0.5h8.2c0.4,0,0.6,0.2,0.6,0.5
			v1.1c0,0.4-0.2,0.7-0.7,1c-0.7,0.4-1.1,1-1.1,1.8v10.9h6.5v-10.9c0-0.8-0.4-1.4-1.1-1.8c-0.5-0.3-0.7-0.6-0.7-1v-1
			c0-0.4,0.2-0.5,0.7-0.5h8.2c0.4,0,0.6,0.2,0.6,0.5v1.1c0,0.4-0.2,0.7-0.7,1C182.2,288,181.8,288.6,181.8,289.4z"/>
		<path class="st1" d="M193,304.3v12.6c0,0.8,0.4,1.4,1.1,1.8c0.5,0.3,0.7,0.6,0.7,0.9v1c0,0.4-0.2,0.5-0.7,0.5h-8.8
			c-0.4,0-0.6-0.2-0.6-0.5v-1.1c0-0.3,0.2-0.6,0.7-0.9c0.7-0.4,1.1-1,1.1-1.8v-27.5c0-0.8-0.4-1.4-1.1-1.8c-0.5-0.3-0.7-0.6-0.7-1
			v-1c0-0.4,0.2-0.5,0.7-0.5h7.4c4.2,0,7.3,0.8,9.5,2.3c2.2,1.5,3.3,3.8,3.3,6.7c0,4.7-2.6,7.7-7.8,9c1.5,0.6,2.7,1.3,3.5,2.1
			c0.8,0.8,1.4,1.9,1.8,3.4l2.1,7.4c0.3,0.9,0.5,1.6,0.8,1.9c0.3,0.3,0.6,0.6,1,0.8c0.3,0.2,0.5,0.4,0.5,0.8v1.1
			c0,0.3-0.2,0.5-0.6,0.5h-5.6c-0.5,0-0.9-0.2-1-0.7l-3.8-12.8c-0.4-1.4-0.9-2.3-1.4-2.7C194.4,304.5,193.7,304.3,193,304.3z
			 M193,287.9v13.6c2,0,3.5-0.5,4.5-1.6c1-1.1,1.4-2.9,1.4-5.6c0-2.6-0.5-4.4-1.4-5.2C196.5,288.3,195,287.9,193,287.9z"/>
		<path class="st1" d="M216.7,316.9c0,0.8,0.4,1.4,1.1,1.8c0.5,0.3,0.7,0.6,0.7,0.9v1c0,0.4-0.2,0.5-0.7,0.5H209
			c-0.4,0-0.6-0.2-0.6-0.5v-1.1c0-0.3,0.2-0.6,0.7-0.9c0.7-0.4,1.1-1,1.1-1.8v-27.5c0-0.8-0.4-1.4-1.1-1.8c-0.5-0.3-0.7-0.6-0.7-1
			v-1c0-0.4,0.2-0.5,0.7-0.5h8.8c0.4,0,0.6,0.2,0.6,0.5v1.1c0,0.4-0.2,0.7-0.7,1c-0.7,0.4-1.1,1-1.1,1.8V316.9z"/>
		<path class="st1" d="M221.9,321.2h-1.4c-0.5,0-0.7-0.2-0.7-0.6v-8.1c0-0.6,0.3-0.9,0.8-0.9h1.2c0.3,0,0.5,0.1,0.6,0.3
			c0.1,0.2,0.2,0.8,0.4,1.8c0.8,4.1,3,5.4,5.3,5.4c1.4,0,2.5-0.5,3.4-1.5c0.8-1,1.2-2.3,1.2-3.7c0-1.5-0.4-2.9-1.3-4.2
			c-0.9-1.3-2.6-3-5-5.2c-1.9-1.7-3.3-3-4.1-3.9c-0.8-0.9-1.5-2-2-3.1c-0.5-1.2-0.7-2.4-0.7-3.8c0-2.6,0.8-4.7,2.3-6.3
			c1.6-1.7,3.5-2.5,5.7-2.5c1,0,2.1,0.2,3.3,0.7c0.4,0.2,0.6,0.2,0.8,0.3c0.3,0.1,0.5-0.1,0.6-0.3c0.3-0.5,0.7-0.5,1.1-0.5
			c0.4,0,1,0,1,0c0.5,0,0.8,0.2,0.8,0.6v7c0,0.4-0.2,0.6-0.6,0.6h-1.3c-0.3,0-0.6-0.1-0.7-0.2c-0.1-0.1-0.3-0.7-0.5-1.7
			c-0.9-3.4-2.3-3.9-4.3-3.9c-1.1,0-1.9,0.4-2.6,1.1c-0.6,0.7-1,1.6-1,2.6c0,1.1,0.4,2.3,1.1,3.5c0.8,1.2,2.3,2.7,4.5,4.7
			c2.9,2.5,4.9,4.6,6,6.5c1.1,1.9,1.7,3.9,1.7,6.1c0,2.9-0.9,5.3-2.8,7.2c-1.9,1.8-4.1,2.8-6.6,2.8c-1.1,0-2.5-0.2-4-0.7
			c-0.5-0.2-0.8-0.3-1-0.3c-0.2,0-0.4,0.1-0.7,0.2C222.2,321.2,222,321.2,221.9,321.2z"/>
		<path class="st1" d="M250.4,288.3v28.6c0,0.8,0.4,1.4,1.1,1.8c0.5,0.3,0.7,0.6,0.7,0.9v1c0,0.4-0.2,0.5-0.7,0.5h-8.8
			c-0.4,0-0.6-0.2-0.6-0.5v-1.1c0-0.3,0.2-0.6,0.7-0.9c0.7-0.4,1.1-1,1.1-1.8v-28.6h-1.2c-0.9,0-1.6,0.3-2,0.9
			c-0.4,0.6-0.8,1.8-1.2,3.8c0,0.3-0.2,0.4-0.6,0.4h-1.1c-0.6,0-1-0.2-1-0.7v-6.8c0-0.5,0.3-0.8,0.9-0.8c0.4,0,1,0.1,2,0.2
			c1.5,0.2,2.7,0.3,3.5,0.3h10c0.5-0.1,1.1-0.1,1.9-0.3c1.1-0.1,1.7-0.2,1.9-0.2c0.5,0,0.8,0.2,0.8,0.6v6.9c0,0.4-0.2,0.7-0.7,0.7
			h-1.1c-0.4,0-0.7-0.1-0.8-0.3c-0.1-0.2-0.2-0.7-0.4-1.5c-0.3-1.3-0.7-2.2-1-2.6c-0.4-0.4-1-0.6-1.9-0.6H250.4z"/>
		<path class="st1" d="M260.7,316.9v-27.5c0-0.8-0.4-1.4-1.1-1.8c-0.5-0.3-0.7-0.6-0.7-1v-1c0-0.4,0.2-0.5,0.7-0.5h9.6
			c0.3,0,0.6,0.2,0.7,0.6L273,302l3.1-16.4c0.1-0.3,0.3-0.6,0.7-0.6h9.7c0.4,0,0.6,0.2,0.6,0.5v1.1c0,0.4-0.2,0.7-0.7,1
			c-0.7,0.4-1.1,1-1.1,1.8v27.5c0,0.8,0.4,1.4,1.1,1.8c0.5,0.3,0.7,0.6,0.7,0.9v1c0,0.4-0.2,0.5-0.7,0.5h-8.5
			c-0.4,0-0.6-0.2-0.6-0.5v-1.1c0-0.3,0.2-0.7,0.7-0.9c0.7-0.4,1.1-1,1.1-1.8v-28.1l-6,32.1c0,0.2-0.2,0.3-0.4,0.3h-1.6
			c-0.2,0-0.4-0.1-0.4-0.3l-5.9-32.1v28.1c0,0.8,0.4,1.4,1.1,1.8c0.5,0.3,0.7,0.6,0.7,0.9v1c0,0.4-0.2,0.5-0.7,0.5h-6.3
			c-0.4,0-0.6-0.2-0.6-0.5v-1.1c0-0.3,0.2-0.6,0.7-0.9C260.3,318.3,260.7,317.7,260.7,316.9z"/>
		<path class="st1" d="M297.1,289.7l-0.3-1.6c-0.1-0.5-0.1-0.8-0.1-0.9c0-0.2,0.1-0.3,0.4-0.4l4.8-1.8c0.1,0,0.2,0,0.3,0
			c0.3,0,0.4,0.1,0.5,0.4l7.6,31.5c0.1,0.6,0.3,1,0.5,1.2c0.2,0.2,0.6,0.5,1.1,0.8c0.4,0.2,0.6,0.5,0.6,0.7v1
			c0,0.4-0.2,0.6-0.5,0.6h-9.4c-0.5,0-0.8-0.2-0.8-0.6v-1c0-0.4,0.3-0.7,0.9-0.9c0.7-0.3,1.1-0.8,1.1-1.3c0-0.2,0-0.3-0.1-0.5
			l-1.2-4.8h-7.3l-1.2,4.7c-0.1,0.2-0.1,0.3-0.1,0.4c0,0.5,0.4,1,1.3,1.5c0.5,0.4,0.8,0.7,0.8,1v1c0,0.4-0.3,0.6-0.8,0.6h-5.9
			c-0.7,0-1-0.2-1-0.6v-1.2c0-0.3,0.2-0.6,0.6-0.8c0.8-0.4,1.3-1,1.5-2L297.1,289.7z M299,297.1l-2.9,11.9h5.8L299,297.1z"/>
		<path class="st1" d="M316,321.2h-1.4c-0.5,0-0.7-0.2-0.7-0.6v-8.1c0-0.6,0.3-0.9,0.8-0.9h1.2c0.3,0,0.5,0.1,0.6,0.3
			c0.1,0.2,0.2,0.8,0.4,1.8c0.8,4.1,3,5.4,5.3,5.4c1.4,0,2.5-0.5,3.4-1.5c0.8-1,1.2-2.3,1.2-3.7c0-1.5-0.4-2.9-1.3-4.2
			c-0.9-1.3-2.6-3-5-5.2c-1.9-1.7-3.3-3-4.1-3.9c-0.8-0.9-1.5-2-2-3.1c-0.5-1.2-0.7-2.4-0.7-3.8c0-2.6,0.8-4.7,2.3-6.3
			c1.6-1.7,3.5-2.5,5.7-2.5c1,0,2.1,0.2,3.3,0.7c0.4,0.2,0.6,0.2,0.8,0.3c0.3,0.1,0.5-0.1,0.6-0.3c0.3-0.5,0.7-0.5,1.1-0.5s1,0,1,0
			c0.5,0,0.8,0.2,0.8,0.6v7c0,0.4-0.2,0.6-0.6,0.6h-1.3c-0.3,0-0.6-0.1-0.7-0.2c-0.1-0.1-0.3-0.7-0.5-1.7c-0.9-3.4-2.3-3.9-4.3-3.9
			c-1.1,0-1.9,0.4-2.6,1.1c-0.6,0.7-1,1.6-1,2.6c0,1.1,0.4,2.3,1.1,3.5c0.8,1.2,2.3,2.7,4.5,4.7c2.9,2.5,4.9,4.6,6,6.5
			c1.1,1.9,1.7,3.9,1.7,6.1c0,2.9-0.9,5.3-2.8,7.2c-1.9,1.8-4.1,2.8-6.6,2.8c-1.1,0-2.5-0.2-4-0.7c-0.5-0.2-0.8-0.3-1-0.3
			c-0.2,0-0.4,0.1-0.7,0.2C316.3,321.2,316.1,321.2,316,321.2z"/>
		<path class="st1" d="M363.6,320.7h-19.1c-0.7,0-1.1-0.3-1.1-0.9c0-1.9,0.5-3.6,1.5-5l6.2-9.1c1.8-2.6,3.2-4.9,4.2-7
			c1-2.1,1.5-4.1,1.5-6.1c0-1.6-0.4-2.9-1.2-4c-0.8-1-1.8-1.5-3.1-1.5c-1,0-1.8,0.2-2.5,0.7c-0.7,0.5-1,0.9-1,1.2
			c0,0.1,0.2,0.3,0.6,0.6c1.1,0.7,1.7,1.5,1.7,2.4c0,0.7-0.3,1.4-0.9,1.9s-1.4,0.8-2.4,0.8c-1.2,0-2.1-0.3-2.7-1
			c-0.7-0.6-1-1.5-1-2.5c0-1.8,0.8-3.4,2.5-4.7c1.7-1.3,3.9-2,6.6-2c3,0,5.4,0.8,7.2,2.3c1.8,1.5,2.7,3.6,2.7,6.2
			c0,2.3-0.7,4.5-2,6.6c-1.3,2.1-3.9,5.1-7.5,9.1c-3.1,3.4-5.1,5.9-5.8,7.6h9.9c0.8,0,1.4-0.1,1.8-0.4c0.4-0.3,0.7-0.7,0.9-1.4
			c0.2-0.6,0.6-1,1.1-1h1.3c0.5,0,0.7,0.2,0.7,0.6V320.7z"/>
		<path class="st1" d="M373.8,284.6c3.3,0,5.8,1.6,7.5,4.7c1.7,3.1,2.6,7.7,2.6,13.7c0,6.1-0.9,10.7-2.6,13.7
			c-1.7,3-4.1,4.6-7.1,4.6c-2.9,0-5.3-1.5-7.2-4.5c-1.9-3-2.8-7.4-2.8-13.2c0-6.4,0.9-11.2,2.7-14.3
			C368.6,286.2,371,284.6,373.8,284.6z M377.4,295.9c0-5.9-1.1-8.8-3.4-8.8c-1.3,0-2.2,0.9-2.7,2.7c-0.4,1.8-0.7,4.1-0.7,6.8v14.2
			c0,5.4,1.1,8.1,3.4,8.1c1.2,0,2-0.7,2.6-2.1c0.5-1.4,0.8-4.2,0.8-8.4V295.9z"/>
		<path class="st1" d="M387.2,289.5h-3.9c-0.3,0-0.5-0.1-0.5-0.4v-1.3c0-0.3,0.2-0.5,0.5-0.6l5.9-2.2c0.6-0.2,1.1-0.3,1.5-0.3h2.1
			c0.4,0,0.6,0.2,0.6,0.5v30.3c0,1,0.2,1.7,0.5,2.1c0.3,0.4,1,0.7,2,0.7c0.5,0,0.8,0.3,0.8,0.6v1.4c0,0.3-0.2,0.5-0.6,0.5h-11.7
			c-0.5,0-0.7-0.2-0.7-0.5V319c0-0.4,0.3-0.7,1-0.8c0.9-0.1,1.5-0.4,1.9-0.8c0.4-0.4,0.6-1.1,0.6-2V289.5z"/>
		<path class="st1" d="M402.5,302.9c-2.1-1.9-3.5-3.5-4.3-5c-0.8-1.5-1.2-3-1.2-4.7c0-2.5,0.8-4.5,2.4-6.1c1.6-1.6,3.7-2.5,6.4-2.5
			c2.6,0,4.7,0.7,6.3,2.2c1.7,1.5,2.5,3.2,2.5,5.1c0,2.7-1.9,5.5-5.7,8.4c4.9,3.3,7.4,7,7.4,11.2c0,2.8-0.9,5.1-2.7,6.9
			c-1.8,1.8-4.3,2.7-7.4,2.7c-3,0-5.4-0.9-7.3-2.6c-1.9-1.7-2.9-3.7-2.9-6.1C396,309.2,398.2,306,402.5,302.9z M404.3,304.2
			c-2.5,2.8-3.8,5.6-3.8,8.3c0,1.9,0.5,3.4,1.6,4.5c1.1,1.2,2.5,1.7,4.2,1.7c1.5,0,2.7-0.5,3.7-1.4c0.9-1,1.4-2.1,1.4-3.6
			C411.4,310.7,409.1,307.5,404.3,304.2z M407.3,299c2.2-2.4,3.3-4.6,3.3-6.7c0-1.5-0.5-2.8-1.4-3.8c-0.9-1-2-1.5-3.3-1.5
			c-1.2,0-2.3,0.4-3.1,1.2c-0.8,0.8-1.2,1.8-1.2,3C401.7,293.8,403.5,296.4,407.3,299z"/>
	</g>
</g>
<g class="frontsvg">
	<g class="h">
		<path class="st2" d="M50.5,12.2v65.5c0,1.9,0.9,3.4,2.6,4.3c1.1,0.6,1.7,1.4,1.7,2.2v2.5c0,0.8-0.6,1.3-1.7,1.3H33.2
			c-1,0-1.5-0.4-1.5-1.2v-2.6c0-0.8,0.6-1.6,1.7-2.2c1.7-1,2.6-2.4,2.6-4.3V46H20.5v31.7c0,1.9,0.8,3.4,2.5,4.3
			c1.2,0.6,1.7,1.4,1.7,2.2v2.5c0,0.8-0.6,1.3-1.7,1.3h-20c-1,0-1.5-0.4-1.5-1.2v-2.6c0-0.8,0.6-1.6,1.7-2.2c1.7-1,2.5-2.4,2.5-4.3
			V12.2c0-1.9-0.8-3.3-2.5-4.3C2.2,7.3,1.6,6.5,1.6,5.6V3.2c0-0.8,0.6-1.3,1.7-1.3h20c1,0,1.5,0.4,1.5,1.2v2.5
			c0,0.8-0.6,1.6-1.7,2.3c-1.7,1-2.5,2.4-2.5,4.3v26.1H36V12.2c0-1.9-0.9-3.3-2.6-4.3c-1.2-0.6-1.7-1.4-1.7-2.3V3.2
			c0-0.8,0.6-1.3,1.7-1.3h19.9c1,0,1.5,0.4,1.5,1.2v2.5c0,0.8-0.6,1.6-1.6,2.3C51.4,8.9,50.5,10.3,50.5,12.2z"/>
		<path class="st2" d="M77.3,12.8L76.7,9c-0.2-1.2-0.3-1.9-0.3-2c0-0.4,0.3-0.7,1-0.9l11.4-4.4c0.2-0.1,0.4-0.1,0.6-0.1
			c0.6,0,1,0.3,1.2,1l18.2,75.1c0.3,1.4,0.7,2.3,1.2,2.9c0.5,0.6,1.4,1.2,2.7,1.9c1,0.5,1.5,1.1,1.5,1.8v2.4c0,0.9-0.4,1.3-1.3,1.3
			H90.5c-1.2,0-1.8-0.4-1.8-1.3v-2.4c0-0.8,0.7-1.6,2.2-2.2c1.8-0.8,2.6-1.8,2.6-3.2c0-0.4,0-0.8-0.1-1.3l-2.8-11.6H73l-2.8,11.1
			C70.1,77.7,70,78,70,78.3c0,1.1,1,2.3,3,3.7c1.3,0.9,1.9,1.7,1.9,2.3v2.4c0,0.9-0.6,1.3-1.9,1.3H59c-1.6,0-2.3-0.4-2.3-1.3v-2.9
			c0-0.8,0.5-1.4,1.5-1.9c1.8-0.9,3-2.5,3.6-4.7L77.3,12.8z M81.9,30.6l-7,28.4h13.9L81.9,30.6z"/>
		<path class="st2" d="M136,48.4v29.3c0,1.9,0.8,3.4,2.5,4.3c1.2,0.6,1.7,1.4,1.7,2.2v2.5c0,0.8-0.6,1.3-1.7,1.3h-20.9
			c-1,0-1.5-0.4-1.5-1.2v-2.6c0-0.8,0.6-1.6,1.7-2.2c1.7-1,2.5-2.4,2.5-4.3V12.2c0-1.9-0.8-3.3-2.5-4.3c-1.2-0.6-1.7-1.4-1.7-2.3
			V3.2c0-0.8,0.6-1.3,1.7-1.3H136c9.8,0,17.4,2.1,22.8,6.3c5.4,4.2,8.1,9.8,8.1,16.9C166.9,40.6,156.6,48.4,136,48.4z M136,8.5
			v33.4c4,0,7-0.4,8.8-1.1c1.9-0.8,3.3-2.3,4.5-4.5c1.1-2.3,1.7-5.8,1.7-10.5c0-4.7-0.5-8.3-1.5-10.6c-1-2.3-2.6-4-4.6-5
			C142.7,9.1,139.8,8.6,136,8.5z"/>
		<path class="st2" d="M184.6,48.4v29.3c0,1.9,0.8,3.4,2.5,4.3c1.2,0.6,1.7,1.4,1.7,2.2v2.5c0,0.8-0.6,1.3-1.7,1.3h-20.9
			c-1,0-1.5-0.4-1.5-1.2v-2.6c0-0.8,0.6-1.6,1.7-2.2c1.7-1,2.5-2.4,2.5-4.3V12.2c0-1.9-0.8-3.3-2.5-4.3c-1.2-0.6-1.7-1.4-1.7-2.3
			V3.2c0-0.8,0.6-1.3,1.7-1.3h18.1c9.8,0,17.4,2.1,22.8,6.3c5.4,4.2,8.1,9.8,8.1,16.9C215.5,40.6,205.2,48.4,184.6,48.4z
			 M184.6,8.5v33.4c4,0,7-0.4,8.8-1.1c1.9-0.8,3.3-2.3,4.5-4.5c1.1-2.3,1.7-5.8,1.7-10.5c0-4.7-0.5-8.3-1.5-10.6
			c-1-2.3-2.6-4-4.6-5C191.3,9.1,188.4,8.6,184.6,8.5z"/>
		<path class="st2" d="M245.7,49.6v28.1c0,1.9,0.9,3.4,2.6,4.3c1.1,0.6,1.7,1.4,1.7,2.2v2.5c0,0.8-0.6,1.3-1.7,1.3h-20.9
			c-1,0-1.5-0.4-1.5-1.2v-2.6c0-0.8,0.6-1.6,1.7-2.2c1.7-1,2.5-2.4,2.5-4.3V49.6l-13.4-37.5c-0.8-2.2-2.2-3.7-4-4.4
			c-1-0.4-1.5-1-1.5-1.9V3.1c0-0.8,0.4-1.2,1.3-1.2h21.7c1.3,0,1.9,0.5,1.9,1.4V6c0,0.7-0.6,1.2-1.9,1.5c-2,0.6-2.9,1.4-2.9,2.5
			c0,0.4,0.1,0.8,0.3,1.2l9.8,26.9l8.8-24.6c0.3-0.9,0.5-1.8,0.5-2.7c0-1.4-1-2.5-3-3.2c-1.2-0.4-1.7-0.9-1.7-1.6V3.2
			c0-0.8,0.5-1.3,1.5-1.3H264c1.3,0,1.9,0.4,1.9,1.2V6c0,0.8-0.6,1.5-1.9,1.9c-2.5,1-4.2,2.6-5,4.7L245.7,49.6z"/>
	</g>
	<g class="h">
		<path class="st2" d="M50.5,106.6v65.5c0,1.9,0.9,3.4,2.6,4.3c1.1,0.6,1.7,1.4,1.7,2.2v2.5c0,0.8-0.6,1.3-1.7,1.3H33.2
			c-1,0-1.5-0.4-1.5-1.2v-2.6c0-0.8,0.6-1.6,1.7-2.2c1.7-1,2.6-2.4,2.6-4.3v-31.7H20.5v31.7c0,1.9,0.8,3.4,2.5,4.3
			c1.2,0.6,1.7,1.4,1.7,2.2v2.5c0,0.8-0.6,1.3-1.7,1.3h-20c-1,0-1.5-0.4-1.5-1.2v-2.6c0-0.8,0.6-1.6,1.7-2.2c1.7-1,2.5-2.4,2.5-4.3
			v-65.5c0-1.9-0.8-3.3-2.5-4.3c-1.2-0.6-1.7-1.4-1.7-2.3v-2.4c0-0.8,0.6-1.3,1.7-1.3h20c1,0,1.5,0.4,1.5,1.2v2.5
			c0,0.8-0.6,1.6-1.7,2.3c-1.7,1-2.5,2.4-2.5,4.3v26.1H36v-26.1c0-1.9-0.9-3.3-2.6-4.3c-1.2-0.6-1.7-1.4-1.7-2.3v-2.4
			c0-0.8,0.6-1.3,1.7-1.3h19.9c1,0,1.5,0.4,1.5,1.2v2.5c0,0.8-0.6,1.6-1.6,2.3C51.4,103.3,50.5,104.7,50.5,106.6z"/>
		<path class="st2" d="M77.3,107.2l-0.6-3.8c-0.2-1.2-0.3-1.9-0.3-2c0-0.4,0.3-0.7,1-0.9l11.4-4.4c0.2-0.1,0.4-0.1,0.6-0.1
			c0.6,0,1,0.3,1.2,1l18.2,75.1c0.3,1.4,0.7,2.3,1.2,2.9c0.5,0.6,1.4,1.2,2.7,1.9c1,0.5,1.5,1.1,1.5,1.8v2.4c0,0.9-0.4,1.3-1.3,1.3
			H90.5c-1.2,0-1.8-0.4-1.8-1.3v-2.4c0-0.8,0.7-1.6,2.2-2.2c1.8-0.8,2.6-1.8,2.6-3.2c0-0.4,0-0.8-0.1-1.3l-2.8-11.6H73l-2.8,11.1
			c-0.1,0.5-0.2,0.8-0.2,1.1c0,1.1,1,2.3,3,3.7c1.3,0.9,1.9,1.7,1.9,2.3v2.4c0,0.9-0.6,1.3-1.9,1.3H59c-1.6,0-2.3-0.4-2.3-1.3v-2.9
			c0-0.8,0.5-1.4,1.5-1.9c1.8-0.9,3-2.5,3.6-4.7L77.3,107.2z M81.9,125l-7,28.4h13.9L81.9,125z"/>
		<path class="st2" d="M136,142.8v29.3c0,1.9,0.8,3.4,2.5,4.3c1.2,0.6,1.7,1.4,1.7,2.2v2.5c0,0.8-0.6,1.3-1.7,1.3h-20.9
			c-1,0-1.5-0.4-1.5-1.2v-2.6c0-0.8,0.6-1.6,1.7-2.2c1.7-1,2.5-2.4,2.5-4.3v-65.5c0-1.9-0.8-3.3-2.5-4.3c-1.2-0.6-1.7-1.4-1.7-2.3
			v-2.4c0-0.8,0.6-1.3,1.7-1.3H136c9.8,0,17.4,2.1,22.8,6.3c5.4,4.2,8.1,9.8,8.1,16.9C166.9,135.1,156.6,142.8,136,142.8z
			 M136,102.9v33.4c4,0,7-0.4,8.8-1.1c1.9-0.8,3.3-2.3,4.5-4.5c1.1-2.3,1.7-5.8,1.7-10.5c0-4.7-0.5-8.3-1.5-10.6
			c-1-2.3-2.6-4-4.6-5C142.7,103.6,139.8,103,136,102.9z"/>
		<path class="st2" d="M184.6,142.8v29.3c0,1.9,0.8,3.4,2.5,4.3c1.2,0.6,1.7,1.4,1.7,2.2v2.5c0,0.8-0.6,1.3-1.7,1.3h-20.9
			c-1,0-1.5-0.4-1.5-1.2v-2.6c0-0.8,0.6-1.6,1.7-2.2c1.7-1,2.5-2.4,2.5-4.3v-65.5c0-1.9-0.8-3.3-2.5-4.3c-1.2-0.6-1.7-1.4-1.7-2.3
			v-2.4c0-0.8,0.6-1.3,1.7-1.3h18.1c9.8,0,17.4,2.1,22.8,6.3c5.4,4.2,8.1,9.8,8.1,16.9C215.5,135.1,205.2,142.8,184.6,142.8z
			 M184.6,102.9v33.4c4,0,7-0.4,8.8-1.1c1.9-0.8,3.3-2.3,4.5-4.5c1.1-2.3,1.7-5.8,1.7-10.5c0-4.7-0.5-8.3-1.5-10.6
			c-1-2.3-2.6-4-4.6-5C191.3,103.6,188.4,103,184.6,102.9z"/>
		<path class="st2" d="M245.7,144v28.1c0,1.9,0.9,3.4,2.6,4.3c1.1,0.6,1.7,1.4,1.7,2.2v2.5c0,0.8-0.6,1.3-1.7,1.3h-20.9
			c-1,0-1.5-0.4-1.5-1.2v-2.6c0-0.8,0.6-1.6,1.7-2.2c1.7-1,2.5-2.4,2.5-4.3V144l-13.4-37.5c-0.8-2.2-2.2-3.7-4-4.4
			c-1-0.4-1.5-1-1.5-1.9v-2.8c0-0.8,0.4-1.2,1.3-1.2h21.7c1.3,0,1.9,0.5,1.9,1.4v2.7c0,0.7-0.6,1.2-1.9,1.5c-2,0.6-2.9,1.4-2.9,2.5
			c0,0.4,0.1,0.8,0.3,1.2l9.8,26.9L250,108c0.3-0.9,0.5-1.8,0.5-2.7c0-1.4-1-2.5-3-3.2c-1.2-0.4-1.7-0.9-1.7-1.6v-2.9
			c0-0.8,0.5-1.3,1.5-1.3H264c1.3,0,1.9,0.4,1.9,1.2v2.9c0,0.8-0.6,1.5-1.9,1.9c-2.5,1-4.2,2.6-5,4.7L245.7,144z"/>
	</g>
	<g class="h">
		<path class="st2" d="M50.5,201v65.5c0,1.9,0.9,3.4,2.6,4.3c1.1,0.6,1.7,1.4,1.7,2.2v2.5c0,0.8-0.6,1.3-1.7,1.3H33.2
			c-1,0-1.5-0.4-1.5-1.2V273c0-0.8,0.6-1.6,1.7-2.2c1.7-1,2.6-2.4,2.6-4.3v-31.7H20.5v31.7c0,1.9,0.8,3.4,2.5,4.3
			c1.2,0.6,1.7,1.4,1.7,2.2v2.5c0,0.8-0.6,1.3-1.7,1.3h-20c-1,0-1.5-0.4-1.5-1.2V273c0-0.8,0.6-1.6,1.7-2.2c1.7-1,2.5-2.4,2.5-4.3
			V201c0-1.9-0.8-3.3-2.5-4.3c-1.2-0.6-1.7-1.4-1.7-2.3V192c0-0.8,0.6-1.3,1.7-1.3h20c1,0,1.5,0.4,1.5,1.2v2.5
			c0,0.8-0.6,1.6-1.7,2.3c-1.7,1-2.5,2.4-2.5,4.3V227H36V201c0-1.9-0.9-3.3-2.6-4.3c-1.2-0.6-1.7-1.4-1.7-2.3V192
			c0-0.8,0.6-1.3,1.7-1.3h19.9c1,0,1.5,0.4,1.5,1.2v2.5c0,0.8-0.6,1.6-1.6,2.3C51.4,197.7,50.5,199.1,50.5,201z"/>
		<path class="st2" d="M77.3,201.6l-0.6-3.8c-0.2-1.2-0.3-1.9-0.3-2c0-0.4,0.3-0.7,1-0.9l11.4-4.4c0.2-0.1,0.4-0.1,0.6-0.1
			c0.6,0,1,0.3,1.2,1l18.2,75.1c0.3,1.4,0.7,2.3,1.2,2.9c0.5,0.6,1.4,1.2,2.7,1.9c1,0.5,1.5,1.1,1.5,1.8v2.4c0,0.9-0.4,1.3-1.3,1.3
			H90.5c-1.2,0-1.8-0.4-1.8-1.3V273c0-0.8,0.7-1.6,2.2-2.2c1.8-0.8,2.6-1.8,2.6-3.2c0-0.4,0-0.8-0.1-1.3l-2.8-11.6H73L70.2,266
			c-0.1,0.5-0.2,0.8-0.2,1.1c0,1.1,1,2.3,3,3.7c1.3,0.9,1.9,1.7,1.9,2.3v2.4c0,0.9-0.6,1.3-1.9,1.3H59c-1.6,0-2.3-0.4-2.3-1.3v-2.9
			c0-0.8,0.5-1.4,1.5-1.9c1.8-0.9,3-2.5,3.6-4.7L77.3,201.6z M81.9,219.4l-7,28.4h13.9L81.9,219.4z"/>
		<path class="st2" d="M136,237.2v29.3c0,1.9,0.8,3.4,2.5,4.3c1.2,0.6,1.7,1.4,1.7,2.2v2.5c0,0.8-0.6,1.3-1.7,1.3h-20.9
			c-1,0-1.5-0.4-1.5-1.2V273c0-0.8,0.6-1.6,1.7-2.2c1.7-1,2.5-2.4,2.5-4.3V201c0-1.9-0.8-3.3-2.5-4.3c-1.2-0.6-1.7-1.4-1.7-2.3V192
			c0-0.8,0.6-1.3,1.7-1.3H136c9.8,0,17.4,2.1,22.8,6.3c5.4,4.2,8.1,9.8,8.1,16.9C166.9,229.5,156.6,237.2,136,237.2z M136,197.3
			v33.4c4,0,7-0.4,8.8-1.1c1.9-0.8,3.3-2.3,4.5-4.5c1.1-2.3,1.7-5.8,1.7-10.5c0-4.7-0.5-8.3-1.5-10.6c-1-2.3-2.6-4-4.6-5
			C142.7,198,139.8,197.4,136,197.3z"/>
		<path class="st2" d="M184.6,237.2v29.3c0,1.9,0.8,3.4,2.5,4.3c1.2,0.6,1.7,1.4,1.7,2.2v2.5c0,0.8-0.6,1.3-1.7,1.3h-20.9
			c-1,0-1.5-0.4-1.5-1.2V273c0-0.8,0.6-1.6,1.7-2.2c1.7-1,2.5-2.4,2.5-4.3V201c0-1.9-0.8-3.3-2.5-4.3c-1.2-0.6-1.7-1.4-1.7-2.3V192
			c0-0.8,0.6-1.3,1.7-1.3h18.1c9.8,0,17.4,2.1,22.8,6.3c5.4,4.2,8.1,9.8,8.1,16.9C215.5,229.5,205.2,237.2,184.6,237.2z
			 M184.6,197.3v33.4c4,0,7-0.4,8.8-1.1c1.9-0.8,3.3-2.3,4.5-4.5c1.1-2.3,1.7-5.8,1.7-10.5c0-4.7-0.5-8.3-1.5-10.6
			c-1-2.3-2.6-4-4.6-5C191.3,198,188.4,197.4,184.6,197.3z"/>
		<path class="st2" d="M245.7,238.4v28.1c0,1.9,0.9,3.4,2.6,4.3c1.1,0.6,1.7,1.4,1.7,2.2v2.5c0,0.8-0.6,1.3-1.7,1.3h-20.9
			c-1,0-1.5-0.4-1.5-1.2V273c0-0.8,0.6-1.6,1.7-2.2c1.7-1,2.5-2.4,2.5-4.3v-28.1L216.7,201c-0.8-2.2-2.2-3.7-4-4.4
			c-1-0.4-1.5-1-1.5-1.9v-2.8c0-0.8,0.4-1.2,1.3-1.2h21.7c1.3,0,1.9,0.5,1.9,1.4v2.7c0,0.7-0.6,1.2-1.9,1.5c-2,0.6-2.9,1.4-2.9,2.5
			c0,0.4,0.1,0.8,0.3,1.2l9.8,26.9l8.8-24.6c0.3-0.9,0.5-1.8,0.5-2.7c0-1.4-1-2.5-3-3.2c-1.2-0.4-1.7-0.9-1.7-1.6V192
			c0-0.8,0.5-1.3,1.5-1.3H264c1.3,0,1.9,0.4,1.9,1.2v2.9c0,0.8-0.6,1.5-1.9,1.9c-2.5,1-4.2,2.6-5,4.7L245.7,238.4z"/>
		<path class="st2" d="M330.6,275.7c0,0.9-0.8,1.1-1.5,1.1h-44.5c-1.1,0-1.6-0.4-1.6-1.3V273c0-0.8,0.7-1.6,2.2-2.5
			c1.3-0.8,1.9-2.2,1.9-4V201c0-1.9-0.8-3.4-2.5-4.3c-1.1-0.6-1.7-1.4-1.7-2.2v-2.7c0-0.7,0.5-1.1,1.6-1.1h41.2c1.2,0,2,0.3,2,1.3
			v15.7c0,0.8-0.1,1.4-0.3,1.5c-0.2,0.2-0.8,0.2-1.7,0.2h-2.5c-1.1,0-1.7-0.5-1.8-1.6c-0.5-2.9-1.4-5.3-2.6-7.4
			c-1.3-2-3.8-3.1-7.7-3.1h-8.4v31.3h3.1c1.9,0,3.2-0.3,4-0.9c0.7-0.6,1.6-2.5,2.7-5.7c0.4-1,0.5-1.4,0.7-1.6s0.5-0.3,1.2-0.3h2.9
			c1.2,0,1.7,0.5,1.7,1.4v20.9c0,0.9-0.5,1.3-1.6,1.3h-3.1c-0.7,0-1.1-0.1-1.4-0.4c-0.3-0.3-0.6-1.1-1.1-2.6
			c-0.8-2.6-1.7-4.2-2.6-4.8c-0.9-0.6-2.2-0.9-3.9-0.9h-2.7v35h9.1c3.4,0,5.7-0.7,7-2c1.3-1.3,2.9-4.9,4.8-10.8
			c0.4-1.3,1.3-2,2.4-2h2.9c1.1,0,1.7,0.5,1.7,1.4V275.7z"/>
		<path class="st2" d="M372.2,237.3v-36.3c0-1.9-0.8-3.3-2.5-4.3c-1.2-0.6-1.7-1.4-1.7-2.3v-2.4c0-0.9,0.6-1.3,1.7-1.3h15.2
			c1,0,1.5,0.4,1.5,1.2v2.5c0,0.8-0.6,1.6-1.7,2.3c-1.7,1-2.6,2.4-2.6,4.3v74.5c0,1.2-0.6,1.8-1.9,1.8h-3c-1.3,0-2.3-0.6-2.8-1.8
			L346.5,215v51.4c0,1.9,0.9,3.4,2.6,4.3c1.1,0.6,1.7,1.4,1.7,2.2v2.5c0,0.8-0.6,1.3-1.7,1.3h-15c-1,0-1.5-0.4-1.5-1.2V273
			c0-0.8,0.6-1.6,1.7-2.2c1.7-1,2.5-2.4,2.5-4.3v-65.5c0-1.9-0.8-3.3-2.5-4.3c-1.2-0.6-1.7-1.4-1.7-2.3v-2.4c0-0.8,0.6-1.3,1.7-1.3
			h14.2c1,0,1.7,0.1,2.1,0.3c0.4,0.2,0.7,0.7,1.1,1.5L372.2,237.3z"/>
		<path class="st2" d="M388.1,194.4v-2.9c0-0.6,0.5-0.8,1.5-0.8h17.4c9.8,0,18.1,3.3,24.9,9.9c6.7,6.6,10.1,17.4,10.1,32.2
			c0,7.7-1,15-3.1,22c-2,7-5.3,12.4-9.8,16.2c-4.5,3.8-12.1,5.7-22.7,5.7h-17.2c-0.8,0-1.2-0.3-1.2-0.9V273c0-0.8,0.6-1.6,1.7-2.2
			c1.7-1,2.5-2.5,2.5-4.3V201c0-1.9-0.7-3.2-2.2-4.1C388.8,196.1,388.1,195.3,388.1,194.4z M407.7,197.3v73.1
			c4.5,0,7.9-0.9,10.4-2.7c2.5-1.8,4.2-5.6,5.4-11.6c1.1-6,1.7-12.8,1.7-20.6c0-8.4-0.4-15-1.3-19.9c-0.8-4.9-1.9-8.6-3.2-11.1
			c-1.3-2.5-2.8-4.3-4.7-5.3C414.1,198.2,411.4,197.5,407.7,197.3z"/>
	</g>
	<g class="l">
		<path class="st2" d="M3.4,317v-27.5c0-0.8-0.4-1.4-1.1-1.8c-0.5-0.3-0.7-0.6-0.7-1v-1c0-0.4,0.2-0.5,0.7-0.5h8.8
			c0.4,0,0.6,0.2,0.6,0.5v1.1c0,0.4-0.2,0.7-0.7,1c-0.7,0.4-1.1,1-1.1,1.8v28.3c0,0.4,0.3,0.7,0.7,0.7h1.7c1.4,0,2.5-0.4,3.3-1.1
			c0.8-0.7,1.4-1.9,1.7-3.7c0.1-0.7,0.2-0.9,0.3-1c0.1-0.2,0.2-0.3,0.6-0.3h1.3c0.5,0,0.8,0.2,0.8,0.5v7.6c0,0.4-0.3,0.7-0.7,0.7
			H2.3c-0.6,0-0.9-0.2-0.9-0.7v-0.9c0-0.4,0.3-0.7,0.8-0.9C3,318.4,3.4,317.8,3.4,317z"/>
		<path class="st2" d="M40.3,312.9c0,2.8-0.9,4.9-2.6,6.5c-1.7,1.6-3.9,2.3-6.7,2.3c-2.8,0-5-0.8-6.8-2.3c-1.8-1.5-2.6-3.6-2.6-6.1
			v-23.9c0-0.8-0.4-1.4-1.1-1.8c-0.5-0.3-0.7-0.6-0.7-1v-1c0-0.4,0.2-0.5,0.7-0.5h8.8c0.4,0,0.6,0.2,0.6,0.5v1.1
			c0,0.4-0.2,0.7-0.7,1c-0.7,0.4-1.1,1-1.1,1.8v24.1c0,3.2,1.3,4.8,3.9,4.8c2.8,0,4.2-1.9,4.2-5.7v-23.3c0-0.8-0.4-1.4-1.1-1.8
			c-0.5-0.3-0.7-0.6-0.7-1v-1c0-0.4,0.2-0.5,0.7-0.5h6.3c0.4,0,0.6,0.2,0.6,0.5v1.1c0,0.4-0.2,0.7-0.7,1c-0.7,0.4-1.1,1-1.1,1.8
			V312.9z"/>
		<path class="st2" d="M45.1,317v-27.5c0-0.8-0.4-1.4-1.1-1.8c-0.5-0.3-0.7-0.6-0.7-1v-1c0-0.4,0.2-0.5,0.7-0.5h9.6
			c0.3,0,0.6,0.2,0.7,0.6l3.1,16.4l3.1-16.4c0.1-0.3,0.3-0.6,0.7-0.6h9.7c0.4,0,0.6,0.2,0.6,0.5v1.1c0,0.4-0.2,0.7-0.7,1
			c-0.7,0.4-1.1,1-1.1,1.8V317c0,0.8,0.4,1.4,1.1,1.8c0.5,0.3,0.7,0.6,0.7,0.9v1c0,0.4-0.2,0.5-0.7,0.5h-8.5
			c-0.4,0-0.6-0.2-0.6-0.5v-1.1c0-0.3,0.2-0.7,0.7-0.9c0.7-0.4,1.1-1,1.1-1.8v-28.1l-6,32.1c0,0.2-0.2,0.3-0.4,0.3h-1.6
			c-0.2,0-0.4-0.1-0.4-0.3l-5.9-32.1V317c0,0.8,0.4,1.4,1.1,1.8c0.5,0.3,0.7,0.6,0.7,0.9v1c0,0.4-0.2,0.5-0.7,0.5h-6.3
			c-0.4,0-0.6-0.2-0.6-0.5v-1.1c0-0.3,0.2-0.6,0.7-0.9C44.8,318.4,45.1,317.8,45.1,317z"/>
		<path class="st2" d="M81,317c0,0.8,0.4,1.4,1.1,1.8c0.5,0.3,0.7,0.6,0.7,0.9v1c0,0.4-0.2,0.5-0.7,0.5h-8.8
			c-0.4,0-0.6-0.2-0.6-0.5v-1.1c0-0.3,0.2-0.6,0.7-0.9c0.7-0.4,1.1-1,1.1-1.8v-27.5c0-0.8-0.4-1.4-1.1-1.8c-0.5-0.3-0.7-0.6-0.7-1
			v-1c0-0.4,0.2-0.5,0.7-0.5h8.8c0.4,0,0.6,0.2,0.6,0.5v1.1c0,0.4-0.2,0.7-0.7,1c-0.7,0.4-1.1,1-1.1,1.8V317z"/>
		<path class="st2" d="M100.6,304.7v-15.2c0-0.8-0.4-1.4-1.1-1.8c-0.5-0.3-0.7-0.6-0.7-1v-1c0-0.4,0.2-0.5,0.7-0.5h6.4
			c0.4,0,0.6,0.2,0.6,0.5v1.1c0,0.4-0.2,0.7-0.7,1c-0.7,0.4-1.1,1-1.1,1.8v31.2c0,0.5-0.3,0.7-0.8,0.7h-1.2c-0.6,0-1-0.2-1.2-0.7
			l-11.7-25.3V317c0,0.8,0.4,1.4,1.1,1.8c0.5,0.3,0.7,0.6,0.7,0.9v1c0,0.4-0.2,0.5-0.7,0.5h-6.3c-0.4,0-0.6-0.2-0.6-0.5v-1.1
			c0-0.3,0.2-0.6,0.7-0.9c0.7-0.4,1.1-1,1.1-1.8v-27.5c0-0.8-0.4-1.4-1.1-1.8c-0.5-0.3-0.7-0.6-0.7-1v-1c0-0.4,0.2-0.5,0.7-0.5h5.9
			c0.4,0,0.7,0,0.9,0.1c0.1,0.1,0.3,0.3,0.4,0.6L100.6,304.7z"/>
		<path class="st2" d="M127.7,320.8c0,0.4-0.4,0.5-0.6,0.5h-18.7c-0.4,0-0.7-0.2-0.7-0.6v-1c0-0.3,0.3-0.7,0.9-1.1
			c0.5-0.4,0.8-0.9,0.8-1.7v-27.5c0-0.8-0.3-1.4-1-1.8c-0.5-0.3-0.7-0.6-0.7-0.9v-1.1c0-0.3,0.2-0.4,0.7-0.4h17.3
			c0.5,0,0.8,0.1,0.8,0.5v6.6c0,0.4,0,0.6-0.1,0.6c-0.1,0.1-0.3,0.1-0.7,0.1h-1c-0.4,0-0.7-0.2-0.8-0.7c-0.2-1.2-0.6-2.2-1.1-3.1
			c-0.5-0.9-1.6-1.3-3.2-1.3H116v13.1h1.3c0.8,0,1.4-0.1,1.7-0.4c0.3-0.3,0.7-1.1,1.1-2.4c0.1-0.4,0.2-0.6,0.3-0.7
			c0.1-0.1,0.2-0.1,0.5-0.1h1.2c0.5,0,0.7,0.2,0.7,0.6v8.8c0,0.4-0.2,0.6-0.7,0.6h-1.3c-0.3,0-0.5-0.1-0.6-0.2
			c-0.1-0.1-0.3-0.5-0.4-1.1c-0.3-1.1-0.7-1.8-1.1-2c-0.4-0.2-0.9-0.4-1.6-0.4H116v14.7h3.8c1.4,0,2.4-0.3,2.9-0.8
			c0.5-0.5,1.2-2.1,2-4.5c0.2-0.6,0.5-0.8,1-0.8h1.2c0.5,0,0.7,0.2,0.7,0.6V320.8z"/>
		<path class="st2" d="M160.7,312.3c0.3,0,0.5,0.3,0.5,0.6c-0.3,2.6-1.1,4.7-2.5,6.3c-1.5,1.7-3.5,2.5-5.9,2.5
			c-3.5,0-6.3-1.6-8.4-4.7c-2.1-3.1-3.2-7.7-3.2-13.7c0-6,1-10.5,3.1-13.8c2.1-3.2,4.7-4.8,7.9-4.8c1.3,0,2.8,0.4,4.4,1.1
			c0.4,0.2,0.7-0.1,0.9-0.2c0.2-0.1,0.4-0.4,0.9-0.4s1.4,0,1.4,0c0.4,0,0.5,0.2,0.5,0.7v6.9c0,0.4-0.2,0.7-0.5,0.7h-1.2
			c-0.4,0-0.7-0.1-0.8-0.3c-0.1-0.2-0.3-0.6-0.6-1.4c-1.1-3.6-2.7-4.4-4.5-4.4c-1.1,0-2,0.5-2.6,1.4c-0.6,0.9-1.1,2.7-1.4,5.3
			c-0.3,2.6-0.5,5.2-0.5,7.8c0,5.8,0.4,10,1.2,12.7c0.8,2.7,2.2,4.1,4.1,4.1c2.3,0,3.8-2,4.6-6c0.1-0.3,0.3-0.5,0.6-0.5
			L160.7,312.3z"/>
		<path class="st2" d="M181.8,289.4v27.5c0,0.8,0.4,1.4,1.1,1.8c0.5,0.3,0.7,0.6,0.7,0.9v1c0,0.4-0.2,0.5-0.7,0.5h-8.2
			c-0.4,0-0.6-0.2-0.6-0.5v-1.1c0-0.3,0.2-0.6,0.7-0.9c0.7-0.4,1.1-1,1.1-1.8v-13.3h-6.5v13.3c0,0.8,0.4,1.4,1.1,1.8
			c0.5,0.3,0.7,0.6,0.7,0.9v1c0,0.4-0.2,0.5-0.7,0.5h-8.2c-0.4,0-0.6-0.2-0.6-0.5v-1.1c0-0.3,0.2-0.6,0.7-0.9
			c0.7-0.4,1.1-1,1.1-1.8v-27.5c0-0.8-0.4-1.4-1.1-1.8c-0.5-0.3-0.7-0.6-0.7-1v-1c0-0.4,0.2-0.5,0.7-0.5h8.2c0.4,0,0.6,0.2,0.6,0.5
			v1.1c0,0.4-0.2,0.7-0.7,1c-0.7,0.4-1.1,1-1.1,1.8v10.9h6.5v-10.9c0-0.8-0.4-1.4-1.1-1.8c-0.5-0.3-0.7-0.6-0.7-1v-1
			c0-0.4,0.2-0.5,0.7-0.5h8.2c0.4,0,0.6,0.2,0.6,0.5v1.1c0,0.4-0.2,0.7-0.7,1C182.2,288,181.8,288.6,181.8,289.4z"/>
		<path class="st2" d="M193,304.3v12.6c0,0.8,0.4,1.4,1.1,1.8c0.5,0.3,0.7,0.6,0.7,0.9v1c0,0.4-0.2,0.5-0.7,0.5h-8.8
			c-0.4,0-0.6-0.2-0.6-0.5v-1.1c0-0.3,0.2-0.6,0.7-0.9c0.7-0.4,1.1-1,1.1-1.8v-27.5c0-0.8-0.4-1.4-1.1-1.8c-0.5-0.3-0.7-0.6-0.7-1
			v-1c0-0.4,0.2-0.5,0.7-0.5h7.4c4.2,0,7.3,0.8,9.5,2.3c2.2,1.5,3.3,3.8,3.3,6.7c0,4.7-2.6,7.7-7.8,9c1.5,0.6,2.7,1.3,3.5,2.1
			c0.8,0.8,1.4,1.9,1.8,3.4l2.1,7.4c0.3,0.9,0.5,1.6,0.8,1.9c0.3,0.3,0.6,0.6,1,0.8c0.3,0.2,0.5,0.4,0.5,0.8v1.1
			c0,0.3-0.2,0.5-0.6,0.5h-5.6c-0.5,0-0.9-0.2-1-0.7l-3.8-12.8c-0.4-1.4-0.9-2.3-1.4-2.7C194.4,304.5,193.7,304.3,193,304.3z
			 M193,287.9v13.6c2,0,3.5-0.5,4.5-1.6c1-1.1,1.4-2.9,1.4-5.6c0-2.6-0.5-4.4-1.4-5.2C196.5,288.3,195,287.9,193,287.9z"/>
		<path class="st2" d="M216.7,316.9c0,0.8,0.4,1.4,1.1,1.8c0.5,0.3,0.7,0.6,0.7,0.9v1c0,0.4-0.2,0.5-0.7,0.5H209
			c-0.4,0-0.6-0.2-0.6-0.5v-1.1c0-0.3,0.2-0.6,0.7-0.9c0.7-0.4,1.1-1,1.1-1.8v-27.5c0-0.8-0.4-1.4-1.1-1.8c-0.5-0.3-0.7-0.6-0.7-1
			v-1c0-0.4,0.2-0.5,0.7-0.5h8.8c0.4,0,0.6,0.2,0.6,0.5v1.1c0,0.4-0.2,0.7-0.7,1c-0.7,0.4-1.1,1-1.1,1.8V316.9z"/>
		<path class="st2" d="M221.9,321.2h-1.4c-0.5,0-0.7-0.2-0.7-0.6v-8.1c0-0.6,0.3-0.9,0.8-0.9h1.2c0.3,0,0.5,0.1,0.6,0.3
			c0.1,0.2,0.2,0.8,0.4,1.8c0.8,4.1,3,5.4,5.3,5.4c1.4,0,2.5-0.5,3.4-1.5c0.8-1,1.2-2.3,1.2-3.7c0-1.5-0.4-2.9-1.3-4.2
			c-0.9-1.3-2.6-3-5-5.2c-1.9-1.7-3.3-3-4.1-3.9c-0.8-0.9-1.5-2-2-3.1c-0.5-1.2-0.7-2.4-0.7-3.8c0-2.6,0.8-4.7,2.3-6.3
			c1.6-1.7,3.5-2.5,5.7-2.5c1,0,2.1,0.2,3.3,0.7c0.4,0.2,0.6,0.2,0.8,0.3c0.3,0.1,0.5-0.1,0.6-0.3c0.3-0.5,0.7-0.5,1.1-0.5
			c0.4,0,1,0,1,0c0.5,0,0.8,0.2,0.8,0.6v7c0,0.4-0.2,0.6-0.6,0.6h-1.3c-0.3,0-0.6-0.1-0.7-0.2c-0.1-0.1-0.3-0.7-0.5-1.7
			c-0.9-3.4-2.3-3.9-4.3-3.9c-1.1,0-1.9,0.4-2.6,1.1c-0.6,0.7-1,1.6-1,2.6c0,1.1,0.4,2.3,1.1,3.5c0.8,1.2,2.3,2.7,4.5,4.7
			c2.9,2.5,4.9,4.6,6,6.5c1.1,1.9,1.7,3.9,1.7,6.1c0,2.9-0.9,5.3-2.8,7.2c-1.9,1.8-4.1,2.8-6.6,2.8c-1.1,0-2.5-0.2-4-0.7
			c-0.5-0.2-0.8-0.3-1-0.3c-0.2,0-0.4,0.1-0.7,0.2C222.2,321.2,222,321.2,221.9,321.2z"/>
		<path class="st2" d="M250.4,288.3v28.6c0,0.8,0.4,1.4,1.1,1.8c0.5,0.3,0.7,0.6,0.7,0.9v1c0,0.4-0.2,0.5-0.7,0.5h-8.8
			c-0.4,0-0.6-0.2-0.6-0.5v-1.1c0-0.3,0.2-0.6,0.7-0.9c0.7-0.4,1.1-1,1.1-1.8v-28.6h-1.2c-0.9,0-1.6,0.3-2,0.9
			c-0.4,0.6-0.8,1.8-1.2,3.8c0,0.3-0.2,0.4-0.6,0.4h-1.1c-0.6,0-1-0.2-1-0.7v-6.8c0-0.5,0.3-0.8,0.9-0.8c0.4,0,1,0.1,2,0.2
			c1.5,0.2,2.7,0.3,3.5,0.3h10c0.5-0.1,1.1-0.1,1.9-0.3c1.1-0.1,1.7-0.2,1.9-0.2c0.5,0,0.8,0.2,0.8,0.6v6.9c0,0.4-0.2,0.7-0.7,0.7
			h-1.1c-0.4,0-0.7-0.1-0.8-0.3c-0.1-0.2-0.2-0.7-0.4-1.5c-0.3-1.3-0.7-2.2-1-2.6c-0.4-0.4-1-0.6-1.9-0.6H250.4z"/>
		<path class="st2" d="M260.7,316.9v-27.5c0-0.8-0.4-1.4-1.1-1.8c-0.5-0.3-0.7-0.6-0.7-1v-1c0-0.4,0.2-0.5,0.7-0.5h9.6
			c0.3,0,0.6,0.2,0.7,0.6L273,302l3.1-16.4c0.1-0.3,0.3-0.6,0.7-0.6h9.7c0.4,0,0.6,0.2,0.6,0.5v1.1c0,0.4-0.2,0.7-0.7,1
			c-0.7,0.4-1.1,1-1.1,1.8v27.5c0,0.8,0.4,1.4,1.1,1.8c0.5,0.3,0.7,0.6,0.7,0.9v1c0,0.4-0.2,0.5-0.7,0.5h-8.5
			c-0.4,0-0.6-0.2-0.6-0.5v-1.1c0-0.3,0.2-0.7,0.7-0.9c0.7-0.4,1.1-1,1.1-1.8v-28.1l-6,32.1c0,0.2-0.2,0.3-0.4,0.3h-1.6
			c-0.2,0-0.4-0.1-0.4-0.3l-5.9-32.1v28.1c0,0.8,0.4,1.4,1.1,1.8c0.5,0.3,0.7,0.6,0.7,0.9v1c0,0.4-0.2,0.5-0.7,0.5h-6.3
			c-0.4,0-0.6-0.2-0.6-0.5v-1.1c0-0.3,0.2-0.6,0.7-0.9C260.3,318.3,260.7,317.7,260.7,316.9z"/>
		<path class="st2" d="M297.1,289.7l-0.3-1.6c-0.1-0.5-0.1-0.8-0.1-0.9c0-0.2,0.1-0.3,0.4-0.4l4.8-1.8c0.1,0,0.2,0,0.3,0
			c0.3,0,0.4,0.1,0.5,0.4l7.6,31.5c0.1,0.6,0.3,1,0.5,1.2c0.2,0.2,0.6,0.5,1.1,0.8c0.4,0.2,0.6,0.5,0.6,0.7v1
			c0,0.4-0.2,0.6-0.5,0.6h-9.4c-0.5,0-0.8-0.2-0.8-0.6v-1c0-0.4,0.3-0.7,0.9-0.9c0.7-0.3,1.1-0.8,1.1-1.3c0-0.2,0-0.3-0.1-0.5
			l-1.2-4.8h-7.3l-1.2,4.7c-0.1,0.2-0.1,0.3-0.1,0.4c0,0.5,0.4,1,1.3,1.5c0.5,0.4,0.8,0.7,0.8,1v1c0,0.4-0.3,0.6-0.8,0.6h-5.9
			c-0.7,0-1-0.2-1-0.6v-1.2c0-0.3,0.2-0.6,0.6-0.8c0.8-0.4,1.3-1,1.5-2L297.1,289.7z M299,297.1l-2.9,11.9h5.8L299,297.1z"/>
		<path class="st2" d="M316,321.2h-1.4c-0.5,0-0.7-0.2-0.7-0.6v-8.1c0-0.6,0.3-0.9,0.8-0.9h1.2c0.3,0,0.5,0.1,0.6,0.3
			c0.1,0.2,0.2,0.8,0.4,1.8c0.8,4.1,3,5.4,5.3,5.4c1.4,0,2.5-0.5,3.4-1.5c0.8-1,1.2-2.3,1.2-3.7c0-1.5-0.4-2.9-1.3-4.2
			c-0.9-1.3-2.6-3-5-5.2c-1.9-1.7-3.3-3-4.1-3.9c-0.8-0.9-1.5-2-2-3.1c-0.5-1.2-0.7-2.4-0.7-3.8c0-2.6,0.8-4.7,2.3-6.3
			c1.6-1.7,3.5-2.5,5.7-2.5c1,0,2.1,0.2,3.3,0.7c0.4,0.2,0.6,0.2,0.8,0.3c0.3,0.1,0.5-0.1,0.6-0.3c0.3-0.5,0.7-0.5,1.1-0.5s1,0,1,0
			c0.5,0,0.8,0.2,0.8,0.6v7c0,0.4-0.2,0.6-0.6,0.6h-1.3c-0.3,0-0.6-0.1-0.7-0.2c-0.1-0.1-0.3-0.7-0.5-1.7c-0.9-3.4-2.3-3.9-4.3-3.9
			c-1.1,0-1.9,0.4-2.6,1.1c-0.6,0.7-1,1.6-1,2.6c0,1.1,0.4,2.3,1.1,3.5c0.8,1.2,2.3,2.7,4.5,4.7c2.9,2.5,4.9,4.6,6,6.5
			c1.1,1.9,1.7,3.9,1.7,6.1c0,2.9-0.9,5.3-2.8,7.2c-1.9,1.8-4.1,2.8-6.6,2.8c-1.1,0-2.5-0.2-4-0.7c-0.5-0.2-0.8-0.3-1-0.3
			c-0.2,0-0.4,0.1-0.7,0.2C316.3,321.2,316.1,321.2,316,321.2z"/>
		<path class="st2" d="M363.6,320.7h-19.1c-0.7,0-1.1-0.3-1.1-0.9c0-1.9,0.5-3.6,1.5-5l6.2-9.1c1.8-2.6,3.2-4.9,4.2-7
			c1-2.1,1.5-4.1,1.5-6.1c0-1.6-0.4-2.9-1.2-4c-0.8-1-1.8-1.5-3.1-1.5c-1,0-1.8,0.2-2.5,0.7c-0.7,0.5-1,0.9-1,1.2
			c0,0.1,0.2,0.3,0.6,0.6c1.1,0.7,1.7,1.5,1.7,2.4c0,0.7-0.3,1.4-0.9,1.9s-1.4,0.8-2.4,0.8c-1.2,0-2.1-0.3-2.7-1
			c-0.7-0.6-1-1.5-1-2.5c0-1.8,0.8-3.4,2.5-4.7c1.7-1.3,3.9-2,6.6-2c3,0,5.4,0.8,7.2,2.3c1.8,1.5,2.7,3.6,2.7,6.2
			c0,2.3-0.7,4.5-2,6.6c-1.3,2.1-3.9,5.1-7.5,9.1c-3.1,3.4-5.1,5.9-5.8,7.6h9.9c0.8,0,1.4-0.1,1.8-0.4c0.4-0.3,0.7-0.7,0.9-1.4
			c0.2-0.6,0.6-1,1.1-1h1.3c0.5,0,0.7,0.2,0.7,0.6V320.7z"/>
		<path class="st2" d="M373.8,284.6c3.3,0,5.8,1.6,7.5,4.7c1.7,3.1,2.6,7.7,2.6,13.7c0,6.1-0.9,10.7-2.6,13.7
			c-1.7,3-4.1,4.6-7.1,4.6c-2.9,0-5.3-1.5-7.2-4.5c-1.9-3-2.8-7.4-2.8-13.2c0-6.4,0.9-11.2,2.7-14.3
			C368.6,286.2,371,284.6,373.8,284.6z M377.4,295.9c0-5.9-1.1-8.8-3.4-8.8c-1.3,0-2.2,0.9-2.7,2.7c-0.4,1.8-0.7,4.1-0.7,6.8v14.2
			c0,5.4,1.1,8.1,3.4,8.1c1.2,0,2-0.7,2.6-2.1c0.5-1.4,0.8-4.2,0.8-8.4V295.9z"/>
		<path class="st2" d="M387.2,289.5h-3.9c-0.3,0-0.5-0.1-0.5-0.4v-1.3c0-0.3,0.2-0.5,0.5-0.6l5.9-2.2c0.6-0.2,1.1-0.3,1.5-0.3h2.1
			c0.4,0,0.6,0.2,0.6,0.5v30.3c0,1,0.2,1.7,0.5,2.1c0.3,0.4,1,0.7,2,0.7c0.5,0,0.8,0.3,0.8,0.6v1.4c0,0.3-0.2,0.5-0.6,0.5h-11.7
			c-0.5,0-0.7-0.2-0.7-0.5V319c0-0.4,0.3-0.7,1-0.8c0.9-0.1,1.5-0.4,1.9-0.8c0.4-0.4,0.6-1.1,0.6-2V289.5z"/>
		<path class="st2" d="M402.5,302.9c-2.1-1.9-3.5-3.5-4.3-5c-0.8-1.5-1.2-3-1.2-4.7c0-2.5,0.8-4.5,2.4-6.1c1.6-1.6,3.7-2.5,6.4-2.5
			c2.6,0,4.7,0.7,6.3,2.2c1.7,1.5,2.5,3.2,2.5,5.1c0,2.7-1.9,5.5-5.7,8.4c4.9,3.3,7.4,7,7.4,11.2c0,2.8-0.9,5.1-2.7,6.9
			c-1.8,1.8-4.3,2.7-7.4,2.7c-3,0-5.4-0.9-7.3-2.6c-1.9-1.7-2.9-3.7-2.9-6.1C396,309.2,398.2,306,402.5,302.9z M404.3,304.2
			c-2.5,2.8-3.8,5.6-3.8,8.3c0,1.9,0.5,3.4,1.6,4.5c1.1,1.2,2.5,1.7,4.2,1.7c1.5,0,2.7-0.5,3.7-1.4c0.9-1,1.4-2.1,1.4-3.6
			C411.4,310.7,409.1,307.5,404.3,304.2z M407.3,299c2.2-2.4,3.3-4.6,3.3-6.7c0-1.5-0.5-2.8-1.4-3.8c-0.9-1-2-1.5-3.3-1.5
			c-1.2,0-2.3,0.4-3.1,1.2c-0.8,0.8-1.2,1.8-1.2,3C401.7,293.8,403.5,296.4,407.3,299z"/>
	</g>
</g>
</svg>
