<svg xmlns="http://www.w3.org/2000/svg" viewBox="0 0 589.88 524.68"><defs><style>.btn1_talk_svg1{fill:#ccb405;}.btn1_talk_svg2{fill:#ffeb01;}.btn1_talk_svg3{fill:#e5cf03;}</style></defs><title>アセット 4</title><g id="レイヤー_2" data-name="レイヤー 2"><g id="content"><polygon class="btn1_talk_svg1" points="0 112.31 412.38 524.68 589.88 337.88 335 83 0 112.31"/><polygon class="btn1_talk_svg2" points="335 0 0 29.31 0 112.31 335 83 335 0"/><polygon class="btn1_talk_svg3" points="335 0 589.88 254.88 589.88 337.88 335 83 335 0"/><path d="M86.05,55.66l-7.3.64L66.3,52.12V66.43l-5.77.51V38.87l5.77-.5v7.57l13.21,4.45,6.54-.57Z"/><path d="M115.42,51.19l-26.7,2.34v-6l26.7-2.34Z"/><path d="M147.34,48.63l-8.78,11.48-15.25,1.33V55.57l12.48-1.09,5.68-7.4V37.87L128.89,39l-5,5.8-5.4.48V39.37l2.93-.25,4.94-5.81,21-1.83Z"/><path d="M174.34,55.68l-5.88.51v-11l-11.71,1v11l-5.9.51V30.41l5.9-.52V40.1l11.71-1V28.86l5.88-.51Z"/><path d="M184.62,54.85l-5.84.51V28l5.84-.51Z"/><path d="M213.49,46.75l-5.44,6L194.14,54l-5.48-5V32.67l5.48-6L208,25.47l5.48,5.06v4.74l-5.58.49V33.52l-2.4-2.29-8.84.77-2.4,2.65V46l2.4,2.23,9-.79,2.31-2.57v-2l-7.38.65V38.64l13-1.14Z"/><path d="M240.83,49.86l-5.87.52V39.33l-11.71,1v11l-5.91.52V24.59l5.91-.52V34.28l11.71-1V23.05l5.87-.52Z"/><path d="M251.39,41.76l-6.08.54V20.37l6.08-.53Zm0,8.58-6,.53V45.53l6-.53Z"/><path d="M58.57,75.6l-2,7.82,1.16-.1v8.49L55,92.05V85.2l-1.62-.32,2.41-9.61ZM70.19,88.74,69.48,91l-6.34-1.64L62,91.68l-2.27-.84,1-2L59,88.31,59.78,86l2.09.56L62.61,85,59,85.36v-6L63,79v-.91l-4.25.37V76.27L63,75.9V74.81l2.41-.21v1.09l4.64-.41v2.18l-4.64.41v.91l4.09-.36v6l-4.18.37-1.12,2.37ZM63,83V81.07l-1.76.15V83.1Zm4.2-.37V80.7l-1.79.15v1.89Z"/><path d="M87.5,88.89l-3.32.29-4-3.36-4.66,4.12-3.81.33v-2.9l2.67-.23,7.07-6.09-9.74.85V79L86.1,77.71v2.88l-3.68,3.26,2.75,2.34L87.5,86ZM86.06,76.47,73.14,77.6V74.82l12.92-1.13Z"/><path d="M104.91,84.42l-3,3.21-10.35.9-2.16-1.94V83.45L91.6,81.1l3.88-.34,2.17,1.95V85.1l2.91-.25,1.15-1.26V80.41l-1.16-1.06-6,.53L95.2,76l-6.06.53V73.61l9.56-.83L98,76.69l3.93-.35,3,2.7Zm-10,.92V83.73l-.68-.59-1.53.13L92,84v1l.56.54Z"/><path d="M122.93,72.92l-1.06,2.73L120.24,75V77l-11.48,1V75.94L107,77l-1.07-2.55,8-4.42.81,1.7.65-1.46Zm-.78,7.74-8.77.76-1.88,2.86,6.44-1.08-.41-1,2.5-1.31,2,4.42-2.59,1.3-.49-1.15-11.65,1.93L107,85l1.16-.19,2-3.11-3.39.3V79.63l15.36-1.35Zm-2.86-6-5.06-1.88-4.79,2.74Z"/><path d="M131.52,72.19l-7.37.64v-2.4l2.41-.21v-1l2.55-.22v1l2.41-.21Zm-.46,3.1-6.45.56V73.66l6.45-.57Zm0,3.07-6.45.57V76.75l6.45-.56Zm0,6.81-6.45.56V79.81l6.45-.57Zm-2.37-1.9V81.56l-1.69.15v1.7Zm12.2-8-3.25.29v1.67l2.81-.25V84.4l-8.31.73V77.69l2.83-.25V75.77l-3.27.29V73.53l3.27-.29V71.77l-2.27.56-.42-2.4,7.55-2,.57,2.46-2.76.7V73l3.25-.29Zm-3.08,7V79.6l-3.06.27v2.6Z"/><path d="M156.92,72.62l-5.36,4.43v6l-3,.26V79.49l-3.2,2.61-3,.27V79.43l2-.17,8.51-6.84-10,.87V70.24l5.62-.5V68.5l2.95-.26v1.25l5.54-.49Zm1.21,8.23-3.27.28-2.7-4.47,3.32-.29Z"/><path d="M174.87,75l-1.28.11v.49L169,81.48l-7.84.68V79.07l6.5-.57,2.39-3.07-6.34.55V73.17l6.78-.59V69.76l-5.92.52-2.51,3.51-2.82.24V70.94l1.39-.12,2.46-3.5,10.48-.92v5.91l1.28-.12Z"/><path d="M192.15,73.35l-3.61.32.46,1.89-2.95.26-.48-1.89-4.46.39L180,75.42V77l1,.76,10.53-.92V79.8l-11.79,1L177,78.52V74.26l3-2.74V69.39l-3.59.32v-3l3.59-.31V65L183,64.7v1.47l8.6-.75v3l-8.6.76V71.2l9.13-.8Z"/><path d="M209.71,75.65l-2.53,2.77-3,.26v-3l1.77-.15.83-.9V72.83l-.83-.75-3.56.31v4.06l-2,2.57-3.85.34L193.93,77V72.76l2.58-2.86,2.92-.26v-2l-5.26.46v-2.9l5.26-.46V63.26l2.94-.26v1.51l1.74-.15v2.9l-1.74.16v2l4.81-.42,2.53,2.35Zm-10.28-.21V72.65l-1.85.16-.86,1v1.83l.79.75,1.16-.1Zm10.27-8-2.83.25v-1l-.74-.67-.92.08v-3l2.22-.2,2.27,2.11Z"/><path d="M227.84,66.65l-5,.43V68.3l4.46-.39v8.86l-11.88,1V69l4.59-.41V67.33l-5.34.47v2.44l-.92,7.8L211.09,78l.82-7.49V62l15.93-1.39ZM225,64.55V63.22l-10.37.91v1.33Zm-4.87,7.29V70.62l-2.25.2V72Zm0,3.42V74l-2.25.2v1.3Zm4.66-3.83V70.21l-2.13.19v1.21Zm0,3.43V73.55l-2.13.19V75Z"/><path d="M234.88,76l-3.09.27-2.29-2.11v-13l3-.26V72.5l.67.61,1.74-.15Zm10.33-11.23-1.59.14v8l-2.27,2.5-3.43.3v-3l2.06-.18.65-.71V65.18l-6.23.54v-3l6.23-.55V59.66l3-.27v2.55l1.59-.14Z"/><path d="M253,70l-2.77.25V59l2.77-.25Zm0,4.47-2.78.24V71.91l2.78-.24Z"/><polygon points="306.38 30.82 316.49 40.05 306.38 51.05 306.38 30.82"/></g></g></svg>