<svg xmlns="http://www.w3.org/2000/svg" viewBox="0 0 245.02 77.88"><defs><style>.talk_tit_svg1{fill:#fff;}</style></defs><title>tit</title><g id="レイヤー_2" data-name="レイヤー 2"><g id="content"><path class="talk_tit_svg1" d="M19.4,33.1l-4.95,6.33-11,1V37l9.49-.83,3.14-4V26.66l3.35-.3ZM11,27.59l-7.55.66V25.08L11,24.41Zm0,5.23-7.55.66V30.29L11,29.63Zm5.61-7.34-2.3.2V22.62l2.3-.2Zm3.46-.3-2.3.2V22.32l2.3-.2Z"/><path class="talk_tit_svg1" d="M19.93,56.87l-3.52.3-.51-1.85-3.54,2.21-9.3.81V55l4.66-13,3.58-.32-4.68,13L12,54.19l3.1-1.87L14,48.48l3.39-.3Z"/><path class="talk_tit_svg1" d="M58.61,28.14l-4.07.36v6.2L32.6,36.62V50l25.3-2.21v6.94L25.65,57.55V24.36l7-.61v5.84l12.83-1.12V21l5.44-.48V28l2.29-.2v-7.5l5.45-.48Z"/><path class="talk_tit_svg1" d="M90,39,58.43,41.74V34.59L90,31.83Z"/><path class="talk_tit_svg1" d="M126.29,48.75l-7.31.64-1.06-3.86-7.35,4.59-19.3,1.69v-7l9.67-27.06,7.42-.65L98.65,44.18l11.13-1,6.44-3.88-2.17-8,7-.62Z"/><path class="talk_tit_svg1" d="M159.7,35.13l-8.64.75-14.73-4.94V47.87l-6.83.6V15.27l6.83-.6v9L152,28.9l7.74-.68Z"/><path class="talk_tit_svg1" d="M195.54,29.74,164,32.51V25.36l31.58-2.76Z"/><path class="talk_tit_svg1" d="M232.38,26.8,222,40.38,204,42V35l14.76-1.3L225.43,25V14.06l-14.88,1.3-5.88,6.87-6.39.56V15.85l3.47-.31,5.84-6.87,24.79-2.16Z"/><path class="talk_tit_svg1" d="M244.5,29.05l-6.23.55V4.33l6.23-.54Zm0,10-6.23.55v-6.2l6.23-.54Z"/><polygon class="talk_tit_svg1" points="245.02 51.49 4.46 72.54 4.46 77.88 245.02 56.83 245.02 51.49"/><path d="M54.82,24.36l-4.06.35v6.2L28.81,32.83V46.21L54.11,44v7L21.86,53.77V20.57l7-.61V25.8l12.83-1.12v-7.5l5.45-.48v7.5l2.29-.2V16.5L54.82,16Z"/><path d="M86.22,35.19,54.65,38V30.81L86.22,28Z"/><path d="M122.5,45l-7.3.64-1.07-3.85-7.34,4.59L87.48,48V41L97.16,14l7.42-.65L94.87,40.39l11.13-1,6.43-3.88-2.17-8,7-.62Z"/><path d="M155.91,31.34l-8.64.76-14.73-5V44.08l-6.82.6V11.48l6.82-.59v9l15.64,5.26,7.73-.68Z"/><path d="M191.75,26l-31.58,2.76V21.57l31.58-2.76Z"/><path d="M228.59,23,218.21,36.59l-18,1.58v-7l14.77-1.29,6.71-8.76V10.27l-14.89,1.31-5.88,6.87-6.39.56v-7l3.47-.31,5.84-6.86,24.79-2.17Z"/><path d="M240.72,25.26l-6.24.55V.55L240.72,0Zm0,10-6.24.54v-6.2l6.24-.54Z"/><polygon points="241.02 47.49 0.46 68.54 0.46 73.88 241.02 52.83 241.02 47.49"/><path d="M16.34,31.06l-4.95,6.33-11,1V35l9.49-.83,3.14-4V24.62l3.35-.3ZM8,25.55.4,26.21V23L8,22.38Zm0,5.23L.4,31.44V28.25L8,27.59Zm5.61-7.34-2.3.21V20.58l2.3-.2Zm3.47-.3-2.31.2V20.28l2.31-.2Z"/><path d="M16.87,54.83l-3.52.3-.51-1.85L9.3,55.49,0,56.3V52.94l4.66-13,3.58-.32-4.68,13,5.36-.47L12,50.29l-1-3.85,3.38-.3Z"/></g></g></svg>