<svg xmlns="http://www.w3.org/2000/svg" width="215.01" height="98.27" viewBox="0 0 215.01 98.27"><defs><style>.cls-1{fill:#fff}.cls-2{fill:#de3232}</style></defs><title>text_go</title><g id="レイヤー_2" data-name="レイヤー 2"><g id="comment"><path class="cls-1" d="M81.15 77.06l-16.77 17H21.49L4.62 77.37V27.16l16.87-16.9h42.69L81 27.27v14.55H63.87V35l-7.41-7.68H29.21l-7.41 7.43v34.73L29.21 77h27.66L64 69.69v-6H41.24v-15h39.91zm81.17 0l-16.77 17h-42.37l-17-16.9v-50l16.87-16.9h42.48l16.77 16.8zm-17.59-8.19V35.26l-7.3-7.38H111.2l-7.41 7.38V69l7.61 7.58h25.92zm43.07 3.07h-18.72V4.62h18.72zm0 26.33h-18.62V81.88h18.62zM215 71.94h-18.71V4.62H215zm0 26.33h-18.61V81.88H215z"/><path class="cls-2" d="M76.52 72.44l-16.76 17H16.87L0 72.75V22.54l16.87-16.9h42.68l16.87 17v14.55H59.24v-6.86l-7.4-7.69H24.58l-7.4 7.48v34.74l7.4 7.48h27.67l7.1-7.28V59H36.62V44h39.9zm81.17 0l-16.76 17H98.55l-17-16.91v-50l16.9-16.89h42.48l16.76 16.8zm-17.58-8.19V30.64l-7.31-7.38h-26.22l-7.41 7.38v33.71l7.61 7.58h25.92zm43.06 3.07h-18.72V0h18.72zm0 26.33h-18.61V77.26h18.61zm27.22-26.33h-18.72V0h18.72zm0 26.33h-18.62V77.26h18.62z"/></g></g></svg>