<svg id="レイヤー_1" xmlns="http://www.w3.org/2000/svg" viewBox="0 0 217.88 105.33"><style>.st0{fill:#fff}.st1{fill:#429fbc}.st2{fill:none;stroke:#fff;stroke-width:3;stroke-miterlimit:10}</style><title>text_good</title><g id="comment"><path class="st0" d="M51 92l-10.57 10.69H13.5L2.9 92.2V60.67l10.6-10.62h26.8l10.6 10.69v9.13H40.11v-4.31l-4.65-4.82H18.34l-4.65 4.69v21.82L18.34 92h17.38l4.45-4.57v-3.8H25.9v-9.4H51V92zm51.08 0l-10.53 10.69H64.94L54.28 92.07v-31.4l10.6-10.62h26.67l10.53 10.56V92zM91 86.86V65.75l-4.59-4.63H70l-4.65 4.63v21.18l4.78 4.76h16.26L91 86.86zM153.2 92l-10.53 10.68h-26.61L105.4 92.07v-31.4L116 50.05h26.68l10.52 10.56V92zm-11-5.15v-21.1l-4.58-4.63H121.1l-4.66 4.63v21.18l4.78 4.76h16.28l4.7-4.84zm59.58 5.35l-10.66 10.49h-33.85V50.05h33.85l10.66 10.62V92.2zm-11.24-5.08V65.5L186 60.8h-17.62v31H186l4.54-4.68zm27.34 1.67h-11.76V46.51h11.76v42.28zm0 16.54h-11.69V95h11.69v10.33z"/><path class="st1" d="M48.06 89.11L37.53 99.79H10.59L0 89.3V57.77l10.59-10.62H37.4L48 57.83V67H37.21v-4.34l-4.65-4.83H15.44l-4.65 4.7v21.81L15.44 89h17.37l4.46-4.57v-3.75H23v-9.4h25.06v17.83zm51.12 0L88.65 99.79H62L51.38 89.17v-31.4L62 47.15h26.65L99.18 57.7v31.41zM88.14 84V62.85l-4.59-4.63H67.08l-4.65 4.63V84l4.78 4.76h16.27L88.14 84zm62.16 5.11l-10.53 10.68h-26.62L102.5 89.17v-31.4l10.59-10.62h26.68L150.3 57.7v31.41zM139.25 84V62.85l-4.59-4.63h-16.47l-4.65 4.63V84l4.78 4.76h16.28l4.65-4.76zm59.62 5.3l-10.65 10.49h-33.85V47.15h33.85l10.65 10.62V89.3zm-11.24-5.08V62.59l-4.58-4.69h-17.57v30.95h17.57l4.58-4.63zM215 85.89h-11.78V43.61H215v42.28zm0 16.54h-11.7v-10.3H215v10.3z"/><path class="st0" d="M161.35 37H58.46l-3-3V6.17l3-3h102.89l3 3V34l-3 3z"/><path class="st1" d="M158.18 33.83H55.29l-3-3V3l3-3h102.89l3 3v27.83l-3 3z"/><path class="st0" d="M68.64 13.15l-3.25 12.69-2.39-.56 1.14-4.08-1.77-1.07L63.54 18l1.23.72.89-3.24h-2.1L62.69 19l-2.29-.51 1.79-7.08h-1.38V9h7v2.39h-3.2l-.43 1.75h2.13l.11-.39 2.22.4zm9.51 9.31l-1.43.48.54 2.2-2.53.68-.5-2.07-5.12 1.66-.67-2.36 5.21-1.71-.45-1.89h-4.6v-2.36h4L72.35 16h-3.42v-2.4h2.87l-.29-1.12H68.6V10.1H71l-.3-1.18 2.45-.56.44 1.74H75l-.33-1.18 2-.4.33 1.58h.87v2.38h-3.72l.27 1.12h3V16H75l.27 1.12h2.59v2.36h-2l.27 1.08 1.36-.45.66 2.35zm5.91-1.97H81V9.56h3.06v10.93zm11.11 1.59L92 25.27h-5.52v-3h3.92l1.7-1.71v-11h3.07v12.52zm9.71 3.1h-6.15V9.35h6.15v15.83zm-2.43-9.12V12h-1.28v4l1.28.06zm0 6.47v-3.82h-1.28v3.82h1.28zm12.86-2.32h-1.14v5.36h-4.4v-2.84h1.51v-2.52h-5.81V17.7h5.81v-1.46h-5.81v-2.52h3.35v-1.45H106V9.74h2.84V8.63h3v1.11h3v2.53h-3v1.45h3.51v2.52h-1.14v1.46h1.14l-.04 2.51zm-6.2 4.08l-2.52.49-.74-3.55 2.52-.5.74 3.56zm16.41-7.52H121v8.82h-2.9V8.92h7.47l-.05 7.85zM123 12.05v-1h-2v1h2zm0 2.63v-1h-2v1h2zM129.86 25h-7.47v-7.24h7.47V25zm-2.39-4.39v-.88h-2.73v.88h2.73zm0 2.45v-.92h-2.73v.92h2.73zm6.69 2.52h-2.87v-8.81h-4.56V8.92h7.43v16.66zm-2.87-13.54v-1h-2v1h2zm0 2.63v-1h-2v1h2z"/><path class="st2" d="M139.74 15.99l6.11-6.11 6.11 6.11m-12.22 8.38l6.11-6.11 6.11 6.11"/></g></svg>