<svg xmlns="http://www.w3.org/2000/svg" viewBox="0 0 57.8 45.24"><defs><style>.a{fill:#d0b263}.b{fill:#fff;stroke:#fff;stroke-miterlimit:10;stroke-width:.98px}</style></defs><title>header_logo</title><path class="a" d="M4.91 17.22c-1.9.16-3-.87-3-2.6v-1.76l2-.17v1.79c0 .68.36 1 1 .94a1 1 0 0 0 1-1.1V5.91L8 5.73V14a3.09 3.09 0 0 1-3.09 3.22zm4.68-.65v-11l2.12-.18v11zm10.53-.9v-8l-.46 2.43-1.21 5.68-1.61.22-1.14-5.52-.45-2.35v8l-1.9.16v-11L16.21 5l1.18 5.47.36 2 .37-2.06 1.16-5.67 2.84-.24v11zm10.19-.86l-3.59.3v-11l3.55-.3c1.56-.14 2.51.59 2.51 2.1v1.22a1.82 1.82 0 0 1-1.35 2 1.56 1.56 0 0 1 1.41 1.74v1.44a2.44 2.44 0 0 1-2.53 2.5zm.44-8.54c0-.5-.22-.78-.75-.73l-1.15.1v3l1.06-.09a.82.82 0 0 0 .84-.93zm0 4.59c0-.58-.3-.85-.84-.8l-1.1.09v3.1l1.2-.1c.53-.05.74-.34.74-.86zm3.58 3.61v-11L39.77 3v1.79l-3.32.28v2.72l2.29-.19v1.61l-2.29.2v3.05l3.32-.29V14zm11.3-.97l-.37-2.12-2 .17-.41 2.19-2 .17 2.29-11.17 2.37-.2 2.28 10.78zM44.3 5.61l-.77 4.3L45 9.79zm11.5 7.03v-8l-.46 2.43-1.21 5.67-1.61.14-1.14-5.44-.45-2.35v8l-1.93.12v-11L51.89 2l1.18 5.47.36 2 .37-2.07L55 1.73l2.83-.24v11zM11.91 23.26v21.55l-5 .43V23.69L2 24.11v-4.26l14.86-1.27v4.26zm15.92 20.2l-.89-5-4.74.41-1 5.16-4.66.39L22 18.14l5.59-.47L32.89 43zm-3.14-18.57L22.89 35l3.41-.29zm19.12 7.32l-3.25.28v9.88l-5 .43V17l8.23-.7c3.78-.32 6.07 1.58 6.07 5.3v4.34c.02 3.66-2.27 5.95-6.05 6.27zm1.25-10.14c0-1.28-.52-1.89-1.77-1.79l-2.73.23v8.26l2.73-.23c1.25-.11 1.77-.81 1.77-2.09zm10.71 11.8L54.4 34l-1.49-7.28V15.51l4.38-.37v11.2zM53.2 41.3v-4.5l3.8-.32V41z"/><path class="b" d="M3.53 16.26c-1.89.16-3-.86-3-2.59V11.9l2-.17v1.8c0 .67.35 1 1 .93a1 1 0 0 0 1-1.1V5l2.13-.18v8.27a3.09 3.09 0 0 1-3.13 3.17zm4.68-.65v-11l2.12-.18v11zm10.53-.89v-8l-.46 2.43-1.21 5.67-1.61.18-1.14-5.48-.45-2.35v8l-1.87.12v-11l2.85-.25L16 9.54l.36 2 .38-2.06 1.16-5.67 2.83-.24v11zm10.19-.87l-3.59.31v-11l3.55-.3c1.56-.13 2.52.59 2.52 2.11v1.2a1.83 1.83 0 0 1-1.35 2 1.57 1.57 0 0 1 1.4 1.75v1.43a2.44 2.44 0 0 1-2.53 2.5zm.44-8.54c0-.5-.22-.77-.75-.73l-1.14.1v3l1.06-.09a.83.83 0 0 0 .83-.93zm0 4.59c0-.57-.29-.84-.84-.8l-1.09.09v3.1l1.19-.1c.53 0 .74-.34.74-.85zM33 13.51v-11l5.44-.46v1.78l-3.32.29v2.71l2.29-.19v1.61l-2.29.2v3.05l3.32-.28v1.83zm11.25-.96l-.37-2.13-2 .17-.41 2.19-2 .17 2.29-11.17 2.37-.2 2.28 10.78zm-1.33-7.9L42.15 9l1.46-.12zm11.51 7.03v-8L54 6.15l-1.21 5.67-1.65.18L50 6.49l-.44-2.35v8l-1.9.16v-11l2.85-.3 1.18 5.47.36 2 .38-2L53.59.78l2.84-.24v11zM10.53 22.3v21.55l-5 .43V22.73l-4.94.42v-4.26l14.86-1.27v4.27zm15.92 20.2l-.89-5-4.73.4-1 5.16-4.66.4 5.38-26.27 5.59-.48 5.34 25.36zm-3.13-18.57L21.51 34l3.41-.29zm19.11 7.33l-3.25.27v9.89l-5 .42V16l8.23-.7c3.78-.32 6.07 1.57 6.07 5.29V25c.02 3.65-2.27 5.94-6.05 6.26zm1.25-10.15c0-1.28-.52-1.89-1.77-1.79l-2.73.24v8.25l2.73-.23c1.25-.11 1.77-.81 1.77-2.09zm10.71 11.8L53 33l-1.48-7.28V14.55l4.37-.37v11.2zm-2.57 7.43v-4.49l3.77-.33V40z"/><path d="M3.53 16.26c-1.89.16-3-.86-3-2.59V11.9l2-.17v1.8c0 .67.35 1 1 .93a1 1 0 0 0 1-1.1V5l2.13-.18v8.27a3.09 3.09 0 0 1-3.13 3.17zm4.68-.65v-11l2.12-.18v11zm10.53-.89v-8l-.46 2.43-1.21 5.67-1.61.18-1.14-5.48-.45-2.35v8l-1.87.12v-11l2.85-.25L16 9.54l.36 2 .38-2.06 1.16-5.67 2.83-.24v11zm10.19-.87l-3.59.31v-11l3.55-.3c1.56-.13 2.52.59 2.52 2.11v1.2a1.83 1.83 0 0 1-1.35 2 1.57 1.57 0 0 1 1.4 1.75v1.43a2.44 2.44 0 0 1-2.53 2.5zm.44-8.54c0-.5-.22-.77-.75-.73l-1.14.1v3l1.06-.09a.83.83 0 0 0 .83-.93zm0 4.59c0-.57-.29-.84-.84-.8l-1.09.09v3.1l1.19-.1c.53 0 .74-.34.74-.85zM33 13.51v-11l5.44-.46v1.78l-3.32.29v2.71l2.29-.19v1.61l-2.29.2v3.05l3.32-.28v1.83zm11.25-.96l-.37-2.13-2 .17-.41 2.19-2 .17 2.29-11.17 2.37-.2 2.28 10.78zm-1.33-7.9L42.15 9l1.46-.12zm11.51 7.03v-8L54 6.15l-1.21 5.67-1.65.18L50 6.49l-.44-2.35v8l-1.9.16v-11l2.85-.3 1.18 5.47.36 2 .38-2L53.59.78l2.84-.24v11zM10.53 22.3v21.55l-5 .43V22.73l-4.94.42v-4.26l14.86-1.27v4.27zm15.92 20.2l-.89-5-4.73.4-1 5.16-4.66.4 5.38-26.27 5.59-.48 5.34 25.36zm-3.13-18.57L21.51 34l3.41-.29zm19.11 7.33l-3.25.27v9.89l-5 .42V16l8.23-.7c3.78-.32 6.07 1.57 6.07 5.29V25c.02 3.65-2.27 5.94-6.05 6.26zm1.25-10.15c0-1.28-.52-1.89-1.77-1.79l-2.73.24v8.25l2.73-.23c1.25-.11 1.77-.81 1.77-2.09zm10.71 11.8L53 33l-1.48-7.28V14.55l4.37-.37v11.2zm-2.57 7.43v-4.49l3.77-.33V40z"/></svg>