<svg xmlns="http://www.w3.org/2000/svg" viewBox="0 0 30.46 568.77"><defs><style>.text2_svg_1{fill:#006549;}</style></defs><title>アセット 2</title><g id="レイヤー_2" data-name="レイヤー 2"><g id="レイヤー_1-2" data-name="レイヤー 1"><path class="text2_svg_1" d="M9.79.35l2.82.58c-.19.7-.42,1.63-.58,2.3a68.41,68.41,0,0,1-2.85,9.86,46.67,46.67,0,0,1-4.64,8.64L1.86,20.61A41.34,41.34,0,0,0,6.72,12,45.79,45.79,0,0,0,9.79.35Zm7.84.51L20.19,0c1.25,2.3,3.27,6.66,4.61,10,1.25,3.11,2.91,7.91,3.77,10.75l-2.81.9a93.22,93.22,0,0,0-3.55-10.81A83.06,83.06,0,0,0,17.63.86Z"/><path class="text2_svg_1" d="M13.79,45.82l-2.4.9a58.77,58.77,0,0,0-2.75-7L11,38.88C11.62,40.22,13.18,44.16,13.79,45.82ZM29.18,39.1c-.22.61-.38,1.12-.51,1.54a24.61,24.61,0,0,1-4.22,9.53,23.28,23.28,0,0,1-9.86,7.24l-2.05-2.12a20,20,0,0,0,9.79-6.43,21.05,21.05,0,0,0,4.13-10.52Zm-8.64,5-2.37.84a61.41,61.41,0,0,0-2.46-6.76l2.3-.8C18.56,38.62,20.13,42.72,20.54,44.06Z"/><path class="text2_svg_1" d="M8.13,81.82a85.79,85.79,0,0,0,12.29-3.93,21.2,21.2,0,0,0,2.68-1.38,3.55,3.55,0,0,1,2.34-6.2,3.54,3.54,0,1,1-2.15,6.33l1,2.34c-.9.38-2,.89-3,1.21A133.73,133.73,0,0,1,8.13,84.45v6.91c0,1.6.64,2,2.17,2.34a30,30,0,0,0,4.16.25,50.72,50.72,0,0,0,10.75-1v2.88a93,93,0,0,1-10.88.64,33.06,33.06,0,0,1-5-.32c-2.4-.42-3.77-1.54-3.77-4.1V74.72a13.56,13.56,0,0,0-.2-2.53H8.29a20,20,0,0,0-.16,2.53Zm19.39-8a2.08,2.08,0,1,0-2.08,2.08A2.08,2.08,0,0,0,27.52,73.86Z"/><path class="text2_svg_1" d="M13.41,114.11a23.32,23.32,0,0,0-.19-3.55h3.26a19.16,19.16,0,0,0-.23,3.52V131.3a35.8,35.8,0,0,0,.2,4.38H13.22a43.1,43.1,0,0,0,.16-4.38Z"/><path class="text2_svg_1" d="M25.69,169.22a20.15,20.15,0,0,0,2.63-.2v2.85c-.87-.09-2-.13-2.63-.13H4.93c-.87,0-1.79,0-2.79.13V169a20.47,20.47,0,0,0,2.79.2h8.86v-14.5H6.72a26,26,0,0,0-2.66.13v-2.72a26.37,26.37,0,0,0,2.66.16H24c1,0,1.92-.1,2.69-.16v2.72a23.2,23.2,0,0,0-2.69-.13H16.48v14.5Z"/><path class="text2_svg_1" d="M16.51,204.16A29.39,29.39,0,0,0,27,192.58l1.53,2.69A31.35,31.35,0,0,1,18,206.43a33.89,33.89,0,0,1-12.35,4.9l-1.66-2.56A32.44,32.44,0,0,0,16.51,204.16Zm-2.11-9.73-1.92,2a68.94,68.94,0,0,0-7.81-6.37l1.76-1.92A67.35,67.35,0,0,1,14.4,194.43Z"/><path class="text2_svg_1" d="M11.71,233.09a110.63,110.63,0,0,1,13.44,5.18l-1.09,2.66a85.57,85.57,0,0,0-12.35-5.06l0,10.37a36,36,0,0,0,.2,3.74h-3a27.38,27.38,0,0,0,.22-3.74V228a19.09,19.09,0,0,0-.26-3.3h3.08c-.1,1-.23,2.34-.23,3.3Zm9.5-1.54a32.39,32.39,0,0,0-2.81-4.76l1.76-.77a48.59,48.59,0,0,1,2.85,4.7Zm3.91-1.6a29.37,29.37,0,0,0-2.88-4.73l1.69-.8a35.38,35.38,0,0,1,2.95,4.67Z"/><path class="text2_svg_1" d="M8,263.68a18.9,18.9,0,0,0-.61,2.08,74,74,0,0,0-1.53,11.87,30.48,30.48,0,0,0,.29,4.23c.51-1.41,1.21-3.2,1.69-4.45l1.35,1A70.72,70.72,0,0,0,7,285.38a6.87,6.87,0,0,0-.16,1.37l.1,1.09L4.74,288a38.06,38.06,0,0,1-1.16-9.95A89.45,89.45,0,0,1,5,265.63a17.43,17.43,0,0,0,.22-2.2Zm7.07,15a9.51,9.51,0,0,0-.41,2.82c0,1.4.93,2.78,5.18,2.78a34.92,34.92,0,0,0,7.65-.8l0,2.62a39.51,39.51,0,0,1-7.68.64c-5.25,0-7.55-1.76-7.55-4.64a16.76,16.76,0,0,1,.51-3.64Zm-1.24-12.64a54.74,54.74,0,0,0,12.73,0v2.53a76.94,76.94,0,0,1-12.7,0Z"/><path class="text2_svg_1" d="M29.37,317.25V319H1.09v-1.76H14v-1.89H3.26v-1.63H14V312H4.16v-1.6H14v-1.89H1.15v-1.79H14V304.9H4.51v-1.6H14v-2.24h2.34v2.24h9.15v3.39h3.9v1.79h-3.9V312H16.29v1.76H27.2v1.63H16.29v1.89ZM5.18,320.51H25.6v9.83H23.23v-1H7.49v1.06H5.18Zm2.31,1.64v2H23.23v-2Zm15.74,5.53v-2.05H7.49v2.05Zm-6.94-21H23.1V304.9H16.29Zm0,3.68H23.1v-1.89H16.29Z"/><path class="text2_svg_1" d="M8.42,359.23a14.46,14.46,0,0,0-.48,3.14c0,2.37,1.82,3.77,6.24,3.77a34.08,34.08,0,0,0,7.16-.67L21.18,368a42.21,42.21,0,0,1-6.91.58c-5.53,0-8.77-1.83-8.77-5.7A20.1,20.1,0,0,1,6,359Zm18-6.27a27.7,27.7,0,0,1-5.09,1.6c.93,1.95,1.92,4,2.72,5.54l-1.22,1.5c-1.53-.26-4.06-.61-6-.83l.22-1.92c1.51.16,2.94.32,3.94.41-.55-1.15-1.28-2.68-2-4.25a42.46,42.46,0,0,1-5.92.45A50.34,50.34,0,0,1,6.43,355l-.09-2.4a40.63,40.63,0,0,0,6.52.61,35,35,0,0,0,5.09-.36c-.51-1.18-1-2.24-1.31-3l-.51-1.15a33.53,33.53,0,0,1-4.45.28,35.12,35.12,0,0,1-6-.57l-.1-2.27a30.24,30.24,0,0,0,5.86.67c1.28,0,2.52-.07,3.77-.19-.19-.45-.38-.84-.54-1.19a16.43,16.43,0,0,0-1.25-2.3l2.88-.58c.32,1.15.8,2.43,1.28,3.71a29.75,29.75,0,0,0,5.89-1.56l.48,2.23a33.58,33.58,0,0,1-5.51,1.41l.39.9c.28.67.8,1.82,1.44,3.2a29.73,29.73,0,0,0,5.53-1.76Z"/><path class="text2_svg_1" d="M6.88,398.5v9.63c0,1.31-.29,1.95-1.09,2.33a9.9,9.9,0,0,1-4,.42,9.28,9.28,0,0,0-.7-2.18c1.38,0,2.62,0,3,0s.54-.09.54-.57V399.2L.86,400.45l-.6-2.31c1.21-.32,2.75-.8,4.41-1.31v-6.56h-4V388.1h4v-6.4H6.88v6.4H10.3v1.21a18.29,18.29,0,0,0,5.48-7.64L18,382c-.28.7-.6,1.41-1,2.11H22.4l.35-.13,1.5,1a28.23,28.23,0,0,1-2.3,4.2h6.37v10.39H26.24v-3.23h-3c-1.88,0-2.33-.41-2.33-2.2v-3H18.72c-.26,3-1.15,5-3.87,6.14A4,4,0,0,0,13.79,396v3.68h-2v-8.83c-.2.19-.42.35-.61.51a6.63,6.63,0,0,0-1.06-1.06H6.88v5.89c1.06-.32,2.11-.67,3.17-1l.32,2.2Zm14.62,4.35C23,406,25.79,408,30,408.83a7.94,7.94,0,0,0-1.44,1.95c-4.32-1-7.16-3.26-8.83-6.78-1.31,3.39-4,5.63-9.69,6.94a6.33,6.33,0,0,0-1.19-1.82c5.51-1.12,7.91-3.1,9-6.27H10v-2H18.4c.16-.86.26-1.82.35-2.85h2.18c-.1,1-.19,2-.35,2.85h9v2Zm-5.56-16.8a20.91,20.91,0,0,1-2.44,3.14h6.12a28.21,28.21,0,0,0,1.69-3.14Zm-2.15,9.89c2.21-.93,2.91-2.37,3.14-4.8H13.79Zm12.45-4.8H22.75v3c0,.51.06.57.74.57H25.6c.45,0,.57,0,.64-.22Z"/><path class="text2_svg_1" d="M20.58,434.15c-1.19,1.08-4.64,4.28-5.76,5.47a4.17,4.17,0,0,1,1.12.09,2.81,2.81,0,0,1,2.36,2.21c.32.93.71,2.5,1.06,3.49.35,1.18,1.09,1.66,2.65,1.66a25.67,25.67,0,0,0,5.86-.64l-.16,2.63a40.44,40.44,0,0,1-5.79.48c-2.5,0-4.06-.58-4.74-2.63-.32-.93-.76-2.75-1.05-3.65a2,2,0,0,0-1.89-1.6A3.36,3.36,0,0,0,12,442.78a81.37,81.37,0,0,0-6.3,6.85L3.3,448a15.41,15.41,0,0,0,1.53-1.35c1.25-1.28,9.73-9.69,12.77-12.76-2.43.16-7.65.61-9.54.77-1,.09-1.79.19-2.46.28l-.22-2.75a20.82,20.82,0,0,0,2.59.07c1.79,0,9-.52,11.36-.84a6.21,6.21,0,0,0,1.44-.32l1.5,1.7A20.82,20.82,0,0,0,20.58,434.15Zm1.05-8.61-.32,2.33c-3.1-.25-8.51-1-12.29-1.69l.42-2.27A111.1,111.1,0,0,0,21.63,425.54Z"/><path class="text2_svg_1" d="M22.78,465.44c-.54.39-1.24.83-1.73,1.19-1.5,1.15-5.31,4.57-7.64,6.59a11.79,11.79,0,0,1,4-.67c5.18,0,8.89,3,8.89,7.23,0,5.08-4.51,8.32-11.16,8.32-4.13,0-6.34-2-6.34-4.42,0-2.11,1.89-4.09,4.8-4.09a6.07,6.07,0,0,1,6.33,5.34,5.48,5.48,0,0,0,3.84-5.22c0-3-2.91-5.08-6.84-5.08-4.83,0-8,2.39-11.75,6.33l-1.82-1.82c2.53-2.18,6.37-5.51,8.19-7s5.28-4.61,6.85-6c-1.63.07-7.23.36-8.83.45-.71,0-1.44.07-2.11.16l-.07-2.59a17.53,17.53,0,0,0,2.24.13c1.57,0,8.42-.23,10-.39a7,7,0,0,0,1.66-.28Zm-5.12,20.13c-.32-2.4-1.79-4-4.06-4-1.44,0-2.5.8-2.5,1.89,0,1.5,1.54,2.33,3.81,2.33A15.17,15.17,0,0,0,17.66,485.57Z"/><path class="text2_svg_1" d="M15.23,506.69a21.25,21.25,0,0,1,15.23,6.37l-1,1.92A20,20,0,0,0,1,515l-1-1.92A21.25,21.25,0,0,1,15.23,506.69Z"/><path class="text2_svg_1" d="M20,531.78c0-2.21-1.6-3.81-4.86-3.81a8.14,8.14,0,0,0-6.05,2.91l-1.73-1.6a10.62,10.62,0,0,1,8.1-3.71c4.51,0,7.39,2.3,7.39,6,0,4.83-7.65,5.82-6.79,10.62H13.47C12.48,536.87,20,535.43,20,531.78Zm-5.18,13.28a2.44,2.44,0,0,1,2.56,2.49,2.47,2.47,0,0,1-2.56,2.53,2.48,2.48,0,0,1-2.59-2.53A2.46,2.46,0,0,1,14.85,545.06Z"/><path class="text2_svg_1" d="M15.23,568.77A21.25,21.25,0,0,1,0,562.4l1-1.92a20,20,0,0,0,28.48,0l1,1.92A21.25,21.25,0,0,1,15.23,568.77Z"/></g></g></svg>