<svg display="none">
  <symbol id="icon-facebook" viewBox="0 0 14 14">
    <path d="M8.08 14V7.61h2.14l.32-2.49H8.08V3.54c0-.72.2-1.21 1.23-1.21h1.32V.1C10.41.07 9.62 0 8.71 0c-1.9 0-3.2 1.16-3.2 3.29v1.84H3.36v2.49h2.15V14h2.57z"/>
  </symbol>
  <symbol id="icon-facebook-rect" viewBox="0 0 17 17">
    <path d="M16.1,0H0.9C0.4,0,0,0.4,0,0.9v14.9c0,0.5,0.4,0.9,0.9,0.9h8.1v-6.5H6.9V7.7h2.2V5.9c0-2.2,1.3-3.3,3.3-3.3
      c0.9,0,1.7,0.1,2,0.1v2.3l-1.4,0c-1.1,0-1.3,0.5-1.3,1.2v1.6h2.5l-0.3,2.5h-2.2v6.5h4.3c0.5,0,0.9-0.4,0.9-0.9V0.9
      C17,0.4,16.6,0,16.1,0z"/>
    <!-- <rect id="Blue" width="17" height="17" rx="0.94" ry="0.94" style=""/>
    <path id="f" d="M11.73,17V10.42h2.21l.33-2.57H11.73V6.21C11.73,5.47,11.94,5,13,5h1.36V2.67a18.69,18.69,0,0,0-2-.1A3.09,3.09,0,0,0,9.08,6V7.85H6.86v2.57H9.08V17Z" style="fill:none"/> -->
  </symbol>
  <symbol id="icon-twitter" viewBox="0 0 14 14">
    <path d="M14 2.66c-.52.23-1.07.38-1.65.45a2.89 2.89 0 0 0 1.26-1.59c-.55.33-1.17.57-1.82.7a2.86 2.86 0 0 0-2.1-.91 2.87 2.87 0 0 0-2.87 2.87c0 .23.03.44.07.65a8.147 8.147 0 0 1-5.92-3c-.24.43-.38.92-.38 1.45 0 1 .51 1.88 1.28 2.39-.47-.01-.91-.14-1.3-.36v.04c0 1.39.99 2.55 2.3 2.82-.24.07-.49.1-.76.1-.19 0-.37-.02-.54-.05a2.866 2.866 0 0 0 2.68 1.99c-.98.77-2.22 1.23-3.57 1.23-.23 0-.46-.01-.69-.04 1.27.81 2.78 1.29 4.4 1.29 5.28 0 8.17-4.38 8.17-8.17 0-.12 0-.25-.01-.37.58-.41 1.06-.92 1.45-1.49"/>
  </symbol>
  <symbol id="icon-instagram" viewBox="0 0 14 14">
    <path d="M7 1.26c1.87 0 2.09.01 2.83.04.68.03 1.05.15 1.3.24.33.13.56.28.8.52s.4.48.52.8c.1.25.21.62.24 1.3.03.74.04.96.04 2.83s-.01 2.09-.04 2.83c-.03.68-.15 1.05-.24 1.3-.13.33-.28.56-.52.8s-.48.4-.8.52c-.25.1-.62.21-1.3.24-.74.05-.96.06-2.83.06s-2.09-.01-2.83-.04c-.68-.03-1.05-.15-1.3-.24-.33-.13-.56-.28-.8-.52s-.4-.48-.52-.8c-.1-.25-.21-.62-.24-1.3-.04-.75-.05-.97-.05-2.84 0-1.87.01-2.09.04-2.83.03-.68.15-1.05.24-1.3.13-.33.28-.56.52-.8s.48-.4.8-.52c.25-.1.62-.21 1.3-.24.75-.04.97-.05 2.84-.05M7 0C5.1 0 4.86.01 4.11.04s-1.25.15-1.7.33c-.46.18-.85.42-1.24.8-.38.39-.62.78-.8 1.24-.17.45-.29.95-.33 1.7C.01 4.86 0 5.1 0 7c0 1.9.01 2.14.04 2.89s.15 1.25.33 1.7c.18.46.42.85.81 1.24.39.39.78.63 1.24.81.45.17.95.29 1.7.33.74.02.98.03 2.88.03s2.14-.01 2.89-.04 1.25-.15 1.7-.33c.46-.18.85-.42 1.24-.81.39-.39.63-.78.81-1.24.17-.45.29-.95.33-1.7.02-.74.03-.98.03-2.88s-.01-2.14-.04-2.89-.15-1.25-.33-1.7c-.18-.46-.42-.85-.81-1.24-.39-.39-.78-.63-1.24-.81-.45-.17-.95-.29-1.7-.33C9.14.01 8.9 0 7 0"/>
    <path d="M7 3.41c-1.99 0-3.59 1.6-3.59 3.59s1.6 3.59 3.59 3.59c1.99 0 3.59-1.61 3.59-3.59S8.99 3.41 7 3.41m0 5.92C5.71 9.33 4.67 8.29 4.67 7S5.71 4.67 7 4.67 9.33 5.71 9.33 7 8.29 9.33 7 9.33M11.58 3.26c0 .46-.38.84-.84.84-.46 0-.84-.38-.84-.84 0-.46.38-.84.84-.84.46 0 .84.38.84.84"/>
  </symbol>
  <symbol id="icon-youtube" viewBox="0 -30 180 180">
    <path class="" d="M172.3,19.4c-2-7.6-8-13.6-15.6-15.7C143,0,88,0,88,0S33,0,19.2,3.7c-7.6,2-13.5,8-15.6,15.7C0,33.2,0,62,0,62
      s0,28.8,3.7,42.6c2,7.6,8,13.6,15.6,15.7C33,124,88,124,88,124s55,0,68.8-3.7c7.6-2,13.5-8,15.6-15.7C176,90.8,176,62,176,62
      S176,33.2,172.3,19.4z M70,88.2V35.8L116,62L70,88.2z"/>
  </symbol>
  <symbol id="icon-line" viewBox="0 0 22 22">
    <path class="" d="M1274,9413.37c0-5.17-4.94-9.37-11-9.37s-11,4.2-11,9.37c0,4.63,3.91,8.51,9.2,9.24a1.362,1.362,0,0,1,.97.57,2.435,2.435,0,0,1,.03,1.04s-0.13.82-.16,0.99c-0.04.29-.22,1.14,0.96,0.62a35.7,35.7,0,0,0,8.64-6.7h0A8.562,8.562,0,0,0,1274,9413.37Zm-14.88,2.76a0.222,0.222,0,0,1-.22.22h-3.08a0.2,0.2,0,0,1-.15-0.06v-0.01h0a0.2,0.2,0,0,1-.06-0.15h0v-5.03a0.216,0.216,0,0,1,.21-0.23h0.77a0.224,0.224,0,0,1,.22.23v3.99h2.09a0.224,0.224,0,0,1,.22.23v0.81Zm1.86,0a0.222,0.222,0,0,1-.22.22h-0.77a0.214,0.214,0,0,1-.21-0.22v-5.03a0.216,0.216,0,0,1,.21-0.23h0.77a0.224,0.224,0,0,1,.22.23v5.03Zm5.31,0a0.222,0.222,0,0,1-.22.22h-0.77a0.075,0.075,0,0,1-.05-0.01h-0.02l-0.01-.01h-0.02v-0.01a0.02,0.02,0,0,1-.02-0.01h0a0.121,0.121,0,0,1-.05-0.05l-2.2-3.12v2.99a0.222,0.222,0,0,1-.22.22h-0.77a0.214,0.214,0,0,1-.21-0.22v-5.03a0.216,0.216,0,0,1,.21-0.23h0.8c0.01,0,.01,0,0.01.01h0.03l0.01,0.01h0.01a0.01,0.01,0,0,1,.01.01h0.01l0.01,0.01a0.01,0.01,0,0,1,.01.01h0c0.01,0,.01.01,0.02,0.01h0c0,0.01.01,0.01,0.01,0.02h0a0.038,0.038,0,0,1,.02.02l2.2,3.11v-2.98a0.216,0.216,0,0,1,.21-0.23h0.77a0.224,0.224,0,0,1,.22.23v5.03Zm4.26-4.22a0.222,0.222,0,0,1-.22.22h-2.09v0.85h2.09a0.224,0.224,0,0,1,.22.23v0.81a0.222,0.222,0,0,1-.22.22h-2.09v0.85h2.09a0.224,0.224,0,0,1,.22.23v0.81a0.222,0.222,0,0,1-.22.22h-3.08a0.2,0.2,0,0,1-.15-0.06v-0.01h0a0.2,0.2,0,0,1-.06-0.15h0v-5.03h0a0.227,0.227,0,0,1,.06-0.16h0v-0.01a0.253,0.253,0,0,1,.15-0.06h3.08a0.224,0.224,0,0,1,.22.23v0.81Z" transform="translate(-1252 -9404)"/>
  </symbol>
  <symbol id="icon-web" viewBox="0 0 89 89">
    <path d="M44.5,0C19.9,0,0,19.9,0,44.5S19.9,89,44.5,89S89,69.1,89,44.5S69.1,0,44.5,0z M76,26.2h-7.2c-1.5-5-3.9-9.6-7-13.8
    C67.7,15.6,72.6,20.4,76,26.2z M81,44.5c0,3.5-0.5,7-1.5,10.3h-8.7c1.1-6.9,1.1-13.8,0-20.7h8.7C80.5,37.5,81,41,81,44.5z M8,44.5
    c0-3.5,0.5-7,1.5-10.3h8.7c-1.1,6.9-1.1,13.8,0,20.7H9.5C8.5,51.5,8,48,8,44.5z M25.4,44.5c0-3.5,0.3-6.9,1-10.3h14.1v20.6H26.4
    C25.7,51.4,25.4,48,25.4,44.5z M48.5,10.4c5.4,4,9.5,9.5,11.8,15.8H48.5V10.4z M40.5,10.4v15.8H28.7C31,19.9,35.1,14.4,40.5,10.4z
     M40.5,62.8v15.8c-5.4-4-9.5-9.5-11.8-15.8H40.5z M48.5,78.6V62.8h11.8C58,69.1,53.9,74.6,48.5,78.6z M48.5,54.8V34.2h14.1
    c1.3,6.8,1.3,13.9,0,20.7L48.5,54.8z M27.2,12.4c-3.1,4.2-5.5,8.8-7,13.8H13C16.4,20.4,21.3,15.6,27.2,12.4z M13,62.8h7.2
    c1.5,5,3.9,9.6,7,13.8C21.3,73.4,16.4,68.6,13,62.8z M61.8,76.6c3.1-4.2,5.5-8.8,7-13.8H76C72.6,68.6,67.7,73.4,61.8,76.6z"/>
  </symbol>
</svg>



