<svg id="グループ_7425" data-name="グループ 7425" xmlns="http://www.w3.org/2000/svg" width="89.941" height="34" viewBox="0 0 89.941 34">
  <path id="パス_3261" data-name="パス 3261" d="M133.733,9.464l-.035.229-.013.228.046.229-.06.229,0,.229v.229l.006.229.012.234.225.005.22-.027.221.035.22-.008.219.005.22-.049.221.072.22-.023.22-.012.221.017.221-.006.221.032.22-.07.221-.011.222.03.222,0,.211.015v.215l-.028.226-.007.224.017.225.015.225.053.226-.078.226.091.225-.061.225-.022.225.066.225-.024.225.015.225,0,.225.025.225-.022.226-.061.226.031.226.049.225-.048.225.052.225,0,.226-.014.226-.04.226-.035.226.06.226.01.226-.008.226-.046.226.026.226-.03.226.052.227-.021.226.009.225-.015.225,0,.227,0,.226-.015.226.042.227-.031.227-.028.226.079.226-.009.227-.066.227.025.228.023.2.2.03.222,0,.223-.047.222.01h.222l.223,0,.223.057.223-.029.222-.037.223.034.224-.036.225.05.212-.024v-.214l0-.225.048-.225-.015-.225-.056-.225.043-.226-.007-.226-.032-.225.055-.225-.053-.225,0-.225-.012-.225.089-.225-.056-.225-.028-.225.085-.226-.019-.226-.072-.226.084-.225-.033-.225-.02-.225.041-.226-.035-.226-.043-.226.026-.226.005-.226.048-.226-.055-.226.071-.226-.016-.226-.021-.226-.049-.227.063-.226.008-.225,0-.226-.044-.227-.022-.226.024-.226.014-.227.029-.226-.044-.227-.018-.226.066-.227-.051-.227-.008-.228.042-.2.2-.054.22-.018.221.068.22-.028.219.049.22-.062.221.07.22-.087.22.038.221.024.221-.032.221-.041.22.043.221.008.221.01.222,0,.218-.02-.007-.224-.027-.228.053-.228.011-.229-.046-.228-.009-.229L144.1,9.7l-.039-.229.059-.229-.043-.229.019-.229-.225-.052-.226.1-.225-.02-.225-.021-.226.015-.226-.009-.226.033-.226-.093h-.225l-.225.046-.225.043L141.39,8.8l-.225.012-.225-.066-.225.046-.226.013-.226,0-.226-.072-.226-.005-.226.062-.226-.034-.226.016-.226.016-.226-.014-.226.019-.226-.046-.226,0-.227-.013-.226.066-.226-.05L137.1,8.8l-.227,0-.226-.069h-.225l-.226,0-.227.089-.226-.051-.226.02-.227-.065-.227.028-.227.07-.226-.038h-.227l-.227,0-.228,0-.241-.027-.033.241.072.228Z" transform="translate(-103.227 -6.742)" fill="#f3981c"/>
  <path id="パス_3262" data-name="パス 3262" d="M192.012,18.707l.232.056.232-.048.233,0,.233.032.237-.009.017-.224.029-.22-.01-.22,0-.22-.062-.22.036-.221-.042-.219-.031-.219,0-.22.046-.221-.046-.22.082-.22-.071-.221.039-.221.021-.221-.018-.22-.03-.221.071-.221-.036-.223-.046-.221.076-.209,0-.209-.047-.215.019-.211.141-.231.078-.234.087-.233.124-.2.138-.208.2-.154.217-.085.226-.044.228,0,.225-.047.214.076.215.012.189.1.2.07.155.177.194.152.045.243.162.219,0,.267.051.255,0,.2-.023.2.04.2.02.2.038.228-.1.228.092.228,0,.228-.085.228.046.228.031.227-.046.227,0,.228.066.228-.007.228-.058.229.048.228-.053.229.073.229-.084.229.059.229.015.229-.044.231.232.023.232-.047.232,0,.231.021.232.012.232.033.232-.008.232.016.232-.108.232.038.233-.01.212,0-.023-.2.047-.221-.056-.221.072-.222-.012-.222.027-.222-.079-.222.025-.222-.024-.221.09-.221-.013-.221-.016-.222,0-.222.016-.222-.075-.223-.008-.222.047-.222-.046-.221.067-.223-.013-.223-.046-.224.084-.224-.1-.237.011-.239.024-.239.032-.241-.078-.232L199,12.42,198.9,12.2l-.008-.239-.031-.238-.109-.214-.033-.244-.122-.207-.169-.175-.111-.2-.127-.189-.163-.159-.21-.1-.153-.179-.214-.083-.192-.109-.218-.038-.2-.109-.221-.018-.224.022-.212-.081-.22-.02-.221.027-.237-.031-.226.1-.237,0-.223.073-.208.021-.182.1-.179.1-.152.139-.232.078-.144.194-.166.162-.136.146-.1.173-.072.2-.1-.024.03-.231.018-.226-.051-.226.03-.227-.018-.227.022-.226.045-.226-.037-.226-.045-.227.034-.227-.04-.227.051-.227.005-.227,0-.227-.005-.226.014-.226-.013-.227L193.147,7l-.022-.227.042-.227-.045-.227.018-.227.042-.226.03-.228,0-.228-.06-.229.007-.216-.218-.022-.232-.037h-.231l-.232.038-.232.041-.232-.009-.232.012-.232,0-.232-.04-.232,0-.233,0-.211.022-.028.2-.033.226.074.226-.02.226-.033.226.048.226-.021.226.009.225-.059.225.028.226.062.225-.092.226.057.226,0,.226.024.226v.226l-.029.226-.043.225.028.225.017.226-.044.226.052.226-.07.226.055.225.02.225-.069.225.048.225.038.225-.018.225.025.225-.074.226.022.226.035.226-.045.226.043.226-.043.225.032.226-.081.226.046.226.058.226-.1.226.022.226.011.226.046.226-.046.226.026.226-.018.226-.033.226v.225l-.006.226.068.227-.04.226-.03.226.008.227,0,.226.034.227-.032.226.087.227-.1.227.092.228-.047.233.236-.027.232-.028.232.073.231-.014.232.014.232-.042Z" transform="translate(-147.007 -3.79)" fill="#f3981c"/>
  <path id="パス_3263" data-name="パス 3263" d="M242.524,7.416l.073.2.15.13.208.046.145.131.171.092.169.113.2-.007.19.059.2-.059.191-.015.191-.011.208.028.186-.07.165-.113.148-.129.153-.116.178-.093.084-.183.153-.122.059-.188.069-.174.064-.175.088-.172.079-.184-.041-.2-.011-.191.027-.2-.088-.178-.08-.174-.022-.205-.141-.142-.081-.184-.187-.091-.111-.169-.174-.1-.162-.112-.2-.029-.179-.067-.173-.112-.2.056-.19-.077-.194.033-.188.049-.183.055-.2.02-.168.1-.155.115-.208.048-.127.155-.091.177-.123.145-.132.144-.054.187-.094.17-.014.193-.074.184-.013.194.029.193.066.184.036.186.011.2.119.158.094.168Z" transform="translate(-186.924 -3.269)" fill="#f3981c"/>
  <path id="パス_3264" data-name="パス 3264" d="M247.448,34.6l-.021-.226-.038-.226-.009-.226v-.227l.053-.227.008-.227v-.227l-.01-.227-.015-.227.028-.227-.017-.227,0-.227v-.227l-.044-.227.009-.227.018-.227-.011-.227,0-.227.029-.227-.01-.227-.011-.227.028-.227-.031-.226.017-.227,0-.228-.034-.227.053-.227-.048-.228-.018-.228.067-.228-.045-.228-.011-.228.018-.228.023-.229-.039-.207-.21-.045-.232.037-.231.02-.232-.023-.232.017-.232-.05-.232.023-.232-.011-.232-.008-.232.043-.233-.029-.224.013.023.217-.048.226.048.226-.013.226-.052.226.03.226-.013.226.05.226-.061.227-.008.227.04.227-.026.227-.008.227.035.227,0,.227-.031.227.032.227.028.227-.026.227.005.227.017.227-.058.227.018.227-.018.227.036.228-.028.227.035.226,0,.227-.027.228.038.227,0,.227-.007.228-.005.227.015.228-.064.228.044.228-.042.228.046.229-.021.233.235-.008.232.03.232,0,.232-.055.232.037.232.007.232-.039.232.039.232-.015.232-.016.233-.014.239.032.01-.232-.041-.226.034-.226Z" transform="translate(-188.914 -20.563)" fill="#f3981c"/>
  <path id="パス_3265" data-name="パス 3265" d="M278.995,33.565l.076.242-.053.241-.005.241,0,.242.01.253.264.017.252,0,.252-.032.253.017.253-.037.253.056.254-.031.253.042.254-.015.254-.025.257.005-.033-.247.057-.244-.046-.244.046-.244.008-.244-.065-.244.014-.244-.018-.244.022-.243-.031-.244.024-.244-.012-.244.029-.244.026-.244,0-.244-.055-.245.026-.244-.012-.245.056-.245-.029-.245.018-.239v-.24l-.008-.239-.036-.236-.049-.234.006-.24-.07-.23-.011-.242-.135-.211-.065-.226-.026-.246-.126-.205-.113-.211-.162-.163-.108-.208-.19-.132-.178-.14L280.4,26.1l-.225-.061-.233-.082-.231-.088-.243-.05-.235-.115-.253,0-.251-.025-.252.035-.235,0L278,25.694l-.232.051-.219.094-.255.109-.284.04-.226.168-.228.1-.142.215-.177.163-.145.151-.161.143-.087.2-.073-.005-.009-.245.026-.24-.016-.24.026-.241-.028-.213-.215-.057-.242-.005-.242.074-.243-.065-.243-.019-.243.064-.243-.013-.243-.045-.243.026h-.244l-.229.027-.011.229-.021.245-.011.245,0,.245.027.245-.046.246.033.246.051.246-.055.245,0,.245.008.245.018.246-.012.246v.246l.014.246,0,.246-.008.246-.031.246.066.246-.03.246,0,.246-.032.246-.028.246.022.247v.245l.043.246-.018.246-.019.246-.012.247,0,.246.06.247-.03.247.025.247v.247l-.009.248,0,.243.248.048.252-.056.252,0,.253.015.253,0,.253,0,.254.016.253-.038.254.045.254-.05.234.005.028-.224-.028-.244.053-.244-.05-.245-.006-.245-.015-.245.067-.244-.051-.245.005-.244.025-.244-.013-.245.014-.245-.034-.245.049-.245.005-.245.011-.246-.046-.246.048-.246-.009-.279-.007-.28.005-.282.116-.235,0-.265.134-.22.12-.217.17-.183.223-.112.213-.073.216-.053.217-.08.228.042.219-.025.216.035.2.093.212.068.156.187.122.2.156.189.052.257.043.255.039.255.057.262.016.265-.071.265-.008.241.019.24,0,.241L279,31.4v.241l0,.241.028.24-.029.241.066.24-.034.24.019.241-.046.241Z" transform="translate(-210.92 -19.832)" fill="#f3981c"/>
  <path id="パス_3266" data-name="パス 3266" d="M330.071,16.2l.113.22.2.16.062.255.211.154.038.273.187.171.171.182.085.239.118.218.173.182.2.167.078.265.265-.07.251.036.249-.057.251.076.25-.05.25.1.251-.107.25.074.251.007.251-.063.251-.022.251.075.252-.024.253,0-.2-.157-.074-.249-.136-.2-.159-.185-.145-.2-.206-.149-.157-.187-.067-.255-.168-.179-.132-.206-.229-.133-.105-.225-.129-.207-.168-.178-.139-.2-.173-.175-.1-.227-.177-.173-.078-.247-.206-.151-.115-.219-.147-.2-.14-.2-.223-.142-.079-.226.1-.216.226-.124.106-.232.209-.14.126-.215.182-.163.163-.181.141-.2.189-.157.135-.2.143-.2.172-.173.163-.181.215-.134.187-.16.075-.261.19-.157.162-.182.188-.16.19-.158.111-.231.173-.155-.229.039L334.65,9.8l-.243-.027-.244.051-.243-.067-.244.067-.244-.064-.244.018-.244-.022-.244-.01-.244.1-.244.015-.245,0-.257-.089-.111.245-.183.166-.13.212-.264.094-.153.192-.082.253-.24.114-.124.216-.152.193-.118.223-.242.114-.173.176-.086.252-.179.169-.16.185-.155.192-.187.164-.118.226-.213.137.05-.243-.025-.247-.078-.247.112-.247-.081-.248.066-.247-.094-.247,0-.247.1-.247-.018-.247-.019-.247-.013-.248-.026-.247.013-.247-.051-.247,0-.248.112-.248-.1-.248.079-.248-.089-.248.075-.248-.006-.248.054-.247V7.364l-.109-.247-.018-.247.1-.248.02-.248-.122-.248,0-.249.091-.248.029-.249-.019-.249.006-.29-.293-.008-.252-.017-.252,0-.253.11-.253-.019-.253-.069-.253.085-.253.027-.253-.107-.254.081-.237-.023-.031.228-.031.246.105.245-.086.246-.042.246.1.246-.055.246.062.246-.092.246.07.246-.061.246.021.246.079.246-.079.246-.025.246-.015.246.116.246-.1.246.067.245-.047.245v.245l-.033.245.067.245-.019.245.009.245-.06.246.079.247-.081.246.108.246,0,.246-.035.245.013.246-.026.246.018.247-.058.246.014.246.066.246,0,.247-.045.246.066.246-.024.246-.074.247.107.246-.071.247.016.245-.076.247.112.246-.043.246.03.247-.028.247.036.247-.043.247.048.247-.074.247.035.248.025.211.217.074.252-.079.252.035.253-.015.253-.018.253,0,.253-.021.253.089.254-.044.254.078.215-.1.016-.209.016-.249.061-.249-.109-.249.063-.249.029-.249-.1-.248.016-.249-.019-.248.114-.249-.039-.249-.017-.249.033-.249-.068-.249.089-.249-.029-.25-.076-.25.018-.256.086-.005.118.219.162.186.153.193.087.239.132.208.141.2.121.216.21.155.113.22Z" transform="translate(-251.624 -3.718)" fill="#f3981c"/>
  <path id="パス_3267" data-name="パス 3267" d="M140.736,88.869l-.247-.083-.242.051-.217.119-.209.125-.2.145-.074.246-.129.2-.071.23-.026.24.022.247-.061.247.063.247.008.248-.043.248.02.247-.052.247.082.247-.037.247.072.247-.112.247.092.247-.057.248.037.248-.086.248.112.248-.059.248-.04.248v.247l.056.248-.032.248-.037.248.125.248-.086.248.059.248.02.246-.085.247.088.247-.053.248.04.249-.063.248v.248l-.043.248.1.249-.014.249-.037.249-.05.249.082.249.021.249v.249l-.031.25.018.25-.024.251,0,.251.073.248.046.247.132.214.133.218.227.119.221.115.245.047.248.12.244.021.243-.1.243.033.244.064.244-.008.245-.049.244.045.244.019.244-.119.246.078.245-.017.245-.011.246-.015.246.046.245-.045h.245l.246-.012.247.073.247-.048.247-.02.257.061.247-.077.2-.164.19-.162.153-.2.134-.218.037-.253-.059-.25.02-.244,0-.26-.143-.213-.169-.182-.157-.2-.251-.054-.206-.169-.256.081-.243-.019-.243.022-.243-.08-.244.047-.244-.077-.244.038-.244-.035-.244.009-.244.037-.243-.039-.245.068-.245.026-.246-.079-.269.052-.038-.27.03-.246-.014-.246.037-.246-.039-.246.066-.246v-.246l-.038-.246.049-.246.033-.247-.122-.246.018-.246.049-.246.012-.246-.022-.246.015-.247-.047-.247.081-.247-.067-.247.068-.247-.037-.245.042-.245-.039-.246-.017-.247-.052-.247-.007-.247.1-.246,0-.247-.005-.248.017-.247-.074-.247.019-.248.021-.248-.029-.247-.034-.247-.006-.249.008-.249.1-.249-.108-.249.057-.244-.087-.227-.1-.218-.164-.173-.139-.2-.232-.081-.193-.168-.243-.056Z" transform="translate(-107.564 -68.563)" fill="#f3981c"/>
  <path id="パス_3268" data-name="パス 3268" d="M191.086,99.461l-.255-.01-.231-.1-.2-.151-.153-.2-.178-.163-.165-.183-.1-.224-.086-.229-.1-.234-.012-.253.06-.251-.06-.249-.009-.25.044-.25.067-.251-.046-.252-.059-.251.092-.251-.094-.251.062-.252.008-.252.041-.252-.1-.252,0-.252.024-.252-.042-.252.043-.253.048-.253.014-.25-.009-.259-.007-.243.073-.232.091-.221.055-.244.143-.2.188-.159.17-.179.244-.062.215-.1.231-.065.24-.062.252-.013.242.068.221.117.244.078.176.184.106.235.212.149.137.213-.01.265.049.236.1.24L193,92.93l.071.249-.049.249.053.25,0,.252-.073.252-.008.251.051.251v.251l-.028.252.013.252.05.252-.089.253L193,96.2l0,.252.013.252.022.253.02.253-.042.254.073.254-.1.244-.031.244-.083.232-.12.214-.169.178-.129.213-.222.111-.159.219-.268,0-.228.092-.245.013Zm-.005-11.182-.253-.006-.252.02-.236.107-.244.057-.248.044-.225.116-.259.033-.221.125-.215.133-.188.171-.183.171-.2.147-.2.148-.134.216-.188.165-.219.147-.07.256-.107.224-.2.175-.1.23-.015.262-.132.219.006.259-.1.234.018.253-.022.246-.08.247-.008.251.051.249v.249l-.027.25.013.252.05.252-.089.251.009.251,0,.251.013.252.023.252.02.252-.042.253.074.252-.081.252.019.252,0,.253-.008.253-.036.254.052.254-.045.253.129.24-.068.261.087.239.057.244.088.234.135.214.094.229.091.233.08.245.158.2.178.18.157.195.179.175.221.127.189.159.167.194.242.083.22.113.2.148.205.159.252.042.255.015.221.148.263-.048.239.094.249.028.251.048.248-.105.248-.015.25-.008.237-.087.251-.017.254-.025.243-.072.193-.186.224-.107.217-.12.255-.065.21-.14.184-.173.152-.205.184-.168.154-.2.124-.218.139-.2.136-.206.182-.186.066-.245.076-.237.1-.23.11-.231.005-.255.046-.246.006-.251-.038-.25.012-.251.089-.249-.018-.25-.038-.25-.043-.251-.012-.252.041-.251.044-.251.017-.251-.1-.252.019-.252-.022-.252.08-.252-.048-.252.077-.252-.038-.252.035-.253-.009-.253-.037-.254.039-.254-.075-.248-.046-.245.043-.258-.109-.233-.09-.232-.047-.244-.1-.226-.07-.241-.15-.2-.073-.247-.142-.207-.183-.174-.128-.221-.153-.2-.267-.078-.181-.17-.173-.185-.2-.145-.229-.1-.218-.123-.248-.053-.208-.16-.259-.007-.228-.125-.254-.009-.244-.074-.254.019-.251-.036Z" transform="translate(-144.264 -68.16)" fill="#f3981c"/>
  <path id="パス_3269" data-name="パス 3269" d="M250.921,88.215l-.254.049-.259-.034-.234.156-.266-.045-.233.114-.231.105-.237.081-.255.046-.21.148-.245.081-.174.2-.2.151-.195.158-.213.14-.2.158-.178.183-.117.231-.145.207-.131.216-.124.221L246.7,91l-.02.262-.159.216v.261l-.136.234-.025.256.054.26-.036.253-.007.254-.024.254.064.254,0,.255,0,.256-.044.255.074.255-.092.255.011.257-.015.256.066.256-.069.257.012.257.032.256.044.256-.023.257-.033.257,0,.258-.03.258.083.251-.065.259.029.254.044.252.141.226.037.253.073.244.145.213.121.221.156.2.13.214.107.236.219.143.18.173.134.227.2.163.252.081.192.165.214.133.209.149.243.078.232.106.233.111.257.027.261-.017.24.113.255.007.254.025.244-.109.243-.024.26.079.248-.039.224-.13.22-.119.248-.035.229-.091.2-.147.218-.112.237-.077.217-.116.162-.177.194-.135.155-.179.161-.188.009-.25.054-.234-.048-.257-.116-.23-.08-.241-.145-.209-.172-.195-.25-.076-.224-.137-.261.013-.228.054-.247-.014-.237.059-.178.173-.232.074-.214.1-.207.119-.231.058-.229.044-.227.085-.255-.021-.241-.086-.249-.062-.183-.187-.2-.143-.177-.175-.178-.186-.14-.22-.068-.251-.019-.259-.071-.257.033-.253.083-.254-.088-.254-.025-.256.1-.256v-.255l-.081-.255.059-.255-.071-.256.049-.256-.053-.256,0-.257.073-.256.008-.256-.051-.256v-.257l.027-.258L249.187,93l-.05-.258.1-.253.036-.251.081-.24.1-.234.125-.225.16-.206.226-.131.185-.2.27-.024.243-.079.255.012.259.02.275-.029.256.086.206.18.229.126.229.139.267.049.241.121.267.008.255,0,.263-.03.234-.126.141-.231.144-.2.1-.225.159-.22.031-.262-.028-.25-.086-.235-.188-.172-.158-.172-.169-.161-.133-.226-.246-.07-.224-.1-.205-.136-.231-.083-.187-.192-.273.035-.2-.181-.251-.012-.245-.023-.233-.109-.247-.026Z" transform="translate(-190.266 -68.127)" fill="#f3981c"/>
  <path id="パス_3270" data-name="パス 3270" d="M302.865,96.444l-.045-.262.075-.228.059-.232.089-.225.133-.212-.036-.259.146-.208.03-.241.119-.217-.019-.256.1-.223.065-.267.1-.26-.014-.285.089-.3.078.305.056.272.028.279.089.266.1.241.032.261.055.254.074.25.035.26.047.257.131.233.1.244-.015.275.108.242.082.262-.261.029h-.248l-.248-.01-.247-.031L303.5,96.6l-.249.079-.25-.01-.28.012Zm.647-7.633-.227.077-.257,0-.2.146-.19.15-.162.176-.154.18-.14.193-.134.2-.133.213,0,.262-.083.237-.048.247-.163.213.035.274-.084.237-.067.242-.1.232-.142.219.026.27-.154.215-.039.25-.127.224.01.266-.107.231L300.8,94l-.112.228,0,.261-.08.238-.116.227-.025.255-.091.235-.124.225-.086.237.037.272-.147.216-.076.238-.014.257-.106.231-.088.237-.075.24-.025.255-.1.231-.092.236-.1.234-.049.249-.066.244-.128.225-.023.257-.029.254-.073.242-.168.214v.266l-.105.234-.067.194-.012.207.1.232.053.227.117.2.095.24.21.135.231.086.217.134.257-.036.242-.026.243.024.246-.038.18-.181.256-.07.162-.2.058-.251.166-.2.065-.249-.027-.275.171-.221.029-.259.022-.261.1-.24.112-.238-.039-.28.168-.185.2-.029.24-.038.241.076.242-.066.241.015.241,0,.242.055.241-.026.242-.035.241.036.242-.074.243.058.243-.008.252-.022.055.261.047.255.159.224.007.266.011.265.166.223.045.257.006.269.106.24.144.207.126.2.128.206.168.186.217.132.253.028.246,0,.238-.047.235-.033.263.023.2-.153.151-.2.253-.1.027-.266.132-.211.036-.246-.02-.213-.125-.183-.076-.237-.006-.26-.084-.236-.066-.242-.133-.222-.026-.254-.093-.234-.052-.246-.028-.253-.072-.239-.155-.214-.081-.237-.084-.236.018-.268-.065-.243-.075-.24-.082-.237-.153-.215-.091-.234-.074-.24.026-.271-.139-.22-.1-.233-.048-.248-.093-.232.029-.27-.192-.2.037-.273-.121-.226-.1-.234v-.262l-.069-.241-.088-.236-.114-.229-.02-.257-.19-.205.017-.269-.124-.226-.1-.232-.068-.242-.017-.259-.111-.231-.027-.26-.134-.223-.062-.232-.1-.216-.107-.219-.181-.163-.2-.133-.174-.166-.209-.121-.23-.074L304,88.769l-.245-.039Z" transform="translate(-230.667 -68.531)" fill="#f3981c"/>
  <path id="パス_3271" data-name="パス 3271" d="M363.48,89.045l-.231.031-.243-.007-.225.084-.207.124-.185.157-.161.186-.054.242-.085.224.029.24-.01.247,0,.247-.052.247,0,.248.027.248.011.247.029.247-.022.247-.024.247-.015.247,0,.247-.006.247.077.248-.1.248.033.248-.037.248.019.248v.248l-.011.248v.248l.036.248.051.249-.023.248-.077.248.03.248.023.246-.029.247-.031.247.033.248.033.249-.064.248.069.248-.072.248.094.249-.052.249.039.249-.025.249-.059.249.054.249-.033.249.053.25-.012.25-.04.251.072.251-.052.266.11.243.082.257.239.139.189.169.229.113.242.1.26-.01.245-.035.243.038.243.013.244-.005.245.034.245.022.244-.065.244-.031.244.087.246-.04.245-.016.245-.022h.246l.246.01.245.031.245.055.246-.079.246.01.247-.026.247.094.234-.137.229-.06.2-.122.195-.14.205-.157.011-.266.143-.215-.015-.25.036-.254-.146-.218-.071-.234-.141-.2-.161-.2-.251-.059-.228-.079-.241-.081-.243.095-.243-.015-.243,0-.244-.02-.244-.085-.244.07L366.6,99.9h-.244l-.244.079-.243-.005-.245-.064-.245.088-.246-.076-.228.008-.063-.228.092-.246,0-.246-.063-.246.053-.246.026-.246-.072-.246-.012-.246.053-.246.01-.247,0-.246L364.84,97l.065-.246.031-.246-.022-.246-.031-.247.006-.247-.013-.247.057-.247-.072-.247.053-.245-.011-.245-.06-.246.043-.247.016-.247-.03-.247.021-.246.031-.247-.041-.248.049-.247-.043-.247-.032-.248-.014-.248-.016-.247.056-.247-.056-.249.05-.249.053-.249-.073-.249-.007-.237-.085-.22-.075-.225-.148-.185-.193-.133-.182-.148-.22-.084-.226-.084Z" transform="translate(-279.602 -68.747)" fill="#f3981c"/>
  <path id="パス_3272" data-name="パス 3272" d="M11.943,5.153l.335.193.344-.071.336.056.342.021.3.2.367-.046.325.112.265.247.287.178.345.071.338.1.282.2.216.28.289.186.146.338.26.216.324.171.11.345.184.283.243.249.2.28.156.306.078.338.163.305.022.349.086.328.063.334-.043.346.161.327.016.342-.053.34-.018.34-.121.326-.059.331-.008.346-.159.306,0,.36-.28.251-.133.308-.145.3-.044.373-.3.206-.189.281-.238.241-.244.233-.222.256-.252.226-.286.183-.272.2-.312.135-.278.193-.3.146-.283.205-.313.141-.362-.026-.324.092-.319.139-.352-.086-.329.113-.339.049-.334-.138-.336,0-.347.048-.34-.037-.3-.191-.364.036-.308-.155-.328-.1-.3-.156-.258-.237-.269-.205L8.1,17.031l-.245-.242L7.569,16.6,7.3,16.383l-.119-.355-.212-.26-.247-.235-.271-.227-.073-.354L6.1,14.715l-.049-.354-.21-.281L5.8,13.734,5.747,13.4,5.6,13.087l-.008-.342-.1-.328,0-.341-.018-.338-.1-.344.017-.344.079-.337.2-.309L5.6,10.039l.2-.3L5.9,9.416,6.028,9.1,6.1,8.758,6.37,8.52l.1-.336.292-.21.19-.277.186-.285.16-.319.365-.107.19-.3L8.1,6.444l.359-.076L8.688,6.1,8.966,5.9l.3-.167.331-.1.328-.1L10.27,5.5l.322-.112.322-.142.345-.013.35.131ZM11.6,0l-.344.048-.337.106-.345,0L10.206.046,9.9.3,9.523.183,9.206.353,8.868.425,8.547.559,8.18.545,7.9.8l-.32.125L7.216.939l-.332.109-.267.243-.264.238-.3.165-.341.1-.265.224-.367.075-.258.236-.191.318-.344.123-.268.22-.2.29L3.6,3.549,3.365,3.8l-.275.215-.186.294-.278.217-.2.278-.2.28-.267.237-.072.364-.171.3L1.5,6.265l-.152.31-.221.277-.14.317-.065.347-.184.3,0,.364L.479,8.46.4,8.8.329,9.14l.08.371-.194.314-.034.345-.069.34-.052.344.008.348-.007.346-.034.346.015.186L0,12.263l.03.183,0,.186.095.392.067.388-.066.411.079.319.153.3-.039.35.179.288.028.352.18.305.2.293.071.34.059.349.216.276.131.314.186.286.126.319.226.262.07.35.168.3.3.222.087.341.079.346.191.284.311.216.086.344.2.278.051.363.225.263.142.312.162.3.209.274.232.259.164.3.174.295.179.292.111.333.16.3.23.263.233.261.193.285.131.324.092.348.3.22.127.325.147.313.227.265.184.288.114.329.321.212.046.384.259.25.091.356.2.284.329.2.116.34.26.247.147.32.2.282.11.344.286.227.119.339.283.229.106.349.279.231.089.362.316.2.188.293.192.289.266.229.106.367.426.093.44-.079.2-.3.146-.329.245-.248.159-.313.274-.23.175-.3.184-.3.148-.32.238-.259.222-.268.168-.305.193-.29L14.966,30l.183-.3.208-.278.156-.313.132-.33.252-.255.127-.332.282-.237.165-.31.2-.294L16.9,27.1l.11-.333.116-.329.156-.3.259-.241.234-.257.16-.3.151-.308.2-.281.135-.318.19-.285.09-.345.282-.232.145-.313.214-.272.1-.341.208-.276.229-.264.142-.314.211-.274.092-.345.136-.32.143-.314.209-.275L21,19.972l.252-.25.1-.336.1-.339.177-.291.21-.27.189-.28.084-.346.326-.206.168-.3.1-.333.116-.322.149-.312.179-.3.084-.337.057-.344.058-.342.153-.3.084-.316.151-.3v-.334l.057-.393.056-.393.036-.4-.009-.187-.125-.183.109-.183-.066-.186.125-.348-.036-.347-.117-.339-.06-.341.069-.358-.191-.32-.022-.346-.106-.329-.075-.336-.013-.356-.072-.341-.242-.282-.083-.337-.165-.3-.172-.3-.008-.379-.154-.312-.215-.277-.258-.247-.082-.357-.3-.213-.115-.343-.278-.221-.158-.316-.193-.291-.287-.207-.2-.286-.287-.2L19.855,3l-.268-.219-.336-.132-.278-.2-.258-.229-.209-.307-.371-.06-.241-.268-.312-.151-.305-.163L16.929,1.2,16.666.944l-.353-.05-.28-.237L15.7.56,15.355.5,15,.5,14.7.251l-.36.025L14,.258,13.676.065l-.357.06-.347.013-.344,0-.342-.05L11.943.062Z" fill="#f3981c"/>
</svg>
