<svg xmlns="http://www.w3.org/2000/svg" viewBox="0 0 290.33 174.79"><title>agegate_text</title>
<g id="レイヤー_2" data-name="レイヤー 2"><g id="content">
	<g class="age_text1_svg">
		<path d="M98.09,30.39l-14.91,1.3-3.56-3.22V24.11l3.83-.34v2.42l1.67,1.53,13-1.13Zm-.7-14.83L80.3,17.05V13.23l17.09-1.5Z"/><path d="M122.05,24.54l-3.6,4.07-3.51.3V25l1.57-.13L118.2,23v-7l-2.49-2.25-2.24.2V25.6l-2.58,3.67-5.61.49-3.4-3.69V15.5l4.64-5.09,10.85-.95,4.68,4.26ZM109.83,24V14.17l-1.72.16L105.64,17v7L107,25.62l1.79-.15Z"/><path d="M145.69,13l-1.68.15v6.29l-5.41,7.06-9.68.85V23.44l7.87-.69,3.26-4.32V13.48l-9,.79V20.1l-4,.35V14.61l-1.69.15v-4l1.69-.14V8.46l4-.35v2.15l9-.79V7.32L144,7V9.12L145.69,9Z"/><path d="M168.82,8.76l-3.35.3-3.69,2.58V24.45l-4,.35V14.46l-5.27,3.7-4.39.38v-4l3.32-.29,12.95-9.1,4.41-.39Z"/><path d="M190.56,15.8l-5,.44-8.44-2.84v9.71l-3.92.34v-19l3.92-.35V9.21l9,3,4.44-.39Z"/><path d="M200.91,21.39l-3.83.34L194.16,19V2.25L198,1.91v15l.86.79,2.06-.18Zm13.49-7.65-2.06.18v3.76l-2.85,3-5.37.47-3-2.56V14.2l3-3.23,4.37-.38V6.09l-8,.7V3l8-.7V.34L212.34,0V1.92l2.06-.18V5.57l-2.06.18v4.5l2.06-.18Zm-5.93,2.83V14.26l-2.81.24-.93.9v1.52l.93.78,1.83-.17Z"/><path d="M61.87,70.84,58.61,74.4l-3.89.34v-3.8l2.28-.2,1.07-1.16V67.21l-1.07-1-4.59.4v5.23l-2.63,3.3-5,.44-3.28-3v-5.5l3.32-3.68,3.76-.33V60.56l-6.77.6V57.42l6.77-.59V54.88l3.78-.33v2l2.24-.2V60l-2.24.19v2.54l6.2-.54,3.26,3Zm-13.24-.27V67l-2.38.21-1.1,1.27v2.36l1,1,1.5-.13ZM61.85,60.34l-3.65.31V59.34l-1-.87-1.17.11V54.75l2.85-.25,2.92,2.71Z"/><path d="M70.52,59.44l-.84,3.36-5.05-.94.88-3.34Zm.15-5.26-.83,3.33-5-1,.9-3.32Zm0,10.23-2.28,9.73-3.49-.42,2.29-9.78Zm15.55-10-5,.44v1.94l4.5-.39V72.21L71.22,73.48V57.71l4.43-.39.25-1.56,2.24.21L78,57.11l1-.08V55.09l-8.08.7v-3l15.39-1.34ZM82.94,65.64V63.92l-4,.35V59.93l-1.47.13-.88,5.3-2.22-.16.82-4.94-1.16.1v6.06Zm0,3.92V68L74,68.73v1.61Zm0-7.83V59.58l-1.74.15v2.15Z"/><path d="M95.77,71.15l-3.39.3-2.92-2.71V52l3.82-.34v15l.86.77,1.63-.15Zm13.56-1.34-10.41.91-3-2.79V63.29L99.64,63v2.71l1.2,1.08,8.49-.75Zm-.11-14.46L95.91,56.52v-3.8l13.31-1.17Z"/><path d="M122.09,56.56l-6.11.53V69.77l-3.3.29V49.12l9.41-.82Zm-3.3-4.78v-1l-2.81.25v1Zm0,2.92v-1L116,54v1Zm9.64,10.06-2.58.23,1.88,2.57-2.31,1.65-2-2.94L125,65.06l-2.51.22-1.83,4.26L118,68.61l1.34-3-2.2.19V63.21l3.35-.29.68-1.55-3.62.31V59.17l1.29-.11-.41-1.46,2.56-.81.61,2,2.33-.21.61-2.13,2.56.36-.41,1.53,1.27-.11v2.51l-3.67.32-.65,1.55,4.75-.41Zm4.41,3.53-3.28.29V55.9l-6.11.54V48.18l9.39-.82Zm-3.28-17.46v-1l-2.78.25v1Zm0,2.92v-1l-2.78.25v1Z"/><path d="M156.47,51.06l-3.08.27V66.11l-3.83.33V64.66l-8.87.77-3.14-2.8V57.79l3.14-3.38,8.87-.78v-2l-13.37,1.18V49.1l13.37-1.17V46.05l3.83-.33V47.6l3.08-.27Zm-6.91,9.88V57.35L142.3,58l-1,.92v1.88l1,.8Z"/><path d="M180.08,60l-3.8,4.14L163,65.27l-2.79-2.49V58.73l2.79-3,5-.44,2.78,2.52v3.08l3.76-.33L176,58.91v-4.1l-1.49-1.36-7.79.68.91-5-7.81.68V46.06L172.09,45l-.88,5,5.07-.44,3.8,3.47Zm-12.88,1.2V59.08l-.88-.76-2,.18-.84.91v1.31l.73.71Z"/><path d="M203.63,62.1l-6,.52V59.34l2.24-.19V46.86l-5.79.5-.75,2.51,3.06-1.28,3.48,8.63-3.1,1.38-3.48-8.52-2.63,9-3.48-.72,3-10.63-3.17.28V63.55l-3.69.32V44.72L191.3,44l.7-2.42,3.57.69-.4,1.39,8.46-.74Z"/><path d="M228.71,50.58l-1.13,3.09L226,53.19v6.68l-16.93,1.48V54.74l-1.43.74-1.15-2.89L217,47.4l.92,2.36.82-2.15Zm-.56-6-3.31.29V43.18l-14.51,1.27v1.76L207,46.5V41.84l8.71-.76V39.77l3.71-.33v1.31l8.72-.76Zm-12.61,2.26-7.38,3.58-.95-2.34,7.33-3.4Zm8.17,5.6L217.6,50.6l.07-.16-6.18,3.09Zm-1.22,5V55.36l-9.85.86v2.06ZM228,46.29l-.92,2.51-7.38-2.3,1-2.33Z"/><path d="M251.57,49.3l-4.64.41.59,2.44-3.8.33L243.11,50l-5.75.51L235.89,52V54l1.24,1,13.56-1.18V57.6L235.5,58.93,232,56V50.47l3.84-3.53V44.2l-4.61.41v-3.8l4.61-.41V38.5l4-.35v1.91l11.07-1v3.8l-11.07,1v2.67l11.75-1Z"/><path d="M88.52,95.69l-1.35,3.24L82.8,97.39v2.1l-10.75.94V98.21l-4.19,2.39-1.36-3,10-5.61,1.35,2.51,1-2.1Zm-.61,6.14-3.19,3.22,2.2-.19v7.78l-18.74,1.64V106.5L81,105.37l-.36-.3,1.54-1.52-14.53,1.27v-2.9l17.86-1.56.54-.52Zm-4.52,8.32V108l-11.68,1v2.15Zm-2-13.26-4-1.38.22-.5L73,97.63Z"/><path d="M110.67,107.26l-3.1,3.42-4.79.42-3.15-2.85V102l-1.06-.93-2.65.23L95,111.78l-4,.35,1.72-20.55,4.07-.35-.54,6.06,4.21-.36,2.94,2.68v6.65l.88.86L106,107l.88-1V96.44l3.8-.34Z"/><path d="M132.14,108.53l-11.09,1-4.52-4.56V96.63l1.87-1.88-4.64.4V91.33L129,90v3.82l-5.68.5L120.49,97v6.25L123,105.5l9.12-.8Zm2.24-17.44-4.36.38V88.32l4.36-.38Zm0,4.27-4.36.39V92.58l4.36-.39Z"/><path d="M146.81,107.25l-5.43.47-3.49-3.23V88.83l3.83-.33v14.08l1.4,1.28,3.69-.33Zm10-2.87-3.82.33V92.76l-1.4-1.32-3.49.3V88l5.21-.46,3.5,3.27Z"/><path d="M180.71,99.23l-6.05.53v2.72L172,105l-8.83.78-2.64-2.1V100l2.64-2.59,7.63-.67V95l-9.3.81V92.45l9.3-.81V89.78l-9.3.81V87.24l9.3-.81V84.76l3.89-.34v1.67l5.12-.45V89l-5.12.45V91.3l5.12-.45V94.2l-5.12.45v1.78l6.05-.52Zm-9.94,2.23V99.74l-5.68.5-.75.76v1.07l.75.63,4.91-.43Z"/><path d="M203.82,87.48l-3.08.27v14.78l-3.83.33v-1.79l-8.87.78-3.14-2.8V94.2L188,90.83l8.87-.78v-2l-13.37,1.17V85.52l13.37-1.17V82.47l3.83-.34V84l3.08-.27Zm-6.91,9.88v-3.6l-7.26.64-1,.92V97.2l1,.8Z"/><path d="M215.64,98.64l-2.9,3.15-4.14.37-2.92-2.65V95.42l2.92-3.18,4.14-.36,2.9,2.69Zm-2.51-.8v-2l-1.45-1.32-2,.17-1.45,1.58v2l1.45,1.34,2-.18Z"/>
	</g>
	<g class="age_text2_svg">
		<path d="M20.69,169.82l-3.42,3.76-3.64.32v-3.78l2-.18,1.22-1.37V166.3l-1.24-1.16-.18,0-6.27,9.13-5.73.5L0,171.63v-5.37l3.44-3.78,3.08-.27v-2.74l-5.37.47v-3.83l5.37-.47v-1.51l3.76-.33v1.51l9.25-.81v3.83l-9.25.81v2.74l2.58-.23v-1.4l3.62-.32v1.41l.74-.07,3.47,3.18Zm-11.21-2-3,.26v-2.13l-1.45.13-1.24,1.35v2.31l1.24,1.14,2.42-.22Zm1.59-2.27-.79.07v1.07Z"/><path d="M36.65,156.92l-7.74.68-1,14.24-3.8.33L25,157.94l-1.43.13v-3.69l1.68-.15.11-1.75,3.92-.35-.12,1.76,7.47-.66Zm7.2,7.91L42.2,165v4l-2.6,2.65-7,.61-2.71-2.57v-4.21l2.71-3.16,5.73-.5V160l3.85-.34v1.79l1.65-.14Zm-5.5,2.54v-2.06l-3.85.33-.86.92v1.26l.86.74,3-.26ZM44,158.3l-3.64.32V157l-1-.87-1.18.1v-3.82l2.85-.25L44,154.88Z"/><path d="M67.48,154.52l-14.76,1.29-1,14.75-3.8.34.95-14.75-1.7.14v-3.78l1.95-.17.11-2,3.83-.34L53,152l14.53-1.27Zm-.43,14.7-9.73.86-3.06-2.75v-3.69l3.8-.33v2.08l1,.93,7.94-.69Zm0-9.07-12.7,1.11v-3.6l12.7-1.11Z"/><path d="M77.58,168.3l-3.82.34-2.92-2.71V149.16l3.82-.34v15l.86.79,2.06-.18Zm13.49-7.65-2.06.18v3.76l-2.85,3-5.37.47-3-2.56v-4.35l3-3.23,4.37-.38V153l-8,.7v-3.83l8-.7v-1.92l3.87-.34v1.92l2.06-.18v3.83l-2.06.18v4.5l2.06-.18Zm-5.93,2.83v-2.31l-2.81.24-.92.9v1.52l.92.77,1.84-.16Z"/><path d="M109.78,153.63,100,161.54l9.71-.85v3.58l-15.14,1.32V162l11.2-9.42V151l-1.06-1-5.36.47-1.09,1.2v1.93l-4,.35v-3.74l3.06-3.34,9.39-.82,3.06,2.81Z"/><path d="M128.65,158.85l-3.71,4.09-8.44.74-3.72-3.41v-11l3.72-4.11,8.39-.73,3.76,3.42Zm-3.87-1.42v-7.52l-1.65-1.55-4.82.42-1.66,1.84v7.54l1.66,1.51,4.82-.42Z"/><path d="M153,154.75l-2,2.65,1.45,3.86-3,1.3-.81-2.15-1.18,1.53-2.06-1.59,2.17-2.81-1.78-4.74-10.39.91v2.83l-1.16,7.19-3-.21.95-6.72v-5.63l12.59-1.11-.46-1.22L131.5,150v-2.63l2.36-.2v-3.62l3.73-.33v3.62l2.72-.24v-4.64l3.71-.32v1l8.21-.72v2.51l-8.21.72v1.09l8.8-.77v2.62l-1.22.11.43,1.23.79-.07v2.83l-3.69.32.8,2,1-1.29Zm-14.31,3.65-1.33,4.53-2.11-.54,1.38-4.46Zm5.84-1.89-2.76.24v6.32l-2.87.25V157l-2.74.23v-2.69l8.37-.73Zm.91,5-2.11.89L142,158.07l2.06-.79Zm4.23-11.87-.43-1.23-1.63.15.47,1.22Z"/><path d="M166.25,155.34l-9.55,6.58-1.84-3.32,1.72-1.19V140.52l3.74-.32v14.64l3.89-2.7Zm3.1-8.9-3.19,2.73-3.87-5.07,3.14-2.63Zm7.51,11-3.14,2.74-3.24-4.2-1.61,4.67-3.44-.86,7.22-20.75,3.42.81-4.84,14,1.67-1.41Z"/><path d="M200.66,157.67l-21.07,1.84V156l7.58-.66V137.82l3.83-.33v5.91l8.17-.72v3.6L191,147v8l9.66-.85Z"/><path d="M221.39,155.72l-11.09,1-4.53-4.56v-8.31l1.88-1.88-4.64.4v-3.82l15.24-1.33V141l-5.69.5-2.82,2.65v6.24l2.53,2.29,9.12-.8Zm2.24-17.44-4.37.38v-3.15l4.37-.38Zm0,4.27-4.37.39v-3.17l4.37-.38Z"/><path d="M247.07,138.69,244,139v14.78l-3.82.34v-1.79l-8.87.78-3.15-2.81v-4.84L231.3,142l8.87-.77v-2l-13.38,1.17v-3.74l13.38-1.17v-1.88l3.82-.33v1.88l3.08-.27Zm-6.9,9.89V145l-7.27.63-1,.93v1.88l1,.79Z"/><path d="M266.06,148.82l-3,3.26-5.18.45v-3.74l3.23-.28,1.11-1.23v-7.49l-1.2-1.12-4.46.39-1,13.67-3.78.33.95-13.66-2.35.2v-3.87l2.62-.23.2-3,3.85-.33-.2,3,6.18-.54,3,2.92Zm4.66-6.18-3.64.32V132.73l3.64-.32Z"/><path d="M290.33,138.85l-3.39,3.8-2.38.21v2.56l-3.57.31v-6.16l4.2-.36,1.45-1.51v-2.83l-1.45-1.32-4.68.41-1.43,1.57V137l-3.73.33v-3.08l3.42-3.78,8.15-.71,3.41,3.16Zm-5.77,11.37-3.57.31V147l3.57-.31Z"/>
	</g>
</g></g></svg>