<svg xmlns="http://www.w3.org/2000/svg" viewBox="0 0 182.99 193.43"><defs><style>.landscape_svg1,.landscape_svg2,.landscape_svg3,.landscape_svg8{fill:none;stroke:#000;stroke-width:3px;}.landscape_svg1,.landscape_svg2,.landscape_svg3{stroke-miterlimit:10;}.landscape_svg2{stroke-dasharray:5.62 5.62;}.landscape_svg3{stroke-dasharray:6.02 6.02;}.landscape_svg4{fill:#ccc;}.landscape_svg5{fill:#4d4d4d;}.landscape_svg6{fill:#ffeb01;}.landscape_svg7{fill:gray;}.landscape_svg8{stroke-linejoin:round;}.landscape_svg9{fill:#333;}.landscape_svg10{fill:#1a1a1a;}</style></defs><title>landscape</title><g id="レイヤー_2" data-name="レイヤー 2"><g id="content"><polyline class="landscape_svg1" points="4.49 146.73 1.5 146.99 1.5 143.99"/><line class="landscape_svg2" x1="1.5" y1="138.37" x2="1.5" y2="62.55"/><polyline class="landscape_svg1" points="1.5 59.74 1.5 56.74 4.49 56.48"/><line class="landscape_svg3" x1="10.49" y1="55.96" x2="175.5" y2="41.52"/><polyline class="landscape_svg1" points="178.5 41.26 181.49 41 181.49 44"/><line class="landscape_svg2" x1="181.49" y1="49.61" x2="181.49" y2="125.44"/><polyline class="landscape_svg1" points="181.49 128.24 181.49 131.24 178.5 131.5"/><line class="landscape_svg3" x1="172.5" y1="132.03" x2="7.49" y2="146.47"/><polygon class="landscape_svg4" points="142.12 185.54 51.87 193.44 51.87 13.45 142.12 5.55 142.12 185.54"/><polygon class="landscape_svg5" points="136.62 180.04 46.37 187.94 46.37 7.95 136.62 0.05 136.62 180.04"/><polygon class="landscape_svg6" points="130.81 151.97 52.18 158.85 52.18 21.92 130.81 15.04 130.81 151.97"/><path class="landscape_svg7" d="M99.1,164.17,83.89,165.5a5.3,5.3,0,0,0-4.75,5.17A4.28,4.28,0,0,0,83.89,175l15.21-1.33a5.29,5.29,0,0,0,4.75-5.16A4.29,4.29,0,0,0,99.1,164.17Z"/><path class="landscape_svg8" d="M175.13,25.08a15.83,15.83,0,0,0-17.55-16l-3.53.31"/><polyline class="landscape_svg8" points="160.32 15.1 154.05 9.38 160.32 2.56"/><path class="landscape_svg8" d="M11,162.89a15.82,15.82,0,0,0,17.55,16l3.53-.31"/><polyline class="landscape_svg8" points="25.81 172.87 32.08 178.59 25.81 185.41"/><polygon class="landscape_svg9" points="136.99 0 141.99 6 141.99 185 136.62 180.04 136.99 0"/><polygon class="landscape_svg10" points="46.37 187.94 51.87 193.44 142.12 185.54 136.62 180.04 46.37 187.94"/></g></g></svg>