<svg xmlns="http://www.w3.org/2000/svg" viewBox="0 0 331.02 184"><title>choices</title><path d="M321 19h-9.36V0h-292v19H10A10 10 0 0 1 0 29v145a10 10 0 0 1 10 10h311a10 10 0 0 1 10-10V29a10 10 0 0 1-10-10z" fill="#de3232"/><path d="M58.74 18.2l-.63.61v2.74h-2.59v10l-4.07 4.1h-7.6l-4.12-4.07V19.23H37.1v-4.05h4.19l2.47 2.39v12l2.07 2.11h3.62l2.07-2.09V18.32h1.6L53 18.2v-2.37l1.7-1.66h2.35l1.69 1.66zM57 17.47v-.91l-.66-.66h-.94l-.61.66v.91l.61.64h.94zm20.43 14.07l-4 4.07H62.54v-3.44h9.34l1.81-2v-3.44l-1.9-1.92H61v-3.49h12.34l4.09 4.1zm23.24-11.11H85.33l-1 15.18h-4l1-15.18h-1.74v-3.92h2l.12-2h4l-.14 2h15.11zm-.45 15.18H90.1l-3.17-3.11v-3.82h3.95v2.15L92 31.89h8.26zm0-9.39H87v-3.73h13.2zm6.72 3.18h-4V15.18h4zm14.46 2.07l-4.11 4.14h-7.2v-3.86h5.1l2.21-2.23V15.18h4zm10.68-15.94l-2.91 19.71h-5.41v-4.13h1.92l2.24-15.58zm12.4 19.71h-5.41l-3-19.71h4.21l2.23 15.58h1.93zM165 25l-8.9 5.9 2.47 4.34h-4.73l-6-10.88h4.49l1.82 3.17L160.8 23v-3.21h-16.26v-4.12H165zm22.89 6.68l-3.95 3.93h-13.86l-2.89-2.83v-4.2l2.89-2.88h5.2l2.89 2.86v3.19h3.91l1.53-1.55V26l-1.55-1.55H174l.94-5.09h-8.11v-3.93h12.8l-.92 5.14h5.27l3.95 3.93zm-13.39.07v-2.16l-.91-.87h-2.05l-.87.87V31l.75.8zm37.36 2.34l-2.54 2.27-2.68-3.25-1.39 3.28-3-1.32 2-4.8-2.1-2.58 2.45-2.2 1.13 1.31 1.22-3h-4.37L201 36.06l-3.37-.35.92-8-1.62 1-1-2V36h-3.51v-8l-.73 2.86-2.77-.86 2.33-8.25 1.18.42v-1.4h-2.71v-3.51h2.71V14h3.51v3.28h2.61v3.52h-2.61v2.6l.89-.51 1.93 3.51.33-2.95v-9.12h12.47v3.4h-8.92v2.63h5.81l.26-.61 3.06 1.25-3.65 8.65zm22.27-6.98h-4.82l.61 2.57H226l-.63-2.57h-6l-1.53 1.33v2.13l1.29 1.13h14.1v3.91h-15.8l-3.62-3.39v-5.68l4-3.3V20.4H213v-3.93h4.8v-2h4.11v2h11.51v3.93h-11.5v2.77h12.21zM252 19.3h-6.44v15.05h-4.12v-15H235v-4.17h17zm18.09 15.05h-4v-4.81h-8.7v4.81h-4V19l3.84-3.89h9.08l3.78 3.89zm-4-8.88V20.8l-1.69-1.71h-5.32l-1.69 1.71v4.67zm22.5-.64l-3.83 3.78h-8.59v5.74h-4.05V15.18h12.64l3.83 3.82zm-4-1.85v-2.25l-1.67-1.64h-6.71v5.53h6.71zm10.1 6.31h-4.28v-15.4h4.28zm0 6h-4.25v-3.73h4.25z"/></svg>