<svg xmlns="http://www.w3.org/2000/svg" width="275.73" height="196.5" viewBox="0 0 275.73 196.5"><defs><style>.cls-1{fill:#de3232}.cls-2{fill:#fff}</style></defs><title>text_timeup</title><g id="レイヤー_2" data-name="レイヤー 2"><g id="modal"><path class="cls-1" d="M77.08 22.31h-27.5v64.2H32v-64.2H4.51V4.71h72.57zm26.53 64.3H86V4.71h17.57zm95.79-.1h-17.16v-54.4l-17.37 26.1h-15.45L132.05 32v54.5h-17.16v-82h17.16l25.1 35.8 25.09-35.8h17.16zm76.33-65.1h-48.58v16.1h42.36v16h-42.36v16.3h48.18v16.7h-65.45V4.71h65.85zM104.84 175.8l-16.46 16.6H51.94l-16.66-16.7v-65.1h17.26v57.2l7.46 7.5h20.25l7.43-7.5v-57.2h17.16zm81.16-24l-16.36 16.1H133v24.5h-17.31v-81.8h53.9L186 126.8zm-17.27-7.9v-9.6l-7.12-7H133v23.6h28.61zm45.46 26.9h-18.27v-65.7h18.27zm0 25.7H196v-16h18.17zm30.67-25.7h-18.27v-65.7h18.27zm0 25.7h-18.17v-16h18.17z"/><path class="cls-2" d="M72.57 17.8h-27.5V82H27.5V17.8H0V.2h72.57zM99.1 82.1H81.53V.2H99.1zm95.79-.1h-17.16V27.6l-17.37 26.1h-15.45l-17.37-26.2V82h-17.16V0h17.16l25.09 35.8L177.73 0h17.16zm76.33-65.1h-48.58V33H265v16h-42.36v16.3h48.18V82h-65.45V.2h65.85zM100.33 171.29l-16.46 16.6H47.43l-16.66-16.7v-65.1H48v57.2l7.43 7.5h20.31l7.43-7.5v-57.2h17.16zm81.11-24l-16.36 16.1h-36.64v24.5h-17.27v-81.8h53.91l16.36 16.2zm-17.27-7.9v-9.6l-7.12-7h-28.61v23.6h28.61zm45.51 26.9h-18.27v-65.7h18.27zm0 25.7h-18.17V176h18.17zm30.67-25.7h-18.27v-65.7h18.27zm0 25.7h-18.17V176h18.17z"/></g></g></svg>