<svg xmlns="http://www.w3.org/2000/svg" viewBox="0 0 412.38 484.15"><defs><style>.toTop_svg1{fill:#ccc;}.toTop_svg2{fill:#bfbfbf;}.toTop_svg3{fill:#e6e6e6;}.toTop_svg4{fill:gray;}</style></defs><title>アセット 7</title><g id="レイヤー_2" data-name="レイヤー 2"><g id="content"><polygon class="toTop_svg1" points="157.5 0 412.38 254.88 412.38 312.88 157.5 58 157.5 0"/><polygon class="toTop_svg2" points="0 71.78 412.38 484.15 412.38 312.88 157.5 58 0 71.78"/><polygon class="toTop_svg3" points="157.5 0 0 13.78 0 71.78 157.5 58 157.5 0"/><path class="toTop_svg4" d="M65.08,29.67l-7.26.63v17l-4.64.41v-17l-7.26.63V26.68L65.08,25Z"/><path class="toTop_svg4" d="M86,40.45l-4.32,4.77-10.92,1-4.37-4V29.26l4.34-4.75,10.95-1,4.32,4Zm-4.54-1.73V30l-1.88-1.74-6.75.59L71,31v8.71l2,1.79,6.68-.58Z"/><path class="toTop_svg4" d="M106.64,32.28l-4.32,4.65-9.67.84v6.5l-4.56.4V23l14.23-1.25,4.32,3.92Zm-4.56-1.69V28.05l-1.88-1.69L92.65,27v6.25l7.55-.66Z"/><polygon class="toTop_svg4" points="20.5 28.85 10.39 39.81 20.5 49.07 20.5 28.85"/></g></g></svg>