<svg xmlns="http://www.w3.org/2000/svg" viewBox="0 0 589.88 524.68"><defs><style>.btn2_talk_svg1{fill:#cc9305;}.btn2_talk_svg2{fill:#ffbd03;}.btn2_talk_svg3{fill:#e5a505;}</style></defs><title>アセット 5</title><g id="レイヤー_2" data-name="レイヤー 2"><g id="content"><polygon class="btn2_talk_svg1" points="0 112.31 412.38 524.68 589.88 337.88 335 83 0 112.31"/><polygon class="btn2_talk_svg2" points="335 0 0 29.31 0 112.31 335 83 335 0"/><polygon class="btn2_talk_svg3" points="335 0 589.88 254.88 589.88 337.88 335 83 335 0"/><path d="M52,59.19l-7.3.64L32.28,55.64V70l-5.77.51V42.4l5.77-.5v7.57l13.21,4.45L52,53.35Z"/><path d="M81.4,54.72,54.7,57.05V51l26.7-2.33Z"/><path d="M113.32,52.16l-8.77,11.48L89.3,65V59.1L101.78,58l5.67-7.41V41.39l-12.58,1.1-5,5.81-5.41.47V42.9l2.94-.26,4.94-5.8L113.32,35Z"/><path d="M129.34,37.51l-13.18,1.15V34.12l4.24-.37V32l4.67-.41v1.77l4.27-.37Zm-.84,5.88L117,44.4V40.29l11.54-1Zm0,5.84-11.54,1V46.13l11.54-1Zm0,13-11.54,1V51.94l11.54-1Zm-4.13-3.57V55.26l-3.24.29V59ZM135.68,47.8l-4,1.15-1.87-9.81,4-1.16Zm12,6.33-6.27.54v6.88l-5.11.45V55.12l-6.27.55v-5l6.27-.55V36l-5.87.51V31.57l16.78-1.46V35l-5.8.51V49.7l6.27-.55Zm.4-16.59-1.87,10.14-4-.45L144,37.09Z"/><path d="M157.51,29.44l-2.7,14.82,1.7-.15V60.23l-5.07.44V47.62l-2.4-.26,3.27-18.2Zm23.16,2.44-6.27.55v4l5.4-.48V57.75l-21,1.84V37.8l5.54-.49v-4l-5.44.47V29.11l21.72-1.9ZM165.05,54.41V41.89l-2,.18V54.58Zm5.28-17.62v-4l-2,.17v4Zm0,17.15V41.43l-2,.17V54.12Zm5.37-.47V41l-2,.17V53.65Z"/><path d="M212.29,39.56l-12.58,9.58L203.22,55l-6.71.59L188,40.85l6.38-.56L197,44.57l9.41-7.33v-4.5l-23.06,2V28.88l29-2.53Z"/><path d="M229.22,31.44,216,32.6V27l13.24-1.15Zm0,9.18L216,41.77v-5.6L229.22,35Zm14.72.48-8.68,11.1-18.92,1.66V48l16.22-1.42,5.51-7V24.09l5.87-.51Z"/><path d="M275.11,38.8l-10,10.79-17.62,1.54v-5.9l15.22-1.33,6.57-7V21.16l5.87-.51Zm-14.55-9.2-12.64,1.1V24.86l12.64-1.1Z"/><path d="M285.1,39.36,279,39.9V18l6.07-.53Zm0,8.58-6,.53V43.13l6-.53Z"/><path d="M37.68,87.79l-.87.07v4.29l-2.39,2.59L31.1,95v-2.9L32.91,92l.93-1V88.12l-3.9.35V93l-2.11,2.31-3.76.33L22,93.75V88.28L24.07,86,27,85.73V83l-3.86.34v-2.9l6.78-.59v5.68l3.9-.34V80l3-.26v5.12l.87-.08ZM27,91.92v-3.2l-1.88.17-.56.64V92.1l.63.61,1.2-.1Z"/><path d="M54.7,90.52l-2.41,2.65-3.72.33-2.45-2.21V86.45l-.82-.72-2.06.18L42.52,94l-3.07.27,1.33-16L44,78.06l-.43,4.72,3.27-.29,2.29,2.09v5.16l.68.66,1.3-.11.69-.76V82.11l3-.26Z"/><path d="M66.49,80.31l-6,.53-.81,11-3,.26.73-11.05-1.1.1V78.33l1.3-.11.08-1.36,3.05-.27L60.69,78l5.8-.5Zm5.59,6.14-1.28.11v3.11l-2,2.06-5.41.47-2.11-2V86.94l2.11-2.45,4.45-.39V82.71l3-.26v1.39l1.28-.12Zm-4.27,2v-1.6l-3,.26-.67.71v1l.67.57,2.3-.2Zm4.36-7-2.83.25V80.38l-.74-.68-.92.08v-3l2.22-.19,2.27,2.1Z"/><path d="M88.19,90l-8.62.75-3.51-3.54V80.79l1.46-1.46-3.61.31v-3l11.83-1v3L81.33,79l-2.2,2.06V85.9l2,1.78,7.09-.62Zm1.74-13.55-3.4.3V74.34l3.4-.3Zm0,3.33-3.4.29V77.64l3.4-.29Z"/><path d="M106,83.43l-3.85.34-6.56-2.21V89.1l-3,.27V74.59l3-.27v4l7,2.34,3.45-.3Z"/><path d="M122.66,81,108.6,82.2V79l14.06-1.23Z"/><path d="M140.14,79.56l-4.63,6-8,.7V83.22l6.58-.58,3-3.9V73.89l-6.62.58-2.62,3.06-2.85.25V74.69l1.55-.14,2.6-3.06,11-1Z"/><path d="M147.22,84.87l-2.64.23L142.31,83V70l3-.26V81.33l.67.59,1.27-.11Zm10.52-1.05-8.08.71-2.36-2.17v-3.6l2.92-.26v2.11l.93.84,6.59-.58Zm-.08-11.22-10.34.9v-3l10.34-.91Z"/><path d="M175.35,72.49l-1.18.1v9.64l-4.85.42V79.56l1.77-.16V73l-5.08.44-2,9.69-3.74.32V80.35l1.39-.12,1.28-6.53-3.29.29V70.86l3.91-.34.42-2.18,3.16-.28-.44,2.18,5.12-.44v.54l3.55-.31Zm0-3.44-3.69.32V66.93l3.69-.33Z"/><path d="M192.42,72.9l-2.3,4.35-3.57.31,2.62-5v-2l-6.52.57,1,10.23-3,.27L179.5,71.44l-2.35.21v-3.1l2-.17L179,67l3.17-.28.12,1.36,10.09-.88Z"/><path d="M210.11,73l-3.6.32.46,1.89-2.95.26-.48-1.89-4.46.39-1.15,1.1v1.6l1,.76,10.53-.92v2.93l-11.8,1-2.7-2.32V73.89l3-2.74V69l-3.59.32v-3l3.59-.31V64.59l3.07-.27V65.8l8.6-.75v3l-8.6.75v2.08l9.12-.8Z"/><path d="M219.68,69.07l-5.85,10.3-2.39-1.16L217.17,68Zm8,7.8-2.64,1.68-6.19-13.1-4.69.41V63l6.5-.57Z"/><path d="M244.92,76.3l-2.9.25-1.81-1.61v-9.3l-.69-.64-1.07.09L234,69.5v7.77l-2.9.25V74.59l-2.18.19v-3l2.18-.19v-4.5l-2.18.19v-3l2.18-.19V61.69l2.9-.26v4.31l3.49-3.56,3.15-.27,2.43,2.21v8.82l.61.6,1.2-.1Z"/><path d="M262.22,69l-5.36.47V73l-2.27,2.43-5.53.49-2.18-2.12V69.56l2.53-2.48,4.46-.39v-7l3-.26V61l5.19-.45v3l-5.19.45v2.46l5.36-.47Zm-8.35,2.8V69.7l-3.13.27-.84.8v1.37l.76.65,2.46-.21Z"/><path d="M279.71,70.15l-3.15,3.4-11.11,1V71.59l9.69-.85,1.46-1.59V67.08l-1.46-1.35L264,66.7v-3l12.52-1.09,3.2,3Zm-2.57-9-11.67,1V59.19l11.67-1Z"/><path d="M287.52,68.14l-2.78.25V57.14l2.78-.25Zm0,4.47-2.77.24V70.09l2.77-.24Z"/><polygon points="306.38 30.82 316.49 40.05 306.38 51.05 306.38 30.82"/></g></g></svg>