<svg xmlns="http://www.w3.org/2000/svg" viewBox="0 0 242.348 181.4">
  <defs>
    <style>
      .cls-1, .cls-2 {
        fill: none;
        stroke: #999;
        stroke-miterlimit: 10;
      }

      .cls-2 {
        stroke-width: 0.7px;
      }
    </style>
  </defs>
  <g id="グループ化_211" data-name="グループ化 211" transform="translate(-73.19 -309.545) rotate(8)">
    <path id="パス_567" data-name="パス 567" class="cls-1" d="M9.659,43.559c-.018,14.948,5.528,34.625,9.583,48.248s8.552,23.469,13.042,36.129c13.327,7.519,21.177,14.638,36.848,19.507,16.217,5.038,28.589,7.879,49.491,7.7,17.587-.149,44.108-7.24,62.231-15.242-3.347-13.846-6.668-20.337-10.007-36.221a399.74,399.74,0,0,1-6.9-55.583c-14.883-10.02-34.7-15.093-53.4-19.49S56.508,27.344,39.776,31.7,21.657,36.071,9.659,43.559Z" transform="translate(134.8 285.095)"/>
    <path id="パス_568" data-name="パス 568" class="cls-1" d="M21.717,91.55c3.856,13.789,7.155,23.184,11.769,35.737C49.142,136.305,62.593,143.045,80.7,148.3s45.958,3.825,62.821.941,20.968-6.228,34.872-11.232a218.848,218.848,0,0,1-11.065-40.807c-2.716-14.843-4.068-32.114-5.011-47.648C145.652,36.426,98.655,28.16,80.08,29.152S40.74,34.568,28.159,37.685s-7.967,3.183-17.066,6.828C14.508,59.32,17.86,77.762,21.717,91.55Z" transform="translate(134.688 285.095)"/>
    <path id="パス_569" data-name="パス 569" class="cls-1" d="M177.7,136.3c-28.519,12.586-60.126,14.437-89.442,8.65C67.421,140.837,55.5,134.793,37.9,125.367c-4.844-12.173-8.192-20.894-11.951-34.661a456.864,456.864,0,0,1-9.872-48.02" transform="translate(134.3 285.095)"/>
    <path id="パス_570" data-name="パス 570" class="cls-1" d="M126.317,33.63a328.906,328.906,0,0,1,46.933,13.077c8.859,3.293,20.025-.65,27.122,1.318,8.672,2.4,21.343-2.437,2.653-13.723S133.722,4.7,109.4,9.67" transform="translate(127.031 285.095)"/>
    <path id="パス_571" data-name="パス 571" class="cls-1" d="M.486,43.333c1.856-8.3,8.369-11.758,17.491-16.889,8.777-4.937,30.95-12.96,42.9-14.829" transform="translate(135.514 285.095)"/>
    <path id="パス_572" data-name="パス 572" class="cls-1" d="M135.355,153.9c25.7-2.252,51.464-10.643,75.6-20.193,2.051-.422,4.95-.97,6.453-1.326-23.906,16.006-60.009,26.923-85.989,27.725s-39.938-2.1-62.272-9.453c-16.082-5.3-29.518-15.123-43.725-24.668-2.175-1.461-3.826-4.284-5.186-6.272-.737-1.077,3.039,3.531,2.909,1.776-.789-10.683-7.784-24.705-11.241-35.465S5.144,52.117,4.071,44.491s-2.7-.547-2.4-4.171,7.183,2.812,7.576,2.961" transform="translate(135.425 285.095)"/>
    <path id="パス_573" data-name="パス 573" class="cls-1" d="M198.044,49.779c2.251,15.865,7.986,45.516,11.069,58.7s2.287,18.474,9.311,24.186,14.377-2.694,21.46-1.5" transform="translate(120.126 285.095)"/>
    <path id="パス_574" data-name="パス 574" class="cls-1" d="M214.126,49.077" transform="translate(118.873 285.095)"/>
    <path id="パス_575" data-name="パス 575" class="cls-1" d="M219.011,35.922c3.084,16-17.713,12.385-27.635,15-.123,25.266,7.854,62.743,16.607,86.049a47.575,47.575,0,0,0,16.536-2.881" transform="translate(120.645 285.095)"/>
    <g id="グループ化_208" data-name="グループ化 208" transform="translate(197.474 296.092)">
      <path id="パス_576" data-name="パス 576" class="cls-1" d="M106.293,11l-2.184.264.491,2.319-2.069-.853-.217,2.383-1.842-1.331-.56,2.321-1.688-1.555L97.47,16.8l-1.585-1.68-.87,2.209L93.5,15.576l-.946,2.174-1.468-1.8-.98,2.155L88.65,16.293l-.938,2.168-1.57-1.725-.9,2.226-1.6-1.7-.914,2.218-1.567-1.736-.977,2.187-1.506-1.8L77.61,20.265,76.2,18.374l-1.212,2.047L73.746,18.4l-1.425,1.881-.947-2.2-1.746,1.524L69.3,17.22l-2.147.653" transform="translate(-67.153 -10.997)"/>
    </g>
    <g id="グループ化_209" data-name="グループ化 209" transform="translate(197.43 286)">
      <path id="パス_577" data-name="パス 577" class="cls-1" d="M85.092,2.038l1.446,1.844,1.039-2.155,1.491,1.816L90.124,1.4,91.585,3.24l1.1-2.118L94.1,3.012,95.28.94,96.612,2.9,97.9.9l1.191,2.06,1.465-1.846.909,2.217,1.805-1.451.077,2.383,2.18.164-1.812,1.176.746,2.174-2.07-.848-.266,2.371-1.8-1.388-.6,2.3L98.064,8.632l-.771,2.247L95.727,9.184l-.875,2.2-1.5-1.765L92.4,11.791,90.954,9.976l-1,2.137-1.4-1.855-1.04,2.111-1.482-1.806-.976,2.191L83.5,11l-.984,2.187L81,11.4l-1.032,2.161-1.476-1.832-1.109,2.117-1.4-1.907-1.225,2.042-1.252-2.018-1.417,1.89-.955-2.195-1.791,1.473-.063-2.38-2.174-.2,1.808-1.229-.848-2.146,2.118.715L70.358,5.5l1.866,1.3.537-2.33L74.476,6,75.2,3.727l1.619,1.646.837-2.229L79.2,4.87l.922-2.191,1.491,1.785L82.6,2.31l1.429,1.839Z" transform="translate(-67.105 -0.905)"/>
    </g>
    <path id="パス_578" data-name="パス 578" class="cls-1" d="M66.534,11.113q.528,3.126,1.061,6.252" transform="translate(130.37 285.095)"/>
    <path id="パス_579" data-name="パス 579" class="cls-1" d="M68.652,12.444q.524,3.1,1.055,6.2" transform="translate(130.205 285.095)"/>
    <path id="パス_580" data-name="パス 580" class="cls-1" d="M71.292,13.028c.3,2,.6,4,.894,6" transform="translate(129.999 285.095)"/>
    <path id="パス_581" data-name="パス 581" class="cls-1" d="M74.339,13.191c.291,1.993.59,3.985.881,5.978" transform="translate(129.762 285.095)"/>
    <path id="パス_582" data-name="パス 582" class="cls-1" d="M77.043,13.035q.51,3.036,1.019,6.073" transform="translate(129.551 285.095)"/>
    <path id="パス_583" data-name="パス 583" class="cls-1" d="M79.916,13.054q.426,2.917.848,5.834" transform="translate(129.327 285.095)"/>
    <path id="パス_584" data-name="パス 584" class="cls-1" d="M82.911,12.814q.418,2.877.832,5.755" transform="translate(129.094 285.095)"/>
    <path id="パス_585" data-name="パス 585" class="cls-1" d="M85.739,12.425q.409,2.842.817,5.687" transform="translate(128.874 285.095)"/>
    <path id="パス_586" data-name="パス 586" class="cls-1" d="M88.569,12.061q.4,2.8.8,5.6" transform="translate(128.653 285.095)"/>
    <path id="パス_587" data-name="パス 587" class="cls-1" d="M91.4,11.711q.393,2.769.782,5.539" transform="translate(128.433 285.095)"/>
    <path id="パス_588" data-name="パス 588" class="cls-1" d="M94.356,11.1q.386,2.744.769,5.489" transform="translate(128.202 285.095)"/>
    <path id="パス_589" data-name="パス 589" class="cls-1" d="M97.027,10.64q.382,2.711.755,5.422" transform="translate(127.994 285.095)"/>
    <path id="パス_590" data-name="パス 590" class="cls-1" d="M99.822,9.891q.378,2.7.754,5.4" transform="translate(127.777 285.095)"/>
    <path id="パス_591" data-name="パス 591" class="cls-1" d="M103.084,14.628q-.373-2.714-.763-5.424" transform="translate(127.582 285.095)"/>
    <path id="パス_592" data-name="パス 592" class="cls-1" d="M104.938,8.2c.263,1.827.535,3.652.788,5.48" transform="translate(127.378 285.095)"/>
    <path id="パス_593" data-name="パス 593" class="cls-1" d="M107.214,6.827c.285,1.846.549,3.694.82,5.542" transform="translate(127.201 285.095)"/>
    <path id="パス_594" data-name="パス 594" class="cls-1" d="M107.933,5.112c.284,1.869.577,3.736.846,5.608" transform="translate(127.145 285.095)"/>
    <path id="パス_595" data-name="パス 595" class="cls-1" d="M39.053,101.18a14.908,14.908,0,0,0-6.544-4.825q.284,1.038.565,2.076l-.818-.166a32.881,32.881,0,0,0-2.232-7.615l1.64.33.676,1.651c6.091.223,12.174.434,18.271.695.423.068,1.008.39,1.3-.222s-.342-1.738-.678-2.3c.15-.073.554-.007.559-.134-3.4-4.428-11.7-10.961-15.572-12.539s-9.248-.662-7.926,2.976,5.312,7.142,9.739,5.164-3.85-6.343-6.62-5.914c-.291-.541-.645-.592-1.032-1.235,4.573,1.07,6.93-.826,10.495,5.188s-8.4,6.885-11.212,2.594-6.876-9.736-.2-12.534S45.736,80.026,50.243,85.7a42.376,42.376,0,0,1-.557-7.209c.1-2.045-1.787-2.092-2.972-2.689.067-.611.164-1.284.243-1.918,1.817.919,3.9,2.134,5.928,2.037a22.346,22.346,0,0,0-.462,10.337,49.13,49.13,0,0,0,4.664,11.914c-.707.089-1.708.108-2.279.179-1.464-.954,1.6-1.6-1.662-2.206s-12.554-.443-16.965-.369a16.911,16.911,0,0,1,4.386,4.42C40.071,100.526,39.558,100.853,39.053,101.18Z" transform="translate(133.54 285.095)"/>
    <path id="パス_596" data-name="パス 596" class="cls-1" d="M31.017,61.409c-2.052-3.274-4.066-6.575-6.119-9.848l-.769.519c-.436-.291-.883-.565-1.312-.868.359-.758.923-1.847,1.219-2.546a20.139,20.139,0,0,0,.947-3.1c.487.372.989.73,1.474,1.1a13.06,13.06,0,0,0-.582,1.863,117.567,117.567,0,0,0,15.261,9.924c4.154,2.167,9.429,5.073,11.75,6.54s.7.437,1.793.718.667-.63,1.4-.782c.386.487.881,1.054,1.309,1.572a9.112,9.112,0,0,0-2.264,4.014c-.5-.141-1.375-.451-1.649-.485-1.888-1.732,3-.126-1.459-2.329S34.656,58.658,29.141,54.454a27.206,27.206,0,0,0,3.725,6.4C32.26,61.05,31.633,61.231,31.017,61.409Z" transform="translate(133.775 285.095)"/>
    <path id="パス_597" data-name="パス 597" class="cls-1" d="M64.7,55.848a18.067,18.067,0,0,0-1.376-12.664c-1.84-3.195-4.217-5.346-7.123-5.378S53.342,41.1,53.757,43.25s3.576,7.875,6.047,5.45-.652-6.368-2.645-8.267c2.445.364,3.352,1.352,4.753,4.8s-2.8,7.91-6.671,4.8-7.149-7.871-2.987-12.245,10.9-1.525,14.324,2.881.568,13.152,1.223,16.123,4.805-2.555,5.1-3.046-.317-2.74-.576-3.38c.8-.157,1.619-.173,2.426-.275A13.311,13.311,0,0,0,77.2,55.974c-3.1.226-5.992,1.635-8.731,3.118" transform="translate(131.633 285.095)"/>
    <path id="パス_598" data-name="パス 598" class="cls-1" d="M82.247,35.686c-1.008-1.2-2.779-.626-2.8-3.237-.014-1.488,3.376-3.2,5.961-3.057s7.34.011,9.192,3.325.464,5.147-2.184,6.716C96.36,40.984,99,42.747,99.595,48.09s-6.152,7.308-9.779,6.563-5.535-1.6-7.135-3.91c-1.891-2.728-.243-3.947,1.8-4.078-.252,1.327-1,1.848.591,3.169s5.7,3.274,8,1.523,2-4.4.662-6.984-5.546-3.689-7.629-4.082,4.054-1.932,4.4-4.168S88.646,30.5,85.92,30.732,81.022,32.558,82.247,35.686Z" transform="translate(129.364 285.095)"/>
    <path id="パス_599" data-name="パス 599" class="cls-1" d="M106.286,56.216a23.644,23.644,0,0,1,7.925,3.075c1.978-7.283,14.275-11.631,19.5-14.238-4.55-2.385-9.1-4.748-13.777-6.822q.252-1.182.506-2.362a3.373,3.373,0,0,1,2.276.9q.4-1.239.8-2.479c-2.525-.707-5.072-1.321-7.614-1.947q-.456,1.1-.9,2.2a3.782,3.782,0,0,1,2.279.186q-.383,1.247-.758,2.5c-2.608-.816-5.219-1.619-7.842-2.378a40.423,40.423,0,0,1-4.056,6.747l1.562.864a9.252,9.252,0,0,1,4.261-3.254c1.5.328,3,.667,4.494,1-1.537,4.607-3.086,9.208-4.586,13.831q-1.765-.355-3.529-.715Q106.554,54.773,106.286,56.216Z" transform="translate(127.403 285.095)"/>
    <path id="パス_600" data-name="パス 600" class="cls-1" d="M135.791,76.97a48.172,48.172,0,0,0-12.97-13.681c5.911-1.958,11.41,4.986,14.83,8.928,3.333-1.733,6.637-3.72,10.036-5.184-4.3-3.3-6.543-1.579-9.488-8.548s1.7-13.751,10.381-14.7,17.7,9.664,16.69,16.322-3.356,3.831-5.562,4.616-2.93-2.492-2.135-3.906,2.785.788,3.838-.629,2.839-5.312-.642-7.536-7.109-5.975-14.185-2.231-2.924,14.143,6.208,16.064c-.034.068.465-.224.637-.3.207.386.395.785.595,1.177Q144.825,71.98,135.791,76.97Z" transform="translate(125.985 285.095)"/>
    <path id="パス_601" data-name="パス 601" class="cls-1" d="M151.6,88.266c-.137-1.164-.226-2.894-1.442-3.756-1.574-1.115-4.755-3.859-5.975.486-1.367,4.867.711,10.9,5.87,15.179s17.629,7.936,23.831,2.016,1.4-13.5-3.2-17.288-17.385-4.752-16.033,3.276,8.963,8.581,15.037,8.144a4.972,4.972,0,0,0-.456-1.491c-2.027.8-5.751.008-7.366-.589s-7.787-3.972-3.971-6.018,12.841-1.814,16.315,4.277-9.312,7.859-13.844,6.651-14.65-4.558-14.706-9.929S149.918,87.247,151.6,88.266Z" transform="translate(124.353 285.095)"/>
    <path id="パス_602" data-name="パス 602" class="cls-1" d="M145.038,124.887a121.683,121.683,0,0,1-10.744-7.894c4.9-3.162,7.813-7.8,9.542-13.6,7.724,14.444,18.117,22.942,33.645,23.746a16.876,16.876,0,0,0-2.873,9.071c-13.063-3.828-21.865-14.728-29.444-26.2l-4.087,8.306C142.4,120.508,143.7,122.708,145.038,124.887Z" transform="translate(125.092 285.095)"/>
    <path id="パス_603" data-name="パス 603" class="cls-1" d="M128.936,134.61c-2.188-.764-4.542-1.478-5.81-4.006s-3.841-6.716.243-8.867c4.8-2.526,13.889,1.636,13.048,8.752,3.3,1.9,5.566,1.156,7.9,5.433,3,5.493-2.987,10.178-8.174,8.139S129.771,139.914,128.936,134.61Z" transform="translate(126.115 285.095)"/>
    <path id="パス_604" data-name="パス 604" class="cls-1" d="M132.888,129.92c-2.954-.517-7.581-.157-9.192-3.727-1.233-2.733,3.358-4.323,5.757-3.195A5.974,5.974,0,0,1,132.888,129.92Z" transform="translate(125.933 285.095)"/>
    <path id="パス_605" data-name="パス 605" class="cls-1" d="M133.161,135.174c-.393,2.634,1.841,5.229,4.485,6.176,1.121.4,3.8,2.74,5.594-.517S135.918,134.277,133.161,135.174Z" transform="translate(125.183 285.095)"/>
    <path id="パス_606" data-name="パス 606" class="cls-1" d="M115.352,52.631q1.773-5.529,3.668-11.011,3.672,1.331,7.3,2.791A26.343,26.343,0,0,0,115.352,52.631Z" transform="translate(126.567 285.095)"/>
    <path id="パス_607" data-name="パス 607" class="cls-1" d="M109.283,140.394c-.7-1.971-4.41-6.635-1.161-8.672s9.481.652,9.071,8.16-10.523,5.843-14.52-.975-2.57-15.809,4.135-16.184c5.291-.295,5.73,3.385,5.644,5.592s-2.259.15-2.717.72c1.134-.992,1.262-2.333-.164-3.635s-4.659-1.869-4.9,2.114.826,12.666,5.021,15.04,5.2-2.857,4.081-5.555-2.212-5.285-4.6-4.047-.2,5.185.769,6.728C109.723,139.956,109.61,140.223,109.283,140.394Z" transform="translate(127.727 285.095)"/>
    <path id="パス_608" data-name="パス 608" class="cls-1" d="M88.019,140.493a13.75,13.75,0,0,0-6.395-1.684c.028-.545.056-1.1.082-1.636.774-.138,1.486-.137,2.314-.239,1.693-3.22,4.954-9.567,6.159-12.124s.053-.577-.328-2.043a13.855,13.855,0,0,1-.333-1.664,26.328,26.328,0,0,0,5.739,1.205,9.288,9.288,0,0,0,.834,1.359c-1.261.6-.865-1.213-2.377.8s-4.38,8.007-5.8,10.986c.925-.492,1.983-1.221,2.959-1.8.314.541.622,1.09.933,1.634l-4.739,2.953a1.83,1.83,0,0,1,1.53.313l-.448,2.179" transform="translate(129.194 285.095)"/>
    <path id="パス_609" data-name="パス 609" class="cls-1" d="M73.355,136.623c-3.878-1.691-5.034-7.734-3.866-11.991,1.382-5.037,6.534-10.039,11.632-8.031,4.539,1.788,5.029,9.149,3.215,13.15S77.8,138.562,73.355,136.623Z" transform="translate(130.173 285.095)"/>
    <path id="パス_610" data-name="パス 610" class="cls-1" d="M74.731,125.508c1.007-2.234,3.741-7.547,6.659-6.279s.911,6.859-.094,9.092-3.74,7.528-6.656,6.238S73.723,127.742,74.731,125.508Z" transform="translate(129.857 285.095)"/>
    <path id="パス_611" data-name="パス 611" class="cls-1" d="M52.62,128.865a79.124,79.124,0,0,1-5.347-6.163l1.27-.812q.317.534.63,1.071,9.075-5.947,18.126-11.938L66.233,109.8l1.119-.723c1.861,1.275,3.727,2.541,5.582,3.826-.484.313-.97.622-1.455.933l-1.164-.728q-8.9,5.708-17.806,11.409,3.838.318,7.677.617l.083,2.527q-3.791-.513-7.579-1.049.519.589,1.036,1.181Q53.175,128.325,52.62,128.865Z" transform="translate(131.87 285.095)"/>
    <path id="パス_612" data-name="パス 612" class="cls-1" d="M44.973,120.866l-5.034-4.845,1.271-.814,1.119.687c5.959-3.584,11.893-7.214,17.841-10.819l-.906-1.548,1.673-.725,4.841,4.693L64,108.642q-.5-.562-1.008-1.126-8.141,4.9-16.294,9.788,2.939.216,5.876.462l-.365,2.347q-3.564-.732-7.136-1.417l1.017,1.1Z" transform="translate(132.441 285.095)"/>
    <path id="パス_613" data-name="パス 613" class="cls-1" d="M92.342,88.726a3.4,3.4,0,0,1,4.585-.207c1.569,1.04,1.924,2.438,1.829,4.409,0,.05-2.233-.747.64.364s13.5,5.3,18.817,7.973c3.711,1.864,16.7,9.155,19.3,10.613,3.356,1.876,15.43,6.364,13.294,7.313-4.185,1.86-29.111-13.355-34.764-16.324C112.491,101,99.324,93.93,99.171,93.915c-3.958-.385-3.015.552-5.247-.76-1.346-.791-.762-1.262-2.16-3.042-.467-.594-12.607-3.639-11.632-5.809s10.589,4.332,11.714,4.677S92.2,88.852,92.342,88.726Z" transform="translate(129.315 285.095)"/>
    <path id="パス_614" data-name="パス 614" class="cls-1" d="M90.87,93.2a1.673,1.673,0,0,1,2.4-.207,1.777,1.777,0,0,1,.8,2.335c-.549.864-1.67.652-2.4.179A1.742,1.742,0,0,1,90.87,93.2Z" transform="translate(128.49 285.095)"/>
    <path id="パス_615" data-name="パス 615" class="cls-1" d="M91.463,88.205c-3.767-5.556-1.194-2.613-7.7-8.2S63.081,59.278,56.9,50.217c6.47,1.851,14.858,11.066,19.151,15.478S88.48,83.833,91.535,85.581s3.943.811,5.889,3.123,1.393,4.449-1.323,4.944" transform="translate(131.12 285.095)"/>
    <path id="パス_616" data-name="パス 616" class="cls-1" d="M94.716,85.847c2.268-1.977,5.141-1.36,6.987.929s2.192,5.257-.751,6.316" transform="translate(128.174 285.095)"/>
    <path id="パス_617" data-name="パス 617" class="cls-1" d="M95.265,85.313c1.971-2.9,5.844-2.161,7.871.273s2.018,5.063-.62,6.8" transform="translate(128.132 285.095)"/>
    <path id="パス_618" data-name="パス 618" class="cls-1" d="M97.186,93.9c-2.531,2.693-1.813,7.441-2.774,10.964s-5.108,7.267-6.755,9.837a33.591,33.591,0,0,0-2.845,5.814,45.461,45.461,0,0,0,1.9-9.356,24.594,24.594,0,0,1,3.667-11.411c1.857-2.783,3.442-3.469,3.877-6.609" transform="translate(128.946 285.095)"/>
    <path id="パス_619" data-name="パス 619" class="cls-1" d="M89.629,105.139a22.948,22.948,0,0,1,4.7-7.844,21.989,21.989,0,0,1-1.5,8.361,15.152,15.152,0,0,1-4.209,5.894C88.161,109.29,88.779,107.506,89.629,105.139Z" transform="translate(128.661 285.095)"/>
    <path id="パス_620" data-name="パス 620" class="cls-1" d="M80.183,8.686a59.377,59.377,0,0,0,6.766-.141c-.088-1.5-.175-2.995-.312-4.484a19.022,19.022,0,0,0-6.2,1.091c-1.214.421-4.833,1.191-4.666,2.543S79.062,8.607,80.183,8.686Z" transform="translate(129.651 285.095)"/>
    <path id="パス_621" data-name="パス 621" class="cls-1" d="M95.8,5.329c.046.812-1.623,1.475-2.276,1.771a14.165,14.165,0,0,1-4.6,1.3c-.1-1.493-.2-2.981-.3-4.476a12.265,12.265,0,0,1,5.157.237C94.419,4.338,95.75,4.517,95.8,5.329Z" transform="translate(128.649 285.095)"/>
    <path id="パス_622" data-name="パス 622" class="cls-1" d="M75.561,7.735A42.375,42.375,0,0,1,86.7,5.358" transform="translate(129.666 285.095)"/>
    <path id="パス_623" data-name="パス 623" class="cls-1" d="M95.88,5.3a33.679,33.679,0,0,0-7.19-.084" transform="translate(128.644 285.095)"/>
    <path id="パス_624" data-name="パス 624" class="cls-1" d="M205.61,79.674c6.322.789,20.482.343,21.552-7.858s-2.254-13.955-2.927-21.581" transform="translate(119.537 285.095)"/>
    <path id="パス_625" data-name="パス 625" class="cls-1" d="M215.978,122.242a52.188,52.188,0,0,0,15.866-2.3c4.4-1.52,9.7,2.713,12.421-3.5s-4.941-22.329-9.12-29.108-10.589-8.823-18.276-7.951" transform="translate(118.729 285.095)"/>
    <path id="パス_627" data-name="パス 627" class="cls-1" d="M201.772,52.384" transform="translate(119.836 285.095)"/>
    <path id="パス_628" data-name="パス 628" class="cls-1" d="M220.74,130.9c5.994.091,10.31-1.427,16.27-3.471s14.074-3.848,20.632-3.869" transform="translate(118.358 285.095)"/>
    <path id="パス_629" data-name="パス 629" class="cls-1" d="M233.075,82.471a27.789,27.789,0,0,0-3.037-9.87" transform="translate(117.634 285.095)"/>
    <g id="グループ化_210" data-name="グループ化 210" transform="translate(193.74 352.009)">
      <path id="パス_630" data-name="パス 630" class="cls-2" d="M83.55,103.513q-.27.6-.55,1.185l-.506-.24c.047-.149.092-.3.138-.448l-.266-.126-.51,1.079.266.126.234-.35.509.241q-.263.555-.534,1.106l-.8-.377c.057-.2.113-.4.171-.6l-.382-.181c-.114.282-.248.555-.349.844l.483.229-.007,0,.007,0,.739.35h0c.116.055.687.326.772.368l.02.01.342.165c.041-.086.08-.172.122-.258-.108-.067-.216-.135-.324-.2.183-.4.365-.795.555-1.2l.082-.173c.19-.4.378-.793.573-1.188l.361.126c.04-.086.08-.172.122-.257l-1.539-.729-.122.257C83.291,103.354,83.42,103.434,83.55,103.513Z" transform="translate(-64.495 -66.914)"/>
      <path id="パス_631" data-name="パス 631" class="cls-2" d="M78.8,101.05c-.054.165-.152.395-.207.55a.9.9,0,0,0,.268,1.15c-.442-.078-.9-.269-1.192.29s.09,1.058.633,1.376c.142.083.5.3.7.42s.48.288.693.414c.051-.08.1-.164.145-.245l-.305-.23c.216-.384.432-.76.656-1.143l.1-.166c.225-.382.444-.759.673-1.131.106.02.243.151.342.141.067-.007.09-.188.147-.227-.08-.053-.252-.152-.308-.187-.038-.023-.009,0-.009-.006l-.551-.329-.529-.316c-.047.082-.095.164-.143.246l.318.24c-.2.382-.221.908-.644,1.092-.049.021-.047-.006-.175-.108a.575.575,0,0,1-.128-.664c.138-.248.1-.31.246-.61s-.112-.665-.341-.811-.361-.277-.511-.227a.214.214,0,0,0-.151.24C78.538,100.913,78.753,100.956,78.8,101.05Zm.479,2.108c.035.017.155.038.16.1a1.064,1.064,0,0,1-.65,1.094c-.057.024-.137-.07-.174-.1-.294-.25-.437-.492-.22-.867A.593.593,0,0,1,79.284,103.158Z" transform="translate(-64.23 -66.914)"/>
      <path id="パス_632" data-name="パス 632" class="cls-2" d="M74.932,98.3c0,.061.168.151.2.216-.349,1.062-.711,2.122-1.065,3.183l.414.321,2.686-1.883.361.2c.056-.076.113-.151.169-.229l-.228-.177h0l-.241-.187h0l-.39-.3c-.066.068-.114.151-.174.224l.27.29-.557.4-.809-.627c.081-.224.16-.453.243-.673.108.032.236.175.338.178.065,0,.11-.166.16-.2-.222-.175-.712-.557-.873-.678s-.119-.1-.19-.147h0c-.071-.046-.124-.124-.162-.115A.349.349,0,0,0,74.932,98.3Zm1.186,2.25-1.137.825.479-1.335Z" transform="translate(-63.957 -66.914)"/>
      <path id="パス_633" data-name="パス 633" class="cls-2" d="M69.507,97.388c-.065.069-.134.133-.195.206l.421.434.107.11h0l.4.413a2.455,2.455,0,0,0,.2-.2l-.36-.466,1.234-1.279-.432,2.605.8.825c.065-.069.134-.138.2-.206a2.836,2.836,0,0,1-.213-.275.139.139,0,0,1,.02-.129c.6-.649,1.243-1.29,1.859-1.936l.346.265c.065-.069.133-.134.195-.205l-.293-.3h0l-.136-.141-.5-.517c-.072.061-.132.135-.2.2l.358.468-1.533,1.59.537-3.136-.3-.309L69.854,97.65Z" transform="translate(-63.587 -66.914)"/>
      <path id="パス_634" data-name="パス 634" class="cls-2" d="M68.963,93.252c.17-.09.409-.3.6-.283s.24.106.345.289c.388.678-.065,1.3-.615,1.728s-1.269.708-1.783.117c-.119-.137-.181-.182-.14-.367s.3-.392.437-.529c-.07-.108-.151-.211-.225-.318-.211.172-.415.347-.631.517a2.1,2.1,0,0,0,.4.982,1.646,1.646,0,0,0,2.463.324,1.78,1.78,0,0,0,.41-2.527,2.135,2.135,0,0,0-.839-.739c-.215.173-.432.328-.648.492C68.811,93.042,68.884,93.152,68.963,93.252Z" transform="translate(-63.402 -66.914)"/>
      <path id="パス_635" data-name="パス 635" class="cls-2" d="M64.81,91.063h0c.053.107.194.4.263.532.052-.054.21-.068.233-.14s-.076-.228-.075-.324c.586.108,1.184.215,1.772.335l-.145.08c-.385.212-.764.411-1.149.613l-.208-.327c-.082.045-.166.089-.247.135.053.108.116.237.167.338h0c.05.1,0,0,.085.172s.337.7.451.941a2.694,2.694,0,0,0,.25-.126c-.044-.123-.087-.246-.131-.368.378-.211.753-.414,1.138-.62l.166-.089c.387-.211.766-.421,1.153-.619.076.073.122.274.2.315.062.031.175-.108.24-.123-.124-.27-.41-.9-.5-1.076s.018.018-.028-.059h0c-.046-.077-.089-.256-.142-.282s-.21.076-.231.126.091.235.089.315a2.808,2.808,0,0,1-.8.456c-.229.04-.267-.06-.453-.086.3-.4.584-.81.875-1.209.053.034.077.184.136.192s.171-.1.243-.123c-.037-.086-.139-.29-.165-.343s0-.011,0-.011c-.077-.158-.119-.246-.2-.411s-.191-.4-.282-.577c-.049.057-.21.072-.232.143s.088.209.089.3c-.42.625-.849,1.246-1.273,1.869-.344-.072-.689-.138-1.032-.21-.09-.134-.179-.269-.269-.4-.082.047-.167.088-.247.138l.239.486C64.842,91.126,64.758,90.956,64.81,91.063Z" transform="translate(-63.216 -66.914)"/>
      <path id="パス_636" data-name="パス 636" class="cls-2" d="M63.38,81.592c-.092.009-.184.01-.277.023,0,.082,0,.3,0,.353v.017c0,.2.009.725.011.857h0c0,.131,0,.025,0,.11.759.207,1.518.43,2.277.643-.752.346-1.5.682-2.255,1.033,0,.187.007.543.009.691s0,.137,0,.233h0c0,.1.006.365.006.464.092,0,.184-.012.277-.016l.047-.469c.9-.066,1.806-.139,2.711-.2.023.169.047.338.07.507.092-.008.184-.008.277-.021,0-.126,0-.394-.006-.5h0c0-.1,0-.265,0-.35h0c0-.084,0-.35-.006-.438-.092,0-.184.01-.277.013-.019.148-.038.295-.061.442-.4.027-.866.058-1.247.09s-.677.066-1.042.1c.875-.4,1.744-.8,2.619-1.2l-.006-.408c-.875-.259-1.752-.508-2.629-.759l1.131-.072c.383-.025.779-.055,1.166-.074.017.128.032.256.049.384l.277-.018-.022-1.689-.277.018c-.011.133-.023.266-.035.4-.428.035-.849.069-1.281.1l-.186.014c-.432.032-.853.06-1.282.084C63.409,81.842,63.4,81.717,63.38,81.592Z" transform="translate(-63.103 -66.914)"/>
      <path id="パス_637" data-name="パス 637" class="cls-2" d="M64.412,77.678c.008-.149.048-.292.068-.439-.089-.018-.177-.042-.266-.057-.03.114-.085.322-.111.419h0c-.026.1-.065.246-.092.348h0c-.027.1-.094.355-.123.466.087.027.178.041.265.063.06-.154.1-.31.172-.461.389.094,1.19.255,1.5.339.6.162,1,.352.868.988s-.7.592-1.215.5c-.065-.011-.278-.062-.372-.082-.391-.087-.787-.179-1.178-.273.023-.145.048-.291.072-.436-.089-.021-.178-.037-.266-.062l-.114.431h0c-.049.187-.191.718-.231.875h0c-.041.156-.07.261-.1.392.072-.019.2.09.258.042.075-.061.076-.262.149-.348.305.053.9.194,1.148.243s.433.11.553.123c.854.094,1.44-.075,1.672-1.029s-.219-1.45-1.146-1.7C65.581,77.928,64.818,77.775,64.412,77.678Z" transform="translate(-63.117 -66.914)"/>
      <path id="パス_638" data-name="パス 638" class="cls-2" d="M67.838,75.258c-.062.129-.125.259-.188.388l.57.437-.407.839c-.365-.166-.726-.335-1.091-.509l-.237-.113c-.386-.184-.754-.361-1.134-.546.053-.14.1-.281.157-.421l-.246-.115-.192.4h0c-.065.133-.342.706-.4.833h0c-.06.126-.13.264-.179.376.07,0,.177.133.241.1.086-.05.138-.248.215-.329.4.174.737.329,1.156.527l.288.137c.188.089.745.356,1,.483-.033.134-.091.256-.135.385.08.041.166.073.243.121l.181-.371h0l.4-.831h0l.376-.775h0c.106-.218.157-.325.259-.534C68.419,75.578,68.129,75.415,67.838,75.258Z" transform="translate(-63.211 -66.914)"/>
      <path id="パス_639" data-name="パス 639" class="cls-2" d="M69.8,72.74c-.085.117-.17.232-.255.348l.474.543q-.275.376-.55.752c-.326-.235-.645-.473-.967-.716l-.209-.158c-.343-.258-.668-.5-1-.766l.23-.385-.218-.164c-.349.479-.7.95-1.047,1.434.069.008.149.167.217.143.094-.034.18-.217.269-.283.356.253.654.478,1.026.756l.255.191c.166.125.659.5.881.672-.056.127-.136.235-.2.355a1.239,1.239,0,0,0,.225.153l.5-.689h0l.782-1.069h0l.345-.472C70.317,73.159,70.055,72.958,69.8,72.74Z" transform="translate(-63.349 -66.914)"/>
      <path id="パス_640" data-name="パス 640" class="cls-2" d="M72.246,70.644l-.317.315.329.508-.712.707q-.45-.463-.892-.936l.415-.412.314.245.22-.219-.75-.8-.22.219.227.339q-.206.2-.411.409c-.268-.288-.536-.577-.8-.87l.636-.632.479.355.317-.315c-.208-.205-.418-.409-.625-.614l-.4.4h0l-.59.586h0l-.641.637c-.072.072-.018.017-.018.017-.107.109-.189.185-.288.289.066.02.12.192.189.179.1-.018.209-.186.31-.235.3.3.582.606.874.916l.126.135c.291.312.574.618.859.933l-.258.312c.064.066.124.134.188.2l.6-.6.339-.337h0l1.061-1.055C72.642,71.074,72.429,70.875,72.246,70.644Z" transform="translate(-63.525 -66.914)"/>
      <path id="パス_641" data-name="パス 641" class="cls-2" d="M72.021,67.832c-.2.152-.48.355-.692.521.058.032.087.214.155.212.1,0,.235-.156.342-.191.243.349.475.705.712,1.065l.1.156c.236.361.465.714.7,1.075l-.3.269c.05.077.1.151.151.23l.323-.236h0c.134-.1.243-.175.412-.3l.654-.49c-.045-.081-.1-.155-.149-.233l-.361.219c-.255-.337-.709-.534-.672-1.037,0-.058.032-.047.176-.129a.535.535,0,0,1,.651.124c.165.232.225.209.431.47s.655.132.881-.028.411-.239.439-.41a.19.19,0,0,0-.143-.238c-.1-.027-.238.166-.345.181-.124-.117-.278-.293-.394-.408a.844.844,0,0,0-1.147-.171c.254-.378.673-.759.3-1.268s-1.006-.295-1.52.1C72.585,67.413,72.22,67.679,72.021,67.832Zm1.578-.043a.665.665,0,0,1-.212.943c-.03.026-.117.132-.162.118-.377-.12-.539-.725-.649-1.02-.044-.119.118-.115.157-.145C73.046,67.448,73.358,67.424,73.6,67.789Z" transform="translate(-63.744 -66.914)"/>
    </g>
    <path id="パス_626" data-name="パス 626" class="cls-1" d="M243.842,84.479" transform="translate(116.559 285.095)"/>
  </g>
</svg>
