<svg xmlns="http://www.w3.org/2000/svg" viewBox="0 0 31.111 31.114">
  <defs>
    <style>
      .cls-1 {
        fill: none;
        stroke: #000;
        stroke-miterlimit: 10;
      }
    </style>
  </defs>
  <g id="グループ化_123" data-name="グループ化 123" transform="translate(0 0)">
    <path id="パス_545" data-name="パス 545" d="M26.949,19.877l2.75,2.75L22.627,29.7l-2.75-2.75a10.6,10.6,0,0,1-1.087.327l3.837,3.837,8.485-8.485L27.275,18.79a10.6,10.6,0,0,1-.326,1.087Z"/>
    <path id="パス_546" data-name="パス 546" d="M4.164,11.235l-2.75-2.75L8.485,1.414l2.75,2.75a10.6,10.6,0,0,1,1.087-.327L8.485,0,0,8.485l3.837,3.837a10.6,10.6,0,0,1,.327-1.087Z"/>
    <circle id="楕円形_6" data-name="楕円形 6" class="cls-1" cx="9.5" cy="9.5" r="9.5" transform="translate(6.056 6.056)"/>
    <path id="パス_547" data-name="パス 547" class="cls-1" d="M11.667,12.374l3.889,3.889,3.182-3.182"/>
  </g>
</svg>
